%TF.GenerationSoftware,Altium Limited,Altium Designer,26.1.1 (7)*%
G04 Layer_Physical_Order=3*
G04 Layer_Color=16440176*
%FSLAX25Y25*%
%MOIN*%
%TF.SameCoordinates,3801EB1F-4696-4B9F-8F8F-D1DC1789FAA4*%
%TF.FilePolarity,Positive*%
%TF.FileFunction,Copper,L3,Inr,Signal*%
%TF.Part,Single*%
G01*
G75*
%TA.AperFunction,Conductor*%
%ADD64C,0.03937*%
%ADD70C,0.03937*%
%TA.AperFunction,ComponentPad*%
%ADD88C,0.06181*%
%ADD89R,0.07874X0.07874*%
%ADD90C,0.07087*%
%ADD91R,0.07874X0.07874*%
G04:AMPARAMS|DCode=92|XSize=62.99mil|YSize=62.99mil|CornerRadius=15.75mil|HoleSize=0mil|Usage=FLASHONLY|Rotation=270.000|XOffset=0mil|YOffset=0mil|HoleType=Round|Shape=RoundedRectangle|*
%AMROUNDEDRECTD92*
21,1,0.06299,0.03150,0,0,270.0*
21,1,0.03150,0.06299,0,0,270.0*
1,1,0.03150,-0.01575,-0.01575*
1,1,0.03150,-0.01575,0.01575*
1,1,0.03150,0.01575,0.01575*
1,1,0.03150,0.01575,-0.01575*
%
%ADD92ROUNDEDRECTD92*%
%ADD93C,0.06299*%
%ADD94C,0.06000*%
%ADD95C,0.07874*%
%ADD96C,0.29528*%
G04:AMPARAMS|DCode=97|XSize=70.87mil|YSize=70.87mil|CornerRadius=17.72mil|HoleSize=0mil|Usage=FLASHONLY|Rotation=270.000|XOffset=0mil|YOffset=0mil|HoleType=Round|Shape=RoundedRectangle|*
%AMROUNDEDRECTD97*
21,1,0.07087,0.03543,0,0,270.0*
21,1,0.03543,0.07087,0,0,270.0*
1,1,0.03543,-0.01772,-0.01772*
1,1,0.03543,-0.01772,0.01772*
1,1,0.03543,0.01772,0.01772*
1,1,0.03543,0.01772,-0.01772*
%
%ADD97ROUNDEDRECTD97*%
%TA.AperFunction,ViaPad*%
%ADD98C,0.02362*%
%ADD99C,0.02400*%
G36*
X452756Y199031D02*
X452322D01*
X451520Y198699D01*
X450907Y198086D01*
X450575Y197284D01*
Y196417D01*
X450907Y195615D01*
X451520Y195001D01*
X452322Y194669D01*
X452756D01*
Y157480D01*
X460417Y157441D01*
Y157046D01*
X460749Y156245D01*
X461363Y155631D01*
X462165Y155299D01*
X463032D01*
X463834Y155631D01*
X464447Y156245D01*
X464780Y157046D01*
Y157065D01*
X465134Y157417D01*
X531496Y157079D01*
Y157480D01*
X606000Y160064D01*
X641273Y200474D01*
X641743Y200302D01*
X641818Y195283D01*
X641405Y195002D01*
X641182Y195095D01*
X640314D01*
X639513Y194763D01*
X638899Y194149D01*
X638567Y193347D01*
Y192480D01*
X638899Y191678D01*
X639513Y191064D01*
X640314Y190732D01*
X641182D01*
X641471Y190852D01*
X641889Y190577D01*
X642348Y160064D01*
X641732Y159449D01*
X625984D01*
X602362Y135827D01*
Y119130D01*
X551959D01*
X551569Y119052D01*
X551238Y118831D01*
X551017Y118500D01*
X550939Y118110D01*
Y75000D01*
X549734D01*
X549650Y75035D01*
X548775D01*
X548280Y75137D01*
X548180Y75295D01*
X548083Y75455D01*
X548073Y75462D01*
X548067Y75473D01*
X547914Y75580D01*
X547763Y75691D01*
X547751Y75695D01*
X547741Y75702D01*
X547559Y75742D01*
X547377Y75788D01*
X542549Y76018D01*
X542404Y75997D01*
X542257Y75990D01*
X542208Y75968D01*
X542155Y75959D01*
X542030Y75884D01*
X541897Y75822D01*
X537290Y72441D01*
X537264Y72412D01*
X537229Y72393D01*
X537130Y72266D01*
X537022Y72148D01*
X536544Y72156D01*
X536438Y72200D01*
X535562D01*
X534754Y71865D01*
X534135Y71246D01*
X533800Y70438D01*
Y69774D01*
X533787Y69774D01*
X533661Y69715D01*
X533529Y69672D01*
X533482Y69631D01*
X533426Y69605D01*
X525345Y63674D01*
X524868Y64151D01*
X524060Y64486D01*
X523184D01*
X522376Y64151D01*
X521757Y63532D01*
X521422Y62724D01*
Y61848D01*
X521757Y61040D01*
X517757Y58104D01*
X517730Y58075D01*
X517696Y58056D01*
X517596Y57930D01*
X517488Y57811D01*
X517474Y57774D01*
X517450Y57743D01*
X517445Y57725D01*
X517233Y57402D01*
X516890Y57299D01*
X516298D01*
X515497Y56967D01*
X514883Y56354D01*
X514551Y55552D01*
X514165Y55306D01*
X514106Y55286D01*
X514045Y55284D01*
X513919Y55225D01*
X513787Y55182D01*
X513740Y55142D01*
X513684Y55115D01*
X487655Y36011D01*
X327989Y32109D01*
X327631Y32458D01*
Y36937D01*
X317757D01*
Y32248D01*
X317422Y31888D01*
X317374Y31850D01*
X307719Y31614D01*
X307665Y31602D01*
X307610Y31605D01*
X307473Y31559D01*
X307330Y31527D01*
X307286Y31495D01*
X307234Y31478D01*
X307124Y31381D01*
X307005Y31298D01*
X306976Y31251D01*
X306935Y31215D01*
X306870Y31085D01*
X306792Y30962D01*
X306783Y30908D01*
X306759Y30858D01*
X306659Y30488D01*
X306144Y29595D01*
X305414Y28865D01*
X304521Y28350D01*
X303525Y28083D01*
X302493D01*
X301497Y28350D01*
X300604Y28865D01*
X299874Y29595D01*
X299359Y30488D01*
X299321Y30628D01*
X299286Y30700D01*
X299268Y30778D01*
X299198Y30877D01*
X299145Y30985D01*
X299085Y31038D01*
X299039Y31103D01*
X298937Y31168D01*
X298846Y31248D01*
X298770Y31273D01*
X298703Y31316D01*
X298584Y31337D01*
X298469Y31376D01*
X298390Y31370D01*
X298311Y31384D01*
X285791Y31078D01*
X285433Y31427D01*
Y187008D01*
X374016D01*
Y195854D01*
X374247Y196413D01*
Y197288D01*
X374016Y197847D01*
Y220591D01*
X374516Y220798D01*
X374738Y220576D01*
X375547Y220241D01*
X376422D01*
X377231Y220576D01*
X377849Y221195D01*
X378184Y222003D01*
Y222879D01*
X377849Y223687D01*
X377231Y224306D01*
X376422Y224641D01*
X375547D01*
X374738Y224306D01*
X374516Y224084D01*
X374016Y224291D01*
Y240158D01*
X452756D01*
Y199031D01*
D02*
G37*
G36*
X642348Y223253D02*
X641348Y222585D01*
X641182Y222654D01*
X640314D01*
X639513Y222322D01*
X638899Y221708D01*
X638567Y220906D01*
Y220039D01*
X638899Y219237D01*
X639513Y218623D01*
X640314Y218291D01*
X641182D01*
X641348Y218360D01*
X642348Y217692D01*
Y202111D01*
X642045Y201826D01*
X641579Y201443D01*
X641415Y201464D01*
X641231Y201493D01*
X641218Y201490D01*
X641204Y201491D01*
X641025Y201443D01*
X640844Y201399D01*
X640833Y201391D01*
X640820Y201388D01*
X640673Y201274D01*
X640523Y201165D01*
X640516Y201153D01*
X640505Y201145D01*
X623451Y181607D01*
X623027Y181720D01*
X621973D01*
X620956Y181448D01*
X620044Y180921D01*
X619299Y180176D01*
X618773Y179264D01*
X618500Y178247D01*
Y177194D01*
X618758Y176231D01*
X605764Y161345D01*
X518313D01*
X517614Y162059D01*
X519069Y226378D01*
X528502D01*
Y218504D01*
X528604Y217729D01*
X528903Y217007D01*
X529379Y216387D01*
X531455Y214311D01*
Y206693D01*
X531557Y205918D01*
X531856Y205196D01*
X532332Y204576D01*
X532952Y204100D01*
X533674Y203801D01*
X534449Y203699D01*
X535224Y203801D01*
X535946Y204100D01*
X536566Y204576D01*
X537042Y205196D01*
X537341Y205918D01*
X537443Y206693D01*
Y215551D01*
X537341Y216326D01*
X537042Y217048D01*
X536566Y217669D01*
X534490Y219744D01*
Y226378D01*
X642348D01*
Y223253D01*
D02*
G37*
G36*
X230145Y279067D02*
X230177Y278567D01*
X229540Y278483D01*
X228818Y278184D01*
X228198Y277708D01*
X204576Y254086D01*
X204100Y253466D01*
X203801Y252743D01*
X203699Y251969D01*
X203801Y251194D01*
X204100Y250471D01*
X204576Y249851D01*
X205196Y249376D01*
X205918Y249076D01*
X206693Y248974D01*
X207468Y249076D01*
X208190Y249376D01*
X208810Y249851D01*
X231555Y272597D01*
X264766D01*
X264957Y272134D01*
X264803Y271980D01*
X264468Y271171D01*
Y270296D01*
X264803Y269488D01*
X265422Y268869D01*
X266230Y268534D01*
X267105D01*
X267914Y268869D01*
X268533Y269488D01*
X268868Y270296D01*
Y271171D01*
X268533Y271980D01*
X268378Y272134D01*
X268570Y272597D01*
X490886D01*
X528502Y234980D01*
Y227397D01*
X519069D01*
X518886Y227361D01*
X518701Y227328D01*
X518691Y227322D01*
X518679Y227320D01*
X518523Y227216D01*
X518365Y227115D01*
X518358Y227105D01*
X518348Y227099D01*
X518244Y226943D01*
X518136Y226789D01*
X518134Y226778D01*
X518127Y226768D01*
X518091Y226584D01*
X518050Y226401D01*
X518026Y225335D01*
X517717Y225025D01*
Y211662D01*
X516595Y162083D01*
X516596Y162077D01*
X516595Y162071D01*
X516630Y161881D01*
X516664Y161691D01*
X516667Y161686D01*
X516668Y161680D01*
X516774Y161518D01*
X516877Y161355D01*
X516882Y161352D01*
X516885Y161347D01*
X517584Y160632D01*
X517589Y160628D01*
X517592Y160624D01*
X517717Y160540D01*
Y158523D01*
X517362Y158171D01*
X465139Y158437D01*
X465138Y158437D01*
X465137Y158437D01*
X464943Y158399D01*
X464749Y158361D01*
X464447Y158716D01*
X463834Y159329D01*
X463032Y159661D01*
X462165D01*
X461363Y159329D01*
X460749Y158716D01*
X460627Y158419D01*
X460615Y158421D01*
X460423Y158461D01*
X453776Y158495D01*
Y194669D01*
X453731Y194894D01*
X453991Y195001D01*
X454605Y195615D01*
X454937Y196417D01*
Y197284D01*
X454605Y198086D01*
X453991Y198699D01*
X453731Y198807D01*
X453776Y199031D01*
Y240158D01*
X453698Y240548D01*
X453477Y240878D01*
X453146Y241100D01*
X452756Y241177D01*
X374016D01*
X373626Y241100D01*
X373295Y240878D01*
X373074Y240548D01*
X372996Y240158D01*
Y224291D01*
X373074Y223901D01*
X373295Y223570D01*
X373626Y223349D01*
X373927Y223224D01*
X373784Y222879D01*
Y222003D01*
X373927Y221658D01*
X373626Y221533D01*
X373295Y221312D01*
X373074Y220981D01*
X372996Y220591D01*
Y199289D01*
X372580Y199011D01*
X372485Y199050D01*
X371610D01*
X370801Y198715D01*
X370182Y198097D01*
X369847Y197288D01*
Y196413D01*
X370182Y195604D01*
X370801Y194985D01*
X371610Y194650D01*
X372485D01*
X372580Y194690D01*
X372996Y194412D01*
Y188028D01*
X285433D01*
X285043Y187950D01*
X284712Y187729D01*
X284491Y187398D01*
X284414Y187008D01*
Y31427D01*
X284376Y31378D01*
X284025Y31035D01*
X229677Y29706D01*
X229585Y29686D01*
X229491Y29685D01*
X229393Y29643D01*
X229289Y29619D01*
X229212Y29565D01*
X229125Y29528D01*
X228598Y29408D01*
X227796Y29740D01*
X226928D01*
X226192Y29435D01*
X226127Y29408D01*
X225556Y29464D01*
X225532Y29481D01*
X225365Y29562D01*
X225247Y29622D01*
X224968Y53892D01*
X225467Y53994D01*
X225513Y53883D01*
X226127Y53269D01*
X226928Y52937D01*
X227796D01*
X228598Y53269D01*
X229211Y53883D01*
X229543Y54684D01*
Y55552D01*
X229211Y56354D01*
X228598Y56967D01*
X227796Y57299D01*
X226928D01*
X226127Y56967D01*
X225513Y56354D01*
X225442Y56181D01*
X224941Y56278D01*
X224167Y123579D01*
X224130Y123753D01*
X224101Y123929D01*
X224089Y123947D01*
X224085Y123968D01*
X224037Y124039D01*
X224083Y124110D01*
X224090Y124147D01*
X224108Y124179D01*
X224127Y124341D01*
X224156Y124502D01*
X223461Y185051D01*
X223421Y185240D01*
X223383Y185430D01*
X223380Y185434D01*
X223378Y185440D01*
X223269Y185600D01*
X223162Y185760D01*
X223157Y185764D01*
X223154Y185769D01*
X222992Y185874D01*
X222831Y185981D01*
X222825Y185983D01*
X222820Y185986D01*
X222631Y186021D01*
X222441Y186059D01*
X181102D01*
X180712Y185981D01*
X180381Y185760D01*
X180160Y185430D01*
X180083Y185039D01*
Y126434D01*
X179667Y126156D01*
X179568Y126197D01*
X178700D01*
X177898Y125865D01*
X177285Y125251D01*
X176953Y124450D01*
Y123582D01*
X177285Y122780D01*
X177898Y122167D01*
X178700Y121835D01*
X179568D01*
X179667Y121876D01*
X180083Y121598D01*
Y98874D01*
X179667Y98597D01*
X179568Y98638D01*
X178700D01*
X177898Y98306D01*
X177285Y97692D01*
X176953Y96891D01*
Y96023D01*
X177285Y95221D01*
X177898Y94608D01*
X178700Y94276D01*
X179568D01*
X179667Y94317D01*
X180083Y94039D01*
Y91056D01*
X180093Y91005D01*
X180088Y90952D01*
X180131Y90811D01*
X180160Y90666D01*
X180189Y90622D01*
X180205Y90572D01*
X180299Y90458D01*
X180381Y90335D01*
X180425Y90306D01*
X180458Y90266D01*
X180562Y89749D01*
X180533Y89678D01*
X180243Y89177D01*
X179965Y88137D01*
Y87060D01*
X180243Y86019D01*
X180533Y85519D01*
X180562Y85448D01*
X180458Y84931D01*
X180425Y84891D01*
X180381Y84862D01*
X180299Y84739D01*
X180205Y84625D01*
X180189Y84575D01*
X180160Y84531D01*
X180131Y84386D01*
X180088Y84244D01*
X180093Y84192D01*
X180083Y84141D01*
Y78260D01*
X180093Y78209D01*
X180088Y78157D01*
X180131Y78016D01*
X180160Y77870D01*
X180189Y77827D01*
X180205Y77777D01*
X180299Y77663D01*
X180381Y77539D01*
X180425Y77510D01*
X180458Y77470D01*
X180562Y76954D01*
X180533Y76883D01*
X180243Y76382D01*
X179965Y75342D01*
Y74265D01*
X180243Y73224D01*
X180533Y72723D01*
X180562Y72652D01*
X180458Y72136D01*
X180425Y72096D01*
X180381Y72067D01*
X180299Y71944D01*
X180205Y71829D01*
X180189Y71780D01*
X180160Y71736D01*
X180131Y71591D01*
X180088Y71449D01*
X180093Y71397D01*
X179981Y71248D01*
X179667Y71038D01*
X179568Y71079D01*
X178700D01*
X177898Y70747D01*
X177285Y70133D01*
X176953Y69332D01*
Y68464D01*
X177285Y67662D01*
X177898Y67049D01*
X178700Y66716D01*
X179568D01*
X179667Y66758D01*
X180083Y66480D01*
Y41020D01*
X167535D01*
Y41772D01*
X167203Y42574D01*
X166590Y43188D01*
X165788Y43520D01*
X164920D01*
X164119Y43188D01*
X163505Y42574D01*
X163173Y41772D01*
Y41020D01*
X153756D01*
Y41772D01*
X153424Y42574D01*
X152810Y43188D01*
X152009Y43520D01*
X151141D01*
X150339Y43188D01*
X149726Y42574D01*
X149394Y41772D01*
Y41020D01*
X139976D01*
Y41772D01*
X139644Y42574D01*
X139031Y43188D01*
X138229Y43520D01*
X137361D01*
X136560Y43188D01*
X135946Y42574D01*
X135614Y41772D01*
Y41020D01*
X126197D01*
Y41772D01*
X125865Y42574D01*
X125251Y43188D01*
X124450Y43520D01*
X123582D01*
X122780Y43188D01*
X122167Y42574D01*
X121835Y41772D01*
Y41020D01*
X112417D01*
Y41772D01*
X112085Y42574D01*
X111472Y43188D01*
X110670Y43520D01*
X109802D01*
X109001Y43188D01*
X108387Y42574D01*
X108055Y41772D01*
Y41020D01*
X99417D01*
Y278974D01*
X99327Y279064D01*
X99519Y279525D01*
X230145Y279067D01*
D02*
G37*
G36*
X223137Y124490D02*
X222654Y124450D01*
X222322Y125251D01*
X221708Y125865D01*
X220906Y126197D01*
X220039D01*
X219237Y125865D01*
X218623Y125251D01*
X218291Y124450D01*
Y123582D01*
X218623Y122780D01*
X219237Y122167D01*
X220039Y121835D01*
X220906D01*
X221708Y122167D01*
X222322Y122780D01*
X222654Y123582D01*
X223148Y123567D01*
X224236Y28843D01*
X224919Y28666D01*
X225229Y28108D01*
X225181Y27993D01*
Y27125D01*
X225513Y26324D01*
X226127Y25710D01*
X226928Y25378D01*
X227796D01*
X228598Y25710D01*
X229211Y26324D01*
X229543Y27125D01*
Y27993D01*
X229429Y28268D01*
X229702Y28687D01*
X298336Y30365D01*
X298408Y30094D01*
X299058Y28969D01*
X299977Y28049D01*
X301103Y27399D01*
X302359Y27063D01*
X303659D01*
X304914Y27399D01*
X306040Y28049D01*
X306960Y28969D01*
X307610Y30094D01*
X307744Y30595D01*
X317399Y30830D01*
X317757Y30481D01*
Y27063D01*
X327631D01*
Y31081D01*
X488000Y35000D01*
X514287Y54293D01*
X514769Y54159D01*
X514883Y53883D01*
X515497Y53269D01*
X516298Y52937D01*
X517166D01*
X517968Y53269D01*
X518581Y53883D01*
X518914Y54684D01*
Y55552D01*
X518581Y56354D01*
X518310Y56625D01*
X518360Y57282D01*
X522542Y60352D01*
X523184Y60086D01*
X524060D01*
X524868Y60421D01*
X525487Y61040D01*
X525822Y61848D01*
Y62724D01*
X525811Y62751D01*
X534030Y68783D01*
X534135Y68754D01*
X534754Y68135D01*
X535562Y67800D01*
X536438D01*
X537246Y68135D01*
X537865Y68754D01*
X538200Y69562D01*
Y70438D01*
X537865Y71246D01*
X537893Y71619D01*
X542500Y75000D01*
X547329Y74769D01*
X547526Y74259D01*
X547347Y74081D01*
X547013Y73272D01*
Y72397D01*
X547347Y71588D01*
X547966Y70970D01*
X548775Y70635D01*
X549650D01*
X550459Y70970D01*
X551000Y70804D01*
X551017Y70720D01*
X551238Y70389D01*
X551569Y70168D01*
X551959Y70091D01*
X610236D01*
X610626Y70168D01*
X610957Y70389D01*
X611178Y70720D01*
X611256Y71110D01*
Y71351D01*
X611618Y71696D01*
X612504Y71654D01*
X616587D01*
Y51240D01*
X616664Y50850D01*
X616885Y50519D01*
X617216Y50298D01*
X617606Y50221D01*
X661417D01*
X661417Y50221D01*
Y1461D01*
X224537Y329D01*
X224212Y0D01*
X181102D01*
Y216D01*
X98153Y1D01*
X97799Y354D01*
Y40000D01*
X108490D01*
X109001Y39489D01*
X109802Y39158D01*
X110670D01*
X111472Y39489D01*
X111982Y40000D01*
X122270D01*
X122780Y39489D01*
X123582Y39158D01*
X124450D01*
X125251Y39489D01*
X125762Y40000D01*
X136049D01*
X136560Y39489D01*
X137361Y39158D01*
X138229D01*
X139031Y39489D01*
X139541Y40000D01*
X149829D01*
X150339Y39489D01*
X151141Y39158D01*
X152009D01*
X152810Y39489D01*
X153321Y40000D01*
X163608D01*
X164119Y39489D01*
X164920Y39158D01*
X165788D01*
X166590Y39489D01*
X167100Y40000D01*
X181000D01*
X181102Y39974D01*
Y67950D01*
X181315Y68464D01*
Y69332D01*
X181102Y69845D01*
Y71346D01*
X181602Y71496D01*
X182476Y70991D01*
X183517Y70713D01*
X184594D01*
X185634Y70991D01*
X186567Y71530D01*
X187328Y72291D01*
X187867Y73224D01*
X188146Y74265D01*
Y75342D01*
X187867Y76382D01*
X187328Y77315D01*
X186567Y78076D01*
X185634Y78615D01*
X184594Y78894D01*
X183517D01*
X182476Y78615D01*
X181602Y78110D01*
X181102Y78260D01*
Y84141D01*
X181602Y84291D01*
X182476Y83787D01*
X183517Y83508D01*
X184594D01*
X185634Y83787D01*
X186567Y84325D01*
X187328Y85087D01*
X187867Y86019D01*
X188146Y87060D01*
Y88137D01*
X187867Y89177D01*
X187328Y90110D01*
X186567Y90872D01*
X185634Y91410D01*
X184594Y91689D01*
X183517D01*
X182476Y91410D01*
X181602Y90906D01*
X181102Y91056D01*
Y95509D01*
X181315Y96023D01*
Y96891D01*
X181102Y97404D01*
Y123069D01*
X181315Y123582D01*
Y124450D01*
X181102Y124963D01*
Y185039D01*
X222441D01*
X223137Y124490D01*
D02*
G37*
G36*
X659449Y277559D02*
Y118110D01*
X616023D01*
X615816Y118610D01*
X616038Y118833D01*
X616373Y119641D01*
Y120516D01*
X616038Y121325D01*
X615419Y121944D01*
X614611Y122279D01*
X613736D01*
X612927Y121944D01*
X612308Y121325D01*
X611973Y120516D01*
Y119641D01*
X612308Y118833D01*
X612531Y118610D01*
X612323Y118110D01*
X611256D01*
X611178Y118500D01*
X610957Y118831D01*
X610626Y119052D01*
X610236Y119130D01*
Y142259D01*
X626407Y158429D01*
X641732D01*
X642123Y158507D01*
X642453Y158728D01*
X643069Y159344D01*
X643073Y159350D01*
X643080Y159354D01*
X643184Y159515D01*
X643290Y159674D01*
X643292Y159682D01*
X643296Y159689D01*
X643330Y159877D01*
X643368Y160064D01*
X643366Y160072D01*
X643367Y160080D01*
X642908Y190593D01*
X642888Y190687D01*
X642887Y190784D01*
X642847Y190880D01*
X642825Y190982D01*
X642770Y191061D01*
X642732Y191150D01*
X642597Y191678D01*
X642929Y192480D01*
Y193347D01*
X642597Y194149D01*
X642550Y194573D01*
X642602Y194654D01*
X642670Y194723D01*
X642709Y194820D01*
X642766Y194907D01*
X642783Y195002D01*
X642820Y195092D01*
X642819Y195196D01*
X642838Y195299D01*
X642762Y200318D01*
X642759Y200331D01*
X642762Y200344D01*
X642718Y200525D01*
X642679Y200706D01*
X642742Y201083D01*
X643046Y201367D01*
X643055Y201381D01*
X643069Y201390D01*
X643171Y201542D01*
X643277Y201691D01*
X643281Y201707D01*
X643290Y201721D01*
X643326Y201900D01*
X643367Y202079D01*
X643364Y202095D01*
X643368Y202111D01*
Y217692D01*
X643348Y217790D01*
Y217891D01*
X643310Y217984D01*
X643290Y218082D01*
X643234Y218166D01*
X643196Y218258D01*
X643125Y218329D01*
X643069Y218413D01*
X642985Y218469D01*
X642914Y218540D01*
X642730Y218663D01*
X642597Y219237D01*
X642929Y220039D01*
Y220906D01*
X642597Y221708D01*
X642730Y222282D01*
X642914Y222405D01*
X642985Y222476D01*
X643069Y222532D01*
X643125Y222616D01*
X643196Y222687D01*
X643234Y222779D01*
X643290Y222863D01*
X643310Y222961D01*
X643348Y223054D01*
Y223154D01*
X643368Y223253D01*
Y226378D01*
X643290Y226768D01*
X643069Y227099D01*
X642738Y227320D01*
X642348Y227397D01*
X534490D01*
Y236221D01*
X534388Y236995D01*
X534089Y237718D01*
X533613Y238338D01*
X494312Y277639D01*
X494410Y278139D01*
X659449Y277559D01*
D02*
G37*
G36*
X610236Y71110D02*
X551959D01*
Y118110D01*
X610236D01*
Y71110D01*
D02*
G37*
G36*
X661417Y51240D02*
X617606D01*
Y106240D01*
X661417D01*
Y51240D01*
D02*
G37*
G36*
X94758Y279066D02*
X94673Y278981D01*
Y0D01*
X0D01*
Y279528D01*
X0Y279528D01*
X94566D01*
X94758Y279066D01*
D02*
G37*
%LPC*%
G36*
X440591Y202909D02*
X430717D01*
Y193035D01*
X440591D01*
Y195452D01*
X440960Y195579D01*
X441091Y195589D01*
X441678Y195001D01*
X442480Y194669D01*
X443347D01*
X444149Y195001D01*
X444762Y195615D01*
X445094Y196417D01*
Y197284D01*
X444762Y198086D01*
X444149Y198699D01*
X443347Y199031D01*
X442480D01*
X441678Y198699D01*
X441091Y198112D01*
X440960Y198122D01*
X440591Y198249D01*
Y202909D01*
D02*
G37*
G36*
X423662Y199031D02*
X422794D01*
X421993Y198699D01*
X421379Y198086D01*
X421047Y197284D01*
Y196417D01*
X421379Y195615D01*
X421993Y195001D01*
X422794Y194669D01*
X423662D01*
X424464Y195001D01*
X425077Y195615D01*
X425410Y196417D01*
Y197284D01*
X425077Y198086D01*
X424464Y198699D01*
X423662Y199031D01*
D02*
G37*
G36*
X413820D02*
X412952D01*
X412150Y198699D01*
X411537Y198086D01*
X411205Y197284D01*
Y196417D01*
X411537Y195615D01*
X412150Y195001D01*
X412952Y194669D01*
X413820D01*
X414621Y195001D01*
X415235Y195615D01*
X415567Y196417D01*
Y197284D01*
X415235Y198086D01*
X414621Y198699D01*
X413820Y199031D01*
D02*
G37*
G36*
X403977D02*
X403110D01*
X402308Y198699D01*
X401694Y198086D01*
X401362Y197284D01*
Y196417D01*
X401694Y195615D01*
X402308Y195001D01*
X403110Y194669D01*
X403977D01*
X404779Y195001D01*
X405392Y195615D01*
X405724Y196417D01*
Y197284D01*
X405392Y198086D01*
X404779Y198699D01*
X403977Y199031D01*
D02*
G37*
G36*
X397283Y202909D02*
X387409D01*
Y193035D01*
X397283D01*
Y202909D01*
D02*
G37*
G36*
X448269Y195095D02*
X447401D01*
X446599Y194763D01*
X445986Y194149D01*
X445654Y193347D01*
Y192480D01*
X445986Y191678D01*
X446599Y191064D01*
X447401Y190732D01*
X448269D01*
X449070Y191064D01*
X449684Y191678D01*
X450016Y192480D01*
Y193347D01*
X449684Y194149D01*
X449070Y194763D01*
X448269Y195095D01*
D02*
G37*
G36*
X379371D02*
X378503D01*
X377702Y194763D01*
X377088Y194149D01*
X376756Y193347D01*
Y192480D01*
X377088Y191678D01*
X377702Y191064D01*
X378503Y190732D01*
X379371D01*
X380173Y191064D01*
X380786Y191678D01*
X381118Y192480D01*
Y193347D01*
X380786Y194149D01*
X380173Y194763D01*
X379371Y195095D01*
D02*
G37*
G36*
X399056Y189189D02*
X398188D01*
X397387Y188857D01*
X396773Y188243D01*
X396441Y187442D01*
Y186574D01*
X396773Y185772D01*
X397387Y185159D01*
X398188Y184827D01*
X399056D01*
X399857Y185159D01*
X400471Y185772D01*
X400803Y186574D01*
Y187442D01*
X400471Y188243D01*
X399857Y188857D01*
X399056Y189189D01*
D02*
G37*
G36*
X418937Y190937D02*
X409063D01*
Y181063D01*
X418937D01*
Y190937D01*
D02*
G37*
G36*
X448269Y169504D02*
X447401D01*
X446599Y169172D01*
X445986Y168558D01*
X445654Y167757D01*
Y166889D01*
X445986Y166087D01*
X446599Y165474D01*
X447401Y165142D01*
X448269D01*
X449070Y165474D01*
X449684Y166087D01*
X450016Y166889D01*
Y167757D01*
X449684Y168558D01*
X449070Y169172D01*
X448269Y169504D01*
D02*
G37*
G36*
X438426D02*
X437558D01*
X436757Y169172D01*
X436143Y168558D01*
X435811Y167757D01*
Y166889D01*
X436143Y166087D01*
X436757Y165474D01*
X437558Y165142D01*
X438426D01*
X439228Y165474D01*
X439841Y166087D01*
X440173Y166889D01*
Y167757D01*
X439841Y168558D01*
X439228Y169172D01*
X438426Y169504D01*
D02*
G37*
G36*
X428583D02*
X427716D01*
X426914Y169172D01*
X426301Y168558D01*
X425969Y167757D01*
Y166889D01*
X426301Y166087D01*
X426914Y165474D01*
X427716Y165142D01*
X428583D01*
X429385Y165474D01*
X429999Y166087D01*
X430331Y166889D01*
Y167757D01*
X429999Y168558D01*
X429385Y169172D01*
X428583Y169504D01*
D02*
G37*
G36*
X418741D02*
X417873D01*
X417072Y169172D01*
X416458Y168558D01*
X416126Y167757D01*
Y166889D01*
X416458Y166087D01*
X417072Y165474D01*
X417873Y165142D01*
X418741D01*
X419543Y165474D01*
X420156Y166087D01*
X420488Y166889D01*
Y167757D01*
X420156Y168558D01*
X419543Y169172D01*
X418741Y169504D01*
D02*
G37*
G36*
X408898D02*
X408031D01*
X407229Y169172D01*
X406615Y168558D01*
X406284Y167757D01*
Y166889D01*
X406615Y166087D01*
X407229Y165474D01*
X408031Y165142D01*
X408898D01*
X409700Y165474D01*
X410314Y166087D01*
X410646Y166889D01*
Y167757D01*
X410314Y168558D01*
X409700Y169172D01*
X408898Y169504D01*
D02*
G37*
G36*
X399056D02*
X398188D01*
X397387Y169172D01*
X396773Y168558D01*
X396441Y167757D01*
Y166889D01*
X396773Y166087D01*
X397387Y165474D01*
X398188Y165142D01*
X399056D01*
X399857Y165474D01*
X400471Y166087D01*
X400803Y166889D01*
Y167757D01*
X400471Y168558D01*
X399857Y169172D01*
X399056Y169504D01*
D02*
G37*
G36*
X326937Y174244D02*
X317063D01*
Y164370D01*
X326937D01*
Y174244D01*
D02*
G37*
G36*
X366579Y159533D02*
X365704D01*
X364896Y159198D01*
X364277Y158579D01*
X363942Y157771D01*
Y156895D01*
X364277Y156087D01*
X364896Y155468D01*
X365704Y155133D01*
X366579D01*
X367388Y155468D01*
X368007Y156087D01*
X368342Y156895D01*
Y157771D01*
X368007Y158579D01*
X367388Y159198D01*
X366579Y159533D01*
D02*
G37*
G36*
X468938Y153756D02*
X468070D01*
X467269Y153424D01*
X466655Y152810D01*
X466323Y152009D01*
Y151141D01*
X466655Y150339D01*
X467269Y149726D01*
X468070Y149394D01*
X468938D01*
X469739Y149726D01*
X470353Y150339D01*
X470685Y151141D01*
Y152009D01*
X470353Y152810D01*
X469739Y153424D01*
X468938Y153756D01*
D02*
G37*
G36*
X455158D02*
X454291D01*
X453489Y153424D01*
X452875Y152810D01*
X452543Y152009D01*
Y151141D01*
X452875Y150339D01*
X453489Y149726D01*
X454291Y149394D01*
X455158D01*
X455960Y149726D01*
X456573Y150339D01*
X456906Y151141D01*
Y152009D01*
X456573Y152810D01*
X455960Y153424D01*
X455158Y153756D01*
D02*
G37*
G36*
X441379D02*
X440511D01*
X439710Y153424D01*
X439096Y152810D01*
X438764Y152009D01*
Y151141D01*
X439096Y150339D01*
X439710Y149726D01*
X440511Y149394D01*
X441379D01*
X442180Y149726D01*
X442794Y150339D01*
X443126Y151141D01*
Y152009D01*
X442794Y152810D01*
X442180Y153424D01*
X441379Y153756D01*
D02*
G37*
G36*
X427599D02*
X426732D01*
X425930Y153424D01*
X425316Y152810D01*
X424984Y152009D01*
Y151141D01*
X425316Y150339D01*
X425930Y149726D01*
X426732Y149394D01*
X427599D01*
X428401Y149726D01*
X429014Y150339D01*
X429347Y151141D01*
Y152009D01*
X429014Y152810D01*
X428401Y153424D01*
X427599Y153756D01*
D02*
G37*
G36*
X344922D02*
X344054D01*
X343253Y153424D01*
X342639Y152810D01*
X342307Y152009D01*
Y151141D01*
X342639Y150339D01*
X343253Y149726D01*
X344054Y149394D01*
X344922D01*
X345724Y149726D01*
X346337Y150339D01*
X346669Y151141D01*
Y152009D01*
X346337Y152810D01*
X345724Y153424D01*
X344922Y153756D01*
D02*
G37*
G36*
X317363D02*
X316495D01*
X315694Y153424D01*
X315080Y152810D01*
X314748Y152009D01*
Y151141D01*
X315080Y150339D01*
X315694Y149726D01*
X316495Y149394D01*
X317363D01*
X318165Y149726D01*
X318778Y150339D01*
X319110Y151141D01*
Y152009D01*
X318778Y152810D01*
X318165Y153424D01*
X317363Y153756D01*
D02*
G37*
G36*
X568438Y153200D02*
X567562D01*
X566754Y152865D01*
X566135Y152246D01*
X565800Y151438D01*
Y150562D01*
X566135Y149754D01*
X566754Y149135D01*
X567562Y148800D01*
X568438D01*
X569246Y149135D01*
X569865Y149754D01*
X570200Y150562D01*
Y151438D01*
X569865Y152246D01*
X569246Y152865D01*
X568438Y153200D01*
D02*
G37*
G36*
X523438D02*
X522562D01*
X521754Y152865D01*
X521135Y152246D01*
X520800Y151438D01*
Y150562D01*
X521135Y149754D01*
X521754Y149135D01*
X522562Y148800D01*
X523438D01*
X524246Y149135D01*
X524865Y149754D01*
X525200Y150562D01*
Y151438D01*
X524865Y152246D01*
X524246Y152865D01*
X523438Y153200D01*
D02*
G37*
G36*
X384296Y150928D02*
X383421D01*
X382612Y150593D01*
X381993Y149974D01*
X381658Y149165D01*
Y148290D01*
X381993Y147481D01*
X382612Y146862D01*
X383421Y146528D01*
X384296D01*
X385104Y146862D01*
X385723Y147481D01*
X386058Y148290D01*
Y149165D01*
X385723Y149974D01*
X385104Y150593D01*
X384296Y150928D01*
D02*
G37*
G36*
X338910Y152591D02*
X329035D01*
Y142717D01*
X338910D01*
Y152591D01*
D02*
G37*
G36*
X344922Y126197D02*
X344054D01*
X343253Y125865D01*
X342639Y125251D01*
X342307Y124450D01*
Y123582D01*
X342639Y122780D01*
X343253Y122167D01*
X344054Y121835D01*
X344922D01*
X345724Y122167D01*
X346337Y122780D01*
X346669Y123582D01*
Y124450D01*
X346337Y125251D01*
X345724Y125865D01*
X344922Y126197D01*
D02*
G37*
G36*
X331143D02*
X330275D01*
X329473Y125865D01*
X328860Y125251D01*
X328528Y124450D01*
Y123582D01*
X328860Y122780D01*
X329473Y122167D01*
X330275Y121835D01*
X331143D01*
X331944Y122167D01*
X332558Y122780D01*
X332890Y123582D01*
Y124450D01*
X332558Y125251D01*
X331944Y125865D01*
X331143Y126197D01*
D02*
G37*
G36*
X326937Y130937D02*
X317063D01*
Y121063D01*
X326937D01*
Y130937D01*
D02*
G37*
G36*
X463032Y112417D02*
X462165D01*
X462106Y112393D01*
X462048Y112417D01*
X461180D01*
X460379Y112085D01*
X459765Y111472D01*
X459433Y110670D01*
Y109802D01*
X459765Y109001D01*
X460379Y108387D01*
X461180Y108055D01*
X462048D01*
X462107Y108079D01*
X462165Y108055D01*
X463032D01*
X463834Y108387D01*
X464448Y109001D01*
X464780Y109802D01*
Y110670D01*
X464448Y111472D01*
X463834Y112085D01*
X463032Y112417D01*
D02*
G37*
G36*
X466969Y120291D02*
X466102D01*
X465300Y119959D01*
X464687Y119346D01*
X464355Y118544D01*
Y117676D01*
X464687Y116875D01*
X465300Y116261D01*
X466102Y115929D01*
X466468D01*
X466676Y115429D01*
X466655Y115409D01*
X466323Y114607D01*
Y113739D01*
X466655Y112938D01*
X467269Y112324D01*
X468070Y111992D01*
X468938D01*
X469740Y112324D01*
X470353Y112938D01*
X470685Y113739D01*
Y114607D01*
X470353Y115409D01*
X469740Y116022D01*
X468938Y116354D01*
X468571D01*
X468364Y116854D01*
X468385Y116875D01*
X468717Y117676D01*
Y118544D01*
X468385Y119346D01*
X467771Y119959D01*
X466969Y120291D01*
D02*
G37*
G36*
X433505Y116354D02*
X432637D01*
X431836Y116022D01*
X431222Y115409D01*
X430890Y114607D01*
Y113739D01*
X431222Y112938D01*
X431836Y112324D01*
X432637Y111992D01*
X433505D01*
X434307Y112324D01*
X434920Y112938D01*
X435252Y113739D01*
Y114607D01*
X434920Y115409D01*
X434307Y116022D01*
X433505Y116354D01*
D02*
G37*
G36*
X419725Y120291D02*
X418858D01*
X418056Y119959D01*
X417443Y119346D01*
X417110Y118544D01*
Y117676D01*
X417443Y116875D01*
X417463Y116854D01*
X417256Y116354D01*
X416889D01*
X416088Y116022D01*
X415474Y115409D01*
X415142Y114607D01*
Y113739D01*
X415474Y112938D01*
X416088Y112324D01*
X416889Y111992D01*
X417757D01*
X418559Y112324D01*
X419172Y112938D01*
X419504Y113739D01*
Y114607D01*
X419172Y115409D01*
X419152Y115429D01*
X419359Y115929D01*
X419725D01*
X420527Y116261D01*
X421141Y116875D01*
X421473Y117676D01*
Y118544D01*
X421141Y119346D01*
X420527Y119959D01*
X419725Y120291D01*
D02*
G37*
G36*
X402009Y116354D02*
X401141D01*
X400340Y116022D01*
X399726Y115409D01*
X399394Y114607D01*
Y113739D01*
X399726Y112938D01*
X400340Y112324D01*
X401141Y111992D01*
X402009D01*
X402810Y112324D01*
X403424Y112938D01*
X403756Y113739D01*
Y114607D01*
X403424Y115409D01*
X402810Y116022D01*
X402009Y116354D01*
D02*
G37*
G36*
X478781Y112417D02*
X477913D01*
X477111Y112085D01*
X476498Y111472D01*
X476166Y110670D01*
Y109802D01*
X476498Y109001D01*
X477111Y108387D01*
X477913Y108055D01*
X478781D01*
X479582Y108387D01*
X480196Y109001D01*
X480528Y109802D01*
Y110670D01*
X480196Y111472D01*
X479582Y112085D01*
X478781Y112417D01*
D02*
G37*
G36*
X396103D02*
X395236D01*
X394434Y112085D01*
X393820Y111472D01*
X393488Y110670D01*
Y109802D01*
X393820Y109001D01*
X394434Y108387D01*
X395236Y108055D01*
X396103D01*
X396905Y108387D01*
X397519Y109001D01*
X397851Y109802D01*
Y110670D01*
X397519Y111472D01*
X396905Y112085D01*
X396103Y112417D01*
D02*
G37*
G36*
X380355D02*
X379488D01*
X378686Y112085D01*
X378072Y111472D01*
X377740Y110670D01*
Y109802D01*
X378072Y109001D01*
X378686Y108387D01*
X379488Y108055D01*
X380355D01*
X381157Y108387D01*
X381770Y109001D01*
X382103Y109802D01*
Y110670D01*
X381770Y111472D01*
X381157Y112085D01*
X380355Y112417D01*
D02*
G37*
G36*
X427599D02*
X426732D01*
X425930Y112085D01*
X425316Y111472D01*
X424985Y110670D01*
Y109802D01*
X425316Y109001D01*
X425930Y108387D01*
X426732Y108055D01*
X427098D01*
X427306Y107555D01*
X427285Y107535D01*
X426953Y106733D01*
Y105865D01*
X427285Y105064D01*
X427899Y104450D01*
X428700Y104118D01*
X429568D01*
X430370Y104450D01*
X430983Y105064D01*
X431315Y105865D01*
Y106733D01*
X430983Y107535D01*
X430370Y108148D01*
X429568Y108480D01*
X429201D01*
X428994Y108980D01*
X429015Y109001D01*
X429347Y109802D01*
Y110670D01*
X429015Y111472D01*
X428401Y112085D01*
X427599Y112417D01*
D02*
G37*
G36*
X411851D02*
X410984D01*
X410182Y112085D01*
X409569Y111472D01*
X409236Y110670D01*
Y109802D01*
X409569Y109001D01*
X410182Y108387D01*
X410984Y108055D01*
X411350D01*
X411557Y107555D01*
X411537Y107535D01*
X411205Y106733D01*
Y105865D01*
X411537Y105064D01*
X412151Y104450D01*
X412952Y104118D01*
X413820D01*
X414621Y104450D01*
X415235Y105064D01*
X415567Y105865D01*
Y106733D01*
X415235Y107535D01*
X414621Y108148D01*
X413820Y108480D01*
X413453D01*
X413246Y108980D01*
X413267Y109001D01*
X413599Y109802D01*
Y110670D01*
X413267Y111472D01*
X412653Y112085D01*
X411851Y112417D01*
D02*
G37*
G36*
X530946Y84858D02*
X530078D01*
X529276Y84526D01*
X528663Y83913D01*
X528331Y83111D01*
Y82243D01*
X528663Y81442D01*
X529276Y80828D01*
X530078Y80496D01*
X530946D01*
X531747Y80828D01*
X532361Y81442D01*
X532693Y82243D01*
Y83111D01*
X532361Y83913D01*
X531747Y84526D01*
X530946Y84858D01*
D02*
G37*
G36*
X489607D02*
X488739D01*
X487938Y84526D01*
X487324Y83913D01*
X486992Y83111D01*
Y82243D01*
X487324Y81442D01*
X487938Y80828D01*
X488739Y80496D01*
X489607D01*
X490409Y80828D01*
X491022Y81442D01*
X491354Y82243D01*
Y83111D01*
X491022Y83913D01*
X490409Y84526D01*
X489607Y84858D01*
D02*
G37*
G36*
X413820Y80921D02*
X412952D01*
X412151Y80589D01*
X411537Y79976D01*
X411205Y79174D01*
Y78306D01*
X411537Y77505D01*
X411557Y77484D01*
X411350Y76984D01*
X410984D01*
X410182Y76652D01*
X409569Y76039D01*
X409236Y75237D01*
Y74369D01*
X409569Y73568D01*
X410182Y72954D01*
X410984Y72622D01*
X411851D01*
X412653Y72954D01*
X413267Y73568D01*
X413599Y74369D01*
Y75237D01*
X413267Y76039D01*
X413246Y76059D01*
X413453Y76559D01*
X413820D01*
X414621Y76891D01*
X415235Y77505D01*
X415567Y78306D01*
Y79174D01*
X415235Y79976D01*
X414621Y80589D01*
X413820Y80921D01*
D02*
G37*
G36*
X396103Y76984D02*
X395236D01*
X394434Y76652D01*
X393820Y76039D01*
X393488Y75237D01*
Y74369D01*
X393820Y73568D01*
X394434Y72954D01*
X395236Y72622D01*
X396103D01*
X396905Y72954D01*
X397519Y73568D01*
X397851Y74369D01*
Y75237D01*
X397519Y76039D01*
X396905Y76652D01*
X396103Y76984D01*
D02*
G37*
G36*
X522091Y75035D02*
X521216D01*
X520407Y74700D01*
X519789Y74081D01*
X519453Y73272D01*
Y72397D01*
X519789Y71588D01*
X520407Y70970D01*
X521216Y70635D01*
X522091D01*
X522900Y70970D01*
X523519Y71588D01*
X523853Y72397D01*
Y73272D01*
X523519Y74081D01*
X522900Y74700D01*
X522091Y75035D01*
D02*
G37*
G36*
X462048Y84858D02*
X461180D01*
X460379Y84526D01*
X459765Y83913D01*
X459433Y83111D01*
Y82243D01*
X459765Y81442D01*
X459877Y81330D01*
X459759Y80740D01*
X459395Y80589D01*
X458781Y79976D01*
X458449Y79174D01*
Y78306D01*
X458781Y77505D01*
X459395Y76891D01*
X460196Y76559D01*
X460563D01*
X460770Y76059D01*
X460750Y76039D01*
X460418Y75237D01*
Y74369D01*
X460750Y73568D01*
X460770Y73547D01*
X460563Y73047D01*
X460196D01*
X459395Y72715D01*
X458781Y72102D01*
X458449Y71300D01*
Y70432D01*
X458781Y69631D01*
X459395Y69017D01*
X460196Y68685D01*
X461064D01*
X461866Y69017D01*
X462479Y69631D01*
X462811Y70432D01*
Y71300D01*
X462479Y72102D01*
X462459Y72122D01*
X462666Y72622D01*
X463032D01*
X463834Y72954D01*
X464448Y73568D01*
X464780Y74369D01*
Y75237D01*
X464448Y76039D01*
X463834Y76652D01*
X463032Y76984D01*
X462666D01*
X462459Y77484D01*
X462479Y77505D01*
X462811Y78306D01*
Y79174D01*
X462479Y79976D01*
X462368Y80087D01*
X462485Y80677D01*
X462850Y80828D01*
X463463Y81442D01*
X463795Y82243D01*
Y83111D01*
X463463Y83913D01*
X462850Y84526D01*
X462048Y84858D01*
D02*
G37*
G36*
X445316Y80921D02*
X444448D01*
X443647Y80589D01*
X443033Y79976D01*
X442701Y79174D01*
Y78306D01*
X443033Y77505D01*
X443053Y77484D01*
X442846Y76984D01*
X442480D01*
X441678Y76652D01*
X441065Y76039D01*
X440732Y75237D01*
Y74369D01*
X441065Y73568D01*
X441678Y72954D01*
X442480Y72622D01*
X442846D01*
X443053Y72122D01*
X443033Y72102D01*
X442701Y71300D01*
Y70432D01*
X443033Y69631D01*
X443647Y69017D01*
X444448Y68685D01*
X445316D01*
X446118Y69017D01*
X446731Y69631D01*
X447063Y70432D01*
Y71300D01*
X446731Y72102D01*
X446118Y72715D01*
X445316Y73047D01*
X444949D01*
X444742Y73547D01*
X444763Y73568D01*
X445095Y74369D01*
Y75237D01*
X444763Y76039D01*
X444742Y76059D01*
X444949Y76559D01*
X445316D01*
X446118Y76891D01*
X446731Y77505D01*
X447063Y78306D01*
Y79174D01*
X446731Y79976D01*
X446118Y80589D01*
X445316Y80921D01*
D02*
G37*
G36*
X429568D02*
X428700D01*
X427899Y80589D01*
X427285Y79976D01*
X426953Y79174D01*
Y78306D01*
X427285Y77505D01*
X427306Y77484D01*
X427098Y76984D01*
X426732D01*
X425930Y76652D01*
X425316Y76039D01*
X424985Y75237D01*
Y74369D01*
X425316Y73568D01*
X425930Y72954D01*
X426732Y72622D01*
X427098D01*
X427306Y72122D01*
X427285Y72102D01*
X426953Y71300D01*
Y71079D01*
X426732D01*
X425930Y70747D01*
X425316Y70133D01*
X424984Y69332D01*
Y68464D01*
X425316Y67662D01*
X425930Y67049D01*
X426732Y66716D01*
X427599D01*
X428401Y67049D01*
X429014Y67662D01*
X429347Y68464D01*
Y68685D01*
X429568D01*
X430370Y69017D01*
X430983Y69631D01*
X431315Y70432D01*
Y71300D01*
X430983Y72102D01*
X430370Y72715D01*
X429568Y73047D01*
X429201D01*
X428994Y73547D01*
X429015Y73568D01*
X429347Y74369D01*
Y75237D01*
X429015Y76039D01*
X428994Y76059D01*
X429201Y76559D01*
X429568D01*
X430370Y76891D01*
X430983Y77505D01*
X431315Y78306D01*
Y79174D01*
X430983Y79976D01*
X430370Y80589D01*
X429568Y80921D01*
D02*
G37*
G36*
X327631Y80244D02*
X317757D01*
Y71342D01*
X317363Y71079D01*
X316495D01*
X315694Y70747D01*
X315080Y70133D01*
X314748Y69332D01*
Y68464D01*
X315080Y67662D01*
X315694Y67049D01*
X316495Y66716D01*
X317363D01*
X318165Y67049D01*
X318778Y67662D01*
X319110Y68464D01*
Y69332D01*
X318887Y69870D01*
X319195Y70370D01*
X327631D01*
Y80244D01*
D02*
G37*
G36*
X490595Y78972D02*
X489720D01*
X488911Y78637D01*
X488292Y78018D01*
X487957Y77209D01*
Y76334D01*
X488292Y75525D01*
X488076Y75035D01*
X487751D01*
X486943Y74700D01*
X486324Y74081D01*
X485989Y73272D01*
Y72397D01*
X486324Y71588D01*
X486720Y71193D01*
X486889Y70866D01*
X486720Y70539D01*
X486324Y70144D01*
X485989Y69335D01*
Y68460D01*
X486324Y67651D01*
X486943Y67033D01*
X487751Y66698D01*
X488627D01*
X489435Y67033D01*
X490054Y67651D01*
X490389Y68460D01*
Y69335D01*
X490054Y70144D01*
X489658Y70539D01*
X489489Y70866D01*
X489658Y71193D01*
X490054Y71588D01*
X490389Y72397D01*
Y73272D01*
X490054Y74081D01*
X490270Y74572D01*
X490595D01*
X491404Y74907D01*
X492023Y75525D01*
X492357Y76334D01*
Y77209D01*
X492023Y78018D01*
X491404Y78637D01*
X490595Y78972D01*
D02*
G37*
G36*
X503387Y57299D02*
X502519D01*
X501717Y56967D01*
X501104Y56354D01*
X500772Y55552D01*
Y54684D01*
X501104Y53883D01*
X501717Y53269D01*
X502519Y52937D01*
X503387D01*
X504188Y53269D01*
X504802Y53883D01*
X505134Y54684D01*
Y55552D01*
X504802Y56354D01*
X504188Y56967D01*
X503387Y57299D01*
D02*
G37*
G36*
X489607D02*
X488739D01*
X487938Y56967D01*
X487324Y56354D01*
X486992Y55552D01*
Y54684D01*
X487324Y53883D01*
X487938Y53269D01*
X488739Y52937D01*
X489607D01*
X490409Y53269D01*
X491022Y53883D01*
X491354Y54684D01*
Y55552D01*
X491022Y56354D01*
X490409Y56967D01*
X489607Y57299D01*
D02*
G37*
G36*
X324253D02*
X323385D01*
X322584Y56967D01*
X321970Y56354D01*
X321638Y55552D01*
Y54684D01*
X321970Y53883D01*
X322584Y53269D01*
X323385Y52937D01*
X324253D01*
X325054Y53269D01*
X325668Y53883D01*
X326000Y54684D01*
Y55552D01*
X325668Y56354D01*
X325054Y56967D01*
X324253Y57299D01*
D02*
G37*
G36*
X339603Y58591D02*
X329729D01*
Y48717D01*
X339603D01*
Y58591D01*
D02*
G37*
G36*
X482717Y43520D02*
X481850D01*
X481048Y43188D01*
X480435Y42574D01*
X480102Y41772D01*
Y40905D01*
X480435Y40103D01*
X481048Y39489D01*
X481850Y39158D01*
X482717D01*
X483519Y39489D01*
X484133Y40103D01*
X484465Y40905D01*
Y41772D01*
X484133Y42574D01*
X483519Y43188D01*
X482717Y43520D01*
D02*
G37*
G36*
X427599D02*
X426732D01*
X425930Y43188D01*
X425316Y42574D01*
X424984Y41772D01*
Y40905D01*
X425316Y40103D01*
X425930Y39489D01*
X426732Y39158D01*
X427599D01*
X428401Y39489D01*
X429014Y40103D01*
X429347Y40905D01*
Y41772D01*
X429014Y42574D01*
X428401Y43188D01*
X427599Y43520D01*
D02*
G37*
G36*
X627402Y222654D02*
X626535D01*
X625733Y222322D01*
X625120Y221708D01*
X624788Y220906D01*
Y220039D01*
X625120Y219237D01*
X625733Y218623D01*
X626535Y218291D01*
X627402D01*
X628204Y218623D01*
X628818Y219237D01*
X629150Y220039D01*
Y220906D01*
X628818Y221708D01*
X628204Y222322D01*
X627402Y222654D01*
D02*
G37*
G36*
X613623D02*
X612755D01*
X611954Y222322D01*
X611340Y221708D01*
X611008Y220906D01*
Y220039D01*
X611340Y219237D01*
X611954Y218623D01*
X612755Y218291D01*
X613623D01*
X614425Y218623D01*
X615038Y219237D01*
X615370Y220039D01*
Y220906D01*
X615038Y221708D01*
X614425Y222322D01*
X613623Y222654D01*
D02*
G37*
G36*
X599843D02*
X598976D01*
X598174Y222322D01*
X597561Y221708D01*
X597228Y220906D01*
Y220039D01*
X597561Y219237D01*
X598174Y218623D01*
X598976Y218291D01*
X599843D01*
X600645Y218623D01*
X601259Y219237D01*
X601591Y220039D01*
Y220906D01*
X601259Y221708D01*
X600645Y222322D01*
X599843Y222654D01*
D02*
G37*
G36*
X586064D02*
X585196D01*
X584395Y222322D01*
X583781Y221708D01*
X583449Y220906D01*
Y220039D01*
X583781Y219237D01*
X584395Y218623D01*
X585196Y218291D01*
X586064D01*
X586866Y218623D01*
X587479Y219237D01*
X587811Y220039D01*
Y220906D01*
X587479Y221708D01*
X586866Y222322D01*
X586064Y222654D01*
D02*
G37*
G36*
X580438Y220974D02*
X579562D01*
X578754Y220639D01*
X578135Y220020D01*
X577800Y219212D01*
Y218337D01*
X578135Y217528D01*
X578754Y216909D01*
X579562Y216574D01*
X580438D01*
X581246Y216909D01*
X581865Y217528D01*
X582200Y218337D01*
Y219212D01*
X581865Y220020D01*
X581246Y220639D01*
X580438Y220974D01*
D02*
G37*
G36*
X543745Y218612D02*
X542870D01*
X542061Y218277D01*
X541442Y217658D01*
X541107Y216849D01*
Y215974D01*
X541442Y215165D01*
X542061Y214547D01*
X542870Y214212D01*
X543745D01*
X544553Y214547D01*
X545172Y215165D01*
X545507Y215974D01*
Y216849D01*
X545172Y217658D01*
X544553Y218277D01*
X543745Y218612D01*
D02*
G37*
G36*
Y212830D02*
X542870D01*
X542061Y212495D01*
X541442Y211876D01*
X541107Y211068D01*
Y210192D01*
X541442Y209384D01*
X542061Y208765D01*
X542870Y208430D01*
X543745D01*
X544553Y208765D01*
X545172Y209384D01*
X545507Y210192D01*
Y211068D01*
X545172Y211876D01*
X544553Y212495D01*
X543745Y212830D01*
D02*
G37*
G36*
X124554Y272791D02*
X123477D01*
X122437Y272513D01*
X121504Y271974D01*
X120742Y271212D01*
X120204Y270280D01*
X119925Y269239D01*
Y268162D01*
X120204Y267122D01*
X120742Y266189D01*
X121504Y265427D01*
X122437Y264889D01*
X123477Y264610D01*
X124554D01*
X125595Y264889D01*
X126527Y265427D01*
X127289Y266189D01*
X127828Y267122D01*
X128106Y268162D01*
Y269239D01*
X127828Y270280D01*
X127289Y271212D01*
X126527Y271974D01*
X125595Y272513D01*
X124554Y272791D01*
D02*
G37*
G36*
X175635Y268226D02*
X174759D01*
X173951Y267891D01*
X173332Y267272D01*
X172997Y266463D01*
Y265588D01*
X173332Y264779D01*
X173951Y264160D01*
X174759Y263825D01*
X175635D01*
X176443Y264160D01*
X177062Y264779D01*
X177397Y265588D01*
Y266463D01*
X177062Y267272D01*
X176443Y267891D01*
X175635Y268226D01*
D02*
G37*
G36*
X337438Y264200D02*
X336562D01*
X335754Y263865D01*
X335135Y263246D01*
X334800Y262438D01*
Y261562D01*
X335135Y260754D01*
X335754Y260135D01*
X336562Y259800D01*
X337438D01*
X338246Y260135D01*
X338865Y260754D01*
X339200Y261562D01*
Y262438D01*
X338865Y263246D01*
X338246Y263865D01*
X337438Y264200D01*
D02*
G37*
G36*
X325438D02*
X324562D01*
X323754Y263865D01*
X323135Y263246D01*
X322800Y262438D01*
Y261562D01*
X323135Y260754D01*
X323754Y260135D01*
X324562Y259800D01*
X325438D01*
X326246Y260135D01*
X326865Y260754D01*
X327200Y261562D01*
Y262438D01*
X326865Y263246D01*
X326246Y263865D01*
X325438Y264200D01*
D02*
G37*
G36*
X311438D02*
X310562D01*
X309754Y263865D01*
X309135Y263246D01*
X308800Y262438D01*
Y261562D01*
X309135Y260754D01*
X309754Y260135D01*
X310562Y259800D01*
X311438D01*
X312246Y260135D01*
X312865Y260754D01*
X313200Y261562D01*
Y262438D01*
X312865Y263246D01*
X312246Y263865D01*
X311438Y264200D01*
D02*
G37*
G36*
X298438D02*
X297562D01*
X296754Y263865D01*
X296135Y263246D01*
X295800Y262438D01*
Y261562D01*
X296135Y260754D01*
X296754Y260135D01*
X297562Y259800D01*
X298438D01*
X299246Y260135D01*
X299865Y260754D01*
X300200Y261562D01*
Y262438D01*
X299865Y263246D01*
X299246Y263865D01*
X298438Y264200D01*
D02*
G37*
G36*
X482717Y263992D02*
X481850D01*
X481048Y263660D01*
X480435Y263047D01*
X480102Y262245D01*
Y261377D01*
X480435Y260576D01*
X481048Y259962D01*
X481850Y259630D01*
X482717D01*
X483519Y259962D01*
X484133Y260576D01*
X484465Y261377D01*
Y262245D01*
X484133Y263047D01*
X483519Y263660D01*
X482717Y263992D01*
D02*
G37*
G36*
X468938D02*
X468070D01*
X467269Y263660D01*
X466655Y263047D01*
X466323Y262245D01*
Y261377D01*
X466655Y260576D01*
X467269Y259962D01*
X468070Y259630D01*
X468938D01*
X469739Y259962D01*
X470353Y260576D01*
X470685Y261377D01*
Y262245D01*
X470353Y263047D01*
X469739Y263660D01*
X468938Y263992D01*
D02*
G37*
G36*
X455158D02*
X454291D01*
X453489Y263660D01*
X452875Y263047D01*
X452543Y262245D01*
Y261377D01*
X452875Y260576D01*
X453489Y259962D01*
X454291Y259630D01*
X455158D01*
X455960Y259962D01*
X456573Y260576D01*
X456906Y261377D01*
Y262245D01*
X456573Y263047D01*
X455960Y263660D01*
X455158Y263992D01*
D02*
G37*
G36*
X441379D02*
X440511D01*
X439710Y263660D01*
X439096Y263047D01*
X438764Y262245D01*
Y261377D01*
X439096Y260576D01*
X439710Y259962D01*
X440511Y259630D01*
X441379D01*
X442180Y259962D01*
X442794Y260576D01*
X443126Y261377D01*
Y262245D01*
X442794Y263047D01*
X442180Y263660D01*
X441379Y263992D01*
D02*
G37*
G36*
X427599D02*
X426732D01*
X425930Y263660D01*
X425316Y263047D01*
X424984Y262245D01*
Y261377D01*
X425316Y260576D01*
X425930Y259962D01*
X426732Y259630D01*
X427599D01*
X428401Y259962D01*
X429014Y260576D01*
X429347Y261377D01*
Y262245D01*
X429014Y263047D01*
X428401Y263660D01*
X427599Y263992D01*
D02*
G37*
G36*
X413820D02*
X412952D01*
X412150Y263660D01*
X411537Y263047D01*
X411205Y262245D01*
Y261377D01*
X411537Y260576D01*
X412150Y259962D01*
X412952Y259630D01*
X413820D01*
X414621Y259962D01*
X415235Y260576D01*
X415567Y261377D01*
Y262245D01*
X415235Y263047D01*
X414621Y263660D01*
X413820Y263992D01*
D02*
G37*
G36*
X400040D02*
X399172D01*
X398371Y263660D01*
X397757Y263047D01*
X397425Y262245D01*
Y261377D01*
X397757Y260576D01*
X398371Y259962D01*
X399172Y259630D01*
X400040D01*
X400842Y259962D01*
X401455Y260576D01*
X401788Y261377D01*
Y262245D01*
X401455Y263047D01*
X400842Y263660D01*
X400040Y263992D01*
D02*
G37*
G36*
X386261D02*
X385393D01*
X384591Y263660D01*
X383978Y263047D01*
X383646Y262245D01*
Y261377D01*
X383978Y260576D01*
X384591Y259962D01*
X385393Y259630D01*
X386261D01*
X387062Y259962D01*
X387676Y260576D01*
X388008Y261377D01*
Y262245D01*
X387676Y263047D01*
X387062Y263660D01*
X386261Y263992D01*
D02*
G37*
G36*
X372481D02*
X371614D01*
X370812Y263660D01*
X370198Y263047D01*
X369866Y262245D01*
Y261377D01*
X370198Y260576D01*
X370812Y259962D01*
X371614Y259630D01*
X372481D01*
X373283Y259962D01*
X373896Y260576D01*
X374228Y261377D01*
Y262245D01*
X373896Y263047D01*
X373283Y263660D01*
X372481Y263992D01*
D02*
G37*
G36*
X358702D02*
X357834D01*
X357032Y263660D01*
X356419Y263047D01*
X356087Y262245D01*
Y261377D01*
X356419Y260576D01*
X357032Y259962D01*
X357834Y259630D01*
X358702D01*
X359503Y259962D01*
X360117Y260576D01*
X360449Y261377D01*
Y262245D01*
X360117Y263047D01*
X359503Y263660D01*
X358702Y263992D01*
D02*
G37*
G36*
X276024D02*
X275157D01*
X274355Y263660D01*
X273742Y263047D01*
X273410Y262245D01*
Y261377D01*
X273742Y260576D01*
X274355Y259962D01*
X275157Y259630D01*
X276024D01*
X276826Y259962D01*
X277440Y260576D01*
X277772Y261377D01*
Y262245D01*
X277440Y263047D01*
X276826Y263660D01*
X276024Y263992D01*
D02*
G37*
G36*
X179568D02*
X178700D01*
X177898Y263660D01*
X177285Y263047D01*
X176953Y262245D01*
Y261377D01*
X177285Y260576D01*
X177898Y259962D01*
X178700Y259630D01*
X179568D01*
X180369Y259962D01*
X180983Y260576D01*
X181315Y261377D01*
Y262245D01*
X180983Y263047D01*
X180369Y263660D01*
X179568Y263992D01*
D02*
G37*
G36*
X152009D02*
X151141D01*
X150339Y263660D01*
X149726Y263047D01*
X149394Y262245D01*
Y261377D01*
X149726Y260576D01*
X150339Y259962D01*
X151141Y259630D01*
X152009D01*
X152810Y259962D01*
X153424Y260576D01*
X153756Y261377D01*
Y262245D01*
X153424Y263047D01*
X152810Y263660D01*
X152009Y263992D01*
D02*
G37*
G36*
X138229D02*
X137361D01*
X136560Y263660D01*
X135946Y263047D01*
X135614Y262245D01*
Y261377D01*
X135946Y260576D01*
X136560Y259962D01*
X137361Y259630D01*
X138229D01*
X139031Y259962D01*
X139644Y260576D01*
X139976Y261377D01*
Y262245D01*
X139644Y263047D01*
X139031Y263660D01*
X138229Y263992D01*
D02*
G37*
G36*
X124450D02*
X123582D01*
X122780Y263660D01*
X122167Y263047D01*
X121835Y262245D01*
Y261377D01*
X122167Y260576D01*
X122780Y259962D01*
X123582Y259630D01*
X124450D01*
X125251Y259962D01*
X125865Y260576D01*
X126197Y261377D01*
Y262245D01*
X125865Y263047D01*
X125251Y263660D01*
X124450Y263992D01*
D02*
G37*
G36*
X110670D02*
X109802D01*
X109001Y263660D01*
X108387Y263047D01*
X108055Y262245D01*
Y261377D01*
X108387Y260576D01*
X109001Y259962D01*
X109802Y259630D01*
X110670D01*
X111472Y259962D01*
X112085Y260576D01*
X112417Y261377D01*
Y262245D01*
X112085Y263047D01*
X111472Y263660D01*
X110670Y263992D01*
D02*
G37*
G36*
X192327Y260393D02*
X191459D01*
X190658Y260061D01*
X190044Y259447D01*
X189978Y259287D01*
X189478D01*
X189412Y259447D01*
X188798Y260061D01*
X187996Y260393D01*
X187129D01*
X186327Y260061D01*
X185713Y259447D01*
X185647Y259287D01*
X185147D01*
X185081Y259447D01*
X184467Y260061D01*
X183666Y260393D01*
X182798D01*
X181996Y260061D01*
X181383Y259447D01*
X181051Y258645D01*
Y257778D01*
X181383Y256976D01*
X181996Y256363D01*
X182156Y256296D01*
Y255796D01*
X181996Y255730D01*
X181383Y255116D01*
X181051Y254315D01*
Y253447D01*
X181383Y252645D01*
X181996Y252032D01*
X182798Y251700D01*
X183666D01*
X184467Y252032D01*
X185081Y252645D01*
X185147Y252805D01*
X185647D01*
X185713Y252645D01*
X186327Y252032D01*
X187129Y251700D01*
X187996D01*
X188798Y252032D01*
X189412Y252645D01*
X189478Y252805D01*
X189978D01*
X190044Y252645D01*
X190658Y252032D01*
X191459Y251700D01*
X192327D01*
X193129Y252032D01*
X193742Y252645D01*
X194074Y253447D01*
Y254315D01*
X193742Y255116D01*
X193129Y255730D01*
X192968Y255796D01*
Y256296D01*
X193129Y256363D01*
X193742Y256976D01*
X194074Y257778D01*
Y258645D01*
X193742Y259447D01*
X193129Y260061D01*
X192327Y260393D01*
D02*
G37*
G36*
X286253Y249200D02*
X285378D01*
X284570Y248865D01*
X284234Y248530D01*
X283908Y248279D01*
X283581Y248530D01*
X283246Y248865D01*
X282438Y249200D01*
X281562D01*
X280754Y248865D01*
X280327Y248438D01*
X280000Y248302D01*
X279673Y248438D01*
X279246Y248865D01*
X278438Y249200D01*
X277562D01*
X276754Y248865D01*
X276135Y248246D01*
X275800Y247438D01*
Y246562D01*
X276135Y245754D01*
X276754Y245135D01*
X277562Y244800D01*
X278438D01*
X279246Y245135D01*
X279673Y245562D01*
X280000Y245698D01*
X280327Y245562D01*
X280754Y245135D01*
X281562Y244800D01*
X282438D01*
X283246Y245135D01*
X283581Y245470D01*
X283908Y245721D01*
X284234Y245470D01*
X284570Y245135D01*
X285378Y244800D01*
X286253D01*
X287062Y245135D01*
X287681Y245754D01*
X288016Y246562D01*
Y247438D01*
X287681Y248246D01*
X287062Y248865D01*
X286253Y249200D01*
D02*
G37*
G36*
X166438Y252200D02*
X165562D01*
X164754Y251865D01*
X164135Y251246D01*
X163800Y250438D01*
Y249562D01*
X164135Y248754D01*
X164754Y248135D01*
X165562Y247800D01*
X166438D01*
X167246Y248135D01*
X167865Y248754D01*
X168200Y249562D01*
Y250438D01*
X167865Y251246D01*
X167246Y251865D01*
X166438Y252200D01*
D02*
G37*
G36*
X503387Y250213D02*
X502519D01*
X501717Y249881D01*
X501104Y249267D01*
X500772Y248465D01*
Y247598D01*
X501104Y246796D01*
X501717Y246182D01*
X502519Y245850D01*
X503387D01*
X504188Y246182D01*
X504802Y246796D01*
X505134Y247598D01*
Y248465D01*
X504802Y249267D01*
X504188Y249881D01*
X503387Y250213D01*
D02*
G37*
G36*
X489607D02*
X488739D01*
X487938Y249881D01*
X487324Y249267D01*
X486992Y248465D01*
Y247598D01*
X487324Y246796D01*
X487938Y246182D01*
X488739Y245850D01*
X489607D01*
X490409Y246182D01*
X491022Y246796D01*
X491354Y247598D01*
Y248465D01*
X491022Y249267D01*
X490409Y249881D01*
X489607Y250213D01*
D02*
G37*
G36*
X475828D02*
X474960D01*
X474158Y249881D01*
X473545Y249267D01*
X473213Y248465D01*
Y247598D01*
X473545Y246796D01*
X474158Y246182D01*
X474960Y245850D01*
X475828D01*
X476629Y246182D01*
X477243Y246796D01*
X477575Y247598D01*
Y248465D01*
X477243Y249267D01*
X476629Y249881D01*
X475828Y250213D01*
D02*
G37*
G36*
X462048D02*
X461180D01*
X460379Y249881D01*
X459765Y249267D01*
X459433Y248465D01*
Y247598D01*
X459765Y246796D01*
X460379Y246182D01*
X461180Y245850D01*
X462048D01*
X462850Y246182D01*
X463463Y246796D01*
X463795Y247598D01*
Y248465D01*
X463463Y249267D01*
X462850Y249881D01*
X462048Y250213D01*
D02*
G37*
G36*
X448269D02*
X447401D01*
X446599Y249881D01*
X445986Y249267D01*
X445654Y248465D01*
Y247598D01*
X445986Y246796D01*
X446599Y246182D01*
X447401Y245850D01*
X448269D01*
X449070Y246182D01*
X449684Y246796D01*
X450016Y247598D01*
Y248465D01*
X449684Y249267D01*
X449070Y249881D01*
X448269Y250213D01*
D02*
G37*
G36*
X434489D02*
X433621D01*
X432820Y249881D01*
X432206Y249267D01*
X431874Y248465D01*
Y247598D01*
X432206Y246796D01*
X432820Y246182D01*
X433621Y245850D01*
X434489D01*
X435291Y246182D01*
X435904Y246796D01*
X436236Y247598D01*
Y248465D01*
X435904Y249267D01*
X435291Y249881D01*
X434489Y250213D01*
D02*
G37*
G36*
X420710D02*
X419842D01*
X419040Y249881D01*
X418427Y249267D01*
X418095Y248465D01*
Y247598D01*
X418427Y246796D01*
X419040Y246182D01*
X419842Y245850D01*
X420710D01*
X421511Y246182D01*
X422125Y246796D01*
X422457Y247598D01*
Y248465D01*
X422125Y249267D01*
X421511Y249881D01*
X420710Y250213D01*
D02*
G37*
G36*
X406930D02*
X406062D01*
X405261Y249881D01*
X404647Y249267D01*
X404315Y248465D01*
Y247598D01*
X404647Y246796D01*
X405261Y246182D01*
X406062Y245850D01*
X406930D01*
X407732Y246182D01*
X408345Y246796D01*
X408677Y247598D01*
Y248465D01*
X408345Y249267D01*
X407732Y249881D01*
X406930Y250213D01*
D02*
G37*
G36*
X393150D02*
X392283D01*
X391481Y249881D01*
X390867Y249267D01*
X390535Y248465D01*
Y247598D01*
X390867Y246796D01*
X391481Y246182D01*
X392283Y245850D01*
X393150D01*
X393952Y246182D01*
X394566Y246796D01*
X394898Y247598D01*
Y248465D01*
X394566Y249267D01*
X393952Y249881D01*
X393150Y250213D01*
D02*
G37*
G36*
X379371D02*
X378503D01*
X377702Y249881D01*
X377088Y249267D01*
X376756Y248465D01*
Y247598D01*
X377088Y246796D01*
X377702Y246182D01*
X378503Y245850D01*
X379371D01*
X380173Y246182D01*
X380786Y246796D01*
X381118Y247598D01*
Y248465D01*
X380786Y249267D01*
X380173Y249881D01*
X379371Y250213D01*
D02*
G37*
G36*
X365591D02*
X364724D01*
X363922Y249881D01*
X363309Y249267D01*
X362976Y248465D01*
Y247598D01*
X363309Y246796D01*
X363922Y246182D01*
X364724Y245850D01*
X365591D01*
X366393Y246182D01*
X367007Y246796D01*
X367339Y247598D01*
Y248465D01*
X367007Y249267D01*
X366393Y249881D01*
X365591Y250213D01*
D02*
G37*
G36*
X310473D02*
X309606D01*
X308804Y249881D01*
X308190Y249267D01*
X307858Y248465D01*
Y247598D01*
X308190Y246796D01*
X308804Y246182D01*
X309606Y245850D01*
X310473D01*
X311275Y246182D01*
X311889Y246796D01*
X312221Y247598D01*
Y248465D01*
X311889Y249267D01*
X311275Y249881D01*
X310473Y250213D01*
D02*
G37*
G36*
X296694D02*
X295826D01*
X295024Y249881D01*
X294411Y249267D01*
X294079Y248465D01*
Y247598D01*
X294411Y246796D01*
X295024Y246182D01*
X295826Y245850D01*
X296694D01*
X297495Y246182D01*
X298109Y246796D01*
X298441Y247598D01*
Y248465D01*
X298109Y249267D01*
X297495Y249881D01*
X296694Y250213D01*
D02*
G37*
G36*
X241576D02*
X240708D01*
X239906Y249881D01*
X239293Y249267D01*
X238961Y248465D01*
Y247598D01*
X239293Y246796D01*
X239906Y246182D01*
X240708Y245850D01*
X241576D01*
X242377Y246182D01*
X242991Y246796D01*
X243323Y247598D01*
Y248465D01*
X242991Y249267D01*
X242377Y249881D01*
X241576Y250213D01*
D02*
G37*
G36*
X200237D02*
X199369D01*
X198568Y249881D01*
X197954Y249267D01*
X197622Y248465D01*
Y247598D01*
X197954Y246796D01*
X198568Y246182D01*
X199369Y245850D01*
X200237D01*
X201039Y246182D01*
X201652Y246796D01*
X201984Y247598D01*
Y248465D01*
X201652Y249267D01*
X201039Y249881D01*
X200237Y250213D01*
D02*
G37*
G36*
X158898D02*
X158031D01*
X157229Y249881D01*
X156615Y249267D01*
X156283Y248465D01*
Y247598D01*
X156615Y246796D01*
X157229Y246182D01*
X158031Y245850D01*
X158898D01*
X159700Y246182D01*
X160314Y246796D01*
X160646Y247598D01*
Y248465D01*
X160314Y249267D01*
X159700Y249881D01*
X158898Y250213D01*
D02*
G37*
G36*
X145119D02*
X144251D01*
X143450Y249881D01*
X142836Y249267D01*
X142504Y248465D01*
Y247598D01*
X142836Y246796D01*
X143450Y246182D01*
X144251Y245850D01*
X145119D01*
X145921Y246182D01*
X146534Y246796D01*
X146866Y247598D01*
Y248465D01*
X146534Y249267D01*
X145921Y249881D01*
X145119Y250213D01*
D02*
G37*
G36*
X131339D02*
X130472D01*
X129670Y249881D01*
X129057Y249267D01*
X128724Y248465D01*
Y247598D01*
X129057Y246796D01*
X129670Y246182D01*
X130472Y245850D01*
X131339D01*
X132141Y246182D01*
X132755Y246796D01*
X133087Y247598D01*
Y248465D01*
X132755Y249267D01*
X132141Y249881D01*
X131339Y250213D01*
D02*
G37*
G36*
X117560D02*
X116692D01*
X115891Y249881D01*
X115277Y249267D01*
X114945Y248465D01*
Y247598D01*
X115277Y246796D01*
X115891Y246182D01*
X116692Y245850D01*
X117560D01*
X118361Y246182D01*
X118975Y246796D01*
X119307Y247598D01*
Y248465D01*
X118975Y249267D01*
X118361Y249881D01*
X117560Y250213D01*
D02*
G37*
G36*
X337438Y247200D02*
X336562D01*
X335754Y246865D01*
X335135Y246246D01*
X334800Y245438D01*
Y244562D01*
X335135Y243754D01*
X335754Y243135D01*
X336562Y242800D01*
X337438D01*
X338246Y243135D01*
X338865Y243754D01*
X339200Y244562D01*
Y245438D01*
X338865Y246246D01*
X338246Y246865D01*
X337438Y247200D01*
D02*
G37*
G36*
X258312Y240389D02*
X257436D01*
X256628Y240054D01*
X256009Y239435D01*
X255674Y238627D01*
Y237751D01*
X256009Y236943D01*
X256628Y236324D01*
X257436Y235989D01*
X258312D01*
X259120Y236324D01*
X259739Y236943D01*
X260074Y237751D01*
Y238627D01*
X259739Y239435D01*
X259120Y240054D01*
X258312Y240389D01*
D02*
G37*
G36*
X229438Y240200D02*
X228562D01*
X227754Y239865D01*
X227135Y239246D01*
X226800Y238438D01*
Y237562D01*
X227135Y236754D01*
X227754Y236135D01*
X228562Y235800D01*
X229438D01*
X230246Y236135D01*
X230865Y236754D01*
X231200Y237562D01*
Y238438D01*
X230865Y239246D01*
X230246Y239865D01*
X229438Y240200D01*
D02*
G37*
G36*
X510277Y236433D02*
X509409D01*
X508607Y236101D01*
X507994Y235488D01*
X507661Y234686D01*
Y233818D01*
X507994Y233016D01*
X508607Y232403D01*
X509409Y232071D01*
X510277D01*
X511078Y232403D01*
X511692Y233016D01*
X512024Y233818D01*
Y234686D01*
X511692Y235488D01*
X511078Y236101D01*
X510277Y236433D01*
D02*
G37*
G36*
X496497D02*
X495629D01*
X494828Y236101D01*
X494214Y235488D01*
X493882Y234686D01*
Y233818D01*
X494214Y233016D01*
X494828Y232403D01*
X495629Y232071D01*
X496497D01*
X497299Y232403D01*
X497912Y233016D01*
X498244Y233818D01*
Y234686D01*
X497912Y235488D01*
X497299Y236101D01*
X496497Y236433D01*
D02*
G37*
G36*
X482717D02*
X481850D01*
X481048Y236101D01*
X480435Y235488D01*
X480102Y234686D01*
Y233818D01*
X480435Y233016D01*
X481048Y232403D01*
X481850Y232071D01*
X482717D01*
X483519Y232403D01*
X484133Y233016D01*
X484465Y233818D01*
Y234686D01*
X484133Y235488D01*
X483519Y236101D01*
X482717Y236433D01*
D02*
G37*
G36*
X468938D02*
X468070D01*
X467269Y236101D01*
X466655Y235488D01*
X466323Y234686D01*
Y233818D01*
X466655Y233016D01*
X467269Y232403D01*
X468070Y232071D01*
X468938D01*
X469739Y232403D01*
X470353Y233016D01*
X470685Y233818D01*
Y234686D01*
X470353Y235488D01*
X469739Y236101D01*
X468938Y236433D01*
D02*
G37*
G36*
X358702D02*
X357834D01*
X357032Y236101D01*
X356419Y235488D01*
X356087Y234686D01*
Y233818D01*
X356419Y233016D01*
X357032Y232403D01*
X357834Y232071D01*
X358702D01*
X359503Y232403D01*
X360117Y233016D01*
X360449Y233818D01*
Y234686D01*
X360117Y235488D01*
X359503Y236101D01*
X358702Y236433D01*
D02*
G37*
G36*
X344922D02*
X344054D01*
X343253Y236101D01*
X342639Y235488D01*
X342307Y234686D01*
Y233818D01*
X342639Y233016D01*
X343253Y232403D01*
X344054Y232071D01*
X344922D01*
X345724Y232403D01*
X346337Y233016D01*
X346669Y233818D01*
Y234686D01*
X346337Y235488D01*
X345724Y236101D01*
X344922Y236433D01*
D02*
G37*
G36*
X248465D02*
X247598D01*
X246796Y236101D01*
X246182Y235488D01*
X245850Y234686D01*
Y233818D01*
X246182Y233016D01*
X246796Y232403D01*
X247598Y232071D01*
X248465D01*
X249267Y232403D01*
X249881Y233016D01*
X250213Y233818D01*
Y234686D01*
X249881Y235488D01*
X249267Y236101D01*
X248465Y236433D01*
D02*
G37*
G36*
X220906D02*
X220039D01*
X219237Y236101D01*
X218623Y235488D01*
X218291Y234686D01*
Y233818D01*
X218623Y233016D01*
X219237Y232403D01*
X220039Y232071D01*
X220906D01*
X221708Y232403D01*
X222322Y233016D01*
X222654Y233818D01*
Y234686D01*
X222322Y235488D01*
X221708Y236101D01*
X220906Y236433D01*
D02*
G37*
G36*
X207127D02*
X206259D01*
X205457Y236101D01*
X204844Y235488D01*
X204512Y234686D01*
Y233818D01*
X204844Y233016D01*
X205457Y232403D01*
X206259Y232071D01*
X207127D01*
X207928Y232403D01*
X208542Y233016D01*
X208874Y233818D01*
Y234686D01*
X208542Y235488D01*
X207928Y236101D01*
X207127Y236433D01*
D02*
G37*
G36*
X179568D02*
X178700D01*
X177898Y236101D01*
X177285Y235488D01*
X176953Y234686D01*
Y233818D01*
X177285Y233016D01*
X177898Y232403D01*
X178700Y232071D01*
X179568D01*
X180369Y232403D01*
X180983Y233016D01*
X181315Y233818D01*
Y234686D01*
X180983Y235488D01*
X180369Y236101D01*
X179568Y236433D01*
D02*
G37*
G36*
X165788D02*
X164920D01*
X164119Y236101D01*
X163505Y235488D01*
X163173Y234686D01*
Y233818D01*
X163505Y233016D01*
X164119Y232403D01*
X164920Y232071D01*
X165788D01*
X166590Y232403D01*
X167203Y233016D01*
X167535Y233818D01*
Y234686D01*
X167203Y235488D01*
X166590Y236101D01*
X165788Y236433D01*
D02*
G37*
G36*
X152009D02*
X151141D01*
X150339Y236101D01*
X149726Y235488D01*
X149394Y234686D01*
Y233818D01*
X149726Y233016D01*
X150339Y232403D01*
X151141Y232071D01*
X152009D01*
X152810Y232403D01*
X153424Y233016D01*
X153756Y233818D01*
Y234686D01*
X153424Y235488D01*
X152810Y236101D01*
X152009Y236433D01*
D02*
G37*
G36*
X138229D02*
X137361D01*
X136560Y236101D01*
X135946Y235488D01*
X135614Y234686D01*
Y233818D01*
X135946Y233016D01*
X136560Y232403D01*
X137361Y232071D01*
X138229D01*
X139031Y232403D01*
X139644Y233016D01*
X139976Y233818D01*
Y234686D01*
X139644Y235488D01*
X139031Y236101D01*
X138229Y236433D01*
D02*
G37*
G36*
X124450D02*
X123582D01*
X122780Y236101D01*
X122167Y235488D01*
X121835Y234686D01*
Y233818D01*
X122167Y233016D01*
X122780Y232403D01*
X123582Y232071D01*
X124450D01*
X125251Y232403D01*
X125865Y233016D01*
X126197Y233818D01*
Y234686D01*
X125865Y235488D01*
X125251Y236101D01*
X124450Y236433D01*
D02*
G37*
G36*
X110670D02*
X109802D01*
X109001Y236101D01*
X108387Y235488D01*
X108055Y234686D01*
Y233818D01*
X108387Y233016D01*
X109001Y232403D01*
X109802Y232071D01*
X110670D01*
X111472Y232403D01*
X112085Y233016D01*
X112417Y233818D01*
Y234686D01*
X112085Y235488D01*
X111472Y236101D01*
X110670Y236433D01*
D02*
G37*
G36*
X338438Y231200D02*
X337562D01*
X336754Y230865D01*
X336135Y230246D01*
X335800Y229438D01*
Y228562D01*
X336135Y227754D01*
X336754Y227135D01*
X337562Y226800D01*
X338438D01*
X339246Y227135D01*
X339865Y227754D01*
X340200Y228562D01*
Y229438D01*
X339865Y230246D01*
X339246Y230865D01*
X338438Y231200D01*
D02*
G37*
G36*
X290575Y227172D02*
X287425D01*
X286753Y227083D01*
X286127Y226824D01*
X285589Y226411D01*
X285176Y225873D01*
X284917Y225247D01*
X284828Y224575D01*
Y221811D01*
X284336Y221709D01*
X284328Y221709D01*
X283716Y222322D01*
X282914Y222654D01*
X282047D01*
X281245Y222322D01*
X280631Y221708D01*
X280299Y220906D01*
Y220039D01*
X280631Y219237D01*
X281245Y218623D01*
X282047Y218291D01*
X282914D01*
X283716Y218623D01*
X284329Y219237D01*
X284662Y220039D01*
Y220062D01*
X285161Y220162D01*
X285176Y220127D01*
X285589Y219589D01*
X286127Y219176D01*
X286753Y218917D01*
X287425Y218828D01*
X290575D01*
X291247Y218917D01*
X291873Y219176D01*
X292411Y219589D01*
X292824Y220127D01*
X293083Y220753D01*
X293172Y221425D01*
Y224575D01*
X293083Y225247D01*
X292824Y225873D01*
X292411Y226411D01*
X291873Y226824D01*
X291247Y227083D01*
X290575Y227172D01*
D02*
G37*
G36*
X362642Y224641D02*
X361767D01*
X360959Y224306D01*
X360340Y223687D01*
X360005Y222879D01*
Y222003D01*
X360340Y221195D01*
X360959Y220576D01*
X361767Y220241D01*
X362642D01*
X363451Y220576D01*
X364070Y221195D01*
X364405Y222003D01*
Y222879D01*
X364070Y223687D01*
X363451Y224306D01*
X362642Y224641D01*
D02*
G37*
G36*
X319467Y227799D02*
X316317D01*
X315645Y227710D01*
X315019Y227451D01*
X314481Y227038D01*
X314068Y226500D01*
X313809Y225874D01*
X313720Y225202D01*
Y222052D01*
X313809Y221380D01*
X314068Y220754D01*
X314481Y220216D01*
X315019Y219803D01*
X315645Y219544D01*
X316317Y219455D01*
X319467D01*
X320139Y219544D01*
X320765Y219803D01*
X321303Y220216D01*
X321716Y220754D01*
X321975Y221380D01*
X322064Y222052D01*
Y225202D01*
X321975Y225874D01*
X321716Y226500D01*
X321303Y227038D01*
X320765Y227451D01*
X320139Y227710D01*
X319467Y227799D01*
D02*
G37*
G36*
X305575Y227172D02*
X302425D01*
X301753Y227083D01*
X301127Y226824D01*
X300589Y226411D01*
X300176Y225873D01*
X299917Y225247D01*
X299828Y224575D01*
Y221425D01*
X299917Y220753D01*
X300176Y220127D01*
X300589Y219589D01*
X301127Y219176D01*
X301753Y218917D01*
X302425Y218828D01*
X305575D01*
X306247Y218917D01*
X306873Y219176D01*
X307411Y219589D01*
X307824Y220127D01*
X308083Y220753D01*
X308172Y221425D01*
Y224575D01*
X308083Y225247D01*
X307824Y225873D01*
X307411Y226411D01*
X306873Y226824D01*
X306247Y227083D01*
X305575Y227172D01*
D02*
G37*
G36*
X489607Y222654D02*
X488739D01*
X487938Y222322D01*
X487324Y221708D01*
X486992Y220906D01*
Y220039D01*
X487324Y219237D01*
X487938Y218623D01*
X488739Y218291D01*
X489607D01*
X490409Y218623D01*
X491022Y219237D01*
X491354Y220039D01*
Y220906D01*
X491022Y221708D01*
X490409Y222322D01*
X489607Y222654D01*
D02*
G37*
G36*
X475828D02*
X474960D01*
X474158Y222322D01*
X473545Y221708D01*
X473213Y220906D01*
Y220039D01*
X473545Y219237D01*
X474158Y218623D01*
X474960Y218291D01*
X475828D01*
X476629Y218623D01*
X477243Y219237D01*
X477575Y220039D01*
Y220906D01*
X477243Y221708D01*
X476629Y222322D01*
X475828Y222654D01*
D02*
G37*
G36*
X462048D02*
X461180D01*
X460379Y222322D01*
X459765Y221708D01*
X459433Y220906D01*
Y220039D01*
X459765Y219237D01*
X460379Y218623D01*
X461180Y218291D01*
X462048D01*
X462850Y218623D01*
X463463Y219237D01*
X463795Y220039D01*
Y220906D01*
X463463Y221708D01*
X462850Y222322D01*
X462048Y222654D01*
D02*
G37*
G36*
X351812D02*
X350944D01*
X350143Y222322D01*
X349529Y221708D01*
X349197Y220906D01*
Y220039D01*
X349529Y219237D01*
X350143Y218623D01*
X350944Y218291D01*
X351812D01*
X352613Y218623D01*
X353227Y219237D01*
X353559Y220039D01*
Y220906D01*
X353227Y221708D01*
X352613Y222322D01*
X351812Y222654D01*
D02*
G37*
G36*
X332830Y227799D02*
X329680D01*
X329008Y227710D01*
X328382Y227451D01*
X327844Y227038D01*
X327431Y226500D01*
X327172Y225874D01*
X327083Y225202D01*
Y222052D01*
X327172Y221380D01*
X327431Y220754D01*
X327844Y220216D01*
X328382Y219803D01*
X329008Y219544D01*
X329680Y219455D01*
X332830D01*
X333502Y219544D01*
X334128Y219803D01*
X334666Y220216D01*
X334917Y220543D01*
X335417Y220373D01*
Y220039D01*
X335749Y219237D01*
X336363Y218623D01*
X337165Y218291D01*
X338032D01*
X338834Y218623D01*
X339447Y219237D01*
X339780Y220039D01*
Y220906D01*
X339447Y221708D01*
X338834Y222322D01*
X338032Y222654D01*
X337165D01*
X336363Y222322D01*
X335907Y221865D01*
X335515Y222018D01*
X335427Y222093D01*
Y225202D01*
X335338Y225874D01*
X335079Y226500D01*
X334666Y227038D01*
X334128Y227451D01*
X333502Y227710D01*
X332830Y227799D01*
D02*
G37*
G36*
X241576Y222654D02*
X240708D01*
X239906Y222322D01*
X239293Y221708D01*
X238961Y220906D01*
Y220039D01*
X239293Y219237D01*
X239906Y218623D01*
X240708Y218291D01*
X241576D01*
X242377Y218623D01*
X242991Y219237D01*
X243323Y220039D01*
Y220906D01*
X242991Y221708D01*
X242377Y222322D01*
X241576Y222654D01*
D02*
G37*
G36*
X186458D02*
X185590D01*
X184788Y222322D01*
X184175Y221708D01*
X183843Y220906D01*
Y220039D01*
X184175Y219237D01*
X184788Y218623D01*
X185590Y218291D01*
X186458D01*
X187259Y218623D01*
X187873Y219237D01*
X188205Y220039D01*
Y220906D01*
X187873Y221708D01*
X187259Y222322D01*
X186458Y222654D01*
D02*
G37*
G36*
X158898D02*
X158031D01*
X157229Y222322D01*
X156615Y221708D01*
X156283Y220906D01*
Y220039D01*
X156615Y219237D01*
X157229Y218623D01*
X158031Y218291D01*
X158898D01*
X159700Y218623D01*
X160314Y219237D01*
X160646Y220039D01*
Y220906D01*
X160314Y221708D01*
X159700Y222322D01*
X158898Y222654D01*
D02*
G37*
G36*
X145119D02*
X144251D01*
X143450Y222322D01*
X142836Y221708D01*
X142504Y220906D01*
Y220039D01*
X142836Y219237D01*
X143450Y218623D01*
X144251Y218291D01*
X145119D01*
X145921Y218623D01*
X146534Y219237D01*
X146866Y220039D01*
Y220906D01*
X146534Y221708D01*
X145921Y222322D01*
X145119Y222654D01*
D02*
G37*
G36*
X131339D02*
X130472D01*
X129670Y222322D01*
X129057Y221708D01*
X128724Y220906D01*
Y220039D01*
X129057Y219237D01*
X129670Y218623D01*
X130472Y218291D01*
X131339D01*
X132141Y218623D01*
X132755Y219237D01*
X133087Y220039D01*
Y220906D01*
X132755Y221708D01*
X132141Y222322D01*
X131339Y222654D01*
D02*
G37*
G36*
X117560D02*
X116692D01*
X115891Y222322D01*
X115277Y221708D01*
X114945Y220906D01*
Y220039D01*
X115277Y219237D01*
X115891Y218623D01*
X116692Y218291D01*
X117560D01*
X118361Y218623D01*
X118975Y219237D01*
X119307Y220039D01*
Y220906D01*
X118975Y221708D01*
X118361Y222322D01*
X117560Y222654D01*
D02*
G37*
G36*
X331802Y217777D02*
X330709D01*
X329654Y217494D01*
X328707Y216948D01*
X327935Y216175D01*
X327388Y215229D01*
X327106Y214173D01*
Y213081D01*
X327388Y212025D01*
X327935Y211079D01*
X328707Y210307D01*
X329654Y209760D01*
X330709Y209477D01*
X331802D01*
X332857Y209760D01*
X333803Y210307D01*
X334576Y211079D01*
X335122Y212025D01*
X335405Y213081D01*
Y214173D01*
X335122Y215229D01*
X334576Y216175D01*
X333803Y216948D01*
X332857Y217494D01*
X331802Y217777D01*
D02*
G37*
G36*
X318438D02*
X317346D01*
X316290Y217494D01*
X315344Y216948D01*
X314571Y216175D01*
X314025Y215229D01*
X313742Y214173D01*
Y213081D01*
X314025Y212025D01*
X314571Y211079D01*
X315344Y210307D01*
X316290Y209760D01*
X317346Y209477D01*
X318438D01*
X319494Y209760D01*
X320440Y210307D01*
X321213Y211079D01*
X321759Y212025D01*
X322042Y213081D01*
Y214173D01*
X321759Y215229D01*
X321213Y216175D01*
X320440Y216948D01*
X319494Y217494D01*
X318438Y217777D01*
D02*
G37*
G36*
X304546Y217149D02*
X303454D01*
X302398Y216867D01*
X301452Y216320D01*
X300679Y215548D01*
X300133Y214602D01*
X299850Y213546D01*
Y212454D01*
X300133Y211398D01*
X300679Y210452D01*
X301452Y209679D01*
X302398Y209133D01*
X303454Y208850D01*
X304546D01*
X305602Y209133D01*
X306548Y209679D01*
X307320Y210452D01*
X307867Y211398D01*
X308150Y212454D01*
Y213546D01*
X307867Y214602D01*
X307320Y215548D01*
X306548Y216320D01*
X305602Y216867D01*
X304546Y217149D01*
D02*
G37*
G36*
X289546D02*
X288454D01*
X287398Y216867D01*
X286452Y216320D01*
X285679Y215548D01*
X285133Y214602D01*
X284850Y213546D01*
Y212454D01*
X285133Y211398D01*
X285679Y210452D01*
X286452Y209679D01*
X287398Y209133D01*
X288454Y208850D01*
X289546D01*
X290602Y209133D01*
X291548Y209679D01*
X292320Y210452D01*
X292867Y211398D01*
X293149Y212454D01*
Y213546D01*
X292867Y214602D01*
X292320Y215548D01*
X291548Y216320D01*
X290602Y216867D01*
X289546Y217149D01*
D02*
G37*
G36*
X482717Y208874D02*
X481850D01*
X481048Y208542D01*
X480435Y207928D01*
X480102Y207127D01*
Y206259D01*
X480435Y205457D01*
X481048Y204844D01*
X481850Y204512D01*
X482717D01*
X483519Y204844D01*
X484133Y205457D01*
X484465Y206259D01*
Y207127D01*
X484133Y207928D01*
X483519Y208542D01*
X482717Y208874D01*
D02*
G37*
G36*
X468938D02*
X468070D01*
X467269Y208542D01*
X466655Y207928D01*
X466323Y207127D01*
Y206259D01*
X466655Y205457D01*
X467269Y204844D01*
X468070Y204512D01*
X468938D01*
X469739Y204844D01*
X470353Y205457D01*
X470685Y206259D01*
Y207127D01*
X470353Y207928D01*
X469739Y208542D01*
X468938Y208874D01*
D02*
G37*
G36*
X234686D02*
X233818D01*
X233016Y208542D01*
X232403Y207928D01*
X232071Y207127D01*
Y206259D01*
X232403Y205457D01*
X233016Y204844D01*
X233818Y204512D01*
X234686D01*
X235488Y204844D01*
X236101Y205457D01*
X236433Y206259D01*
Y207127D01*
X236101Y207928D01*
X235488Y208542D01*
X234686Y208874D01*
D02*
G37*
G36*
X220906D02*
X220039D01*
X219237Y208542D01*
X218623Y207928D01*
X218291Y207127D01*
Y206259D01*
X218623Y205457D01*
X219237Y204844D01*
X220039Y204512D01*
X220906D01*
X221708Y204844D01*
X222322Y205457D01*
X222654Y206259D01*
Y207127D01*
X222322Y207928D01*
X221708Y208542D01*
X220906Y208874D01*
D02*
G37*
G36*
X193347D02*
X192480D01*
X191678Y208542D01*
X191064Y207928D01*
X190732Y207127D01*
Y206259D01*
X191064Y205457D01*
X191678Y204844D01*
X192480Y204512D01*
X193347D01*
X194149Y204844D01*
X194763Y205457D01*
X195095Y206259D01*
Y207127D01*
X194763Y207928D01*
X194149Y208542D01*
X193347Y208874D01*
D02*
G37*
G36*
X179568D02*
X178700D01*
X177898Y208542D01*
X177285Y207928D01*
X176953Y207127D01*
Y206259D01*
X177285Y205457D01*
X177898Y204844D01*
X178700Y204512D01*
X179568D01*
X180369Y204844D01*
X180983Y205457D01*
X181315Y206259D01*
Y207127D01*
X180983Y207928D01*
X180369Y208542D01*
X179568Y208874D01*
D02*
G37*
G36*
X165788D02*
X164920D01*
X164119Y208542D01*
X163505Y207928D01*
X163173Y207127D01*
Y206259D01*
X163505Y205457D01*
X164119Y204844D01*
X164920Y204512D01*
X165788D01*
X166590Y204844D01*
X167203Y205457D01*
X167535Y206259D01*
Y207127D01*
X167203Y207928D01*
X166590Y208542D01*
X165788Y208874D01*
D02*
G37*
G36*
X152009D02*
X151141D01*
X150339Y208542D01*
X149726Y207928D01*
X149394Y207127D01*
Y206259D01*
X149726Y205457D01*
X150339Y204844D01*
X151141Y204512D01*
X152009D01*
X152810Y204844D01*
X153424Y205457D01*
X153756Y206259D01*
Y207127D01*
X153424Y207928D01*
X152810Y208542D01*
X152009Y208874D01*
D02*
G37*
G36*
X138229D02*
X137361D01*
X136560Y208542D01*
X135946Y207928D01*
X135614Y207127D01*
Y206259D01*
X135946Y205457D01*
X136560Y204844D01*
X137361Y204512D01*
X138229D01*
X139031Y204844D01*
X139644Y205457D01*
X139976Y206259D01*
Y207127D01*
X139644Y207928D01*
X139031Y208542D01*
X138229Y208874D01*
D02*
G37*
G36*
X110670D02*
X109802D01*
X109001Y208542D01*
X108387Y207928D01*
X108055Y207127D01*
Y206259D01*
X108387Y205457D01*
X109001Y204844D01*
X109802Y204512D01*
X110670D01*
X111472Y204844D01*
X112085Y205457D01*
X112417Y206259D01*
Y207127D01*
X112085Y207928D01*
X111472Y208542D01*
X110670Y208874D01*
D02*
G37*
G36*
X503387Y195095D02*
X502519D01*
X501717Y194763D01*
X501104Y194149D01*
X500772Y193347D01*
Y192480D01*
X501104Y191678D01*
X501717Y191064D01*
X502519Y190732D01*
X503387D01*
X504188Y191064D01*
X504802Y191678D01*
X505134Y192480D01*
Y193347D01*
X504802Y194149D01*
X504188Y194763D01*
X503387Y195095D01*
D02*
G37*
G36*
X462048D02*
X461180D01*
X460379Y194763D01*
X459765Y194149D01*
X459433Y193347D01*
Y192480D01*
X459765Y191678D01*
X460379Y191064D01*
X461180Y190732D01*
X462048D01*
X462850Y191064D01*
X463463Y191678D01*
X463795Y192480D01*
Y193347D01*
X463463Y194149D01*
X462850Y194763D01*
X462048Y195095D01*
D02*
G37*
G36*
X282914D02*
X282047D01*
X281245Y194763D01*
X280631Y194149D01*
X280299Y193347D01*
Y192480D01*
X280631Y191678D01*
X281245Y191064D01*
X282047Y190732D01*
X282914D01*
X283716Y191064D01*
X284329Y191678D01*
X284662Y192480D01*
Y193347D01*
X284329Y194149D01*
X283716Y194763D01*
X282914Y195095D01*
D02*
G37*
G36*
X269135D02*
X268267D01*
X267465Y194763D01*
X266852Y194149D01*
X266520Y193347D01*
Y192480D01*
X266852Y191678D01*
X267465Y191064D01*
X268267Y190732D01*
X269135D01*
X269936Y191064D01*
X270550Y191678D01*
X270882Y192480D01*
Y193347D01*
X270550Y194149D01*
X269936Y194763D01*
X269135Y195095D01*
D02*
G37*
G36*
X255355D02*
X254487D01*
X253686Y194763D01*
X253072Y194149D01*
X252740Y193347D01*
Y192480D01*
X253072Y191678D01*
X253686Y191064D01*
X254487Y190732D01*
X255355D01*
X256157Y191064D01*
X256770Y191678D01*
X257102Y192480D01*
Y193347D01*
X256770Y194149D01*
X256157Y194763D01*
X255355Y195095D01*
D02*
G37*
G36*
X227796D02*
X226928D01*
X226127Y194763D01*
X225513Y194149D01*
X225181Y193347D01*
Y192480D01*
X225513Y191678D01*
X226127Y191064D01*
X226928Y190732D01*
X227796D01*
X228598Y191064D01*
X229211Y191678D01*
X229543Y192480D01*
Y193347D01*
X229211Y194149D01*
X228598Y194763D01*
X227796Y195095D01*
D02*
G37*
G36*
X214017D02*
X213149D01*
X212347Y194763D01*
X211734Y194149D01*
X211402Y193347D01*
Y192480D01*
X211734Y191678D01*
X212347Y191064D01*
X213149Y190732D01*
X214017D01*
X214818Y191064D01*
X215432Y191678D01*
X215764Y192480D01*
Y193347D01*
X215432Y194149D01*
X214818Y194763D01*
X214017Y195095D01*
D02*
G37*
G36*
X186458D02*
X185590D01*
X184788Y194763D01*
X184175Y194149D01*
X183843Y193347D01*
Y192480D01*
X184175Y191678D01*
X184788Y191064D01*
X185590Y190732D01*
X186458D01*
X187259Y191064D01*
X187873Y191678D01*
X188205Y192480D01*
Y193347D01*
X187873Y194149D01*
X187259Y194763D01*
X186458Y195095D01*
D02*
G37*
G36*
X172678D02*
X171810D01*
X171009Y194763D01*
X170395Y194149D01*
X170063Y193347D01*
Y192480D01*
X170395Y191678D01*
X171009Y191064D01*
X171810Y190732D01*
X172678D01*
X173480Y191064D01*
X174093Y191678D01*
X174425Y192480D01*
Y193347D01*
X174093Y194149D01*
X173480Y194763D01*
X172678Y195095D01*
D02*
G37*
G36*
X145119D02*
X144251D01*
X143450Y194763D01*
X142836Y194149D01*
X142504Y193347D01*
Y192480D01*
X142836Y191678D01*
X143450Y191064D01*
X144251Y190732D01*
X145119D01*
X145921Y191064D01*
X146534Y191678D01*
X146866Y192480D01*
Y193347D01*
X146534Y194149D01*
X145921Y194763D01*
X145119Y195095D01*
D02*
G37*
G36*
X117560D02*
X116692D01*
X115891Y194763D01*
X115277Y194149D01*
X114945Y193347D01*
Y192480D01*
X115277Y191678D01*
X115891Y191064D01*
X116692Y190732D01*
X117560D01*
X118361Y191064D01*
X118975Y191678D01*
X119307Y192480D01*
Y193347D01*
X118975Y194149D01*
X118361Y194763D01*
X117560Y195095D01*
D02*
G37*
G36*
X468711Y195113D02*
X467836D01*
X467027Y194779D01*
X466408Y194160D01*
X466074Y193351D01*
Y192476D01*
X466408Y191667D01*
X467027Y191048D01*
X467836Y190713D01*
X468711D01*
X469520Y191048D01*
X470139Y191667D01*
X470473Y192476D01*
Y193351D01*
X470139Y194160D01*
X469520Y194779D01*
X468711Y195113D01*
D02*
G37*
G36*
X112642Y186527D02*
X111767D01*
X110959Y186192D01*
X110340Y185573D01*
X110005Y184765D01*
Y183890D01*
X110340Y183081D01*
X110793Y182627D01*
X110340Y182174D01*
X110005Y181365D01*
Y180490D01*
X110340Y179681D01*
X110959Y179062D01*
X111767Y178727D01*
X112642D01*
X113451Y179062D01*
X114070Y179681D01*
X114405Y180490D01*
Y181365D01*
X114070Y182174D01*
X113616Y182627D01*
X114070Y183081D01*
X114405Y183890D01*
Y184765D01*
X114070Y185573D01*
X113451Y186192D01*
X112642Y186527D01*
D02*
G37*
G36*
X276024Y181315D02*
X275157D01*
X274355Y180983D01*
X273742Y180369D01*
X273410Y179568D01*
Y178700D01*
X273742Y177898D01*
X274355Y177285D01*
X275157Y176953D01*
X276024D01*
X276826Y177285D01*
X277440Y177898D01*
X277772Y178700D01*
Y179568D01*
X277440Y180369D01*
X276826Y180983D01*
X276024Y181315D01*
D02*
G37*
G36*
X262245D02*
X261377D01*
X260576Y180983D01*
X259962Y180369D01*
X259630Y179568D01*
Y178700D01*
X259962Y177898D01*
X260576Y177285D01*
X261377Y176953D01*
X262245D01*
X263047Y177285D01*
X263660Y177898D01*
X263992Y178700D01*
Y179568D01*
X263660Y180369D01*
X263047Y180983D01*
X262245Y181315D01*
D02*
G37*
G36*
X248465D02*
X247598D01*
X246796Y180983D01*
X246182Y180369D01*
X245850Y179568D01*
Y178700D01*
X246182Y177898D01*
X246796Y177285D01*
X247598Y176953D01*
X248465D01*
X249267Y177285D01*
X249881Y177898D01*
X250213Y178700D01*
Y179568D01*
X249881Y180369D01*
X249267Y180983D01*
X248465Y181315D01*
D02*
G37*
G36*
X234686D02*
X233818D01*
X233016Y180983D01*
X232403Y180369D01*
X232071Y179568D01*
Y178700D01*
X232403Y177898D01*
X233016Y177285D01*
X233818Y176953D01*
X234686D01*
X235488Y177285D01*
X236101Y177898D01*
X236433Y178700D01*
Y179568D01*
X236101Y180369D01*
X235488Y180983D01*
X234686Y181315D01*
D02*
G37*
G36*
X461067Y181334D02*
X460192D01*
X459384Y180999D01*
X458765Y180380D01*
X458430Y179571D01*
Y178696D01*
X458765Y177888D01*
X459384Y177269D01*
X460192Y176934D01*
X461067D01*
X461876Y177269D01*
X462495Y177888D01*
X462830Y178696D01*
Y179571D01*
X462495Y180380D01*
X461876Y180999D01*
X461067Y181334D01*
D02*
G37*
G36*
X134038Y184291D02*
X132961D01*
X131921Y184012D01*
X130988Y183473D01*
X130227Y182712D01*
X129688Y181779D01*
X129409Y180738D01*
Y179662D01*
X129688Y178621D01*
X130227Y177688D01*
X130988Y176927D01*
X131921Y176388D01*
X132961Y176109D01*
X134038D01*
X135079Y176388D01*
X136012Y176927D01*
X136773Y177688D01*
X137312Y178621D01*
X137591Y179662D01*
Y180738D01*
X137312Y181779D01*
X136773Y182712D01*
X136012Y183473D01*
X135079Y184012D01*
X134038Y184291D01*
D02*
G37*
G36*
X491438Y178200D02*
X490562D01*
X489754Y177865D01*
X489135Y177246D01*
X488800Y176438D01*
Y175562D01*
X489135Y174754D01*
X489754Y174135D01*
X490562Y173800D01*
X491438D01*
X492246Y174135D01*
X492865Y174754D01*
X493200Y175562D01*
Y176438D01*
X492865Y177246D01*
X492246Y177865D01*
X491438Y178200D01*
D02*
G37*
G36*
X489607Y167535D02*
X488739D01*
X487938Y167203D01*
X487324Y166590D01*
X486992Y165788D01*
Y164920D01*
X487324Y164119D01*
X487938Y163505D01*
X488739Y163173D01*
X489607D01*
X490409Y163505D01*
X491022Y164119D01*
X491354Y164920D01*
Y165788D01*
X491022Y166590D01*
X490409Y167203D01*
X489607Y167535D01*
D02*
G37*
G36*
X475828D02*
X474960D01*
X474158Y167203D01*
X473545Y166590D01*
X473213Y165788D01*
Y164920D01*
X473545Y164119D01*
X474158Y163505D01*
X474960Y163173D01*
X475828D01*
X476629Y163505D01*
X477243Y164119D01*
X477575Y164920D01*
Y165788D01*
X477243Y166590D01*
X476629Y167203D01*
X475828Y167535D01*
D02*
G37*
G36*
X255355D02*
X254487D01*
X253686Y167203D01*
X253072Y166590D01*
X252740Y165788D01*
Y164920D01*
X253072Y164119D01*
X253686Y163505D01*
X254487Y163173D01*
X255355D01*
X256157Y163505D01*
X256770Y164119D01*
X257102Y164920D01*
Y165788D01*
X256770Y166590D01*
X256157Y167203D01*
X255355Y167535D01*
D02*
G37*
G36*
X241576D02*
X240708D01*
X239906Y167203D01*
X239293Y166590D01*
X238961Y165788D01*
Y164920D01*
X239293Y164119D01*
X239906Y163505D01*
X240708Y163173D01*
X241576D01*
X242377Y163505D01*
X242991Y164119D01*
X243323Y164920D01*
Y165788D01*
X242991Y166590D01*
X242377Y167203D01*
X241576Y167535D01*
D02*
G37*
G36*
X145119D02*
X144251D01*
X143450Y167203D01*
X142836Y166590D01*
X142504Y165788D01*
Y164920D01*
X142836Y164119D01*
X143450Y163505D01*
X144251Y163173D01*
X145119D01*
X145921Y163505D01*
X146534Y164119D01*
X146866Y164920D01*
Y165788D01*
X146534Y166590D01*
X145921Y167203D01*
X145119Y167535D01*
D02*
G37*
G36*
X117560D02*
X116692D01*
X115891Y167203D01*
X115277Y166590D01*
X114945Y165788D01*
Y164920D01*
X115277Y164119D01*
X115891Y163505D01*
X116692Y163173D01*
X117560D01*
X118361Y163505D01*
X118975Y164119D01*
X119307Y164920D01*
Y165788D01*
X118975Y166590D01*
X118361Y167203D01*
X117560Y167535D01*
D02*
G37*
G36*
X277997Y163617D02*
X277121D01*
X276313Y163282D01*
X275694Y162663D01*
X275359Y161855D01*
Y160980D01*
X275694Y160171D01*
X276313Y159552D01*
X277121Y159217D01*
X277997D01*
X278805Y159552D01*
X279424Y160171D01*
X279759Y160980D01*
Y161855D01*
X279424Y162663D01*
X278805Y163282D01*
X277997Y163617D01*
D02*
G37*
G36*
X267438Y163200D02*
X266562D01*
X265754Y162865D01*
X265135Y162246D01*
X264800Y161438D01*
Y160562D01*
X265135Y159754D01*
X265754Y159135D01*
X266562Y158800D01*
X267438D01*
X268246Y159135D01*
X268865Y159754D01*
X269200Y160562D01*
Y161438D01*
X268865Y162246D01*
X268246Y162865D01*
X267438Y163200D01*
D02*
G37*
G36*
X281934Y160433D02*
X281058D01*
X280250Y160098D01*
X279631Y159479D01*
X279296Y158671D01*
Y157796D01*
X279631Y156987D01*
X280250Y156368D01*
X281058Y156033D01*
X281934D01*
X282742Y156368D01*
X283361Y156987D01*
X283696Y157796D01*
Y158671D01*
X283361Y159479D01*
X282742Y160098D01*
X281934Y160433D01*
D02*
G37*
G36*
X248465Y153756D02*
X247598D01*
X246796Y153424D01*
X246182Y152810D01*
X245850Y152009D01*
Y151141D01*
X246182Y150339D01*
X246796Y149726D01*
X247598Y149394D01*
X248465D01*
X249267Y149726D01*
X249881Y150339D01*
X250213Y151141D01*
Y152009D01*
X249881Y152810D01*
X249267Y153424D01*
X248465Y153756D01*
D02*
G37*
G36*
X234686D02*
X233818D01*
X233016Y153424D01*
X232403Y152810D01*
X232071Y152009D01*
Y151141D01*
X232403Y150339D01*
X233016Y149726D01*
X233818Y149394D01*
X234686D01*
X235488Y149726D01*
X236101Y150339D01*
X236433Y151141D01*
Y152009D01*
X236101Y152810D01*
X235488Y153424D01*
X234686Y153756D01*
D02*
G37*
G36*
X152009D02*
X151141D01*
X150339Y153424D01*
X149726Y152810D01*
X149394Y152009D01*
Y151141D01*
X149726Y150339D01*
X150339Y149726D01*
X151141Y149394D01*
X152009D01*
X152810Y149726D01*
X153424Y150339D01*
X153756Y151141D01*
Y152009D01*
X153424Y152810D01*
X152810Y153424D01*
X152009Y153756D01*
D02*
G37*
G36*
X124450D02*
X123582D01*
X122780Y153424D01*
X122167Y152810D01*
X121835Y152009D01*
Y151141D01*
X122167Y150339D01*
X122780Y149726D01*
X123582Y149394D01*
X124450D01*
X125251Y149726D01*
X125865Y150339D01*
X126197Y151141D01*
Y152009D01*
X125865Y152810D01*
X125251Y153424D01*
X124450Y153756D01*
D02*
G37*
G36*
X236658Y149085D02*
X235783D01*
X234974Y148750D01*
X234355Y148131D01*
X234020Y147323D01*
Y146447D01*
X234355Y145639D01*
X234974Y145020D01*
X235783Y144685D01*
X236658D01*
X237467Y145020D01*
X238086Y145639D01*
X238421Y146447D01*
Y147323D01*
X238086Y148131D01*
X237467Y148750D01*
X236658Y149085D01*
D02*
G37*
G36*
X138229Y153756D02*
X137361D01*
X136560Y153424D01*
X135946Y152810D01*
X135614Y152009D01*
Y151141D01*
X135946Y150339D01*
X136560Y149726D01*
X137079Y149511D01*
X137079Y148970D01*
X136549Y148750D01*
X135930Y148131D01*
X135595Y147323D01*
Y146447D01*
X135930Y145639D01*
X136549Y145020D01*
X137358Y144685D01*
X138233D01*
X139041Y145020D01*
X139660Y145639D01*
X139995Y146447D01*
Y147323D01*
X139660Y148131D01*
X139041Y148750D01*
X138512Y148970D01*
X138512Y149511D01*
X139031Y149726D01*
X139644Y150339D01*
X139976Y151141D01*
Y152009D01*
X139644Y152810D01*
X139031Y153424D01*
X138229Y153756D01*
D02*
G37*
G36*
X249453Y145901D02*
X248578D01*
X247769Y145566D01*
X247151Y144947D01*
X246816Y144138D01*
Y143263D01*
X247151Y142455D01*
X247769Y141836D01*
X248578Y141501D01*
X249453D01*
X250262Y141836D01*
X250881Y142455D01*
X251216Y143263D01*
Y144138D01*
X250881Y144947D01*
X250262Y145566D01*
X249453Y145901D01*
D02*
G37*
G36*
X124453D02*
X123578D01*
X122770Y145566D01*
X122151Y144947D01*
X121816Y144138D01*
Y143263D01*
X122151Y142455D01*
X122546Y142059D01*
X122716Y141732D01*
X122546Y141406D01*
X122151Y141010D01*
X121816Y140201D01*
Y139326D01*
X122151Y138518D01*
X122770Y137899D01*
X123578Y137564D01*
X124453D01*
X125262Y137899D01*
X125881Y138518D01*
X126216Y139326D01*
Y140201D01*
X125881Y141010D01*
X125485Y141406D01*
X125316Y141732D01*
X125485Y142059D01*
X125881Y142455D01*
X126216Y143263D01*
Y144138D01*
X125881Y144947D01*
X125262Y145566D01*
X124453Y145901D01*
D02*
G37*
G36*
X266438Y139532D02*
X265562D01*
X264754Y139197D01*
X264135Y138578D01*
X263800Y137770D01*
Y136895D01*
X264135Y136086D01*
X264754Y135467D01*
X265562Y135132D01*
X266438D01*
X267246Y135467D01*
X267865Y136086D01*
X268200Y136895D01*
Y137770D01*
X267865Y138578D01*
X267246Y139197D01*
X266438Y139532D01*
D02*
G37*
G36*
X272342Y139411D02*
X271466D01*
X270658Y139076D01*
X270039Y138457D01*
X269704Y137649D01*
Y136774D01*
X270039Y135965D01*
X270658Y135346D01*
X271466Y135011D01*
X272342D01*
X273150Y135346D01*
X273769Y135965D01*
X274104Y136774D01*
Y137649D01*
X273769Y138457D01*
X273150Y139076D01*
X272342Y139411D01*
D02*
G37*
G36*
X134296Y130153D02*
X133421D01*
X132612Y129818D01*
X131993Y129199D01*
X131658Y128390D01*
Y127515D01*
X131993Y126707D01*
X132612Y126088D01*
X133421Y125753D01*
X134296D01*
X135105Y126088D01*
X135723Y126707D01*
X136058Y127515D01*
Y128390D01*
X135723Y129199D01*
X135105Y129818D01*
X134296Y130153D01*
D02*
G37*
G36*
X165788Y126197D02*
X164920D01*
X164119Y125865D01*
X163505Y125251D01*
X163173Y124450D01*
Y123582D01*
X163505Y122780D01*
X164119Y122167D01*
X164920Y121835D01*
X165788D01*
X166590Y122167D01*
X167203Y122780D01*
X167535Y123582D01*
Y124450D01*
X167203Y125251D01*
X166590Y125865D01*
X165788Y126197D01*
D02*
G37*
G36*
X124450D02*
X123582D01*
X122780Y125865D01*
X122167Y125251D01*
X121835Y124450D01*
Y123582D01*
X122167Y122780D01*
X122780Y122167D01*
X123582Y121835D01*
X124450D01*
X125251Y122167D01*
X125865Y122780D01*
X126197Y123582D01*
Y124450D01*
X125865Y125251D01*
X125251Y125865D01*
X124450Y126197D01*
D02*
G37*
G36*
X262245D02*
X261377D01*
X260576Y125865D01*
X259962Y125251D01*
X259630Y124450D01*
Y123582D01*
X259962Y122780D01*
X260494Y122248D01*
X260465Y121889D01*
X260390Y121702D01*
X259679Y121512D01*
X258746Y120973D01*
X257985Y120212D01*
X257446Y119279D01*
X257167Y118238D01*
Y117162D01*
X257446Y116121D01*
X257985Y115188D01*
X258746Y114427D01*
X259679Y113888D01*
X260719Y113609D01*
X261796D01*
X262837Y113888D01*
X263770Y114427D01*
X264531Y115188D01*
X265070Y116121D01*
X265349Y117162D01*
Y118238D01*
X265070Y119279D01*
X264531Y120212D01*
X263770Y120973D01*
X262837Y121512D01*
X262797Y121522D01*
X262763Y122049D01*
X263047Y122167D01*
X263660Y122780D01*
X263992Y123582D01*
Y124450D01*
X263660Y125251D01*
X263047Y125865D01*
X262245Y126197D01*
D02*
G37*
G36*
X249417Y121791D02*
X248340D01*
X247300Y121512D01*
X246367Y120973D01*
X245606Y120212D01*
X245067Y119279D01*
X244788Y118238D01*
Y117162D01*
X245067Y116121D01*
X245606Y115188D01*
X246367Y114427D01*
X247300Y113888D01*
X248340Y113609D01*
X249417D01*
X250458Y113888D01*
X251391Y114427D01*
X252152Y115188D01*
X252691Y116121D01*
X252970Y117162D01*
Y118238D01*
X252691Y119279D01*
X252152Y120212D01*
X251391Y120973D01*
X250458Y121512D01*
X249417Y121791D01*
D02*
G37*
G36*
X236842D02*
X235765D01*
X234724Y121512D01*
X233791Y120973D01*
X233030Y120212D01*
X232491Y119279D01*
X232212Y118238D01*
Y117162D01*
X232491Y116121D01*
X233030Y115188D01*
X233791Y114427D01*
X234724Y113888D01*
X235765Y113609D01*
X236842D01*
X237882Y113888D01*
X238815Y114427D01*
X239576Y115188D01*
X240115Y116121D01*
X240394Y117162D01*
Y118238D01*
X240115Y119279D01*
X239576Y120212D01*
X238815Y120973D01*
X237882Y121512D01*
X236842Y121791D01*
D02*
G37*
G36*
X170814D02*
X169737D01*
X168697Y121512D01*
X167764Y120973D01*
X167002Y120212D01*
X166464Y119279D01*
X166185Y118238D01*
Y117162D01*
X166464Y116121D01*
X167002Y115188D01*
X167764Y114427D01*
X168697Y113888D01*
X169737Y113609D01*
X170814D01*
X171854Y113888D01*
X172787Y114427D01*
X173549Y115188D01*
X174087Y116121D01*
X174366Y117162D01*
Y118238D01*
X174087Y119279D01*
X173549Y120212D01*
X172787Y120973D01*
X171854Y121512D01*
X170814Y121791D01*
D02*
G37*
G36*
X269135Y112417D02*
X268267D01*
X267465Y112085D01*
X266852Y111472D01*
X266520Y110670D01*
Y109802D01*
X266852Y109001D01*
X267465Y108387D01*
X268267Y108055D01*
X269135D01*
X269936Y108387D01*
X270550Y109001D01*
X270882Y109802D01*
Y110670D01*
X270550Y111472D01*
X269936Y112085D01*
X269135Y112417D01*
D02*
G37*
G36*
X255355D02*
X254487D01*
X253686Y112085D01*
X253072Y111472D01*
X252740Y110670D01*
Y109802D01*
X253072Y109001D01*
X253686Y108387D01*
X254487Y108055D01*
X255355D01*
X256157Y108387D01*
X256770Y109001D01*
X257102Y109802D01*
Y110670D01*
X256770Y111472D01*
X256157Y112085D01*
X255355Y112417D01*
D02*
G37*
G36*
X241576D02*
X240708D01*
X239906Y112085D01*
X239293Y111472D01*
X238961Y110670D01*
Y109802D01*
X239293Y109001D01*
X239906Y108387D01*
X240708Y108055D01*
X241576D01*
X242377Y108387D01*
X242991Y109001D01*
X243323Y109802D01*
Y110670D01*
X242991Y111472D01*
X242377Y112085D01*
X241576Y112417D01*
D02*
G37*
G36*
X227796D02*
X226928D01*
X226127Y112085D01*
X225513Y111472D01*
X225181Y110670D01*
Y109802D01*
X225513Y109001D01*
X226127Y108387D01*
X226928Y108055D01*
X227796D01*
X228598Y108387D01*
X229211Y109001D01*
X229543Y109802D01*
Y110670D01*
X229211Y111472D01*
X228598Y112085D01*
X227796Y112417D01*
D02*
G37*
G36*
X172678D02*
X171810D01*
X171009Y112085D01*
X170395Y111472D01*
X170063Y110670D01*
Y109802D01*
X170395Y109001D01*
X171009Y108387D01*
X171810Y108055D01*
X172678D01*
X173480Y108387D01*
X174093Y109001D01*
X174425Y109802D01*
Y110670D01*
X174093Y111472D01*
X173480Y112085D01*
X172678Y112417D01*
D02*
G37*
G36*
X145119D02*
X144251D01*
X143450Y112085D01*
X142836Y111472D01*
X142504Y110670D01*
Y109802D01*
X142836Y109001D01*
X143450Y108387D01*
X144251Y108055D01*
X145119D01*
X145921Y108387D01*
X146534Y109001D01*
X146866Y109802D01*
Y110670D01*
X146534Y111472D01*
X145921Y112085D01*
X145119Y112417D01*
D02*
G37*
G36*
X117560D02*
X116692D01*
X115891Y112085D01*
X115277Y111472D01*
X114945Y110670D01*
Y109802D01*
X115277Y109001D01*
X115891Y108387D01*
X116692Y108055D01*
X117560D01*
X118361Y108387D01*
X118975Y109001D01*
X119307Y109802D01*
Y110670D01*
X118975Y111472D01*
X118361Y112085D01*
X117560Y112417D01*
D02*
G37*
G36*
X248465Y98638D02*
X247598D01*
X246796Y98306D01*
X246182Y97692D01*
X245850Y96891D01*
Y96023D01*
X246182Y95221D01*
X246796Y94608D01*
X247598Y94276D01*
X248465D01*
X249267Y94608D01*
X249881Y95221D01*
X250213Y96023D01*
Y96891D01*
X249881Y97692D01*
X249267Y98306D01*
X248465Y98638D01*
D02*
G37*
G36*
X234686D02*
X233818D01*
X233016Y98306D01*
X232403Y97692D01*
X232071Y96891D01*
Y96023D01*
X232403Y95221D01*
X233016Y94608D01*
X233818Y94276D01*
X234686D01*
X235488Y94608D01*
X236101Y95221D01*
X236433Y96023D01*
Y96891D01*
X236101Y97692D01*
X235488Y98306D01*
X234686Y98638D01*
D02*
G37*
G36*
X165788D02*
X164920D01*
X164119Y98306D01*
X163505Y97692D01*
X163173Y96891D01*
Y96023D01*
X163505Y95221D01*
X164119Y94608D01*
X164920Y94276D01*
X165788D01*
X166590Y94608D01*
X167203Y95221D01*
X167535Y96023D01*
Y96891D01*
X167203Y97692D01*
X166590Y98306D01*
X165788Y98638D01*
D02*
G37*
G36*
X152009D02*
X151141D01*
X150339Y98306D01*
X149726Y97692D01*
X149394Y96891D01*
Y96023D01*
X149726Y95221D01*
X150339Y94608D01*
X151141Y94276D01*
X152009D01*
X152810Y94608D01*
X153424Y95221D01*
X153756Y96023D01*
Y96891D01*
X153424Y97692D01*
X152810Y98306D01*
X152009Y98638D01*
D02*
G37*
G36*
X117560Y84858D02*
X116692D01*
X115891Y84526D01*
X115277Y83913D01*
X114945Y83111D01*
Y82243D01*
X115277Y81442D01*
X115891Y80828D01*
X116692Y80496D01*
X117560D01*
X118361Y80828D01*
X118975Y81442D01*
X119307Y82243D01*
Y83111D01*
X118975Y83913D01*
X118361Y84526D01*
X117560Y84858D01*
D02*
G37*
G36*
X277997Y84877D02*
X277121D01*
X276313Y84542D01*
X275694Y83923D01*
X275359Y83115D01*
Y82240D01*
X275694Y81431D01*
X276313Y80812D01*
X277121Y80477D01*
X277997D01*
X278805Y80812D01*
X279424Y81431D01*
X279759Y82240D01*
Y83115D01*
X279424Y83923D01*
X278805Y84542D01*
X277997Y84877D01*
D02*
G37*
G36*
X153981D02*
X153106D01*
X152297Y84542D01*
X151678Y83923D01*
X151343Y83115D01*
Y82240D01*
X151678Y81431D01*
X152297Y80812D01*
X153106Y80477D01*
X153981D01*
X154789Y80812D01*
X155408Y81431D01*
X155743Y82240D01*
Y83115D01*
X155408Y83923D01*
X154789Y84542D01*
X153981Y84877D01*
D02*
G37*
G36*
X138233D02*
X137358D01*
X136549Y84542D01*
X135930Y83923D01*
X135595Y83115D01*
Y82240D01*
X135930Y81431D01*
X136549Y80812D01*
X137358Y80477D01*
X138233D01*
X139041Y80812D01*
X139660Y81431D01*
X139995Y82240D01*
Y83115D01*
X139660Y83923D01*
X139041Y84542D01*
X138233Y84877D01*
D02*
G37*
G36*
X281934Y80940D02*
X281058D01*
X280250Y80605D01*
X279631Y79986D01*
X279296Y79178D01*
Y78303D01*
X279631Y77494D01*
X280250Y76875D01*
X281058Y76540D01*
X281934D01*
X282742Y76875D01*
X283361Y77494D01*
X283696Y78303D01*
Y79178D01*
X283361Y79986D01*
X282742Y80605D01*
X281934Y80940D01*
D02*
G37*
G36*
X165788Y71079D02*
X164920D01*
X164119Y70747D01*
X163505Y70133D01*
X163173Y69332D01*
Y68464D01*
X163505Y67662D01*
X164119Y67049D01*
X164920Y66716D01*
X165788D01*
X166590Y67049D01*
X167203Y67662D01*
X167535Y68464D01*
Y69332D01*
X167203Y70133D01*
X166590Y70747D01*
X165788Y71079D01*
D02*
G37*
G36*
X110670D02*
X109802D01*
X109001Y70747D01*
X108387Y70133D01*
X108055Y69332D01*
Y68464D01*
X108387Y67662D01*
X109001Y67049D01*
X109802Y66716D01*
X110670D01*
X111472Y67049D01*
X112085Y67662D01*
X112417Y68464D01*
Y69332D01*
X112085Y70133D01*
X111472Y70747D01*
X110670Y71079D01*
D02*
G37*
G36*
X172678Y57299D02*
X171810D01*
X171009Y56967D01*
X170395Y56354D01*
X170063Y55552D01*
Y54684D01*
X170395Y53883D01*
X171009Y53269D01*
X171810Y52937D01*
X172678D01*
X173480Y53269D01*
X174093Y53883D01*
X174425Y54684D01*
Y55552D01*
X174093Y56354D01*
X173480Y56967D01*
X172678Y57299D01*
D02*
G37*
G36*
X158898D02*
X158031D01*
X157229Y56967D01*
X156615Y56354D01*
X156283Y55552D01*
Y54684D01*
X156615Y53883D01*
X157229Y53269D01*
X158031Y52937D01*
X158898D01*
X159700Y53269D01*
X160314Y53883D01*
X160646Y54684D01*
Y55552D01*
X160314Y56354D01*
X159700Y56967D01*
X158898Y57299D01*
D02*
G37*
G36*
X145119D02*
X144251D01*
X143450Y56967D01*
X142836Y56354D01*
X142504Y55552D01*
Y54684D01*
X142836Y53883D01*
X143450Y53269D01*
X144251Y52937D01*
X145119D01*
X145921Y53269D01*
X146534Y53883D01*
X146866Y54684D01*
Y55552D01*
X146534Y56354D01*
X145921Y56967D01*
X145119Y57299D01*
D02*
G37*
G36*
X131339D02*
X130472D01*
X129670Y56967D01*
X129057Y56354D01*
X128724Y55552D01*
Y54684D01*
X129057Y53883D01*
X129670Y53269D01*
X130472Y52937D01*
X131339D01*
X132141Y53269D01*
X132755Y53883D01*
X133087Y54684D01*
Y55552D01*
X132755Y56354D01*
X132141Y56967D01*
X131339Y57299D01*
D02*
G37*
G36*
X117560D02*
X116692D01*
X115891Y56967D01*
X115277Y56354D01*
X114945Y55552D01*
Y54684D01*
X115277Y53883D01*
X115891Y53269D01*
X116692Y52937D01*
X117560D01*
X118361Y53269D01*
X118975Y53883D01*
X119307Y54684D01*
Y55552D01*
X118975Y56354D01*
X118361Y56967D01*
X117560Y57299D01*
D02*
G37*
G36*
X214017Y112417D02*
X213149D01*
X212347Y112085D01*
X211734Y111472D01*
X211402Y110670D01*
Y109802D01*
X211734Y109001D01*
X212347Y108387D01*
X213149Y108055D01*
X214017D01*
X214818Y108387D01*
X215432Y109001D01*
X215764Y109802D01*
Y110670D01*
X215432Y111472D01*
X214818Y112085D01*
X214017Y112417D01*
D02*
G37*
G36*
X200237D02*
X199369D01*
X198568Y112085D01*
X197954Y111472D01*
X197622Y110670D01*
Y109802D01*
X197954Y109001D01*
X198568Y108387D01*
X199369Y108055D01*
X200237D01*
X201039Y108387D01*
X201652Y109001D01*
X201984Y109802D01*
Y110670D01*
X201652Y111472D01*
X201039Y112085D01*
X200237Y112417D01*
D02*
G37*
G36*
X186458D02*
X185590D01*
X184788Y112085D01*
X184175Y111472D01*
X183843Y110670D01*
Y109802D01*
X184175Y109001D01*
X184788Y108387D01*
X185590Y108055D01*
X186458D01*
X187259Y108387D01*
X187873Y109001D01*
X188205Y109802D01*
Y110670D01*
X187873Y111472D01*
X187259Y112085D01*
X186458Y112417D01*
D02*
G37*
G36*
X220906Y98638D02*
X220039D01*
X219237Y98306D01*
X218623Y97692D01*
X218291Y96891D01*
Y96023D01*
X218623Y95221D01*
X219237Y94608D01*
X220039Y94276D01*
X220906D01*
X221708Y94608D01*
X222322Y95221D01*
X222654Y96023D01*
Y96891D01*
X222322Y97692D01*
X221708Y98306D01*
X220906Y98638D01*
D02*
G37*
G36*
X207127D02*
X206259D01*
X205457Y98306D01*
X204844Y97692D01*
X204512Y96891D01*
Y96023D01*
X204844Y95221D01*
X205457Y94608D01*
X206259Y94276D01*
X207127D01*
X207928Y94608D01*
X208542Y95221D01*
X208874Y96023D01*
Y96891D01*
X208542Y97692D01*
X207928Y98306D01*
X207127Y98638D01*
D02*
G37*
G36*
X193347D02*
X192480D01*
X191678Y98306D01*
X191064Y97692D01*
X190732Y96891D01*
Y96023D01*
X191064Y95221D01*
X191678Y94608D01*
X192480Y94276D01*
X193347D01*
X194149Y94608D01*
X194763Y95221D01*
X195095Y96023D01*
Y96891D01*
X194763Y97692D01*
X194149Y98306D01*
X193347Y98638D01*
D02*
G37*
G36*
X220906Y71079D02*
X220039D01*
X219237Y70747D01*
X218623Y70133D01*
X218291Y69332D01*
Y68464D01*
X218623Y67662D01*
X219237Y67049D01*
X220039Y66716D01*
X220906D01*
X221708Y67049D01*
X222322Y67662D01*
X222654Y68464D01*
Y69332D01*
X222322Y70133D01*
X221708Y70747D01*
X220906Y71079D01*
D02*
G37*
G36*
X207127D02*
X206259D01*
X205457Y70747D01*
X204844Y70133D01*
X204512Y69332D01*
Y68464D01*
X204844Y67662D01*
X205457Y67049D01*
X206259Y66716D01*
X207127D01*
X207928Y67049D01*
X208542Y67662D01*
X208874Y68464D01*
Y69332D01*
X208542Y70133D01*
X207928Y70747D01*
X207127Y71079D01*
D02*
G37*
G36*
X193347D02*
X192480D01*
X191678Y70747D01*
X191064Y70133D01*
X190732Y69332D01*
Y68464D01*
X191064Y67662D01*
X191678Y67049D01*
X192480Y66716D01*
X193347D01*
X194149Y67049D01*
X194763Y67662D01*
X195095Y68464D01*
Y69332D01*
X194763Y70133D01*
X194149Y70747D01*
X193347Y71079D01*
D02*
G37*
G36*
X584447Y61828D02*
X583572D01*
X582763Y61493D01*
X582145Y60874D01*
X581810Y60065D01*
Y59190D01*
X582145Y58381D01*
X582763Y57763D01*
X583572Y57428D01*
X584447D01*
X585256Y57763D01*
X585875Y58381D01*
X586210Y59190D01*
Y60065D01*
X585875Y60874D01*
X585256Y61493D01*
X584447Y61828D01*
D02*
G37*
G36*
X613623Y57299D02*
X612755D01*
X611954Y56967D01*
X611340Y56354D01*
X611008Y55552D01*
Y54684D01*
X611340Y53883D01*
X611954Y53269D01*
X612755Y52937D01*
X613623D01*
X614425Y53269D01*
X615038Y53883D01*
X615370Y54684D01*
Y55552D01*
X615038Y56354D01*
X614425Y56967D01*
X613623Y57299D01*
D02*
G37*
G36*
X599843D02*
X598976D01*
X598174Y56967D01*
X597561Y56354D01*
X597228Y55552D01*
Y54684D01*
X597561Y53883D01*
X598174Y53269D01*
X598976Y52937D01*
X599843D01*
X600645Y53269D01*
X601259Y53883D01*
X601591Y54684D01*
Y55552D01*
X601259Y56354D01*
X600645Y56967D01*
X599843Y57299D01*
D02*
G37*
G36*
X558505D02*
X557637D01*
X556836Y56967D01*
X556222Y56354D01*
X555890Y55552D01*
Y54684D01*
X556222Y53883D01*
X556836Y53269D01*
X557637Y52937D01*
X558505D01*
X559306Y53269D01*
X559920Y53883D01*
X560252Y54684D01*
Y55552D01*
X559920Y56354D01*
X559306Y56967D01*
X558505Y57299D01*
D02*
G37*
G36*
X544725D02*
X543858D01*
X543056Y56967D01*
X542442Y56354D01*
X542110Y55552D01*
Y54684D01*
X542442Y53883D01*
X543056Y53269D01*
X543858Y52937D01*
X544725D01*
X545527Y53269D01*
X546140Y53883D01*
X546473Y54684D01*
Y55552D01*
X546140Y56354D01*
X545527Y56967D01*
X544725Y57299D01*
D02*
G37*
G36*
X530946D02*
X530078D01*
X529276Y56967D01*
X528663Y56354D01*
X528331Y55552D01*
Y54684D01*
X528663Y53883D01*
X529276Y53269D01*
X530078Y52937D01*
X530946D01*
X531747Y53269D01*
X532361Y53883D01*
X532693Y54684D01*
Y55552D01*
X532361Y56354D01*
X531747Y56967D01*
X530946Y57299D01*
D02*
G37*
G36*
X214017D02*
X213149D01*
X212347Y56967D01*
X211734Y56354D01*
X211402Y55552D01*
Y54684D01*
X211734Y53883D01*
X212347Y53269D01*
X213149Y52937D01*
X214017D01*
X214818Y53269D01*
X215432Y53883D01*
X215764Y54684D01*
Y55552D01*
X215432Y56354D01*
X214818Y56967D01*
X214017Y57299D01*
D02*
G37*
G36*
X200237D02*
X199369D01*
X198568Y56967D01*
X197954Y56354D01*
X197622Y55552D01*
Y54684D01*
X197954Y53883D01*
X198568Y53269D01*
X199369Y52937D01*
X200237D01*
X201039Y53269D01*
X201652Y53883D01*
X201984Y54684D01*
Y55552D01*
X201652Y56354D01*
X201039Y56967D01*
X200237Y57299D01*
D02*
G37*
G36*
X186458D02*
X185590D01*
X184788Y56967D01*
X184175Y56354D01*
X183843Y55552D01*
Y54684D01*
X184175Y53883D01*
X184788Y53269D01*
X185590Y52937D01*
X186458D01*
X187259Y53269D01*
X187873Y53883D01*
X188205Y54684D01*
Y55552D01*
X187873Y56354D01*
X187259Y56967D01*
X186458Y57299D01*
D02*
G37*
G36*
X648072Y43520D02*
X647204D01*
X646402Y43188D01*
X645789Y42574D01*
X645457Y41772D01*
Y40905D01*
X645789Y40103D01*
X646402Y39489D01*
X647204Y39158D01*
X648072D01*
X648873Y39489D01*
X649487Y40103D01*
X649819Y40905D01*
Y41772D01*
X649487Y42574D01*
X648873Y43188D01*
X648072Y43520D01*
D02*
G37*
G36*
X634292D02*
X633425D01*
X632623Y43188D01*
X632009Y42574D01*
X631677Y41772D01*
Y40905D01*
X632009Y40103D01*
X632623Y39489D01*
X633425Y39158D01*
X634292D01*
X635094Y39489D01*
X635707Y40103D01*
X636039Y40905D01*
Y41772D01*
X635707Y42574D01*
X635094Y43188D01*
X634292Y43520D01*
D02*
G37*
G36*
X620513D02*
X619645D01*
X618843Y43188D01*
X618230Y42574D01*
X617898Y41772D01*
Y40905D01*
X618230Y40103D01*
X618843Y39489D01*
X619645Y39158D01*
X620513D01*
X621314Y39489D01*
X621928Y40103D01*
X622260Y40905D01*
Y41772D01*
X621928Y42574D01*
X621314Y43188D01*
X620513Y43520D01*
D02*
G37*
G36*
X592954D02*
X592086D01*
X591284Y43188D01*
X590671Y42574D01*
X590339Y41772D01*
Y40905D01*
X590671Y40103D01*
X591284Y39489D01*
X592086Y39158D01*
X592954D01*
X593755Y39489D01*
X594369Y40103D01*
X594701Y40905D01*
Y41772D01*
X594369Y42574D01*
X593755Y43188D01*
X592954Y43520D01*
D02*
G37*
G36*
X579174D02*
X578306D01*
X577505Y43188D01*
X576891Y42574D01*
X576559Y41772D01*
Y40905D01*
X576891Y40103D01*
X577505Y39489D01*
X578306Y39158D01*
X579174D01*
X579976Y39489D01*
X580589Y40103D01*
X580921Y40905D01*
Y41772D01*
X580589Y42574D01*
X579976Y43188D01*
X579174Y43520D01*
D02*
G37*
G36*
X565395D02*
X564527D01*
X563725Y43188D01*
X563112Y42574D01*
X562780Y41772D01*
Y40905D01*
X563112Y40103D01*
X563725Y39489D01*
X564527Y39158D01*
X565395D01*
X566196Y39489D01*
X566810Y40103D01*
X567142Y40905D01*
Y41772D01*
X566810Y42574D01*
X566196Y43188D01*
X565395Y43520D01*
D02*
G37*
G36*
X551615D02*
X550747D01*
X549946Y43188D01*
X549332Y42574D01*
X549000Y41772D01*
Y40905D01*
X549332Y40103D01*
X549946Y39489D01*
X550747Y39158D01*
X551615D01*
X552417Y39489D01*
X553030Y40103D01*
X553362Y40905D01*
Y41772D01*
X553030Y42574D01*
X552417Y43188D01*
X551615Y43520D01*
D02*
G37*
G36*
X537836D02*
X536968D01*
X536166Y43188D01*
X535553Y42574D01*
X535221Y41772D01*
Y40905D01*
X535553Y40103D01*
X536166Y39489D01*
X536968Y39158D01*
X537836D01*
X538637Y39489D01*
X539251Y40103D01*
X539583Y40905D01*
Y41772D01*
X539251Y42574D01*
X538637Y43188D01*
X537836Y43520D01*
D02*
G37*
G36*
X524056D02*
X523188D01*
X522387Y43188D01*
X521773Y42574D01*
X521441Y41772D01*
Y40905D01*
X521773Y40103D01*
X522387Y39489D01*
X523188Y39158D01*
X524056D01*
X524858Y39489D01*
X525471Y40103D01*
X525803Y40905D01*
Y41772D01*
X525471Y42574D01*
X524858Y43188D01*
X524056Y43520D01*
D02*
G37*
G36*
X510277D02*
X509409D01*
X508607Y43188D01*
X507994Y42574D01*
X507661Y41772D01*
Y40905D01*
X507994Y40103D01*
X508607Y39489D01*
X509409Y39158D01*
X510277D01*
X511078Y39489D01*
X511692Y40103D01*
X512024Y40905D01*
Y41772D01*
X511692Y42574D01*
X511078Y43188D01*
X510277Y43520D01*
D02*
G37*
G36*
X164599Y30836D02*
X163731D01*
X162930Y30504D01*
X162316Y29890D01*
X162250Y29730D01*
X161750D01*
X161684Y29890D01*
X161070Y30504D01*
X160269Y30836D01*
X159401D01*
X158599Y30504D01*
X157986Y29890D01*
X157654Y29089D01*
Y28221D01*
X157986Y27419D01*
X158599Y26806D01*
X158759Y26739D01*
Y26239D01*
X158599Y26173D01*
X157986Y25559D01*
X157654Y24758D01*
Y23890D01*
X157986Y23088D01*
X158599Y22475D01*
X158759Y22409D01*
Y21909D01*
X158599Y21842D01*
X157986Y21229D01*
X157654Y20427D01*
Y19559D01*
X157986Y18758D01*
X158599Y18144D01*
X159401Y17812D01*
X160269D01*
X161070Y18144D01*
X161684Y18758D01*
X161750Y18918D01*
X162250D01*
X162316Y18758D01*
X162930Y18144D01*
X163731Y17812D01*
X164599D01*
X165401Y18144D01*
X166014Y18758D01*
X166346Y19559D01*
Y20427D01*
X166014Y21229D01*
X165401Y21842D01*
X165241Y21909D01*
Y22409D01*
X165401Y22475D01*
X166014Y23088D01*
X166346Y23890D01*
Y24758D01*
X166014Y25559D01*
X165401Y26173D01*
X165241Y26239D01*
Y26739D01*
X165401Y26806D01*
X166014Y27419D01*
X166346Y28221D01*
Y29089D01*
X166014Y29890D01*
X165401Y30504D01*
X164599Y30836D01*
D02*
G37*
G36*
X571887Y35366D02*
X570690D01*
X569535Y35056D01*
X568499Y34458D01*
X567653Y33612D01*
X567055Y32577D01*
X566745Y31421D01*
Y30225D01*
X567055Y29069D01*
X567653Y28033D01*
X568499Y27187D01*
X569535Y26589D01*
X570690Y26280D01*
X571887D01*
X573042Y26589D01*
X574078Y27187D01*
X574924Y28033D01*
X575522Y29069D01*
X575832Y30225D01*
Y31421D01*
X575522Y32577D01*
X574924Y33612D01*
X574078Y34458D01*
X573042Y35056D01*
X571887Y35366D01*
D02*
G37*
G36*
X561887D02*
X560690D01*
X559535Y35056D01*
X558499Y34458D01*
X557653Y33612D01*
X557055Y32577D01*
X556745Y31421D01*
Y30225D01*
X557055Y29069D01*
X557653Y28033D01*
X558499Y27187D01*
X559535Y26589D01*
X560690Y26280D01*
X561887D01*
X563042Y26589D01*
X564078Y27187D01*
X564924Y28033D01*
X565522Y29069D01*
X565832Y30225D01*
Y31421D01*
X565522Y32577D01*
X564924Y33612D01*
X564078Y34458D01*
X563042Y35056D01*
X561887Y35366D01*
D02*
G37*
G36*
X551887D02*
X550690D01*
X549535Y35056D01*
X548499Y34458D01*
X547653Y33612D01*
X547055Y32577D01*
X546745Y31421D01*
Y30225D01*
X547055Y29069D01*
X547653Y28033D01*
X548499Y27187D01*
X549535Y26589D01*
X550690Y26280D01*
X551887D01*
X553042Y26589D01*
X554078Y27187D01*
X554924Y28033D01*
X555522Y29069D01*
X555832Y30225D01*
Y31421D01*
X555522Y32577D01*
X554924Y33612D01*
X554078Y34458D01*
X553042Y35056D01*
X551887Y35366D01*
D02*
G37*
G36*
X541414D02*
X540218D01*
X539062Y35056D01*
X538026Y34458D01*
X537181Y33612D01*
X536582Y32577D01*
X536273Y31421D01*
Y30225D01*
X536582Y29069D01*
X537181Y28033D01*
X538026Y27187D01*
X539062Y26589D01*
X540218Y26280D01*
X541414D01*
X542570Y26589D01*
X543606Y27187D01*
X544452Y28033D01*
X545050Y29069D01*
X545359Y30225D01*
Y31421D01*
X545050Y32577D01*
X544452Y33612D01*
X543606Y34458D01*
X542570Y35056D01*
X541414Y35366D01*
D02*
G37*
G36*
X531414D02*
X530218D01*
X529062Y35056D01*
X528026Y34458D01*
X527180Y33612D01*
X526582Y32577D01*
X526273Y31421D01*
Y30225D01*
X526582Y29069D01*
X527180Y28033D01*
X528026Y27187D01*
X529062Y26589D01*
X530218Y26280D01*
X531414D01*
X532570Y26589D01*
X533606Y27187D01*
X534452Y28033D01*
X535050Y29069D01*
X535359Y30225D01*
Y31421D01*
X535050Y32577D01*
X534452Y33612D01*
X533606Y34458D01*
X532570Y35056D01*
X531414Y35366D01*
D02*
G37*
G36*
X521414D02*
X520218D01*
X519062Y35056D01*
X518026Y34458D01*
X517180Y33612D01*
X516582Y32577D01*
X516273Y31421D01*
Y30225D01*
X516376Y29841D01*
X516298Y29740D01*
X515497Y29408D01*
X514883Y28795D01*
X514551Y27993D01*
Y27125D01*
X514883Y26324D01*
X515497Y25710D01*
X516298Y25378D01*
X517166D01*
X517968Y25710D01*
X518581Y26324D01*
X518631Y26443D01*
X519062Y26589D01*
X520218Y26280D01*
X521414D01*
X522570Y26589D01*
X523606Y27187D01*
X524452Y28033D01*
X525050Y29069D01*
X525359Y30225D01*
Y31421D01*
X525050Y32577D01*
X524452Y33612D01*
X523606Y34458D01*
X522570Y35056D01*
X521414Y35366D01*
D02*
G37*
G36*
X654961Y29740D02*
X654094D01*
X653292Y29408D01*
X652679Y28795D01*
X652347Y27993D01*
Y27125D01*
X652679Y26324D01*
X653292Y25710D01*
X654094Y25378D01*
X654961D01*
X655763Y25710D01*
X656377Y26324D01*
X656709Y27125D01*
Y27993D01*
X656377Y28795D01*
X655763Y29408D01*
X654961Y29740D01*
D02*
G37*
G36*
X613623D02*
X612755D01*
X611954Y29408D01*
X611340Y28795D01*
X611008Y27993D01*
Y27125D01*
X611340Y26324D01*
X611954Y25710D01*
X612755Y25378D01*
X613623D01*
X614425Y25710D01*
X615038Y26324D01*
X615370Y27125D01*
Y27993D01*
X615038Y28795D01*
X614425Y29408D01*
X613623Y29740D01*
D02*
G37*
G36*
X599843D02*
X598976D01*
X598174Y29408D01*
X597561Y28795D01*
X597228Y27993D01*
Y27125D01*
X597561Y26324D01*
X598174Y25710D01*
X598976Y25378D01*
X599843D01*
X600645Y25710D01*
X601259Y26324D01*
X601591Y27125D01*
Y27993D01*
X601259Y28795D01*
X600645Y29408D01*
X599843Y29740D01*
D02*
G37*
G36*
X586064D02*
X585196D01*
X584395Y29408D01*
X583781Y28795D01*
X583449Y27993D01*
Y27125D01*
X583781Y26324D01*
X584395Y25710D01*
X585196Y25378D01*
X586064D01*
X586866Y25710D01*
X587479Y26324D01*
X587811Y27125D01*
Y27993D01*
X587479Y28795D01*
X586866Y29408D01*
X586064Y29740D01*
D02*
G37*
G36*
X503387D02*
X502519D01*
X501717Y29408D01*
X501104Y28795D01*
X500772Y27993D01*
Y27125D01*
X501104Y26324D01*
X501717Y25710D01*
X502519Y25378D01*
X503387D01*
X504188Y25710D01*
X504802Y26324D01*
X505134Y27125D01*
Y27993D01*
X504802Y28795D01*
X504188Y29408D01*
X503387Y29740D01*
D02*
G37*
G36*
X489607D02*
X488739D01*
X487938Y29408D01*
X487324Y28795D01*
X486992Y27993D01*
Y27125D01*
X487324Y26324D01*
X487938Y25710D01*
X488739Y25378D01*
X489607D01*
X490409Y25710D01*
X491022Y26324D01*
X491354Y27125D01*
Y27993D01*
X491022Y28795D01*
X490409Y29408D01*
X489607Y29740D01*
D02*
G37*
G36*
X475828D02*
X474960D01*
X474158Y29408D01*
X473545Y28795D01*
X473213Y27993D01*
Y27125D01*
X473545Y26324D01*
X474158Y25710D01*
X474960Y25378D01*
X475828D01*
X476629Y25710D01*
X477243Y26324D01*
X477575Y27125D01*
Y27993D01*
X477243Y28795D01*
X476629Y29408D01*
X475828Y29740D01*
D02*
G37*
G36*
X462048D02*
X461180D01*
X460379Y29408D01*
X459765Y28795D01*
X459433Y27993D01*
Y27125D01*
X459765Y26324D01*
X460379Y25710D01*
X461180Y25378D01*
X462048D01*
X462850Y25710D01*
X463463Y26324D01*
X463795Y27125D01*
Y27993D01*
X463463Y28795D01*
X462850Y29408D01*
X462048Y29740D01*
D02*
G37*
G36*
X448269D02*
X447401D01*
X446599Y29408D01*
X445986Y28795D01*
X445654Y27993D01*
Y27125D01*
X445986Y26324D01*
X446599Y25710D01*
X447401Y25378D01*
X448269D01*
X449070Y25710D01*
X449684Y26324D01*
X450016Y27125D01*
Y27993D01*
X449684Y28795D01*
X449070Y29408D01*
X448269Y29740D01*
D02*
G37*
G36*
X434489D02*
X433621D01*
X432820Y29408D01*
X432206Y28795D01*
X431874Y27993D01*
Y27125D01*
X432206Y26324D01*
X432820Y25710D01*
X433621Y25378D01*
X434489D01*
X435291Y25710D01*
X435904Y26324D01*
X436236Y27125D01*
Y27993D01*
X435904Y28795D01*
X435291Y29408D01*
X434489Y29740D01*
D02*
G37*
G36*
X420710D02*
X419842D01*
X419040Y29408D01*
X418427Y28795D01*
X418095Y27993D01*
Y27125D01*
X418427Y26324D01*
X419040Y25710D01*
X419842Y25378D01*
X420710D01*
X421511Y25710D01*
X422125Y26324D01*
X422457Y27125D01*
Y27993D01*
X422125Y28795D01*
X421511Y29408D01*
X420710Y29740D01*
D02*
G37*
G36*
X406930D02*
X406062D01*
X405261Y29408D01*
X404647Y28795D01*
X404315Y27993D01*
Y27125D01*
X404647Y26324D01*
X405261Y25710D01*
X406062Y25378D01*
X406930D01*
X407732Y25710D01*
X408345Y26324D01*
X408677Y27125D01*
Y27993D01*
X408345Y28795D01*
X407732Y29408D01*
X406930Y29740D01*
D02*
G37*
G36*
X393150D02*
X392283D01*
X391481Y29408D01*
X390867Y28795D01*
X390535Y27993D01*
Y27125D01*
X390867Y26324D01*
X391481Y25710D01*
X392283Y25378D01*
X393150D01*
X393952Y25710D01*
X394566Y26324D01*
X394898Y27125D01*
Y27993D01*
X394566Y28795D01*
X393952Y29408D01*
X393150Y29740D01*
D02*
G37*
G36*
X379371D02*
X378503D01*
X377702Y29408D01*
X377088Y28795D01*
X376756Y27993D01*
Y27125D01*
X377088Y26324D01*
X377702Y25710D01*
X378503Y25378D01*
X379371D01*
X380173Y25710D01*
X380786Y26324D01*
X381118Y27125D01*
Y27993D01*
X380786Y28795D01*
X380173Y29408D01*
X379371Y29740D01*
D02*
G37*
G36*
X338032D02*
X337165D01*
X336363Y29408D01*
X335749Y28795D01*
X335417Y27993D01*
Y27125D01*
X335749Y26324D01*
X336363Y25710D01*
X337165Y25378D01*
X338032D01*
X338834Y25710D01*
X339447Y26324D01*
X339780Y27125D01*
Y27993D01*
X339447Y28795D01*
X338834Y29408D01*
X338032Y29740D01*
D02*
G37*
G36*
X214017D02*
X213149D01*
X212347Y29408D01*
X211734Y28795D01*
X211402Y27993D01*
Y27125D01*
X211734Y26324D01*
X212347Y25710D01*
X213149Y25378D01*
X214017D01*
X214818Y25710D01*
X215432Y26324D01*
X215764Y27125D01*
Y27993D01*
X215432Y28795D01*
X214818Y29408D01*
X214017Y29740D01*
D02*
G37*
G36*
X133140Y31585D02*
X132365Y31483D01*
X131643Y31183D01*
X131023Y30708D01*
X130547Y30088D01*
X130248Y29366D01*
X130146Y28591D01*
Y27860D01*
X130248Y27085D01*
X130547Y26363D01*
X131023Y25743D01*
X131883Y24883D01*
X132503Y24407D01*
X133225Y24108D01*
X134000Y24006D01*
X134775Y24108D01*
X135497Y24407D01*
X136117Y24883D01*
X136593Y25503D01*
X136892Y26225D01*
X136994Y27000D01*
X136892Y27775D01*
X136593Y28497D01*
X136117Y29117D01*
X136057Y29177D01*
X136032Y29366D01*
X135733Y30088D01*
X135257Y30708D01*
X134637Y31183D01*
X133915Y31483D01*
X133140Y31585D01*
D02*
G37*
G36*
X369655Y28591D02*
X368578D01*
X367537Y28312D01*
X366604Y27773D01*
X365843Y27012D01*
X365304Y26079D01*
X365026Y25038D01*
Y23961D01*
X365304Y22921D01*
X365843Y21988D01*
X366604Y21227D01*
X367537Y20688D01*
X368578Y20410D01*
X369655D01*
X370695Y20688D01*
X371628Y21227D01*
X372389Y21988D01*
X372928Y22921D01*
X373207Y23961D01*
Y25038D01*
X372928Y26079D01*
X372389Y27012D01*
X371628Y27773D01*
X370695Y28312D01*
X369655Y28591D01*
D02*
G37*
G36*
X497586Y24760D02*
X496509D01*
X495468Y24481D01*
X494536Y23943D01*
X493774Y23181D01*
X493235Y22248D01*
X492957Y21208D01*
Y20131D01*
X493235Y19090D01*
X493774Y18158D01*
X494536Y17396D01*
X495468Y16858D01*
X496509Y16579D01*
X497586D01*
X498626Y16858D01*
X499559Y17396D01*
X500320Y18158D01*
X500859Y19090D01*
X501138Y20131D01*
Y21208D01*
X500859Y22248D01*
X500320Y23181D01*
X499559Y23943D01*
X498626Y24481D01*
X497586Y24760D01*
D02*
G37*
G36*
X571887Y25366D02*
X570690D01*
X569535Y25056D01*
X568499Y24458D01*
X567653Y23613D01*
X567055Y22577D01*
X566745Y21421D01*
Y20225D01*
X567055Y19069D01*
X567653Y18033D01*
X568499Y17187D01*
X569535Y16589D01*
X570690Y16280D01*
X571887D01*
X573042Y16589D01*
X574078Y17187D01*
X574924Y18033D01*
X575522Y19069D01*
X575832Y20225D01*
Y21421D01*
X575522Y22577D01*
X574924Y23613D01*
X574078Y24458D01*
X573042Y25056D01*
X571887Y25366D01*
D02*
G37*
G36*
X561887D02*
X560690D01*
X559535Y25056D01*
X558499Y24458D01*
X557653Y23613D01*
X557055Y22577D01*
X556745Y21421D01*
Y20225D01*
X557055Y19069D01*
X557653Y18033D01*
X558499Y17187D01*
X559535Y16589D01*
X560690Y16280D01*
X561887D01*
X563042Y16589D01*
X564078Y17187D01*
X564924Y18033D01*
X565522Y19069D01*
X565832Y20225D01*
Y21421D01*
X565522Y22577D01*
X564924Y23613D01*
X564078Y24458D01*
X563042Y25056D01*
X561887Y25366D01*
D02*
G37*
G36*
X551887D02*
X550690D01*
X549535Y25056D01*
X548499Y24458D01*
X547653Y23613D01*
X547055Y22577D01*
X546745Y21421D01*
Y20225D01*
X547055Y19069D01*
X547653Y18033D01*
X548499Y17187D01*
X549535Y16589D01*
X550690Y16280D01*
X551887D01*
X553042Y16589D01*
X554078Y17187D01*
X554924Y18033D01*
X555522Y19069D01*
X555832Y20225D01*
Y21421D01*
X555522Y22577D01*
X554924Y23613D01*
X554078Y24458D01*
X553042Y25056D01*
X551887Y25366D01*
D02*
G37*
G36*
X541414D02*
X540218D01*
X539062Y25056D01*
X538026Y24458D01*
X537181Y23613D01*
X536582Y22577D01*
X536273Y21421D01*
Y20225D01*
X536582Y19069D01*
X537181Y18033D01*
X538026Y17187D01*
X539062Y16589D01*
X540218Y16280D01*
X541414D01*
X542570Y16589D01*
X543606Y17187D01*
X544452Y18033D01*
X545050Y19069D01*
X545359Y20225D01*
Y21421D01*
X545050Y22577D01*
X544452Y23613D01*
X543606Y24458D01*
X542570Y25056D01*
X541414Y25366D01*
D02*
G37*
G36*
X531414D02*
X530218D01*
X529062Y25056D01*
X528026Y24458D01*
X527180Y23613D01*
X526582Y22577D01*
X526273Y21421D01*
Y20225D01*
X526582Y19069D01*
X527180Y18033D01*
X528026Y17187D01*
X529062Y16589D01*
X530218Y16280D01*
X531414D01*
X532570Y16589D01*
X533606Y17187D01*
X534452Y18033D01*
X535050Y19069D01*
X535359Y20225D01*
Y21421D01*
X535050Y22577D01*
X534452Y23613D01*
X533606Y24458D01*
X532570Y25056D01*
X531414Y25366D01*
D02*
G37*
G36*
X521414D02*
X520218D01*
X519062Y25056D01*
X518026Y24458D01*
X517180Y23613D01*
X516582Y22577D01*
X516273Y21421D01*
Y20225D01*
X516582Y19069D01*
X517180Y18033D01*
X518026Y17187D01*
X519062Y16589D01*
X520218Y16280D01*
X521414D01*
X522570Y16589D01*
X523606Y17187D01*
X524452Y18033D01*
X525050Y19069D01*
X525359Y20225D01*
Y21421D01*
X525050Y22577D01*
X524452Y23613D01*
X523606Y24458D01*
X522570Y25056D01*
X521414Y25366D01*
D02*
G37*
G36*
X134438Y19024D02*
X133562D01*
X132754Y18689D01*
X132135Y18070D01*
X131800Y17262D01*
Y16386D01*
X132135Y15578D01*
X132754Y14959D01*
X133562Y14624D01*
X134438D01*
X135246Y14959D01*
X135865Y15578D01*
X136200Y16386D01*
Y17262D01*
X135865Y18070D01*
X135246Y18689D01*
X134438Y19024D01*
D02*
G37*
G36*
X648072Y15961D02*
X647204D01*
X646402Y15629D01*
X645789Y15015D01*
X645457Y14213D01*
Y13346D01*
X645789Y12544D01*
X646402Y11930D01*
X647204Y11598D01*
X648072D01*
X648873Y11930D01*
X649487Y12544D01*
X649819Y13346D01*
Y14213D01*
X649487Y15015D01*
X648873Y15629D01*
X648072Y15961D01*
D02*
G37*
G36*
X606733D02*
X605865D01*
X605064Y15629D01*
X604450Y15015D01*
X604118Y14213D01*
Y13346D01*
X604450Y12544D01*
X605064Y11930D01*
X605865Y11598D01*
X606733D01*
X607535Y11930D01*
X608148Y12544D01*
X608480Y13346D01*
Y14213D01*
X608148Y15015D01*
X607535Y15629D01*
X606733Y15961D01*
D02*
G37*
G36*
X592954D02*
X592086D01*
X591284Y15629D01*
X590671Y15015D01*
X590339Y14213D01*
Y13346D01*
X590671Y12544D01*
X591284Y11930D01*
X592086Y11598D01*
X592954D01*
X593755Y11930D01*
X594369Y12544D01*
X594701Y13346D01*
Y14213D01*
X594369Y15015D01*
X593755Y15629D01*
X592954Y15961D01*
D02*
G37*
G36*
X579174D02*
X578306D01*
X577505Y15629D01*
X576891Y15015D01*
X576559Y14213D01*
Y13346D01*
X576891Y12544D01*
X577505Y11930D01*
X578306Y11598D01*
X579174D01*
X579976Y11930D01*
X580589Y12544D01*
X580921Y13346D01*
Y14213D01*
X580589Y15015D01*
X579976Y15629D01*
X579174Y15961D01*
D02*
G37*
G36*
X510277D02*
X509409D01*
X508607Y15629D01*
X507994Y15015D01*
X507661Y14213D01*
Y13346D01*
X507994Y12544D01*
X508607Y11930D01*
X509409Y11598D01*
X510277D01*
X511078Y11930D01*
X511692Y12544D01*
X512024Y13346D01*
Y14213D01*
X511692Y15015D01*
X511078Y15629D01*
X510277Y15961D01*
D02*
G37*
G36*
X496497D02*
X495629D01*
X494828Y15629D01*
X494214Y15015D01*
X493882Y14213D01*
Y13346D01*
X494214Y12544D01*
X494828Y11930D01*
X495629Y11598D01*
X496497D01*
X497299Y11930D01*
X497912Y12544D01*
X498244Y13346D01*
Y14213D01*
X497912Y15015D01*
X497299Y15629D01*
X496497Y15961D01*
D02*
G37*
G36*
X482717D02*
X481850D01*
X481048Y15629D01*
X480435Y15015D01*
X480102Y14213D01*
Y13346D01*
X480435Y12544D01*
X481048Y11930D01*
X481850Y11598D01*
X482717D01*
X483519Y11930D01*
X484133Y12544D01*
X484465Y13346D01*
Y14213D01*
X484133Y15015D01*
X483519Y15629D01*
X482717Y15961D01*
D02*
G37*
G36*
X468938D02*
X468070D01*
X467269Y15629D01*
X466655Y15015D01*
X466323Y14213D01*
Y13346D01*
X466655Y12544D01*
X467269Y11930D01*
X468070Y11598D01*
X468938D01*
X469739Y11930D01*
X470353Y12544D01*
X470685Y13346D01*
Y14213D01*
X470353Y15015D01*
X469739Y15629D01*
X468938Y15961D01*
D02*
G37*
G36*
X455158D02*
X454291D01*
X453489Y15629D01*
X452875Y15015D01*
X452543Y14213D01*
Y13346D01*
X452875Y12544D01*
X453489Y11930D01*
X454291Y11598D01*
X455158D01*
X455960Y11930D01*
X456573Y12544D01*
X456906Y13346D01*
Y14213D01*
X456573Y15015D01*
X455960Y15629D01*
X455158Y15961D01*
D02*
G37*
G36*
X441379D02*
X440511D01*
X439710Y15629D01*
X439096Y15015D01*
X438764Y14213D01*
Y13346D01*
X439096Y12544D01*
X439710Y11930D01*
X440511Y11598D01*
X441379D01*
X442180Y11930D01*
X442794Y12544D01*
X443126Y13346D01*
Y14213D01*
X442794Y15015D01*
X442180Y15629D01*
X441379Y15961D01*
D02*
G37*
G36*
X427599D02*
X426732D01*
X425930Y15629D01*
X425316Y15015D01*
X424984Y14213D01*
Y13346D01*
X425316Y12544D01*
X425930Y11930D01*
X426732Y11598D01*
X427599D01*
X428401Y11930D01*
X429014Y12544D01*
X429347Y13346D01*
Y14213D01*
X429014Y15015D01*
X428401Y15629D01*
X427599Y15961D01*
D02*
G37*
G36*
X413820D02*
X412952D01*
X412150Y15629D01*
X411537Y15015D01*
X411205Y14213D01*
Y13346D01*
X411537Y12544D01*
X412150Y11930D01*
X412952Y11598D01*
X413820D01*
X414621Y11930D01*
X415235Y12544D01*
X415567Y13346D01*
Y14213D01*
X415235Y15015D01*
X414621Y15629D01*
X413820Y15961D01*
D02*
G37*
G36*
X400040D02*
X399172D01*
X398371Y15629D01*
X397757Y15015D01*
X397425Y14213D01*
Y13346D01*
X397757Y12544D01*
X398371Y11930D01*
X399172Y11598D01*
X400040D01*
X400842Y11930D01*
X401455Y12544D01*
X401788Y13346D01*
Y14213D01*
X401455Y15015D01*
X400842Y15629D01*
X400040Y15961D01*
D02*
G37*
G36*
X386261D02*
X385393D01*
X384591Y15629D01*
X383978Y15015D01*
X383646Y14213D01*
Y13346D01*
X383978Y12544D01*
X384591Y11930D01*
X385393Y11598D01*
X386261D01*
X387062Y11930D01*
X387676Y12544D01*
X388008Y13346D01*
Y14213D01*
X387676Y15015D01*
X387062Y15629D01*
X386261Y15961D01*
D02*
G37*
G36*
X372481D02*
X371614D01*
X370812Y15629D01*
X370198Y15015D01*
X369866Y14213D01*
Y13346D01*
X370198Y12544D01*
X370812Y11930D01*
X371614Y11598D01*
X372481D01*
X373283Y11930D01*
X373896Y12544D01*
X374228Y13346D01*
Y14213D01*
X373896Y15015D01*
X373283Y15629D01*
X372481Y15961D01*
D02*
G37*
G36*
X358702D02*
X357834D01*
X357032Y15629D01*
X356419Y15015D01*
X356087Y14213D01*
Y13346D01*
X356419Y12544D01*
X357032Y11930D01*
X357834Y11598D01*
X358702D01*
X359503Y11930D01*
X360117Y12544D01*
X360449Y13346D01*
Y14213D01*
X360117Y15015D01*
X359503Y15629D01*
X358702Y15961D01*
D02*
G37*
G36*
X344922D02*
X344054D01*
X343253Y15629D01*
X342639Y15015D01*
X342307Y14213D01*
Y13346D01*
X342639Y12544D01*
X343253Y11930D01*
X344054Y11598D01*
X344922D01*
X345724Y11930D01*
X346337Y12544D01*
X346669Y13346D01*
Y14213D01*
X346337Y15015D01*
X345724Y15629D01*
X344922Y15961D01*
D02*
G37*
G36*
X331143D02*
X330275D01*
X329473Y15629D01*
X328860Y15015D01*
X328528Y14213D01*
Y13346D01*
X328860Y12544D01*
X329473Y11930D01*
X330275Y11598D01*
X331143D01*
X331944Y11930D01*
X332558Y12544D01*
X332890Y13346D01*
Y14213D01*
X332558Y15015D01*
X331944Y15629D01*
X331143Y15961D01*
D02*
G37*
G36*
X317363D02*
X316495D01*
X315694Y15629D01*
X315080Y15015D01*
X314748Y14213D01*
Y13346D01*
X315080Y12544D01*
X315694Y11930D01*
X316495Y11598D01*
X317363D01*
X318165Y11930D01*
X318778Y12544D01*
X319110Y13346D01*
Y14213D01*
X318778Y15015D01*
X318165Y15629D01*
X317363Y15961D01*
D02*
G37*
G36*
X303584D02*
X302716D01*
X301914Y15629D01*
X301301Y15015D01*
X300969Y14213D01*
Y13346D01*
X301301Y12544D01*
X301914Y11930D01*
X302716Y11598D01*
X303584D01*
X304385Y11930D01*
X304999Y12544D01*
X305331Y13346D01*
Y14213D01*
X304999Y15015D01*
X304385Y15629D01*
X303584Y15961D01*
D02*
G37*
G36*
X289804D02*
X288936D01*
X288135Y15629D01*
X287521Y15015D01*
X287189Y14213D01*
Y13346D01*
X287521Y12544D01*
X288135Y11930D01*
X288936Y11598D01*
X289804D01*
X290606Y11930D01*
X291219Y12544D01*
X291551Y13346D01*
Y14213D01*
X291219Y15015D01*
X290606Y15629D01*
X289804Y15961D01*
D02*
G37*
G36*
X276024D02*
X275157D01*
X274355Y15629D01*
X273742Y15015D01*
X273410Y14213D01*
Y13346D01*
X273742Y12544D01*
X274355Y11930D01*
X275157Y11598D01*
X276024D01*
X276826Y11930D01*
X277440Y12544D01*
X277772Y13346D01*
Y14213D01*
X277440Y15015D01*
X276826Y15629D01*
X276024Y15961D01*
D02*
G37*
G36*
X165788D02*
X164920D01*
X164119Y15629D01*
X163505Y15015D01*
X163173Y14213D01*
Y13346D01*
X163505Y12544D01*
X164119Y11930D01*
X164920Y11598D01*
X165788D01*
X166590Y11930D01*
X167203Y12544D01*
X167535Y13346D01*
Y14213D01*
X167203Y15015D01*
X166590Y15629D01*
X165788Y15961D01*
D02*
G37*
G36*
X124450D02*
X123582D01*
X122780Y15629D01*
X122167Y15015D01*
X121835Y14213D01*
Y13346D01*
X122167Y12544D01*
X122780Y11930D01*
X123582Y11598D01*
X124450D01*
X125251Y11930D01*
X125865Y12544D01*
X126197Y13346D01*
Y14213D01*
X125865Y15015D01*
X125251Y15629D01*
X124450Y15961D01*
D02*
G37*
G36*
X110670D02*
X109802D01*
X109001Y15629D01*
X108387Y15015D01*
X108055Y14213D01*
Y13346D01*
X108387Y12544D01*
X109001Y11930D01*
X109802Y11598D01*
X110670D01*
X111472Y11930D01*
X112085Y12544D01*
X112417Y13346D01*
Y14213D01*
X112085Y15015D01*
X111472Y15629D01*
X110670Y15961D01*
D02*
G37*
G36*
X571887Y15366D02*
X570690D01*
X569535Y15056D01*
X568499Y14458D01*
X567653Y13612D01*
X567055Y12576D01*
X566745Y11421D01*
Y10225D01*
X567055Y9069D01*
X567653Y8033D01*
X568499Y7187D01*
X569535Y6589D01*
X570690Y6279D01*
X571887D01*
X573042Y6589D01*
X574078Y7187D01*
X574924Y8033D01*
X575522Y9069D01*
X575832Y10225D01*
Y11421D01*
X575522Y12576D01*
X574924Y13612D01*
X574078Y14458D01*
X573042Y15056D01*
X571887Y15366D01*
D02*
G37*
G36*
X561887D02*
X560690D01*
X559535Y15056D01*
X558499Y14458D01*
X557653Y13612D01*
X557055Y12576D01*
X556745Y11421D01*
Y10225D01*
X557055Y9069D01*
X557653Y8033D01*
X558499Y7187D01*
X559535Y6589D01*
X560690Y6279D01*
X561887D01*
X563042Y6589D01*
X564078Y7187D01*
X564924Y8033D01*
X565522Y9069D01*
X565832Y10225D01*
Y11421D01*
X565522Y12576D01*
X564924Y13612D01*
X564078Y14458D01*
X563042Y15056D01*
X561887Y15366D01*
D02*
G37*
G36*
X551887D02*
X550690D01*
X549535Y15056D01*
X548499Y14458D01*
X547653Y13612D01*
X547055Y12576D01*
X546745Y11421D01*
Y10225D01*
X547055Y9069D01*
X547653Y8033D01*
X548499Y7187D01*
X549535Y6589D01*
X550690Y6279D01*
X551887D01*
X553042Y6589D01*
X554078Y7187D01*
X554924Y8033D01*
X555522Y9069D01*
X555832Y10225D01*
Y11421D01*
X555522Y12576D01*
X554924Y13612D01*
X554078Y14458D01*
X553042Y15056D01*
X551887Y15366D01*
D02*
G37*
G36*
X541414D02*
X540218D01*
X539062Y15056D01*
X538026Y14458D01*
X537181Y13612D01*
X536582Y12576D01*
X536273Y11421D01*
Y10225D01*
X536582Y9069D01*
X537181Y8033D01*
X538026Y7187D01*
X539062Y6589D01*
X540218Y6279D01*
X541414D01*
X542570Y6589D01*
X543606Y7187D01*
X544452Y8033D01*
X545050Y9069D01*
X545359Y10225D01*
Y11421D01*
X545050Y12576D01*
X544452Y13612D01*
X543606Y14458D01*
X542570Y15056D01*
X541414Y15366D01*
D02*
G37*
G36*
X531414D02*
X530218D01*
X529062Y15056D01*
X528026Y14458D01*
X527180Y13612D01*
X526582Y12576D01*
X526273Y11421D01*
Y10225D01*
X526582Y9069D01*
X527180Y8033D01*
X528026Y7187D01*
X529062Y6589D01*
X530218Y6279D01*
X531414D01*
X532570Y6589D01*
X533606Y7187D01*
X534452Y8033D01*
X535050Y9069D01*
X535359Y10225D01*
Y11421D01*
X535050Y12576D01*
X534452Y13612D01*
X533606Y14458D01*
X532570Y15056D01*
X531414Y15366D01*
D02*
G37*
G36*
X521414D02*
X520218D01*
X519062Y15056D01*
X518026Y14458D01*
X517180Y13612D01*
X516582Y12576D01*
X516273Y11421D01*
Y10225D01*
X516582Y9069D01*
X517180Y8033D01*
X518026Y7187D01*
X519062Y6589D01*
X520218Y6279D01*
X521414D01*
X522570Y6589D01*
X523606Y7187D01*
X524452Y8033D01*
X525050Y9069D01*
X525359Y10225D01*
Y11421D01*
X525050Y12576D01*
X524452Y13612D01*
X523606Y14458D01*
X522570Y15056D01*
X521414Y15366D01*
D02*
G37*
G36*
X631162Y35449D02*
X628681D01*
X626230Y35061D01*
X623870Y34294D01*
X621659Y33167D01*
X619652Y31709D01*
X617897Y29954D01*
X616439Y27947D01*
X615312Y25736D01*
X614546Y23376D01*
X614157Y20926D01*
Y18444D01*
X614546Y15994D01*
X615312Y13634D01*
X616439Y11423D01*
X617897Y9416D01*
X619652Y7661D01*
X621659Y6203D01*
X623870Y5076D01*
X626230Y4309D01*
X628681Y3921D01*
X631162D01*
X633613Y4309D01*
X635972Y5076D01*
X638183Y6203D01*
X640191Y7661D01*
X641945Y9416D01*
X643404Y11423D01*
X644530Y13634D01*
X645297Y15994D01*
X645685Y18444D01*
Y20926D01*
X645297Y23376D01*
X644530Y25736D01*
X643404Y27947D01*
X641945Y29954D01*
X640191Y31709D01*
X638183Y33167D01*
X635972Y34294D01*
X633613Y35061D01*
X631162Y35449D01*
D02*
G37*
G36*
X648072Y263992D02*
X647204D01*
X646402Y263660D01*
X645789Y263047D01*
X645457Y262245D01*
Y261377D01*
X645789Y260576D01*
X646402Y259962D01*
X647204Y259630D01*
X648072D01*
X648873Y259962D01*
X649487Y260576D01*
X649819Y261377D01*
Y262245D01*
X649487Y263047D01*
X648873Y263660D01*
X648072Y263992D01*
D02*
G37*
G36*
X606733D02*
X605865D01*
X605064Y263660D01*
X604450Y263047D01*
X604118Y262245D01*
Y261377D01*
X604450Y260576D01*
X605064Y259962D01*
X605865Y259630D01*
X606733D01*
X607535Y259962D01*
X608148Y260576D01*
X608480Y261377D01*
Y262245D01*
X608148Y263047D01*
X607535Y263660D01*
X606733Y263992D01*
D02*
G37*
G36*
X592954D02*
X592086D01*
X591284Y263660D01*
X590671Y263047D01*
X590339Y262245D01*
Y261377D01*
X590671Y260576D01*
X591284Y259962D01*
X592086Y259630D01*
X592954D01*
X593755Y259962D01*
X594369Y260576D01*
X594701Y261377D01*
Y262245D01*
X594369Y263047D01*
X593755Y263660D01*
X592954Y263992D01*
D02*
G37*
G36*
X537836D02*
X536968D01*
X536166Y263660D01*
X535553Y263047D01*
X535221Y262245D01*
Y261377D01*
X535553Y260576D01*
X536166Y259962D01*
X536968Y259630D01*
X537836D01*
X538637Y259962D01*
X539251Y260576D01*
X539583Y261377D01*
Y262245D01*
X539251Y263047D01*
X538637Y263660D01*
X537836Y263992D01*
D02*
G37*
G36*
X524056D02*
X523188D01*
X522387Y263660D01*
X521773Y263047D01*
X521441Y262245D01*
Y261377D01*
X521773Y260576D01*
X522387Y259962D01*
X523188Y259630D01*
X524056D01*
X524858Y259962D01*
X525471Y260576D01*
X525803Y261377D01*
Y262245D01*
X525471Y263047D01*
X524858Y263660D01*
X524056Y263992D01*
D02*
G37*
G36*
X570267Y267512D02*
X569071D01*
X567916Y267202D01*
X566880Y266604D01*
X566034Y265758D01*
X565436Y264722D01*
X565126Y263567D01*
Y262370D01*
X565436Y261215D01*
X566034Y260179D01*
X566880Y259333D01*
X567916Y258735D01*
X569071Y258425D01*
X570267D01*
X571423Y258735D01*
X572459Y259333D01*
X573305Y260179D01*
X573903Y261215D01*
X574213Y262370D01*
Y263567D01*
X573903Y264722D01*
X573305Y265758D01*
X572459Y266604D01*
X571423Y267202D01*
X570267Y267512D01*
D02*
G37*
G36*
X560267D02*
X559071D01*
X557916Y267202D01*
X556880Y266604D01*
X556034Y265758D01*
X555436Y264722D01*
X555126Y263567D01*
Y262370D01*
X555436Y261215D01*
X556034Y260179D01*
X556880Y259333D01*
X557916Y258735D01*
X559071Y258425D01*
X560267D01*
X561423Y258735D01*
X562459Y259333D01*
X563305Y260179D01*
X563903Y261215D01*
X564213Y262370D01*
Y263567D01*
X563903Y264722D01*
X563305Y265758D01*
X562459Y266604D01*
X561423Y267202D01*
X560267Y267512D01*
D02*
G37*
G36*
X550267D02*
X549071D01*
X547916Y267202D01*
X546880Y266604D01*
X546034Y265758D01*
X545436Y264722D01*
X545126Y263567D01*
Y262370D01*
X545436Y261215D01*
X546034Y260179D01*
X546880Y259333D01*
X547916Y258735D01*
X549071Y258425D01*
X550267D01*
X551423Y258735D01*
X552459Y259333D01*
X553305Y260179D01*
X553903Y261215D01*
X554213Y262370D01*
Y263567D01*
X553903Y264722D01*
X553305Y265758D01*
X552459Y266604D01*
X551423Y267202D01*
X550267Y267512D01*
D02*
G37*
G36*
X570267Y257512D02*
X569071D01*
X567916Y257202D01*
X566880Y256604D01*
X566034Y255758D01*
X565436Y254722D01*
X565126Y253567D01*
Y252370D01*
X565436Y251215D01*
X566034Y250179D01*
X566880Y249333D01*
X567916Y248735D01*
X569071Y248425D01*
X570267D01*
X571423Y248735D01*
X572459Y249333D01*
X573305Y250179D01*
X573903Y251215D01*
X574213Y252370D01*
Y253567D01*
X573903Y254722D01*
X573305Y255758D01*
X572459Y256604D01*
X571423Y257202D01*
X570267Y257512D01*
D02*
G37*
G36*
X560267D02*
X559071D01*
X557916Y257202D01*
X556880Y256604D01*
X556034Y255758D01*
X555436Y254722D01*
X555126Y253567D01*
Y252370D01*
X555436Y251215D01*
X556034Y250179D01*
X556880Y249333D01*
X557916Y248735D01*
X559071Y248425D01*
X560267D01*
X561423Y248735D01*
X562459Y249333D01*
X563305Y250179D01*
X563903Y251215D01*
X564213Y252370D01*
Y253567D01*
X563903Y254722D01*
X563305Y255758D01*
X562459Y256604D01*
X561423Y257202D01*
X560267Y257512D01*
D02*
G37*
G36*
X550267D02*
X549071D01*
X547916Y257202D01*
X546880Y256604D01*
X546034Y255758D01*
X545436Y254722D01*
X545126Y253567D01*
Y252370D01*
X545436Y251215D01*
X546034Y250179D01*
X546880Y249333D01*
X547916Y248735D01*
X549071Y248425D01*
X550267D01*
X551423Y248735D01*
X552459Y249333D01*
X553305Y250179D01*
X553903Y251215D01*
X554213Y252370D01*
Y253567D01*
X553903Y254722D01*
X553305Y255758D01*
X552459Y256604D01*
X551423Y257202D01*
X550267Y257512D01*
D02*
G37*
G36*
X613623Y250213D02*
X612755D01*
X611954Y249881D01*
X611340Y249267D01*
X611008Y248465D01*
Y247598D01*
X611340Y246796D01*
X611954Y246182D01*
X612755Y245850D01*
X613623D01*
X614425Y246182D01*
X615038Y246796D01*
X615370Y247598D01*
Y248465D01*
X615038Y249267D01*
X614425Y249881D01*
X613623Y250213D01*
D02*
G37*
G36*
X599843D02*
X598976D01*
X598174Y249881D01*
X597561Y249267D01*
X597228Y248465D01*
Y247598D01*
X597561Y246796D01*
X598174Y246182D01*
X598976Y245850D01*
X599843D01*
X600645Y246182D01*
X601259Y246796D01*
X601591Y247598D01*
Y248465D01*
X601259Y249267D01*
X600645Y249881D01*
X599843Y250213D01*
D02*
G37*
G36*
X586064D02*
X585196D01*
X584395Y249881D01*
X583781Y249267D01*
X583449Y248465D01*
Y247598D01*
X583781Y246796D01*
X584395Y246182D01*
X585196Y245850D01*
X586064D01*
X586866Y246182D01*
X587479Y246796D01*
X587811Y247598D01*
Y248465D01*
X587479Y249267D01*
X586866Y249881D01*
X586064Y250213D01*
D02*
G37*
G36*
X530946D02*
X530078D01*
X529276Y249881D01*
X528663Y249267D01*
X528331Y248465D01*
Y247598D01*
X528663Y246796D01*
X529276Y246182D01*
X530078Y245850D01*
X530946D01*
X531747Y246182D01*
X532361Y246796D01*
X532693Y247598D01*
Y248465D01*
X532361Y249267D01*
X531747Y249881D01*
X530946Y250213D01*
D02*
G37*
G36*
X631162Y271669D02*
X628681D01*
X626230Y271281D01*
X623870Y270514D01*
X621659Y269388D01*
X619652Y267930D01*
X617897Y266175D01*
X616439Y264168D01*
X615312Y261957D01*
X614546Y259597D01*
X614157Y257146D01*
Y254665D01*
X614546Y252214D01*
X615312Y249854D01*
X616439Y247644D01*
X617897Y245636D01*
X619652Y243882D01*
X621659Y242423D01*
X623870Y241297D01*
X626230Y240530D01*
X628681Y240142D01*
X631162D01*
X633613Y240530D01*
X635972Y241297D01*
X638183Y242423D01*
X640191Y243882D01*
X641945Y245636D01*
X643404Y247644D01*
X644530Y249854D01*
X645297Y252214D01*
X645685Y254665D01*
Y257146D01*
X645297Y259597D01*
X644530Y261957D01*
X643404Y264168D01*
X641945Y266175D01*
X640191Y267930D01*
X638183Y269388D01*
X635972Y270514D01*
X633613Y271281D01*
X631162Y271669D01*
D02*
G37*
G36*
X570267Y247512D02*
X569071D01*
X567916Y247202D01*
X566880Y246604D01*
X566034Y245758D01*
X565436Y244722D01*
X565126Y243567D01*
Y242370D01*
X565436Y241215D01*
X566034Y240179D01*
X566880Y239333D01*
X567916Y238735D01*
X569071Y238425D01*
X570267D01*
X571423Y238735D01*
X572459Y239333D01*
X573305Y240179D01*
X573903Y241215D01*
X574213Y242370D01*
Y243567D01*
X573903Y244722D01*
X573305Y245758D01*
X572459Y246604D01*
X571423Y247202D01*
X570267Y247512D01*
D02*
G37*
G36*
X560267D02*
X559071D01*
X557916Y247202D01*
X556880Y246604D01*
X556034Y245758D01*
X555436Y244722D01*
X555126Y243567D01*
Y242370D01*
X555436Y241215D01*
X556034Y240179D01*
X556880Y239333D01*
X557916Y238735D01*
X559071Y238425D01*
X560267D01*
X561423Y238735D01*
X562459Y239333D01*
X563305Y240179D01*
X563903Y241215D01*
X564213Y242370D01*
Y243567D01*
X563903Y244722D01*
X563305Y245758D01*
X562459Y246604D01*
X561423Y247202D01*
X560267Y247512D01*
D02*
G37*
G36*
X550267D02*
X549071D01*
X547916Y247202D01*
X546880Y246604D01*
X546034Y245758D01*
X545436Y244722D01*
X545126Y243567D01*
Y242370D01*
X545436Y241215D01*
X546034Y240179D01*
X546880Y239333D01*
X547916Y238735D01*
X549071Y238425D01*
X550267D01*
X551423Y238735D01*
X552459Y239333D01*
X553305Y240179D01*
X553903Y241215D01*
X554213Y242370D01*
Y243567D01*
X553903Y244722D01*
X553305Y245758D01*
X552459Y246604D01*
X551423Y247202D01*
X550267Y247512D01*
D02*
G37*
G36*
X648072Y236433D02*
X647204D01*
X646402Y236101D01*
X645789Y235488D01*
X645457Y234686D01*
Y233818D01*
X645789Y233016D01*
X646402Y232403D01*
X647204Y232071D01*
X648072D01*
X648873Y232403D01*
X649487Y233016D01*
X649819Y233818D01*
Y234686D01*
X649487Y235488D01*
X648873Y236101D01*
X648072Y236433D01*
D02*
G37*
G36*
X634292D02*
X633425D01*
X632623Y236101D01*
X632009Y235488D01*
X631677Y234686D01*
Y233818D01*
X632009Y233016D01*
X632623Y232403D01*
X633425Y232071D01*
X634292D01*
X635094Y232403D01*
X635707Y233016D01*
X636039Y233818D01*
Y234686D01*
X635707Y235488D01*
X635094Y236101D01*
X634292Y236433D01*
D02*
G37*
G36*
X620513D02*
X619645D01*
X618843Y236101D01*
X618230Y235488D01*
X617898Y234686D01*
Y233818D01*
X618230Y233016D01*
X618843Y232403D01*
X619645Y232071D01*
X620513D01*
X621314Y232403D01*
X621928Y233016D01*
X622260Y233818D01*
Y234686D01*
X621928Y235488D01*
X621314Y236101D01*
X620513Y236433D01*
D02*
G37*
G36*
X606733D02*
X605865D01*
X605064Y236101D01*
X604450Y235488D01*
X604118Y234686D01*
Y233818D01*
X604450Y233016D01*
X605064Y232403D01*
X605865Y232071D01*
X606733D01*
X607535Y232403D01*
X608148Y233016D01*
X608480Y233818D01*
Y234686D01*
X608148Y235488D01*
X607535Y236101D01*
X606733Y236433D01*
D02*
G37*
G36*
X537836D02*
X536968D01*
X536166Y236101D01*
X535553Y235488D01*
X535221Y234686D01*
Y233818D01*
X535553Y233016D01*
X536166Y232403D01*
X536968Y232071D01*
X537836D01*
X538637Y232403D01*
X539251Y233016D01*
X539583Y233818D01*
Y234686D01*
X539251Y235488D01*
X538637Y236101D01*
X537836Y236433D01*
D02*
G37*
G36*
X648072Y208874D02*
X647204D01*
X646402Y208542D01*
X645789Y207928D01*
X645457Y207127D01*
Y206259D01*
X645789Y205457D01*
X646402Y204844D01*
X647204Y204512D01*
X648072D01*
X648873Y204844D01*
X649487Y205457D01*
X649819Y206259D01*
Y207127D01*
X649487Y207928D01*
X648873Y208542D01*
X648072Y208874D01*
D02*
G37*
G36*
Y181315D02*
X647204D01*
X646402Y180983D01*
X645789Y180369D01*
X645457Y179568D01*
Y178700D01*
X645789Y177898D01*
X646402Y177285D01*
X647204Y176953D01*
X648072D01*
X648873Y177285D01*
X649487Y177898D01*
X649819Y178700D01*
Y179568D01*
X649487Y180369D01*
X648873Y180983D01*
X648072Y181315D01*
D02*
G37*
G36*
X654961Y139976D02*
X654094D01*
X653292Y139644D01*
X652679Y139031D01*
X652347Y138229D01*
Y137361D01*
X652679Y136560D01*
X653292Y135946D01*
X654094Y135614D01*
X654961D01*
X655763Y135946D01*
X656377Y136560D01*
X656709Y137361D01*
Y138229D01*
X656377Y139031D01*
X655763Y139644D01*
X654961Y139976D01*
D02*
G37*
G36*
X641182D02*
X640314D01*
X639513Y139644D01*
X638899Y139031D01*
X638567Y138229D01*
Y137361D01*
X638899Y136560D01*
X639513Y135946D01*
X640314Y135614D01*
X641182D01*
X641984Y135946D01*
X642597Y136560D01*
X642929Y137361D01*
Y138229D01*
X642597Y139031D01*
X641984Y139644D01*
X641182Y139976D01*
D02*
G37*
G36*
X616579Y132121D02*
X615704D01*
X614895Y131786D01*
X614277Y131167D01*
X613942Y130359D01*
Y129484D01*
X614277Y128675D01*
X614895Y128056D01*
X615704Y127721D01*
X616579D01*
X617388Y128056D01*
X618007Y128675D01*
X618342Y129484D01*
Y130359D01*
X618007Y131167D01*
X617388Y131786D01*
X616579Y132121D01*
D02*
G37*
G36*
X643255Y134012D02*
X642178D01*
X641138Y133733D01*
X640205Y133194D01*
X639443Y132433D01*
X638905Y131500D01*
X638626Y130460D01*
Y129383D01*
X638905Y128342D01*
X639443Y127410D01*
X640205Y126648D01*
X641138Y126110D01*
X642178Y125831D01*
X643255D01*
X644295Y126110D01*
X645228Y126648D01*
X645990Y127410D01*
X646528Y128342D01*
X646807Y129383D01*
Y130460D01*
X646528Y131500D01*
X645990Y132433D01*
X645228Y133194D01*
X644295Y133733D01*
X643255Y134012D01*
D02*
G37*
G36*
X596239Y116591D02*
X595161D01*
X594121Y116312D01*
X593188Y115773D01*
X592427Y115012D01*
X591888Y114079D01*
X591609Y113039D01*
Y111961D01*
X591888Y110921D01*
X592427Y109988D01*
X593188Y109227D01*
X594121Y108688D01*
X595161Y108409D01*
X596239D01*
X597279Y108688D01*
X598212Y109227D01*
X598973Y109988D01*
X599512Y110921D01*
X599790Y111961D01*
Y113039D01*
X599512Y114079D01*
X598973Y115012D01*
X598212Y115773D01*
X597279Y116312D01*
X596239Y116591D01*
D02*
G37*
G36*
X585083Y102594D02*
X584208D01*
X583399Y102259D01*
X582781Y101640D01*
X582446Y100831D01*
Y99956D01*
X582781Y99147D01*
X583399Y98529D01*
X584208Y98194D01*
X585083D01*
X585892Y98529D01*
X586511Y99147D01*
X586846Y99956D01*
Y100831D01*
X586511Y101640D01*
X585892Y102259D01*
X585083Y102594D01*
D02*
G37*
G36*
X561461D02*
X560586D01*
X559777Y102259D01*
X559159Y101640D01*
X558824Y100831D01*
Y99956D01*
X559159Y99147D01*
X559777Y98529D01*
X560586Y98194D01*
X561461D01*
X562270Y98529D01*
X562889Y99147D01*
X563224Y99956D01*
Y100831D01*
X562889Y101640D01*
X562270Y102259D01*
X561461Y102594D01*
D02*
G37*
G36*
X654961Y84858D02*
X654094D01*
X653292Y84526D01*
X652679Y83913D01*
X652347Y83111D01*
Y82243D01*
X652679Y81442D01*
X653292Y80828D01*
X654094Y80496D01*
X654961D01*
X655763Y80828D01*
X656377Y81442D01*
X656709Y82243D01*
Y83111D01*
X656377Y83913D01*
X655763Y84526D01*
X654961Y84858D01*
D02*
G37*
G36*
Y57299D02*
X654094D01*
X653292Y56967D01*
X652679Y56354D01*
X652347Y55552D01*
Y54684D01*
X652679Y53883D01*
X653292Y53269D01*
X654094Y52937D01*
X654961D01*
X655763Y53269D01*
X656377Y53883D01*
X656709Y54684D01*
Y55552D01*
X656377Y56354D01*
X655763Y56967D01*
X654961Y57299D01*
D02*
G37*
G36*
X83111Y263992D02*
X82243D01*
X81442Y263660D01*
X80828Y263047D01*
X80496Y262245D01*
Y261377D01*
X80828Y260576D01*
X81442Y259962D01*
X82243Y259630D01*
X83111D01*
X83913Y259962D01*
X84526Y260576D01*
X84858Y261377D01*
Y262245D01*
X84526Y263047D01*
X83913Y263660D01*
X83111Y263992D01*
D02*
G37*
G36*
X69332D02*
X68464D01*
X67662Y263660D01*
X67049Y263047D01*
X66716Y262245D01*
Y261377D01*
X67049Y260576D01*
X67662Y259962D01*
X68464Y259630D01*
X69332D01*
X70133Y259962D01*
X70747Y260576D01*
X71079Y261377D01*
Y262245D01*
X70747Y263047D01*
X70133Y263660D01*
X69332Y263992D01*
D02*
G37*
G36*
X14213D02*
X13346D01*
X12544Y263660D01*
X11930Y263047D01*
X11598Y262245D01*
Y261377D01*
X11930Y260576D01*
X12544Y259962D01*
X13346Y259630D01*
X14213D01*
X15015Y259962D01*
X15629Y260576D01*
X15961Y261377D01*
Y262245D01*
X15629Y263047D01*
X15015Y263660D01*
X14213Y263992D01*
D02*
G37*
G36*
X90001Y250213D02*
X89133D01*
X88331Y249881D01*
X87718Y249267D01*
X87386Y248465D01*
Y247598D01*
X87718Y246796D01*
X88331Y246182D01*
X89133Y245850D01*
X90001D01*
X90802Y246182D01*
X91416Y246796D01*
X91748Y247598D01*
Y248465D01*
X91416Y249267D01*
X90802Y249881D01*
X90001Y250213D01*
D02*
G37*
G36*
X76221D02*
X75354D01*
X74552Y249881D01*
X73938Y249267D01*
X73606Y248465D01*
Y247598D01*
X73938Y246796D01*
X74552Y246182D01*
X75354Y245850D01*
X76221D01*
X77023Y246182D01*
X77636Y246796D01*
X77969Y247598D01*
Y248465D01*
X77636Y249267D01*
X77023Y249881D01*
X76221Y250213D01*
D02*
G37*
G36*
X62442D02*
X61574D01*
X60772Y249881D01*
X60159Y249267D01*
X59827Y248465D01*
Y247598D01*
X60159Y246796D01*
X60772Y246182D01*
X61574Y245850D01*
X62442D01*
X63243Y246182D01*
X63857Y246796D01*
X64189Y247598D01*
Y248465D01*
X63857Y249267D01*
X63243Y249881D01*
X62442Y250213D01*
D02*
G37*
G36*
X21103D02*
X20235D01*
X19434Y249881D01*
X18820Y249267D01*
X18488Y248465D01*
Y247598D01*
X18820Y246796D01*
X19434Y246182D01*
X20235Y245850D01*
X21103D01*
X21905Y246182D01*
X22518Y246796D01*
X22850Y247598D01*
Y248465D01*
X22518Y249267D01*
X21905Y249881D01*
X21103Y250213D01*
D02*
G37*
G36*
X40611Y271669D02*
X38129D01*
X35679Y271281D01*
X33319Y270514D01*
X31108Y269388D01*
X29101Y267929D01*
X27346Y266175D01*
X25888Y264167D01*
X24761Y261957D01*
X23994Y259597D01*
X23606Y257146D01*
Y254665D01*
X23994Y252214D01*
X24761Y249854D01*
X25888Y247643D01*
X27346Y245636D01*
X29101Y243882D01*
X31108Y242423D01*
X33319Y241297D01*
X35679Y240530D01*
X38129Y240142D01*
X40611D01*
X43061Y240530D01*
X45421Y241297D01*
X47632Y242423D01*
X49639Y243882D01*
X51394Y245636D01*
X52852Y247643D01*
X53979Y249854D01*
X54746Y252214D01*
X55134Y254665D01*
Y257146D01*
X54746Y259597D01*
X53979Y261957D01*
X52852Y264167D01*
X51394Y266175D01*
X49639Y267929D01*
X47632Y269388D01*
X45421Y270514D01*
X43061Y271281D01*
X40611Y271669D01*
D02*
G37*
G36*
X83111Y236433D02*
X82243D01*
X81442Y236101D01*
X80828Y235488D01*
X80496Y234686D01*
Y233818D01*
X80828Y233016D01*
X81442Y232403D01*
X82243Y232071D01*
X83111D01*
X83913Y232403D01*
X84526Y233016D01*
X84858Y233818D01*
Y234686D01*
X84526Y235488D01*
X83913Y236101D01*
X83111Y236433D01*
D02*
G37*
G36*
X69332D02*
X68464D01*
X67662Y236101D01*
X67049Y235488D01*
X66716Y234686D01*
Y233818D01*
X67049Y233016D01*
X67662Y232403D01*
X68464Y232071D01*
X69332D01*
X70133Y232403D01*
X70747Y233016D01*
X71079Y233818D01*
Y234686D01*
X70747Y235488D01*
X70133Y236101D01*
X69332Y236433D01*
D02*
G37*
G36*
X55552D02*
X54684D01*
X53883Y236101D01*
X53269Y235488D01*
X52937Y234686D01*
Y233818D01*
X53269Y233016D01*
X53883Y232403D01*
X54684Y232071D01*
X55552D01*
X56354Y232403D01*
X56967Y233016D01*
X57299Y233818D01*
Y234686D01*
X56967Y235488D01*
X56354Y236101D01*
X55552Y236433D01*
D02*
G37*
G36*
X41772D02*
X40905D01*
X40103Y236101D01*
X39489Y235488D01*
X39158Y234686D01*
Y233818D01*
X39489Y233016D01*
X40103Y232403D01*
X40905Y232071D01*
X41772D01*
X42574Y232403D01*
X43188Y233016D01*
X43520Y233818D01*
Y234686D01*
X43188Y235488D01*
X42574Y236101D01*
X41772Y236433D01*
D02*
G37*
G36*
X27993D02*
X27125D01*
X26324Y236101D01*
X25710Y235488D01*
X25378Y234686D01*
Y233818D01*
X25710Y233016D01*
X26324Y232403D01*
X27125Y232071D01*
X27993D01*
X28795Y232403D01*
X29408Y233016D01*
X29740Y233818D01*
Y234686D01*
X29408Y235488D01*
X28795Y236101D01*
X27993Y236433D01*
D02*
G37*
G36*
X14213D02*
X13346D01*
X12544Y236101D01*
X11930Y235488D01*
X11598Y234686D01*
Y233818D01*
X11930Y233016D01*
X12544Y232403D01*
X13346Y232071D01*
X14213D01*
X15015Y232403D01*
X15629Y233016D01*
X15961Y233818D01*
Y234686D01*
X15629Y235488D01*
X15015Y236101D01*
X14213Y236433D01*
D02*
G37*
G36*
X90001Y222654D02*
X89133D01*
X88331Y222322D01*
X87718Y221708D01*
X87386Y220906D01*
Y220039D01*
X87718Y219237D01*
X88331Y218623D01*
X89133Y218291D01*
X90001D01*
X90802Y218623D01*
X91416Y219237D01*
X91748Y220039D01*
Y220906D01*
X91416Y221708D01*
X90802Y222322D01*
X90001Y222654D01*
D02*
G37*
G36*
X76221D02*
X75354D01*
X74552Y222322D01*
X73938Y221708D01*
X73606Y220906D01*
Y220039D01*
X73938Y219237D01*
X74552Y218623D01*
X75354Y218291D01*
X76221D01*
X77023Y218623D01*
X77636Y219237D01*
X77969Y220039D01*
Y220906D01*
X77636Y221708D01*
X77023Y222322D01*
X76221Y222654D01*
D02*
G37*
G36*
X62442D02*
X61574D01*
X60772Y222322D01*
X60159Y221708D01*
X59827Y220906D01*
Y220039D01*
X60159Y219237D01*
X60772Y218623D01*
X61574Y218291D01*
X62442D01*
X63243Y218623D01*
X63857Y219237D01*
X64189Y220039D01*
Y220906D01*
X63857Y221708D01*
X63243Y222322D01*
X62442Y222654D01*
D02*
G37*
G36*
X48662D02*
X47794D01*
X46993Y222322D01*
X46379Y221708D01*
X46047Y220906D01*
Y220039D01*
X46379Y219237D01*
X46993Y218623D01*
X47794Y218291D01*
X48662D01*
X49464Y218623D01*
X50077Y219237D01*
X50409Y220039D01*
Y220906D01*
X50077Y221708D01*
X49464Y222322D01*
X48662Y222654D01*
D02*
G37*
G36*
X34883D02*
X34015D01*
X33213Y222322D01*
X32600Y221708D01*
X32268Y220906D01*
Y220039D01*
X32600Y219237D01*
X33213Y218623D01*
X34015Y218291D01*
X34883D01*
X35684Y218623D01*
X36298Y219237D01*
X36630Y220039D01*
Y220906D01*
X36298Y221708D01*
X35684Y222322D01*
X34883Y222654D01*
D02*
G37*
G36*
X22835Y224862D02*
X19292D01*
X18568Y224767D01*
X17894Y224488D01*
X17315Y224044D01*
X16871Y223465D01*
X16591Y222790D01*
X16496Y222067D01*
Y218524D01*
X16591Y217800D01*
X16871Y217126D01*
X17315Y216547D01*
X17894Y216103D01*
X18568Y215823D01*
X19292Y215728D01*
X22835D01*
X23558Y215823D01*
X24233Y216103D01*
X24812Y216547D01*
X25256Y217126D01*
X25535Y217800D01*
X25630Y218524D01*
Y222067D01*
X25535Y222790D01*
X25256Y223465D01*
X24812Y224044D01*
X24233Y224488D01*
X23558Y224767D01*
X22835Y224862D01*
D02*
G37*
G36*
X12835D02*
X9291D01*
X8568Y224767D01*
X7894Y224488D01*
X7315Y224044D01*
X6870Y223465D01*
X6591Y222790D01*
X6496Y222067D01*
Y218524D01*
X6591Y217800D01*
X6870Y217126D01*
X7315Y216547D01*
X7894Y216103D01*
X8568Y215823D01*
X9291Y215728D01*
X12835D01*
X13558Y215823D01*
X14233Y216103D01*
X14812Y216547D01*
X15256Y217126D01*
X15535Y217800D01*
X15630Y218524D01*
Y222067D01*
X15535Y222790D01*
X15256Y223465D01*
X14812Y224044D01*
X14233Y224488D01*
X13558Y224767D01*
X12835Y224862D01*
D02*
G37*
G36*
X83111Y208874D02*
X82243D01*
X81442Y208542D01*
X80828Y207928D01*
X80496Y207127D01*
Y206259D01*
X80828Y205457D01*
X81442Y204844D01*
X82243Y204512D01*
X83111D01*
X83913Y204844D01*
X84526Y205457D01*
X84858Y206259D01*
Y207127D01*
X84526Y207928D01*
X83913Y208542D01*
X83111Y208874D01*
D02*
G37*
G36*
X69332D02*
X68464D01*
X67662Y208542D01*
X67049Y207928D01*
X66716Y207127D01*
Y206259D01*
X67049Y205457D01*
X67662Y204844D01*
X68464Y204512D01*
X69332D01*
X70133Y204844D01*
X70747Y205457D01*
X71079Y206259D01*
Y207127D01*
X70747Y207928D01*
X70133Y208542D01*
X69332Y208874D01*
D02*
G37*
G36*
X55552D02*
X54684D01*
X53883Y208542D01*
X53269Y207928D01*
X52937Y207127D01*
Y206259D01*
X53269Y205457D01*
X53883Y204844D01*
X54684Y204512D01*
X55552D01*
X56354Y204844D01*
X56967Y205457D01*
X57299Y206259D01*
Y207127D01*
X56967Y207928D01*
X56354Y208542D01*
X55552Y208874D01*
D02*
G37*
G36*
X90001Y195095D02*
X89133D01*
X88331Y194763D01*
X87718Y194149D01*
X87386Y193347D01*
Y192480D01*
X87718Y191678D01*
X88331Y191064D01*
X89133Y190732D01*
X90001D01*
X90802Y191064D01*
X91416Y191678D01*
X91748Y192480D01*
Y193347D01*
X91416Y194149D01*
X90802Y194763D01*
X90001Y195095D01*
D02*
G37*
G36*
X62442D02*
X61574D01*
X60772Y194763D01*
X60159Y194149D01*
X59827Y193347D01*
Y192480D01*
X60159Y191678D01*
X60772Y191064D01*
X61574Y190732D01*
X62442D01*
X63243Y191064D01*
X63857Y191678D01*
X64189Y192480D01*
Y193347D01*
X63857Y194149D01*
X63243Y194763D01*
X62442Y195095D01*
D02*
G37*
G36*
X48662D02*
X47794D01*
X46993Y194763D01*
X46379Y194149D01*
X46047Y193347D01*
Y192480D01*
X46379Y191678D01*
X46993Y191064D01*
X47794Y190732D01*
X48662D01*
X49464Y191064D01*
X50077Y191678D01*
X50409Y192480D01*
Y193347D01*
X50077Y194149D01*
X49464Y194763D01*
X48662Y195095D01*
D02*
G37*
G36*
X34883D02*
X34015D01*
X33213Y194763D01*
X32600Y194149D01*
X32268Y193347D01*
Y192480D01*
X32600Y191678D01*
X33213Y191064D01*
X34015Y190732D01*
X34883D01*
X35684Y191064D01*
X36298Y191678D01*
X36630Y192480D01*
Y193347D01*
X36298Y194149D01*
X35684Y194763D01*
X34883Y195095D01*
D02*
G37*
G36*
X21661Y194839D02*
X20465D01*
X19309Y194529D01*
X18274Y193931D01*
X17428Y193085D01*
X16829Y192049D01*
X16520Y190893D01*
Y189697D01*
X16829Y188542D01*
X17428Y187505D01*
X18274Y186660D01*
X19309Y186062D01*
X20465Y185752D01*
X21661D01*
X22817Y186062D01*
X23853Y186660D01*
X24699Y187505D01*
X25297Y188542D01*
X25607Y189697D01*
Y190893D01*
X25297Y192049D01*
X24699Y193085D01*
X23853Y193931D01*
X22817Y194529D01*
X21661Y194839D01*
D02*
G37*
G36*
X11661D02*
X10465D01*
X9310Y194529D01*
X8274Y193931D01*
X7428Y193085D01*
X6830Y192049D01*
X6520Y190893D01*
Y189697D01*
X6830Y188542D01*
X7428Y187505D01*
X8274Y186660D01*
X9310Y186062D01*
X10465Y185752D01*
X11661D01*
X12817Y186062D01*
X13853Y186660D01*
X14699Y187505D01*
X15297Y188542D01*
X15607Y189697D01*
Y190893D01*
X15297Y192049D01*
X14699Y193085D01*
X13853Y193931D01*
X12817Y194529D01*
X11661Y194839D01*
D02*
G37*
G36*
X27993Y181315D02*
X27125D01*
X26324Y180983D01*
X25710Y180369D01*
X25378Y179568D01*
Y178700D01*
X25710Y177898D01*
X26324Y177285D01*
X27125Y176953D01*
X27993D01*
X28795Y177285D01*
X29408Y177898D01*
X29740Y178700D01*
Y179568D01*
X29408Y180369D01*
X28795Y180983D01*
X27993Y181315D01*
D02*
G37*
G36*
X21661Y179839D02*
X20465D01*
X19309Y179529D01*
X18274Y178931D01*
X17428Y178085D01*
X16829Y177049D01*
X16520Y175893D01*
Y174697D01*
X16829Y173542D01*
X17428Y172505D01*
X18274Y171660D01*
X19309Y171062D01*
X20465Y170752D01*
X21661D01*
X22817Y171062D01*
X23853Y171660D01*
X24699Y172505D01*
X25297Y173542D01*
X25607Y174697D01*
Y175893D01*
X25297Y177049D01*
X24699Y178085D01*
X23853Y178931D01*
X22817Y179529D01*
X21661Y179839D01*
D02*
G37*
G36*
X11661D02*
X10465D01*
X9310Y179529D01*
X8274Y178931D01*
X7428Y178085D01*
X6830Y177049D01*
X6520Y175893D01*
Y174697D01*
X6830Y173542D01*
X7428Y172505D01*
X8274Y171660D01*
X9310Y171062D01*
X10465Y170752D01*
X11661D01*
X12817Y171062D01*
X13853Y171660D01*
X14699Y172505D01*
X15297Y173542D01*
X15607Y174697D01*
Y175893D01*
X15297Y177049D01*
X14699Y178085D01*
X13853Y178931D01*
X12817Y179529D01*
X11661Y179839D01*
D02*
G37*
G36*
X90001Y167535D02*
X89133D01*
X88331Y167203D01*
X87718Y166590D01*
X87386Y165788D01*
Y164920D01*
X87718Y164119D01*
X88331Y163505D01*
X89133Y163173D01*
X90001D01*
X90802Y163505D01*
X91416Y164119D01*
X91748Y164920D01*
Y165788D01*
X91416Y166590D01*
X90802Y167203D01*
X90001Y167535D01*
D02*
G37*
G36*
X76221D02*
X75354D01*
X74552Y167203D01*
X73938Y166590D01*
X73606Y165788D01*
Y164920D01*
X73938Y164119D01*
X74552Y163505D01*
X75354Y163173D01*
X76221D01*
X77023Y163505D01*
X77636Y164119D01*
X77969Y164920D01*
Y165788D01*
X77636Y166590D01*
X77023Y167203D01*
X76221Y167535D01*
D02*
G37*
G36*
X62442D02*
X61574D01*
X60772Y167203D01*
X60159Y166590D01*
X59827Y165788D01*
Y164920D01*
X60159Y164119D01*
X60772Y163505D01*
X61574Y163173D01*
X62442D01*
X63243Y163505D01*
X63857Y164119D01*
X64189Y164920D01*
Y165788D01*
X63857Y166590D01*
X63243Y167203D01*
X62442Y167535D01*
D02*
G37*
G36*
X48662D02*
X47794D01*
X46993Y167203D01*
X46379Y166590D01*
X46047Y165788D01*
Y164920D01*
X46379Y164119D01*
X46993Y163505D01*
X47794Y163173D01*
X48662D01*
X49464Y163505D01*
X50077Y164119D01*
X50409Y164920D01*
Y165788D01*
X50077Y166590D01*
X49464Y167203D01*
X48662Y167535D01*
D02*
G37*
G36*
X34883D02*
X34015D01*
X33213Y167203D01*
X32600Y166590D01*
X32268Y165788D01*
Y164920D01*
X32600Y164119D01*
X33213Y163505D01*
X34015Y163173D01*
X34883D01*
X35684Y163505D01*
X36298Y164119D01*
X36630Y164920D01*
Y165788D01*
X36298Y166590D01*
X35684Y167203D01*
X34883Y167535D01*
D02*
G37*
G36*
X21661Y164839D02*
X20465D01*
X19309Y164529D01*
X18274Y163931D01*
X17428Y163085D01*
X16829Y162049D01*
X16520Y160893D01*
Y159697D01*
X16829Y158542D01*
X17428Y157506D01*
X18274Y156660D01*
X19309Y156061D01*
X20465Y155752D01*
X21661D01*
X22817Y156061D01*
X23853Y156660D01*
X24699Y157506D01*
X25297Y158542D01*
X25607Y159697D01*
Y160893D01*
X25297Y162049D01*
X24699Y163085D01*
X23853Y163931D01*
X22817Y164529D01*
X21661Y164839D01*
D02*
G37*
G36*
X11661D02*
X10465D01*
X9310Y164529D01*
X8274Y163931D01*
X7428Y163085D01*
X6830Y162049D01*
X6520Y160893D01*
Y159697D01*
X6830Y158542D01*
X7428Y157506D01*
X8274Y156660D01*
X9310Y156061D01*
X10465Y155752D01*
X11661D01*
X12817Y156061D01*
X13853Y156660D01*
X14699Y157506D01*
X15297Y158542D01*
X15607Y159697D01*
Y160893D01*
X15297Y162049D01*
X14699Y163085D01*
X13853Y163931D01*
X12817Y164529D01*
X11661Y164839D01*
D02*
G37*
G36*
X14213Y153756D02*
X13346D01*
X12544Y153424D01*
X11930Y152810D01*
X11598Y152009D01*
Y151141D01*
X11930Y150339D01*
X12006Y150264D01*
X11747Y149815D01*
X11661Y149838D01*
X10465D01*
X9310Y149529D01*
X8274Y148931D01*
X7428Y148085D01*
X6830Y147049D01*
X6520Y145893D01*
Y144697D01*
X6830Y143542D01*
X7428Y142506D01*
X8274Y141660D01*
X9310Y141061D01*
X10465Y140752D01*
X11661D01*
X12817Y141061D01*
X13853Y141660D01*
X14699Y142506D01*
X15297Y143542D01*
X15607Y144697D01*
Y145893D01*
X15297Y147049D01*
X14699Y148085D01*
X13890Y148894D01*
X13907Y149057D01*
X14051Y149394D01*
X14213D01*
X15015Y149726D01*
X15629Y150339D01*
X15961Y151141D01*
Y152009D01*
X15629Y152810D01*
X15015Y153424D01*
X14213Y153756D01*
D02*
G37*
G36*
X83111D02*
X82243D01*
X81442Y153424D01*
X80828Y152810D01*
X80496Y152009D01*
Y151141D01*
X80828Y150339D01*
X81442Y149726D01*
X82243Y149394D01*
X83111D01*
X83913Y149726D01*
X84526Y150339D01*
X84858Y151141D01*
Y152009D01*
X84526Y152810D01*
X83913Y153424D01*
X83111Y153756D01*
D02*
G37*
G36*
X41772D02*
X40905D01*
X40103Y153424D01*
X39489Y152810D01*
X39158Y152009D01*
Y151141D01*
X39489Y150339D01*
X40103Y149726D01*
X40905Y149394D01*
X41772D01*
X42574Y149726D01*
X43188Y150339D01*
X43520Y151141D01*
Y152009D01*
X43188Y152810D01*
X42574Y153424D01*
X41772Y153756D01*
D02*
G37*
G36*
X27993D02*
X27125D01*
X26324Y153424D01*
X25710Y152810D01*
X25378Y152009D01*
Y151141D01*
X25710Y150339D01*
X26324Y149726D01*
X27125Y149394D01*
X27993D01*
X28795Y149726D01*
X29408Y150339D01*
X29740Y151141D01*
Y152009D01*
X29408Y152810D01*
X28795Y153424D01*
X27993Y153756D01*
D02*
G37*
G36*
X21661Y149838D02*
X20465D01*
X19309Y149529D01*
X18274Y148931D01*
X17428Y148085D01*
X16829Y147049D01*
X16520Y145893D01*
Y144697D01*
X16829Y143542D01*
X17428Y142506D01*
X18274Y141660D01*
X19309Y141061D01*
X20465Y140752D01*
X21661D01*
X22817Y141061D01*
X23853Y141660D01*
X24699Y142506D01*
X25297Y143542D01*
X25607Y144697D01*
Y145893D01*
X25297Y147049D01*
X24699Y148085D01*
X23853Y148931D01*
X22817Y149529D01*
X21661Y149838D01*
D02*
G37*
G36*
X90001Y139976D02*
X89133D01*
X88331Y139644D01*
X87718Y139031D01*
X87386Y138229D01*
Y137361D01*
X87718Y136560D01*
X88331Y135946D01*
X89133Y135614D01*
X90001D01*
X90802Y135946D01*
X91416Y136560D01*
X91748Y137361D01*
Y138229D01*
X91416Y139031D01*
X90802Y139644D01*
X90001Y139976D01*
D02*
G37*
G36*
X48662D02*
X47794D01*
X46993Y139644D01*
X46379Y139031D01*
X46047Y138229D01*
Y137361D01*
X46379Y136560D01*
X46993Y135946D01*
X47794Y135614D01*
X48662D01*
X49464Y135946D01*
X50077Y136560D01*
X50409Y137361D01*
Y138229D01*
X50077Y139031D01*
X49464Y139644D01*
X48662Y139976D01*
D02*
G37*
G36*
X34883D02*
X34015D01*
X33213Y139644D01*
X32600Y139031D01*
X32268Y138229D01*
Y137361D01*
X32600Y136560D01*
X33213Y135946D01*
X34015Y135614D01*
X34883D01*
X35684Y135946D01*
X36298Y136560D01*
X36630Y137361D01*
Y138229D01*
X36298Y139031D01*
X35684Y139644D01*
X34883Y139976D01*
D02*
G37*
G36*
X21103D02*
X20235D01*
X19434Y139644D01*
X18820Y139031D01*
X18488Y138229D01*
Y137361D01*
X18820Y136560D01*
X19434Y135946D01*
X20235Y135614D01*
X21103D01*
X21905Y135946D01*
X22518Y136560D01*
X22850Y137361D01*
Y138229D01*
X22518Y139031D01*
X21905Y139644D01*
X21103Y139976D01*
D02*
G37*
G36*
X21661Y134838D02*
X20465D01*
X19309Y134529D01*
X18274Y133931D01*
X17428Y133085D01*
X16829Y132049D01*
X16520Y130893D01*
Y129697D01*
X16829Y128542D01*
X17428Y127506D01*
X18274Y126660D01*
X19309Y126061D01*
X20465Y125752D01*
X21661D01*
X22817Y126061D01*
X23853Y126660D01*
X24699Y127506D01*
X25297Y128542D01*
X25607Y129697D01*
Y130893D01*
X25297Y132049D01*
X24699Y133085D01*
X23853Y133931D01*
X22817Y134529D01*
X21661Y134838D01*
D02*
G37*
G36*
X83111Y126197D02*
X82243D01*
X81442Y125865D01*
X80828Y125251D01*
X80496Y124450D01*
Y123582D01*
X80828Y122780D01*
X81442Y122167D01*
X82243Y121835D01*
X83111D01*
X83913Y122167D01*
X84526Y122780D01*
X84858Y123582D01*
Y124450D01*
X84526Y125251D01*
X83913Y125865D01*
X83111Y126197D01*
D02*
G37*
G36*
X11661Y134838D02*
X10465D01*
X9310Y134529D01*
X8274Y133931D01*
X7428Y133085D01*
X6830Y132049D01*
X6520Y130893D01*
Y129697D01*
X6830Y128542D01*
X7428Y127506D01*
X8274Y126660D01*
X9310Y126061D01*
X10465Y125752D01*
X11661D01*
X11747Y125775D01*
X12006Y125327D01*
X11930Y125251D01*
X11598Y124450D01*
Y123582D01*
X11930Y122780D01*
X12544Y122167D01*
X13346Y121835D01*
X14213D01*
X15015Y122167D01*
X15629Y122780D01*
X15961Y123582D01*
Y124450D01*
X15629Y125251D01*
X15015Y125865D01*
X14213Y126197D01*
X14051D01*
X13907Y126532D01*
X13890Y126697D01*
X14699Y127506D01*
X15297Y128542D01*
X15607Y129697D01*
Y130893D01*
X15297Y132049D01*
X14699Y133085D01*
X13853Y133931D01*
X12817Y134529D01*
X11661Y134838D01*
D02*
G37*
G36*
X21661Y119839D02*
X20465D01*
X19309Y119529D01*
X18274Y118931D01*
X17428Y118085D01*
X16829Y117049D01*
X16520Y115893D01*
Y114697D01*
X16829Y113542D01*
X17428Y112505D01*
X18274Y111660D01*
X19309Y111062D01*
X20465Y110752D01*
X21661D01*
X22817Y111062D01*
X23853Y111660D01*
X24699Y112505D01*
X25297Y113542D01*
X25607Y114697D01*
Y115893D01*
X25297Y117049D01*
X24699Y118085D01*
X23853Y118931D01*
X22817Y119529D01*
X21661Y119839D01*
D02*
G37*
G36*
X11661D02*
X10465D01*
X9310Y119529D01*
X8274Y118931D01*
X7428Y118085D01*
X6830Y117049D01*
X6520Y115893D01*
Y114697D01*
X6830Y113542D01*
X7428Y112505D01*
X8274Y111660D01*
X9310Y111062D01*
X10465Y110752D01*
X11661D01*
X12817Y111062D01*
X13853Y111660D01*
X14699Y112505D01*
X15297Y113542D01*
X15607Y114697D01*
Y115893D01*
X15297Y117049D01*
X14699Y118085D01*
X13853Y118931D01*
X12817Y119529D01*
X11661Y119839D01*
D02*
G37*
G36*
X90001Y112417D02*
X89133D01*
X88331Y112085D01*
X87718Y111472D01*
X87386Y110670D01*
Y109802D01*
X87718Y109001D01*
X88331Y108387D01*
X89133Y108055D01*
X90001D01*
X90802Y108387D01*
X91416Y109001D01*
X91748Y109802D01*
Y110670D01*
X91416Y111472D01*
X90802Y112085D01*
X90001Y112417D01*
D02*
G37*
G36*
X76221D02*
X75354D01*
X74552Y112085D01*
X73938Y111472D01*
X73606Y110670D01*
Y109802D01*
X73938Y109001D01*
X74552Y108387D01*
X75354Y108055D01*
X76221D01*
X77023Y108387D01*
X77636Y109001D01*
X77969Y109802D01*
Y110670D01*
X77636Y111472D01*
X77023Y112085D01*
X76221Y112417D01*
D02*
G37*
G36*
X62442D02*
X61574D01*
X60772Y112085D01*
X60159Y111472D01*
X59827Y110670D01*
Y109802D01*
X60159Y109001D01*
X60772Y108387D01*
X61574Y108055D01*
X62442D01*
X63243Y108387D01*
X63857Y109001D01*
X64189Y109802D01*
Y110670D01*
X63857Y111472D01*
X63243Y112085D01*
X62442Y112417D01*
D02*
G37*
G36*
X34883D02*
X34015D01*
X33213Y112085D01*
X32600Y111472D01*
X32268Y110670D01*
Y109802D01*
X32600Y109001D01*
X33213Y108387D01*
X34015Y108055D01*
X34883D01*
X35684Y108387D01*
X36298Y109001D01*
X36630Y109802D01*
Y110670D01*
X36298Y111472D01*
X35684Y112085D01*
X34883Y112417D01*
D02*
G37*
G36*
X21661Y104839D02*
X20465D01*
X19309Y104529D01*
X18274Y103931D01*
X17428Y103085D01*
X16829Y102049D01*
X16520Y100893D01*
Y99697D01*
X16829Y98541D01*
X17428Y97506D01*
X18274Y96660D01*
X19309Y96061D01*
X20465Y95752D01*
X21661D01*
X22817Y96061D01*
X23853Y96660D01*
X24699Y97506D01*
X25297Y98541D01*
X25607Y99697D01*
Y100893D01*
X25297Y102049D01*
X24699Y103085D01*
X23853Y103931D01*
X22817Y104529D01*
X21661Y104839D01*
D02*
G37*
G36*
X11661D02*
X10465D01*
X9310Y104529D01*
X8274Y103931D01*
X7428Y103085D01*
X6830Y102049D01*
X6520Y100893D01*
Y99697D01*
X6830Y98541D01*
X7428Y97506D01*
X8274Y96660D01*
X9310Y96061D01*
X10465Y95752D01*
X11661D01*
X12817Y96061D01*
X13853Y96660D01*
X14699Y97506D01*
X15297Y98541D01*
X15607Y99697D01*
Y100893D01*
X15297Y102049D01*
X14699Y103085D01*
X13853Y103931D01*
X12817Y104529D01*
X11661Y104839D01*
D02*
G37*
G36*
X83111Y98638D02*
X82243D01*
X81442Y98306D01*
X80828Y97692D01*
X80496Y96891D01*
Y96023D01*
X80828Y95221D01*
X81442Y94608D01*
X82243Y94276D01*
X83111D01*
X83913Y94608D01*
X84526Y95221D01*
X84858Y96023D01*
Y96891D01*
X84526Y97692D01*
X83913Y98306D01*
X83111Y98638D01*
D02*
G37*
G36*
X21661Y89838D02*
X20465D01*
X19309Y89529D01*
X18274Y88931D01*
X17428Y88085D01*
X16829Y87049D01*
X16520Y85893D01*
Y84697D01*
X16829Y83542D01*
X17428Y82506D01*
X18274Y81660D01*
X19309Y81062D01*
X20465Y80752D01*
X21661D01*
X22817Y81062D01*
X23853Y81660D01*
X24699Y82506D01*
X25297Y83542D01*
X25607Y84697D01*
Y85893D01*
X25297Y87049D01*
X24699Y88085D01*
X23853Y88931D01*
X22817Y89529D01*
X21661Y89838D01*
D02*
G37*
G36*
X11661D02*
X10465D01*
X9310Y89529D01*
X8274Y88931D01*
X7428Y88085D01*
X6830Y87049D01*
X6520Y85893D01*
Y84697D01*
X6830Y83542D01*
X7428Y82506D01*
X8274Y81660D01*
X9310Y81062D01*
X10465Y80752D01*
X11661D01*
X12817Y81062D01*
X13853Y81660D01*
X14699Y82506D01*
X15297Y83542D01*
X15607Y84697D01*
Y85893D01*
X15297Y87049D01*
X14699Y88085D01*
X13853Y88931D01*
X12817Y89529D01*
X11661Y89838D01*
D02*
G37*
G36*
X90001Y84858D02*
X89133D01*
X88331Y84526D01*
X87718Y83913D01*
X87386Y83111D01*
Y82243D01*
X87718Y81442D01*
X88331Y80828D01*
X89133Y80496D01*
X90001D01*
X90802Y80828D01*
X91416Y81442D01*
X91748Y82243D01*
Y83111D01*
X91416Y83913D01*
X90802Y84526D01*
X90001Y84858D01*
D02*
G37*
G36*
X62442D02*
X61574D01*
X60772Y84526D01*
X60159Y83913D01*
X59827Y83111D01*
Y82243D01*
X60159Y81442D01*
X60772Y80828D01*
X61574Y80496D01*
X62442D01*
X63243Y80828D01*
X63857Y81442D01*
X64189Y82243D01*
Y83111D01*
X63857Y83913D01*
X63243Y84526D01*
X62442Y84858D01*
D02*
G37*
G36*
X48662D02*
X47794D01*
X46993Y84526D01*
X46379Y83913D01*
X46047Y83111D01*
Y82243D01*
X46379Y81442D01*
X46993Y80828D01*
X47794Y80496D01*
X48662D01*
X49464Y80828D01*
X50077Y81442D01*
X50409Y82243D01*
Y83111D01*
X50077Y83913D01*
X49464Y84526D01*
X48662Y84858D01*
D02*
G37*
G36*
X21661Y74839D02*
X20465D01*
X19309Y74529D01*
X18274Y73931D01*
X17428Y73085D01*
X16829Y72049D01*
X16520Y70893D01*
Y69697D01*
X16829Y68542D01*
X17428Y67506D01*
X18274Y66660D01*
X19309Y66062D01*
X20465Y65752D01*
X21661D01*
X22817Y66062D01*
X23853Y66660D01*
X24699Y67506D01*
X25297Y68542D01*
X25607Y69697D01*
Y70893D01*
X25297Y72049D01*
X24699Y73085D01*
X23853Y73931D01*
X22817Y74529D01*
X21661Y74839D01*
D02*
G37*
G36*
X11661D02*
X10465D01*
X9310Y74529D01*
X8274Y73931D01*
X7428Y73085D01*
X6830Y72049D01*
X6520Y70893D01*
Y69697D01*
X6830Y68542D01*
X7428Y67506D01*
X8274Y66660D01*
X9310Y66062D01*
X10465Y65752D01*
X11661D01*
X12817Y66062D01*
X13853Y66660D01*
X14699Y67506D01*
X15297Y68542D01*
X15607Y69697D01*
Y70893D01*
X15297Y72049D01*
X14699Y73085D01*
X13853Y73931D01*
X12817Y74529D01*
X11661Y74839D01*
D02*
G37*
G36*
X90001Y57299D02*
X89133D01*
X88331Y56967D01*
X87718Y56354D01*
X87386Y55552D01*
Y54684D01*
X87718Y53883D01*
X88331Y53269D01*
X89133Y52937D01*
X90001D01*
X90802Y53269D01*
X91416Y53883D01*
X91748Y54684D01*
Y55552D01*
X91416Y56354D01*
X90802Y56967D01*
X90001Y57299D01*
D02*
G37*
G36*
X76221D02*
X75354D01*
X74552Y56967D01*
X73938Y56354D01*
X73606Y55552D01*
Y54684D01*
X73938Y53883D01*
X74552Y53269D01*
X75354Y52937D01*
X76221D01*
X77023Y53269D01*
X77636Y53883D01*
X77969Y54684D01*
Y55552D01*
X77636Y56354D01*
X77023Y56967D01*
X76221Y57299D01*
D02*
G37*
G36*
X62442D02*
X61574D01*
X60772Y56967D01*
X60159Y56354D01*
X59827Y55552D01*
Y54684D01*
X60159Y53883D01*
X60772Y53269D01*
X61574Y52937D01*
X62442D01*
X63243Y53269D01*
X63857Y53883D01*
X64189Y54684D01*
Y55552D01*
X63857Y56354D01*
X63243Y56967D01*
X62442Y57299D01*
D02*
G37*
G36*
X48662D02*
X47794D01*
X46993Y56967D01*
X46379Y56354D01*
X46047Y55552D01*
Y54684D01*
X46379Y53883D01*
X46993Y53269D01*
X47794Y52937D01*
X48662D01*
X49464Y53269D01*
X50077Y53883D01*
X50409Y54684D01*
Y55552D01*
X50077Y56354D01*
X49464Y56967D01*
X48662Y57299D01*
D02*
G37*
G36*
X34883D02*
X34015D01*
X33213Y56967D01*
X32600Y56354D01*
X32268Y55552D01*
Y54684D01*
X32600Y53883D01*
X33213Y53269D01*
X34015Y52937D01*
X34883D01*
X35684Y53269D01*
X36298Y53883D01*
X36630Y54684D01*
Y55552D01*
X36298Y56354D01*
X35684Y56967D01*
X34883Y57299D01*
D02*
G37*
G36*
X21661Y59838D02*
X20465D01*
X19309Y59529D01*
X18274Y58931D01*
X17428Y58085D01*
X16829Y57049D01*
X16520Y55893D01*
Y54697D01*
X16829Y53541D01*
X17428Y52506D01*
X18274Y51660D01*
X19309Y51061D01*
X20465Y50752D01*
X21661D01*
X22817Y51061D01*
X23853Y51660D01*
X24699Y52506D01*
X25297Y53541D01*
X25607Y54697D01*
Y55893D01*
X25297Y57049D01*
X24699Y58085D01*
X23853Y58931D01*
X22817Y59529D01*
X21661Y59838D01*
D02*
G37*
G36*
X11661D02*
X10465D01*
X9310Y59529D01*
X8274Y58931D01*
X7428Y58085D01*
X6830Y57049D01*
X6520Y55893D01*
Y54697D01*
X6830Y53541D01*
X7428Y52506D01*
X8274Y51660D01*
X9310Y51061D01*
X10465Y50752D01*
X11661D01*
X12817Y51061D01*
X13853Y51660D01*
X14699Y52506D01*
X15297Y53541D01*
X15607Y54697D01*
Y55893D01*
X15297Y57049D01*
X14699Y58085D01*
X13853Y58931D01*
X12817Y59529D01*
X11661Y59838D01*
D02*
G37*
G36*
X27993Y43520D02*
X27125D01*
X26324Y43188D01*
X25710Y42574D01*
X25378Y41772D01*
Y40905D01*
X25710Y40103D01*
X26324Y39489D01*
X27125Y39158D01*
X27993D01*
X28795Y39489D01*
X29408Y40103D01*
X29740Y40905D01*
Y41772D01*
X29408Y42574D01*
X28795Y43188D01*
X27993Y43520D01*
D02*
G37*
G36*
X14213D02*
X13346D01*
X12544Y43188D01*
X11930Y42574D01*
X11598Y41772D01*
Y40905D01*
X11930Y40103D01*
X12544Y39489D01*
X13346Y39158D01*
X14213D01*
X15015Y39489D01*
X15629Y40103D01*
X15961Y40905D01*
Y41772D01*
X15629Y42574D01*
X15015Y43188D01*
X14213Y43520D01*
D02*
G37*
G36*
X75342Y46413D02*
X74265D01*
X73224Y46135D01*
X72291Y45596D01*
X71530Y44835D01*
X70991Y43902D01*
X70713Y42861D01*
Y41784D01*
X70991Y40744D01*
X71530Y39811D01*
X72291Y39050D01*
X73224Y38511D01*
X74265Y38232D01*
X75342D01*
X76382Y38511D01*
X77315Y39050D01*
X78076Y39811D01*
X78615Y40744D01*
X78894Y41784D01*
Y42861D01*
X78615Y43902D01*
X78076Y44835D01*
X77315Y45596D01*
X76382Y46135D01*
X75342Y46413D01*
D02*
G37*
G36*
X90001Y29740D02*
X89133D01*
X88331Y29408D01*
X87718Y28795D01*
X87386Y27993D01*
Y27125D01*
X87718Y26324D01*
X88331Y25710D01*
X89133Y25378D01*
X90001D01*
X90802Y25710D01*
X91416Y26324D01*
X91748Y27125D01*
Y27993D01*
X91416Y28795D01*
X90802Y29408D01*
X90001Y29740D01*
D02*
G37*
G36*
X76221D02*
X75354D01*
X74552Y29408D01*
X73938Y28795D01*
X73606Y27993D01*
Y27125D01*
X73938Y26324D01*
X74552Y25710D01*
X75354Y25378D01*
X76221D01*
X77023Y25710D01*
X77636Y26324D01*
X77969Y27125D01*
Y27993D01*
X77636Y28795D01*
X77023Y29408D01*
X76221Y29740D01*
D02*
G37*
G36*
X21103D02*
X20235D01*
X19434Y29408D01*
X18820Y28795D01*
X18488Y27993D01*
Y27125D01*
X18820Y26324D01*
X19434Y25710D01*
X20235Y25378D01*
X21103D01*
X21905Y25710D01*
X22518Y26324D01*
X22850Y27125D01*
Y27993D01*
X22518Y28795D01*
X21905Y29408D01*
X21103Y29740D01*
D02*
G37*
G36*
X83111Y15961D02*
X82243D01*
X81442Y15629D01*
X80828Y15015D01*
X80496Y14213D01*
Y13346D01*
X80828Y12544D01*
X81442Y11930D01*
X82243Y11598D01*
X83111D01*
X83913Y11930D01*
X84526Y12544D01*
X84858Y13346D01*
Y14213D01*
X84526Y15015D01*
X83913Y15629D01*
X83111Y15961D01*
D02*
G37*
G36*
X69332D02*
X68464D01*
X67662Y15629D01*
X67049Y15015D01*
X66716Y14213D01*
Y13346D01*
X67049Y12544D01*
X67662Y11930D01*
X68464Y11598D01*
X69332D01*
X70133Y11930D01*
X70747Y12544D01*
X71079Y13346D01*
Y14213D01*
X70747Y15015D01*
X70133Y15629D01*
X69332Y15961D01*
D02*
G37*
G36*
X14213D02*
X13346D01*
X12544Y15629D01*
X11930Y15015D01*
X11598Y14213D01*
Y13346D01*
X11930Y12544D01*
X12544Y11930D01*
X13346Y11598D01*
X14213D01*
X15015Y11930D01*
X15629Y12544D01*
X15961Y13346D01*
Y14213D01*
X15629Y15015D01*
X15015Y15629D01*
X14213Y15961D01*
D02*
G37*
G36*
X40611Y35449D02*
X38129D01*
X35679Y35061D01*
X33319Y34294D01*
X31108Y33167D01*
X29101Y31709D01*
X27346Y29954D01*
X25888Y27947D01*
X24761Y25736D01*
X23994Y23376D01*
X23606Y20926D01*
Y18444D01*
X23994Y15994D01*
X24761Y13634D01*
X25888Y11423D01*
X27346Y9416D01*
X29101Y7661D01*
X31108Y6203D01*
X33319Y5076D01*
X35679Y4309D01*
X38129Y3921D01*
X40611D01*
X43061Y4309D01*
X45421Y5076D01*
X47632Y6203D01*
X49639Y7661D01*
X51394Y9416D01*
X52852Y11423D01*
X53979Y13634D01*
X54746Y15994D01*
X55134Y18444D01*
Y20926D01*
X54746Y23376D01*
X53979Y25736D01*
X52852Y27947D01*
X51394Y29954D01*
X49639Y31709D01*
X47632Y33167D01*
X45421Y34294D01*
X43061Y35061D01*
X40611Y35449D01*
D02*
G37*
%LPD*%
D64*
X492126Y275590D02*
X531496Y236221D01*
X230315Y275590D02*
X492126D01*
X206693Y251969D02*
X230315Y275590D01*
X531496Y218504D02*
Y236221D01*
Y218504D02*
X534449Y215551D01*
Y206693D02*
Y215551D01*
D70*
X133140Y27860D02*
Y28591D01*
Y27860D02*
X134000Y27000D01*
D88*
X124016Y268701D02*
D03*
X642717Y129921D02*
D03*
X497047Y20669D02*
D03*
X74803Y42323D02*
D03*
Y20793D02*
D03*
X184055Y87598D02*
D03*
Y74803D02*
D03*
X369116Y24500D02*
D03*
X133500Y180200D02*
D03*
X203600Y159000D02*
D03*
X261400Y62300D02*
D03*
X633600Y206700D02*
D03*
X236303Y117700D02*
D03*
X595700Y112500D02*
D03*
X170276Y117700D02*
D03*
X647600Y104000D02*
D03*
X261258Y117700D02*
D03*
X248879D02*
D03*
D89*
X435654Y197972D02*
D03*
X414000Y186000D02*
D03*
X392346Y197972D02*
D03*
D90*
X571288Y30823D02*
D03*
X561288D02*
D03*
X551289Y20823D02*
D03*
X561288D02*
D03*
X571288Y10823D02*
D03*
Y20823D02*
D03*
X551289Y10823D02*
D03*
X561288D02*
D03*
X540816Y30823D02*
D03*
X530816D02*
D03*
X551289D02*
D03*
X520816Y20823D02*
D03*
Y30823D02*
D03*
X540816Y20823D02*
D03*
Y10823D02*
D03*
X530816D02*
D03*
Y20823D02*
D03*
X520816Y10823D02*
D03*
X21063Y70295D02*
D03*
X11063D02*
D03*
X647795Y68898D02*
D03*
Y58898D02*
D03*
Y78898D02*
D03*
X637795Y58898D02*
D03*
X627795D02*
D03*
Y68898D02*
D03*
Y78898D02*
D03*
X637795D02*
D03*
Y68898D02*
D03*
X11063Y55295D02*
D03*
X21063D02*
D03*
X559669Y242969D02*
D03*
X549669D02*
D03*
X569669D02*
D03*
X549669Y252969D02*
D03*
Y262968D02*
D03*
X559669D02*
D03*
X569669D02*
D03*
Y252969D02*
D03*
X559669D02*
D03*
X21063Y85295D02*
D03*
Y100295D02*
D03*
Y205295D02*
D03*
Y190295D02*
D03*
Y175295D02*
D03*
Y160295D02*
D03*
Y145295D02*
D03*
Y130295D02*
D03*
Y115295D02*
D03*
X11063Y130295D02*
D03*
Y160295D02*
D03*
Y190295D02*
D03*
Y205295D02*
D03*
Y175295D02*
D03*
Y145295D02*
D03*
Y115295D02*
D03*
Y100295D02*
D03*
Y85295D02*
D03*
D91*
X322000Y169307D02*
D03*
X333972Y147654D02*
D03*
X322000Y126000D02*
D03*
X322694Y75307D02*
D03*
X334666Y53654D02*
D03*
X322694Y32000D02*
D03*
D92*
X304000Y223000D02*
D03*
X289000D02*
D03*
X317892Y223627D02*
D03*
X331255D02*
D03*
D93*
X304000Y213000D02*
D03*
X289000D02*
D03*
X317892Y213627D02*
D03*
X331255D02*
D03*
D94*
X622500Y191500D02*
D03*
Y177720D02*
D03*
D95*
X435654Y217657D02*
D03*
X392346D02*
D03*
X414000Y227500D02*
D03*
X302315Y169307D02*
D03*
Y126000D02*
D03*
X292472Y147654D02*
D03*
X303009Y75307D02*
D03*
Y32000D02*
D03*
X293166Y53654D02*
D03*
D96*
X629921Y255906D02*
D03*
X629921Y19685D02*
D03*
X39370Y19685D02*
D03*
Y255906D02*
D03*
D97*
X21063Y220295D02*
D03*
X11063D02*
D03*
D98*
X647638Y261811D02*
D03*
Y234252D02*
D03*
Y206693D02*
D03*
Y179134D02*
D03*
X654528Y137795D02*
D03*
Y110236D02*
D03*
Y82677D02*
D03*
Y55118D02*
D03*
X647638Y41339D02*
D03*
X654528Y27559D02*
D03*
X647638Y13780D02*
D03*
X633858Y234252D02*
D03*
X640748Y220473D02*
D03*
Y192913D02*
D03*
Y137795D02*
D03*
Y110236D02*
D03*
X633858Y41339D02*
D03*
X620079Y234252D02*
D03*
X626969Y220473D02*
D03*
Y110236D02*
D03*
X620079Y41339D02*
D03*
X606299Y261811D02*
D03*
X613189Y248031D02*
D03*
X606299Y234252D02*
D03*
X613189Y220473D02*
D03*
Y55118D02*
D03*
Y27559D02*
D03*
X606299Y13780D02*
D03*
X592520Y261811D02*
D03*
X599410Y248031D02*
D03*
Y220473D02*
D03*
Y55118D02*
D03*
X592520Y41339D02*
D03*
X599410Y27559D02*
D03*
X592520Y13780D02*
D03*
X585630Y248031D02*
D03*
Y220473D02*
D03*
X578740Y41339D02*
D03*
X585630Y27559D02*
D03*
X578740Y13780D02*
D03*
X564961Y41339D02*
D03*
X558071Y55118D02*
D03*
X551181Y41339D02*
D03*
X537402Y261811D02*
D03*
Y234252D02*
D03*
X544291Y55118D02*
D03*
X537402Y41339D02*
D03*
X523622Y261811D02*
D03*
X530512Y248031D02*
D03*
Y82677D02*
D03*
Y55118D02*
D03*
X523622Y41339D02*
D03*
X509843Y234252D02*
D03*
X516732Y55118D02*
D03*
X509843Y41339D02*
D03*
X516732Y27559D02*
D03*
X509843Y13780D02*
D03*
X502953Y248031D02*
D03*
X496063Y234252D02*
D03*
X502953Y192913D02*
D03*
Y55118D02*
D03*
Y27559D02*
D03*
X496063Y13780D02*
D03*
X482284Y261811D02*
D03*
X489173Y248031D02*
D03*
X482284Y234252D02*
D03*
X489173Y220473D02*
D03*
X482284Y206693D02*
D03*
X489173Y165354D02*
D03*
Y82677D02*
D03*
Y55118D02*
D03*
X482284Y41339D02*
D03*
X489173Y27559D02*
D03*
X482284Y13780D02*
D03*
X468504Y261811D02*
D03*
X475394Y248031D02*
D03*
X468504Y234252D02*
D03*
X475394Y220473D02*
D03*
X468504Y206693D02*
D03*
X475394Y165354D02*
D03*
X468504Y151575D02*
D03*
X475394Y27559D02*
D03*
X468504Y13780D02*
D03*
X454725Y261811D02*
D03*
X461614Y248031D02*
D03*
Y220473D02*
D03*
Y192913D02*
D03*
X454725Y151575D02*
D03*
X461614Y110236D02*
D03*
Y82677D02*
D03*
Y27559D02*
D03*
X454725Y13780D02*
D03*
X440945Y261811D02*
D03*
X447835Y248031D02*
D03*
Y192913D02*
D03*
X440945Y151575D02*
D03*
X447835Y27559D02*
D03*
X440945Y13780D02*
D03*
X427165Y261811D02*
D03*
X434055Y248031D02*
D03*
X427165Y151575D02*
D03*
Y68898D02*
D03*
Y41339D02*
D03*
X434055Y27559D02*
D03*
X427165Y13780D02*
D03*
X413386Y261811D02*
D03*
X420276Y248031D02*
D03*
Y27559D02*
D03*
X413386Y13780D02*
D03*
X399606Y261811D02*
D03*
X406496Y248031D02*
D03*
Y27559D02*
D03*
X399606Y13780D02*
D03*
X385827Y261811D02*
D03*
X392717Y248031D02*
D03*
Y27559D02*
D03*
X385827Y13780D02*
D03*
X372047Y261811D02*
D03*
X378937Y248031D02*
D03*
Y192913D02*
D03*
Y27559D02*
D03*
X372047Y13780D02*
D03*
X358268Y261811D02*
D03*
X365158Y248031D02*
D03*
X358268Y234252D02*
D03*
Y13780D02*
D03*
X344488Y234252D02*
D03*
X351378Y220473D02*
D03*
X344488Y151575D02*
D03*
Y124016D02*
D03*
Y13780D02*
D03*
X337598Y220473D02*
D03*
X330709Y124016D02*
D03*
X337598Y27559D02*
D03*
X330709Y13780D02*
D03*
X316929Y151575D02*
D03*
Y68898D02*
D03*
X323819Y55118D02*
D03*
X316929Y13780D02*
D03*
X310039Y248031D02*
D03*
X303150Y13780D02*
D03*
X296260Y248031D02*
D03*
X289370Y13780D02*
D03*
X275591Y261811D02*
D03*
X282480Y220473D02*
D03*
Y192913D02*
D03*
X275591Y179134D02*
D03*
Y13780D02*
D03*
X268701Y192913D02*
D03*
X261811Y179134D02*
D03*
Y124016D02*
D03*
X268701Y110236D02*
D03*
X248031Y234252D02*
D03*
X254921Y192913D02*
D03*
X248031Y179134D02*
D03*
X254921Y165354D02*
D03*
X248031Y151575D02*
D03*
X254921Y110236D02*
D03*
X248031Y96457D02*
D03*
X241142Y248031D02*
D03*
Y220473D02*
D03*
X234252Y206693D02*
D03*
Y179134D02*
D03*
X241142Y165354D02*
D03*
X234252Y151575D02*
D03*
X241142Y110236D02*
D03*
X234252Y96457D02*
D03*
X220473Y234252D02*
D03*
Y206693D02*
D03*
X227362Y192913D02*
D03*
X220473Y124016D02*
D03*
X227362Y110236D02*
D03*
X220473Y96457D02*
D03*
Y68898D02*
D03*
X227362Y55118D02*
D03*
Y27559D02*
D03*
X206693Y234252D02*
D03*
X213583Y192913D02*
D03*
Y110236D02*
D03*
X206693Y96457D02*
D03*
Y68898D02*
D03*
X213583Y55118D02*
D03*
Y27559D02*
D03*
X199803Y248031D02*
D03*
X192913Y206693D02*
D03*
X199803Y110236D02*
D03*
X192913Y96457D02*
D03*
Y68898D02*
D03*
X199803Y55118D02*
D03*
X179134Y261811D02*
D03*
Y234252D02*
D03*
X186024Y220473D02*
D03*
X179134Y206693D02*
D03*
X186024Y192913D02*
D03*
X179134Y124016D02*
D03*
X186024Y110236D02*
D03*
X179134Y96457D02*
D03*
Y68898D02*
D03*
X186024Y55118D02*
D03*
X165354Y234252D02*
D03*
Y206693D02*
D03*
X172244Y192913D02*
D03*
X165354Y124016D02*
D03*
X172244Y110236D02*
D03*
X165354Y96457D02*
D03*
Y68898D02*
D03*
X172244Y55118D02*
D03*
X165354Y41339D02*
D03*
Y13780D02*
D03*
X151575Y261811D02*
D03*
X158465Y248031D02*
D03*
X151575Y234252D02*
D03*
X158465Y220473D02*
D03*
X151575Y206693D02*
D03*
Y151575D02*
D03*
Y96457D02*
D03*
X158465Y55118D02*
D03*
X151575Y41339D02*
D03*
X137795Y261811D02*
D03*
X144685Y248031D02*
D03*
X137795Y234252D02*
D03*
X144685Y220473D02*
D03*
X137795Y206693D02*
D03*
X144685Y192913D02*
D03*
Y165354D02*
D03*
X137795Y151575D02*
D03*
X144685Y110236D02*
D03*
Y55118D02*
D03*
X137795Y41339D02*
D03*
X124016Y261811D02*
D03*
X130905Y248031D02*
D03*
X124016Y234252D02*
D03*
X130905Y220473D02*
D03*
X124016Y151575D02*
D03*
Y124016D02*
D03*
X130905Y55118D02*
D03*
X124016Y41339D02*
D03*
Y13780D02*
D03*
X110236Y261811D02*
D03*
X117126Y248031D02*
D03*
X110236Y234252D02*
D03*
X117126Y220473D02*
D03*
X110236Y206693D02*
D03*
X117126Y192913D02*
D03*
Y165354D02*
D03*
Y110236D02*
D03*
Y82677D02*
D03*
X110236Y68898D02*
D03*
X117126Y55118D02*
D03*
X110236Y41339D02*
D03*
Y13780D02*
D03*
X216634Y176968D02*
D03*
X213583Y158661D02*
D03*
X210531Y152559D02*
D03*
X204429Y164764D02*
D03*
Y152559D02*
D03*
X198327Y164764D02*
D03*
X195275Y158661D02*
D03*
X198327Y152559D02*
D03*
X189173Y170866D02*
D03*
X192224Y164764D02*
D03*
Y152559D02*
D03*
X186122Y176968D02*
D03*
X183071Y170866D02*
D03*
X478347Y110236D02*
D03*
X452756Y196850D02*
D03*
X442913D02*
D03*
X423228D02*
D03*
X413386D02*
D03*
X408465Y167323D02*
D03*
X403543Y196850D02*
D03*
X398622Y187008D02*
D03*
Y167323D02*
D03*
X462598Y157480D02*
D03*
X447835Y167323D02*
D03*
X437992D02*
D03*
X468504Y114173D02*
D03*
X466536Y118110D02*
D03*
X433071Y114173D02*
D03*
X462599Y110236D02*
D03*
X428150Y167323D02*
D03*
X419292Y118110D02*
D03*
X418307Y167323D02*
D03*
X417323Y114173D02*
D03*
X427166Y110236D02*
D03*
X413386Y106299D02*
D03*
X401575Y114173D02*
D03*
X395670Y110236D02*
D03*
X411417D02*
D03*
X615158Y78740D02*
D03*
X460630Y78740D02*
D03*
X444882D02*
D03*
X462599Y74803D02*
D03*
X460630Y70866D02*
D03*
X442914Y74803D02*
D03*
X444882Y70866D02*
D03*
X429134Y106299D02*
D03*
Y78740D02*
D03*
X413386D02*
D03*
X427166Y74803D02*
D03*
X411417D02*
D03*
X429134Y70866D02*
D03*
X395670Y74803D02*
D03*
X191893Y258211D02*
D03*
Y253881D02*
D03*
X187563D02*
D03*
X183232Y258211D02*
D03*
X187563D02*
D03*
X183232Y253881D02*
D03*
X379922Y110236D02*
D03*
X159835Y28655D02*
D03*
X164165D02*
D03*
Y19993D02*
D03*
Y24324D02*
D03*
X159835Y19993D02*
D03*
Y24324D02*
D03*
X525591Y200787D02*
D03*
X611221Y194882D02*
D03*
X555118Y200787D02*
D03*
X617126Y194882D02*
D03*
X620079Y200787D02*
D03*
X633390Y205598D02*
D03*
X534449Y206693D02*
D03*
X608268Y212598D02*
D03*
X587598Y206693D02*
D03*
X628937D02*
D03*
Y194882D02*
D03*
X531496Y200787D02*
D03*
X605315Y206693D02*
D03*
X552165D02*
D03*
X631890Y200787D02*
D03*
X549213D02*
D03*
X608268D02*
D03*
X590551Y212598D02*
D03*
X623032Y206693D02*
D03*
X608268Y188976D02*
D03*
X561024Y200787D02*
D03*
X596457Y212598D02*
D03*
X522638Y206693D02*
D03*
X593504D02*
D03*
X614173Y188976D02*
D03*
X611221Y206693D02*
D03*
X614173Y200787D02*
D03*
X620079Y212598D02*
D03*
X617126Y206693D02*
D03*
X581693D02*
D03*
X625984Y200787D02*
D03*
X561024Y177165D02*
D03*
X625984Y212598D02*
D03*
X602362D02*
D03*
X546260Y206693D02*
D03*
X561024Y165354D02*
D03*
X519685Y200787D02*
D03*
X584646Y212598D02*
D03*
X599409Y206693D02*
D03*
X561024Y188976D02*
D03*
X578740Y212598D02*
D03*
X528543Y206693D02*
D03*
X543307Y200787D02*
D03*
X575787Y206693D02*
D03*
X540354D02*
D03*
X605315Y194882D02*
D03*
X602362Y200787D02*
D03*
X569882Y206693D02*
D03*
X537402Y200787D02*
D03*
X614173Y212598D02*
D03*
X447835Y226378D02*
D03*
X442913Y216535D02*
D03*
X437992Y226378D02*
D03*
X428150D02*
D03*
X423228Y216535D02*
D03*
X413386D02*
D03*
X408465Y226378D02*
D03*
X403543Y216535D02*
D03*
X398622Y226378D02*
D03*
X388779D02*
D03*
X468504Y137795D02*
D03*
Y129921D02*
D03*
X466536Y133858D02*
D03*
Y125984D02*
D03*
X452756Y129921D02*
D03*
X450788Y133858D02*
D03*
Y125984D02*
D03*
X417323Y129921D02*
D03*
X419292Y125984D02*
D03*
X401575Y137795D02*
D03*
Y129921D02*
D03*
X370079D02*
D03*
X478347Y98425D02*
D03*
X460630Y86614D02*
D03*
X444882Y94488D02*
D03*
Y86614D02*
D03*
X429134Y94488D02*
D03*
Y86614D02*
D03*
X427166Y98425D02*
D03*
X413386Y94488D02*
D03*
Y86614D02*
D03*
X411417Y98425D02*
D03*
Y90551D02*
D03*
X395670Y98425D02*
D03*
Y90551D02*
D03*
X379922Y98425D02*
D03*
Y90551D02*
D03*
X462599Y62992D02*
D03*
X460630Y59055D02*
D03*
X462599Y55118D02*
D03*
X460630Y51181D02*
D03*
X444882Y59055D02*
D03*
Y51181D02*
D03*
X442914Y55118D02*
D03*
X429134Y59055D02*
D03*
X427166Y62992D02*
D03*
Y55118D02*
D03*
X411417Y62992D02*
D03*
Y55118D02*
D03*
X395670Y62992D02*
D03*
Y55118D02*
D03*
X379922Y62992D02*
D03*
Y55118D02*
D03*
X466535Y129921D02*
D03*
X419291D02*
D03*
X413386Y94488D02*
D03*
X395669Y59055D02*
D03*
X366142Y141732D02*
D03*
Y118110D02*
D03*
Y94488D02*
D03*
X360236Y129921D02*
D03*
X354331Y118110D02*
D03*
X360236Y106299D02*
D03*
X354331Y94488D02*
D03*
X360236Y82677D02*
D03*
X354331Y70866D02*
D03*
X360236Y35433D02*
D03*
X348425Y153543D02*
D03*
Y129921D02*
D03*
X342520Y118110D02*
D03*
X348425Y106299D02*
D03*
X342520Y94488D02*
D03*
X348425Y82677D02*
D03*
X342520Y70866D02*
D03*
X348425Y59055D02*
D03*
X342520Y47244D02*
D03*
X348425Y35433D02*
D03*
X336614Y129921D02*
D03*
X330709Y118110D02*
D03*
X336614Y106299D02*
D03*
X330709Y94488D02*
D03*
X336614Y82677D02*
D03*
X330709Y70866D02*
D03*
Y47244D02*
D03*
X336614Y35433D02*
D03*
X324803Y153543D02*
D03*
X318898Y118110D02*
D03*
X324803Y106299D02*
D03*
X318898Y94488D02*
D03*
X324803Y82677D02*
D03*
Y59055D02*
D03*
X318898Y47244D02*
D03*
X312992Y153543D02*
D03*
Y129921D02*
D03*
X307086Y118110D02*
D03*
X312992Y106299D02*
D03*
X307086Y94488D02*
D03*
X312992Y82677D02*
D03*
X307086Y70866D02*
D03*
X312992Y59055D02*
D03*
X307086Y47244D02*
D03*
X312992Y35433D02*
D03*
X301181Y153543D02*
D03*
X295275Y118110D02*
D03*
X301181Y106299D02*
D03*
X295275Y94488D02*
D03*
X301181Y82677D02*
D03*
X295275Y70866D02*
D03*
X301181Y59055D02*
D03*
X295275Y47244D02*
D03*
X289370Y153543D02*
D03*
Y129921D02*
D03*
Y106299D02*
D03*
Y82677D02*
D03*
Y59055D02*
D03*
Y35433D02*
D03*
X602362Y149606D02*
D03*
X598425Y125984D02*
D03*
X594488Y149606D02*
D03*
X590552Y125984D02*
D03*
X586615Y149606D02*
D03*
X582678Y125984D02*
D03*
X578741Y149606D02*
D03*
X574803Y125984D02*
D03*
X566929D02*
D03*
X559055Y141732D02*
D03*
X562992Y133858D02*
D03*
X559055Y125984D02*
D03*
X551181D02*
D03*
X543307D02*
D03*
X547244Y118110D02*
D03*
X543307Y110236D02*
D03*
X535433Y125984D02*
D03*
X539370Y118110D02*
D03*
X535433Y110236D02*
D03*
X527559Y125984D02*
D03*
X531496Y118110D02*
D03*
X527559Y110236D02*
D03*
Y94488D02*
D03*
X519685Y125984D02*
D03*
X523622Y118110D02*
D03*
X519685Y110236D02*
D03*
X523622Y102362D02*
D03*
X519685Y94488D02*
D03*
X515748Y149606D02*
D03*
X511811Y141732D02*
D03*
X515748Y133858D02*
D03*
X511811Y125984D02*
D03*
X515748Y118110D02*
D03*
X511811Y110236D02*
D03*
X515748Y102362D02*
D03*
X511811Y94488D02*
D03*
X507874Y149606D02*
D03*
X503937Y141732D02*
D03*
X507874Y133858D02*
D03*
Y118110D02*
D03*
X503937Y110236D02*
D03*
X507874Y102362D02*
D03*
X503937Y94488D02*
D03*
X500000Y149606D02*
D03*
X496063Y141732D02*
D03*
X500000Y118110D02*
D03*
X496063Y110236D02*
D03*
X500000Y102362D02*
D03*
X496063Y94488D02*
D03*
X492126Y149606D02*
D03*
X488189Y141732D02*
D03*
Y125984D02*
D03*
X492126Y118110D02*
D03*
X488189Y110236D02*
D03*
X492126Y102362D02*
D03*
X488189Y94488D02*
D03*
X643701Y100394D02*
D03*
X646653Y94488D02*
D03*
X643701Y88583D02*
D03*
Y64961D02*
D03*
Y53150D02*
D03*
X637795Y100394D02*
D03*
X640748Y94488D02*
D03*
X637795Y88583D02*
D03*
Y53150D02*
D03*
X631890Y64961D02*
D03*
Y53150D02*
D03*
X625984D02*
D03*
X623031Y82677D02*
D03*
X620079Y76772D02*
D03*
Y64961D02*
D03*
Y53150D02*
D03*
X82677Y261811D02*
D03*
X89567Y248031D02*
D03*
X82677Y234252D02*
D03*
X89567Y220473D02*
D03*
X82677Y206693D02*
D03*
X89567Y192913D02*
D03*
Y165354D02*
D03*
X82677Y151575D02*
D03*
X89567Y137795D02*
D03*
X82677Y124016D02*
D03*
X89567Y110236D02*
D03*
X82677Y96457D02*
D03*
X89567Y82677D02*
D03*
Y55118D02*
D03*
Y27559D02*
D03*
X82677Y13780D02*
D03*
X68898Y261811D02*
D03*
X75787Y248031D02*
D03*
X68898Y234252D02*
D03*
X75787Y220473D02*
D03*
X68898Y206693D02*
D03*
X75787Y165354D02*
D03*
Y110236D02*
D03*
Y55118D02*
D03*
Y27559D02*
D03*
X68898Y13780D02*
D03*
X62008Y248031D02*
D03*
X55118Y234252D02*
D03*
X62008Y220473D02*
D03*
X55118Y206693D02*
D03*
X62008Y192913D02*
D03*
Y165354D02*
D03*
Y110236D02*
D03*
Y82677D02*
D03*
Y55118D02*
D03*
X41339Y234252D02*
D03*
X48228Y220473D02*
D03*
Y192913D02*
D03*
Y165354D02*
D03*
X41339Y151575D02*
D03*
X48228Y137795D02*
D03*
Y82677D02*
D03*
Y55118D02*
D03*
X27559Y234252D02*
D03*
X34449Y220473D02*
D03*
Y192913D02*
D03*
X27559Y179134D02*
D03*
X34449Y165354D02*
D03*
X27559Y151575D02*
D03*
X34449Y137795D02*
D03*
Y110236D02*
D03*
Y55118D02*
D03*
X27559Y41339D02*
D03*
X13780Y261811D02*
D03*
X20669Y248031D02*
D03*
X13780Y234252D02*
D03*
Y151575D02*
D03*
X20669Y137795D02*
D03*
X13780Y124016D02*
D03*
Y41339D02*
D03*
X20669Y27559D02*
D03*
X13780Y13780D02*
D03*
X270669Y68898D02*
D03*
X265748Y59055D02*
D03*
X270669Y49213D02*
D03*
X260827Y68898D02*
D03*
X255906Y59055D02*
D03*
X260827Y49213D02*
D03*
X250984Y68898D02*
D03*
X246063Y59055D02*
D03*
X250984Y49213D02*
D03*
X608267Y82677D02*
D03*
X602362Y94488D02*
D03*
Y82677D02*
D03*
X596456Y94488D02*
D03*
X599409Y88583D02*
D03*
X596456Y82677D02*
D03*
X593504Y100394D02*
D03*
X590551Y94488D02*
D03*
X593504Y88583D02*
D03*
X590551Y82677D02*
D03*
X593504Y76772D02*
D03*
X587598Y88583D02*
D03*
X584646Y82677D02*
D03*
X587598Y76772D02*
D03*
X581693Y88583D02*
D03*
X578740Y82677D02*
D03*
X581693Y76772D02*
D03*
X575787Y88583D02*
D03*
X572834Y82677D02*
D03*
X575787Y76772D02*
D03*
X569882Y88583D02*
D03*
X566929Y82677D02*
D03*
X569882Y76772D02*
D03*
X561023Y94488D02*
D03*
X563976Y88583D02*
D03*
X561023Y82677D02*
D03*
X563976Y76772D02*
D03*
D99*
X271904Y137211D02*
D03*
X249016Y143701D02*
D03*
X236221Y146885D02*
D03*
X112205Y180927D02*
D03*
X616142Y129921D02*
D03*
X206693Y251969D02*
D03*
X134000Y16824D02*
D03*
X154000Y103000D02*
D03*
X45000Y84000D02*
D03*
X51000Y114000D02*
D03*
X66000Y106000D02*
D03*
X39000Y139000D02*
D03*
X55000Y161000D02*
D03*
X76000Y194000D02*
D03*
X536000Y70000D02*
D03*
X568000Y151000D02*
D03*
X523000D02*
D03*
X491000Y176000D02*
D03*
X266000Y137332D02*
D03*
X267000Y161000D02*
D03*
X580000Y218774D02*
D03*
X229000Y238000D02*
D03*
X166000Y250000D02*
D03*
X138000Y71000D02*
D03*
X129000Y47000D02*
D03*
X513779Y261811D02*
D03*
X509842Y265748D02*
D03*
X590551Y232283D02*
D03*
X505905Y242126D02*
D03*
X490158Y261811D02*
D03*
Y265748D02*
D03*
X259842Y244179D02*
D03*
X623694Y131568D02*
D03*
X248031Y228346D02*
D03*
Y218504D02*
D03*
X111439Y192147D02*
D03*
X122122Y161122D02*
D03*
X127953Y107000D02*
D03*
X117000Y17000D02*
D03*
X133140Y28591D02*
D03*
X122118Y28622D02*
D03*
X584010Y59628D02*
D03*
X549213Y72835D02*
D03*
X523622Y62286D02*
D03*
X584646Y100394D02*
D03*
X561024D02*
D03*
X521654Y72835D02*
D03*
X488189Y68898D02*
D03*
X383858Y148728D02*
D03*
X366142Y157333D02*
D03*
X375984Y222441D02*
D03*
X362205D02*
D03*
X266668Y270734D02*
D03*
X175197Y266025D02*
D03*
X372047Y196850D02*
D03*
X137795Y146885D02*
D03*
X460630Y179134D02*
D03*
X133858Y127953D02*
D03*
X488189Y72835D02*
D03*
X490158Y76772D02*
D03*
X124016Y139764D02*
D03*
Y143701D02*
D03*
X137795Y82677D02*
D03*
X281496Y78740D02*
D03*
Y158233D02*
D03*
X543307Y210630D02*
D03*
X153543Y82677D02*
D03*
X277559D02*
D03*
Y161417D02*
D03*
X543307Y216412D02*
D03*
X257874Y238189D02*
D03*
X112205Y184327D02*
D03*
X614173Y120079D02*
D03*
X210630Y165354D02*
D03*
X468273Y192913D02*
D03*
X500000Y37402D02*
D03*
X338000Y229000D02*
D03*
X337000Y245000D02*
D03*
Y262000D02*
D03*
X278000Y247000D02*
D03*
X282000D02*
D03*
X285816D02*
D03*
X325000Y262000D02*
D03*
X311000D02*
D03*
X298000D02*
D03*
%TF.MD5,e9246b328d2a00ca7c79ba5609e50032*%
M02*
