%TF.GenerationSoftware,Altium Limited,Altium Designer,25.8.1 (18)*%
G04 Layer_Color=8421504*
%FSLAX25Y25*%
%MOIN*%
%TF.SameCoordinates,17BE7669-E97A-4B9E-895A-9DA5B281D005*%
%TF.FilePolarity,Positive*%
%TF.FileFunction,Paste,Top*%
%TF.Part,Single*%
G01*
G75*
%TA.AperFunction,SMDPad,CuDef*%
G04:AMPARAMS|DCode=10|XSize=78.74mil|YSize=78.74mil|CornerRadius=0mil|HoleSize=0mil|Usage=FLASHONLY|Rotation=0.000|XOffset=0mil|YOffset=0mil|HoleType=Round|Shape=RoundedRectangle|*
%AMROUNDEDRECTD10*
21,1,0.07874,0.07874,0,0,0.0*
21,1,0.07874,0.07874,0,0,0.0*
1,1,0.00000,0.03937,-0.03937*
1,1,0.00000,-0.03937,-0.03937*
1,1,0.00000,-0.03937,0.03937*
1,1,0.00000,0.03937,0.03937*
%
%ADD10ROUNDEDRECTD10*%
G04:AMPARAMS|DCode=11|XSize=59.06mil|YSize=59.06mil|CornerRadius=0mil|HoleSize=0mil|Usage=FLASHONLY|Rotation=0.000|XOffset=0mil|YOffset=0mil|HoleType=Round|Shape=RoundedRectangle|*
%AMROUNDEDRECTD11*
21,1,0.05906,0.05906,0,0,0.0*
21,1,0.05906,0.05906,0,0,0.0*
1,1,0.00000,0.02953,-0.02953*
1,1,0.00000,-0.02953,-0.02953*
1,1,0.00000,-0.02953,0.02953*
1,1,0.00000,0.02953,0.02953*
%
%ADD11ROUNDEDRECTD11*%
%ADD12R,0.04921X0.06890*%
%ADD13R,0.05927X0.07316*%
%ADD14O,0.05315X0.01181*%
%ADD15R,0.07874X0.06299*%
%ADD16R,0.07874X0.06496*%
%ADD17R,0.06890X0.04528*%
%ADD18R,0.04724X0.05709*%
%ADD19R,0.03740X0.07480*%
%ADD20R,0.06496X0.07874*%
%ADD21R,0.06704X0.10261*%
%ADD22R,0.10261X0.06704*%
%ADD23R,0.20079X0.14173*%
%ADD24O,0.05315X0.01968*%
%ADD25R,0.04528X0.06890*%
%ADD26O,0.05709X0.02362*%
%ADD27R,0.02800X0.01200*%
%ADD28R,0.06890X0.04921*%
%ADD29R,0.06614X0.07402*%
%ADD30R,0.12598X0.10236*%
%ADD31R,0.07316X0.05927*%
G04:AMPARAMS|DCode=32|XSize=27.56mil|YSize=45.28mil|CornerRadius=3.45mil|HoleSize=0mil|Usage=FLASHONLY|Rotation=180.000|XOffset=0mil|YOffset=0mil|HoleType=Round|Shape=RoundedRectangle|*
%AMROUNDEDRECTD32*
21,1,0.02756,0.03839,0,0,180.0*
21,1,0.02067,0.04528,0,0,180.0*
1,1,0.00689,-0.01034,0.01919*
1,1,0.00689,0.01034,0.01919*
1,1,0.00689,0.01034,-0.01919*
1,1,0.00689,-0.01034,-0.01919*
%
%ADD32ROUNDEDRECTD32*%
%ADD34R,0.06102X0.11614*%
%ADD35R,0.07284X0.05315*%
%ADD36R,0.05512X0.03937*%
%ADD37O,0.02362X0.05709*%
%ADD38R,0.12205X0.10236*%
%ADD39R,0.05315X0.07284*%
%ADD40R,0.07480X0.03740*%
%ADD41O,0.05709X0.01772*%
%ADD42O,0.10236X0.02756*%
%ADD43R,0.04921X0.07087*%
%ADD44R,0.07087X0.04921*%
G04:AMPARAMS|DCode=45|XSize=51.18mil|YSize=29.92mil|CornerRadius=3.74mil|HoleSize=0mil|Usage=FLASHONLY|Rotation=270.000|XOffset=0mil|YOffset=0mil|HoleType=Round|Shape=RoundedRectangle|*
%AMROUNDEDRECTD45*
21,1,0.05118,0.02244,0,0,270.0*
21,1,0.04370,0.02992,0,0,270.0*
1,1,0.00748,-0.01122,-0.02185*
1,1,0.00748,-0.01122,0.02185*
1,1,0.00748,0.01122,0.02185*
1,1,0.00748,0.01122,-0.02185*
%
%ADD45ROUNDEDRECTD45*%
%ADD46O,0.06693X0.02362*%
%ADD47R,0.10236X0.12205*%
%ADD48R,0.05118X0.04331*%
%ADD49R,0.08071X0.13386*%
%ADD50R,0.03347X0.16339*%
%ADD52R,0.05512X0.07284*%
%ADD53R,0.05315X0.05709*%
%ADD54R,0.14173X0.20276*%
%ADD55R,0.39764X0.36221*%
%ADD59R,0.02800X0.01600*%
%ADD165R,0.01890X0.05039*%
G36*
X568179Y226104D02*
X555179D01*
X555179Y233204D01*
X556379D01*
Y230804D01*
X558126D01*
Y233204D01*
X559326D01*
Y230804D01*
X561079D01*
Y233204D01*
X562279D01*
Y230804D01*
X564032D01*
Y233204D01*
X565232D01*
Y230804D01*
X566979D01*
Y233204D01*
X568179D01*
X568179Y226104D01*
D02*
G37*
G36*
X568179Y207956D02*
X566979D01*
Y210356D01*
X565232D01*
Y207956D01*
X564032D01*
Y210356D01*
X562279D01*
Y207956D01*
X561079D01*
Y210356D01*
X559326D01*
Y207956D01*
X558126D01*
Y210356D01*
X556379D01*
Y207956D01*
X555179D01*
X555179Y215056D01*
X568179D01*
X568179Y207956D01*
D02*
G37*
G36*
X558464Y97851D02*
X554527D01*
Y100055D01*
X558464D01*
Y97851D01*
D02*
G37*
G36*
X534595Y97654D02*
X533237D01*
Y100252D01*
X534595D01*
Y97654D01*
D02*
G37*
G36*
X549723Y96345D02*
X545471D01*
Y100144D01*
X549723D01*
Y96345D01*
D02*
G37*
G36*
X544684D02*
X540432D01*
Y100144D01*
X544684D01*
Y96345D01*
D02*
G37*
G36*
X539645D02*
X535393D01*
Y100144D01*
X539645D01*
Y96345D01*
D02*
G37*
G36*
X558680Y92929D02*
X557184D01*
Y95528D01*
X558680D01*
Y92929D01*
D02*
G37*
G36*
X534595D02*
X533237D01*
Y95528D01*
X534595D01*
Y92929D01*
D02*
G37*
G36*
X549723Y91758D02*
X545471D01*
Y95557D01*
X549723D01*
Y91758D01*
D02*
G37*
G36*
X544684D02*
X540432D01*
Y95557D01*
X544684D01*
Y91758D01*
D02*
G37*
G36*
X539645D02*
X535393D01*
Y95557D01*
X539645D01*
Y91758D01*
D02*
G37*
G36*
X558680Y88205D02*
X557184D01*
Y90803D01*
X558680D01*
Y88205D01*
D02*
G37*
G36*
X556397Y87536D02*
X554310D01*
Y95528D01*
X556397D01*
Y87536D01*
D02*
G37*
G36*
X558680Y83481D02*
X557184D01*
Y86079D01*
X558680D01*
Y83481D01*
D02*
G37*
G36*
X534595D02*
X533237D01*
Y86079D01*
X534595D01*
Y83481D01*
D02*
G37*
G36*
X549812Y83471D02*
X546013D01*
Y87191D01*
X549812D01*
Y83471D01*
D02*
G37*
G36*
X545235Y83392D02*
X540708D01*
Y87191D01*
X545235D01*
Y83392D01*
D02*
G37*
G36*
X539920D02*
X535393D01*
Y87191D01*
X539920D01*
Y83392D01*
D02*
G37*
G36*
X545235Y78805D02*
X540708D01*
Y82604D01*
X545235D01*
Y78805D01*
D02*
G37*
G36*
X539920D02*
X535393D01*
Y82604D01*
X539920D01*
Y78805D01*
D02*
G37*
G36*
X558680Y78756D02*
X557184D01*
Y81354D01*
X558680D01*
Y78756D01*
D02*
G37*
G36*
X556397D02*
X554310D01*
Y86748D01*
X556397D01*
Y78756D01*
D02*
G37*
G36*
X534595D02*
X533237D01*
Y81354D01*
X534595D01*
Y78756D01*
D02*
G37*
D10*
X205709Y263779D02*
D03*
D11*
X485236Y172244D02*
D03*
D12*
X128155Y100651D02*
D03*
X139375D02*
D03*
D13*
X127953Y112462D02*
D03*
X139578D02*
D03*
D14*
X468017Y185837D02*
D03*
Y183869D02*
D03*
Y177963D02*
D03*
Y181900D02*
D03*
X485536D02*
D03*
Y177963D02*
D03*
Y179932D02*
D03*
Y183869D02*
D03*
Y185837D02*
D03*
X468017Y179932D02*
D03*
D15*
X468530Y197172D02*
D03*
X497264Y87187D02*
D03*
X512736D02*
D03*
X484003Y197172D02*
D03*
D16*
X117000Y24193D02*
D03*
X140000Y23193D02*
D03*
X247392Y265711D02*
D03*
X234581D02*
D03*
X263000Y96807D02*
D03*
X140000Y34807D02*
D03*
X117000Y35807D02*
D03*
X263000Y85193D02*
D03*
X247392Y254096D02*
D03*
X234581D02*
D03*
X184000Y41670D02*
D03*
Y30056D02*
D03*
D17*
X166032Y254805D02*
D03*
X526246Y211624D02*
D03*
X516010D02*
D03*
X526246Y241660D02*
D03*
X516190D02*
D03*
X253338Y31610D02*
D03*
X128434Y34610D02*
D03*
Y23390D02*
D03*
X253338Y20390D02*
D03*
X166032Y266025D02*
D03*
X516190Y230440D02*
D03*
X526246D02*
D03*
X516010Y222844D02*
D03*
X526246D02*
D03*
D18*
X262720Y239186D02*
D03*
X270594D02*
D03*
D19*
X497012Y53000D02*
D03*
X510988D02*
D03*
X160649Y234573D02*
D03*
X174625D02*
D03*
D20*
X219106Y161666D02*
D03*
X230720D02*
D03*
X196295Y234573D02*
D03*
X184681D02*
D03*
D21*
X217930Y147476D02*
D03*
X184467Y160288D02*
D03*
X226203Y147476D02*
D03*
X176195Y160288D02*
D03*
D22*
X211154Y135054D02*
D03*
X195587D02*
D03*
X472134Y116864D02*
D03*
X472000Y144136D02*
D03*
X438866D02*
D03*
X455567Y116864D02*
D03*
X455433Y144136D02*
D03*
X439000Y116864D02*
D03*
X421795Y144136D02*
D03*
X405732D02*
D03*
X405866Y116864D02*
D03*
X422000D02*
D03*
X470136Y81417D02*
D03*
X469946Y107242D02*
D03*
X453570Y80271D02*
D03*
X453175Y107095D02*
D03*
X436820D02*
D03*
X436680Y80271D02*
D03*
X470000Y71136D02*
D03*
X452820Y70593D02*
D03*
X436253D02*
D03*
X420253Y107095D02*
D03*
X420451Y80271D02*
D03*
X403884D02*
D03*
X403847Y107095D02*
D03*
X419686Y70593D02*
D03*
X403847Y70431D02*
D03*
X470000Y43864D02*
D03*
X452472Y44769D02*
D03*
X420001Y44245D02*
D03*
X435568D02*
D03*
X403847Y43654D02*
D03*
X220392Y261194D02*
D03*
X389165Y144136D02*
D03*
X372599D02*
D03*
X211154Y126781D02*
D03*
X195587D02*
D03*
X389299Y116864D02*
D03*
X372711Y107095D02*
D03*
X388279Y80271D02*
D03*
Y107095D02*
D03*
X388279Y70593D02*
D03*
X372711Y70136D02*
D03*
Y80271D02*
D03*
X388279Y44061D02*
D03*
X372711Y42864D02*
D03*
X372732Y116864D02*
D03*
X472134Y125136D02*
D03*
X470000Y52136D02*
D03*
X389165Y135864D02*
D03*
X372711Y61864D02*
D03*
X455433Y135864D02*
D03*
X405732D02*
D03*
X436253Y62321D02*
D03*
X472000Y135864D02*
D03*
X420001Y52517D02*
D03*
X388279Y88544D02*
D03*
X436680D02*
D03*
X435568Y52517D02*
D03*
X469946Y98969D02*
D03*
X452472Y53042D02*
D03*
X438866Y135864D02*
D03*
X470000Y62864D02*
D03*
X453570Y88544D02*
D03*
X372599Y135864D02*
D03*
X389299Y125136D02*
D03*
X419686Y62321D02*
D03*
X452820D02*
D03*
X388279D02*
D03*
Y52333D02*
D03*
X403847Y62158D02*
D03*
Y51927D02*
D03*
X470136Y89689D02*
D03*
X420253Y98823D02*
D03*
X372711Y51136D02*
D03*
Y88544D02*
D03*
X421795Y135864D02*
D03*
X453175Y98823D02*
D03*
X388279D02*
D03*
X455567Y125136D02*
D03*
X403847Y98823D02*
D03*
X405866Y125136D02*
D03*
X439000D02*
D03*
X372711Y98823D02*
D03*
X422000Y125136D02*
D03*
X436820Y98823D02*
D03*
X403884Y88544D02*
D03*
X420451D02*
D03*
X372732Y125136D02*
D03*
X220392Y252921D02*
D03*
D23*
X202189Y176544D02*
D03*
Y218276D02*
D03*
D24*
X495747Y62663D02*
D03*
Y65222D02*
D03*
X513267Y62663D02*
D03*
Y65222D02*
D03*
Y70340D02*
D03*
Y72899D02*
D03*
Y67781D02*
D03*
Y75458D02*
D03*
X495747Y67781D02*
D03*
Y75458D02*
D03*
Y72899D02*
D03*
Y70340D02*
D03*
D25*
X185314Y147476D02*
D03*
X174094D02*
D03*
D26*
X151272Y21824D02*
D03*
Y26824D02*
D03*
X631282Y119684D02*
D03*
Y124684D02*
D03*
X151272Y31824D02*
D03*
X631282Y114684D02*
D03*
X609826Y124684D02*
D03*
X151272Y16824D02*
D03*
X172728Y31824D02*
D03*
Y26824D02*
D03*
Y21824D02*
D03*
Y16824D02*
D03*
X609826Y129684D02*
D03*
Y119684D02*
D03*
Y114684D02*
D03*
X631282Y129684D02*
D03*
D27*
X572899Y224321D02*
D03*
Y221958D02*
D03*
Y219399D02*
D03*
X550459Y227076D02*
D03*
Y221958D02*
D03*
Y219596D02*
D03*
Y217234D02*
D03*
Y214872D02*
D03*
X572899Y214872D02*
D03*
D28*
X626155Y151610D02*
D03*
X129921Y149901D02*
D03*
X508231Y176490D02*
D03*
X498176D02*
D03*
X626155Y140390D02*
D03*
X129921Y161122D02*
D03*
X522930Y78167D02*
D03*
Y66947D02*
D03*
X61000Y130610D02*
D03*
Y119390D02*
D03*
X508231Y187710D02*
D03*
X498176D02*
D03*
X50944Y120390D02*
D03*
Y131610D02*
D03*
D29*
X476776Y181900D02*
D03*
D30*
X499000Y159173D02*
D03*
X604745Y45827D02*
D03*
X499000Y130827D02*
D03*
X604745Y74173D02*
D03*
D31*
X615000Y152813D02*
D03*
Y141188D02*
D03*
D32*
X573500Y55429D02*
D03*
X568500D02*
D03*
X578500D02*
D03*
X583500D02*
D03*
X573709Y96693D02*
D03*
X578709D02*
D03*
X568709D02*
D03*
X583709D02*
D03*
D34*
X504507Y69060D02*
D03*
D35*
X484252Y51083D02*
D03*
X154100Y110396D02*
D03*
X127953Y71025D02*
D03*
X147638D02*
D03*
X484252Y63090D02*
D03*
X154100Y122403D02*
D03*
X127953Y83033D02*
D03*
X39370Y84547D02*
D03*
Y96555D02*
D03*
Y131988D02*
D03*
Y119980D02*
D03*
X55000Y165996D02*
D03*
Y178004D02*
D03*
X147638Y83033D02*
D03*
D36*
X351442Y248682D02*
D03*
Y265252D02*
D03*
Y232112D02*
D03*
Y215543D02*
D03*
Y208062D02*
D03*
Y257772D02*
D03*
Y224632D02*
D03*
X342780Y261512D02*
D03*
Y244942D02*
D03*
X351442Y241202D02*
D03*
X342780Y228372D02*
D03*
Y211802D02*
D03*
D37*
X195062Y266775D02*
D03*
X190062D02*
D03*
X185063D02*
D03*
X180062Y245318D02*
D03*
X195062D02*
D03*
X180062Y266775D02*
D03*
X190062Y245318D02*
D03*
X185063D02*
D03*
D38*
X187563Y256046D02*
D03*
D39*
X158000Y214000D02*
D03*
X170008D02*
D03*
D40*
X125984Y213681D02*
D03*
X113566D02*
D03*
X184000Y6024D02*
D03*
X113566Y199705D02*
D03*
X184000Y20000D02*
D03*
X125984Y199705D02*
D03*
X67418Y187469D02*
D03*
Y201446D02*
D03*
X54511Y187469D02*
D03*
Y201446D02*
D03*
D41*
X102919Y189628D02*
D03*
Y174510D02*
D03*
Y192147D02*
D03*
Y182069D02*
D03*
X81463Y192147D02*
D03*
Y189628D02*
D03*
Y187108D02*
D03*
Y184588D02*
D03*
Y182069D02*
D03*
Y179549D02*
D03*
Y177029D02*
D03*
Y174510D02*
D03*
X102919Y187108D02*
D03*
Y179549D02*
D03*
Y177029D02*
D03*
Y184588D02*
D03*
D42*
X110728Y148584D02*
D03*
Y123584D02*
D03*
Y118584D02*
D03*
Y153584D02*
D03*
Y133584D02*
D03*
X74311Y118584D02*
D03*
Y123584D02*
D03*
Y128584D02*
D03*
Y133584D02*
D03*
Y138584D02*
D03*
Y143584D02*
D03*
Y148584D02*
D03*
Y153584D02*
D03*
X110728Y138584D02*
D03*
Y143584D02*
D03*
Y128584D02*
D03*
D43*
X233980Y70000D02*
D03*
X244020D02*
D03*
D44*
X263000Y20980D02*
D03*
Y31020D02*
D03*
D45*
X260543Y12000D02*
D03*
X253496D02*
D03*
D46*
X111417Y85277D02*
D03*
Y100277D02*
D03*
X73622D02*
D03*
Y95277D02*
D03*
Y90277D02*
D03*
Y85277D02*
D03*
X111417Y95277D02*
D03*
Y90277D02*
D03*
D47*
X162000Y24324D02*
D03*
D48*
X304000Y261822D02*
D03*
Y253554D02*
D03*
X318000Y261822D02*
D03*
X331000Y261134D02*
D03*
X289000Y261134D02*
D03*
Y252866D02*
D03*
X318000Y253554D02*
D03*
X331000Y252866D02*
D03*
D49*
X629981Y93444D02*
D03*
X609706D02*
D03*
D50*
X572939Y139084D02*
D03*
X577939D02*
D03*
X587939D02*
D03*
X592939D02*
D03*
X597939D02*
D03*
X527843Y139126D02*
D03*
X532843D02*
D03*
X542843D02*
D03*
X547843D02*
D03*
X552843D02*
D03*
X537843D02*
D03*
X522843D02*
D03*
X567939Y139084D02*
D03*
X582939D02*
D03*
D52*
X260161Y249832D02*
D03*
Y228540D02*
D03*
X271184D02*
D03*
Y249832D02*
D03*
D53*
X262621Y217895D02*
D03*
X270298D02*
D03*
D54*
X239824Y38416D02*
D03*
X198879D02*
D03*
D55*
X582939Y177470D02*
D03*
X537843Y177512D02*
D03*
D59*
X550459Y230029D02*
D03*
Y211132D02*
D03*
X572899Y211132D02*
D03*
Y230029D02*
D03*
D165*
X548720Y78874D02*
D03*
%TF.MD5,9fd6b8f087f1f5498bf52bb47af5e2aa*%
M02*
