%TF.GenerationSoftware,Altium Limited,Altium Designer,26.1.1 (7)*%
G04 Layer_Color=8388736*
%FSLAX25Y25*%
%MOIN*%
%TF.SameCoordinates,3801EB1F-4696-4B9F-8F8F-D1DC1789FAA4*%
%TF.FilePolarity,Negative*%
%TF.FileFunction,Soldermask,Top*%
%TF.Part,Single*%
G01*
G75*
%TA.AperFunction,SMDPad,CuDef*%
%ADD10R,0.02800X0.01200*%
%ADD17R,0.07316X0.05927*%
%ADD18R,0.10261X0.06704*%
%ADD20R,0.04528X0.02756*%
%ADD28R,0.06704X0.10261*%
%ADD38R,0.05927X0.07316*%
%ADD53R,0.02362X0.05512*%
%ADD57R,0.02800X0.01600*%
%TA.AperFunction,ComponentPad*%
%ADD88C,0.06181*%
%TA.AperFunction,SMDPad,CuDef*%
%ADD111R,0.07690X0.05328*%
%ADD112R,0.07690X0.05721*%
%ADD113O,0.06509X0.03162*%
%ADD114R,0.07014X0.07802*%
%ADD115O,0.05715X0.01581*%
%ADD116R,0.13398X0.11036*%
G04:AMPARAMS|DCode=117|XSize=35.56mil|YSize=53.28mil|CornerRadius=7.45mil|HoleSize=0mil|Usage=FLASHONLY|Rotation=180.000|XOffset=0mil|YOffset=0mil|HoleType=Round|Shape=RoundedRectangle|*
%AMROUNDEDRECTD117*
21,1,0.03556,0.03839,0,0,180.0*
21,1,0.02067,0.05328,0,0,180.0*
1,1,0.01489,-0.01034,0.01919*
1,1,0.01489,0.01034,0.01919*
1,1,0.01489,0.01034,-0.01919*
1,1,0.01489,-0.01034,-0.01919*
%
%ADD117ROUNDEDRECTD117*%
%ADD118R,0.06302X0.11814*%
%ADD119O,0.05515X0.02169*%
%ADD120R,0.04540X0.08280*%
%ADD121R,0.08083X0.06115*%
%ADD122R,0.06312X0.04737*%
%ADD123R,0.08674X0.07296*%
%ADD124R,0.07296X0.08674*%
%ADD125O,0.03162X0.06509*%
%ADD126R,0.13005X0.11036*%
%ADD127R,0.06115X0.08083*%
%ADD128R,0.08280X0.04540*%
%ADD129O,0.05909X0.01972*%
%ADD130O,0.11036X0.03556*%
%ADD131R,0.05721X0.07887*%
%ADD132R,0.07887X0.05721*%
G04:AMPARAMS|DCode=133|XSize=59.18mil|YSize=37.92mil|CornerRadius=7.74mil|HoleSize=0mil|Usage=FLASHONLY|Rotation=270.000|XOffset=0mil|YOffset=0mil|HoleType=Round|Shape=RoundedRectangle|*
%AMROUNDEDRECTD133*
21,1,0.05918,0.02244,0,0,270.0*
21,1,0.04370,0.03792,0,0,270.0*
1,1,0.01548,-0.01122,-0.02185*
1,1,0.01548,-0.01122,0.02185*
1,1,0.01548,0.01122,0.02185*
1,1,0.01548,0.01122,-0.02185*
%
%ADD133ROUNDEDRECTD133*%
%ADD134R,0.05721X0.07690*%
%ADD135O,0.07493X0.03162*%
%ADD136R,0.11036X0.13005*%
%ADD137R,0.04147X0.17139*%
G04:AMPARAMS|DCode=138|XSize=47.37mil|YSize=47.37mil|CornerRadius=0mil|HoleSize=0mil|Usage=FLASHONLY|Rotation=180.000|XOffset=0mil|YOffset=0mil|HoleType=Round|Shape=RoundedRectangle|*
%AMROUNDEDRECTD138*
21,1,0.04737,0.04737,0,0,180.0*
21,1,0.04737,0.04737,0,0,180.0*
1,1,0.00000,-0.02368,0.02368*
1,1,0.00000,0.02368,0.02368*
1,1,0.00000,0.02368,-0.02368*
1,1,0.00000,-0.02368,-0.02368*
%
%ADD138ROUNDEDRECTD138*%
%ADD139R,0.40564X0.37021*%
%TA.AperFunction,FiducialPad,Global*%
%ADD140C,0.07874*%
%TA.AperFunction,SMDPad,CuDef*%
%ADD141R,0.05328X0.07690*%
%ADD142R,0.06312X0.08083*%
%ADD143R,0.06115X0.06509*%
%ADD144R,0.14973X0.21076*%
%ADD145R,0.05918X0.05131*%
%ADD146R,0.08871X0.14186*%
%ADD147R,0.08674X0.07099*%
%ADD148R,0.20879X0.14973*%
%ADD149R,0.05524X0.06509*%
%TA.AperFunction,ComponentPad*%
%ADD150R,0.08674X0.08674*%
%ADD151C,0.07887*%
%ADD152R,0.08674X0.08674*%
G04:AMPARAMS|DCode=153|XSize=70.99mil|YSize=70.99mil|CornerRadius=19.75mil|HoleSize=0mil|Usage=FLASHONLY|Rotation=270.000|XOffset=0mil|YOffset=0mil|HoleType=Round|Shape=RoundedRectangle|*
%AMROUNDEDRECTD153*
21,1,0.07099,0.03150,0,0,270.0*
21,1,0.03150,0.07099,0,0,270.0*
1,1,0.03950,-0.01575,-0.01575*
1,1,0.03950,-0.01575,0.01575*
1,1,0.03950,0.01575,0.01575*
1,1,0.03950,0.01575,-0.01575*
%
%ADD153ROUNDEDRECTD153*%
%ADD154C,0.07099*%
%ADD155C,0.06800*%
%ADD156C,0.08674*%
%ADD157C,0.30328*%
G04:AMPARAMS|DCode=158|XSize=78.87mil|YSize=78.87mil|CornerRadius=21.72mil|HoleSize=0mil|Usage=FLASHONLY|Rotation=270.000|XOffset=0mil|YOffset=0mil|HoleType=Round|Shape=RoundedRectangle|*
%AMROUNDEDRECTD158*
21,1,0.07887,0.03543,0,0,270.0*
21,1,0.03543,0.07887,0,0,270.0*
1,1,0.04343,-0.01772,-0.01772*
1,1,0.04343,-0.01772,0.01772*
1,1,0.04343,0.01772,0.01772*
1,1,0.04343,0.01772,-0.01772*
%
%ADD158ROUNDEDRECTD158*%
%TA.AperFunction,ViaPad*%
%ADD159C,0.03162*%
%ADD160C,0.03200*%
G36*
X572669Y239968D02*
X546669D01*
Y265968D01*
X572669D01*
Y239968D01*
D02*
G37*
G36*
X568231Y233602D02*
X568283Y233592D01*
X568332Y233575D01*
X568379Y233552D01*
X568423Y233522D01*
X568463Y233488D01*
X568497Y233448D01*
X568526Y233405D01*
X568549Y233358D01*
X568566Y233308D01*
X568576Y233257D01*
X568580Y233204D01*
X568580Y226104D01*
X568576Y226052D01*
X568566Y226001D01*
X568549Y225951D01*
X568526Y225904D01*
X568497Y225860D01*
X568463Y225821D01*
X568423Y225786D01*
X568379Y225757D01*
X568332Y225734D01*
X568283Y225717D01*
X568231Y225707D01*
X568179Y225704D01*
X555179D01*
X555127Y225707D01*
X555075Y225717D01*
X555026Y225734D01*
X554979Y225757D01*
X554935Y225786D01*
X554896Y225821D01*
X554861Y225860D01*
X554832Y225904D01*
X554809Y225951D01*
X554792Y226001D01*
X554782Y226052D01*
X554778Y226104D01*
X554778Y233204D01*
X554782Y233257D01*
X554792Y233308D01*
X554809Y233358D01*
X554832Y233405D01*
X554861Y233448D01*
X554896Y233488D01*
X554935Y233522D01*
X554979Y233552D01*
X555026Y233575D01*
X555075Y233592D01*
X555127Y233602D01*
X555179Y233605D01*
X556379D01*
X556431Y233602D01*
X556483Y233592D01*
X556532Y233575D01*
X556579Y233552D01*
X556623Y233522D01*
X556663Y233488D01*
X556697Y233448D01*
X556726Y233405D01*
X556749Y233358D01*
X556766Y233308D01*
X556777Y233257D01*
X556780Y233204D01*
Y231205D01*
X557725D01*
Y233204D01*
X557729Y233257D01*
X557739Y233308D01*
X557756Y233358D01*
X557779Y233405D01*
X557808Y233448D01*
X557843Y233488D01*
X557882Y233522D01*
X557926Y233552D01*
X557973Y233575D01*
X558022Y233592D01*
X558074Y233602D01*
X558126Y233605D01*
X559326D01*
X559379Y233602D01*
X559430Y233592D01*
X559480Y233575D01*
X559527Y233552D01*
X559570Y233522D01*
X559610Y233488D01*
X559644Y233448D01*
X559673Y233405D01*
X559697Y233358D01*
X559714Y233308D01*
X559724Y233257D01*
X559727Y233204D01*
Y231205D01*
X560678D01*
Y233204D01*
X560682Y233257D01*
X560692Y233308D01*
X560709Y233358D01*
X560732Y233405D01*
X560761Y233448D01*
X560796Y233488D01*
X560835Y233522D01*
X560879Y233552D01*
X560926Y233575D01*
X560975Y233592D01*
X561027Y233602D01*
X561079Y233605D01*
X562279D01*
X562331Y233602D01*
X562383Y233592D01*
X562432Y233575D01*
X562479Y233552D01*
X562523Y233522D01*
X562563Y233488D01*
X562597Y233448D01*
X562626Y233405D01*
X562649Y233358D01*
X562666Y233308D01*
X562676Y233257D01*
X562680Y233204D01*
Y231205D01*
X563631D01*
Y233204D01*
X563634Y233257D01*
X563645Y233308D01*
X563661Y233358D01*
X563685Y233405D01*
X563714Y233448D01*
X563748Y233488D01*
X563788Y233522D01*
X563831Y233552D01*
X563878Y233575D01*
X563928Y233592D01*
X563979Y233602D01*
X564032Y233605D01*
X565232D01*
X565284Y233602D01*
X565336Y233592D01*
X565385Y233575D01*
X565432Y233552D01*
X565476Y233522D01*
X565515Y233488D01*
X565550Y233448D01*
X565579Y233405D01*
X565602Y233358D01*
X565619Y233308D01*
X565629Y233257D01*
X565633Y233204D01*
Y231205D01*
X566578D01*
Y233204D01*
X566582Y233257D01*
X566592Y233308D01*
X566609Y233358D01*
X566632Y233405D01*
X566661Y233448D01*
X566696Y233488D01*
X566735Y233522D01*
X566779Y233552D01*
X566826Y233575D01*
X566875Y233592D01*
X566927Y233602D01*
X566979Y233605D01*
X568179D01*
X568231Y233602D01*
D02*
G37*
G36*
X568231Y215454D02*
X568283Y215443D01*
X568332Y215427D01*
X568379Y215404D01*
X568423Y215374D01*
X568463Y215340D01*
X568497Y215300D01*
X568526Y215257D01*
X568549Y215210D01*
X568566Y215160D01*
X568576Y215109D01*
X568580Y215056D01*
X568580Y207956D01*
X568576Y207904D01*
X568566Y207853D01*
X568549Y207803D01*
X568526Y207756D01*
X568497Y207712D01*
X568463Y207673D01*
X568423Y207638D01*
X568379Y207609D01*
X568332Y207586D01*
X568283Y207569D01*
X568231Y207559D01*
X568179Y207556D01*
X566979D01*
X566927Y207559D01*
X566875Y207569D01*
X566826Y207586D01*
X566779Y207609D01*
X566735Y207638D01*
X566696Y207673D01*
X566661Y207712D01*
X566632Y207756D01*
X566609Y207803D01*
X566592Y207853D01*
X566582Y207904D01*
X566578Y207956D01*
Y209956D01*
X565633D01*
Y207956D01*
X565629Y207904D01*
X565619Y207853D01*
X565602Y207803D01*
X565579Y207756D01*
X565550Y207712D01*
X565515Y207673D01*
X565476Y207638D01*
X565432Y207609D01*
X565385Y207586D01*
X565336Y207569D01*
X565284Y207559D01*
X565232Y207556D01*
X564032D01*
X563979Y207559D01*
X563928Y207569D01*
X563878Y207586D01*
X563831Y207609D01*
X563788Y207638D01*
X563748Y207673D01*
X563714Y207712D01*
X563685Y207756D01*
X563661Y207803D01*
X563645Y207853D01*
X563634Y207904D01*
X563631Y207956D01*
Y209956D01*
X562680D01*
Y207956D01*
X562676Y207904D01*
X562666Y207853D01*
X562649Y207803D01*
X562626Y207756D01*
X562597Y207712D01*
X562563Y207673D01*
X562523Y207638D01*
X562479Y207609D01*
X562432Y207586D01*
X562383Y207569D01*
X562331Y207559D01*
X562279Y207556D01*
X561079D01*
X561027Y207559D01*
X560975Y207569D01*
X560926Y207586D01*
X560879Y207609D01*
X560835Y207638D01*
X560796Y207673D01*
X560761Y207712D01*
X560732Y207756D01*
X560709Y207803D01*
X560692Y207853D01*
X560682Y207904D01*
X560678Y207956D01*
Y209956D01*
X559727D01*
Y207956D01*
X559724Y207904D01*
X559714Y207853D01*
X559697Y207803D01*
X559673Y207756D01*
X559644Y207712D01*
X559610Y207673D01*
X559570Y207638D01*
X559527Y207609D01*
X559480Y207586D01*
X559430Y207569D01*
X559379Y207559D01*
X559326Y207556D01*
X558126D01*
X558074Y207559D01*
X558022Y207569D01*
X557973Y207586D01*
X557926Y207609D01*
X557882Y207638D01*
X557843Y207673D01*
X557808Y207712D01*
X557779Y207756D01*
X557756Y207803D01*
X557739Y207853D01*
X557729Y207904D01*
X557725Y207956D01*
Y209956D01*
X556780D01*
Y207956D01*
X556776Y207904D01*
X556766Y207853D01*
X556749Y207803D01*
X556726Y207756D01*
X556697Y207712D01*
X556662Y207673D01*
X556623Y207638D01*
X556579Y207609D01*
X556532Y207586D01*
X556483Y207569D01*
X556431Y207559D01*
X556379Y207556D01*
X555179D01*
X555127Y207559D01*
X555075Y207569D01*
X555026Y207586D01*
X554979Y207609D01*
X554935Y207638D01*
X554896Y207673D01*
X554861Y207712D01*
X554832Y207756D01*
X554809Y207803D01*
X554792Y207853D01*
X554782Y207904D01*
X554778Y207956D01*
X554778Y215056D01*
X554782Y215109D01*
X554792Y215160D01*
X554809Y215210D01*
X554832Y215257D01*
X554861Y215300D01*
X554896Y215340D01*
X554935Y215374D01*
X554979Y215404D01*
X555026Y215427D01*
X555075Y215443D01*
X555127Y215454D01*
X555179Y215457D01*
X568179D01*
X568231Y215454D01*
D02*
G37*
G36*
X585146Y121602D02*
X585172Y121600D01*
X585198Y121598D01*
X585199Y121598D01*
X585199Y121598D01*
X585224Y121593D01*
X585250Y121588D01*
X585250Y121588D01*
X585250Y121588D01*
X585272Y121580D01*
X585299Y121571D01*
X585444Y121511D01*
X585469Y121499D01*
X585491Y121488D01*
X585491Y121488D01*
X585491Y121488D01*
X585509Y121476D01*
X585534Y121459D01*
X585535Y121459D01*
X585535Y121459D01*
X585559Y121438D01*
X585574Y121424D01*
X585574Y121424D01*
X585574Y121424D01*
X585574Y121424D01*
X585684Y121314D01*
X585684Y121314D01*
X585685Y121314D01*
X585685Y121314D01*
X585693Y121304D01*
X585719Y121274D01*
X585719Y121274D01*
X585719Y121274D01*
X585730Y121259D01*
X585748Y121231D01*
X585748Y121231D01*
X585748Y121231D01*
X585763Y121200D01*
X585771Y121184D01*
X585772Y121184D01*
X585772Y121184D01*
X585772Y121184D01*
X585831Y121039D01*
X585831Y121039D01*
X585831Y121039D01*
X585831Y121039D01*
X585838Y121019D01*
X585848Y120990D01*
X585848Y120990D01*
X585848Y120990D01*
X585854Y120962D01*
X585859Y120938D01*
X585859Y120938D01*
X585859Y120938D01*
X585860Y120915D01*
X585862Y120886D01*
X585862Y120808D01*
X585862Y120808D01*
X585862Y120807D01*
X585862Y115689D01*
X585862Y115689D01*
X585862Y115689D01*
X585862Y115610D01*
X585859Y115558D01*
X585856Y115545D01*
X585849Y115507D01*
X585832Y115457D01*
X585772Y115312D01*
X585760Y115290D01*
X585748Y115265D01*
X585748Y115265D01*
D01*
X585748Y115265D01*
X585719Y115222D01*
X585685Y115182D01*
X585685Y115182D01*
D01*
D01*
X585574Y115072D01*
X585574Y115072D01*
X585535Y115037D01*
X585535Y115037D01*
X585535Y115037D01*
X585520Y115027D01*
X585491Y115008D01*
X585491Y115008D01*
D01*
X585488Y115007D01*
X585444Y114985D01*
X585299Y114925D01*
X585299Y114925D01*
X585266Y114914D01*
X585250Y114908D01*
X585198Y114898D01*
X585146Y114894D01*
D01*
X585146D01*
X585068Y114895D01*
D01*
X584892Y114895D01*
X584882Y114891D01*
X584878Y114881D01*
X584878Y103484D01*
X584878Y103484D01*
X584878Y103484D01*
X584878Y103405D01*
X584876Y103370D01*
X584875Y103353D01*
Y103353D01*
X584875Y103353D01*
X584870Y103330D01*
X584864Y103302D01*
X584864Y103302D01*
D01*
X584863Y103298D01*
X584847Y103252D01*
X584787Y103108D01*
X584787Y103108D01*
X584787Y103108D01*
X584787Y103107D01*
X584779Y103090D01*
X584764Y103061D01*
X584764Y103060D01*
X584764Y103060D01*
X584752Y103042D01*
X584735Y103017D01*
X584735Y103017D01*
X584735Y103017D01*
X584706Y102985D01*
X584700Y102978D01*
X584700Y102978D01*
X584700Y102978D01*
X584700Y102977D01*
X584589Y102867D01*
X584563Y102844D01*
X584550Y102832D01*
X584550Y102832D01*
X584550Y102832D01*
X584523Y102814D01*
X584507Y102803D01*
X584507Y102803D01*
X584507Y102803D01*
X584486Y102793D01*
X584460Y102780D01*
X584315Y102720D01*
X584315Y102720D01*
X584315Y102720D01*
X584315Y102720D01*
X584292Y102713D01*
X584265Y102704D01*
X584265Y102703D01*
X584265Y102703D01*
X584241Y102699D01*
X584214Y102693D01*
X584214Y102693D01*
X584214Y102693D01*
X584189Y102692D01*
X584162Y102690D01*
X584083D01*
X568336Y102690D01*
X568257Y102690D01*
X568257D01*
X568257D01*
X568233Y102691D01*
X568205Y102693D01*
X568205Y102693D01*
X568205D01*
X568185Y102697D01*
X568154Y102703D01*
X568153Y102703D01*
X568153Y102703D01*
X568138Y102709D01*
X568104Y102720D01*
X568104Y102720D01*
X568104Y102720D01*
X567959Y102780D01*
X567959Y102780D01*
X567959Y102780D01*
X567937Y102791D01*
X567912Y102803D01*
X567912Y102803D01*
X567912Y102804D01*
X567890Y102818D01*
X567869Y102832D01*
X567869Y102832D01*
X567868Y102833D01*
X567848Y102850D01*
X567829Y102867D01*
X567829Y102867D01*
X567829Y102867D01*
X567718Y102978D01*
D01*
X567718Y102978D01*
X567694Y103005D01*
X567684Y103017D01*
X567684Y103017D01*
X567684Y103017D01*
X567666Y103043D01*
X567655Y103061D01*
X567655Y103061D01*
X567655Y103061D01*
X567645Y103081D01*
X567631Y103108D01*
X567631Y103108D01*
X567631Y103108D01*
X567571Y103253D01*
X567571Y103253D01*
X567571Y103253D01*
X567564Y103273D01*
X567555Y103302D01*
X567555Y103302D01*
X567555Y103302D01*
X567552Y103314D01*
X567544Y103354D01*
Y103354D01*
X567544Y103354D01*
X567543Y103382D01*
X567541Y103406D01*
Y103406D01*
Y103406D01*
X567541Y103484D01*
X567541Y114881D01*
X567537Y114890D01*
X567527Y114894D01*
X567352Y114894D01*
X567351Y114894D01*
X567351Y114894D01*
X567273Y114894D01*
X567252Y114896D01*
X567221Y114898D01*
X567221Y114898D01*
X567221D01*
X567169Y114908D01*
X567120Y114925D01*
X567120Y114925D01*
X566975Y114985D01*
X566942Y115001D01*
X566928Y115008D01*
X566928Y115008D01*
X566928Y115008D01*
X566900Y115026D01*
X566884Y115037D01*
X566884Y115037D01*
X566884Y115037D01*
X566862Y115056D01*
X566845Y115072D01*
X566734Y115182D01*
X566734Y115182D01*
X566734Y115182D01*
X566734Y115182D01*
X566730Y115187D01*
X566700Y115222D01*
X566700Y115222D01*
X566700Y115222D01*
X566681Y115250D01*
X566671Y115265D01*
X566671Y115265D01*
X566671Y115266D01*
X566658Y115290D01*
X566647Y115312D01*
X566587Y115457D01*
X566587Y115457D01*
X566587Y115457D01*
X566587Y115457D01*
X566577Y115487D01*
X566571Y115507D01*
X566571Y115507D01*
X566571Y115507D01*
X566565Y115533D01*
X566560Y115558D01*
Y115558D01*
X566560Y115558D01*
X566559Y115576D01*
X566557Y115610D01*
X566557Y115689D01*
X566557Y115689D01*
X566557Y115689D01*
X566557Y120807D01*
X566557Y120885D01*
Y120885D01*
Y120885D01*
X566558Y120911D01*
X566560Y120937D01*
X566560Y120937D01*
Y120938D01*
X566565Y120963D01*
X566570Y120989D01*
X566570Y120989D01*
X566570Y120989D01*
X566577Y121009D01*
X566587Y121038D01*
X566587Y121039D01*
X566587Y121039D01*
X566647Y121183D01*
X566647Y121184D01*
X566665Y121220D01*
X566670Y121230D01*
X566670Y121230D01*
X566670Y121230D01*
X566687Y121256D01*
X566699Y121274D01*
X566699Y121274D01*
X566699Y121274D01*
X566710Y121286D01*
X566734Y121313D01*
X566734Y121314D01*
D01*
X566845Y121424D01*
X566845Y121424D01*
X566845Y121424D01*
X566867Y121444D01*
X566884Y121459D01*
X566884Y121459D01*
X566884Y121459D01*
X566901Y121470D01*
X566928Y121488D01*
X566928Y121488D01*
X566928Y121488D01*
X566948Y121498D01*
X566975Y121511D01*
X566975Y121511D01*
X566975Y121511D01*
X567120Y121571D01*
X567120Y121571D01*
X567154Y121583D01*
X567169Y121588D01*
X567169Y121588D01*
X567169Y121588D01*
X567190Y121592D01*
X567221Y121598D01*
X567221Y121598D01*
X567221D01*
X567235Y121599D01*
X567273Y121602D01*
X567273D01*
X567273D01*
X567351Y121602D01*
X585068Y121602D01*
X585068Y121602D01*
X585068Y121602D01*
X585146Y121602D01*
D02*
G37*
G36*
X549901Y91669D02*
X535314D01*
Y100331D01*
X549901D01*
Y91669D01*
D02*
G37*
G36*
X584937Y80338D02*
X584963Y80336D01*
X584989Y80334D01*
X584989Y80334D01*
X584989Y80334D01*
X585015Y80329D01*
X585041Y80324D01*
X585041Y80324D01*
X585041Y80324D01*
X585063Y80317D01*
X585090Y80307D01*
X585235Y80247D01*
X585260Y80235D01*
X585282Y80224D01*
X585282Y80224D01*
X585282Y80224D01*
X585299Y80212D01*
X585325Y80195D01*
X585325Y80195D01*
X585325Y80195D01*
X585350Y80174D01*
X585365Y80160D01*
X585365Y80160D01*
X585365Y80160D01*
X585365Y80160D01*
X585475Y80050D01*
X585475Y80050D01*
X585475Y80050D01*
X585475Y80050D01*
X585484Y80040D01*
X585510Y80011D01*
X585510Y80010D01*
X585510Y80010D01*
X585520Y79995D01*
X585539Y79967D01*
X585539Y79967D01*
X585539Y79967D01*
X585554Y79936D01*
X585562Y79920D01*
X585562Y79920D01*
X585562Y79920D01*
X585562Y79920D01*
X585622Y79776D01*
X585622Y79776D01*
X585622Y79776D01*
X585622Y79775D01*
X585629Y79755D01*
X585639Y79726D01*
X585639Y79726D01*
X585639Y79726D01*
X585644Y79698D01*
X585649Y79675D01*
X585649Y79674D01*
X585649Y79674D01*
X585651Y79652D01*
X585653Y79622D01*
X585653Y79544D01*
X585653Y79544D01*
X585653Y79544D01*
X585653Y74425D01*
X585653Y74425D01*
X585653Y74425D01*
X585653Y74347D01*
X585649Y74294D01*
X585647Y74281D01*
X585639Y74243D01*
X585622Y74193D01*
X585562Y74049D01*
X585551Y74026D01*
X585539Y74001D01*
X585539Y74001D01*
D01*
X585539Y74001D01*
X585510Y73958D01*
X585475Y73918D01*
X585475Y73918D01*
D01*
D01*
X585365Y73808D01*
X585365Y73808D01*
X585325Y73773D01*
X585325Y73773D01*
X585325Y73773D01*
X585311Y73764D01*
X585282Y73744D01*
X585282Y73744D01*
D01*
X585279Y73743D01*
X585235Y73721D01*
X585090Y73661D01*
X585090Y73661D01*
X585057Y73650D01*
X585040Y73644D01*
X584989Y73634D01*
X584936Y73631D01*
D01*
X584936D01*
X584858Y73631D01*
D01*
X584683Y73631D01*
X584673Y73627D01*
X584669Y73617D01*
X584669Y62220D01*
X584669Y62220D01*
X584669Y62220D01*
X584669Y62142D01*
X584666Y62107D01*
X584665Y62089D01*
Y62089D01*
X584665Y62089D01*
X584660Y62066D01*
X584655Y62038D01*
X584655Y62038D01*
D01*
X584654Y62034D01*
X584638Y61988D01*
X584578Y61844D01*
X584578Y61844D01*
X584578Y61844D01*
X584578Y61844D01*
X584569Y61826D01*
X584555Y61797D01*
X584555Y61797D01*
X584555Y61797D01*
X584542Y61778D01*
X584526Y61753D01*
X584525Y61753D01*
X584525Y61753D01*
X584497Y61721D01*
X584491Y61714D01*
X584491Y61714D01*
X584491Y61714D01*
X584491Y61714D01*
X584380Y61603D01*
X584354Y61580D01*
X584341Y61569D01*
X584341Y61569D01*
X584341Y61569D01*
X584314Y61550D01*
X584297Y61540D01*
X584297Y61540D01*
X584297Y61540D01*
X584277Y61529D01*
X584250Y61516D01*
X584106Y61457D01*
X584106Y61457D01*
X584106Y61457D01*
X584105Y61457D01*
X584083Y61449D01*
X584056Y61440D01*
X584056Y61440D01*
X584056Y61440D01*
X584032Y61435D01*
X584005Y61430D01*
X584004Y61430D01*
X584004Y61430D01*
X583980Y61428D01*
X583952Y61426D01*
X583874D01*
X568126Y61426D01*
X568048Y61426D01*
X568048D01*
X568048D01*
X568023Y61428D01*
X567996Y61430D01*
X567996Y61430D01*
X567996D01*
X567976Y61434D01*
X567944Y61440D01*
X567944Y61440D01*
X567944Y61440D01*
X567928Y61445D01*
X567895Y61457D01*
X567894Y61457D01*
X567894Y61457D01*
X567750Y61516D01*
X567750Y61516D01*
X567750Y61516D01*
X567728Y61527D01*
X567703Y61540D01*
X567703Y61540D01*
X567703Y61540D01*
X567681Y61554D01*
X567659Y61569D01*
X567659Y61569D01*
X567659Y61569D01*
X567639Y61586D01*
X567620Y61603D01*
X567620Y61603D01*
X567620Y61603D01*
X567509Y61714D01*
D01*
X567509Y61714D01*
X567485Y61741D01*
X567474Y61753D01*
X567474Y61753D01*
X567474Y61753D01*
X567457Y61779D01*
X567445Y61797D01*
X567445Y61797D01*
X567445Y61797D01*
X567435Y61817D01*
X567422Y61844D01*
X567422Y61844D01*
X567422Y61844D01*
X567362Y61989D01*
X567362Y61989D01*
X567362Y61989D01*
X567355Y62010D01*
X567345Y62038D01*
X567345Y62039D01*
X567345Y62039D01*
X567343Y62050D01*
X567335Y62090D01*
Y62090D01*
X567335Y62090D01*
X567333Y62118D01*
X567332Y62142D01*
Y62142D01*
Y62142D01*
X567332Y62221D01*
X567331Y73617D01*
X567327Y73627D01*
X567318Y73631D01*
X567142Y73630D01*
X567142Y73630D01*
X567142Y73630D01*
X567064Y73630D01*
X567043Y73632D01*
X567011Y73634D01*
X567011Y73634D01*
X567011D01*
X566960Y73644D01*
X566910Y73661D01*
X566910Y73661D01*
X566765Y73721D01*
X566732Y73737D01*
X566719Y73744D01*
X566719Y73744D01*
X566718Y73744D01*
X566691Y73763D01*
X566675Y73773D01*
X566675Y73773D01*
X566675Y73773D01*
X566653Y73792D01*
X566636Y73808D01*
X566525Y73918D01*
X566525Y73919D01*
X566525Y73919D01*
X566525Y73919D01*
X566521Y73923D01*
X566490Y73958D01*
X566490Y73958D01*
X566490Y73958D01*
X566471Y73986D01*
X566461Y74001D01*
X566461Y74002D01*
X566461Y74002D01*
X566449Y74026D01*
X566438Y74049D01*
X566378Y74193D01*
X566378Y74193D01*
X566378Y74193D01*
X566378Y74193D01*
X566368Y74223D01*
X566361Y74243D01*
X566361Y74243D01*
X566361Y74243D01*
X566356Y74269D01*
X566351Y74294D01*
Y74294D01*
X566351Y74294D01*
X566350Y74312D01*
X566347Y74347D01*
X566347Y74425D01*
X566347Y74425D01*
X566347Y74425D01*
X566347Y79543D01*
X566347Y79621D01*
Y79621D01*
Y79621D01*
X566349Y79647D01*
X566351Y79673D01*
X566351Y79674D01*
Y79674D01*
X566356Y79699D01*
X566361Y79725D01*
X566361Y79725D01*
X566361Y79725D01*
X566368Y79745D01*
X566378Y79775D01*
X566378Y79775D01*
X566378Y79775D01*
X566438Y79919D01*
X566438Y79920D01*
X566455Y79956D01*
X566461Y79967D01*
X566461Y79967D01*
X566461Y79967D01*
X566477Y79992D01*
X566490Y80010D01*
X566490Y80010D01*
X566490Y80010D01*
X566501Y80022D01*
X566524Y80050D01*
X566525Y80050D01*
D01*
X566635Y80160D01*
X566635Y80160D01*
X566635Y80161D01*
X566657Y80180D01*
X566675Y80195D01*
X566675Y80195D01*
X566675Y80195D01*
X566692Y80207D01*
X566718Y80224D01*
X566718Y80224D01*
X566718Y80224D01*
X566739Y80234D01*
X566765Y80247D01*
X566765Y80247D01*
X566765Y80247D01*
X566910Y80307D01*
X566910Y80308D01*
X566944Y80319D01*
X566960Y80324D01*
X566960Y80324D01*
X566960Y80324D01*
X566981Y80328D01*
X567011Y80335D01*
X567011Y80335D01*
X567011D01*
X567026Y80335D01*
X567064Y80338D01*
X567064D01*
X567064D01*
X567142Y80338D01*
X584858Y80338D01*
X584859Y80338D01*
X584859Y80338D01*
X584937Y80338D01*
D02*
G37*
G36*
X556987Y78677D02*
X554231D01*
Y95606D01*
X556987D01*
Y78677D01*
D02*
G37*
G36*
X549901Y83402D02*
X545629D01*
Y78677D01*
X535314D01*
Y87339D01*
X549901D01*
Y83402D01*
D02*
G37*
G36*
X650795Y55898D02*
X624795D01*
Y81898D01*
X650795D01*
Y55898D01*
D02*
G37*
G36*
X574289Y7823D02*
X548288D01*
Y33823D01*
X574289D01*
Y7823D01*
D02*
G37*
G36*
X543816D02*
X517816D01*
Y33823D01*
X543816D01*
Y7823D01*
D02*
G37*
D10*
X572899Y224321D02*
D03*
Y221958D02*
D03*
Y219399D02*
D03*
X550459Y227076D02*
D03*
Y221958D02*
D03*
Y219596D02*
D03*
Y217234D02*
D03*
Y214872D02*
D03*
X572899Y214872D02*
D03*
D17*
X615000Y152813D02*
D03*
Y141188D02*
D03*
D18*
X475953Y116976D02*
D03*
Y143801D02*
D03*
X442820D02*
D03*
X459387Y116976D02*
D03*
Y143801D02*
D03*
X442820Y116976D02*
D03*
X425749Y143801D02*
D03*
X409686D02*
D03*
Y116976D02*
D03*
X426253D02*
D03*
X470136Y81417D02*
D03*
X469946Y107242D02*
D03*
X453570Y80271D02*
D03*
X453175Y107095D02*
D03*
X436820D02*
D03*
X436680Y80271D02*
D03*
X470000Y71136D02*
D03*
X452820Y70593D02*
D03*
X436253D02*
D03*
X420253Y107095D02*
D03*
X420451Y80271D02*
D03*
X403884D02*
D03*
X403847Y107095D02*
D03*
X419686Y70593D02*
D03*
X403847Y70431D02*
D03*
X470000Y43864D02*
D03*
X452472Y44769D02*
D03*
X420001Y44245D02*
D03*
X435568D02*
D03*
X403847Y43654D02*
D03*
X220392Y261194D02*
D03*
X393119Y143801D02*
D03*
X376552D02*
D03*
X211154Y126781D02*
D03*
X195587D02*
D03*
X393119Y116976D02*
D03*
X376552D02*
D03*
X372711Y107095D02*
D03*
X388279Y80271D02*
D03*
Y107095D02*
D03*
X388279Y70593D02*
D03*
X372711Y70136D02*
D03*
Y80271D02*
D03*
X388279Y44061D02*
D03*
X372711Y42864D02*
D03*
X470000Y52136D02*
D03*
X393119Y135528D02*
D03*
X372711Y61864D02*
D03*
X459387Y135528D02*
D03*
X409686D02*
D03*
X436253Y62321D02*
D03*
X475953Y135528D02*
D03*
X420001Y52517D02*
D03*
X388279Y88544D02*
D03*
X436680D02*
D03*
X435568Y52517D02*
D03*
X469946Y98969D02*
D03*
X452472Y53042D02*
D03*
X442820Y135528D02*
D03*
X470000Y62864D02*
D03*
X453570Y88544D02*
D03*
X376552Y135528D02*
D03*
X393119Y125249D02*
D03*
X419686Y62321D02*
D03*
X452820D02*
D03*
X388279D02*
D03*
Y52333D02*
D03*
X403847Y62158D02*
D03*
Y51927D02*
D03*
X470136Y89689D02*
D03*
X420253Y98823D02*
D03*
X372711Y51136D02*
D03*
Y88544D02*
D03*
X425749Y135528D02*
D03*
X453175Y98823D02*
D03*
X388279D02*
D03*
X459387Y125249D02*
D03*
X403847Y98823D02*
D03*
X376552Y125249D02*
D03*
X409686D02*
D03*
X442820D02*
D03*
X372711Y98823D02*
D03*
X475953Y125249D02*
D03*
X426253D02*
D03*
X436820Y98823D02*
D03*
X403884Y88544D02*
D03*
X420451D02*
D03*
X220392Y252921D02*
D03*
X195587Y135054D02*
D03*
X211154D02*
D03*
D20*
X535432Y84780D02*
D03*
Y80055D02*
D03*
Y98953D02*
D03*
Y94229D02*
D03*
X556495D02*
D03*
Y80055D02*
D03*
Y84780D02*
D03*
Y89504D02*
D03*
Y98953D02*
D03*
D28*
X226203Y147476D02*
D03*
X176195Y160288D02*
D03*
X184467D02*
D03*
X217930Y147476D02*
D03*
D38*
X139578Y112462D02*
D03*
X127953D02*
D03*
D53*
X548720Y78874D02*
D03*
D57*
X550459Y230029D02*
D03*
Y211132D02*
D03*
X572899Y211132D02*
D03*
Y230029D02*
D03*
D88*
X124016Y268701D02*
D03*
X642717Y129921D02*
D03*
X497047Y20669D02*
D03*
X74803Y42323D02*
D03*
Y20793D02*
D03*
X184055Y87598D02*
D03*
Y74803D02*
D03*
X369116Y24500D02*
D03*
X133500Y180200D02*
D03*
X203600Y159000D02*
D03*
X261400Y62300D02*
D03*
X633600Y206700D02*
D03*
X236303Y117700D02*
D03*
X595700Y112500D02*
D03*
X170276Y117700D02*
D03*
X647600Y104000D02*
D03*
X261258Y117700D02*
D03*
X248879D02*
D03*
D111*
X526246Y211624D02*
D03*
X516010D02*
D03*
X516190Y241660D02*
D03*
X526246D02*
D03*
X253338Y31610D02*
D03*
X128434Y34610D02*
D03*
X166032Y254805D02*
D03*
X128434Y23390D02*
D03*
X253338Y20390D02*
D03*
X166032Y266025D02*
D03*
X516190Y230440D02*
D03*
X526246D02*
D03*
X516010Y222844D02*
D03*
X526246D02*
D03*
D112*
X626155Y151610D02*
D03*
X129921Y149901D02*
D03*
X522930Y78167D02*
D03*
Y66947D02*
D03*
X508231Y176490D02*
D03*
X498176D02*
D03*
X61000Y130610D02*
D03*
Y119390D02*
D03*
X626155Y140390D02*
D03*
X129921Y161122D02*
D03*
X508231Y187710D02*
D03*
X498176D02*
D03*
X50944Y120390D02*
D03*
Y131610D02*
D03*
D113*
X631282Y119684D02*
D03*
Y124684D02*
D03*
X151272Y31824D02*
D03*
Y26824D02*
D03*
Y21824D02*
D03*
Y16824D02*
D03*
X172728Y31824D02*
D03*
Y26824D02*
D03*
Y21824D02*
D03*
Y16824D02*
D03*
X609826Y129684D02*
D03*
Y119684D02*
D03*
X631282Y114684D02*
D03*
X609826D02*
D03*
X631282Y129684D02*
D03*
X609826Y124684D02*
D03*
D114*
X476776Y181900D02*
D03*
D115*
X468017Y183869D02*
D03*
Y177963D02*
D03*
Y181900D02*
D03*
X485536D02*
D03*
X468017Y185837D02*
D03*
X485536Y177963D02*
D03*
Y179932D02*
D03*
Y183869D02*
D03*
Y185837D02*
D03*
X468017Y179932D02*
D03*
D116*
X499000Y159173D02*
D03*
X604745Y45827D02*
D03*
X499000Y130827D02*
D03*
X604745Y74173D02*
D03*
D117*
X573500Y55429D02*
D03*
X568500D02*
D03*
X578500D02*
D03*
X583500D02*
D03*
X573709Y96693D02*
D03*
X578709D02*
D03*
X568709D02*
D03*
X583709D02*
D03*
D118*
X504507Y69060D02*
D03*
D119*
X513267Y62663D02*
D03*
Y65222D02*
D03*
Y70340D02*
D03*
Y72899D02*
D03*
Y67781D02*
D03*
Y75458D02*
D03*
X495747Y67781D02*
D03*
Y75458D02*
D03*
Y72899D02*
D03*
Y70340D02*
D03*
Y65222D02*
D03*
Y62663D02*
D03*
D120*
X510988Y53000D02*
D03*
X160649Y234573D02*
D03*
X497012Y53000D02*
D03*
X174625Y234573D02*
D03*
D121*
X484252Y51083D02*
D03*
X154100Y110396D02*
D03*
X147638Y71025D02*
D03*
X127953D02*
D03*
X484252Y63090D02*
D03*
X154100Y122403D02*
D03*
X127953Y83033D02*
D03*
X39370Y84547D02*
D03*
Y96555D02*
D03*
Y131988D02*
D03*
Y119980D02*
D03*
X55000Y165996D02*
D03*
Y178004D02*
D03*
X147638Y83033D02*
D03*
D122*
X351442Y248682D02*
D03*
Y265252D02*
D03*
Y232112D02*
D03*
Y215543D02*
D03*
Y208062D02*
D03*
Y257772D02*
D03*
Y224632D02*
D03*
X342780Y261512D02*
D03*
Y244942D02*
D03*
X351442Y241202D02*
D03*
X342780Y228372D02*
D03*
Y211802D02*
D03*
D123*
X247392Y265711D02*
D03*
X234581D02*
D03*
X263000Y96807D02*
D03*
X140000Y34807D02*
D03*
X117000Y35807D02*
D03*
X247392Y254096D02*
D03*
X234581D02*
D03*
X263000Y85193D02*
D03*
X184000Y41670D02*
D03*
Y30056D02*
D03*
X140000Y23193D02*
D03*
X117000Y24193D02*
D03*
D124*
X230720Y161666D02*
D03*
X219106D02*
D03*
X196295Y234573D02*
D03*
X184681D02*
D03*
D125*
X195062Y266775D02*
D03*
X190062D02*
D03*
X185063D02*
D03*
X180062Y245318D02*
D03*
X195062D02*
D03*
X180062Y266775D02*
D03*
X190062Y245318D02*
D03*
X185063D02*
D03*
D126*
X187563Y256046D02*
D03*
D127*
X158000Y214000D02*
D03*
X170008D02*
D03*
D128*
X126592Y208858D02*
D03*
X114173Y213681D02*
D03*
X184000Y6024D02*
D03*
X114173Y199705D02*
D03*
X184000Y20000D02*
D03*
X126592Y194882D02*
D03*
X67418Y185925D02*
D03*
Y199902D02*
D03*
X54511Y187469D02*
D03*
Y201446D02*
D03*
D129*
X102919Y189628D02*
D03*
Y174510D02*
D03*
Y182069D02*
D03*
Y192147D02*
D03*
X81463D02*
D03*
Y189628D02*
D03*
Y187108D02*
D03*
Y184588D02*
D03*
Y182069D02*
D03*
Y179549D02*
D03*
Y177029D02*
D03*
Y174510D02*
D03*
X102919Y187108D02*
D03*
Y179549D02*
D03*
Y177029D02*
D03*
Y184588D02*
D03*
D130*
X110728Y148584D02*
D03*
Y123584D02*
D03*
Y118584D02*
D03*
Y133584D02*
D03*
X74311Y118584D02*
D03*
Y123584D02*
D03*
Y128584D02*
D03*
Y133584D02*
D03*
Y138584D02*
D03*
Y143584D02*
D03*
Y148584D02*
D03*
Y153584D02*
D03*
X110728Y138584D02*
D03*
Y143584D02*
D03*
Y128584D02*
D03*
Y153584D02*
D03*
D131*
X233980Y70000D02*
D03*
X244020D02*
D03*
D132*
X263000Y20980D02*
D03*
Y31020D02*
D03*
D133*
X260543Y12000D02*
D03*
X253496D02*
D03*
D134*
X137500Y100651D02*
D03*
X126279D02*
D03*
D135*
X111417Y85277D02*
D03*
Y100277D02*
D03*
X73622D02*
D03*
Y95277D02*
D03*
Y90277D02*
D03*
Y85277D02*
D03*
X111417Y95277D02*
D03*
Y90277D02*
D03*
D136*
X162000Y24324D02*
D03*
D137*
X572939Y139084D02*
D03*
X577939D02*
D03*
X587939D02*
D03*
X592939D02*
D03*
X597939D02*
D03*
X527843Y139126D02*
D03*
X532843D02*
D03*
X542843D02*
D03*
X547843D02*
D03*
X552843D02*
D03*
X537843D02*
D03*
X522843D02*
D03*
X567939Y139084D02*
D03*
X582939D02*
D03*
D138*
X576209Y109390D02*
D03*
X576000Y68126D02*
D03*
D139*
X582939Y177470D02*
D03*
X537843Y177512D02*
D03*
D140*
X606299Y248031D02*
D03*
X19685Y265748D02*
D03*
X19685Y9843D02*
D03*
D141*
X174094Y147476D02*
D03*
X185314D02*
D03*
D142*
X260161Y249832D02*
D03*
Y228540D02*
D03*
X271184D02*
D03*
Y249832D02*
D03*
D143*
X262621Y217895D02*
D03*
X270298D02*
D03*
D144*
X239824Y38416D02*
D03*
X198879D02*
D03*
D145*
X304000Y253554D02*
D03*
Y261822D02*
D03*
X318000Y261822D02*
D03*
X331000Y261134D02*
D03*
X289000Y261134D02*
D03*
Y252866D02*
D03*
X318000Y253554D02*
D03*
X331000Y252866D02*
D03*
D146*
X629981Y93444D02*
D03*
X609706D02*
D03*
D147*
X512736Y87187D02*
D03*
X497264D02*
D03*
X468530Y197172D02*
D03*
X484003D02*
D03*
D148*
X202189Y176544D02*
D03*
Y218276D02*
D03*
D149*
X262720Y239186D02*
D03*
X270594D02*
D03*
D150*
X435654Y197972D02*
D03*
X414000Y186000D02*
D03*
X392346Y197972D02*
D03*
D151*
X571288Y30823D02*
D03*
X561288D02*
D03*
X551289Y20823D02*
D03*
X561288D02*
D03*
X571288Y10823D02*
D03*
Y20823D02*
D03*
X551289Y10823D02*
D03*
X561288D02*
D03*
X540816Y30823D02*
D03*
X530816D02*
D03*
X551289D02*
D03*
X520816Y20823D02*
D03*
Y30823D02*
D03*
X540816Y20823D02*
D03*
Y10823D02*
D03*
X530816D02*
D03*
Y20823D02*
D03*
X520816Y10823D02*
D03*
X21063Y70295D02*
D03*
X11063D02*
D03*
X647795Y68898D02*
D03*
Y58898D02*
D03*
Y78898D02*
D03*
X637795Y58898D02*
D03*
X627795D02*
D03*
Y68898D02*
D03*
Y78898D02*
D03*
X637795D02*
D03*
Y68898D02*
D03*
X11063Y55295D02*
D03*
X21063D02*
D03*
X559669Y242969D02*
D03*
X549669D02*
D03*
X569669D02*
D03*
X549669Y252969D02*
D03*
Y262968D02*
D03*
X559669D02*
D03*
X569669D02*
D03*
Y252969D02*
D03*
X559669D02*
D03*
X21063Y85295D02*
D03*
Y100295D02*
D03*
Y205295D02*
D03*
Y190295D02*
D03*
Y175295D02*
D03*
Y160295D02*
D03*
Y145295D02*
D03*
Y130295D02*
D03*
Y115295D02*
D03*
X11063Y130295D02*
D03*
Y160295D02*
D03*
Y190295D02*
D03*
Y205295D02*
D03*
Y175295D02*
D03*
Y145295D02*
D03*
Y115295D02*
D03*
Y100295D02*
D03*
Y85295D02*
D03*
D152*
X322000Y169307D02*
D03*
X333972Y147654D02*
D03*
X322000Y126000D02*
D03*
X322694Y75307D02*
D03*
X334666Y53654D02*
D03*
X322694Y32000D02*
D03*
D153*
X304000Y223000D02*
D03*
X289000D02*
D03*
X317892Y223627D02*
D03*
X331255D02*
D03*
D154*
X304000Y213000D02*
D03*
X289000D02*
D03*
X317892Y213627D02*
D03*
X331255D02*
D03*
D155*
X622500Y191500D02*
D03*
Y177720D02*
D03*
D156*
X435654Y217657D02*
D03*
X392346D02*
D03*
X414000Y227500D02*
D03*
X302315Y169307D02*
D03*
Y126000D02*
D03*
X292472Y147654D02*
D03*
X303009Y75307D02*
D03*
Y32000D02*
D03*
X293166Y53654D02*
D03*
D157*
X629921Y255906D02*
D03*
X629921Y19685D02*
D03*
X39370Y19685D02*
D03*
Y255906D02*
D03*
D158*
X21063Y220295D02*
D03*
X11063D02*
D03*
D159*
X647638Y261811D02*
D03*
Y234252D02*
D03*
Y206693D02*
D03*
Y179134D02*
D03*
X654528Y137795D02*
D03*
Y110236D02*
D03*
Y82677D02*
D03*
Y55118D02*
D03*
X647638Y41339D02*
D03*
X654528Y27559D02*
D03*
X647638Y13780D02*
D03*
X633858Y234252D02*
D03*
X640748Y220473D02*
D03*
Y192913D02*
D03*
Y137795D02*
D03*
Y110236D02*
D03*
X633858Y41339D02*
D03*
X620079Y234252D02*
D03*
X626969Y220473D02*
D03*
Y110236D02*
D03*
X620079Y41339D02*
D03*
X606299Y261811D02*
D03*
X613189Y248031D02*
D03*
X606299Y234252D02*
D03*
X613189Y220473D02*
D03*
Y55118D02*
D03*
Y27559D02*
D03*
X606299Y13780D02*
D03*
X592520Y261811D02*
D03*
X599410Y248031D02*
D03*
Y220473D02*
D03*
Y55118D02*
D03*
X592520Y41339D02*
D03*
X599410Y27559D02*
D03*
X592520Y13780D02*
D03*
X585630Y248031D02*
D03*
Y220473D02*
D03*
X578740Y41339D02*
D03*
X585630Y27559D02*
D03*
X578740Y13780D02*
D03*
X564961Y41339D02*
D03*
X558071Y55118D02*
D03*
X551181Y41339D02*
D03*
X537402Y261811D02*
D03*
Y234252D02*
D03*
X544291Y55118D02*
D03*
X537402Y41339D02*
D03*
X523622Y261811D02*
D03*
X530512Y248031D02*
D03*
Y82677D02*
D03*
Y55118D02*
D03*
X523622Y41339D02*
D03*
X509843Y234252D02*
D03*
X516732Y55118D02*
D03*
X509843Y41339D02*
D03*
X516732Y27559D02*
D03*
X509843Y13780D02*
D03*
X502953Y248031D02*
D03*
X496063Y234252D02*
D03*
X502953Y192913D02*
D03*
Y55118D02*
D03*
Y27559D02*
D03*
X496063Y13780D02*
D03*
X482284Y261811D02*
D03*
X489173Y248031D02*
D03*
X482284Y234252D02*
D03*
X489173Y220473D02*
D03*
X482284Y206693D02*
D03*
X489173Y165354D02*
D03*
Y82677D02*
D03*
Y55118D02*
D03*
X482284Y41339D02*
D03*
X489173Y27559D02*
D03*
X482284Y13780D02*
D03*
X468504Y261811D02*
D03*
X475394Y248031D02*
D03*
X468504Y234252D02*
D03*
X475394Y220473D02*
D03*
X468504Y206693D02*
D03*
X475394Y165354D02*
D03*
X468504Y151575D02*
D03*
X475394Y27559D02*
D03*
X468504Y13780D02*
D03*
X454725Y261811D02*
D03*
X461614Y248031D02*
D03*
Y220473D02*
D03*
Y192913D02*
D03*
X454725Y151575D02*
D03*
X461614Y110236D02*
D03*
Y82677D02*
D03*
Y27559D02*
D03*
X454725Y13780D02*
D03*
X440945Y261811D02*
D03*
X447835Y248031D02*
D03*
Y192913D02*
D03*
X440945Y151575D02*
D03*
X447835Y27559D02*
D03*
X440945Y13780D02*
D03*
X427165Y261811D02*
D03*
X434055Y248031D02*
D03*
X427165Y151575D02*
D03*
Y68898D02*
D03*
Y41339D02*
D03*
X434055Y27559D02*
D03*
X427165Y13780D02*
D03*
X413386Y261811D02*
D03*
X420276Y248031D02*
D03*
Y27559D02*
D03*
X413386Y13780D02*
D03*
X399606Y261811D02*
D03*
X406496Y248031D02*
D03*
Y27559D02*
D03*
X399606Y13780D02*
D03*
X385827Y261811D02*
D03*
X392717Y248031D02*
D03*
Y27559D02*
D03*
X385827Y13780D02*
D03*
X372047Y261811D02*
D03*
X378937Y248031D02*
D03*
Y192913D02*
D03*
Y27559D02*
D03*
X372047Y13780D02*
D03*
X358268Y261811D02*
D03*
X365158Y248031D02*
D03*
X358268Y234252D02*
D03*
Y13780D02*
D03*
X344488Y234252D02*
D03*
X351378Y220473D02*
D03*
X344488Y151575D02*
D03*
Y124016D02*
D03*
Y13780D02*
D03*
X337598Y220473D02*
D03*
X330709Y124016D02*
D03*
X337598Y27559D02*
D03*
X330709Y13780D02*
D03*
X316929Y151575D02*
D03*
Y68898D02*
D03*
X323819Y55118D02*
D03*
X316929Y13780D02*
D03*
X310039Y248031D02*
D03*
X303150Y13780D02*
D03*
X296260Y248031D02*
D03*
X289370Y13780D02*
D03*
X275591Y261811D02*
D03*
X282480Y220473D02*
D03*
Y192913D02*
D03*
X275591Y179134D02*
D03*
Y13780D02*
D03*
X268701Y192913D02*
D03*
X261811Y179134D02*
D03*
Y124016D02*
D03*
X268701Y110236D02*
D03*
X248031Y234252D02*
D03*
X254921Y192913D02*
D03*
X248031Y179134D02*
D03*
X254921Y165354D02*
D03*
X248031Y151575D02*
D03*
X254921Y110236D02*
D03*
X248031Y96457D02*
D03*
X241142Y248031D02*
D03*
Y220473D02*
D03*
X234252Y206693D02*
D03*
Y179134D02*
D03*
X241142Y165354D02*
D03*
X234252Y151575D02*
D03*
X241142Y110236D02*
D03*
X234252Y96457D02*
D03*
X220473Y234252D02*
D03*
Y206693D02*
D03*
X227362Y192913D02*
D03*
X220473Y124016D02*
D03*
X227362Y110236D02*
D03*
X220473Y96457D02*
D03*
Y68898D02*
D03*
X227362Y55118D02*
D03*
Y27559D02*
D03*
X206693Y234252D02*
D03*
X213583Y192913D02*
D03*
Y110236D02*
D03*
X206693Y96457D02*
D03*
Y68898D02*
D03*
X213583Y55118D02*
D03*
Y27559D02*
D03*
X199803Y248031D02*
D03*
X192913Y206693D02*
D03*
X199803Y110236D02*
D03*
X192913Y96457D02*
D03*
Y68898D02*
D03*
X199803Y55118D02*
D03*
X179134Y261811D02*
D03*
Y234252D02*
D03*
X186024Y220473D02*
D03*
X179134Y206693D02*
D03*
X186024Y192913D02*
D03*
X179134Y124016D02*
D03*
X186024Y110236D02*
D03*
X179134Y96457D02*
D03*
Y68898D02*
D03*
X186024Y55118D02*
D03*
X165354Y234252D02*
D03*
Y206693D02*
D03*
X172244Y192913D02*
D03*
X165354Y124016D02*
D03*
X172244Y110236D02*
D03*
X165354Y96457D02*
D03*
Y68898D02*
D03*
X172244Y55118D02*
D03*
X165354Y41339D02*
D03*
Y13780D02*
D03*
X151575Y261811D02*
D03*
X158465Y248031D02*
D03*
X151575Y234252D02*
D03*
X158465Y220473D02*
D03*
X151575Y206693D02*
D03*
Y151575D02*
D03*
Y96457D02*
D03*
X158465Y55118D02*
D03*
X151575Y41339D02*
D03*
X137795Y261811D02*
D03*
X144685Y248031D02*
D03*
X137795Y234252D02*
D03*
X144685Y220473D02*
D03*
X137795Y206693D02*
D03*
X144685Y192913D02*
D03*
Y165354D02*
D03*
X137795Y151575D02*
D03*
X144685Y110236D02*
D03*
Y55118D02*
D03*
X137795Y41339D02*
D03*
X124016Y261811D02*
D03*
X130905Y248031D02*
D03*
X124016Y234252D02*
D03*
X130905Y220473D02*
D03*
X124016Y151575D02*
D03*
Y124016D02*
D03*
X130905Y55118D02*
D03*
X124016Y41339D02*
D03*
Y13780D02*
D03*
X110236Y261811D02*
D03*
X117126Y248031D02*
D03*
X110236Y234252D02*
D03*
X117126Y220473D02*
D03*
X110236Y206693D02*
D03*
X117126Y192913D02*
D03*
Y165354D02*
D03*
Y110236D02*
D03*
Y82677D02*
D03*
X110236Y68898D02*
D03*
X117126Y55118D02*
D03*
X110236Y41339D02*
D03*
Y13780D02*
D03*
X216634Y176968D02*
D03*
X213583Y158661D02*
D03*
X210531Y152559D02*
D03*
X204429Y164764D02*
D03*
Y152559D02*
D03*
X198327Y164764D02*
D03*
X195275Y158661D02*
D03*
X198327Y152559D02*
D03*
X189173Y170866D02*
D03*
X192224Y164764D02*
D03*
Y152559D02*
D03*
X186122Y176968D02*
D03*
X183071Y170866D02*
D03*
X478347Y110236D02*
D03*
X452756Y196850D02*
D03*
X442913D02*
D03*
X423228D02*
D03*
X413386D02*
D03*
X408465Y167323D02*
D03*
X403543Y196850D02*
D03*
X398622Y187008D02*
D03*
Y167323D02*
D03*
X462598Y157480D02*
D03*
X447835Y167323D02*
D03*
X437992D02*
D03*
X468504Y114173D02*
D03*
X466536Y118110D02*
D03*
X433071Y114173D02*
D03*
X462599Y110236D02*
D03*
X428150Y167323D02*
D03*
X419292Y118110D02*
D03*
X418307Y167323D02*
D03*
X417323Y114173D02*
D03*
X427166Y110236D02*
D03*
X413386Y106299D02*
D03*
X401575Y114173D02*
D03*
X395670Y110236D02*
D03*
X411417D02*
D03*
X615158Y78740D02*
D03*
X460630Y78740D02*
D03*
X444882D02*
D03*
X462599Y74803D02*
D03*
X460630Y70866D02*
D03*
X442914Y74803D02*
D03*
X444882Y70866D02*
D03*
X429134Y106299D02*
D03*
Y78740D02*
D03*
X413386D02*
D03*
X427166Y74803D02*
D03*
X411417D02*
D03*
X429134Y70866D02*
D03*
X395670Y74803D02*
D03*
X191893Y258211D02*
D03*
Y253881D02*
D03*
X187563D02*
D03*
X183232Y258211D02*
D03*
X187563D02*
D03*
X183232Y253881D02*
D03*
X379922Y110236D02*
D03*
X159835Y28655D02*
D03*
X164165D02*
D03*
Y19993D02*
D03*
Y24324D02*
D03*
X159835Y19993D02*
D03*
Y24324D02*
D03*
X525591Y200787D02*
D03*
X611221Y194882D02*
D03*
X555118Y200787D02*
D03*
X617126Y194882D02*
D03*
X620079Y200787D02*
D03*
X633390Y205598D02*
D03*
X534449Y206693D02*
D03*
X608268Y212598D02*
D03*
X587598Y206693D02*
D03*
X628937D02*
D03*
Y194882D02*
D03*
X531496Y200787D02*
D03*
X605315Y206693D02*
D03*
X552165D02*
D03*
X631890Y200787D02*
D03*
X549213D02*
D03*
X608268D02*
D03*
X590551Y212598D02*
D03*
X623032Y206693D02*
D03*
X608268Y188976D02*
D03*
X561024Y200787D02*
D03*
X596457Y212598D02*
D03*
X522638Y206693D02*
D03*
X593504D02*
D03*
X614173Y188976D02*
D03*
X611221Y206693D02*
D03*
X614173Y200787D02*
D03*
X620079Y212598D02*
D03*
X617126Y206693D02*
D03*
X581693D02*
D03*
X625984Y200787D02*
D03*
X561024Y177165D02*
D03*
X625984Y212598D02*
D03*
X602362D02*
D03*
X546260Y206693D02*
D03*
X561024Y165354D02*
D03*
X519685Y200787D02*
D03*
X584646Y212598D02*
D03*
X599409Y206693D02*
D03*
X561024Y188976D02*
D03*
X578740Y212598D02*
D03*
X528543Y206693D02*
D03*
X543307Y200787D02*
D03*
X575787Y206693D02*
D03*
X540354D02*
D03*
X605315Y194882D02*
D03*
X602362Y200787D02*
D03*
X569882Y206693D02*
D03*
X537402Y200787D02*
D03*
X614173Y212598D02*
D03*
X447835Y226378D02*
D03*
X442913Y216535D02*
D03*
X437992Y226378D02*
D03*
X428150D02*
D03*
X423228Y216535D02*
D03*
X413386D02*
D03*
X408465Y226378D02*
D03*
X403543Y216535D02*
D03*
X398622Y226378D02*
D03*
X388779D02*
D03*
X468504Y137795D02*
D03*
Y129921D02*
D03*
X466536Y133858D02*
D03*
Y125984D02*
D03*
X452756Y129921D02*
D03*
X450788Y133858D02*
D03*
Y125984D02*
D03*
X417323Y129921D02*
D03*
X419292Y125984D02*
D03*
X401575Y137795D02*
D03*
Y129921D02*
D03*
X370079D02*
D03*
X478347Y98425D02*
D03*
X460630Y86614D02*
D03*
X444882Y94488D02*
D03*
Y86614D02*
D03*
X429134Y94488D02*
D03*
Y86614D02*
D03*
X427166Y98425D02*
D03*
X413386Y94488D02*
D03*
Y86614D02*
D03*
X411417Y98425D02*
D03*
Y90551D02*
D03*
X395670Y98425D02*
D03*
Y90551D02*
D03*
X379922Y98425D02*
D03*
Y90551D02*
D03*
X462599Y62992D02*
D03*
X460630Y59055D02*
D03*
X462599Y55118D02*
D03*
X460630Y51181D02*
D03*
X444882Y59055D02*
D03*
Y51181D02*
D03*
X442914Y55118D02*
D03*
X429134Y59055D02*
D03*
X427166Y62992D02*
D03*
Y55118D02*
D03*
X411417Y62992D02*
D03*
Y55118D02*
D03*
X395670Y62992D02*
D03*
Y55118D02*
D03*
X379922Y62992D02*
D03*
Y55118D02*
D03*
X466535Y129921D02*
D03*
X419291D02*
D03*
X413386Y94488D02*
D03*
X395669Y59055D02*
D03*
X366142Y141732D02*
D03*
Y118110D02*
D03*
Y94488D02*
D03*
X360236Y129921D02*
D03*
X354331Y118110D02*
D03*
X360236Y106299D02*
D03*
X354331Y94488D02*
D03*
X360236Y82677D02*
D03*
X354331Y70866D02*
D03*
X360236Y35433D02*
D03*
X348425Y153543D02*
D03*
Y129921D02*
D03*
X342520Y118110D02*
D03*
X348425Y106299D02*
D03*
X342520Y94488D02*
D03*
X348425Y82677D02*
D03*
X342520Y70866D02*
D03*
X348425Y59055D02*
D03*
X342520Y47244D02*
D03*
X348425Y35433D02*
D03*
X336614Y129921D02*
D03*
X330709Y118110D02*
D03*
X336614Y106299D02*
D03*
X330709Y94488D02*
D03*
X336614Y82677D02*
D03*
X330709Y70866D02*
D03*
Y47244D02*
D03*
X336614Y35433D02*
D03*
X324803Y153543D02*
D03*
X318898Y118110D02*
D03*
X324803Y106299D02*
D03*
X318898Y94488D02*
D03*
X324803Y82677D02*
D03*
Y59055D02*
D03*
X318898Y47244D02*
D03*
X312992Y153543D02*
D03*
Y129921D02*
D03*
X307086Y118110D02*
D03*
X312992Y106299D02*
D03*
X307086Y94488D02*
D03*
X312992Y82677D02*
D03*
X307086Y70866D02*
D03*
X312992Y59055D02*
D03*
X307086Y47244D02*
D03*
X312992Y35433D02*
D03*
X301181Y153543D02*
D03*
X295275Y118110D02*
D03*
X301181Y106299D02*
D03*
X295275Y94488D02*
D03*
X301181Y82677D02*
D03*
X295275Y70866D02*
D03*
X301181Y59055D02*
D03*
X295275Y47244D02*
D03*
X289370Y153543D02*
D03*
Y129921D02*
D03*
Y106299D02*
D03*
Y82677D02*
D03*
Y59055D02*
D03*
Y35433D02*
D03*
X602362Y149606D02*
D03*
X598425Y125984D02*
D03*
X594488Y149606D02*
D03*
X590552Y125984D02*
D03*
X586615Y149606D02*
D03*
X582678Y125984D02*
D03*
X578741Y149606D02*
D03*
X574803Y125984D02*
D03*
X566929D02*
D03*
X559055Y141732D02*
D03*
X562992Y133858D02*
D03*
X559055Y125984D02*
D03*
X551181D02*
D03*
X543307D02*
D03*
X547244Y118110D02*
D03*
X543307Y110236D02*
D03*
X535433Y125984D02*
D03*
X539370Y118110D02*
D03*
X535433Y110236D02*
D03*
X527559Y125984D02*
D03*
X531496Y118110D02*
D03*
X527559Y110236D02*
D03*
Y94488D02*
D03*
X519685Y125984D02*
D03*
X523622Y118110D02*
D03*
X519685Y110236D02*
D03*
X523622Y102362D02*
D03*
X519685Y94488D02*
D03*
X515748Y149606D02*
D03*
X511811Y141732D02*
D03*
X515748Y133858D02*
D03*
X511811Y125984D02*
D03*
X515748Y118110D02*
D03*
X511811Y110236D02*
D03*
X515748Y102362D02*
D03*
X511811Y94488D02*
D03*
X507874Y149606D02*
D03*
X503937Y141732D02*
D03*
X507874Y133858D02*
D03*
Y118110D02*
D03*
X503937Y110236D02*
D03*
X507874Y102362D02*
D03*
X503937Y94488D02*
D03*
X500000Y149606D02*
D03*
X496063Y141732D02*
D03*
X500000Y118110D02*
D03*
X496063Y110236D02*
D03*
X500000Y102362D02*
D03*
X496063Y94488D02*
D03*
X492126Y149606D02*
D03*
X488189Y141732D02*
D03*
Y125984D02*
D03*
X492126Y118110D02*
D03*
X488189Y110236D02*
D03*
X492126Y102362D02*
D03*
X488189Y94488D02*
D03*
X643701Y100394D02*
D03*
X646653Y94488D02*
D03*
X643701Y88583D02*
D03*
Y64961D02*
D03*
Y53150D02*
D03*
X637795Y100394D02*
D03*
X640748Y94488D02*
D03*
X637795Y88583D02*
D03*
Y53150D02*
D03*
X631890Y64961D02*
D03*
Y53150D02*
D03*
X625984D02*
D03*
X623031Y82677D02*
D03*
X620079Y76772D02*
D03*
Y64961D02*
D03*
Y53150D02*
D03*
X82677Y261811D02*
D03*
X89567Y248031D02*
D03*
X82677Y234252D02*
D03*
X89567Y220473D02*
D03*
X82677Y206693D02*
D03*
X89567Y192913D02*
D03*
Y165354D02*
D03*
X82677Y151575D02*
D03*
X89567Y137795D02*
D03*
X82677Y124016D02*
D03*
X89567Y110236D02*
D03*
X82677Y96457D02*
D03*
X89567Y82677D02*
D03*
Y55118D02*
D03*
Y27559D02*
D03*
X82677Y13780D02*
D03*
X68898Y261811D02*
D03*
X75787Y248031D02*
D03*
X68898Y234252D02*
D03*
X75787Y220473D02*
D03*
X68898Y206693D02*
D03*
X75787Y165354D02*
D03*
Y110236D02*
D03*
Y55118D02*
D03*
Y27559D02*
D03*
X68898Y13780D02*
D03*
X62008Y248031D02*
D03*
X55118Y234252D02*
D03*
X62008Y220473D02*
D03*
X55118Y206693D02*
D03*
X62008Y192913D02*
D03*
Y165354D02*
D03*
Y110236D02*
D03*
Y82677D02*
D03*
Y55118D02*
D03*
X41339Y234252D02*
D03*
X48228Y220473D02*
D03*
Y192913D02*
D03*
Y165354D02*
D03*
X41339Y151575D02*
D03*
X48228Y137795D02*
D03*
Y82677D02*
D03*
Y55118D02*
D03*
X27559Y234252D02*
D03*
X34449Y220473D02*
D03*
Y192913D02*
D03*
X27559Y179134D02*
D03*
X34449Y165354D02*
D03*
X27559Y151575D02*
D03*
X34449Y137795D02*
D03*
Y110236D02*
D03*
Y55118D02*
D03*
X27559Y41339D02*
D03*
X13780Y261811D02*
D03*
X20669Y248031D02*
D03*
X13780Y234252D02*
D03*
Y151575D02*
D03*
X20669Y137795D02*
D03*
X13780Y124016D02*
D03*
Y41339D02*
D03*
X20669Y27559D02*
D03*
X13780Y13780D02*
D03*
X270669Y68898D02*
D03*
X265748Y59055D02*
D03*
X270669Y49213D02*
D03*
X260827Y68898D02*
D03*
X255906Y59055D02*
D03*
X260827Y49213D02*
D03*
X250984Y68898D02*
D03*
X246063Y59055D02*
D03*
X250984Y49213D02*
D03*
X608267Y82677D02*
D03*
X602362Y94488D02*
D03*
Y82677D02*
D03*
X596456Y94488D02*
D03*
X599409Y88583D02*
D03*
X596456Y82677D02*
D03*
X593504Y100394D02*
D03*
X590551Y94488D02*
D03*
X593504Y88583D02*
D03*
X590551Y82677D02*
D03*
X593504Y76772D02*
D03*
X587598Y88583D02*
D03*
X584646Y82677D02*
D03*
X587598Y76772D02*
D03*
X581693Y88583D02*
D03*
X578740Y82677D02*
D03*
X581693Y76772D02*
D03*
X575787Y88583D02*
D03*
X572834Y82677D02*
D03*
X575787Y76772D02*
D03*
X569882Y88583D02*
D03*
X566929Y82677D02*
D03*
X569882Y76772D02*
D03*
X561023Y94488D02*
D03*
X563976Y88583D02*
D03*
X561023Y82677D02*
D03*
X563976Y76772D02*
D03*
D160*
X271904Y137211D02*
D03*
X249016Y143701D02*
D03*
X236221Y146885D02*
D03*
X112205Y180927D02*
D03*
X616142Y129921D02*
D03*
X206693Y251969D02*
D03*
X134000Y16824D02*
D03*
X154000Y103000D02*
D03*
X45000Y84000D02*
D03*
X51000Y114000D02*
D03*
X66000Y106000D02*
D03*
X39000Y139000D02*
D03*
X55000Y161000D02*
D03*
X76000Y194000D02*
D03*
X536000Y70000D02*
D03*
X568000Y151000D02*
D03*
X523000D02*
D03*
X491000Y176000D02*
D03*
X266000Y137332D02*
D03*
X267000Y161000D02*
D03*
X580000Y218774D02*
D03*
X229000Y238000D02*
D03*
X166000Y250000D02*
D03*
X138000Y71000D02*
D03*
X129000Y47000D02*
D03*
X513779Y261811D02*
D03*
X509842Y265748D02*
D03*
X590551Y232283D02*
D03*
X505905Y242126D02*
D03*
X490158Y261811D02*
D03*
Y265748D02*
D03*
X259842Y244179D02*
D03*
X623694Y131568D02*
D03*
X248031Y228346D02*
D03*
Y218504D02*
D03*
X111439Y192147D02*
D03*
X122122Y161122D02*
D03*
X127953Y107000D02*
D03*
X117000Y17000D02*
D03*
X133140Y28591D02*
D03*
X122118Y28622D02*
D03*
X584010Y59628D02*
D03*
X549213Y72835D02*
D03*
X523622Y62286D02*
D03*
X584646Y100394D02*
D03*
X561024D02*
D03*
X521654Y72835D02*
D03*
X488189Y68898D02*
D03*
X383858Y148728D02*
D03*
X366142Y157333D02*
D03*
X375984Y222441D02*
D03*
X362205D02*
D03*
X266668Y270734D02*
D03*
X175197Y266025D02*
D03*
X372047Y196850D02*
D03*
X137795Y146885D02*
D03*
X460630Y179134D02*
D03*
X133858Y127953D02*
D03*
X488189Y72835D02*
D03*
X490158Y76772D02*
D03*
X124016Y139764D02*
D03*
Y143701D02*
D03*
X137795Y82677D02*
D03*
X281496Y78740D02*
D03*
Y158233D02*
D03*
X543307Y210630D02*
D03*
X153543Y82677D02*
D03*
X277559D02*
D03*
Y161417D02*
D03*
X543307Y216412D02*
D03*
X257874Y238189D02*
D03*
X112205Y184327D02*
D03*
X614173Y120079D02*
D03*
X210630Y165354D02*
D03*
X468273Y192913D02*
D03*
X500000Y37402D02*
D03*
X338000Y229000D02*
D03*
X337000Y245000D02*
D03*
Y262000D02*
D03*
X278000Y247000D02*
D03*
X282000D02*
D03*
X285816D02*
D03*
X325000Y262000D02*
D03*
X311000D02*
D03*
X298000D02*
D03*
%TF.MD5,7b8fad958f4687830a0a1590bd70211c*%
M02*
