M48
;Layer_Color=9474304
;FILE_FORMAT=2:5
INCH,LZ
;TYPE=PLATED
T01F00S00C0.01181
T02F00S00C0.01200
T03F00S00C0.03937
T04F00S00C0.04000
T05F00S00C0.04016
T06F00S00C0.04331
T07F00S00C0.04724
T08F00S00C0.05807
T09F00S00C0.12598
%
T01
X001378Y001378
X0020669Y0027559
X001378Y0041339
X0027559
X0034449Y0055118
X0048228
X0062008
X0075787
X0089567
X0117126
X0130905
X0144685
X0137795Y0041339
X0151575
X0124016
X0110236
Y0068898
X0117126Y0082677
Y0110236
X0124016Y0124016
Y0151575
X0137795
X0151575
X0144685Y0110236
X0151575Y0096457
X0082677
X0089567Y0110236
X0075787
X0062008
Y0082677
X0048228
X0089567
X0082677Y0124016
X0089567Y0137795
X0082677Y0151575
X0041339
X0027559
X001378
X0020669Y0137795
X0034449
X0048228
X0034449Y0110236
X001378Y0124016
X0075787Y0027559
X0089567
X0082677Y001378
X0068898
X0110236
X0124016
X0165354
X0164165Y0019993
X0159835
Y0024324
Y0028655
X0164165
Y0024324
X0165354Y0041339
X0172244Y0055118
X0186024
X0199803
X0213583
X0227362
X0220473Y0068898
X0206693
X0192913
X0179134
X0165354
X0158465Y0055118
X0165354Y0096457
X0179134
X0192913
X0206693
X0220473
X0234252
X0248031
X0254921Y0110236
X0268701
X0261811Y0124016
X028937Y0129921
X0295275Y011811
X0307086
X0301181Y0106299
X028937
X0295275Y0094488
X0307086
X0301181Y0082677
X028937
X0295275Y0070866
X0307086
X0301181Y0059055
X028937
X0295275Y0047244
X0307086
X028937Y0035433
X028937Y001378
X030315
X0275591
X0270669Y0049213
X0260827
X0250984
X0255906Y0059055
X0265748
X0270669Y0068898
X0260827
X0250984
X0246063Y0059055
X0227362Y0027559
X0213583
Y0110236
X0227362
X0241142
X0220473Y0124016
X0199803Y0110236
X0186024
X0172244
X0165354Y0124016
X0179134
X0192224Y0152559
X0198327
X0204429
X0210531
X0234252Y0151575
X0248031
X028937Y0153543
X0301181
X0312992
X0316929Y0151575
X0324803Y0153543
X0344488Y0151575
X0348425Y0153543
Y0129921
X0344488Y0124016
X034252Y011811
X0354331
X0366142
X0370079Y0129921
X0360236Y0129921
X0366142Y0141732
X0401575Y0137795
Y0129921
Y0114173
X039567Y0110236
Y0098425
Y0090551
Y0074803
Y0062992
X0395669Y0059055
X039567Y0055118
X0411417
Y0062992
Y0074803
X0413386Y007874
Y0086614
X0411417Y0090551
X0413386Y0094488
X0413386Y0094488
X0411417Y0098425
X0413386Y0106299
X0411417Y0110236
X0417323Y0114173
X0419292Y011811
Y0125984
X0419291Y0129921
X0417323Y0129921
X0427166Y0110236
X0429134Y0106299
X0427166Y0098425
X0429134Y0094488
Y0086614
Y007874
X0427166Y0074803
X0429134Y0070866
X0427165Y0068898
X0427166Y0062992
X0429134Y0059055
X0427166Y0055118
X0427165Y0041339
X0434055Y0027559
X0447835
X0461614
X0454725Y001378
X0468504
X0440945
X0427165
X0413386
X0399606
X0385827
X0372047
X0358268
X0344488
X0330709
X0316929
X0312992Y0035433
X0318898Y0047244
X0330709
X034252
X0348425Y0059055
X0354331Y0070866
X034252
X0330709
X0316929Y0068898
X0312992Y0059055
X0324803
X0323819Y0055118
X0324803Y0082677
X0336614
X0348425
X0360236
X0366142Y0094488
X0354331
X034252
X0330709
X0318898
X0324803Y0106299
X0336614
X0348425
X0360236
X0379922Y0110236
Y0098425
Y0090551
Y0062992
Y0055118
X0378937Y0027559
X0392717
X0406496
X0420276
X0444882Y0051181
X0442914Y0055118
X0444882Y0059055
Y0070866
X0442914Y0074803
X0444882Y007874
Y0086614
Y0094488
X046063Y0086614
X0461614Y0082677
X046063Y007874
X0462599Y0074803
X046063Y0070866
X0462599Y0062992
X046063Y0059055
X0462599Y0055118
X046063Y0051181
X0461614Y0110236
X0462599Y0110236
X0468504Y0114173
X0466536Y011811
Y0125984
X0466535Y0129921
X0468504Y0129921
X0466536Y0133858
X0468504Y0137795
X0468504Y0151575
X0454725
X0440945
X0427165
X0450788Y0133858
X0452756Y0129921
X0450788Y0125984
X0433071Y0114173
X0330709Y011811
X0330709Y0124016
X0336614Y0129921
X0312992
X0318898Y011811
X0312992Y0106299
Y0082677
X0336614Y0035433
X0337598Y0027559
X0348425Y0035433
X0360236
X0475394Y0027559
X0489173
X0502953
X0516732
X0509843Y0041339
X0523622
X0537402
X0551181
X0564961
X057874
X059252
X059941Y0055118
X0613189
X0620079Y005315
Y0064961
Y0076772
X0615158Y007874
X0608267Y0082677
X0602362
X0596456
X0590551
X0584646
X057874
X0572834
X0566929
X0561023
X0563976Y0088583
X0569882
X0575787
X0581693
X0587598
X0593504
X0599409
X0596456Y0094488
X0602362
X0590551
X0593504Y0100394
Y0076772
X0587598
X0581693
X0575787
X0569882
X0563976
X0561023Y0094488
X0559055Y0125984
X0566929
X0574803
X0582678
X0590552
X0598425
X0602362Y0149606
X0594488
X0586615
X0578741
X0559055Y0141732
X0562992Y0133858
X0551181Y0125984
X0543307
X0535433
X0527559
X0519685
X0511811
X0515748Y0133858
X0507874
X0511811Y0141732
X0503937
X0496063
X0488189
X0492126Y0149606
X05
X0507874
X0515748
Y011811
X0523622
X0531496
X053937
X0547244
X0543307Y0110236
X0535433
X0527559
X0519685
X0511811
X0503937
X0496063
X0488189
X0478347
Y0098425
X0488189Y0094488
X0496063
X0503937
X0511811
X0519685
X0527559
X0523622Y0102362
X0515748
X0507874
X05
X0492126
Y011811
X05
X0507874
X0488189Y0125984
X0489173Y0082677
Y0055118
X0502953
X0516732
X0530512
X0544291
X0558071
X058563Y0027559
X059941
X0613189
X0606299Y001378
X059252
X057874
X0620079Y0041339
X0623031Y0082677
X0530512Y0082677
X0509843Y001378
X0496063
X0482284
Y0041339
X0633858
X0647638
X0643701Y005315
X0637795
X063189
X0625984
X063189Y0064961
X0643701
X0654528Y0055118
Y0082677
X0643701Y0088583
X0637795
X0640748Y0094488
X0646653
X0643701Y0100394
X0637795
X0640748Y0110236
X0654528
Y0137795
X0640748
X0626969Y0110236
X0654528Y0027559
X0647638Y001378
Y0179134
X0640748Y0192913
X0628937Y0194882
X0625984Y0200787
X063189
X0628937Y0206693
X0625984Y0212598
X0626969Y0220473
X0640748
X0633858Y0234252
X0647638
Y0261811
Y0206693
X0623032Y0206693
X0617126
X0611221
X0605315
X0599409
X0593504
X0587598
X0581693
X0575787
X0569882
X0561024Y0200787
X0555118
X0549213
X0543307
X0537402
X0531496
X0525591
X0519685
X0522638Y0206693
X0528543
X0534449
X0540354
X054626
X0552165
X0561024Y0188976
Y0177165
Y0165354
X057874Y0212598
X0584646
X0590551
X0596457
X0602362
X0608268
X0614173
X0620079
Y0200787
X0614173
X0608268
X0602362
X0605315Y0194882
X0611221
X0617126
X0614173Y0188976
X0608268
X0613189Y0220473
X059941
X058563
Y0248031
X059941
X0613189
X0606299Y0261811
X059252
X0606299Y0234252
X0620079
X0537402
X0530512Y0248031
X0523622Y0261811
X0537402
X0502953Y0248031
X0489173
X0475394
X0482284Y0261811
Y0234252
X0496063
X0509843
X0489173Y0220473
X0475394
X0482284Y0206693
X0502953Y0192913
X0489173Y0165354
X0475394
X0462598Y015748
X0447835Y0167323
X0437992
X042815
X0418307
X0408465
X0398622
Y0187008
X0403543Y019685
X0413386
X0423228
X0442913
X0447835Y0192913
X0452756Y019685
X0461614Y0192913
X0468504Y0206693
X0461614Y0220473
X0447835Y0226378
X0437992
X042815
X0423228Y0216535
X0413386
X0403543
X0408465Y0226378
X0398622
X0388779
X0392717Y0248031
X0406496
X0420276
X0434055
X0447835
X0461614
X0454725Y0261811
X0468504
Y0234252
X0442913Y0216535
X0440945Y0261811
X0427165
X0413386
X0399606
X0385827
X0372047
X0358268
X0365158Y0248031
X0378937
X0358268Y0234252
X0344488
X0351378Y0220473
X0337598
X0378937Y0192913
X028248
X0268701
X0254921
X0248031Y0179134
X0261811
X0275591
X0254921Y0165354
X0241142
X0234252Y0179134
X0216634Y0176968
X0213583Y0192913
X0227362
X0220473Y0206693
X0234252
X0241142Y0220473
X0248031Y0234252
X0241142Y0248031
X0220473Y0234252
X0206693
X0199803Y0248031
X0191893Y0253881
X0187563
Y0258211
X0191893
X0183232
Y0253881
X0179134Y0261811
Y0234252
X0165354
X0158465Y0248031
Y0220473
X0165354Y0206693
X0179134
X0192913
X0186024Y0220473
Y0192913
X0172244
X0186122Y0176968
X0189173Y0170866
X0183071
X0192224Y0164764
X0198327
X0204429
X0213583Y0158661
X0195275
X028248Y0220473
X029626Y0248031
X0310039
X0275591Y0261811
X0151575
X0137795
X0124016
X0110236
X0117126Y0248031
X0130905
X0144685
X0137795Y0234252
X0151575
X0144685Y0220473
X0130905
X0117126
X0110236Y0234252
X0124016
X0137795Y0206693
X0151575
X0144685Y0192913
Y0165354
X0117126
Y0192913
X0110236Y0206693
X0082677
X0068898
X0055118
X0062008Y0220473
X0075787
X0089567
X0082677Y0234252
X0068898
X0055118
X0041339
X0027559
X001378
X0020669Y0248031
X001378Y0261811
X0068898
X0082677
X0089567Y0248031
X0075787
X0062008
X0048228Y0220473
X0034449
Y0192913
X0048228
X0062008
X0089567
Y0165354
X0075787
X0062008
X0048228
X0034449
X0027559Y0179134
T02
X0045Y0084
X0051Y0114
X0066Y0106
X0039Y0139
X0124016Y0139764
Y0143701
X0137795Y0146885
X0133858Y0127953
X0127953Y0107
X0154Y0103
X0153543Y0082677
X0137795
X0138Y0071
X0129Y0047
X013314Y0028591
X0122118Y0028622
X0117Y0017
X0134Y0016824
X0281496Y007874
X0277559Y0082677
X0271904Y0137211
X0266Y0137332
X0249016Y0143701
X0236221Y0146885
X0383858Y0148728
X0523Y0151
X0568
X0561024Y0100394
X0584646
X058401Y0059628
X0549213Y0072835
X0536Y007
X0521654Y0072835
X0523622Y0062286
X0488189Y0068898
Y0072835
X0490158Y0076772
X05Y0037402
X0614173Y0120079
X0616142Y0129921
X0623694Y0131568
X058Y0218774
X0590551Y0232283
X0543307Y0216412
Y021063
X0505905Y0242126
X0513779Y0261811
X0509842Y0265748
X0490158
Y0261811
X0491Y0176
X046063Y0179134
X0468273Y0192913
X0372047Y019685
X0375984Y0222441
X0362205
X0338Y0229
X0337Y0245
Y0262
X0325
X0366142Y0157333
X0281496Y0158233
X0277559Y0161417
X0267Y0161
X021063Y0165354
X0206693Y0251969
X0229Y0238
X0248031Y0228346
Y0218504
X0257874Y0238189
X0259842Y0244179
X0278Y0247
X0282
X0285816
X0298Y0262
X0311
X0266668Y0270734
X0175197Y0266025
X0166Y025
X0111439Y0192147
X0112205Y0184327
Y0180927
X0122122Y0161122
X0055Y0161
X0076Y0194
T03
X06225Y017772
Y01915
T04
X0074803Y0042323
X0497047Y0020669
X0642717Y0129921
X0124016Y0268701
T05
X0074803Y0020793
X0184055Y0074803
Y0087598
X0170276Y01177
X0236303
X0248879
X0261258
X02614Y00623
X0369116Y00245
X05957Y01125
X06476Y0104
X06336Y02067
X02036Y0159
X01335Y01802
T06
X0317892Y0213627
Y0223627
X0331255
Y0213627
X0304Y0213
Y0223
X0289
Y0213
T07
X0011063Y0055295
X0021063
Y0070295
X0011063
Y0085295
X0021063
Y0100295
X0011063
Y0115295
X0021063
Y0130295
X0011063
Y0145295
X0021063
X0292472Y0147654
X0302315Y0126
X0303009Y0075307
X0293166Y0053654
X0303009Y0032
X0322694
X0334666Y0053654
X0322694Y0075307
X0322Y0126
X0333972Y0147654
X0322Y0169307
X0392346Y0197972
Y0217657
X0414Y02275
X0435654Y0217657
Y0197972
X0414Y0186
X0302315Y0169307
X0021063Y0175295
X0011063
Y0160295
X0021063
Y0190295
X0011063
Y0205295
X0021063
Y0220295
X0011063
T08
X0520816Y0010823
Y0020823
Y0030823
X0530816
X0540816
Y0020823
Y0010823
X0530816
Y0020823
X0551289
X0561288
Y0030823
X0571288
Y0020823
Y0010823
X0561288
X0551289
Y0030823
X0627795Y0058898
X0637795
X0647795
Y0068898
Y0078898
X0637795
X0627795
Y0068898
X0637795
X0569669Y0242969
X0559669
X0549669
Y0252969
Y0262968
X0559669
X0569669
Y0252969
X0559669
T09
X003937Y0019685
X0629921Y0019685
X0629921Y0255906
X003937Y0255906
M30
