%TF.GenerationSoftware,Altium Limited,Altium Designer,25.8.1 (18)*%
G04 Layer_Color=8388736*
%FSLAX25Y25*%
%MOIN*%
%TF.SameCoordinates,3EF1FA0B-48F7-4624-A5EA-CE16923DF4E6*%
%TF.FilePolarity,Negative*%
%TF.FileFunction,Soldermask,Top*%
%TF.Part,Single*%
G01*
G75*
%TA.AperFunction,SMDPad,CuDef*%
%ADD23R,0.10261X0.06704*%
%ADD24R,0.06704X0.10261*%
%ADD31R,0.07316X0.05927*%
%ADD39R,0.05927X0.07316*%
%ADD45R,0.04528X0.02756*%
%ADD49R,0.02800X0.01200*%
%ADD54R,0.02800X0.01600*%
%ADD57R,0.02362X0.05512*%
%ADD80O,0.06509X0.03162*%
%ADD81R,0.11036X0.13005*%
%ADD82R,0.14973X0.21076*%
%ADD83R,0.08280X0.04540*%
%ADD84R,0.08674X0.07296*%
%ADD85R,0.07887X0.05721*%
%ADD86R,0.07690X0.05328*%
G04:AMPARAMS|DCode=87|XSize=59.18mil|YSize=37.92mil|CornerRadius=7.74mil|HoleSize=0mil|Usage=FLASHONLY|Rotation=90.000|XOffset=0mil|YOffset=0mil|HoleType=Round|Shape=RoundedRectangle|*
%AMROUNDEDRECTD87*
21,1,0.05918,0.02244,0,0,90.0*
21,1,0.04370,0.03792,0,0,90.0*
1,1,0.01548,0.01122,0.02185*
1,1,0.01548,0.01122,-0.02185*
1,1,0.01548,-0.01122,-0.02185*
1,1,0.01548,-0.01122,0.02185*
%
%ADD87ROUNDEDRECTD87*%
%ADD88R,0.05328X0.07690*%
%ADD89R,0.05524X0.06509*%
%ADD90O,0.05515X0.02169*%
%ADD91O,0.05715X0.01581*%
%ADD92R,0.08674X0.07099*%
%ADD93R,0.14973X0.20879*%
%ADD94R,0.06312X0.04737*%
%ADD95R,0.07690X0.05721*%
%ADD96R,0.06312X0.08083*%
%ADD97R,0.06115X0.06509*%
%ADD98R,0.05918X0.05131*%
%ADD99O,0.11036X0.03556*%
%ADD100O,0.03162X0.06509*%
%ADD101R,0.13005X0.11036*%
%ADD102R,0.04540X0.08280*%
%ADD103R,0.04147X0.17139*%
%ADD104R,0.40564X0.37021*%
%ADD105R,0.08871X0.14186*%
%ADD106R,0.05721X0.07690*%
%ADD107R,0.13398X0.11036*%
%TA.AperFunction,FiducialPad,Global*%
%ADD108C,0.07874*%
%TA.AperFunction,SMDPad,CuDef*%
%ADD109O,0.05909X0.01972*%
G04:AMPARAMS|DCode=110|XSize=35.56mil|YSize=53.28mil|CornerRadius=7.45mil|HoleSize=0mil|Usage=FLASHONLY|Rotation=180.000|XOffset=0mil|YOffset=0mil|HoleType=Round|Shape=RoundedRectangle|*
%AMROUNDEDRECTD110*
21,1,0.03556,0.03839,0,0,180.0*
21,1,0.02067,0.05328,0,0,180.0*
1,1,0.01489,-0.01034,0.01919*
1,1,0.01489,0.01034,0.01919*
1,1,0.01489,0.01034,-0.01919*
1,1,0.01489,-0.01034,-0.01919*
%
%ADD110ROUNDEDRECTD110*%
G04:AMPARAMS|DCode=111|XSize=47.37mil|YSize=47.37mil|CornerRadius=0mil|HoleSize=0mil|Usage=FLASHONLY|Rotation=180.000|XOffset=0mil|YOffset=0mil|HoleType=Round|Shape=RoundedRectangle|*
%AMROUNDEDRECTD111*
21,1,0.04737,0.04737,0,0,180.0*
21,1,0.04737,0.04737,0,0,180.0*
1,1,0.00000,-0.02368,0.02368*
1,1,0.00000,0.02368,0.02368*
1,1,0.00000,0.02368,-0.02368*
1,1,0.00000,-0.02368,-0.02368*
%
%ADD111ROUNDEDRECTD111*%
%ADD112O,0.07493X0.03162*%
%ADD113R,0.06115X0.08083*%
%ADD114R,0.08083X0.06115*%
%ADD115R,0.07296X0.08674*%
%ADD116R,0.07014X0.07802*%
%ADD117R,0.06302X0.11814*%
%TA.AperFunction,ComponentPad*%
%ADD118C,0.07887*%
%ADD119R,0.08674X0.08674*%
%ADD120C,0.08674*%
%ADD121C,0.07099*%
G04:AMPARAMS|DCode=122|XSize=70.99mil|YSize=70.99mil|CornerRadius=19.75mil|HoleSize=0mil|Usage=FLASHONLY|Rotation=270.000|XOffset=0mil|YOffset=0mil|HoleType=Round|Shape=RoundedRectangle|*
%AMROUNDEDRECTD122*
21,1,0.07099,0.03150,0,0,270.0*
21,1,0.03150,0.07099,0,0,270.0*
1,1,0.03950,-0.01575,-0.01575*
1,1,0.03950,-0.01575,0.01575*
1,1,0.03950,0.01575,0.01575*
1,1,0.03950,0.01575,-0.01575*
%
%ADD122ROUNDEDRECTD122*%
%ADD123C,0.06800*%
%ADD124C,0.30328*%
%ADD125R,0.08674X0.08674*%
G04:AMPARAMS|DCode=126|XSize=78.87mil|YSize=78.87mil|CornerRadius=21.72mil|HoleSize=0mil|Usage=FLASHONLY|Rotation=270.000|XOffset=0mil|YOffset=0mil|HoleType=Round|Shape=RoundedRectangle|*
%AMROUNDEDRECTD126*
21,1,0.07887,0.03543,0,0,270.0*
21,1,0.03543,0.07887,0,0,270.0*
1,1,0.04343,-0.01772,-0.01772*
1,1,0.04343,-0.01772,0.01772*
1,1,0.04343,0.01772,0.01772*
1,1,0.04343,0.01772,-0.01772*
%
%ADD126ROUNDEDRECTD126*%
%TA.AperFunction,ViaPad*%
%ADD127C,0.03162*%
%ADD128C,0.03200*%
G36*
X669979Y240476D02*
X670031Y240465D01*
X670081Y240449D01*
X670127Y240425D01*
X670171Y240396D01*
X670211Y240362D01*
X670245Y240322D01*
X670274Y240279D01*
X670297Y240232D01*
X670314Y240182D01*
X670325Y240131D01*
X670328Y240078D01*
X670328Y232978D01*
X670325Y232926D01*
X670314Y232875D01*
X670297Y232825D01*
X670274Y232778D01*
X670245Y232734D01*
X670211Y232695D01*
X670171Y232660D01*
X670127Y232631D01*
X670081Y232608D01*
X670031Y232591D01*
X669979Y232581D01*
X669927Y232577D01*
X656927D01*
X656875Y232581D01*
X656823Y232591D01*
X656774Y232608D01*
X656727Y232631D01*
X656683Y232660D01*
X656644Y232695D01*
X656609Y232734D01*
X656580Y232778D01*
X656557Y232825D01*
X656540Y232875D01*
X656530Y232926D01*
X656526Y232978D01*
X656526Y240078D01*
X656530Y240131D01*
X656540Y240182D01*
X656557Y240232D01*
X656580Y240279D01*
X656609Y240322D01*
X656644Y240362D01*
X656683Y240396D01*
X656727Y240425D01*
X656774Y240449D01*
X656823Y240465D01*
X656875Y240476D01*
X656927Y240479D01*
X658127D01*
X658179Y240476D01*
X658231Y240465D01*
X658281Y240449D01*
X658327Y240425D01*
X658371Y240396D01*
X658411Y240362D01*
X658445Y240322D01*
X658474Y240279D01*
X658497Y240232D01*
X658514Y240182D01*
X658525Y240131D01*
X658528Y240078D01*
Y238079D01*
X659474D01*
Y240078D01*
X659477Y240131D01*
X659487Y240182D01*
X659504Y240232D01*
X659527Y240279D01*
X659556Y240322D01*
X659591Y240362D01*
X659630Y240396D01*
X659674Y240425D01*
X659721Y240449D01*
X659771Y240465D01*
X659822Y240476D01*
X659874Y240479D01*
X661074D01*
X661127Y240476D01*
X661178Y240465D01*
X661228Y240449D01*
X661275Y240425D01*
X661318Y240396D01*
X661358Y240362D01*
X661392Y240322D01*
X661421Y240279D01*
X661445Y240232D01*
X661461Y240182D01*
X661472Y240131D01*
X661475Y240078D01*
Y238079D01*
X662426D01*
Y240078D01*
X662430Y240131D01*
X662440Y240182D01*
X662457Y240232D01*
X662480Y240279D01*
X662509Y240322D01*
X662544Y240362D01*
X662583Y240396D01*
X662627Y240425D01*
X662674Y240449D01*
X662723Y240465D01*
X662775Y240476D01*
X662827Y240479D01*
X664027D01*
X664079Y240476D01*
X664131Y240465D01*
X664181Y240449D01*
X664227Y240425D01*
X664271Y240396D01*
X664311Y240362D01*
X664345Y240322D01*
X664374Y240279D01*
X664397Y240232D01*
X664414Y240182D01*
X664425Y240131D01*
X664428Y240078D01*
Y238079D01*
X665379D01*
Y240078D01*
X665382Y240131D01*
X665393Y240182D01*
X665410Y240232D01*
X665433Y240279D01*
X665462Y240322D01*
X665496Y240362D01*
X665536Y240396D01*
X665579Y240425D01*
X665626Y240449D01*
X665676Y240465D01*
X665728Y240476D01*
X665780Y240479D01*
X666980D01*
X667032Y240476D01*
X667084Y240465D01*
X667133Y240449D01*
X667180Y240425D01*
X667224Y240396D01*
X667263Y240362D01*
X667298Y240322D01*
X667327Y240279D01*
X667350Y240232D01*
X667367Y240182D01*
X667377Y240131D01*
X667381Y240078D01*
Y238079D01*
X668326D01*
Y240078D01*
X668330Y240131D01*
X668340Y240182D01*
X668357Y240232D01*
X668380Y240279D01*
X668409Y240322D01*
X668444Y240362D01*
X668483Y240396D01*
X668527Y240425D01*
X668574Y240449D01*
X668623Y240465D01*
X668675Y240476D01*
X668727Y240479D01*
X669927D01*
X669979Y240476D01*
D02*
G37*
G36*
X669979Y222328D02*
X670031Y222318D01*
X670080Y222301D01*
X670127Y222277D01*
X670171Y222248D01*
X670211Y222214D01*
X670245Y222174D01*
X670274Y222131D01*
X670297Y222084D01*
X670314Y222034D01*
X670325Y221983D01*
X670328Y221930D01*
X670328Y214830D01*
X670325Y214778D01*
X670314Y214727D01*
X670297Y214677D01*
X670274Y214630D01*
X670245Y214586D01*
X670211Y214547D01*
X670171Y214512D01*
X670127Y214483D01*
X670081Y214460D01*
X670031Y214443D01*
X669979Y214433D01*
X669927Y214429D01*
X668727D01*
X668675Y214433D01*
X668623Y214443D01*
X668574Y214460D01*
X668527Y214483D01*
X668483Y214512D01*
X668444Y214547D01*
X668409Y214586D01*
X668380Y214630D01*
X668357Y214677D01*
X668340Y214727D01*
X668330Y214778D01*
X668326Y214830D01*
Y216829D01*
X667381D01*
Y214830D01*
X667377Y214778D01*
X667367Y214727D01*
X667350Y214677D01*
X667327Y214630D01*
X667298Y214586D01*
X667263Y214547D01*
X667224Y214512D01*
X667180Y214483D01*
X667133Y214460D01*
X667084Y214443D01*
X667032Y214433D01*
X666980Y214429D01*
X665780D01*
X665728Y214433D01*
X665676Y214443D01*
X665626Y214460D01*
X665579Y214483D01*
X665536Y214512D01*
X665496Y214547D01*
X665462Y214586D01*
X665433Y214630D01*
X665410Y214677D01*
X665393Y214727D01*
X665382Y214778D01*
X665379Y214830D01*
Y216829D01*
X664428D01*
Y214830D01*
X664425Y214778D01*
X664414Y214727D01*
X664397Y214677D01*
X664374Y214630D01*
X664345Y214586D01*
X664311Y214547D01*
X664271Y214512D01*
X664227Y214483D01*
X664180Y214460D01*
X664131Y214443D01*
X664079Y214433D01*
X664027Y214429D01*
X662827D01*
X662775Y214433D01*
X662723Y214443D01*
X662674Y214460D01*
X662627Y214483D01*
X662583Y214512D01*
X662544Y214547D01*
X662509Y214586D01*
X662480Y214630D01*
X662457Y214677D01*
X662440Y214727D01*
X662430Y214778D01*
X662426Y214830D01*
Y216829D01*
X661475D01*
Y214830D01*
X661472Y214778D01*
X661461Y214727D01*
X661445Y214677D01*
X661421Y214630D01*
X661392Y214586D01*
X661358Y214547D01*
X661318Y214512D01*
X661275Y214483D01*
X661228Y214460D01*
X661178Y214443D01*
X661127Y214433D01*
X661074Y214429D01*
X659874D01*
X659822Y214433D01*
X659770Y214443D01*
X659721Y214460D01*
X659674Y214483D01*
X659630Y214512D01*
X659591Y214547D01*
X659556Y214586D01*
X659527Y214630D01*
X659504Y214677D01*
X659487Y214727D01*
X659477Y214778D01*
X659473Y214830D01*
Y216829D01*
X658528D01*
Y214830D01*
X658525Y214778D01*
X658514Y214727D01*
X658497Y214677D01*
X658474Y214630D01*
X658445Y214586D01*
X658411Y214547D01*
X658371Y214512D01*
X658327Y214483D01*
X658280Y214460D01*
X658231Y214443D01*
X658179Y214433D01*
X658127Y214429D01*
X656927D01*
X656875Y214433D01*
X656823Y214443D01*
X656774Y214460D01*
X656727Y214483D01*
X656683Y214512D01*
X656644Y214547D01*
X656609Y214586D01*
X656580Y214630D01*
X656557Y214677D01*
X656540Y214727D01*
X656530Y214778D01*
X656526Y214830D01*
X656526Y221930D01*
X656530Y221983D01*
X656540Y222034D01*
X656557Y222084D01*
X656580Y222131D01*
X656609Y222174D01*
X656644Y222214D01*
X656683Y222248D01*
X656727Y222277D01*
X656774Y222301D01*
X656823Y222318D01*
X656875Y222328D01*
X656927Y222331D01*
X669927D01*
X669979Y222328D01*
D02*
G37*
G36*
X674146Y120476D02*
X674172Y120474D01*
X674198Y120472D01*
X674199Y120472D01*
X674199Y120472D01*
X674224Y120467D01*
X674250Y120462D01*
X674250Y120462D01*
X674250Y120462D01*
X674272Y120454D01*
X674299Y120445D01*
X674444Y120385D01*
X674469Y120373D01*
X674491Y120362D01*
X674491Y120362D01*
X674491Y120362D01*
X674509Y120350D01*
X674535Y120333D01*
X674535Y120333D01*
X674535Y120333D01*
X674559Y120311D01*
X674574Y120298D01*
X674574Y120298D01*
X674574Y120298D01*
X674574Y120298D01*
X674684Y120188D01*
X674684Y120188D01*
X674685Y120188D01*
X674685Y120188D01*
X674693Y120178D01*
X674719Y120148D01*
X674719Y120148D01*
X674719Y120148D01*
X674730Y120133D01*
X674748Y120105D01*
X674748Y120105D01*
X674748Y120105D01*
X674763Y120074D01*
X674771Y120058D01*
X674771Y120058D01*
X674771Y120058D01*
X674772Y120057D01*
X674831Y119913D01*
X674831Y119913D01*
X674831Y119913D01*
X674831Y119913D01*
X674838Y119893D01*
X674848Y119864D01*
X674848Y119864D01*
X674848Y119864D01*
X674854Y119836D01*
X674859Y119812D01*
X674859Y119812D01*
X674859Y119812D01*
X674860Y119790D01*
X674862Y119760D01*
X674862Y119682D01*
X674862Y119682D01*
X674862Y119681D01*
X674862Y114563D01*
X674862Y114563D01*
X674862Y114563D01*
X674862Y114484D01*
X674859Y114432D01*
X674856Y114419D01*
X674849Y114381D01*
X674832Y114331D01*
X674772Y114186D01*
X674760Y114164D01*
X674749Y114139D01*
X674749Y114139D01*
D01*
X674748Y114139D01*
X674719Y114096D01*
X674685Y114056D01*
X674685Y114056D01*
D01*
D01*
X674574Y113946D01*
X674574Y113946D01*
X674535Y113911D01*
X674535Y113911D01*
X674535Y113911D01*
X674520Y113901D01*
X674491Y113882D01*
X674491Y113882D01*
D01*
X674488Y113881D01*
X674444Y113859D01*
X674299Y113799D01*
X674299Y113799D01*
X674266Y113788D01*
X674250Y113782D01*
X674198Y113772D01*
X674146Y113768D01*
D01*
X674146D01*
X674067Y113769D01*
D01*
X673892Y113769D01*
X673882Y113765D01*
X673878Y113754D01*
X673878Y102358D01*
X673878Y102358D01*
X673878Y102358D01*
X673878Y102279D01*
X673876Y102244D01*
X673875Y102227D01*
Y102227D01*
X673875Y102227D01*
X673870Y102204D01*
X673864Y102176D01*
X673864Y102176D01*
D01*
X673863Y102172D01*
X673847Y102126D01*
X673787Y101982D01*
X673787Y101982D01*
X673787Y101982D01*
X673787Y101981D01*
X673779Y101964D01*
X673764Y101935D01*
X673764Y101935D01*
X673764Y101935D01*
X673752Y101916D01*
X673735Y101891D01*
X673735Y101891D01*
X673735Y101891D01*
X673706Y101859D01*
X673700Y101852D01*
X673700Y101852D01*
X673700Y101851D01*
X673700Y101851D01*
X673590Y101741D01*
X673563Y101718D01*
X673550Y101707D01*
X673550Y101707D01*
X673550Y101706D01*
X673523Y101688D01*
X673507Y101677D01*
X673506Y101677D01*
X673506Y101677D01*
X673486Y101667D01*
X673460Y101654D01*
X673315Y101594D01*
X673315Y101594D01*
X673315Y101594D01*
X673315Y101594D01*
X673292Y101587D01*
X673265Y101578D01*
X673265Y101578D01*
X673265Y101577D01*
X673242Y101573D01*
X673214Y101567D01*
X673214Y101567D01*
X673214Y101567D01*
X673189Y101566D01*
X673162Y101564D01*
X673083D01*
X657336Y101564D01*
X657257Y101564D01*
X657257D01*
X657257D01*
X657233Y101566D01*
X657205Y101567D01*
X657205Y101567D01*
X657205D01*
X657185Y101571D01*
X657154Y101577D01*
X657154Y101578D01*
X657154Y101578D01*
X657138Y101583D01*
X657104Y101594D01*
X657104Y101594D01*
X657104Y101594D01*
X656959Y101654D01*
X656959Y101654D01*
X656959Y101654D01*
X656937Y101665D01*
X656912Y101677D01*
X656912Y101678D01*
X656912Y101678D01*
X656890Y101692D01*
X656869Y101707D01*
X656869Y101707D01*
X656868Y101707D01*
X656848Y101724D01*
X656829Y101741D01*
X656829Y101741D01*
X656829Y101741D01*
X656718Y101852D01*
D01*
X656718Y101852D01*
X656694Y101879D01*
X656684Y101891D01*
X656684Y101891D01*
X656684Y101891D01*
X656667Y101917D01*
X656655Y101935D01*
X656655Y101935D01*
X656655Y101935D01*
X656645Y101955D01*
X656631Y101982D01*
X656631Y101982D01*
X656631Y101982D01*
X656571Y102127D01*
X656571Y102127D01*
X656571Y102127D01*
X656564Y102147D01*
X656555Y102176D01*
X656555Y102176D01*
X656555Y102176D01*
X656552Y102188D01*
X656544Y102228D01*
Y102228D01*
X656544Y102228D01*
X656542Y102256D01*
X656541Y102280D01*
Y102280D01*
Y102280D01*
X656541Y102358D01*
X656541Y113755D01*
X656537Y113765D01*
X656527Y113768D01*
X656352Y113768D01*
X656352Y113768D01*
X656351Y113768D01*
X656273Y113768D01*
X656252Y113770D01*
X656221Y113772D01*
X656221Y113772D01*
X656221D01*
X656169Y113782D01*
X656119Y113799D01*
X656119Y113799D01*
X655975Y113859D01*
X655942Y113875D01*
X655928Y113882D01*
X655928Y113882D01*
X655928Y113882D01*
X655900Y113900D01*
X655884Y113911D01*
X655884Y113911D01*
X655884Y113911D01*
X655863Y113930D01*
X655845Y113946D01*
X655734Y114056D01*
X655734Y114056D01*
X655734Y114057D01*
X655734Y114057D01*
X655730Y114061D01*
X655700Y114096D01*
X655700Y114096D01*
X655700Y114096D01*
X655681Y114124D01*
X655671Y114139D01*
X655671Y114139D01*
X655670Y114139D01*
X655658Y114164D01*
X655647Y114186D01*
X655587Y114331D01*
X655587Y114331D01*
X655587Y114331D01*
X655587Y114331D01*
X655577Y114361D01*
X655571Y114381D01*
X655571Y114381D01*
X655571Y114381D01*
X655565Y114407D01*
X655560Y114432D01*
Y114432D01*
X655560Y114432D01*
X655559Y114450D01*
X655557Y114484D01*
X655557Y114563D01*
X655557Y114563D01*
X655557Y114563D01*
X655557Y119681D01*
X655557Y119759D01*
Y119759D01*
Y119759D01*
X655558Y119784D01*
X655560Y119811D01*
X655560Y119811D01*
Y119811D01*
X655565Y119836D01*
X655570Y119863D01*
X655570Y119863D01*
X655570Y119863D01*
X655577Y119883D01*
X655587Y119913D01*
X655587Y119913D01*
X655587Y119913D01*
X655647Y120057D01*
X655647Y120057D01*
X655665Y120094D01*
X655670Y120104D01*
X655670Y120104D01*
X655670Y120105D01*
X655687Y120130D01*
X655699Y120148D01*
X655699Y120148D01*
X655699Y120148D01*
X655710Y120160D01*
X655734Y120187D01*
X655734Y120188D01*
D01*
X655845Y120298D01*
X655845Y120298D01*
X655845Y120299D01*
X655867Y120318D01*
X655884Y120333D01*
X655884Y120333D01*
X655884Y120333D01*
X655901Y120344D01*
X655928Y120362D01*
X655928Y120362D01*
X655928Y120362D01*
X655948Y120372D01*
X655975Y120385D01*
X655975Y120385D01*
X655975Y120385D01*
X656119Y120445D01*
X656120Y120445D01*
X656154Y120457D01*
X656169Y120462D01*
X656169Y120462D01*
X656169Y120462D01*
X656190Y120466D01*
X656221Y120472D01*
X656221Y120472D01*
X656221D01*
X656235Y120473D01*
X656273Y120476D01*
X656273D01*
X656273D01*
X656351Y120476D01*
X674068Y120476D01*
X674068Y120476D01*
X674068Y120476D01*
X674146Y120476D01*
D02*
G37*
G36*
X639111Y90544D02*
X624524D01*
Y99205D01*
X639111D01*
Y90544D01*
D02*
G37*
G36*
X674146Y82472D02*
X674172Y82470D01*
X674198Y82468D01*
X674199Y82468D01*
X674199Y82468D01*
X674224Y82463D01*
X674250Y82458D01*
X674250Y82458D01*
X674250Y82458D01*
X674272Y82450D01*
X674299Y82441D01*
X674444Y82381D01*
X674469Y82368D01*
X674491Y82358D01*
X674491Y82358D01*
X674491Y82358D01*
X674509Y82346D01*
X674535Y82329D01*
X674535Y82329D01*
X674535Y82328D01*
X674559Y82307D01*
X674574Y82294D01*
X674574Y82294D01*
X674574Y82294D01*
X674574Y82294D01*
X674684Y82184D01*
X674684Y82184D01*
X674685Y82183D01*
X674685Y82183D01*
X674693Y82173D01*
X674719Y82144D01*
X674719Y82144D01*
X674719Y82144D01*
X674730Y82128D01*
X674748Y82101D01*
X674748Y82100D01*
X674748Y82100D01*
X674763Y82070D01*
X674771Y82054D01*
X674771Y82054D01*
X674771Y82053D01*
X674772Y82053D01*
X674831Y81909D01*
X674831Y81909D01*
X674831Y81909D01*
X674831Y81909D01*
X674838Y81889D01*
X674848Y81860D01*
X674848Y81859D01*
X674848Y81859D01*
X674854Y81832D01*
X674859Y81808D01*
X674859Y81808D01*
X674859Y81808D01*
X674860Y81785D01*
X674862Y81756D01*
X674862Y81678D01*
X674862Y81677D01*
X674862Y81677D01*
X674862Y76559D01*
X674862Y76559D01*
X674862Y76558D01*
X674862Y76480D01*
X674859Y76428D01*
X674856Y76415D01*
X674849Y76376D01*
X674832Y76327D01*
X674772Y76182D01*
X674760Y76160D01*
X674749Y76135D01*
X674749Y76135D01*
D01*
X674748Y76135D01*
X674719Y76091D01*
X674685Y76052D01*
X674685Y76052D01*
D01*
D01*
X674574Y75942D01*
X674574Y75941D01*
X674535Y75907D01*
X674535Y75907D01*
X674535Y75907D01*
X674520Y75897D01*
X674491Y75878D01*
X674491Y75878D01*
D01*
X674488Y75876D01*
X674444Y75855D01*
X674299Y75795D01*
X674299Y75795D01*
X674266Y75784D01*
X674250Y75778D01*
X674198Y75768D01*
X674146Y75764D01*
D01*
X674146D01*
X674067Y75764D01*
D01*
X673892Y75764D01*
X673882Y75760D01*
X673878Y75750D01*
X673878Y64354D01*
X673878Y64354D01*
X673878Y64353D01*
X673878Y64275D01*
X673876Y64240D01*
X673875Y64223D01*
Y64223D01*
X673875Y64223D01*
X673870Y64199D01*
X673864Y64171D01*
X673864Y64171D01*
D01*
X673863Y64168D01*
X673847Y64122D01*
X673787Y63977D01*
X673787Y63977D01*
X673787Y63977D01*
X673787Y63977D01*
X673779Y63960D01*
X673764Y63930D01*
X673764Y63930D01*
X673764Y63930D01*
X673752Y63912D01*
X673735Y63887D01*
X673735Y63887D01*
X673735Y63887D01*
X673706Y63854D01*
X673700Y63847D01*
X673700Y63847D01*
X673700Y63847D01*
X673700Y63847D01*
X673590Y63737D01*
X673563Y63714D01*
X673550Y63702D01*
X673550Y63702D01*
X673550Y63702D01*
X673523Y63684D01*
X673507Y63673D01*
X673506Y63673D01*
X673506Y63673D01*
X673486Y63663D01*
X673460Y63650D01*
X673315Y63590D01*
X673315Y63590D01*
X673315Y63590D01*
X673315Y63590D01*
X673292Y63582D01*
X673265Y63573D01*
X673265Y63573D01*
X673265Y63573D01*
X673242Y63569D01*
X673214Y63563D01*
X673214Y63563D01*
X673214Y63563D01*
X673189Y63561D01*
X673162Y63560D01*
X673083D01*
X657336Y63560D01*
X657257Y63560D01*
X657257D01*
X657257D01*
X657233Y63561D01*
X657205Y63563D01*
X657205Y63563D01*
X657205D01*
X657185Y63567D01*
X657154Y63573D01*
X657154Y63573D01*
X657154Y63573D01*
X657138Y63579D01*
X657104Y63590D01*
X657104Y63590D01*
X657104Y63590D01*
X656959Y63650D01*
X656959Y63650D01*
X656959Y63650D01*
X656937Y63661D01*
X656912Y63673D01*
X656912Y63673D01*
X656912Y63673D01*
X656890Y63688D01*
X656869Y63702D01*
X656869Y63702D01*
X656868Y63702D01*
X656848Y63720D01*
X656829Y63737D01*
X656829Y63737D01*
X656829Y63737D01*
X656718Y63848D01*
D01*
X656718Y63848D01*
X656694Y63875D01*
X656684Y63887D01*
X656684Y63887D01*
X656684Y63887D01*
X656667Y63913D01*
X656655Y63931D01*
X656655Y63931D01*
X656655Y63931D01*
X656645Y63951D01*
X656631Y63978D01*
X656631Y63978D01*
X656631Y63978D01*
X656571Y64122D01*
X656571Y64122D01*
X656571Y64123D01*
X656564Y64143D01*
X656555Y64172D01*
X656555Y64172D01*
X656555Y64172D01*
X656552Y64183D01*
X656544Y64223D01*
Y64224D01*
X656544Y64224D01*
X656542Y64252D01*
X656541Y64276D01*
Y64276D01*
Y64276D01*
X656541Y64354D01*
X656541Y75751D01*
X656537Y75760D01*
X656527Y75764D01*
X656352Y75764D01*
X656352Y75764D01*
X656351Y75764D01*
X656273Y75764D01*
X656252Y75766D01*
X656221Y75768D01*
X656221Y75768D01*
X656221D01*
X656169Y75778D01*
X656119Y75795D01*
X656119Y75795D01*
X655975Y75855D01*
X655942Y75871D01*
X655928Y75878D01*
X655928Y75878D01*
X655928Y75878D01*
X655900Y75896D01*
X655884Y75907D01*
X655884Y75907D01*
X655884Y75907D01*
X655863Y75926D01*
X655845Y75941D01*
X655734Y76052D01*
X655734Y76052D01*
X655734Y76052D01*
X655734Y76052D01*
X655730Y76057D01*
X655700Y76092D01*
X655700Y76092D01*
X655700Y76092D01*
X655681Y76120D01*
X655671Y76135D01*
X655671Y76135D01*
X655670Y76135D01*
X655658Y76160D01*
X655647Y76182D01*
X655587Y76327D01*
X655587Y76327D01*
X655587Y76327D01*
X655587Y76327D01*
X655577Y76357D01*
X655571Y76376D01*
X655571Y76376D01*
X655571Y76376D01*
X655565Y76402D01*
X655560Y76428D01*
Y76428D01*
X655560Y76428D01*
X655559Y76446D01*
X655557Y76480D01*
X655557Y76559D01*
X655557Y76559D01*
X655557Y76559D01*
X655557Y81677D01*
X655557Y81755D01*
Y81755D01*
Y81755D01*
X655558Y81780D01*
X655560Y81807D01*
X655560Y81807D01*
Y81807D01*
X655565Y81832D01*
X655570Y81859D01*
X655570Y81859D01*
X655570Y81859D01*
X655577Y81879D01*
X655587Y81908D01*
X655587Y81908D01*
X655587Y81908D01*
X655647Y82053D01*
X655647Y82053D01*
X655665Y82089D01*
X655670Y82100D01*
X655670Y82100D01*
X655670Y82100D01*
X655687Y82125D01*
X655699Y82144D01*
X655699Y82144D01*
X655699Y82144D01*
X655710Y82156D01*
X655734Y82183D01*
X655734Y82183D01*
D01*
X655845Y82294D01*
X655845Y82294D01*
X655845Y82294D01*
X655867Y82314D01*
X655884Y82329D01*
X655884Y82329D01*
X655884Y82329D01*
X655901Y82340D01*
X655928Y82358D01*
X655928Y82358D01*
X655928Y82358D01*
X655948Y82368D01*
X655975Y82381D01*
X655975Y82381D01*
X655975Y82381D01*
X656119Y82441D01*
X656120Y82441D01*
X656154Y82453D01*
X656169Y82458D01*
X656169Y82458D01*
X656169Y82458D01*
X656190Y82462D01*
X656221Y82468D01*
X656221Y82468D01*
X656221D01*
X656235Y82469D01*
X656273Y82472D01*
X656273D01*
X656273D01*
X656351Y82472D01*
X674068Y82472D01*
X674068Y82472D01*
X674068Y82472D01*
X674146Y82472D01*
D02*
G37*
G36*
X646198Y77551D02*
X643442D01*
Y94481D01*
X646198D01*
Y77551D01*
D02*
G37*
G36*
X639111Y82276D02*
X634839D01*
Y77551D01*
X624524D01*
Y86213D01*
X639111D01*
Y82276D01*
D02*
G37*
D23*
X300498Y121899D02*
D03*
X287687Y88436D02*
D03*
X462552Y124249D02*
D03*
Y115976D02*
D03*
X561946Y97823D02*
D03*
Y106096D02*
D03*
X578693Y97823D02*
D03*
Y106096D02*
D03*
X545175Y97823D02*
D03*
Y106096D02*
D03*
X512253Y78873D02*
D03*
Y87145D02*
D03*
X495686D02*
D03*
Y78873D02*
D03*
X528820Y105697D02*
D03*
Y97424D02*
D03*
X512253Y115976D02*
D03*
Y124249D02*
D03*
X561953Y115976D02*
D03*
Y124249D02*
D03*
X462552Y105697D02*
D03*
Y97424D02*
D03*
X528820Y115976D02*
D03*
Y124249D02*
D03*
X495686Y115976D02*
D03*
Y124249D02*
D03*
Y97424D02*
D03*
Y105697D02*
D03*
X545387Y124249D02*
D03*
Y115976D02*
D03*
X479119Y97424D02*
D03*
Y105697D02*
D03*
X511749Y133780D02*
D03*
Y142053D02*
D03*
X462552Y78873D02*
D03*
Y87145D02*
D03*
X578520Y115976D02*
D03*
Y124249D02*
D03*
X512253Y97424D02*
D03*
Y105697D02*
D03*
X561938Y80271D02*
D03*
Y88544D02*
D03*
X479072Y41654D02*
D03*
Y49927D02*
D03*
Y68431D02*
D03*
Y60158D02*
D03*
X261793Y170317D02*
D03*
Y178589D02*
D03*
X287687Y80164D02*
D03*
X300498Y130171D02*
D03*
X462576Y50333D02*
D03*
Y42061D02*
D03*
X462552Y68593D02*
D03*
Y60321D02*
D03*
X528820D02*
D03*
Y68593D02*
D03*
X495686D02*
D03*
Y60321D02*
D03*
X479119Y124249D02*
D03*
Y115976D02*
D03*
Y134528D02*
D03*
Y142800D02*
D03*
X462552Y134528D02*
D03*
Y142800D02*
D03*
X545371Y80271D02*
D03*
Y88544D02*
D03*
X578505D02*
D03*
Y80271D02*
D03*
X528820Y134528D02*
D03*
Y142800D02*
D03*
X528472Y42769D02*
D03*
Y51042D02*
D03*
X511568Y42245D02*
D03*
Y50517D02*
D03*
X528481Y87134D02*
D03*
Y78861D02*
D03*
X479119Y78873D02*
D03*
Y87145D02*
D03*
X496001Y42245D02*
D03*
Y50517D02*
D03*
X561953Y134528D02*
D03*
Y142800D02*
D03*
X512253Y60321D02*
D03*
Y68593D02*
D03*
X578520Y142800D02*
D03*
Y134528D02*
D03*
X495686Y142800D02*
D03*
Y134528D02*
D03*
X545387D02*
D03*
Y142800D02*
D03*
D24*
X312921Y115122D02*
D03*
Y99556D02*
D03*
X321193D02*
D03*
Y115122D02*
D03*
D31*
X133812Y91659D02*
D03*
Y103284D02*
D03*
D39*
X700031Y151499D02*
D03*
X711656D02*
D03*
D45*
X645706Y93103D02*
D03*
Y78929D02*
D03*
Y83654D02*
D03*
Y88378D02*
D03*
X624643Y78929D02*
D03*
Y83654D02*
D03*
Y93103D02*
D03*
Y97827D02*
D03*
X645706D02*
D03*
D49*
X674648Y228832D02*
D03*
Y231194D02*
D03*
Y226273D02*
D03*
Y221746D02*
D03*
X652207Y221746D02*
D03*
Y224108D02*
D03*
Y226470D02*
D03*
Y228832D02*
D03*
Y233950D02*
D03*
D54*
X674648Y236903D02*
D03*
Y218005D02*
D03*
X652207Y218005D02*
D03*
Y236903D02*
D03*
D57*
X637930Y77748D02*
D03*
D80*
X185785Y41701D02*
D03*
Y36702D02*
D03*
Y31701D02*
D03*
Y26702D02*
D03*
X207242Y41701D02*
D03*
Y36702D02*
D03*
Y31701D02*
D03*
Y26702D02*
D03*
X695115Y128684D02*
D03*
Y123684D02*
D03*
Y118684D02*
D03*
Y113684D02*
D03*
X716572Y128684D02*
D03*
Y123684D02*
D03*
Y118684D02*
D03*
Y113684D02*
D03*
D81*
X196513Y34201D02*
D03*
D82*
X233864Y38102D02*
D03*
X274809D02*
D03*
D83*
X217789Y14005D02*
D03*
Y27982D02*
D03*
X552122Y35355D02*
D03*
Y21379D02*
D03*
X70426Y193370D02*
D03*
Y179394D02*
D03*
X56271Y193370D02*
D03*
Y179394D02*
D03*
D84*
X218027Y38041D02*
D03*
Y49655D02*
D03*
X160994Y46409D02*
D03*
Y34795D02*
D03*
X173805Y46409D02*
D03*
Y34795D02*
D03*
X289687Y60592D02*
D03*
Y48978D02*
D03*
X286309Y123074D02*
D03*
X288793Y171492D02*
D03*
Y183107D02*
D03*
X275982Y171492D02*
D03*
Y183107D02*
D03*
X286309Y134688D02*
D03*
D85*
X300726Y56181D02*
D03*
Y46141D02*
D03*
X309994Y56181D02*
D03*
Y46141D02*
D03*
D86*
X184962Y19095D02*
D03*
Y7875D02*
D03*
X300498Y89283D02*
D03*
X319655Y57755D02*
D03*
X627994Y248534D02*
D03*
X617938D02*
D03*
X319655Y46535D02*
D03*
X617938Y237314D02*
D03*
X627994D02*
D03*
X617758Y218498D02*
D03*
Y229718D02*
D03*
X627994Y218498D02*
D03*
Y229718D02*
D03*
X300498Y78062D02*
D03*
D87*
X319926Y65350D02*
D03*
X312879D02*
D03*
D88*
X200483Y181205D02*
D03*
X211703D02*
D03*
D89*
X148720Y233186D02*
D03*
X156594D02*
D03*
D90*
X555747Y43167D02*
D03*
Y45726D02*
D03*
X573267Y50844D02*
D03*
X555747Y55963D02*
D03*
Y53403D02*
D03*
Y50844D02*
D03*
Y48285D02*
D03*
X573267Y55963D02*
D03*
Y53403D02*
D03*
Y48285D02*
D03*
Y45726D02*
D03*
Y43167D02*
D03*
D91*
X554016Y184837D02*
D03*
Y182869D02*
D03*
Y180900D02*
D03*
Y178931D02*
D03*
Y176963D02*
D03*
X571536Y184837D02*
D03*
Y182869D02*
D03*
Y180900D02*
D03*
Y178931D02*
D03*
Y176963D02*
D03*
D92*
X556869Y68464D02*
D03*
X554530Y196172D02*
D03*
X570003D02*
D03*
X572341Y68464D02*
D03*
D93*
X271431Y106157D02*
D03*
X229698D02*
D03*
D94*
X237442Y218632D02*
D03*
X228780Y255512D02*
D03*
X237442Y259252D02*
D03*
Y251772D02*
D03*
X228780Y238942D02*
D03*
X237442Y242682D02*
D03*
Y235202D02*
D03*
X228780Y222372D02*
D03*
X237442Y226112D02*
D03*
X228780Y205802D02*
D03*
X237442Y209542D02*
D03*
Y202062D02*
D03*
D95*
X584176Y186710D02*
D03*
Y175490D02*
D03*
X594232Y186710D02*
D03*
Y175490D02*
D03*
X122658Y89876D02*
D03*
Y101097D02*
D03*
X582534Y48947D02*
D03*
X122658Y139982D02*
D03*
Y151202D02*
D03*
X59791Y103182D02*
D03*
Y91962D02*
D03*
X60000Y139190D02*
D03*
Y150410D02*
D03*
X582534Y60167D02*
D03*
D96*
X157184Y243832D02*
D03*
X146161D02*
D03*
X157184Y222540D02*
D03*
X146161D02*
D03*
D97*
X148621Y211895D02*
D03*
X156298D02*
D03*
D98*
X193707Y248673D02*
D03*
X174920Y249367D02*
D03*
X184313Y248673D02*
D03*
X203100Y249362D02*
D03*
X174920Y257635D02*
D03*
X184313Y256941D02*
D03*
X193707Y256941D02*
D03*
X203100Y257630D02*
D03*
D99*
X73725Y144329D02*
D03*
Y139329D02*
D03*
Y134329D02*
D03*
Y129329D02*
D03*
Y124329D02*
D03*
Y119329D02*
D03*
Y114329D02*
D03*
Y109329D02*
D03*
X110143Y134329D02*
D03*
Y129329D02*
D03*
Y124329D02*
D03*
Y119329D02*
D03*
Y144329D02*
D03*
Y109329D02*
D03*
Y114329D02*
D03*
Y139329D02*
D03*
D100*
X228590Y171838D02*
D03*
X223590D02*
D03*
X218590D02*
D03*
X213590D02*
D03*
X228590Y150382D02*
D03*
X223590D02*
D03*
X218590D02*
D03*
X213590D02*
D03*
D101*
X221090Y161110D02*
D03*
D102*
X202652Y139794D02*
D03*
X216628D02*
D03*
X131595Y180381D02*
D03*
Y192798D02*
D03*
X117619D02*
D03*
Y180381D02*
D03*
D103*
X653939Y145958D02*
D03*
X658939D02*
D03*
X663939D02*
D03*
X668939D02*
D03*
X673939D02*
D03*
X678939D02*
D03*
X683939D02*
D03*
X638757Y145987D02*
D03*
X633757D02*
D03*
X628757D02*
D03*
X623757D02*
D03*
X618757D02*
D03*
X613757D02*
D03*
X608757D02*
D03*
D104*
X668939Y184344D02*
D03*
X623757Y184373D02*
D03*
D105*
X695706Y92444D02*
D03*
X715981D02*
D03*
D106*
X700233Y140345D02*
D03*
X711453D02*
D03*
D107*
X602857Y103814D02*
D03*
Y75468D02*
D03*
X692976Y67670D02*
D03*
Y39324D02*
D03*
D108*
X133089Y261078D02*
D03*
X121189Y261578D02*
D03*
X101389Y252778D02*
D03*
D109*
X102528Y170540D02*
D03*
Y173060D02*
D03*
Y178099D02*
D03*
Y162981D02*
D03*
Y180619D02*
D03*
Y165501D02*
D03*
Y168020D02*
D03*
Y175580D02*
D03*
X81072Y162981D02*
D03*
Y165501D02*
D03*
Y168020D02*
D03*
Y170540D02*
D03*
Y173060D02*
D03*
Y175580D02*
D03*
Y178099D02*
D03*
Y180619D02*
D03*
D110*
X662710Y95567D02*
D03*
X667709D02*
D03*
X657710D02*
D03*
X672710D02*
D03*
Y57563D02*
D03*
X667709D02*
D03*
X662710D02*
D03*
X657710D02*
D03*
D111*
X665209Y70260D02*
D03*
Y108264D02*
D03*
D112*
X110831Y75200D02*
D03*
Y90200D02*
D03*
Y80200D02*
D03*
Y85200D02*
D03*
X73036Y75200D02*
D03*
Y80200D02*
D03*
Y85200D02*
D03*
Y90200D02*
D03*
D113*
X180004Y117600D02*
D03*
X325415Y85223D02*
D03*
X313407D02*
D03*
X167996Y117600D02*
D03*
X528780Y31733D02*
D03*
X540788D02*
D03*
D114*
X158565Y103065D02*
D03*
X146147D02*
D03*
Y91057D02*
D03*
X36138Y83259D02*
D03*
Y95267D02*
D03*
X158565Y91057D02*
D03*
X48555Y83297D02*
D03*
Y95304D02*
D03*
X43771Y180278D02*
D03*
Y192286D02*
D03*
D115*
X238489Y139638D02*
D03*
X226874D02*
D03*
D116*
X562776Y180900D02*
D03*
D117*
X564507Y49565D02*
D03*
D118*
X21063Y35610D02*
D03*
X11063D02*
D03*
X736221Y58898D02*
D03*
X716221D02*
D03*
X726221D02*
D03*
X736221Y78898D02*
D03*
Y68898D02*
D03*
X726221Y78898D02*
D03*
X716221Y68898D02*
D03*
X726221D02*
D03*
X716221Y78898D02*
D03*
X643352Y12665D02*
D03*
X633352D02*
D03*
X653351D02*
D03*
X633352Y22665D02*
D03*
Y32665D02*
D03*
X643352D02*
D03*
X653351D02*
D03*
Y22665D02*
D03*
X643352D02*
D03*
X622879D02*
D03*
Y12665D02*
D03*
Y32665D02*
D03*
X612879Y12665D02*
D03*
X602879D02*
D03*
Y22665D02*
D03*
Y32665D02*
D03*
X612879D02*
D03*
Y22665D02*
D03*
X661417Y259842D02*
D03*
X671417D02*
D03*
Y269843D02*
D03*
X661417D02*
D03*
X651417D02*
D03*
Y259842D02*
D03*
X671417Y249843D02*
D03*
X651417D02*
D03*
X661417D02*
D03*
X11063Y50610D02*
D03*
Y65610D02*
D03*
Y80610D02*
D03*
Y95610D02*
D03*
Y125610D02*
D03*
Y155610D02*
D03*
Y185610D02*
D03*
Y170610D02*
D03*
Y140610D02*
D03*
Y110610D02*
D03*
X21063Y95610D02*
D03*
Y110610D02*
D03*
Y125610D02*
D03*
Y140610D02*
D03*
Y155610D02*
D03*
Y170610D02*
D03*
Y185610D02*
D03*
Y80610D02*
D03*
Y65610D02*
D03*
Y50610D02*
D03*
D119*
X475476Y230700D02*
D03*
X518783D02*
D03*
X497130Y242672D02*
D03*
D120*
X475476Y211015D02*
D03*
X518783D02*
D03*
X497130Y201172D02*
D03*
X369276Y168500D02*
D03*
X379119Y146846D02*
D03*
Y190154D02*
D03*
X370049Y68554D02*
D03*
X379891Y46900D02*
D03*
Y90207D02*
D03*
D121*
X187734Y207627D02*
D03*
X174372D02*
D03*
X201097D02*
D03*
X214459D02*
D03*
D122*
X187734Y217627D02*
D03*
X174372D02*
D03*
X201097D02*
D03*
X214459D02*
D03*
D123*
X708234Y187680D02*
D03*
Y173901D02*
D03*
D124*
X719657Y17550D02*
D03*
X726378Y255906D02*
D03*
X54800Y21200D02*
D03*
X50200Y257900D02*
D03*
D125*
X410776Y168500D02*
D03*
X398804Y146846D02*
D03*
Y190154D02*
D03*
X411549Y68554D02*
D03*
X399576Y46900D02*
D03*
Y90207D02*
D03*
D126*
X11063Y200610D02*
D03*
X21063D02*
D03*
D127*
X194348Y38532D02*
D03*
X198679D02*
D03*
X194348Y34201D02*
D03*
X198679D02*
D03*
X194348Y29871D02*
D03*
X198679D02*
D03*
X225421Y163276D02*
D03*
Y158945D02*
D03*
X221090Y163276D02*
D03*
Y158945D02*
D03*
X216759Y163276D02*
D03*
Y158945D02*
D03*
D128*
X231900Y259700D02*
D03*
X221048Y248948D02*
D03*
X232500Y243200D02*
D03*
X221253Y243653D02*
D03*
X228900Y227300D02*
D03*
X223200Y206100D02*
D03*
X198500Y257400D02*
D03*
X193400Y261516D02*
D03*
%TF.MD5,0fb9d062a7174809c270de155024210a*%
M02*
