%TF.GenerationSoftware,Altium Limited,Altium Designer,25.8.1 (18)*%
G04 Layer_Color=32896*
%FSLAX25Y25*%
%MOIN*%
%TF.SameCoordinates,3EF1FA0B-48F7-4624-A5EA-CE16923DF4E6*%
%TF.FilePolarity,Positive*%
%TF.FileFunction,Legend,Bot*%
%TF.Part,Single*%
G01*
G75*
%TA.AperFunction,NonConductor*%
%ADD72C,0.01000*%
%ADD73C,0.01968*%
D72*
X538469Y220858D02*
G03*
X538469Y220858I-19685J0D01*
G01*
X495161D02*
G03*
X495161Y220858I-19685J0D01*
G01*
X408646Y190154D02*
G03*
X408646Y190154I-19685J0D01*
G01*
Y146846D02*
G03*
X408646Y146846I-19685J0D01*
G01*
X409419Y90207D02*
G03*
X409419Y90207I-19685J0D01*
G01*
Y46900D02*
G03*
X409419Y46900I-19685J0D01*
G01*
X491630Y243173D02*
X487631D01*
X370050Y74554D02*
Y78552D01*
X368050Y76553D02*
X372049D01*
X412050Y74054D02*
Y78052D01*
X491130Y201173D02*
X487131D01*
X489130Y199174D02*
Y203172D01*
X411277Y174000D02*
Y177999D01*
X369277Y174500D02*
Y178499D01*
X367278Y176499D02*
X371276D01*
X32491Y199814D02*
Y201813D01*
Y200814D01*
X38489D01*
X37489Y199814D01*
D73*
X542406Y224172D02*
G03*
X542406Y224172I-45276J0D01*
G01*
D02*
G03*
X542406Y224172I-45276J0D01*
G01*
X437552Y168500D02*
G03*
X437552Y168500I-45276J0D01*
G01*
D02*
G03*
X437552Y168500I-45276J0D01*
G01*
X438324Y68554D02*
G03*
X438324Y68554I-45276J0D01*
G01*
D02*
G03*
X438324Y68554I-45276J0D01*
G01*
%TF.MD5,264868fd9a512cf2bcf01126c33c9db8*%
M02*
