%TF.GenerationSoftware,Altium Limited,Altium Designer,25.8.1 (18)*%
G04 Layer_Color=8421504*
%FSLAX25Y25*%
%MOIN*%
%TF.SameCoordinates,3EF1FA0B-48F7-4624-A5EA-CE16923DF4E6*%
%TF.FilePolarity,Positive*%
%TF.FileFunction,Paste,Top*%
%TF.Part,Single*%
G01*
G75*
%TA.AperFunction,SMDPad,CuDef*%
%ADD10O,0.05709X0.02362*%
%ADD11R,0.10236X0.12205*%
%ADD12R,0.14173X0.20276*%
%ADD13R,0.07480X0.03740*%
%ADD14R,0.07874X0.06496*%
%ADD15R,0.07087X0.04921*%
%ADD16R,0.06890X0.04528*%
G04:AMPARAMS|DCode=17|XSize=51.18mil|YSize=29.92mil|CornerRadius=3.74mil|HoleSize=0mil|Usage=FLASHONLY|Rotation=90.000|XOffset=0mil|YOffset=0mil|HoleType=Round|Shape=RoundedRectangle|*
%AMROUNDEDRECTD17*
21,1,0.05118,0.02244,0,0,90.0*
21,1,0.04370,0.02992,0,0,90.0*
1,1,0.00748,0.01122,0.02185*
1,1,0.00748,0.01122,-0.02185*
1,1,0.00748,-0.01122,-0.02185*
1,1,0.00748,-0.01122,0.02185*
%
%ADD17ROUNDEDRECTD17*%
%ADD18R,0.04528X0.06890*%
%ADD19R,0.04724X0.05709*%
%ADD20O,0.05315X0.01968*%
%ADD21O,0.05315X0.01181*%
%ADD22R,0.07874X0.06299*%
%ADD23R,0.10261X0.06704*%
%ADD24R,0.06704X0.10261*%
%ADD25R,0.14173X0.20079*%
%ADD26R,0.05512X0.03937*%
%ADD27R,0.06890X0.04921*%
%ADD28R,0.05512X0.07284*%
%ADD29R,0.05315X0.05709*%
%ADD30R,0.05118X0.04331*%
%ADD31R,0.07316X0.05927*%
%ADD32O,0.10236X0.02756*%
%ADD33O,0.02362X0.05709*%
%ADD34R,0.12205X0.10236*%
%ADD35R,0.03740X0.07480*%
%ADD36R,0.03347X0.16339*%
%ADD37R,0.39764X0.36221*%
%ADD38R,0.08071X0.13386*%
%ADD39R,0.05927X0.07316*%
%ADD40R,0.04921X0.06890*%
%ADD41R,0.12598X0.10236*%
%ADD43O,0.05709X0.01772*%
G04:AMPARAMS|DCode=44|XSize=27.56mil|YSize=45.28mil|CornerRadius=3.45mil|HoleSize=0mil|Usage=FLASHONLY|Rotation=180.000|XOffset=0mil|YOffset=0mil|HoleType=Round|Shape=RoundedRectangle|*
%AMROUNDEDRECTD44*
21,1,0.02756,0.03839,0,0,180.0*
21,1,0.02067,0.04528,0,0,180.0*
1,1,0.00689,-0.01034,0.01919*
1,1,0.00689,0.01034,0.01919*
1,1,0.00689,0.01034,-0.01919*
1,1,0.00689,-0.01034,-0.01919*
%
%ADD44ROUNDEDRECTD44*%
%ADD47O,0.06693X0.02362*%
%ADD48R,0.05315X0.07284*%
%ADD49R,0.02800X0.01200*%
%ADD50R,0.07284X0.05315*%
%ADD51R,0.06496X0.07874*%
%ADD52R,0.06614X0.07402*%
%ADD54R,0.02800X0.01600*%
%ADD56R,0.06102X0.11614*%
%ADD129R,0.01890X0.05039*%
G36*
X669927Y232978D02*
X656927D01*
X656927Y240078D01*
X658127D01*
Y237678D01*
X659874D01*
Y240078D01*
X661074D01*
Y237678D01*
X662827D01*
Y240078D01*
X664027D01*
Y237678D01*
X665780D01*
Y240078D01*
X666980D01*
Y237678D01*
X668727D01*
Y240078D01*
X669927D01*
X669927Y232978D01*
D02*
G37*
G36*
X669927Y214830D02*
X668727D01*
Y217230D01*
X666980D01*
Y214830D01*
X665780D01*
Y217230D01*
X664027D01*
Y214830D01*
X662827D01*
Y217230D01*
X661074D01*
Y214830D01*
X659874D01*
Y217230D01*
X658127D01*
Y214830D01*
X656927D01*
X656927Y221930D01*
X669927D01*
X669927Y214830D01*
D02*
G37*
G36*
X647674Y96725D02*
X643737D01*
Y98929D01*
X647674D01*
Y96725D01*
D02*
G37*
G36*
X623806Y96528D02*
X622448D01*
Y99126D01*
X623806D01*
Y96528D01*
D02*
G37*
G36*
X638934Y95219D02*
X634682D01*
Y99018D01*
X638934D01*
Y95219D01*
D02*
G37*
G36*
X633894D02*
X629642D01*
Y99018D01*
X633894D01*
Y95219D01*
D02*
G37*
G36*
X628855D02*
X624603D01*
Y99018D01*
X628855D01*
Y95219D01*
D02*
G37*
G36*
X647891Y91803D02*
X646394D01*
Y94402D01*
X647891D01*
Y91803D01*
D02*
G37*
G36*
X623806D02*
X622448D01*
Y94402D01*
X623806D01*
Y91803D01*
D02*
G37*
G36*
X638934Y90632D02*
X634682D01*
Y94431D01*
X638934D01*
Y90632D01*
D02*
G37*
G36*
X633894D02*
X629642D01*
Y94431D01*
X633894D01*
Y90632D01*
D02*
G37*
G36*
X628855D02*
X624603D01*
Y94431D01*
X628855D01*
Y90632D01*
D02*
G37*
G36*
X647891Y87079D02*
X646394D01*
Y89677D01*
X647891D01*
Y87079D01*
D02*
G37*
G36*
X645607Y86410D02*
X643520D01*
Y94402D01*
X645607D01*
Y86410D01*
D02*
G37*
G36*
X647891Y82354D02*
X646394D01*
Y84953D01*
X647891D01*
Y82354D01*
D02*
G37*
G36*
X623806D02*
X622448D01*
Y84953D01*
X623806D01*
Y82354D01*
D02*
G37*
G36*
X639022Y82345D02*
X635223D01*
Y86065D01*
X639022D01*
Y82345D01*
D02*
G37*
G36*
X634446Y82266D02*
X629918D01*
Y86065D01*
X634446D01*
Y82266D01*
D02*
G37*
G36*
X629131D02*
X624603D01*
Y86065D01*
X629131D01*
Y82266D01*
D02*
G37*
G36*
X634446Y77679D02*
X629918D01*
Y81479D01*
X634446D01*
Y77679D01*
D02*
G37*
G36*
X629131D02*
X624603D01*
Y81479D01*
X629131D01*
Y77679D01*
D02*
G37*
G36*
X647891Y77630D02*
X646394D01*
Y80229D01*
X647891D01*
Y77630D01*
D02*
G37*
G36*
X645607D02*
X643520D01*
Y85622D01*
X645607D01*
Y77630D01*
D02*
G37*
G36*
X623806D02*
X622448D01*
Y80229D01*
X623806D01*
Y77630D01*
D02*
G37*
D10*
X185785Y41701D02*
D03*
Y36702D02*
D03*
Y31701D02*
D03*
Y26702D02*
D03*
X207242Y41701D02*
D03*
Y36702D02*
D03*
Y31701D02*
D03*
Y26702D02*
D03*
X695115Y128684D02*
D03*
Y123684D02*
D03*
Y118684D02*
D03*
Y113684D02*
D03*
X716572Y128684D02*
D03*
Y123684D02*
D03*
Y118684D02*
D03*
Y113684D02*
D03*
D11*
X196513Y34201D02*
D03*
D12*
X233864Y38102D02*
D03*
X274809D02*
D03*
D13*
X217789Y14005D02*
D03*
Y27982D02*
D03*
X552122Y35355D02*
D03*
Y21379D02*
D03*
X70426Y193370D02*
D03*
Y179394D02*
D03*
X56271Y193370D02*
D03*
Y179394D02*
D03*
D14*
X218027Y38041D02*
D03*
Y49655D02*
D03*
X160994Y46409D02*
D03*
Y34795D02*
D03*
X173805Y46409D02*
D03*
Y34795D02*
D03*
X289687Y60592D02*
D03*
Y48978D02*
D03*
X286309Y123074D02*
D03*
X288793Y171492D02*
D03*
Y183107D02*
D03*
X275982Y171492D02*
D03*
Y183107D02*
D03*
X286309Y134688D02*
D03*
D15*
X300726Y56181D02*
D03*
Y46141D02*
D03*
X309994Y56181D02*
D03*
Y46141D02*
D03*
D16*
X184962Y19095D02*
D03*
Y7875D02*
D03*
X300498Y89283D02*
D03*
X319655Y57755D02*
D03*
X627994Y248534D02*
D03*
X617938D02*
D03*
X319655Y46535D02*
D03*
X617938Y237314D02*
D03*
X627994D02*
D03*
X617758Y218498D02*
D03*
Y229718D02*
D03*
X627994Y218498D02*
D03*
Y229718D02*
D03*
X300498Y78062D02*
D03*
D17*
X319926Y65350D02*
D03*
X312879D02*
D03*
D18*
X200483Y181205D02*
D03*
X211703D02*
D03*
D19*
X148720Y233186D02*
D03*
X156594D02*
D03*
D20*
X555747Y43167D02*
D03*
Y45726D02*
D03*
X573267Y50844D02*
D03*
X555747Y55963D02*
D03*
Y53403D02*
D03*
Y50844D02*
D03*
Y48285D02*
D03*
X573267Y55963D02*
D03*
Y53403D02*
D03*
Y48285D02*
D03*
Y45726D02*
D03*
Y43167D02*
D03*
D21*
X554016Y184837D02*
D03*
Y182869D02*
D03*
Y180900D02*
D03*
Y178931D02*
D03*
Y176963D02*
D03*
X571536Y184837D02*
D03*
Y182869D02*
D03*
Y180900D02*
D03*
Y178931D02*
D03*
Y176963D02*
D03*
D22*
X556869Y68464D02*
D03*
X554530Y196172D02*
D03*
X570003D02*
D03*
X572341Y68464D02*
D03*
D23*
X300498Y121899D02*
D03*
X287687Y88436D02*
D03*
X462552Y124249D02*
D03*
Y115976D02*
D03*
X561946Y97823D02*
D03*
Y106096D02*
D03*
X578693Y97823D02*
D03*
Y106096D02*
D03*
X545175Y97823D02*
D03*
Y106096D02*
D03*
X512253Y78873D02*
D03*
Y87145D02*
D03*
X495686D02*
D03*
Y78873D02*
D03*
X528820Y105697D02*
D03*
Y97424D02*
D03*
X512253Y115976D02*
D03*
Y124249D02*
D03*
X561953Y115976D02*
D03*
Y124249D02*
D03*
X462552Y105697D02*
D03*
Y97424D02*
D03*
X528820Y115976D02*
D03*
Y124249D02*
D03*
X495686Y115976D02*
D03*
Y124249D02*
D03*
Y97424D02*
D03*
Y105697D02*
D03*
X545387Y124249D02*
D03*
Y115976D02*
D03*
X479119Y97424D02*
D03*
Y105697D02*
D03*
X511749Y133780D02*
D03*
Y142053D02*
D03*
X462552Y78873D02*
D03*
Y87145D02*
D03*
X578520Y115976D02*
D03*
Y124249D02*
D03*
X512253Y97424D02*
D03*
Y105697D02*
D03*
X561938Y80271D02*
D03*
Y88544D02*
D03*
X479072Y41654D02*
D03*
Y49927D02*
D03*
Y68431D02*
D03*
Y60158D02*
D03*
X261793Y170317D02*
D03*
Y178589D02*
D03*
X287687Y80164D02*
D03*
X300498Y130171D02*
D03*
X462576Y50333D02*
D03*
Y42061D02*
D03*
X462552Y68593D02*
D03*
Y60321D02*
D03*
X528820D02*
D03*
Y68593D02*
D03*
X495686D02*
D03*
Y60321D02*
D03*
X479119Y124249D02*
D03*
Y115976D02*
D03*
Y134528D02*
D03*
Y142800D02*
D03*
X462552Y134528D02*
D03*
Y142800D02*
D03*
X545371Y80271D02*
D03*
Y88544D02*
D03*
X578505D02*
D03*
Y80271D02*
D03*
X528820Y134528D02*
D03*
Y142800D02*
D03*
X528472Y42769D02*
D03*
Y51042D02*
D03*
X511568Y42245D02*
D03*
Y50517D02*
D03*
X528481Y87134D02*
D03*
Y78861D02*
D03*
X479119Y78873D02*
D03*
Y87145D02*
D03*
X496001Y42245D02*
D03*
Y50517D02*
D03*
X561953Y134528D02*
D03*
Y142800D02*
D03*
X512253Y60321D02*
D03*
Y68593D02*
D03*
X578520Y142800D02*
D03*
Y134528D02*
D03*
X495686Y142800D02*
D03*
Y134528D02*
D03*
X545387D02*
D03*
Y142800D02*
D03*
D24*
X312921Y115122D02*
D03*
Y99556D02*
D03*
X321193D02*
D03*
Y115122D02*
D03*
D25*
X271431Y106157D02*
D03*
X229698D02*
D03*
D26*
X237442Y218632D02*
D03*
X228780Y255512D02*
D03*
X237442Y259252D02*
D03*
Y251772D02*
D03*
X228780Y238942D02*
D03*
X237442Y242682D02*
D03*
Y235202D02*
D03*
X228780Y222372D02*
D03*
X237442Y226112D02*
D03*
X228780Y205802D02*
D03*
X237442Y209542D02*
D03*
Y202062D02*
D03*
D27*
X584176Y186710D02*
D03*
Y175490D02*
D03*
X594232Y186710D02*
D03*
Y175490D02*
D03*
X122658Y89876D02*
D03*
Y101097D02*
D03*
X582534Y48947D02*
D03*
X122658Y139982D02*
D03*
Y151202D02*
D03*
X59791Y103182D02*
D03*
Y91962D02*
D03*
X60000Y139190D02*
D03*
Y150410D02*
D03*
X582534Y60167D02*
D03*
D28*
X157184Y243832D02*
D03*
X146161D02*
D03*
X157184Y222540D02*
D03*
X146161D02*
D03*
D29*
X148621Y211895D02*
D03*
X156298D02*
D03*
D30*
X193707Y248673D02*
D03*
X174920Y249367D02*
D03*
X184313Y248673D02*
D03*
X203100Y249362D02*
D03*
X174920Y257635D02*
D03*
X184313Y256941D02*
D03*
X193707Y256941D02*
D03*
X203100Y257630D02*
D03*
D31*
X133812Y91659D02*
D03*
Y103284D02*
D03*
D32*
X73725Y144329D02*
D03*
Y139329D02*
D03*
Y134329D02*
D03*
Y129329D02*
D03*
Y124329D02*
D03*
Y119329D02*
D03*
Y114329D02*
D03*
Y109329D02*
D03*
X110143Y134329D02*
D03*
Y129329D02*
D03*
Y124329D02*
D03*
Y119329D02*
D03*
Y144329D02*
D03*
Y109329D02*
D03*
Y114329D02*
D03*
Y139329D02*
D03*
D33*
X228590Y171838D02*
D03*
X223590D02*
D03*
X218590D02*
D03*
X213590D02*
D03*
X228590Y150382D02*
D03*
X223590D02*
D03*
X218590D02*
D03*
X213590D02*
D03*
D34*
X221090Y161110D02*
D03*
D35*
X202652Y139794D02*
D03*
X216628D02*
D03*
X131595Y180381D02*
D03*
Y192798D02*
D03*
X117619D02*
D03*
Y180381D02*
D03*
D36*
X653939Y145958D02*
D03*
X658939D02*
D03*
X663939D02*
D03*
X668939D02*
D03*
X673939D02*
D03*
X678939D02*
D03*
X683939D02*
D03*
X638757Y145987D02*
D03*
X633757D02*
D03*
X628757D02*
D03*
X623757D02*
D03*
X618757D02*
D03*
X613757D02*
D03*
X608757D02*
D03*
D37*
X668939Y184344D02*
D03*
X623757Y184373D02*
D03*
D38*
X695706Y92444D02*
D03*
X715981D02*
D03*
D39*
X700031Y151499D02*
D03*
X711656D02*
D03*
D40*
X700233Y140345D02*
D03*
X711453D02*
D03*
D41*
X602857Y103814D02*
D03*
Y75468D02*
D03*
X692976Y67670D02*
D03*
Y39324D02*
D03*
D43*
X102528Y170540D02*
D03*
Y173060D02*
D03*
Y178099D02*
D03*
Y162981D02*
D03*
Y180619D02*
D03*
Y165501D02*
D03*
Y168020D02*
D03*
Y175580D02*
D03*
X81072Y162981D02*
D03*
Y165501D02*
D03*
Y168020D02*
D03*
Y170540D02*
D03*
Y173060D02*
D03*
Y175580D02*
D03*
Y178099D02*
D03*
Y180619D02*
D03*
D44*
X662710Y95567D02*
D03*
X667709D02*
D03*
X657710D02*
D03*
X672710D02*
D03*
Y57563D02*
D03*
X667709D02*
D03*
X662710D02*
D03*
X657710D02*
D03*
D47*
X110831Y75200D02*
D03*
Y90200D02*
D03*
Y80200D02*
D03*
Y85200D02*
D03*
X73036Y75200D02*
D03*
Y80200D02*
D03*
Y85200D02*
D03*
Y90200D02*
D03*
D48*
X180004Y117600D02*
D03*
X325415Y85223D02*
D03*
X313407D02*
D03*
X167996Y117600D02*
D03*
X528780Y31733D02*
D03*
X540788D02*
D03*
D49*
X674648Y228832D02*
D03*
Y231194D02*
D03*
Y226273D02*
D03*
Y221746D02*
D03*
X652207Y221746D02*
D03*
Y224108D02*
D03*
Y226470D02*
D03*
Y228832D02*
D03*
Y233950D02*
D03*
D50*
X158565Y103065D02*
D03*
X146147D02*
D03*
Y91057D02*
D03*
X36138Y83259D02*
D03*
Y95267D02*
D03*
X158565Y91057D02*
D03*
X48555Y83297D02*
D03*
Y95304D02*
D03*
X43771Y180278D02*
D03*
Y192286D02*
D03*
D51*
X238489Y139638D02*
D03*
X226874D02*
D03*
D52*
X562776Y180900D02*
D03*
D54*
X674648Y236903D02*
D03*
Y218005D02*
D03*
X652207Y218005D02*
D03*
Y236903D02*
D03*
D56*
X564507Y49565D02*
D03*
D129*
X637930Y77748D02*
D03*
%TF.MD5,33b90c4f3956ac8a8acedfb803caf784*%
M02*
