%TF.GenerationSoftware,Altium Limited,Altium Designer,25.8.1 (18)*%
G04 Layer_Color=16711935*
%FSLAX25Y25*%
%MOIN*%
%TF.SameCoordinates,341964EA-2177-4247-A185-6658037C82A0*%
%TF.FilePolarity,Negative*%
%TF.FileFunction,Soldermask,Bot*%
%TF.Part,Single*%
G01*
G75*
%TA.AperFunction,ComponentPad*%
%ADD89C,0.06181*%
%ADD151C,0.07887*%
%ADD152C,0.07099*%
%ADD153R,0.08674X0.08674*%
%ADD154R,0.08674X0.08674*%
%ADD155C,0.06800*%
%ADD156C,0.08674*%
G04:AMPARAMS|DCode=157|XSize=70.99mil|YSize=70.99mil|CornerRadius=19.75mil|HoleSize=0mil|Usage=FLASHONLY|Rotation=270.000|XOffset=0mil|YOffset=0mil|HoleType=Round|Shape=RoundedRectangle|*
%AMROUNDEDRECTD157*
21,1,0.07099,0.03150,0,0,270.0*
21,1,0.03150,0.07099,0,0,270.0*
1,1,0.03950,-0.01575,-0.01575*
1,1,0.03950,-0.01575,0.01575*
1,1,0.03950,0.01575,0.01575*
1,1,0.03950,0.01575,-0.01575*
%
%ADD157ROUNDEDRECTD157*%
%ADD158C,0.30328*%
G04:AMPARAMS|DCode=159|XSize=78.87mil|YSize=78.87mil|CornerRadius=21.72mil|HoleSize=0mil|Usage=FLASHONLY|Rotation=270.000|XOffset=0mil|YOffset=0mil|HoleType=Round|Shape=RoundedRectangle|*
%AMROUNDEDRECTD159*
21,1,0.07887,0.03543,0,0,270.0*
21,1,0.03543,0.07887,0,0,270.0*
1,1,0.04343,-0.01772,-0.01772*
1,1,0.04343,-0.01772,0.01772*
1,1,0.04343,0.01772,0.01772*
1,1,0.04343,0.01772,-0.01772*
%
%ADD159ROUNDEDRECTD159*%
%TA.AperFunction,ViaPad*%
%ADD160C,0.03200*%
%ADD161C,0.03162*%
%TA.AperFunction,SMDPad,CuDef*%
G04:AMPARAMS|DCode=162|XSize=86.74mil|YSize=86.74mil|CornerRadius=0mil|HoleSize=0mil|Usage=FLASHONLY|Rotation=0.000|XOffset=0mil|YOffset=0mil|HoleType=Round|Shape=RoundedRectangle|*
%AMROUNDEDRECTD162*
21,1,0.08674,0.08674,0,0,0.0*
21,1,0.08674,0.08674,0,0,0.0*
1,1,0.00000,0.04337,-0.04337*
1,1,0.00000,-0.04337,-0.04337*
1,1,0.00000,-0.04337,0.04337*
1,1,0.00000,0.04337,0.04337*
%
%ADD162ROUNDEDRECTD162*%
D89*
X203600Y159000D02*
D03*
X124016Y268701D02*
D03*
X642717Y129921D02*
D03*
X497047Y20669D02*
D03*
X647600Y104000D02*
D03*
X369116Y24500D02*
D03*
X595700Y112500D02*
D03*
X261400Y62300D02*
D03*
X74803Y42323D02*
D03*
Y20793D02*
D03*
X184055Y87598D02*
D03*
Y74803D02*
D03*
X133500Y180200D02*
D03*
X633600Y206700D02*
D03*
X236303Y117700D02*
D03*
X170276D02*
D03*
X261258D02*
D03*
X248879D02*
D03*
D151*
X21063Y55295D02*
D03*
X11063D02*
D03*
X571288Y30823D02*
D03*
X561288D02*
D03*
X551289Y20823D02*
D03*
X561288D02*
D03*
X571288Y10823D02*
D03*
Y20823D02*
D03*
X551289Y10823D02*
D03*
X561288D02*
D03*
X540816Y30823D02*
D03*
X530816D02*
D03*
X551289D02*
D03*
X520816Y20823D02*
D03*
Y30823D02*
D03*
X540816Y20823D02*
D03*
Y10823D02*
D03*
X530816D02*
D03*
Y20823D02*
D03*
X520816Y10823D02*
D03*
X21063Y70295D02*
D03*
X11063D02*
D03*
X637795Y68898D02*
D03*
Y78898D02*
D03*
X627795D02*
D03*
Y68898D02*
D03*
Y58898D02*
D03*
X637795D02*
D03*
X647795Y78898D02*
D03*
Y58898D02*
D03*
Y68898D02*
D03*
X559669Y242969D02*
D03*
X549669D02*
D03*
X569669D02*
D03*
X549669Y252969D02*
D03*
Y262968D02*
D03*
X559669D02*
D03*
X569669D02*
D03*
Y252969D02*
D03*
X559669D02*
D03*
X21063Y85295D02*
D03*
Y100295D02*
D03*
Y205295D02*
D03*
Y190295D02*
D03*
Y175295D02*
D03*
Y160295D02*
D03*
Y145295D02*
D03*
Y130295D02*
D03*
Y115295D02*
D03*
X11063Y130295D02*
D03*
Y160295D02*
D03*
Y190295D02*
D03*
Y205295D02*
D03*
Y175295D02*
D03*
Y145295D02*
D03*
Y115295D02*
D03*
Y100295D02*
D03*
Y85295D02*
D03*
D152*
X651000Y173000D02*
D03*
Y183000D02*
D03*
X304000Y213000D02*
D03*
X289000D02*
D03*
X317892Y213627D02*
D03*
X331255D02*
D03*
D153*
X435654Y197972D02*
D03*
X414000Y186000D02*
D03*
X392346Y197972D02*
D03*
D154*
X322000Y169307D02*
D03*
X333972Y147654D02*
D03*
X322000Y126000D02*
D03*
X322694Y75307D02*
D03*
X334666Y53654D02*
D03*
X322694Y32000D02*
D03*
D155*
X622500Y177720D02*
D03*
Y191500D02*
D03*
D156*
X435654Y217657D02*
D03*
X392346D02*
D03*
X414000Y227500D02*
D03*
X302315Y169307D02*
D03*
Y126000D02*
D03*
X292472Y147654D02*
D03*
X303009Y75307D02*
D03*
Y32000D02*
D03*
X293166Y53654D02*
D03*
D157*
X651000Y193000D02*
D03*
X304000Y223000D02*
D03*
X289000D02*
D03*
X317892Y223627D02*
D03*
X331255D02*
D03*
D158*
X629921Y255906D02*
D03*
X629921Y19685D02*
D03*
X39370Y19685D02*
D03*
Y255906D02*
D03*
D159*
X21063Y220295D02*
D03*
X11063D02*
D03*
D160*
X567913Y219488D02*
D03*
X562008D02*
D03*
X556102D02*
D03*
X210000Y256000D02*
D03*
X203000D02*
D03*
X529000Y72000D02*
D03*
Y77000D02*
D03*
X522000Y84000D02*
D03*
X520000Y86000D02*
D03*
X229000Y238000D02*
D03*
X166000Y250000D02*
D03*
X500000Y37402D02*
D03*
X468273Y192913D02*
D03*
X210630Y165354D02*
D03*
X257874Y238189D02*
D03*
X122118Y28622D02*
D03*
X133140Y28591D02*
D03*
X117000Y17000D02*
D03*
X266668Y264532D02*
D03*
X175197D02*
D03*
X206693Y251969D02*
D03*
X109013Y192147D02*
D03*
X112205Y180927D02*
D03*
X529296Y67367D02*
D03*
X513779Y261811D02*
D03*
X509842Y265748D02*
D03*
X590551Y232283D02*
D03*
X490158Y261811D02*
D03*
Y265748D02*
D03*
X259842Y244179D02*
D03*
X505905Y242126D02*
D03*
X623694Y131568D02*
D03*
X248031Y218504D02*
D03*
Y228346D02*
D03*
X127953Y107000D02*
D03*
X122122Y161122D02*
D03*
X154000Y103000D02*
D03*
X138000Y71000D02*
D03*
X129000Y47000D02*
D03*
X381000Y148728D02*
D03*
X112000Y184327D02*
D03*
X616000Y120000D02*
D03*
X271904Y137211D02*
D03*
X249016Y143701D02*
D03*
X236221Y146885D02*
D03*
X616142Y129921D02*
D03*
X134000Y16824D02*
D03*
X45000Y84000D02*
D03*
X51000Y114000D02*
D03*
X66000Y106000D02*
D03*
X39000Y139000D02*
D03*
X55000Y161000D02*
D03*
X76000Y194000D02*
D03*
X568000Y151000D02*
D03*
X523000D02*
D03*
X491000Y176000D02*
D03*
X266000Y137332D02*
D03*
X267000Y161000D02*
D03*
X580000Y218774D02*
D03*
X584010Y59628D02*
D03*
X549213Y72835D02*
D03*
X523622Y62286D02*
D03*
X584646Y100394D02*
D03*
X561024D02*
D03*
X521654Y72835D02*
D03*
X488189Y68898D02*
D03*
X366142Y157333D02*
D03*
X375984Y222441D02*
D03*
X362205D02*
D03*
X372047Y196850D02*
D03*
X137795Y146885D02*
D03*
X460630Y179134D02*
D03*
X133858Y127953D02*
D03*
X488189Y72835D02*
D03*
X490158Y76772D02*
D03*
X124016Y139764D02*
D03*
Y143701D02*
D03*
X137795Y82677D02*
D03*
X281496Y78740D02*
D03*
Y158233D02*
D03*
X543307Y210630D02*
D03*
X153543Y82677D02*
D03*
X277559D02*
D03*
Y161417D02*
D03*
X543307Y216412D02*
D03*
X338000Y229000D02*
D03*
X337000Y245000D02*
D03*
Y262000D02*
D03*
X278000Y247000D02*
D03*
X282000D02*
D03*
X285816D02*
D03*
X325000Y262000D02*
D03*
X311000D02*
D03*
X298000D02*
D03*
D161*
X179134Y96457D02*
D03*
X633858Y234252D02*
D03*
X234252D02*
D03*
X172244Y192913D02*
D03*
X323819Y55118D02*
D03*
X254921Y165354D02*
D03*
X144685Y55118D02*
D03*
X482284Y261811D02*
D03*
X358268Y234252D02*
D03*
X261811Y179134D02*
D03*
X344488Y151575D02*
D03*
X158465Y220473D02*
D03*
X137795Y261811D02*
D03*
X124016Y151575D02*
D03*
X268701Y110236D02*
D03*
X599410Y248031D02*
D03*
X468504Y206693D02*
D03*
X385827Y13780D02*
D03*
X165354D02*
D03*
X640748Y137795D02*
D03*
X124016Y206693D02*
D03*
X544291Y55118D02*
D03*
X502953Y192913D02*
D03*
X330709Y124016D02*
D03*
X461614Y82677D02*
D03*
X454725Y13780D02*
D03*
X654528Y27559D02*
D03*
X392717Y248031D02*
D03*
X564961Y41339D02*
D03*
X158465Y55118D02*
D03*
X110236Y41339D02*
D03*
X558071Y55118D02*
D03*
X502953Y248031D02*
D03*
X585630Y27559D02*
D03*
X275591Y261811D02*
D03*
X323819Y192913D02*
D03*
X172244Y55118D02*
D03*
X613189Y248031D02*
D03*
X516732Y27559D02*
D03*
X144685Y192913D02*
D03*
X427165Y68898D02*
D03*
X654528Y110236D02*
D03*
X461614Y248031D02*
D03*
X165354Y68898D02*
D03*
X489173Y55118D02*
D03*
X613189Y220473D02*
D03*
X234252Y151575D02*
D03*
X447835Y248031D02*
D03*
X509843Y13780D02*
D03*
X110236Y68898D02*
D03*
X620079Y41339D02*
D03*
X509843Y234252D02*
D03*
X337598Y192913D02*
D03*
X144685Y165354D02*
D03*
X427165Y41339D02*
D03*
X110236Y13780D02*
D03*
X599410Y55118D02*
D03*
X489173Y248031D02*
D03*
X144685Y110236D02*
D03*
Y220473D02*
D03*
X124016Y261811D02*
D03*
X468504Y13780D02*
D03*
X206693Y96457D02*
D03*
X530512Y55118D02*
D03*
X613189Y27559D02*
D03*
X241142Y165354D02*
D03*
X124016Y41339D02*
D03*
X117126Y110236D02*
D03*
Y82677D02*
D03*
X330709Y68898D02*
D03*
X578740Y13780D02*
D03*
X440945Y151575D02*
D03*
X124016Y13780D02*
D03*
X372047Y261811D02*
D03*
X241142Y110236D02*
D03*
X606299Y13780D02*
D03*
X413386Y261811D02*
D03*
X461614Y110236D02*
D03*
X165354Y179134D02*
D03*
X344488Y13780D02*
D03*
X468504Y261811D02*
D03*
X316929Y68898D02*
D03*
X606299Y261811D02*
D03*
X151575Y234252D02*
D03*
X241142Y220473D02*
D03*
X117126Y165354D02*
D03*
X206693Y68898D02*
D03*
X454725Y151575D02*
D03*
X502953Y55118D02*
D03*
X378937Y27559D02*
D03*
X186024Y110236D02*
D03*
X626969Y220473D02*
D03*
X489173Y82677D02*
D03*
X620079Y234252D02*
D03*
X248031D02*
D03*
X654528Y137795D02*
D03*
X420276Y248031D02*
D03*
X475394Y27559D02*
D03*
X599410D02*
D03*
X344488Y234252D02*
D03*
X282480Y220473D02*
D03*
X268701Y192913D02*
D03*
X137795Y151575D02*
D03*
X213583Y110236D02*
D03*
X633858Y41339D02*
D03*
X344488Y124016D02*
D03*
X461614Y27559D02*
D03*
X192913Y96457D02*
D03*
X254921Y110236D02*
D03*
X385827Y261811D02*
D03*
X613189Y55118D02*
D03*
X496063Y13780D02*
D03*
X151575Y41339D02*
D03*
X165354Y96457D02*
D03*
X599410Y220473D02*
D03*
X310039Y248031D02*
D03*
X406496Y27559D02*
D03*
X489173D02*
D03*
X447835Y192913D02*
D03*
X179134Y234252D02*
D03*
X172244Y110236D02*
D03*
X124016Y124016D02*
D03*
X475394Y165354D02*
D03*
X427165Y261811D02*
D03*
X440945D02*
D03*
X358268Y13780D02*
D03*
Y261811D02*
D03*
X165354Y206693D02*
D03*
X537402Y41339D02*
D03*
X261811Y124016D02*
D03*
X523622Y41339D02*
D03*
X158465Y248031D02*
D03*
X137795Y206693D02*
D03*
X406496Y248031D02*
D03*
X613189Y110236D02*
D03*
X468504Y234252D02*
D03*
X234252Y206693D02*
D03*
X124016Y234252D02*
D03*
X489173Y165354D02*
D03*
X523622Y261811D02*
D03*
X337598Y27559D02*
D03*
X234252Y96457D02*
D03*
X282480Y192913D02*
D03*
X248031Y179134D02*
D03*
X606299Y234252D02*
D03*
X551181Y41339D02*
D03*
X502953Y27559D02*
D03*
X475394Y248031D02*
D03*
X296260D02*
D03*
X110236Y234252D02*
D03*
X585630Y248031D02*
D03*
X372047Y13780D02*
D03*
X199803Y110236D02*
D03*
X509843Y41339D02*
D03*
X399606Y261811D02*
D03*
X117126Y248031D02*
D03*
X151575Y96457D02*
D03*
X468504Y151575D02*
D03*
X496063Y234252D02*
D03*
X592520Y13780D02*
D03*
X482284Y206693D02*
D03*
X399606Y13780D02*
D03*
X117126Y192913D02*
D03*
X165354Y234252D02*
D03*
X447835Y27559D02*
D03*
X192913Y68898D02*
D03*
X537402Y261811D02*
D03*
X516732Y55118D02*
D03*
X310039Y192913D02*
D03*
X248031Y151575D02*
D03*
X647638Y13780D02*
D03*
X337598Y220473D02*
D03*
X275591Y179134D02*
D03*
X316929Y151575D02*
D03*
X110236Y261811D02*
D03*
X434055Y27559D02*
D03*
X137795Y41339D02*
D03*
X585630Y220473D02*
D03*
X378937Y248031D02*
D03*
X199803D02*
D03*
X117126Y55118D02*
D03*
X626969Y110236D02*
D03*
X151575Y179134D02*
D03*
X640748Y110236D02*
D03*
X440945Y13780D02*
D03*
X351378Y192913D02*
D03*
X220473Y234252D02*
D03*
X427165Y151575D02*
D03*
X323819Y82677D02*
D03*
X420276Y27559D02*
D03*
X316929Y41339D02*
D03*
X137795Y234252D02*
D03*
X482284Y41339D02*
D03*
X351378Y220473D02*
D03*
X578740Y41339D02*
D03*
X537402Y234252D02*
D03*
X647638Y124016D02*
D03*
X489173Y220473D02*
D03*
X461614Y192913D02*
D03*
X303150Y13780D02*
D03*
X275591D02*
D03*
X220473Y124016D02*
D03*
X151575Y261811D02*
D03*
X220473Y96457D02*
D03*
X427165Y13780D02*
D03*
X454725Y261811D02*
D03*
X413386Y13780D02*
D03*
X248031Y96457D02*
D03*
X640748Y192913D02*
D03*
X392717Y27559D02*
D03*
X592520Y41339D02*
D03*
X647638D02*
D03*
X254921Y192913D02*
D03*
X461614Y220473D02*
D03*
X337598Y82677D02*
D03*
X475394Y220473D02*
D03*
X482284Y234252D02*
D03*
X330709Y13780D02*
D03*
X179134Y124016D02*
D03*
Y68898D02*
D03*
X365158Y192913D02*
D03*
X254921Y248031D02*
D03*
X206693Y234252D02*
D03*
X151575Y206693D02*
D03*
X165354Y41339D02*
D03*
X117126Y220473D02*
D03*
X365158Y248031D02*
D03*
X186024Y55118D02*
D03*
X640748Y220473D02*
D03*
X241142Y248031D02*
D03*
X592520Y261811D02*
D03*
X234252Y179134D02*
D03*
X330709Y41339D02*
D03*
X227362Y110236D02*
D03*
X220473Y68898D02*
D03*
X130905Y55118D02*
D03*
X530512Y248031D02*
D03*
X434055D02*
D03*
X165354Y124016D02*
D03*
X289370Y13780D02*
D03*
X482284D02*
D03*
X151575Y151575D02*
D03*
X213583Y158661D02*
D03*
X210531Y152559D02*
D03*
X204429Y164764D02*
D03*
Y152559D02*
D03*
X198327Y164764D02*
D03*
X195275Y158661D02*
D03*
X198327Y152559D02*
D03*
X192224Y164764D02*
D03*
Y152559D02*
D03*
X246063Y59055D02*
D03*
X289370Y35433D02*
D03*
X413386Y106299D02*
D03*
X429134D02*
D03*
X468504Y114173D02*
D03*
X478347Y110236D02*
D03*
X395670D02*
D03*
X379922D02*
D03*
X401575Y114173D02*
D03*
X417323D02*
D03*
X466536Y118110D02*
D03*
X419292D02*
D03*
X433071Y114173D02*
D03*
X411417Y110236D02*
D03*
X462599D02*
D03*
X427166D02*
D03*
X413386Y78740D02*
D03*
X395670Y74803D02*
D03*
X444882Y78740D02*
D03*
X411417Y74803D02*
D03*
X429134Y70866D02*
D03*
X460630D02*
D03*
X429134Y78740D02*
D03*
X442914Y74803D02*
D03*
X462599D02*
D03*
X427166D02*
D03*
X444882Y70866D02*
D03*
X460630Y78740D02*
D03*
X452756Y196850D02*
D03*
X442913D02*
D03*
X423228D02*
D03*
X413386D02*
D03*
X408465Y167323D02*
D03*
X403543Y196850D02*
D03*
X398622Y187008D02*
D03*
Y167323D02*
D03*
X462598Y157480D02*
D03*
X447835Y167323D02*
D03*
X437992D02*
D03*
X428150D02*
D03*
X418307D02*
D03*
X615158Y78740D02*
D03*
X191893Y258211D02*
D03*
Y253881D02*
D03*
X187563D02*
D03*
X183232Y258211D02*
D03*
X187563D02*
D03*
X183232Y253881D02*
D03*
X159835Y28655D02*
D03*
X164165D02*
D03*
Y19993D02*
D03*
Y24324D02*
D03*
X159835Y19993D02*
D03*
Y24324D02*
D03*
X582678Y212598D02*
D03*
X610237Y188977D02*
D03*
X606299Y212598D02*
D03*
X596457Y185039D02*
D03*
X562992Y204725D02*
D03*
X570866D02*
D03*
X629922Y212598D02*
D03*
X574803Y177165D02*
D03*
X555118Y204725D02*
D03*
X523622D02*
D03*
X586614Y185039D02*
D03*
X625985Y204725D02*
D03*
X578741D02*
D03*
X629922Y196851D02*
D03*
X614174D02*
D03*
X586615Y204725D02*
D03*
X618111D02*
D03*
X594488D02*
D03*
X606299Y196851D02*
D03*
X574803Y185039D02*
D03*
X598425Y212598D02*
D03*
X539370Y204725D02*
D03*
X602362D02*
D03*
X547244Y185039D02*
D03*
Y177165D02*
D03*
X622048Y212598D02*
D03*
Y196851D02*
D03*
X596457Y177165D02*
D03*
X525591D02*
D03*
X547244Y204725D02*
D03*
X537402Y185039D02*
D03*
X559055Y196851D02*
D03*
X590552Y212598D02*
D03*
X618111Y188977D02*
D03*
X525591Y185039D02*
D03*
X610237Y204725D02*
D03*
X537402Y177165D02*
D03*
X614174Y212598D02*
D03*
X586614Y177165D02*
D03*
X600394Y118110D02*
D03*
X595472Y127953D02*
D03*
X590551Y118110D02*
D03*
X585630Y127953D02*
D03*
X580709Y118110D02*
D03*
X585630Y108268D02*
D03*
X575787Y127953D02*
D03*
X570866Y118110D02*
D03*
X561024Y137795D02*
D03*
X565945Y127953D02*
D03*
X561024Y118110D02*
D03*
X565945Y108268D02*
D03*
X556102Y127953D02*
D03*
X551181Y118110D02*
D03*
X556102Y108268D02*
D03*
X546260Y127953D02*
D03*
X541339Y118110D02*
D03*
X546260Y108268D02*
D03*
X536417Y127953D02*
D03*
X531496Y118110D02*
D03*
X536417Y108268D02*
D03*
X526575Y127953D02*
D03*
X521654Y118110D02*
D03*
X526575Y108268D02*
D03*
X521654Y98425D02*
D03*
X511811Y137795D02*
D03*
X516732Y127953D02*
D03*
X511811Y118110D02*
D03*
X516732Y108268D02*
D03*
X511811Y98425D02*
D03*
X501968Y137795D02*
D03*
Y118110D02*
D03*
X506890Y108268D02*
D03*
X501968Y98425D02*
D03*
X492126Y137795D02*
D03*
Y118110D02*
D03*
X497047Y108268D02*
D03*
X492126Y98425D02*
D03*
X482283Y137795D02*
D03*
X487205Y127953D02*
D03*
Y108268D02*
D03*
X482283Y98425D02*
D03*
X487205Y88583D02*
D03*
X657481Y94488D02*
D03*
X653544Y86614D02*
D03*
X657481Y78740D02*
D03*
X653544Y70866D02*
D03*
X657481Y62992D02*
D03*
X649607Y94488D02*
D03*
X645670Y86614D02*
D03*
X641733Y94488D02*
D03*
X637796Y86614D02*
D03*
X641733Y62992D02*
D03*
X633859D02*
D03*
X622048Y70866D02*
D03*
Y55118D02*
D03*
X477165Y99213D02*
D03*
Y94488D02*
D03*
X444095Y99213D02*
D03*
Y94488D02*
D03*
Y89764D02*
D03*
X429921Y99213D02*
D03*
Y94488D02*
D03*
X411024Y99213D02*
D03*
Y94488D02*
D03*
Y89764D02*
D03*
X396850Y99213D02*
D03*
Y94488D02*
D03*
Y89764D02*
D03*
X462992Y61417D02*
D03*
Y56693D02*
D03*
Y51968D02*
D03*
X444095Y61417D02*
D03*
Y56693D02*
D03*
Y51968D02*
D03*
X411024Y61417D02*
D03*
Y56693D02*
D03*
Y51968D02*
D03*
X396850Y61417D02*
D03*
Y56693D02*
D03*
Y51968D02*
D03*
X377953Y56693D02*
D03*
X373228D02*
D03*
X368504D02*
D03*
X360236Y129921D02*
D03*
X354331Y118110D02*
D03*
X360236Y106299D02*
D03*
X354331Y94488D02*
D03*
X360236Y82677D02*
D03*
X354331Y70866D02*
D03*
X360236Y35433D02*
D03*
X348425Y153543D02*
D03*
Y129921D02*
D03*
Y106299D02*
D03*
X342520Y94488D02*
D03*
X348425Y82677D02*
D03*
Y59055D02*
D03*
Y35433D02*
D03*
X336614Y106299D02*
D03*
X330709Y94488D02*
D03*
X324803Y106299D02*
D03*
X318898Y94488D02*
D03*
X307086Y118110D02*
D03*
X312992Y106299D02*
D03*
X307086Y94488D02*
D03*
Y70866D02*
D03*
Y47244D02*
D03*
X301181Y153543D02*
D03*
X295275Y118110D02*
D03*
X301181Y106299D02*
D03*
X295275Y94488D02*
D03*
X301181Y82677D02*
D03*
X295275Y70866D02*
D03*
X301181Y59055D02*
D03*
X295275Y47244D02*
D03*
X289370Y153543D02*
D03*
Y129921D02*
D03*
Y106299D02*
D03*
Y82677D02*
D03*
Y59055D02*
D03*
X464567Y125984D02*
D03*
X460630Y133858D02*
D03*
X456693Y125984D02*
D03*
X452756Y133858D02*
D03*
X448819Y125984D02*
D03*
X444882Y133858D02*
D03*
X413386D02*
D03*
X405512D02*
D03*
X397638D02*
D03*
X393701Y125984D02*
D03*
X389764Y133858D02*
D03*
X385827Y125984D02*
D03*
X374016Y133858D02*
D03*
X370079Y125984D02*
D03*
X447835Y226378D02*
D03*
X442913Y216535D02*
D03*
X437992Y226378D02*
D03*
X428150D02*
D03*
X423228Y216535D02*
D03*
X413386D02*
D03*
X408465Y226378D02*
D03*
X403543Y216535D02*
D03*
X398622Y226378D02*
D03*
X388779D02*
D03*
X270669Y68898D02*
D03*
Y49213D02*
D03*
X260827Y68898D02*
D03*
X250984D02*
D03*
X265748Y59055D02*
D03*
X260827Y49213D02*
D03*
X255906Y59055D02*
D03*
X250984Y49213D02*
D03*
X602362Y94488D02*
D03*
X598425Y86614D02*
D03*
X594488Y94488D02*
D03*
X590552Y86614D02*
D03*
X594488Y78740D02*
D03*
X582678Y86614D02*
D03*
X586615Y78740D02*
D03*
X574803Y86614D02*
D03*
X578741Y78740D02*
D03*
X566929Y86614D02*
D03*
X570866Y78740D02*
D03*
X562992Y94488D02*
D03*
Y78740D02*
D03*
X82677Y261811D02*
D03*
X89567Y248031D02*
D03*
X82677Y234252D02*
D03*
X89567Y220473D02*
D03*
X82677Y206693D02*
D03*
X89567Y192913D02*
D03*
Y165354D02*
D03*
X82677Y151575D02*
D03*
X89567Y137795D02*
D03*
X82677Y124016D02*
D03*
X89567Y110236D02*
D03*
X82677Y96457D02*
D03*
X89567Y82677D02*
D03*
Y55118D02*
D03*
Y27559D02*
D03*
X82677Y13780D02*
D03*
X68898Y261811D02*
D03*
X75787Y248031D02*
D03*
X68898Y234252D02*
D03*
X75787Y220473D02*
D03*
X68898Y206693D02*
D03*
X75787Y165354D02*
D03*
Y110236D02*
D03*
Y55118D02*
D03*
Y27559D02*
D03*
X68898Y13780D02*
D03*
X62008Y248031D02*
D03*
X55118Y234252D02*
D03*
X62008Y220473D02*
D03*
X55118Y206693D02*
D03*
X62008Y192913D02*
D03*
Y165354D02*
D03*
Y110236D02*
D03*
Y82677D02*
D03*
Y55118D02*
D03*
X41339Y234252D02*
D03*
X48228Y220473D02*
D03*
Y192913D02*
D03*
Y165354D02*
D03*
X41339Y151575D02*
D03*
X48228Y137795D02*
D03*
Y82677D02*
D03*
Y55118D02*
D03*
X27559Y234252D02*
D03*
X34449Y220473D02*
D03*
Y192913D02*
D03*
X27559Y179134D02*
D03*
X34449Y165354D02*
D03*
X27559Y151575D02*
D03*
X34449Y137795D02*
D03*
Y110236D02*
D03*
Y55118D02*
D03*
X27559Y41339D02*
D03*
X13780Y261811D02*
D03*
X20669Y248031D02*
D03*
X13780Y234252D02*
D03*
Y151575D02*
D03*
X20669Y137795D02*
D03*
X13780Y124016D02*
D03*
Y41339D02*
D03*
X20669Y27559D02*
D03*
X13780Y13780D02*
D03*
D162*
X563976Y64961D02*
D03*
X542323Y94488D02*
D03*
%TF.MD5,212fa2ce95129d50c04cae0cf83c35a4*%
M02*
