G04*
G04 #@! TF.GenerationSoftware,Altium Limited,Altium Designer,26.1.1 (7)*
G04*
G04 Layer_Color=16711935*
%FSLAX25Y25*%
%MOIN*%
G70*
G04*
G04 #@! TF.SameCoordinates,96ADB110-FC6B-4EA1-8182-D0924A2AF432*
G04*
G04*
G04 #@! TF.FilePolarity,Positive*
G04*
G01*
G75*
%ADD10C,0.00591*%
%ADD16C,0.00787*%
%ADD158C,0.00394*%
%ADD159C,0.00000*%
%ADD160C,0.00100*%
%ADD161R,0.24606X0.03786*%
%ADD162R,0.02383X0.11024*%
%ADD163R,0.02383X0.11024*%
%ADD164R,0.24606X0.03786*%
D10*
X80098Y42323D02*
G03*
X80098Y42323I-5295J0D01*
G01*
Y20793D02*
G03*
X80098Y20793I-5295J0D01*
G01*
X648012Y129921D02*
G03*
X648012Y129921I-5295J0D01*
G01*
X189350Y87598D02*
G03*
X189350Y87598I-5295J0D01*
G01*
Y74803D02*
G03*
X189350Y74803I-5295J0D01*
G01*
X374411Y24500D02*
G03*
X374411Y24500I-5295J0D01*
G01*
X138795Y180200D02*
G03*
X138795Y180200I-5295J0D01*
G01*
X208895Y159000D02*
G03*
X208895Y159000I-5295J0D01*
G01*
X266695Y62300D02*
G03*
X266695Y62300I-5295J0D01*
G01*
X502343Y20669D02*
G03*
X502343Y20669I-5295J0D01*
G01*
X129311Y268701D02*
G03*
X129311Y268701I-5295J0D01*
G01*
X638895Y206700D02*
G03*
X638895Y206700I-5295J0D01*
G01*
X241598Y117700D02*
G03*
X241598Y117700I-5295J0D01*
G01*
X600995Y112500D02*
G03*
X600995Y112500I-5295J0D01*
G01*
X175571Y117700D02*
G03*
X175571Y117700I-5295J0D01*
G01*
X652895Y104000D02*
G03*
X652895Y104000I-5295J0D01*
G01*
X266553Y117700D02*
G03*
X266553Y117700I-5295J0D01*
G01*
X254174D02*
G03*
X254174Y117700I-5295J0D01*
G01*
D16*
X465079Y54299D02*
X474921D01*
X465079Y41701D02*
Y54299D01*
Y41701D02*
X474921D01*
Y54299D01*
X388198Y133365D02*
X398040D01*
Y145963D01*
X388198D02*
X398040D01*
X388198Y133365D02*
Y145963D01*
X367790Y59701D02*
Y72299D01*
X377632D01*
Y59701D02*
Y72299D01*
X367790Y59701D02*
X377632D01*
X611850Y140701D02*
X618150D01*
Y153299D01*
X611850D02*
X618150D01*
X611850Y140701D02*
Y153299D01*
X174032Y165209D02*
X186630D01*
Y155366D02*
Y165209D01*
X174032Y155366D02*
X186630D01*
X174032D02*
Y165209D01*
X215767Y142555D02*
X228366D01*
X215767D02*
Y152398D01*
X228366D01*
Y142555D02*
Y152398D01*
X190666Y124618D02*
Y137216D01*
X200508D01*
Y124618D02*
Y137216D01*
X190666Y124618D02*
X200508D01*
X206233D02*
Y137216D01*
X216075D01*
Y124618D02*
Y137216D01*
X206233Y124618D02*
X216075D01*
X127466Y109313D02*
X140065D01*
X127466D02*
Y115612D01*
X140065D01*
Y109313D02*
Y115612D01*
X448254Y96660D02*
Y109258D01*
X458097D01*
Y96660D02*
Y109258D01*
X448254Y96660D02*
X458097D01*
X381473Y114813D02*
Y127412D01*
X371631Y114813D02*
X381473D01*
X371631D02*
Y127412D01*
X381473D01*
X465025Y96806D02*
Y109405D01*
X474868D01*
Y96806D02*
Y109405D01*
X465025Y96806D02*
X474868D01*
X415530Y90707D02*
X425373D01*
X415530Y78108D02*
Y90707D01*
Y78108D02*
X425373D01*
Y90707D01*
X398963Y78108D02*
X408806D01*
Y90707D01*
X398963D02*
X408806D01*
X398963Y78108D02*
Y90707D01*
X431898Y96660D02*
X441741D01*
Y109258D01*
X431898D02*
X441741D01*
X431898Y96660D02*
Y109258D01*
X421331Y127412D02*
X431174D01*
X421331Y114813D02*
Y127412D01*
Y114813D02*
X431174D01*
Y127412D01*
X471032Y114813D02*
Y127412D01*
X480875D01*
Y114813D02*
Y127412D01*
X471032Y114813D02*
X480875D01*
X367790Y96660D02*
X377632D01*
Y109258D01*
X367790D02*
X377632D01*
X367790Y96660D02*
Y109258D01*
X437898Y127412D02*
X447741D01*
X437898Y114813D02*
Y127412D01*
Y114813D02*
X447741D01*
Y127412D01*
X404765D02*
X414607D01*
X404765Y114813D02*
Y127412D01*
Y114813D02*
X414607D01*
Y127412D01*
X398925Y96660D02*
Y109258D01*
X408768D01*
Y96660D02*
Y109258D01*
X398925Y96660D02*
X408768D01*
X454465Y114813D02*
X464308D01*
Y127412D01*
X454465D02*
X464308D01*
X454465Y114813D02*
Y127412D01*
X383357Y109258D02*
X393200D01*
X383357Y96660D02*
Y109258D01*
Y96660D02*
X393200D01*
Y109258D01*
X420828Y145963D02*
X430670D01*
X420828Y133365D02*
Y145963D01*
Y133365D02*
X430670D01*
Y145963D01*
X367789Y90707D02*
X377632D01*
X367789Y78108D02*
Y90707D01*
Y78108D02*
X377632D01*
Y90707D01*
X367790Y53299D02*
X377632D01*
X367790Y40701D02*
Y53299D01*
Y40701D02*
X377632D01*
Y53299D01*
X415331Y109258D02*
X425174D01*
X415331Y96660D02*
Y109258D01*
Y96660D02*
X425174D01*
Y109258D01*
X465215Y91852D02*
X475058D01*
X465215Y79254D02*
Y91852D01*
Y79254D02*
X475058D01*
Y91852D01*
X398925Y41491D02*
Y54090D01*
X408768D01*
Y41491D02*
Y54090D01*
X398925Y41491D02*
X408768D01*
X398925Y59995D02*
X408768D01*
Y72594D01*
X398925D02*
X408768D01*
X398925Y59995D02*
Y72594D01*
X215470Y263357D02*
X225313D01*
X215470Y250758D02*
Y263357D01*
Y250758D02*
X225313D01*
Y263357D01*
X393200Y41898D02*
Y54496D01*
X383358Y41898D02*
X393200D01*
X383358D02*
Y54496D01*
X393200D01*
Y60158D02*
Y72756D01*
X383358Y60158D02*
X393200D01*
X383358D02*
Y72756D01*
X393200D01*
X447898Y60158D02*
Y72756D01*
X457741D01*
Y60158D02*
Y72756D01*
X447898Y60158D02*
X457741D01*
X424607D02*
Y72756D01*
X414765Y60158D02*
X424607D01*
X414765D02*
Y72756D01*
X424607D01*
X398040Y114813D02*
Y127412D01*
X388198Y114813D02*
X398040D01*
X388198D02*
Y127412D01*
X398040D01*
X371631Y133365D02*
Y145963D01*
X381473D01*
Y133365D02*
Y145963D01*
X371631Y133365D02*
X381473D01*
X448648Y78108D02*
Y90707D01*
X458491D01*
Y78108D02*
Y90707D01*
X448648Y78108D02*
X458491D01*
X465079Y60701D02*
Y73299D01*
X474921D01*
Y60701D02*
Y73299D01*
X465079Y60701D02*
X474921D01*
X437898Y133365D02*
Y145963D01*
X447741D01*
Y133365D02*
Y145963D01*
X437898Y133365D02*
X447741D01*
X447551Y55205D02*
X457393D01*
X447551Y42606D02*
Y55205D01*
Y42606D02*
X457393D01*
Y55205D01*
X430646Y54680D02*
X440489D01*
X430646Y42082D02*
Y54680D01*
Y42082D02*
X440489D01*
Y54680D01*
X431758Y78108D02*
X441601D01*
Y90707D01*
X431758D02*
X441601D01*
X431758Y78108D02*
Y90707D01*
X383357D02*
X393200D01*
X383357Y78108D02*
Y90707D01*
Y78108D02*
X393200D01*
Y90707D01*
X415080Y54680D02*
X424922D01*
X415080Y42082D02*
Y54680D01*
Y42082D02*
X424922D01*
Y54680D01*
X471032Y145963D02*
X480875D01*
X471032Y133365D02*
Y145963D01*
Y133365D02*
X480875D01*
Y145963D01*
X431331Y72756D02*
X441174D01*
X431331Y60158D02*
Y72756D01*
Y60158D02*
X441174D01*
Y72756D01*
X404765Y133365D02*
X414607D01*
Y145963D01*
X404765D02*
X414607D01*
X404765Y133365D02*
Y145963D01*
X454465D02*
X464308D01*
X454465Y133365D02*
Y145963D01*
Y133365D02*
X464308D01*
Y145963D01*
D158*
X159638Y32592D02*
G03*
X159638Y32592I-1969J0D01*
G01*
X626853Y113917D02*
G03*
X626853Y113917I-1969J0D01*
G01*
X83071Y153210D02*
G03*
X83071Y153210I-1969J0D01*
G01*
X503916Y73588D02*
G03*
X503916Y73588I-1969J0D01*
G01*
X556594Y80055D02*
G03*
X556594Y80055I-1575J0D01*
G01*
X476186Y184459D02*
G03*
X476186Y184459I-1969J0D01*
G01*
X89829Y189628D02*
G03*
X89829Y189628I-1969J0D01*
G01*
X83071Y101242D02*
G03*
X83071Y101242I-1969J0D01*
G01*
X197799Y260377D02*
G03*
X197799Y260377I-1969J0D01*
G01*
X154126Y12513D02*
Y36135D01*
X169874Y12513D02*
Y36135D01*
X154126D02*
X169874D01*
X154126Y12513D02*
X169874D01*
X519584Y66061D02*
X526277D01*
X519584Y79053D02*
X526277D01*
X519584Y66061D02*
Y79053D01*
X526277Y66061D02*
Y79053D01*
X612680Y133995D02*
X628428D01*
X612680Y110373D02*
X628428D01*
X612680D02*
Y133995D01*
X628428Y110373D02*
Y133995D01*
X77559Y115415D02*
X107480D01*
X77559Y156754D02*
X107480D01*
Y115415D02*
Y156754D01*
X77559Y115415D02*
Y156754D01*
X57653Y131496D02*
X64346D01*
X57653Y118504D02*
X64346D01*
Y131496D01*
X57653Y118504D02*
Y131496D01*
X173208Y144032D02*
X186200D01*
X173208Y150921D02*
X186200D01*
Y144032D02*
Y150921D01*
X173208Y144032D02*
Y150921D01*
X157508Y210555D02*
X170500D01*
X157508Y217445D02*
X170500D01*
Y210555D02*
Y217445D01*
X157508Y210555D02*
Y217445D01*
X187740Y28973D02*
Y42753D01*
X180260Y28973D02*
Y42753D01*
X187740D01*
X180260Y28973D02*
X187740D01*
X592441Y45925D02*
X617048D01*
X592441Y74075D02*
X617048D01*
X592441Y45925D02*
Y74075D01*
X617048Y45925D02*
Y74075D01*
X607048Y86751D02*
X632639D01*
X607048Y100137D02*
X632639D01*
Y86751D02*
Y100137D01*
X607048Y86751D02*
Y100137D01*
X624016Y55118D02*
Y82677D01*
X651575D01*
Y55118D02*
Y82677D01*
X624016Y55118D02*
X651575D01*
X498404Y60989D02*
X510609D01*
X498404Y77131D02*
X510609D01*
Y60989D02*
Y77131D01*
X498404Y60989D02*
Y77131D01*
X513858Y81675D02*
Y92699D01*
X496142Y81675D02*
Y92699D01*
Y81675D02*
X513858D01*
X496142Y92699D02*
X513858D01*
X557775Y77103D02*
Y101906D01*
X534153Y77103D02*
X557775D01*
X534153Y101906D02*
X557775D01*
X534153Y77103D02*
Y101906D01*
X517036Y7043D02*
Y34602D01*
X544596D01*
Y7043D02*
Y34602D01*
X517036Y7043D02*
X544596D01*
X547509Y34602D02*
X575068D01*
Y7043D02*
Y34602D01*
X547509Y7043D02*
X575068D01*
X547509D02*
Y34602D01*
X545890Y266748D02*
X573449D01*
Y239189D02*
Y266748D01*
X545890Y239189D02*
X573449D01*
X545890D02*
Y266748D01*
X557922Y153299D02*
Y190504D01*
X517765Y153299D02*
Y190504D01*
X557922D01*
X517765Y153299D02*
X557922D01*
X231803Y157925D02*
Y165406D01*
X218023Y157925D02*
Y165406D01*
Y157925D02*
X231803D01*
X218023Y165406D02*
X231803D01*
X176598Y223000D02*
X227780D01*
X176598Y171819D02*
X227780D01*
Y223000D01*
X176598Y171819D02*
Y223000D01*
X511578Y175604D02*
Y188596D01*
X504885Y175604D02*
Y188596D01*
X511578D01*
X504885Y175604D02*
X511578D01*
X501523D02*
Y188596D01*
X494830Y175604D02*
Y188596D01*
X501523D01*
X494830Y175604D02*
X501523D01*
X470674Y175798D02*
X482879D01*
X470674Y188002D02*
X482879D01*
Y175798D02*
Y188002D01*
X470674Y175798D02*
Y188002D01*
X562860Y153257D02*
X603018D01*
X562860Y190462D02*
X603018D01*
X562860Y153257D02*
Y190462D01*
X603018Y153257D02*
Y190462D01*
X485125Y191660D02*
Y202683D01*
X467408Y191660D02*
Y202683D01*
Y191660D02*
X485125D01*
X467408Y202683D02*
X485125D01*
X-2165Y46240D02*
Y49783D01*
X-28543D02*
X-2165D01*
Y46240D02*
X28544D01*
X-2165Y225807D02*
Y229350D01*
X-28543Y225807D02*
X-2165D01*
X-28543Y49783D02*
Y225807D01*
X28544Y46240D02*
Y229350D01*
X-2165D02*
X28544D01*
X113260Y36890D02*
X120740D01*
X113260Y23110D02*
X120740D01*
Y36890D01*
X113260Y23110D02*
Y36890D01*
X124508Y70533D02*
Y83525D01*
X131398Y70533D02*
Y83525D01*
X124508Y70533D02*
X131398D01*
X124508Y83525D02*
X131398D01*
X180457Y6319D02*
X187543D01*
X180457Y19705D02*
X187543D01*
X180457Y6319D02*
Y19705D01*
X187543Y6319D02*
Y19705D01*
X124989Y22504D02*
X131879D01*
X124989Y35496D02*
X131879D01*
X124989Y22504D02*
Y35496D01*
X131879Y22504D02*
Y35496D01*
X194155Y13218D02*
Y63612D01*
X244548Y13218D02*
Y63612D01*
X194155D02*
X244548D01*
X194155Y13218D02*
X244548D01*
X259260Y97890D02*
X266740D01*
X259260Y84110D02*
X266740D01*
Y97890D01*
X259260Y84110D02*
Y97890D01*
X232110Y66260D02*
X245890D01*
X232110Y73740D02*
X245890D01*
Y66260D02*
Y73740D01*
X232110Y66260D02*
Y73740D01*
X266740Y19110D02*
Y32890D01*
X259260Y19110D02*
Y32890D01*
X266740D01*
X259260Y19110D02*
X266740D01*
X256782Y19504D02*
Y32496D01*
X249893Y19504D02*
Y32496D01*
X256782D01*
X249893Y19504D02*
X256782D01*
X47598Y119504D02*
Y132496D01*
X54290Y119504D02*
Y132496D01*
X47598Y119504D02*
X54290D01*
X47598Y132496D02*
X54290D01*
X35925Y84055D02*
Y97047D01*
X42815Y84055D02*
Y97047D01*
X35925Y84055D02*
X42815D01*
X35925Y97047D02*
X42815D01*
Y119488D02*
Y132480D01*
X35925Y119488D02*
Y132480D01*
X42815D01*
X35925Y119488D02*
X42815D01*
X133268Y149016D02*
Y162008D01*
X126575Y149016D02*
Y162008D01*
X133268D01*
X126575Y149016D02*
X133268D01*
X110630Y213386D02*
X117717D01*
X110630Y200000D02*
X117717D01*
Y213386D01*
X110630Y200000D02*
Y213386D01*
X123048Y208563D02*
X130135D01*
X123048Y195177D02*
X130135D01*
Y208563D01*
X123048Y195177D02*
Y208563D01*
X125394Y103998D02*
X138386D01*
X125394Y97305D02*
X138386D01*
X125394D02*
Y103998D01*
X138386Y97305D02*
Y103998D01*
X51555Y165504D02*
Y178496D01*
X58445Y165504D02*
Y178496D01*
X51555Y165504D02*
X58445D01*
X51555Y178496D02*
X58445D01*
X84317Y173486D02*
Y193171D01*
X100065Y173486D02*
Y193171D01*
X84317D02*
X100065D01*
X84317Y173486D02*
X100065D01*
X63875Y186220D02*
X70962D01*
X63875Y199606D02*
X70962D01*
X63875Y186220D02*
Y199606D01*
X70962Y186220D02*
Y199606D01*
X50968Y187765D02*
X58054D01*
X50968Y201151D02*
X58054D01*
X50968Y187765D02*
Y201151D01*
X58054Y187765D02*
Y201151D01*
X77559Y80770D02*
Y104785D01*
X107480Y80770D02*
Y104785D01*
X77559D02*
X107480D01*
X77559Y80770D02*
X107480D01*
X150655Y109903D02*
Y122896D01*
X157545Y109903D02*
Y122896D01*
X150655Y109903D02*
X157545D01*
X150655Y122896D02*
X157545D01*
X144193Y70533D02*
Y83525D01*
X151083Y70533D02*
Y83525D01*
X144193Y70533D02*
X151083D01*
X144193Y83525D02*
X151083D01*
X136260Y35890D02*
X143740D01*
X136260Y22110D02*
X143740D01*
Y35890D01*
X136260Y22110D02*
Y35890D01*
X258881Y246190D02*
X272464D01*
X258881Y253474D02*
X272464D01*
Y246190D02*
Y253474D01*
X258881Y246190D02*
Y253474D01*
Y224899D02*
X272464D01*
X258881Y232182D02*
X272464D01*
Y224899D02*
Y232182D01*
X258881Y224899D02*
Y232182D01*
X262523Y241844D02*
X270791D01*
X262523Y236529D02*
X270791D01*
X262523D02*
Y241844D01*
X270791Y236529D02*
Y241844D01*
X262129Y215237D02*
Y220552D01*
X270791Y215237D02*
Y220552D01*
X262129D02*
X270791D01*
X262129Y215237D02*
X270791D01*
X175751Y263920D02*
X199373D01*
X175751Y248172D02*
X199373D01*
Y263920D01*
X175751Y248172D02*
Y263920D01*
X160944Y231029D02*
Y238116D01*
X174330Y231029D02*
Y238116D01*
X160944D02*
X174330D01*
X160944Y231029D02*
X174330D01*
X629501Y139504D02*
Y152496D01*
X622809Y139504D02*
Y152496D01*
X629501D01*
X622809Y139504D02*
X629501D01*
X344158Y267654D02*
X350064D01*
X344158Y255370D02*
X350064D01*
X344158D02*
Y267654D01*
X350064Y255370D02*
Y267654D01*
X162586Y266911D02*
X169476D01*
X162586Y253919D02*
X169476D01*
Y266911D01*
X162586Y253919D02*
Y266911D01*
X344158Y251084D02*
X350064D01*
X344158Y238800D02*
X350064D01*
X344158D02*
Y251084D01*
X350064Y238800D02*
Y251084D01*
X344158Y234514D02*
X350064D01*
X344158Y222230D02*
X350064D01*
X344158D02*
Y234514D01*
X350064Y222230D02*
Y234514D01*
X344158Y217944D02*
X350064D01*
X344158Y205661D02*
X350064D01*
X344158D02*
Y217944D01*
X350064Y205661D02*
Y217944D01*
X486697Y130925D02*
Y159075D01*
X511303Y130925D02*
Y159075D01*
X486697Y130925D02*
X511303D01*
X486697Y159075D02*
X511303D01*
X512745Y229554D02*
X519635D01*
X512745Y242546D02*
X519635D01*
X512745Y229554D02*
Y242546D01*
X519635Y229554D02*
Y242546D01*
X522801Y229554D02*
X529691D01*
X522801Y242546D02*
X529691D01*
X522801Y229554D02*
Y242546D01*
X529691Y229554D02*
Y242546D01*
X512565Y210738D02*
X519455D01*
X512565Y223730D02*
X519455D01*
X512565Y210738D02*
Y223730D01*
X519455Y210738D02*
Y223730D01*
X522801Y210738D02*
X529691D01*
X522801Y223730D02*
X529691D01*
X522801Y210738D02*
Y223730D01*
X529691Y210738D02*
Y223730D01*
X183598Y230833D02*
X197378D01*
X183598Y238313D02*
X197378D01*
Y230833D02*
Y238313D01*
X183598Y230833D02*
Y238313D01*
X243652Y253014D02*
Y266793D01*
X251132Y253014D02*
Y266793D01*
X243652Y253014D02*
X251132D01*
X243652Y266793D02*
X251132D01*
X230840Y253014D02*
Y266793D01*
X238321Y253014D02*
Y266793D01*
X230840Y253014D02*
X238321D01*
X230840Y266793D02*
X238321D01*
X497307Y56543D02*
X510693D01*
X497307Y49457D02*
X510693D01*
X497307D02*
Y56543D01*
X510693Y49457D02*
Y56543D01*
X480807Y50590D02*
X487697D01*
X480807Y63583D02*
X487697D01*
X480807Y50590D02*
Y63583D01*
X487697Y50590D02*
Y63583D01*
D159*
X552159Y230029D02*
G03*
X552159Y230029I-300J0D01*
G01*
X560479Y232580D02*
G03*
X562879Y232580I1200J0D01*
G01*
D160*
X549679Y208580D02*
X573679D01*
Y232580D01*
X549679D02*
X573679D01*
X549679Y208580D02*
Y232580D01*
D161*
X604745Y72185D02*
D03*
D162*
X512667Y87187D02*
D03*
D163*
X483933Y197174D02*
D03*
D164*
X498998Y132810D02*
D03*
M02*
