G04*
G04 #@! TF.GenerationSoftware,Altium Limited,Altium Designer,26.1.1 (7)*
G04*
G04 Layer_Physical_Order=4*
G04 Layer_Color=16711680*
%FSLAX25Y25*%
%MOIN*%
G70*
G04*
G04 #@! TF.SameCoordinates,96ADB110-FC6B-4EA1-8182-D0924A2AF432*
G04*
G04*
G04 #@! TF.FilePolarity,Positive*
G04*
G01*
G75*
%ADD14C,0.01968*%
%ADD17C,0.01575*%
%ADD104C,0.06181*%
%ADD120C,0.03937*%
%ADD129C,0.03937*%
%ADD146R,0.07874X0.07874*%
%ADD147C,0.07087*%
%ADD148R,0.07874X0.07874*%
G04:AMPARAMS|DCode=149|XSize=62.99mil|YSize=62.99mil|CornerRadius=15.75mil|HoleSize=0mil|Usage=FLASHONLY|Rotation=270.000|XOffset=0mil|YOffset=0mil|HoleType=Round|Shape=RoundedRectangle|*
%AMROUNDEDRECTD149*
21,1,0.06299,0.03150,0,0,270.0*
21,1,0.03150,0.06299,0,0,270.0*
1,1,0.03150,-0.01575,-0.01575*
1,1,0.03150,-0.01575,0.01575*
1,1,0.03150,0.01575,0.01575*
1,1,0.03150,0.01575,-0.01575*
%
%ADD149ROUNDEDRECTD149*%
%ADD150C,0.06299*%
%ADD151C,0.06000*%
%ADD152C,0.07874*%
%ADD153C,0.29528*%
G04:AMPARAMS|DCode=154|XSize=70.87mil|YSize=70.87mil|CornerRadius=17.72mil|HoleSize=0mil|Usage=FLASHONLY|Rotation=270.000|XOffset=0mil|YOffset=0mil|HoleType=Round|Shape=RoundedRectangle|*
%AMROUNDEDRECTD154*
21,1,0.07087,0.03543,0,0,270.0*
21,1,0.03543,0.07087,0,0,270.0*
1,1,0.03543,-0.01772,-0.01772*
1,1,0.03543,-0.01772,0.01772*
1,1,0.03543,0.01772,0.01772*
1,1,0.03543,0.01772,-0.01772*
%
%ADD154ROUNDEDRECTD154*%
%ADD155C,0.02362*%
%ADD156C,0.02400*%
G36*
X92081Y41926D02*
X62145D01*
X62145Y41926D01*
X47455D01*
X47455Y41926D01*
X38666D01*
X25607Y54986D01*
Y55893D01*
X25297Y57049D01*
X24699Y58085D01*
X23853Y58931D01*
X22817Y59529D01*
X21661Y59838D01*
X20465D01*
X19309Y59529D01*
X18274Y58931D01*
X17428Y58085D01*
X16829Y57049D01*
X16520Y55893D01*
Y54697D01*
X16829Y53541D01*
X17428Y52506D01*
X18274Y51660D01*
X19309Y51061D01*
X20465Y50752D01*
X21372D01*
X35309Y36815D01*
X35929Y36339D01*
X36228Y36215D01*
X36651Y36040D01*
X37426Y35938D01*
X38023D01*
X38062Y35438D01*
X35679Y35061D01*
X33319Y34294D01*
X31108Y33167D01*
X29101Y31709D01*
X27346Y29954D01*
X25888Y27947D01*
X24761Y25736D01*
X23994Y23376D01*
X23606Y20926D01*
Y18444D01*
X23994Y15994D01*
X24761Y13634D01*
X25888Y11423D01*
X27346Y9416D01*
X29101Y7661D01*
X31108Y6203D01*
X33319Y5076D01*
X35679Y4309D01*
X38129Y3921D01*
X40611D01*
X43061Y4309D01*
X45421Y5076D01*
X47632Y6203D01*
X49639Y7661D01*
X51394Y9416D01*
X52852Y11423D01*
X53979Y13634D01*
X54746Y15994D01*
X55134Y18444D01*
Y20926D01*
X54746Y23376D01*
X53979Y25736D01*
X52852Y27947D01*
X51394Y29954D01*
X49639Y31709D01*
X47632Y33167D01*
X45421Y34294D01*
X43061Y35061D01*
X40678Y35438D01*
X40717Y35938D01*
X47455D01*
X47455Y35938D01*
X62145D01*
X62145Y35938D01*
X92081D01*
Y0D01*
X0D01*
Y279528D01*
X92081D01*
Y41926D01*
D02*
G37*
G36*
X661417Y279528D02*
Y0D01*
X661417Y0D01*
X98968D01*
Y30145D01*
X99430Y30336D01*
X104883Y24883D01*
X105503Y24407D01*
X105802Y24283D01*
X106225Y24108D01*
X107000Y24006D01*
X114956D01*
Y19191D01*
X114883Y19117D01*
X114407Y18497D01*
X114108Y17775D01*
X114006Y17000D01*
X114108Y16225D01*
X114407Y15503D01*
X114883Y14883D01*
X115503Y14407D01*
X116225Y14108D01*
X117000Y14006D01*
X117775Y14108D01*
X118497Y14407D01*
X119117Y14883D01*
X120068Y15833D01*
X120543Y16453D01*
X120667Y16752D01*
X120842Y17175D01*
X120944Y17950D01*
Y24065D01*
X121271Y24108D01*
X121993Y24407D01*
X122613Y24883D01*
X124235Y26505D01*
X124711Y27125D01*
X125010Y27847D01*
X125112Y28622D01*
X125010Y29397D01*
X124711Y30119D01*
X124235Y30739D01*
X123615Y31215D01*
X122893Y31514D01*
X122118Y31616D01*
X121343Y31514D01*
X120621Y31215D01*
X120001Y30739D01*
X119256Y29994D01*
X108240D01*
X98968Y39267D01*
Y279091D01*
X99404Y279528D01*
X661417Y279528D01*
D02*
G37*
%LPC*%
G36*
X40611Y271669D02*
X38129D01*
X35679Y271281D01*
X33319Y270514D01*
X31108Y269388D01*
X29101Y267929D01*
X27346Y266175D01*
X25888Y264167D01*
X24761Y261957D01*
X23994Y259597D01*
X23606Y257146D01*
Y254665D01*
X23994Y252214D01*
X24761Y249854D01*
X25888Y247643D01*
X27346Y245636D01*
X29101Y243882D01*
X31108Y242423D01*
X33319Y241297D01*
X35679Y240530D01*
X38129Y240142D01*
X40611D01*
X43061Y240530D01*
X45421Y241297D01*
X47632Y242423D01*
X49639Y243882D01*
X51394Y245636D01*
X52852Y247643D01*
X53979Y249854D01*
X54746Y252214D01*
X55134Y254665D01*
Y257146D01*
X54746Y259597D01*
X53979Y261957D01*
X52852Y264167D01*
X51394Y266175D01*
X49639Y267929D01*
X47632Y269388D01*
X45421Y270514D01*
X43061Y271281D01*
X40611Y271669D01*
D02*
G37*
G36*
X21661Y209839D02*
X20465D01*
X19309Y209529D01*
X18274Y208931D01*
X17428Y208085D01*
X16829Y207049D01*
X16520Y205893D01*
Y204697D01*
X16829Y203542D01*
X17428Y202505D01*
X18274Y201660D01*
X19309Y201062D01*
X20465Y200752D01*
X21661D01*
X22817Y201062D01*
X23853Y201660D01*
X24699Y202505D01*
X25297Y203542D01*
X25607Y204697D01*
Y205893D01*
X25297Y207049D01*
X24699Y208085D01*
X23853Y208931D01*
X22817Y209529D01*
X21661Y209839D01*
D02*
G37*
G36*
X11661D02*
X10465D01*
X9310Y209529D01*
X8274Y208931D01*
X7428Y208085D01*
X6830Y207049D01*
X6520Y205893D01*
Y204697D01*
X6830Y203542D01*
X7428Y202505D01*
X8274Y201660D01*
X9310Y201062D01*
X10465Y200752D01*
X11661D01*
X12817Y201062D01*
X13853Y201660D01*
X14699Y202505D01*
X15297Y203542D01*
X15607Y204697D01*
Y205893D01*
X15297Y207049D01*
X14699Y208085D01*
X13853Y208931D01*
X12817Y209529D01*
X11661Y209839D01*
D02*
G37*
G36*
X76438Y196200D02*
X75562D01*
X74754Y195865D01*
X74135Y195246D01*
X73800Y194438D01*
Y193562D01*
X74135Y192754D01*
X74754Y192135D01*
X75562Y191800D01*
X76438D01*
X77246Y192135D01*
X77865Y192754D01*
X78200Y193562D01*
Y194438D01*
X77865Y195246D01*
X77246Y195865D01*
X76438Y196200D01*
D02*
G37*
G36*
X21661Y194839D02*
X20465D01*
X19309Y194529D01*
X18274Y193931D01*
X17428Y193085D01*
X16829Y192049D01*
X16520Y190893D01*
Y189697D01*
X16829Y188542D01*
X17428Y187505D01*
X18274Y186660D01*
X19309Y186062D01*
X20465Y185752D01*
X21661D01*
X22817Y186062D01*
X23853Y186660D01*
X24699Y187505D01*
X25297Y188542D01*
X25607Y189697D01*
Y190893D01*
X25297Y192049D01*
X24699Y193085D01*
X23853Y193931D01*
X22817Y194529D01*
X21661Y194839D01*
D02*
G37*
G36*
X11661D02*
X10465D01*
X9310Y194529D01*
X8274Y193931D01*
X7428Y193085D01*
X6830Y192049D01*
X6520Y190893D01*
Y189697D01*
X6830Y188542D01*
X7428Y187505D01*
X8274Y186660D01*
X9310Y186062D01*
X10465Y185752D01*
X11661D01*
X12817Y186062D01*
X13853Y186660D01*
X14699Y187505D01*
X15297Y188542D01*
X15607Y189697D01*
Y190893D01*
X15297Y192049D01*
X14699Y193085D01*
X13853Y193931D01*
X12817Y194529D01*
X11661Y194839D01*
D02*
G37*
G36*
X21661Y179839D02*
X20465D01*
X19309Y179529D01*
X18274Y178931D01*
X17428Y178085D01*
X16829Y177049D01*
X16520Y175893D01*
Y174697D01*
X16829Y173542D01*
X17428Y172505D01*
X18274Y171660D01*
X19309Y171062D01*
X20465Y170752D01*
X21661D01*
X22817Y171062D01*
X23853Y171660D01*
X24699Y172505D01*
X25297Y173542D01*
X25607Y174697D01*
Y175893D01*
X25297Y177049D01*
X24699Y178085D01*
X23853Y178931D01*
X22817Y179529D01*
X21661Y179839D01*
D02*
G37*
G36*
X11661D02*
X10465D01*
X9310Y179529D01*
X8274Y178931D01*
X7428Y178085D01*
X6830Y177049D01*
X6520Y175893D01*
Y174697D01*
X6830Y173542D01*
X7428Y172505D01*
X8274Y171660D01*
X9310Y171062D01*
X10465Y170752D01*
X11661D01*
X12817Y171062D01*
X13853Y171660D01*
X14699Y172505D01*
X15297Y173542D01*
X15607Y174697D01*
Y175893D01*
X15297Y177049D01*
X14699Y178085D01*
X13853Y178931D01*
X12817Y179529D01*
X11661Y179839D01*
D02*
G37*
G36*
X55438Y163200D02*
X54562D01*
X53754Y162865D01*
X53135Y162246D01*
X52800Y161437D01*
Y160562D01*
X53135Y159754D01*
X53754Y159135D01*
X54562Y158800D01*
X55438D01*
X56246Y159135D01*
X56865Y159754D01*
X57200Y160562D01*
Y161437D01*
X56865Y162246D01*
X56246Y162865D01*
X55438Y163200D01*
D02*
G37*
G36*
X21661Y164839D02*
X20465D01*
X19309Y164529D01*
X18274Y163931D01*
X17428Y163085D01*
X16829Y162049D01*
X16520Y160893D01*
Y159697D01*
X16829Y158542D01*
X17428Y157506D01*
X18274Y156660D01*
X19309Y156061D01*
X20465Y155752D01*
X21661D01*
X22817Y156061D01*
X23853Y156660D01*
X24699Y157506D01*
X25297Y158542D01*
X25607Y159697D01*
Y160893D01*
X25297Y162049D01*
X24699Y163085D01*
X23853Y163931D01*
X22817Y164529D01*
X21661Y164839D01*
D02*
G37*
G36*
X11661D02*
X10465D01*
X9310Y164529D01*
X8274Y163931D01*
X7428Y163085D01*
X6830Y162049D01*
X6520Y160893D01*
Y159697D01*
X6830Y158542D01*
X7428Y157506D01*
X8274Y156660D01*
X9310Y156061D01*
X10465Y155752D01*
X11661D01*
X12817Y156061D01*
X13853Y156660D01*
X14699Y157506D01*
X15297Y158542D01*
X15607Y159697D01*
Y160893D01*
X15297Y162049D01*
X14699Y163085D01*
X13853Y163931D01*
X12817Y164529D01*
X11661Y164839D01*
D02*
G37*
G36*
X21661Y149838D02*
X20465D01*
X19309Y149529D01*
X18274Y148931D01*
X17428Y148085D01*
X16829Y147049D01*
X16520Y145893D01*
Y144697D01*
X16829Y143542D01*
X17428Y142506D01*
X18274Y141660D01*
X19309Y141061D01*
X20465Y140752D01*
X21661D01*
X22817Y141061D01*
X23853Y141660D01*
X24699Y142506D01*
X25297Y143542D01*
X25607Y144697D01*
Y145893D01*
X25297Y147049D01*
X24699Y148085D01*
X23853Y148931D01*
X22817Y149529D01*
X21661Y149838D01*
D02*
G37*
G36*
X11661D02*
X10465D01*
X9310Y149529D01*
X8274Y148931D01*
X7428Y148085D01*
X6830Y147049D01*
X6520Y145893D01*
Y144697D01*
X6830Y143542D01*
X7428Y142506D01*
X8274Y141660D01*
X9310Y141061D01*
X10465Y140752D01*
X11661D01*
X12817Y141061D01*
X13853Y141660D01*
X14699Y142506D01*
X15297Y143542D01*
X15607Y144697D01*
Y145893D01*
X15297Y147049D01*
X14699Y148085D01*
X13853Y148931D01*
X12817Y149529D01*
X11661Y149838D01*
D02*
G37*
G36*
X39438Y141200D02*
X38562D01*
X37754Y140865D01*
X37135Y140246D01*
X36800Y139438D01*
Y138562D01*
X37135Y137754D01*
X37754Y137135D01*
X38562Y136800D01*
X39438D01*
X40246Y137135D01*
X40865Y137754D01*
X41200Y138562D01*
Y139438D01*
X40865Y140246D01*
X40246Y140865D01*
X39438Y141200D01*
D02*
G37*
G36*
X21661Y134838D02*
X20465D01*
X19309Y134529D01*
X18274Y133931D01*
X17428Y133085D01*
X16829Y132049D01*
X16520Y130893D01*
Y129697D01*
X16829Y128542D01*
X17428Y127506D01*
X18274Y126660D01*
X19309Y126061D01*
X20465Y125752D01*
X21661D01*
X22817Y126061D01*
X23853Y126660D01*
X24699Y127506D01*
X25297Y128542D01*
X25607Y129697D01*
Y130893D01*
X25297Y132049D01*
X24699Y133085D01*
X23853Y133931D01*
X22817Y134529D01*
X21661Y134838D01*
D02*
G37*
G36*
X11661D02*
X10465D01*
X9310Y134529D01*
X8274Y133931D01*
X7428Y133085D01*
X6830Y132049D01*
X6520Y130893D01*
Y129697D01*
X6830Y128542D01*
X7428Y127506D01*
X8274Y126660D01*
X9310Y126061D01*
X10465Y125752D01*
X11661D01*
X12817Y126061D01*
X13853Y126660D01*
X14699Y127506D01*
X15297Y128542D01*
X15607Y129697D01*
Y130893D01*
X15297Y132049D01*
X14699Y133085D01*
X13853Y133931D01*
X12817Y134529D01*
X11661Y134838D01*
D02*
G37*
G36*
X51438Y116200D02*
X50562D01*
X49754Y115865D01*
X49135Y115246D01*
X48800Y114438D01*
Y113562D01*
X49135Y112754D01*
X49754Y112135D01*
X50562Y111800D01*
X51438D01*
X52246Y112135D01*
X52865Y112754D01*
X53200Y113562D01*
Y114438D01*
X52865Y115246D01*
X52246Y115865D01*
X51438Y116200D01*
D02*
G37*
G36*
X21661Y119839D02*
X20465D01*
X19309Y119529D01*
X18274Y118931D01*
X17428Y118085D01*
X16829Y117049D01*
X16520Y115893D01*
Y114697D01*
X16829Y113542D01*
X17428Y112505D01*
X18274Y111660D01*
X19309Y111062D01*
X20465Y110752D01*
X21661D01*
X22817Y111062D01*
X23853Y111660D01*
X24699Y112505D01*
X25297Y113542D01*
X25607Y114697D01*
Y115893D01*
X25297Y117049D01*
X24699Y118085D01*
X23853Y118931D01*
X22817Y119529D01*
X21661Y119839D01*
D02*
G37*
G36*
X11661D02*
X10465D01*
X9310Y119529D01*
X8274Y118931D01*
X7428Y118085D01*
X6830Y117049D01*
X6520Y115893D01*
Y114697D01*
X6830Y113542D01*
X7428Y112505D01*
X8274Y111660D01*
X9310Y111062D01*
X10465Y110752D01*
X11661D01*
X12817Y111062D01*
X13853Y111660D01*
X14699Y112505D01*
X15297Y113542D01*
X15607Y114697D01*
Y115893D01*
X15297Y117049D01*
X14699Y118085D01*
X13853Y118931D01*
X12817Y119529D01*
X11661Y119839D01*
D02*
G37*
G36*
X66438Y108200D02*
X65562D01*
X64754Y107865D01*
X64135Y107246D01*
X63800Y106438D01*
Y105562D01*
X64135Y104754D01*
X64754Y104135D01*
X65562Y103800D01*
X66438D01*
X67246Y104135D01*
X67865Y104754D01*
X68200Y105562D01*
Y106438D01*
X67865Y107246D01*
X67246Y107865D01*
X66438Y108200D01*
D02*
G37*
G36*
X21661Y104839D02*
X20465D01*
X19309Y104529D01*
X18274Y103931D01*
X17428Y103085D01*
X16829Y102049D01*
X16520Y100893D01*
Y99697D01*
X16829Y98541D01*
X17428Y97506D01*
X18274Y96660D01*
X19309Y96061D01*
X20465Y95752D01*
X21661D01*
X22817Y96061D01*
X23853Y96660D01*
X24699Y97506D01*
X25297Y98541D01*
X25607Y99697D01*
Y100893D01*
X25297Y102049D01*
X24699Y103085D01*
X23853Y103931D01*
X22817Y104529D01*
X21661Y104839D01*
D02*
G37*
G36*
X11661D02*
X10465D01*
X9310Y104529D01*
X8274Y103931D01*
X7428Y103085D01*
X6830Y102049D01*
X6520Y100893D01*
Y99697D01*
X6830Y98541D01*
X7428Y97506D01*
X8274Y96660D01*
X9310Y96061D01*
X10465Y95752D01*
X11661D01*
X12817Y96061D01*
X13853Y96660D01*
X14699Y97506D01*
X15297Y98541D01*
X15607Y99697D01*
Y100893D01*
X15297Y102049D01*
X14699Y103085D01*
X13853Y103931D01*
X12817Y104529D01*
X11661Y104839D01*
D02*
G37*
G36*
X45438Y86200D02*
X44562D01*
X43754Y85865D01*
X43135Y85246D01*
X42800Y84438D01*
Y83562D01*
X43135Y82754D01*
X43754Y82135D01*
X44562Y81800D01*
X45438D01*
X46246Y82135D01*
X46865Y82754D01*
X47200Y83562D01*
Y84438D01*
X46865Y85246D01*
X46246Y85865D01*
X45438Y86200D01*
D02*
G37*
G36*
X21661Y89838D02*
X20465D01*
X19309Y89529D01*
X18274Y88931D01*
X17428Y88085D01*
X16829Y87049D01*
X16520Y85893D01*
Y84697D01*
X16829Y83542D01*
X17428Y82506D01*
X18274Y81660D01*
X19309Y81062D01*
X20465Y80752D01*
X21661D01*
X22817Y81062D01*
X23853Y81660D01*
X24699Y82506D01*
X25297Y83542D01*
X25607Y84697D01*
Y85893D01*
X25297Y87049D01*
X24699Y88085D01*
X23853Y88931D01*
X22817Y89529D01*
X21661Y89838D01*
D02*
G37*
G36*
X11661D02*
X10465D01*
X9310Y89529D01*
X8274Y88931D01*
X7428Y88085D01*
X6830Y87049D01*
X6520Y85893D01*
Y84697D01*
X6830Y83542D01*
X7428Y82506D01*
X8274Y81660D01*
X9310Y81062D01*
X10465Y80752D01*
X11661D01*
X12817Y81062D01*
X13853Y81660D01*
X14699Y82506D01*
X15297Y83542D01*
X15607Y84697D01*
Y85893D01*
X15297Y87049D01*
X14699Y88085D01*
X13853Y88931D01*
X12817Y89529D01*
X11661Y89838D01*
D02*
G37*
G36*
X21661Y74839D02*
X20465D01*
X19309Y74529D01*
X18274Y73931D01*
X17428Y73085D01*
X16829Y72049D01*
X16520Y70893D01*
Y69697D01*
X16829Y68542D01*
X17428Y67506D01*
X18274Y66660D01*
X19309Y66062D01*
X20465Y65752D01*
X21661D01*
X22817Y66062D01*
X23853Y66660D01*
X24699Y67506D01*
X25297Y68542D01*
X25607Y69697D01*
Y70893D01*
X25297Y72049D01*
X24699Y73085D01*
X23853Y73931D01*
X22817Y74529D01*
X21661Y74839D01*
D02*
G37*
G36*
X11661D02*
X10465D01*
X9310Y74529D01*
X8274Y73931D01*
X7428Y73085D01*
X6830Y72049D01*
X6520Y70893D01*
Y69697D01*
X6830Y68542D01*
X7428Y67506D01*
X8274Y66660D01*
X9310Y66062D01*
X10465Y65752D01*
X11661D01*
X12817Y66062D01*
X13853Y66660D01*
X14699Y67506D01*
X15297Y68542D01*
X15607Y69697D01*
Y70893D01*
X15297Y72049D01*
X14699Y73085D01*
X13853Y73931D01*
X12817Y74529D01*
X11661Y74839D01*
D02*
G37*
G36*
Y59838D02*
X10465D01*
X9310Y59529D01*
X8274Y58931D01*
X7428Y58085D01*
X6830Y57049D01*
X6520Y55893D01*
Y54697D01*
X6830Y53541D01*
X7428Y52506D01*
X8274Y51660D01*
X9310Y51061D01*
X10465Y50752D01*
X11661D01*
X12817Y51061D01*
X13853Y51660D01*
X14699Y52506D01*
X15297Y53541D01*
X15607Y54697D01*
Y55893D01*
X15297Y57049D01*
X14699Y58085D01*
X13853Y58931D01*
X12817Y59529D01*
X11661Y59838D01*
D02*
G37*
G36*
X75342Y24884D02*
X74265D01*
X73224Y24605D01*
X72291Y24067D01*
X71530Y23305D01*
X70991Y22372D01*
X70713Y21332D01*
Y20255D01*
X70991Y19214D01*
X71530Y18282D01*
X72291Y17520D01*
X73224Y16982D01*
X74265Y16703D01*
X75342D01*
X76382Y16982D01*
X77315Y17520D01*
X78076Y18282D01*
X78615Y19214D01*
X78894Y20255D01*
Y21332D01*
X78615Y22372D01*
X78076Y23305D01*
X77315Y24067D01*
X76382Y24605D01*
X75342Y24884D01*
D02*
G37*
G36*
X619780Y277413D02*
X619780Y277413D01*
X491719D01*
X491718Y277413D01*
X491021Y277274D01*
X490430Y276879D01*
X490430Y276879D01*
X485761Y272211D01*
X270547D01*
X270547Y272211D01*
X269849Y272072D01*
X269258Y271677D01*
X269258Y271677D01*
X269152Y271571D01*
X268662Y271668D01*
X268533Y271980D01*
X267914Y272599D01*
X267105Y272934D01*
X266230D01*
X265422Y272599D01*
X264803Y271980D01*
X264626Y271553D01*
X261121Y268049D01*
X176061D01*
X175635Y268226D01*
X174759D01*
X173951Y267891D01*
X173332Y267272D01*
X172997Y266463D01*
Y265588D01*
X173332Y264779D01*
X173951Y264160D01*
X174759Y263825D01*
X175635D01*
X176061Y264002D01*
X260930D01*
X261122Y263540D01*
X184600Y187020D01*
X113298D01*
X113298Y187020D01*
X112601Y186881D01*
X112071Y186527D01*
X111767D01*
X110959Y186192D01*
X110340Y185573D01*
X110005Y184765D01*
Y183890D01*
X110340Y183081D01*
X110793Y182627D01*
X110340Y182174D01*
X110005Y181365D01*
Y180490D01*
X110340Y179681D01*
X110959Y179062D01*
X111767Y178727D01*
X112642D01*
X113069Y178904D01*
X129612D01*
X129688Y178621D01*
X130227Y177688D01*
X130988Y176927D01*
X131921Y176388D01*
X132961Y176109D01*
X134038D01*
X135079Y176388D01*
X136012Y176927D01*
X136773Y177688D01*
X137312Y178621D01*
X137388Y178904D01*
X184266D01*
X184473Y178404D01*
X184273Y178204D01*
X183941Y177402D01*
Y176535D01*
X184273Y175733D01*
X184887Y175119D01*
X185688Y174787D01*
X186556D01*
X187357Y175119D01*
X187971Y175733D01*
X188303Y176535D01*
Y177402D01*
X187971Y178204D01*
X187771Y178404D01*
X187891Y178789D01*
X187970Y178913D01*
X188701Y179058D01*
X189358Y179497D01*
X275554Y265693D01*
X487623D01*
X487957Y265419D01*
Y265310D01*
X488292Y264502D01*
X488688Y264106D01*
X488858Y263779D01*
X488688Y263453D01*
X488292Y263057D01*
X487957Y262249D01*
Y261373D01*
X488292Y260565D01*
X488911Y259946D01*
X489720Y259611D01*
X490595D01*
X491404Y259946D01*
X492023Y260565D01*
X492357Y261373D01*
Y262249D01*
X492023Y263057D01*
X491627Y263453D01*
X491457Y263779D01*
X491627Y264106D01*
X492023Y264502D01*
X492357Y265310D01*
Y266186D01*
X492023Y266994D01*
X491404Y267613D01*
X491096Y267741D01*
X490998Y268231D01*
X493663Y270896D01*
X618674D01*
X618674Y270896D01*
X623517D01*
X623637Y270396D01*
X621659Y269388D01*
X619652Y267930D01*
X617897Y266175D01*
X616439Y264168D01*
X615312Y261957D01*
X614546Y259597D01*
X614157Y257146D01*
Y254665D01*
X614546Y252214D01*
X615312Y249854D01*
X616439Y247644D01*
X617897Y245636D01*
X619652Y243882D01*
X621659Y242423D01*
X623870Y241297D01*
X626230Y240530D01*
X628681Y240142D01*
X631162D01*
X633613Y240530D01*
X635972Y241297D01*
X638183Y242423D01*
X640191Y243882D01*
X641945Y245636D01*
X643404Y247644D01*
X644530Y249854D01*
X645297Y252214D01*
X645685Y254665D01*
Y257146D01*
X645297Y259597D01*
X644530Y261957D01*
X643404Y264168D01*
X641945Y266175D01*
X640191Y267930D01*
X638183Y269388D01*
X636205Y270396D01*
X636326Y270896D01*
X642863D01*
X650817Y262942D01*
Y167458D01*
X615323Y131963D01*
X614895Y131786D01*
X614277Y131167D01*
X613942Y130359D01*
Y129484D01*
X614277Y128675D01*
X614895Y128056D01*
X615704Y127721D01*
X616579D01*
X617388Y128056D01*
X618007Y128675D01*
X618184Y129102D01*
X620994Y131913D01*
X621494Y131706D01*
Y131131D01*
X621829Y130322D01*
X622448Y129703D01*
X623257Y129368D01*
X624132D01*
X624941Y129703D01*
X625560Y130322D01*
X625894Y131131D01*
Y132006D01*
X625560Y132815D01*
X624941Y133433D01*
X624132Y133768D01*
X623557D01*
X623350Y134268D01*
X653228Y164146D01*
X653689Y163954D01*
Y156258D01*
X647318Y149886D01*
X646923Y149295D01*
X646784Y148598D01*
X646784Y148598D01*
Y135582D01*
X646784Y135582D01*
X646923Y134884D01*
X647318Y134293D01*
X649752Y131858D01*
Y128708D01*
X642946Y121901D01*
X615462D01*
X615419Y121944D01*
X614611Y122279D01*
X613736D01*
X612927Y121944D01*
X612308Y121325D01*
X611973Y120516D01*
Y119641D01*
X612308Y118833D01*
X612927Y118214D01*
X613736Y117879D01*
X614611D01*
X615419Y118214D01*
X615462Y118256D01*
X643701D01*
X643701Y118256D01*
X644398Y118395D01*
X644989Y118790D01*
X652863Y126664D01*
X652864Y126664D01*
X653259Y127255D01*
X653397Y127953D01*
X653397Y127953D01*
Y132613D01*
X653397Y132613D01*
X653259Y133310D01*
X652864Y133902D01*
X650429Y136336D01*
Y147843D01*
X656800Y154214D01*
X656801Y154215D01*
X657196Y154806D01*
X657334Y155503D01*
Y264886D01*
X657334Y264886D01*
X657196Y265584D01*
X656801Y266175D01*
X646096Y276879D01*
X645505Y277274D01*
X644807Y277413D01*
X644807Y277413D01*
X619780D01*
X619780Y277413D01*
D02*
G37*
G36*
X510280Y267948D02*
X509405D01*
X508596Y267613D01*
X507977Y266994D01*
X507643Y266186D01*
Y265310D01*
X507977Y264502D01*
X508596Y263883D01*
X509405Y263548D01*
X510280D01*
X511089Y263883D01*
X511708Y264502D01*
X512043Y265310D01*
Y266186D01*
X511708Y266994D01*
X511089Y267613D01*
X510280Y267948D01*
D02*
G37*
G36*
X337438Y264200D02*
X336562D01*
X335936Y263941D01*
X334735D01*
X333960Y263787D01*
X333304Y263348D01*
X297435Y227480D01*
X296997Y226823D01*
X296843Y226049D01*
Y223704D01*
X293435Y220297D01*
X293011Y220580D01*
X293083Y220753D01*
X293172Y221425D01*
Y224575D01*
X293083Y225247D01*
X292824Y225873D01*
X292411Y226411D01*
X291873Y226824D01*
X291247Y227083D01*
X290575Y227172D01*
X287425D01*
X286753Y227083D01*
X286127Y226824D01*
X285589Y226411D01*
X285176Y225873D01*
X284917Y225247D01*
X284828Y224575D01*
Y221425D01*
X284917Y220753D01*
X285176Y220127D01*
X285589Y219589D01*
X286127Y219176D01*
X286753Y218917D01*
X287425Y218828D01*
X290575D01*
X291247Y218917D01*
X291420Y218988D01*
X291703Y218565D01*
X290132Y216993D01*
X289546Y217149D01*
X288454D01*
X287398Y216867D01*
X286452Y216320D01*
X285679Y215548D01*
X285133Y214602D01*
X284850Y213546D01*
Y212454D01*
X285133Y211398D01*
X285679Y210452D01*
X286452Y209679D01*
X287398Y209133D01*
X288454Y208850D01*
X289546D01*
X290602Y209133D01*
X291548Y209679D01*
X292320Y210452D01*
X292867Y211398D01*
X293149Y212454D01*
Y213546D01*
X292993Y214132D01*
X299455Y220594D01*
X300035Y220467D01*
X300176Y220127D01*
X300589Y219589D01*
X301127Y219176D01*
X301753Y218917D01*
X302425Y218828D01*
X305575D01*
X306247Y218917D01*
X306420Y218988D01*
X306703Y218565D01*
X305132Y216993D01*
X304546Y217149D01*
X303454D01*
X302398Y216867D01*
X301452Y216320D01*
X300679Y215548D01*
X300133Y214602D01*
X299850Y213546D01*
Y212454D01*
X300133Y211398D01*
X300679Y210452D01*
X301452Y209679D01*
X302398Y209133D01*
X303454Y208850D01*
X304546D01*
X305602Y209133D01*
X306548Y209679D01*
X307320Y210452D01*
X307867Y211398D01*
X308150Y212454D01*
Y213546D01*
X307993Y214132D01*
X311266Y217405D01*
X311705Y218062D01*
X311859Y218836D01*
Y222916D01*
X313258Y224315D01*
X313720Y224124D01*
Y222052D01*
X313809Y221380D01*
X314068Y220754D01*
X314481Y220216D01*
X315019Y219803D01*
X315645Y219544D01*
X316317Y219455D01*
X319467D01*
X320139Y219544D01*
X320312Y219615D01*
X320595Y219192D01*
X319024Y217620D01*
X318438Y217777D01*
X317346D01*
X316290Y217494D01*
X315344Y216948D01*
X314571Y216175D01*
X314025Y215229D01*
X313742Y214173D01*
Y213081D01*
X314025Y212025D01*
X314571Y211079D01*
X315344Y210307D01*
X316290Y209760D01*
X317346Y209477D01*
X318438D01*
X319494Y209760D01*
X320440Y210307D01*
X321213Y211079D01*
X321759Y212025D01*
X322042Y213081D01*
Y214173D01*
X321885Y214759D01*
X324894Y217768D01*
X325332Y218424D01*
X325486Y219198D01*
Y223180D01*
X326622Y224315D01*
X327083Y224124D01*
Y222052D01*
X327172Y221380D01*
X327431Y220754D01*
X327844Y220216D01*
X328382Y219803D01*
X329008Y219544D01*
X329680Y219455D01*
X332830D01*
X333502Y219544D01*
X334128Y219803D01*
X334666Y220216D01*
X335079Y220754D01*
X335338Y221380D01*
X335427Y222052D01*
Y225202D01*
X335338Y225874D01*
X335079Y226500D01*
X335057Y226528D01*
X335279Y226977D01*
X337135D01*
X337562Y226800D01*
X338438D01*
X339246Y227135D01*
X339865Y227754D01*
X340200Y228562D01*
Y229438D01*
X339865Y230246D01*
X339246Y230865D01*
X338438Y231200D01*
X337562D01*
X337135Y231023D01*
X328445D01*
X327671Y230869D01*
X327015Y230431D01*
X322477Y225893D01*
X322336Y225888D01*
X321910Y226032D01*
X321716Y226500D01*
X321303Y227038D01*
X320765Y227451D01*
X320139Y227710D01*
X319467Y227799D01*
X317395D01*
X317204Y228261D01*
X331920Y242977D01*
X336135D01*
X336562Y242800D01*
X337438D01*
X338246Y243135D01*
X338865Y243754D01*
X339200Y244562D01*
Y245438D01*
X338865Y246246D01*
X338246Y246865D01*
X337438Y247200D01*
X336562D01*
X336135Y247023D01*
X331082D01*
X330308Y246869D01*
X329651Y246431D01*
X308562Y225341D01*
X308511Y225331D01*
X308058Y225420D01*
X307993Y225465D01*
X307824Y225873D01*
X307411Y226411D01*
X306873Y226824D01*
X306247Y227083D01*
X305575Y227172D01*
X303503D01*
X303312Y227634D01*
X335573Y259894D01*
X336335D01*
X336562Y259800D01*
X337438D01*
X338246Y260135D01*
X338865Y260754D01*
X339200Y261562D01*
Y262438D01*
X338865Y263246D01*
X338246Y263865D01*
X337438Y264200D01*
D02*
G37*
G36*
X514217Y264011D02*
X513342D01*
X512533Y263676D01*
X511914Y263057D01*
X511580Y262249D01*
Y261373D01*
X511914Y260565D01*
X512533Y259946D01*
X513342Y259611D01*
X514217D01*
X515026Y259946D01*
X515645Y260565D01*
X515979Y261373D01*
Y262249D01*
X515645Y263057D01*
X515026Y263676D01*
X514217Y264011D01*
D02*
G37*
G36*
X570267Y267512D02*
X569071D01*
X567916Y267202D01*
X566880Y266604D01*
X566034Y265758D01*
X565436Y264722D01*
X565126Y263567D01*
Y262370D01*
X565436Y261215D01*
X566034Y260179D01*
X566880Y259333D01*
X567916Y258735D01*
X569071Y258425D01*
X570267D01*
X571423Y258735D01*
X572459Y259333D01*
X573305Y260179D01*
X573903Y261215D01*
X574213Y262370D01*
Y263567D01*
X573903Y264722D01*
X573305Y265758D01*
X572459Y266604D01*
X571423Y267202D01*
X570267Y267512D01*
D02*
G37*
G36*
X560267D02*
X559071D01*
X557916Y267202D01*
X556880Y266604D01*
X556034Y265758D01*
X555436Y264722D01*
X555126Y263567D01*
Y262370D01*
X555436Y261215D01*
X556034Y260179D01*
X556880Y259333D01*
X557916Y258735D01*
X559071Y258425D01*
X560267D01*
X561423Y258735D01*
X562459Y259333D01*
X563305Y260179D01*
X563903Y261215D01*
X564213Y262370D01*
Y263567D01*
X563903Y264722D01*
X563305Y265758D01*
X562459Y266604D01*
X561423Y267202D01*
X560267Y267512D01*
D02*
G37*
G36*
X550267D02*
X549071D01*
X547916Y267202D01*
X546880Y266604D01*
X546034Y265758D01*
X545436Y264722D01*
X545126Y263567D01*
Y262370D01*
X545436Y261215D01*
X546034Y260179D01*
X546880Y259333D01*
X547916Y258735D01*
X549071Y258425D01*
X550267D01*
X551423Y258735D01*
X552459Y259333D01*
X553305Y260179D01*
X553903Y261215D01*
X554213Y262370D01*
Y263567D01*
X553903Y264722D01*
X553305Y265758D01*
X552459Y266604D01*
X551423Y267202D01*
X550267Y267512D01*
D02*
G37*
G36*
X325438Y264200D02*
X324562D01*
X323754Y263865D01*
X323135Y263246D01*
X322958Y262819D01*
X316162Y256023D01*
X308538D01*
X308346Y256485D01*
X311819Y259958D01*
X312246Y260135D01*
X312865Y260754D01*
X313200Y261562D01*
Y262438D01*
X312865Y263246D01*
X312246Y263865D01*
X311438Y264200D01*
X310562D01*
X309754Y263865D01*
X309135Y263246D01*
X308958Y262819D01*
X305162Y259023D01*
X290538D01*
X290346Y259485D01*
X290838Y259977D01*
X297135D01*
X297562Y259800D01*
X298438D01*
X299246Y260135D01*
X299865Y260754D01*
X300200Y261562D01*
Y262438D01*
X299865Y263246D01*
X299246Y263865D01*
X298438Y264200D01*
X297562D01*
X297135Y264023D01*
X290000D01*
X289226Y263869D01*
X288569Y263431D01*
X276652Y251513D01*
X276213Y250857D01*
X276059Y250083D01*
Y248064D01*
X275800Y247438D01*
Y246562D01*
X276135Y245754D01*
X276754Y245135D01*
X277562Y244800D01*
X278438D01*
X279246Y245135D01*
X279673Y245562D01*
X280000Y245698D01*
X280327Y245562D01*
X280754Y245135D01*
X281562Y244800D01*
X282438D01*
X283246Y245135D01*
X283581Y245470D01*
X283908Y245721D01*
X284234Y245470D01*
X284570Y245135D01*
X285378Y244800D01*
X286253D01*
X287062Y245135D01*
X287681Y245754D01*
X288016Y246562D01*
Y247438D01*
X287921Y247665D01*
Y247836D01*
X292062Y251977D01*
X317000D01*
X317774Y252131D01*
X318431Y252569D01*
X325819Y259958D01*
X326246Y260135D01*
X326865Y260754D01*
X327200Y261562D01*
Y262438D01*
X326865Y263246D01*
X326246Y263865D01*
X325438Y264200D01*
D02*
G37*
G36*
X207131Y254169D02*
X206255D01*
X205447Y253834D01*
X204828Y253215D01*
X204493Y252406D01*
Y251531D01*
X204828Y250722D01*
X205447Y250103D01*
X206255Y249768D01*
X207131D01*
X207939Y250103D01*
X208558Y250722D01*
X208893Y251531D01*
Y252406D01*
X208558Y253215D01*
X207939Y253834D01*
X207131Y254169D01*
D02*
G37*
G36*
X570267Y257512D02*
X569071D01*
X567916Y257202D01*
X566880Y256604D01*
X566034Y255758D01*
X565436Y254722D01*
X565126Y253567D01*
Y252370D01*
X565436Y251215D01*
X566034Y250179D01*
X566880Y249333D01*
X567916Y248735D01*
X569071Y248425D01*
X570267D01*
X571423Y248735D01*
X572459Y249333D01*
X573305Y250179D01*
X573903Y251215D01*
X574213Y252370D01*
Y253567D01*
X573903Y254722D01*
X573305Y255758D01*
X572459Y256604D01*
X571423Y257202D01*
X570267Y257512D01*
D02*
G37*
G36*
X560267D02*
X559071D01*
X557916Y257202D01*
X556880Y256604D01*
X556034Y255758D01*
X555436Y254722D01*
X555126Y253567D01*
Y252370D01*
X555436Y251215D01*
X556034Y250179D01*
X556880Y249333D01*
X557916Y248735D01*
X559071Y248425D01*
X560267D01*
X561423Y248735D01*
X562459Y249333D01*
X563305Y250179D01*
X563903Y251215D01*
X564213Y252370D01*
Y253567D01*
X563903Y254722D01*
X563305Y255758D01*
X562459Y256604D01*
X561423Y257202D01*
X560267Y257512D01*
D02*
G37*
G36*
X550267D02*
X549071D01*
X547916Y257202D01*
X546880Y256604D01*
X546034Y255758D01*
X545436Y254722D01*
X545126Y253567D01*
Y252370D01*
X545436Y251215D01*
X546034Y250179D01*
X546880Y249333D01*
X547916Y248735D01*
X549071Y248425D01*
X550267D01*
X551423Y248735D01*
X552459Y249333D01*
X553305Y250179D01*
X553903Y251215D01*
X554213Y252370D01*
Y253567D01*
X553903Y254722D01*
X553305Y255758D01*
X552459Y256604D01*
X551423Y257202D01*
X550267Y257512D01*
D02*
G37*
G36*
X260280Y246379D02*
X259405D01*
X258596Y246044D01*
X257977Y245426D01*
X257643Y244617D01*
Y243742D01*
X257977Y242933D01*
X258596Y242314D01*
X259405Y241979D01*
X260280D01*
X261089Y242314D01*
X261708Y242933D01*
X262042Y243742D01*
Y244617D01*
X261708Y245426D01*
X261089Y246044D01*
X260280Y246379D01*
D02*
G37*
G36*
X506343Y244326D02*
X505468D01*
X504659Y243991D01*
X504040Y243372D01*
X503706Y242564D01*
Y241688D01*
X504040Y240880D01*
X504659Y240261D01*
X505468Y239926D01*
X506343D01*
X507152Y240261D01*
X507771Y240880D01*
X508106Y241688D01*
Y242564D01*
X507771Y243372D01*
X507152Y243991D01*
X506343Y244326D01*
D02*
G37*
G36*
X570267Y247512D02*
X569071D01*
X567916Y247202D01*
X566880Y246604D01*
X566034Y245758D01*
X565436Y244722D01*
X565126Y243567D01*
Y242370D01*
X565436Y241215D01*
X566034Y240179D01*
X566880Y239333D01*
X567916Y238735D01*
X569071Y238425D01*
X570267D01*
X571423Y238735D01*
X572459Y239333D01*
X573305Y240179D01*
X573903Y241215D01*
X574213Y242370D01*
Y243567D01*
X573903Y244722D01*
X573305Y245758D01*
X572459Y246604D01*
X571423Y247202D01*
X570267Y247512D01*
D02*
G37*
G36*
X560267D02*
X559071D01*
X557916Y247202D01*
X556880Y246604D01*
X556034Y245758D01*
X555436Y244722D01*
X555126Y243567D01*
Y242370D01*
X555436Y241215D01*
X556034Y240179D01*
X556880Y239333D01*
X557916Y238735D01*
X559071Y238425D01*
X560267D01*
X561423Y238735D01*
X562459Y239333D01*
X563305Y240179D01*
X563903Y241215D01*
X564213Y242370D01*
Y243567D01*
X563903Y244722D01*
X563305Y245758D01*
X562459Y246604D01*
X561423Y247202D01*
X560267Y247512D01*
D02*
G37*
G36*
X550267D02*
X549071D01*
X547916Y247202D01*
X546880Y246604D01*
X546034Y245758D01*
X545436Y244722D01*
X545126Y243567D01*
Y242370D01*
X545436Y241215D01*
X546034Y240179D01*
X546880Y239333D01*
X547916Y238735D01*
X549071Y238425D01*
X550267D01*
X551423Y238735D01*
X552459Y239333D01*
X553305Y240179D01*
X553903Y241215D01*
X554213Y242370D01*
Y243567D01*
X553903Y244722D01*
X553305Y245758D01*
X552459Y246604D01*
X551423Y247202D01*
X550267Y247512D01*
D02*
G37*
G36*
X166438Y252200D02*
X165562D01*
X164754Y251865D01*
X164135Y251246D01*
X163800Y250438D01*
Y249562D01*
X164135Y248754D01*
X164754Y248135D01*
X165562Y247800D01*
X166438D01*
X166865Y247977D01*
X190720D01*
X202128Y236569D01*
X202784Y236131D01*
X203558Y235977D01*
X228135D01*
X228562Y235800D01*
X229438D01*
X230246Y236135D01*
X230865Y236754D01*
X231200Y237562D01*
Y238438D01*
X230865Y239246D01*
X230246Y239865D01*
X229438Y240200D01*
X228562D01*
X228135Y240023D01*
X204396D01*
X192989Y251431D01*
X192333Y251869D01*
X191558Y252023D01*
X166865D01*
X166438Y252200D01*
D02*
G37*
G36*
X590989Y234484D02*
X590114D01*
X589305Y234149D01*
X588686Y233530D01*
X588351Y232721D01*
Y231846D01*
X588686Y231037D01*
X589305Y230418D01*
X590114Y230083D01*
X590989D01*
X591797Y230418D01*
X592416Y231037D01*
X592751Y231846D01*
Y232721D01*
X592416Y233530D01*
X591797Y234149D01*
X590989Y234484D01*
D02*
G37*
G36*
X248469Y230546D02*
X247594D01*
X246785Y230211D01*
X246166Y229593D01*
X245831Y228784D01*
Y227909D01*
X246166Y227100D01*
X246785Y226481D01*
X247594Y226147D01*
X248469D01*
X249278Y226481D01*
X249897Y227100D01*
X250232Y227909D01*
Y228784D01*
X249897Y229593D01*
X249278Y230211D01*
X248469Y230546D01*
D02*
G37*
G36*
X376422Y224641D02*
X375547D01*
X375120Y224464D01*
X363069D01*
X362642Y224641D01*
X361767D01*
X360959Y224306D01*
X360340Y223687D01*
X360005Y222879D01*
Y222003D01*
X360340Y221195D01*
X360959Y220576D01*
X361767Y220241D01*
X362642D01*
X363069Y220418D01*
X375120D01*
X375547Y220241D01*
X376422D01*
X377231Y220576D01*
X377849Y221195D01*
X378184Y222003D01*
Y222879D01*
X377849Y223687D01*
X377231Y224306D01*
X376422Y224641D01*
D02*
G37*
G36*
X448269Y228559D02*
X447401D01*
X446599Y228227D01*
X445986Y227613D01*
X445654Y226812D01*
Y225944D01*
X445986Y225143D01*
X446599Y224529D01*
X447401Y224197D01*
X448269D01*
X449070Y224529D01*
X449684Y225143D01*
X450016Y225944D01*
Y226812D01*
X449684Y227613D01*
X449070Y228227D01*
X448269Y228559D01*
D02*
G37*
G36*
X438426D02*
X437558D01*
X436757Y228227D01*
X436143Y227613D01*
X435811Y226812D01*
Y225944D01*
X436143Y225143D01*
X436757Y224529D01*
X437558Y224197D01*
X438426D01*
X439228Y224529D01*
X439841Y225143D01*
X440173Y225944D01*
Y226812D01*
X439841Y227613D01*
X439228Y228227D01*
X438426Y228559D01*
D02*
G37*
G36*
X428583D02*
X427716D01*
X426914Y228227D01*
X426301Y227613D01*
X425969Y226812D01*
Y225944D01*
X426301Y225143D01*
X426914Y224529D01*
X427716Y224197D01*
X428583D01*
X429385Y224529D01*
X429999Y225143D01*
X430331Y225944D01*
Y226812D01*
X429999Y227613D01*
X429385Y228227D01*
X428583Y228559D01*
D02*
G37*
G36*
X399056D02*
X398188D01*
X397387Y228227D01*
X396773Y227613D01*
X396441Y226812D01*
Y225944D01*
X396773Y225143D01*
X397387Y224529D01*
X398188Y224197D01*
X399056D01*
X399857Y224529D01*
X400471Y225143D01*
X400803Y225944D01*
Y226812D01*
X400471Y227613D01*
X399857Y228227D01*
X399056Y228559D01*
D02*
G37*
G36*
X389213D02*
X388346D01*
X387544Y228227D01*
X386930Y227613D01*
X386598Y226812D01*
Y225944D01*
X386930Y225143D01*
X387544Y224529D01*
X388346Y224197D01*
X389213D01*
X390015Y224529D01*
X390629Y225143D01*
X390961Y225944D01*
Y226812D01*
X390629Y227613D01*
X390015Y228227D01*
X389213Y228559D01*
D02*
G37*
G36*
X414650Y232437D02*
X413350D01*
X412094Y232101D01*
X410969Y231451D01*
X410049Y230531D01*
X409399Y229406D01*
X409214Y228715D01*
X408898Y228559D01*
X408031D01*
X407229Y228227D01*
X406615Y227613D01*
X406284Y226812D01*
Y225944D01*
X406615Y225143D01*
X407229Y224529D01*
X408031Y224197D01*
X408898D01*
X409700Y224529D01*
X410198Y224320D01*
X410969Y223549D01*
X412094Y222899D01*
X413350Y222563D01*
X414650D01*
X415906Y222899D01*
X417031Y223549D01*
X417951Y224469D01*
X418601Y225594D01*
X418937Y226850D01*
Y228150D01*
X418601Y229406D01*
X417951Y230531D01*
X417031Y231451D01*
X415906Y232101D01*
X414650Y232437D01*
D02*
G37*
G36*
X258312Y240389D02*
X257436D01*
X256628Y240054D01*
X256009Y239435D01*
X255674Y238627D01*
Y237751D01*
X255851Y237324D01*
Y207872D01*
X250153D01*
X249379Y207770D01*
X248955Y207595D01*
X248656Y207471D01*
X248036Y206995D01*
X219024Y177983D01*
X218534Y178081D01*
X218483Y178204D01*
X217869Y178817D01*
X217068Y179149D01*
X216200D01*
X215398Y178817D01*
X214785Y178204D01*
X214453Y177402D01*
Y176535D01*
X214785Y175733D01*
X215398Y175119D01*
X215522Y175068D01*
X215619Y174578D01*
X208513Y167472D01*
X208037Y166851D01*
X207738Y166129D01*
X207636Y165354D01*
X207738Y164579D01*
X208037Y163857D01*
X208513Y163237D01*
X209133Y162761D01*
X209855Y162462D01*
X210630Y162360D01*
X211405Y162462D01*
X212127Y162761D01*
X212747Y163237D01*
X251394Y201884D01*
X304408D01*
X304523Y201384D01*
X266181Y163042D01*
X265754Y162865D01*
X265135Y162246D01*
X264800Y161438D01*
Y160562D01*
X265135Y159754D01*
X265754Y159135D01*
X266562Y158800D01*
X267438D01*
X267602Y158868D01*
X268052Y158581D01*
X268078Y158195D01*
X259331Y149448D01*
X257425D01*
X256651Y149294D01*
X256073Y148908D01*
X237085D01*
X236658Y149085D01*
X235783D01*
X235356Y148908D01*
X138660D01*
X138233Y149085D01*
X137358D01*
X136549Y148750D01*
X135930Y148131D01*
X135595Y147323D01*
Y146447D01*
X135723Y146140D01*
X135445Y145724D01*
X124880D01*
X124453Y145901D01*
X123578D01*
X122770Y145566D01*
X122151Y144947D01*
X121816Y144138D01*
Y143263D01*
X122151Y142455D01*
X122592Y142014D01*
X122585Y141947D01*
X122147Y141291D01*
X122035Y140732D01*
X121816Y140201D01*
Y139326D01*
X122151Y138518D01*
X122770Y137899D01*
X123578Y137564D01*
X124453D01*
X125262Y137899D01*
X125857Y138494D01*
X140885D01*
X141076Y138031D01*
X133039Y129995D01*
X132612Y129818D01*
X131993Y129199D01*
X131658Y128390D01*
Y127515D01*
X131993Y126707D01*
X132612Y126088D01*
X133421Y125753D01*
X134296D01*
X135105Y126088D01*
X135723Y126707D01*
X135900Y127134D01*
X144392Y135625D01*
X264596D01*
X264754Y135467D01*
X265562Y135132D01*
X266438D01*
X266565Y135185D01*
X269154Y132596D01*
X269811Y132158D01*
X270585Y132004D01*
X287661D01*
X287868Y131504D01*
X287521Y131157D01*
X287189Y130355D01*
Y129487D01*
X287521Y128686D01*
X288135Y128072D01*
X288936Y127740D01*
X289804D01*
X290605Y128072D01*
X291219Y128686D01*
X291551Y129487D01*
Y130355D01*
X291219Y131157D01*
X290872Y131504D01*
X291079Y132004D01*
X311283D01*
X311490Y131504D01*
X311143Y131157D01*
X310811Y130355D01*
Y129487D01*
X311143Y128686D01*
X311756Y128072D01*
X312558Y127740D01*
X313426D01*
X314228Y128072D01*
X314841Y128686D01*
X315173Y129487D01*
Y130355D01*
X314841Y131157D01*
X314494Y131504D01*
X314701Y132004D01*
X334905D01*
X335112Y131504D01*
X334765Y131157D01*
X334433Y130355D01*
Y129487D01*
X334765Y128686D01*
X335379Y128072D01*
X336180Y127740D01*
X337048D01*
X337850Y128072D01*
X338463Y128686D01*
X338795Y129487D01*
Y130355D01*
X338463Y131157D01*
X338116Y131504D01*
X338323Y132004D01*
X346716D01*
X346923Y131504D01*
X346576Y131157D01*
X346244Y130355D01*
Y129487D01*
X346576Y128686D01*
X347190Y128072D01*
X347991Y127740D01*
X348859D01*
X349661Y128072D01*
X350274Y128686D01*
X350606Y129487D01*
Y130355D01*
X350274Y131157D01*
X349927Y131504D01*
X350134Y132004D01*
X353364D01*
X354138Y132158D01*
X354794Y132596D01*
X363499Y141300D01*
X364032Y141127D01*
X364293Y140497D01*
X364906Y139883D01*
X365708Y139551D01*
X366576D01*
X367377Y139883D01*
X367991Y140497D01*
X368323Y141298D01*
Y142166D01*
X367991Y142968D01*
X367377Y143581D01*
X366747Y143842D01*
X366573Y144375D01*
X372087Y149889D01*
X381508D01*
X381786Y149473D01*
X381658Y149165D01*
Y148290D01*
X381835Y147863D01*
Y100303D01*
X381335Y100096D01*
X381157Y100274D01*
X380355Y100606D01*
X379488D01*
X378686Y100274D01*
X378072Y99661D01*
X377740Y98859D01*
Y97991D01*
X378072Y97190D01*
X378686Y96576D01*
X379488Y96244D01*
X380355D01*
X381157Y96576D01*
X381335Y96754D01*
X381835Y96547D01*
Y92429D01*
X381335Y92222D01*
X381157Y92400D01*
X380355Y92732D01*
X379488D01*
X378686Y92400D01*
X378072Y91787D01*
X377740Y90985D01*
Y90117D01*
X378072Y89316D01*
X378686Y88702D01*
X379488Y88370D01*
X380355D01*
X381157Y88702D01*
X381335Y88880D01*
X381835Y88673D01*
Y80696D01*
X343448Y42309D01*
X203684D01*
X202910Y42155D01*
X202253Y41717D01*
X194380Y33843D01*
X148996D01*
X148222Y33689D01*
X147565Y33250D01*
X133181Y18866D01*
X132754Y18689D01*
X132135Y18070D01*
X131800Y17262D01*
Y16386D01*
X132135Y15578D01*
X132754Y14959D01*
X133562Y14624D01*
X134438D01*
X135246Y14959D01*
X135865Y15578D01*
X136042Y16005D01*
X149834Y29797D01*
X195218D01*
X195992Y29951D01*
X196648Y30389D01*
X204522Y38263D01*
X344286D01*
X345060Y38417D01*
X345717Y38856D01*
X385289Y78428D01*
X385727Y79084D01*
X385881Y79858D01*
Y147863D01*
X386058Y148290D01*
Y149165D01*
X385931Y149473D01*
X386209Y149889D01*
X401349D01*
X418548Y132689D01*
X418456Y132154D01*
X418085Y131966D01*
X417757Y132102D01*
X416889D01*
X416088Y131770D01*
X415474Y131157D01*
X415142Y130355D01*
Y129488D01*
X415474Y128686D01*
X416088Y128072D01*
X416889Y127740D01*
X417256D01*
X417463Y127240D01*
X417443Y127220D01*
X417110Y126418D01*
Y125550D01*
X417443Y124749D01*
X418056Y124135D01*
X418858Y123803D01*
X419725D01*
X420527Y124135D01*
X421141Y124749D01*
X421473Y125550D01*
Y126418D01*
X421141Y127220D01*
X420734Y127626D01*
X420582Y127953D01*
X420734Y128280D01*
X421140Y128686D01*
X421347Y129184D01*
X421934Y129303D01*
X483688Y67550D01*
X484344Y67111D01*
X485118Y66957D01*
X487125D01*
X487751Y66698D01*
X488627D01*
X489435Y67033D01*
X490054Y67651D01*
X490389Y68460D01*
Y69335D01*
X490054Y70144D01*
X489658Y70539D01*
X489489Y70866D01*
X489658Y71193D01*
X490054Y71588D01*
X490389Y72397D01*
Y73272D01*
X490054Y74081D01*
X490270Y74572D01*
X490595D01*
X491404Y74907D01*
X492023Y75525D01*
X492357Y76334D01*
Y77209D01*
X492023Y78018D01*
X491404Y78637D01*
X490977Y78814D01*
X411758Y158032D01*
X411949Y158494D01*
X455793D01*
X456567Y158648D01*
X457224Y159087D01*
X506743Y208607D01*
X520760D01*
X520967Y208107D01*
X520789Y207928D01*
X520457Y207127D01*
Y206259D01*
X520789Y205457D01*
X521402Y204844D01*
X522204Y204512D01*
X523072D01*
X523873Y204844D01*
X524487Y205457D01*
X524819Y206259D01*
Y207127D01*
X524487Y207928D01*
X524308Y208107D01*
X524516Y208607D01*
X526666D01*
X526873Y208107D01*
X526694Y207928D01*
X526362Y207127D01*
Y206259D01*
X526694Y205457D01*
X527308Y204844D01*
X528110Y204512D01*
X528977D01*
X529779Y204844D01*
X530392Y205457D01*
X530724Y206259D01*
Y207127D01*
X530392Y207928D01*
X530214Y208107D01*
X530421Y208607D01*
X532571D01*
X532778Y208107D01*
X532600Y207928D01*
X532268Y207127D01*
Y206259D01*
X532600Y205457D01*
X533213Y204844D01*
X534015Y204512D01*
X534883D01*
X535684Y204844D01*
X536298Y205457D01*
X536630Y206259D01*
Y207127D01*
X536298Y207928D01*
X536120Y208107D01*
X536327Y208607D01*
X538477D01*
X538684Y208107D01*
X538505Y207928D01*
X538173Y207127D01*
Y206259D01*
X538505Y205457D01*
X539119Y204844D01*
X539921Y204512D01*
X540788D01*
X541590Y204844D01*
X542203Y205457D01*
X542535Y206259D01*
Y207127D01*
X542247Y207823D01*
X542334Y208207D01*
X542430Y208409D01*
X542694Y208503D01*
X542870Y208430D01*
X543745D01*
X544292Y208657D01*
X544553Y208765D01*
X544884Y208402D01*
X544411Y207928D01*
X544079Y207127D01*
Y206259D01*
X544411Y205457D01*
X545024Y204844D01*
X545826Y204512D01*
X546694D01*
X547495Y204844D01*
X548109Y205457D01*
X548441Y206259D01*
Y207127D01*
X548109Y207928D01*
X547495Y208542D01*
X546694Y208874D01*
X545826D01*
X545286Y208650D01*
X545024Y208542D01*
X544693Y208905D01*
X545172Y209384D01*
X545507Y210192D01*
Y211068D01*
X545172Y211876D01*
X544553Y212495D01*
X543745Y212830D01*
X542870D01*
X542443Y212653D01*
X505905D01*
X505513Y212575D01*
X505267Y213036D01*
X506620Y214389D01*
X542443D01*
X542870Y214212D01*
X543745D01*
X544553Y214547D01*
X545172Y215165D01*
X545507Y215974D01*
Y216751D01*
X579135D01*
X579562Y216574D01*
X580438D01*
X581246Y216909D01*
X581865Y217528D01*
X582200Y218337D01*
Y219212D01*
X581865Y220020D01*
X581246Y220639D01*
X580438Y220974D01*
X579562D01*
X579135Y220797D01*
X546286D01*
X546057Y221026D01*
X545400Y221465D01*
X544626Y221619D01*
X504909D01*
X504135Y221465D01*
X503479Y221026D01*
X473536Y191084D01*
X471187D01*
X470936Y191584D01*
X471166Y192139D01*
X471268Y192913D01*
X471166Y193688D01*
X470866Y194410D01*
X470391Y195030D01*
X458426Y206995D01*
X457806Y207471D01*
X457084Y207770D01*
X456309Y207872D01*
X440820D01*
X440820Y207872D01*
X430487D01*
X430487Y207872D01*
X397513D01*
X397513Y207872D01*
X387180D01*
X387180Y207872D01*
X259897D01*
Y237324D01*
X260074Y237751D01*
Y238627D01*
X259739Y239435D01*
X259120Y240054D01*
X258312Y240389D01*
D02*
G37*
G36*
X248469Y220704D02*
X247594D01*
X246785Y220369D01*
X246166Y219750D01*
X245831Y218942D01*
Y218066D01*
X246166Y217258D01*
X246785Y216639D01*
X247594Y216304D01*
X248469D01*
X249278Y216639D01*
X249897Y217258D01*
X250232Y218066D01*
Y218942D01*
X249897Y219750D01*
X249278Y220369D01*
X248469Y220704D01*
D02*
G37*
G36*
X436304Y222594D02*
X435004D01*
X433748Y222258D01*
X432622Y221608D01*
X431703Y220689D01*
X431053Y219563D01*
X430717Y218307D01*
Y217007D01*
X431053Y215752D01*
X431703Y214626D01*
X432622Y213707D01*
X433748Y213057D01*
X435004Y212720D01*
X436304D01*
X437559Y213057D01*
X438685Y213707D01*
X439604Y214626D01*
X440254Y215752D01*
X440286Y215872D01*
X440813Y215906D01*
X441064Y215300D01*
X441678Y214686D01*
X442480Y214354D01*
X443347D01*
X444149Y214686D01*
X444762Y215300D01*
X445094Y216102D01*
Y216969D01*
X444762Y217771D01*
X444149Y218385D01*
X443347Y218717D01*
X442480D01*
X441678Y218385D01*
X441091Y217797D01*
X440960Y217807D01*
X440591Y217934D01*
Y218307D01*
X440254Y219563D01*
X439604Y220689D01*
X438685Y221608D01*
X437559Y222258D01*
X436304Y222594D01*
D02*
G37*
G36*
X423662Y218717D02*
X422794D01*
X421993Y218385D01*
X421379Y217771D01*
X421047Y216969D01*
Y216102D01*
X421379Y215300D01*
X421993Y214686D01*
X422794Y214354D01*
X423662D01*
X424464Y214686D01*
X425077Y215300D01*
X425410Y216102D01*
Y216969D01*
X425077Y217771D01*
X424464Y218385D01*
X423662Y218717D01*
D02*
G37*
G36*
X413820D02*
X412952D01*
X412150Y218385D01*
X411537Y217771D01*
X411205Y216969D01*
Y216102D01*
X411537Y215300D01*
X412150Y214686D01*
X412952Y214354D01*
X413820D01*
X414621Y214686D01*
X415235Y215300D01*
X415567Y216102D01*
Y216969D01*
X415235Y217771D01*
X414621Y218385D01*
X413820Y218717D01*
D02*
G37*
G36*
X403977D02*
X403110D01*
X402308Y218385D01*
X401694Y217771D01*
X401362Y216969D01*
Y216102D01*
X401694Y215300D01*
X402308Y214686D01*
X403110Y214354D01*
X403977D01*
X404779Y214686D01*
X405392Y215300D01*
X405724Y216102D01*
Y216969D01*
X405392Y217771D01*
X404779Y218385D01*
X403977Y218717D01*
D02*
G37*
G36*
X392996Y222594D02*
X391696D01*
X390441Y222258D01*
X389315Y221608D01*
X388396Y220689D01*
X387746Y219563D01*
X387409Y218307D01*
Y217007D01*
X387746Y215752D01*
X388396Y214626D01*
X389315Y213707D01*
X390441Y213057D01*
X391696Y212720D01*
X392996D01*
X394252Y213057D01*
X395378Y213707D01*
X396297Y214626D01*
X396947Y215752D01*
X397283Y217007D01*
Y218307D01*
X396947Y219563D01*
X396297Y220689D01*
X395378Y221608D01*
X394252Y222258D01*
X392996Y222594D01*
D02*
G37*
G36*
X626418Y214779D02*
X625550D01*
X624749Y214447D01*
X624135Y213834D01*
X623803Y213032D01*
Y212165D01*
X624135Y211363D01*
X624749Y210749D01*
X625550Y210417D01*
X626418D01*
X627220Y210749D01*
X627833Y211363D01*
X628165Y212165D01*
Y213032D01*
X627833Y213834D01*
X627220Y214447D01*
X626418Y214779D01*
D02*
G37*
G36*
X620513D02*
X619645D01*
X618843Y214447D01*
X618230Y213834D01*
X617898Y213032D01*
Y212165D01*
X618230Y211363D01*
X618843Y210749D01*
X619645Y210417D01*
X620513D01*
X621314Y210749D01*
X621928Y211363D01*
X622260Y212165D01*
Y213032D01*
X621928Y213834D01*
X621314Y214447D01*
X620513Y214779D01*
D02*
G37*
G36*
X614607D02*
X613739D01*
X612938Y214447D01*
X612324Y213834D01*
X611992Y213032D01*
Y212165D01*
X612324Y211363D01*
X612938Y210749D01*
X613739Y210417D01*
X614607D01*
X615409Y210749D01*
X616022Y211363D01*
X616354Y212165D01*
Y213032D01*
X616022Y213834D01*
X615409Y214447D01*
X614607Y214779D01*
D02*
G37*
G36*
X608702D02*
X607834D01*
X607032Y214447D01*
X606419Y213834D01*
X606087Y213032D01*
Y212165D01*
X606419Y211363D01*
X607032Y210749D01*
X607834Y210417D01*
X608702D01*
X609503Y210749D01*
X610117Y211363D01*
X610449Y212165D01*
Y213032D01*
X610117Y213834D01*
X609503Y214447D01*
X608702Y214779D01*
D02*
G37*
G36*
X602796D02*
X601928D01*
X601127Y214447D01*
X600513Y213834D01*
X600181Y213032D01*
Y212165D01*
X600513Y211363D01*
X601127Y210749D01*
X601928Y210417D01*
X602796D01*
X603598Y210749D01*
X604211Y211363D01*
X604543Y212165D01*
Y213032D01*
X604211Y213834D01*
X603598Y214447D01*
X602796Y214779D01*
D02*
G37*
G36*
X596890D02*
X596023D01*
X595221Y214447D01*
X594608Y213834D01*
X594276Y213032D01*
Y212165D01*
X594608Y211363D01*
X595221Y210749D01*
X596023Y210417D01*
X596890D01*
X597692Y210749D01*
X598306Y211363D01*
X598638Y212165D01*
Y213032D01*
X598306Y213834D01*
X597692Y214447D01*
X596890Y214779D01*
D02*
G37*
G36*
X590985D02*
X590117D01*
X589316Y214447D01*
X588702Y213834D01*
X588370Y213032D01*
Y212165D01*
X588702Y211363D01*
X589316Y210749D01*
X590117Y210417D01*
X590985D01*
X591787Y210749D01*
X592400Y211363D01*
X592732Y212165D01*
Y213032D01*
X592400Y213834D01*
X591787Y214447D01*
X590985Y214779D01*
D02*
G37*
G36*
X585079D02*
X584212D01*
X583410Y214447D01*
X582797Y213834D01*
X582465Y213032D01*
Y212165D01*
X582797Y211363D01*
X583410Y210749D01*
X584212Y210417D01*
X585079D01*
X585881Y210749D01*
X586495Y211363D01*
X586827Y212165D01*
Y213032D01*
X586495Y213834D01*
X585881Y214447D01*
X585079Y214779D01*
D02*
G37*
G36*
X579174D02*
X578306D01*
X577505Y214447D01*
X576891Y213834D01*
X576559Y213032D01*
Y212165D01*
X576891Y211363D01*
X577505Y210749D01*
X578306Y210417D01*
X579174D01*
X579976Y210749D01*
X580589Y211363D01*
X580921Y212165D01*
Y213032D01*
X580589Y213834D01*
X579976Y214447D01*
X579174Y214779D01*
D02*
G37*
G36*
X331802Y217777D02*
X330709D01*
X329654Y217494D01*
X328707Y216948D01*
X327935Y216175D01*
X327388Y215229D01*
X327106Y214173D01*
Y213081D01*
X327388Y212025D01*
X327935Y211079D01*
X328707Y210307D01*
X329654Y209760D01*
X330709Y209477D01*
X331802D01*
X332857Y209760D01*
X333803Y210307D01*
X334576Y211079D01*
X335122Y212025D01*
X335405Y213081D01*
Y214173D01*
X335122Y215229D01*
X334576Y216175D01*
X333803Y216948D01*
X332857Y217494D01*
X331802Y217777D01*
D02*
G37*
G36*
X634138Y210790D02*
X633062D01*
X632021Y210512D01*
X631088Y209973D01*
X630327Y209212D01*
X629985Y208620D01*
X629371Y208874D01*
X628503D01*
X627702Y208542D01*
X627088Y207928D01*
X626756Y207127D01*
Y206259D01*
X627088Y205457D01*
X627702Y204844D01*
X628503Y204512D01*
X629371D01*
X629992Y204769D01*
X630327Y204188D01*
X631088Y203427D01*
X631158Y203386D01*
X631122Y202830D01*
X630654Y202636D01*
X630041Y202023D01*
X629709Y201221D01*
Y200354D01*
X630041Y199552D01*
X630654Y198938D01*
X631456Y198606D01*
X632324D01*
X633125Y198938D01*
X633739Y199552D01*
X634071Y200354D01*
Y201221D01*
X633739Y202023D01*
X633614Y202148D01*
X633806Y202609D01*
X634138D01*
X635179Y202888D01*
X636112Y203427D01*
X636873Y204188D01*
X637412Y205121D01*
X637690Y206161D01*
Y207239D01*
X637412Y208279D01*
X636873Y209212D01*
X636112Y209973D01*
X635179Y210512D01*
X634138Y210790D01*
D02*
G37*
G36*
X623465Y208874D02*
X622598D01*
X621796Y208542D01*
X621182Y207928D01*
X620850Y207127D01*
Y206259D01*
X621182Y205457D01*
X621796Y204844D01*
X622598Y204512D01*
X623465D01*
X624267Y204844D01*
X624881Y205457D01*
X625213Y206259D01*
Y207127D01*
X624881Y207928D01*
X624267Y208542D01*
X623465Y208874D01*
D02*
G37*
G36*
X617560D02*
X616692D01*
X615891Y208542D01*
X615277Y207928D01*
X614945Y207127D01*
Y206259D01*
X615277Y205457D01*
X615891Y204844D01*
X616692Y204512D01*
X617560D01*
X618362Y204844D01*
X618975Y205457D01*
X619307Y206259D01*
Y207127D01*
X618975Y207928D01*
X618362Y208542D01*
X617560Y208874D01*
D02*
G37*
G36*
X611654D02*
X610787D01*
X609985Y208542D01*
X609371Y207928D01*
X609039Y207127D01*
Y206259D01*
X609371Y205457D01*
X609985Y204844D01*
X610787Y204512D01*
X611654D01*
X612456Y204844D01*
X613069Y205457D01*
X613402Y206259D01*
Y207127D01*
X613069Y207928D01*
X612456Y208542D01*
X611654Y208874D01*
D02*
G37*
G36*
X605749D02*
X604881D01*
X604079Y208542D01*
X603466Y207928D01*
X603134Y207127D01*
Y206259D01*
X603466Y205457D01*
X604079Y204844D01*
X604881Y204512D01*
X605749D01*
X606551Y204844D01*
X607164Y205457D01*
X607496Y206259D01*
Y207127D01*
X607164Y207928D01*
X606551Y208542D01*
X605749Y208874D01*
D02*
G37*
G36*
X599843D02*
X598976D01*
X598174Y208542D01*
X597560Y207928D01*
X597228Y207127D01*
Y206259D01*
X597560Y205457D01*
X598174Y204844D01*
X598976Y204512D01*
X599843D01*
X600645Y204844D01*
X601259Y205457D01*
X601590Y206259D01*
Y207127D01*
X601259Y207928D01*
X600645Y208542D01*
X599843Y208874D01*
D02*
G37*
G36*
X593938D02*
X593070D01*
X592269Y208542D01*
X591655Y207928D01*
X591323Y207127D01*
Y206259D01*
X591655Y205457D01*
X592269Y204844D01*
X593070Y204512D01*
X593938D01*
X594739Y204844D01*
X595353Y205457D01*
X595685Y206259D01*
Y207127D01*
X595353Y207928D01*
X594739Y208542D01*
X593938Y208874D01*
D02*
G37*
G36*
X588032D02*
X587165D01*
X586363Y208542D01*
X585749Y207928D01*
X585417Y207127D01*
Y206259D01*
X585749Y205457D01*
X586363Y204844D01*
X587165Y204512D01*
X588032D01*
X588834Y204844D01*
X589447Y205457D01*
X589780Y206259D01*
Y207127D01*
X589447Y207928D01*
X588834Y208542D01*
X588032Y208874D01*
D02*
G37*
G36*
X582127D02*
X581259D01*
X580457Y208542D01*
X579844Y207928D01*
X579512Y207127D01*
Y206259D01*
X579844Y205457D01*
X580457Y204844D01*
X581259Y204512D01*
X582127D01*
X582928Y204844D01*
X583542Y205457D01*
X583874Y206259D01*
Y207127D01*
X583542Y207928D01*
X582928Y208542D01*
X582127Y208874D01*
D02*
G37*
G36*
X576221D02*
X575354D01*
X574552Y208542D01*
X573938Y207928D01*
X573606Y207127D01*
Y206259D01*
X573938Y205457D01*
X574552Y204844D01*
X575354Y204512D01*
X576221D01*
X577023Y204844D01*
X577636Y205457D01*
X577969Y206259D01*
Y207127D01*
X577636Y207928D01*
X577023Y208542D01*
X576221Y208874D01*
D02*
G37*
G36*
X570316D02*
X569448D01*
X568646Y208542D01*
X568033Y207928D01*
X567701Y207127D01*
Y206259D01*
X568033Y205457D01*
X568646Y204844D01*
X569448Y204512D01*
X570316D01*
X571117Y204844D01*
X571731Y205457D01*
X572063Y206259D01*
Y207127D01*
X571731Y207928D01*
X571117Y208542D01*
X570316Y208874D01*
D02*
G37*
G36*
X552599D02*
X551731D01*
X550930Y208542D01*
X550316Y207928D01*
X549984Y207127D01*
Y206259D01*
X550316Y205457D01*
X550930Y204844D01*
X551731Y204512D01*
X552599D01*
X553401Y204844D01*
X554014Y205457D01*
X554347Y206259D01*
Y207127D01*
X554014Y207928D01*
X553401Y208542D01*
X552599Y208874D01*
D02*
G37*
G36*
X626418Y202969D02*
X625550D01*
X624749Y202636D01*
X624135Y202023D01*
X623803Y201221D01*
Y200354D01*
X624135Y199552D01*
X624749Y198938D01*
X625550Y198606D01*
X626418D01*
X627220Y198938D01*
X627833Y199552D01*
X628165Y200354D01*
Y201221D01*
X627833Y202023D01*
X627220Y202636D01*
X626418Y202969D01*
D02*
G37*
G36*
X620513D02*
X619645D01*
X618843Y202636D01*
X618230Y202023D01*
X617898Y201221D01*
Y200354D01*
X618230Y199552D01*
X618843Y198938D01*
X619645Y198606D01*
X620513D01*
X621314Y198938D01*
X621928Y199552D01*
X622260Y200354D01*
Y201221D01*
X621928Y202023D01*
X621314Y202636D01*
X620513Y202969D01*
D02*
G37*
G36*
X614607D02*
X613739D01*
X612938Y202636D01*
X612324Y202023D01*
X611992Y201221D01*
Y200354D01*
X612324Y199552D01*
X612938Y198938D01*
X613739Y198606D01*
X614607D01*
X615409Y198938D01*
X616022Y199552D01*
X616354Y200354D01*
Y201221D01*
X616022Y202023D01*
X615409Y202636D01*
X614607Y202969D01*
D02*
G37*
G36*
X608702D02*
X607834D01*
X607032Y202636D01*
X606419Y202023D01*
X606087Y201221D01*
Y200354D01*
X606419Y199552D01*
X607032Y198938D01*
X607834Y198606D01*
X608702D01*
X609503Y198938D01*
X610117Y199552D01*
X610449Y200354D01*
Y201221D01*
X610117Y202023D01*
X609503Y202636D01*
X608702Y202969D01*
D02*
G37*
G36*
X602796D02*
X601928D01*
X601127Y202636D01*
X600513Y202023D01*
X600181Y201221D01*
Y200354D01*
X600513Y199552D01*
X601127Y198938D01*
X601928Y198606D01*
X602796D01*
X603598Y198938D01*
X604211Y199552D01*
X604543Y200354D01*
Y201221D01*
X604211Y202023D01*
X603598Y202636D01*
X602796Y202969D01*
D02*
G37*
G36*
X561457D02*
X560590D01*
X559788Y202636D01*
X559175Y202023D01*
X558843Y201221D01*
Y200354D01*
X559175Y199552D01*
X559788Y198938D01*
X560590Y198606D01*
X561457D01*
X562259Y198938D01*
X562873Y199552D01*
X563205Y200354D01*
Y201221D01*
X562873Y202023D01*
X562259Y202636D01*
X561457Y202969D01*
D02*
G37*
G36*
X555552D02*
X554684D01*
X553883Y202636D01*
X553269Y202023D01*
X552937Y201221D01*
Y200354D01*
X553269Y199552D01*
X553883Y198938D01*
X554684Y198606D01*
X555552D01*
X556354Y198938D01*
X556967Y199552D01*
X557299Y200354D01*
Y201221D01*
X556967Y202023D01*
X556354Y202636D01*
X555552Y202969D01*
D02*
G37*
G36*
X549647D02*
X548779D01*
X547977Y202636D01*
X547364Y202023D01*
X547031Y201221D01*
Y200354D01*
X547364Y199552D01*
X547977Y198938D01*
X548779Y198606D01*
X549647D01*
X550448Y198938D01*
X551062Y199552D01*
X551394Y200354D01*
Y201221D01*
X551062Y202023D01*
X550448Y202636D01*
X549647Y202969D01*
D02*
G37*
G36*
X543741D02*
X542873D01*
X542072Y202636D01*
X541458Y202023D01*
X541126Y201221D01*
Y200354D01*
X541458Y199552D01*
X542072Y198938D01*
X542873Y198606D01*
X543741D01*
X544543Y198938D01*
X545156Y199552D01*
X545488Y200354D01*
Y201221D01*
X545156Y202023D01*
X544543Y202636D01*
X543741Y202969D01*
D02*
G37*
G36*
X537836D02*
X536968D01*
X536166Y202636D01*
X535553Y202023D01*
X535220Y201221D01*
Y200354D01*
X535553Y199552D01*
X536166Y198938D01*
X536968Y198606D01*
X537836D01*
X538637Y198938D01*
X539251Y199552D01*
X539583Y200354D01*
Y201221D01*
X539251Y202023D01*
X538637Y202636D01*
X537836Y202969D01*
D02*
G37*
G36*
X531930D02*
X531062D01*
X530261Y202636D01*
X529647Y202023D01*
X529315Y201221D01*
Y200354D01*
X529647Y199552D01*
X530261Y198938D01*
X531062Y198606D01*
X531930D01*
X532732Y198938D01*
X533345Y199552D01*
X533677Y200354D01*
Y201221D01*
X533345Y202023D01*
X532732Y202636D01*
X531930Y202969D01*
D02*
G37*
G36*
X526024D02*
X525157D01*
X524355Y202636D01*
X523741Y202023D01*
X523410Y201221D01*
Y200354D01*
X523741Y199552D01*
X524355Y198938D01*
X525157Y198606D01*
X526024D01*
X526826Y198938D01*
X527440Y199552D01*
X527772Y200354D01*
Y201221D01*
X527440Y202023D01*
X526826Y202636D01*
X526024Y202969D01*
D02*
G37*
G36*
X520119D02*
X519251D01*
X518450Y202636D01*
X517836Y202023D01*
X517504Y201221D01*
Y200354D01*
X517836Y199552D01*
X518450Y198938D01*
X519251Y198606D01*
X520119D01*
X520921Y198938D01*
X521534Y199552D01*
X521866Y200354D01*
Y201221D01*
X521534Y202023D01*
X520921Y202636D01*
X520119Y202969D01*
D02*
G37*
G36*
X629371Y197063D02*
X628503D01*
X627702Y196731D01*
X627088Y196117D01*
X626756Y195316D01*
Y194448D01*
X627088Y193646D01*
X627702Y193033D01*
X628503Y192701D01*
X629371D01*
X630172Y193033D01*
X630786Y193646D01*
X631118Y194448D01*
Y195316D01*
X630786Y196117D01*
X630172Y196731D01*
X629371Y197063D01*
D02*
G37*
G36*
X611654D02*
X610787D01*
X609985Y196731D01*
X609371Y196117D01*
X609039Y195316D01*
Y194448D01*
X609371Y193646D01*
X609985Y193033D01*
X610787Y192701D01*
X611654D01*
X612456Y193033D01*
X613069Y193646D01*
X613402Y194448D01*
Y195316D01*
X613069Y196117D01*
X612456Y196731D01*
X611654Y197063D01*
D02*
G37*
G36*
X605749D02*
X604881D01*
X604079Y196731D01*
X603466Y196117D01*
X603134Y195316D01*
Y194448D01*
X603466Y193646D01*
X604079Y193033D01*
X604881Y192701D01*
X605749D01*
X606551Y193033D01*
X607164Y193646D01*
X607496Y194448D01*
Y195316D01*
X607164Y196117D01*
X606551Y196731D01*
X605749Y197063D01*
D02*
G37*
G36*
X111876Y194347D02*
X111001D01*
X110193Y194012D01*
X109574Y193394D01*
X109239Y192585D01*
Y191710D01*
X109574Y190901D01*
X110193Y190282D01*
X111001Y189947D01*
X111876D01*
X112685Y190282D01*
X113304Y190901D01*
X113639Y191710D01*
Y192585D01*
X113304Y193394D01*
X112685Y194012D01*
X111876Y194347D01*
D02*
G37*
G36*
X617560Y197063D02*
X616692D01*
X615891Y196731D01*
X615277Y196117D01*
X614945Y195316D01*
Y194448D01*
X615277Y193646D01*
X615891Y193033D01*
X616692Y192701D01*
X617560D01*
X618238Y192982D01*
X618592Y192754D01*
X618670Y192661D01*
X618500Y192027D01*
Y190973D01*
X618773Y189956D01*
X619299Y189044D01*
X620044Y188299D01*
X620956Y187773D01*
X621973Y187500D01*
X623027D01*
X624044Y187773D01*
X624956Y188299D01*
X625701Y189044D01*
X626227Y189956D01*
X626500Y190973D01*
Y192027D01*
X626227Y193044D01*
X625701Y193956D01*
X624956Y194701D01*
X624044Y195227D01*
X623027Y195500D01*
X621973D01*
X620956Y195227D01*
X620044Y194701D01*
X619807Y194464D01*
X619307Y194671D01*
Y195316D01*
X618975Y196117D01*
X618362Y196731D01*
X617560Y197063D01*
D02*
G37*
G36*
X614607Y191157D02*
X613739D01*
X612938Y190825D01*
X612324Y190212D01*
X611992Y189410D01*
Y188542D01*
X612324Y187741D01*
X612938Y187127D01*
X613739Y186795D01*
X614607D01*
X615409Y187127D01*
X616022Y187741D01*
X616354Y188542D01*
Y189410D01*
X616022Y190212D01*
X615409Y190825D01*
X614607Y191157D01*
D02*
G37*
G36*
X608702D02*
X607834D01*
X607032Y190825D01*
X606419Y190212D01*
X606087Y189410D01*
Y188542D01*
X606419Y187741D01*
X607032Y187127D01*
X607834Y186795D01*
X608702D01*
X609503Y187127D01*
X610117Y187741D01*
X610449Y188542D01*
Y189410D01*
X610117Y190212D01*
X609503Y190825D01*
X608702Y191157D01*
D02*
G37*
G36*
X561457D02*
X560590D01*
X559788Y190825D01*
X559175Y190212D01*
X558843Y189410D01*
Y188542D01*
X559175Y187741D01*
X559788Y187127D01*
X560590Y186795D01*
X561457D01*
X562259Y187127D01*
X562873Y187741D01*
X563205Y188542D01*
Y189410D01*
X562873Y190212D01*
X562259Y190825D01*
X561457Y191157D01*
D02*
G37*
G36*
Y179347D02*
X560590D01*
X559788Y179014D01*
X559175Y178401D01*
X558843Y177599D01*
Y176732D01*
X559175Y175930D01*
X559788Y175316D01*
X560590Y174984D01*
X561457D01*
X562259Y175316D01*
X562873Y175930D01*
X563205Y176732D01*
Y177599D01*
X562873Y178401D01*
X562259Y179014D01*
X561457Y179347D01*
D02*
G37*
G36*
X623027Y181720D02*
X621973D01*
X620956Y181448D01*
X620044Y180921D01*
X619299Y180176D01*
X618773Y179264D01*
X618500Y178247D01*
Y177194D01*
X618773Y176177D01*
X619299Y175264D01*
X620044Y174520D01*
X620956Y173993D01*
X621973Y173720D01*
X623027D01*
X624044Y173993D01*
X624956Y174520D01*
X625701Y175264D01*
X626227Y176177D01*
X626500Y177194D01*
Y178247D01*
X626227Y179264D01*
X625701Y180176D01*
X624956Y180921D01*
X624044Y181448D01*
X623027Y181720D01*
D02*
G37*
G36*
X189607Y173047D02*
X188739D01*
X187938Y172715D01*
X187324Y172102D01*
X186992Y171300D01*
Y170432D01*
X187324Y169631D01*
X187938Y169017D01*
X188739Y168685D01*
X189607D01*
X190409Y169017D01*
X191022Y169631D01*
X191354Y170432D01*
Y171300D01*
X191022Y172102D01*
X190409Y172715D01*
X189607Y173047D01*
D02*
G37*
G36*
X183505D02*
X182637D01*
X181835Y172715D01*
X181222Y172102D01*
X180890Y171300D01*
Y170432D01*
X181222Y169631D01*
X181835Y169017D01*
X182637Y168685D01*
X183505D01*
X184306Y169017D01*
X184920Y169631D01*
X185252Y170432D01*
Y171300D01*
X184920Y172102D01*
X184306Y172715D01*
X183505Y173047D01*
D02*
G37*
G36*
X561457Y167535D02*
X560590D01*
X559788Y167203D01*
X559175Y166590D01*
X558843Y165788D01*
Y164920D01*
X559175Y164119D01*
X559788Y163505D01*
X560590Y163173D01*
X561457D01*
X562259Y163505D01*
X562873Y164119D01*
X563205Y164920D01*
Y165788D01*
X562873Y166590D01*
X562259Y167203D01*
X561457Y167535D01*
D02*
G37*
G36*
X198760Y166945D02*
X197893D01*
X197091Y166613D01*
X196478Y165999D01*
X196146Y165198D01*
Y164330D01*
X196478Y163528D01*
X197091Y162915D01*
X197893Y162583D01*
X198760D01*
X199562Y162915D01*
X200176Y163528D01*
X200508Y164330D01*
Y165198D01*
X200176Y165999D01*
X199562Y166613D01*
X198760Y166945D01*
D02*
G37*
G36*
X192658D02*
X191790D01*
X190989Y166613D01*
X190375Y165999D01*
X190043Y165198D01*
Y164330D01*
X190375Y163528D01*
X190989Y162915D01*
X191790Y162583D01*
X192658D01*
X193460Y162915D01*
X194073Y163528D01*
X194405Y164330D01*
Y165198D01*
X194073Y165999D01*
X193460Y166613D01*
X192658Y166945D01*
D02*
G37*
G36*
X122560Y163322D02*
X121685D01*
X120876Y162987D01*
X120257Y162368D01*
X119922Y161560D01*
Y160685D01*
X120257Y159876D01*
X120876Y159257D01*
X121685Y158922D01*
X122560D01*
X123368Y159257D01*
X123987Y159876D01*
X124322Y160685D01*
Y161560D01*
X123987Y162368D01*
X123368Y162987D01*
X122560Y163322D01*
D02*
G37*
G36*
X214016Y160843D02*
X213149D01*
X212347Y160510D01*
X211734Y159897D01*
X211402Y159095D01*
Y158228D01*
X211734Y157426D01*
X212347Y156812D01*
X213149Y156480D01*
X214016D01*
X214818Y156812D01*
X215432Y157426D01*
X215764Y158228D01*
Y159095D01*
X215432Y159897D01*
X214818Y160510D01*
X214016Y160843D01*
D02*
G37*
G36*
X195709D02*
X194842D01*
X194040Y160510D01*
X193427Y159897D01*
X193094Y159095D01*
Y158228D01*
X193427Y157426D01*
X194040Y156812D01*
X194842Y156480D01*
X195709D01*
X196511Y156812D01*
X197125Y157426D01*
X197457Y158228D01*
Y159095D01*
X197125Y159897D01*
X196511Y160510D01*
X195709Y160843D01*
D02*
G37*
G36*
X210965Y154740D02*
X210098D01*
X209296Y154408D01*
X208682Y153795D01*
X208350Y152993D01*
Y152125D01*
X208682Y151323D01*
X209296Y150710D01*
X210098Y150378D01*
X210965D01*
X211767Y150710D01*
X212381Y151323D01*
X212713Y152125D01*
Y152993D01*
X212381Y153795D01*
X211767Y154408D01*
X210965Y154740D01*
D02*
G37*
G36*
X204863Y166945D02*
X203995D01*
X203194Y166613D01*
X202580Y165999D01*
X202248Y165198D01*
Y164330D01*
X202580Y163528D01*
X202673Y163435D01*
X202544Y162952D01*
X202021Y162812D01*
X201088Y162273D01*
X200327Y161512D01*
X199788Y160579D01*
X199509Y159538D01*
Y158461D01*
X199788Y157421D01*
X200327Y156488D01*
X201088Y155727D01*
X202021Y155188D01*
X203062Y154909D01*
X203098D01*
X203197Y154409D01*
X203194Y154408D01*
X202580Y153795D01*
X202248Y152993D01*
Y152125D01*
X202580Y151323D01*
X203194Y150710D01*
X203995Y150378D01*
X204863D01*
X205665Y150710D01*
X206278Y151323D01*
X206610Y152125D01*
Y152993D01*
X206278Y153795D01*
X205665Y154408D01*
X205089Y154647D01*
X205123Y155173D01*
X205179Y155188D01*
X206112Y155727D01*
X206873Y156488D01*
X207412Y157421D01*
X207691Y158461D01*
Y159538D01*
X207412Y160579D01*
X206873Y161512D01*
X206112Y162273D01*
X205782Y162463D01*
X205788Y163038D01*
X206278Y163528D01*
X206610Y164330D01*
Y165198D01*
X206278Y165999D01*
X205665Y166613D01*
X204863Y166945D01*
D02*
G37*
G36*
X198760Y154740D02*
X197893D01*
X197091Y154408D01*
X196478Y153795D01*
X196146Y152993D01*
Y152125D01*
X196478Y151323D01*
X197091Y150710D01*
X197893Y150378D01*
X198760D01*
X199562Y150710D01*
X200176Y151323D01*
X200508Y152125D01*
Y152993D01*
X200176Y153795D01*
X199562Y154408D01*
X198760Y154740D01*
D02*
G37*
G36*
X192658D02*
X191790D01*
X190989Y154408D01*
X190375Y153795D01*
X190043Y152993D01*
Y152125D01*
X190375Y151323D01*
X190989Y150710D01*
X191790Y150378D01*
X192658D01*
X193460Y150710D01*
X194073Y151323D01*
X194405Y152125D01*
Y152993D01*
X194073Y153795D01*
X193460Y154408D01*
X192658Y154740D01*
D02*
G37*
G36*
X491438Y178200D02*
X490562D01*
X489754Y177865D01*
X489135Y177246D01*
X488800Y176438D01*
Y175562D01*
X489135Y174754D01*
X489754Y174135D01*
X490562Y173800D01*
X491438D01*
X491865Y173977D01*
X497162D01*
X520958Y150181D01*
X521135Y149754D01*
X521754Y149135D01*
X522562Y148800D01*
X523438D01*
X523865Y148977D01*
X567135D01*
X567562Y148800D01*
X568438D01*
X569246Y149135D01*
X569865Y149754D01*
X570200Y150562D01*
Y151438D01*
X569865Y152246D01*
X569246Y152865D01*
X568438Y153200D01*
X567562D01*
X567135Y153023D01*
X523865D01*
X523819Y153042D01*
X499431Y177431D01*
X498774Y177869D01*
X498000Y178023D01*
X491865D01*
X491438Y178200D01*
D02*
G37*
G36*
X602796Y151787D02*
X601929D01*
X601127Y151455D01*
X600514Y150842D01*
X600181Y150040D01*
Y149172D01*
X600514Y148371D01*
X601127Y147757D01*
X601929Y147425D01*
X602796D01*
X603598Y147757D01*
X604212Y148371D01*
X604544Y149172D01*
Y150040D01*
X604212Y150842D01*
X603598Y151455D01*
X602796Y151787D01*
D02*
G37*
G36*
X594922D02*
X594055D01*
X593253Y151455D01*
X592639Y150842D01*
X592307Y150040D01*
Y149172D01*
X592639Y148371D01*
X593253Y147757D01*
X594055Y147425D01*
X594922D01*
X595724Y147757D01*
X596338Y148371D01*
X596670Y149172D01*
Y150040D01*
X596338Y150842D01*
X595724Y151455D01*
X594922Y151787D01*
D02*
G37*
G36*
X587048D02*
X586181D01*
X585379Y151455D01*
X584765Y150842D01*
X584433Y150040D01*
Y149172D01*
X584765Y148371D01*
X585379Y147757D01*
X586181Y147425D01*
X587048D01*
X587850Y147757D01*
X588463Y148371D01*
X588796Y149172D01*
Y150040D01*
X588463Y150842D01*
X587850Y151455D01*
X587048Y151787D01*
D02*
G37*
G36*
X579174D02*
X578307D01*
X577505Y151455D01*
X576891Y150842D01*
X576559Y150040D01*
Y149172D01*
X576891Y148371D01*
X577505Y147757D01*
X578307Y147425D01*
X579174D01*
X579976Y147757D01*
X580589Y148371D01*
X580922Y149172D01*
Y150040D01*
X580589Y150842D01*
X579976Y151455D01*
X579174Y151787D01*
D02*
G37*
G36*
X516182D02*
X515314D01*
X514513Y151455D01*
X513899Y150842D01*
X513567Y150040D01*
Y149172D01*
X513899Y148371D01*
X514513Y147757D01*
X515314Y147425D01*
X516182D01*
X516984Y147757D01*
X517597Y148371D01*
X517929Y149172D01*
Y150040D01*
X517597Y150842D01*
X516984Y151455D01*
X516182Y151787D01*
D02*
G37*
G36*
X508308D02*
X507440D01*
X506639Y151455D01*
X506025Y150842D01*
X505693Y150040D01*
Y149172D01*
X506025Y148371D01*
X506639Y147757D01*
X507440Y147425D01*
X508308D01*
X509110Y147757D01*
X509723Y148371D01*
X510055Y149172D01*
Y150040D01*
X509723Y150842D01*
X509110Y151455D01*
X508308Y151787D01*
D02*
G37*
G36*
X500434D02*
X499566D01*
X498765Y151455D01*
X498151Y150842D01*
X497819Y150040D01*
Y149172D01*
X498151Y148371D01*
X498765Y147757D01*
X499566Y147425D01*
X500434D01*
X501236Y147757D01*
X501849Y148371D01*
X502181Y149172D01*
Y150040D01*
X501849Y150842D01*
X501236Y151455D01*
X500434Y151787D01*
D02*
G37*
G36*
X492560D02*
X491692D01*
X490891Y151455D01*
X490277Y150842D01*
X489945Y150040D01*
Y149172D01*
X490277Y148371D01*
X490891Y147757D01*
X491692Y147425D01*
X492560D01*
X493362Y147757D01*
X493975Y148371D01*
X494307Y149172D01*
Y150040D01*
X493975Y150842D01*
X493362Y151455D01*
X492560Y151787D01*
D02*
G37*
G36*
X559489Y143913D02*
X558622D01*
X557820Y143581D01*
X557206Y142968D01*
X556874Y142166D01*
Y141298D01*
X557206Y140497D01*
X557820Y139883D01*
X558622Y139551D01*
X559489D01*
X560291Y139883D01*
X560905Y140497D01*
X561236Y141298D01*
Y142166D01*
X560905Y142968D01*
X560291Y143581D01*
X559489Y143913D01*
D02*
G37*
G36*
X512245D02*
X511377D01*
X510576Y143581D01*
X509962Y142968D01*
X509630Y142166D01*
Y141298D01*
X509962Y140497D01*
X510576Y139883D01*
X511377Y139551D01*
X512245D01*
X513047Y139883D01*
X513660Y140497D01*
X513992Y141298D01*
Y142166D01*
X513660Y142968D01*
X513047Y143581D01*
X512245Y143913D01*
D02*
G37*
G36*
X504371D02*
X503503D01*
X502702Y143581D01*
X502088Y142968D01*
X501756Y142166D01*
Y141298D01*
X502088Y140497D01*
X502702Y139883D01*
X503503Y139551D01*
X504371D01*
X505173Y139883D01*
X505786Y140497D01*
X506118Y141298D01*
Y142166D01*
X505786Y142968D01*
X505173Y143581D01*
X504371Y143913D01*
D02*
G37*
G36*
X496497D02*
X495629D01*
X494828Y143581D01*
X494214Y142968D01*
X493882Y142166D01*
Y141298D01*
X494214Y140497D01*
X494828Y139883D01*
X495629Y139551D01*
X496497D01*
X497299Y139883D01*
X497912Y140497D01*
X498244Y141298D01*
Y142166D01*
X497912Y142968D01*
X497299Y143581D01*
X496497Y143913D01*
D02*
G37*
G36*
X488623D02*
X487755D01*
X486954Y143581D01*
X486340Y142968D01*
X486008Y142166D01*
Y141298D01*
X486340Y140497D01*
X486954Y139883D01*
X487755Y139551D01*
X488623D01*
X489425Y139883D01*
X490038Y140497D01*
X490370Y141298D01*
Y142166D01*
X490038Y142968D01*
X489425Y143581D01*
X488623Y143913D01*
D02*
G37*
G36*
X402009Y139976D02*
X401141D01*
X400340Y139644D01*
X399726Y139031D01*
X399394Y138229D01*
Y137362D01*
X399726Y136560D01*
X400340Y135946D01*
X401141Y135614D01*
X402009D01*
X402810Y135946D01*
X403424Y136560D01*
X403756Y137362D01*
Y138229D01*
X403424Y139031D01*
X402810Y139644D01*
X402009Y139976D01*
D02*
G37*
G36*
X563426Y136039D02*
X562559D01*
X561757Y135707D01*
X561143Y135094D01*
X560811Y134292D01*
Y133424D01*
X561143Y132623D01*
X561757Y132009D01*
X562559Y131677D01*
X563426D01*
X564228Y132009D01*
X564842Y132623D01*
X565173Y133424D01*
Y134292D01*
X564842Y135094D01*
X564228Y135707D01*
X563426Y136039D01*
D02*
G37*
G36*
X516182D02*
X515314D01*
X514513Y135707D01*
X513899Y135094D01*
X513567Y134292D01*
Y133424D01*
X513899Y132623D01*
X514513Y132009D01*
X515314Y131677D01*
X516182D01*
X516984Y132009D01*
X517597Y132623D01*
X517929Y133424D01*
Y134292D01*
X517597Y135094D01*
X516984Y135707D01*
X516182Y136039D01*
D02*
G37*
G36*
X508308D02*
X507440D01*
X506639Y135707D01*
X506025Y135094D01*
X505693Y134292D01*
Y133424D01*
X506025Y132623D01*
X506639Y132009D01*
X507440Y131677D01*
X508308D01*
X509110Y132009D01*
X509723Y132623D01*
X510055Y133424D01*
Y134292D01*
X509723Y135094D01*
X509110Y135707D01*
X508308Y136039D01*
D02*
G37*
G36*
X402009Y132102D02*
X401141D01*
X400340Y131770D01*
X399726Y131157D01*
X399394Y130355D01*
Y129488D01*
X399726Y128686D01*
X400340Y128072D01*
X401141Y127740D01*
X402009D01*
X402810Y128072D01*
X403424Y128686D01*
X403756Y129488D01*
Y130355D01*
X403424Y131157D01*
X402810Y131770D01*
X402009Y132102D01*
D02*
G37*
G36*
X370513D02*
X369645D01*
X368843Y131770D01*
X368230Y131157D01*
X367898Y130355D01*
Y129488D01*
X368230Y128686D01*
X368843Y128072D01*
X369645Y127740D01*
X370513D01*
X371314Y128072D01*
X371928Y128686D01*
X372260Y129488D01*
Y130355D01*
X371928Y131157D01*
X371314Y131770D01*
X370513Y132102D01*
D02*
G37*
G36*
X360670Y132102D02*
X359802D01*
X359001Y131770D01*
X358387Y131157D01*
X358055Y130355D01*
Y129487D01*
X358387Y128686D01*
X359001Y128072D01*
X359802Y127740D01*
X360670D01*
X361472Y128072D01*
X362085Y128686D01*
X362417Y129487D01*
Y130355D01*
X362085Y131157D01*
X361472Y131770D01*
X360670Y132102D01*
D02*
G37*
G36*
X598859Y128165D02*
X597992D01*
X597190Y127833D01*
X596576Y127220D01*
X596244Y126418D01*
Y125550D01*
X596576Y124749D01*
X597190Y124135D01*
X597992Y123803D01*
X598859D01*
X599661Y124135D01*
X600275Y124749D01*
X600607Y125550D01*
Y126418D01*
X600275Y127220D01*
X599661Y127833D01*
X598859Y128165D01*
D02*
G37*
G36*
X590985D02*
X590118D01*
X589316Y127833D01*
X588702Y127220D01*
X588370Y126418D01*
Y125550D01*
X588702Y124749D01*
X589316Y124135D01*
X590118Y123803D01*
X590985D01*
X591787Y124135D01*
X592401Y124749D01*
X592733Y125550D01*
Y126418D01*
X592401Y127220D01*
X591787Y127833D01*
X590985Y128165D01*
D02*
G37*
G36*
X583111D02*
X582244D01*
X581442Y127833D01*
X580828Y127220D01*
X580496Y126418D01*
Y125550D01*
X580828Y124749D01*
X581442Y124135D01*
X582244Y123803D01*
X583111D01*
X583913Y124135D01*
X584526Y124749D01*
X584859Y125550D01*
Y126418D01*
X584526Y127220D01*
X583913Y127833D01*
X583111Y128165D01*
D02*
G37*
G36*
X575237D02*
X574370D01*
X573568Y127833D01*
X572954Y127220D01*
X572622Y126418D01*
Y125550D01*
X572954Y124749D01*
X573568Y124135D01*
X574370Y123803D01*
X575237D01*
X576039Y124135D01*
X576652Y124749D01*
X576985Y125550D01*
Y126418D01*
X576652Y127220D01*
X576039Y127833D01*
X575237Y128165D01*
D02*
G37*
G36*
X567363D02*
X566496D01*
X565694Y127833D01*
X565080Y127220D01*
X564748Y126418D01*
Y125550D01*
X565080Y124749D01*
X565694Y124135D01*
X566496Y123803D01*
X567363D01*
X568165Y124135D01*
X568779Y124749D01*
X569110Y125550D01*
Y126418D01*
X568779Y127220D01*
X568165Y127833D01*
X567363Y128165D01*
D02*
G37*
G36*
X559489D02*
X558622D01*
X557820Y127833D01*
X557206Y127220D01*
X556874Y126418D01*
Y125550D01*
X557206Y124749D01*
X557820Y124135D01*
X558622Y123803D01*
X559489D01*
X560291Y124135D01*
X560905Y124749D01*
X561236Y125550D01*
Y126418D01*
X560905Y127220D01*
X560291Y127833D01*
X559489Y128165D01*
D02*
G37*
G36*
X551615D02*
X550747D01*
X549946Y127833D01*
X549332Y127220D01*
X549000Y126418D01*
Y125550D01*
X549332Y124749D01*
X549946Y124135D01*
X550747Y123803D01*
X551615D01*
X552417Y124135D01*
X553030Y124749D01*
X553363Y125550D01*
Y126418D01*
X553030Y127220D01*
X552417Y127833D01*
X551615Y128165D01*
D02*
G37*
G36*
X543741D02*
X542873D01*
X542072Y127833D01*
X541458Y127220D01*
X541126Y126418D01*
Y125550D01*
X541458Y124749D01*
X542072Y124135D01*
X542873Y123803D01*
X543741D01*
X544543Y124135D01*
X545156Y124749D01*
X545489Y125550D01*
Y126418D01*
X545156Y127220D01*
X544543Y127833D01*
X543741Y128165D01*
D02*
G37*
G36*
X535867D02*
X535000D01*
X534198Y127833D01*
X533584Y127220D01*
X533252Y126418D01*
Y125550D01*
X533584Y124749D01*
X534198Y124135D01*
X535000Y123803D01*
X535867D01*
X536669Y124135D01*
X537282Y124749D01*
X537614Y125550D01*
Y126418D01*
X537282Y127220D01*
X536669Y127833D01*
X535867Y128165D01*
D02*
G37*
G36*
X527993D02*
X527126D01*
X526324Y127833D01*
X525710Y127220D01*
X525378Y126418D01*
Y125550D01*
X525710Y124749D01*
X526324Y124135D01*
X527126Y123803D01*
X527993D01*
X528795Y124135D01*
X529408Y124749D01*
X529740Y125550D01*
Y126418D01*
X529408Y127220D01*
X528795Y127833D01*
X527993Y128165D01*
D02*
G37*
G36*
X520119D02*
X519251D01*
X518450Y127833D01*
X517836Y127220D01*
X517504Y126418D01*
Y125550D01*
X517836Y124749D01*
X518450Y124135D01*
X519251Y123803D01*
X520119D01*
X520921Y124135D01*
X521534Y124749D01*
X521866Y125550D01*
Y126418D01*
X521534Y127220D01*
X520921Y127833D01*
X520119Y128165D01*
D02*
G37*
G36*
X512245D02*
X511377D01*
X510576Y127833D01*
X509962Y127220D01*
X509630Y126418D01*
Y125550D01*
X509962Y124749D01*
X510576Y124135D01*
X511377Y123803D01*
X512245D01*
X513047Y124135D01*
X513660Y124749D01*
X513992Y125550D01*
Y126418D01*
X513660Y127220D01*
X513047Y127833D01*
X512245Y128165D01*
D02*
G37*
G36*
X488623D02*
X487755D01*
X486954Y127833D01*
X486340Y127220D01*
X486008Y126418D01*
Y125550D01*
X486340Y124749D01*
X486954Y124135D01*
X487755Y123803D01*
X488623D01*
X489425Y124135D01*
X490038Y124749D01*
X490370Y125550D01*
Y126418D01*
X490038Y127220D01*
X489425Y127833D01*
X488623Y128165D01*
D02*
G37*
G36*
X468938Y139976D02*
X468070D01*
X467269Y139644D01*
X466655Y139031D01*
X466323Y138229D01*
Y137362D01*
X466655Y136560D01*
X466676Y136539D01*
X466468Y136039D01*
X466102D01*
X465300Y135707D01*
X464687Y135094D01*
X464355Y134292D01*
Y133424D01*
X464687Y132623D01*
X465093Y132217D01*
X465244Y131889D01*
X465093Y131563D01*
X464686Y131157D01*
X464354Y130355D01*
Y129487D01*
X464686Y128686D01*
X465093Y128279D01*
X465244Y127953D01*
X465093Y127626D01*
X464687Y127220D01*
X464355Y126418D01*
Y125550D01*
X464687Y124749D01*
X465300Y124135D01*
X466102Y123803D01*
X466969D01*
X467771Y124135D01*
X468385Y124749D01*
X468717Y125550D01*
Y126418D01*
X468385Y127220D01*
X468364Y127240D01*
X468571Y127740D01*
X468938D01*
X469740Y128072D01*
X470353Y128686D01*
X470685Y129488D01*
Y130355D01*
X470353Y131157D01*
X469740Y131770D01*
X468938Y132102D01*
X468571D01*
X468364Y132602D01*
X468385Y132623D01*
X468717Y133424D01*
Y134292D01*
X468385Y135094D01*
X468364Y135114D01*
X468571Y135614D01*
X468938D01*
X469740Y135946D01*
X470353Y136560D01*
X470685Y137362D01*
Y138229D01*
X470353Y139031D01*
X469740Y139644D01*
X468938Y139976D01*
D02*
G37*
G36*
X451222Y136039D02*
X450354D01*
X449552Y135707D01*
X448939Y135094D01*
X448606Y134292D01*
Y133424D01*
X448939Y132623D01*
X449552Y132009D01*
X450354Y131677D01*
X450720D01*
X450927Y131177D01*
X450907Y131157D01*
X450575Y130355D01*
Y129488D01*
X450907Y128686D01*
X450927Y128665D01*
X450720Y128165D01*
X450354D01*
X449552Y127833D01*
X448939Y127220D01*
X448606Y126418D01*
Y125550D01*
X448939Y124749D01*
X449552Y124135D01*
X450354Y123803D01*
X451222D01*
X452023Y124135D01*
X452637Y124749D01*
X452969Y125550D01*
Y126418D01*
X452637Y127220D01*
X452616Y127240D01*
X452823Y127740D01*
X453190D01*
X453992Y128072D01*
X454605Y128686D01*
X454937Y129488D01*
Y130355D01*
X454605Y131157D01*
X453992Y131770D01*
X453190Y132102D01*
X452823D01*
X452616Y132602D01*
X452637Y132623D01*
X452969Y133424D01*
Y134292D01*
X452637Y135094D01*
X452023Y135707D01*
X451222Y136039D01*
D02*
G37*
G36*
X302965Y130937D02*
X301665D01*
X300409Y130601D01*
X299283Y129951D01*
X298364Y129031D01*
X297714Y127906D01*
X297378Y126650D01*
Y125350D01*
X297714Y124094D01*
X298364Y122969D01*
X299283Y122049D01*
X300409Y121399D01*
X301665Y121063D01*
X302965D01*
X304220Y121399D01*
X305346Y122049D01*
X306265Y122969D01*
X306915Y124094D01*
X307252Y125350D01*
Y126650D01*
X306915Y127906D01*
X306265Y129031D01*
X305346Y129951D01*
X304220Y130601D01*
X302965Y130937D01*
D02*
G37*
G36*
X547678Y120291D02*
X546810D01*
X546009Y119959D01*
X545395Y119346D01*
X545063Y118544D01*
Y117676D01*
X545395Y116875D01*
X546009Y116261D01*
X546810Y115929D01*
X547678D01*
X548480Y116261D01*
X549093Y116875D01*
X549426Y117676D01*
Y118544D01*
X549093Y119346D01*
X548480Y119959D01*
X547678Y120291D01*
D02*
G37*
G36*
X539804D02*
X538937D01*
X538135Y119959D01*
X537521Y119346D01*
X537189Y118544D01*
Y117676D01*
X537521Y116875D01*
X538135Y116261D01*
X538937Y115929D01*
X539804D01*
X540606Y116261D01*
X541219Y116875D01*
X541551Y117676D01*
Y118544D01*
X541219Y119346D01*
X540606Y119959D01*
X539804Y120291D01*
D02*
G37*
G36*
X531930D02*
X531063D01*
X530261Y119959D01*
X529647Y119346D01*
X529315Y118544D01*
Y117676D01*
X529647Y116875D01*
X530261Y116261D01*
X531063Y115929D01*
X531930D01*
X532732Y116261D01*
X533345Y116875D01*
X533677Y117676D01*
Y118544D01*
X533345Y119346D01*
X532732Y119959D01*
X531930Y120291D01*
D02*
G37*
G36*
X524056D02*
X523188D01*
X522387Y119959D01*
X521773Y119346D01*
X521441Y118544D01*
Y117676D01*
X521773Y116875D01*
X522387Y116261D01*
X523188Y115929D01*
X524056D01*
X524858Y116261D01*
X525471Y116875D01*
X525803Y117676D01*
Y118544D01*
X525471Y119346D01*
X524858Y119959D01*
X524056Y120291D01*
D02*
G37*
G36*
X516182D02*
X515314D01*
X514513Y119959D01*
X513899Y119346D01*
X513567Y118544D01*
Y117676D01*
X513899Y116875D01*
X514513Y116261D01*
X515314Y115929D01*
X516182D01*
X516984Y116261D01*
X517597Y116875D01*
X517929Y117676D01*
Y118544D01*
X517597Y119346D01*
X516984Y119959D01*
X516182Y120291D01*
D02*
G37*
G36*
X508308D02*
X507440D01*
X506639Y119959D01*
X506025Y119346D01*
X505693Y118544D01*
Y117676D01*
X506025Y116875D01*
X506639Y116261D01*
X507440Y115929D01*
X508308D01*
X509110Y116261D01*
X509723Y116875D01*
X510055Y117676D01*
Y118544D01*
X509723Y119346D01*
X509110Y119959D01*
X508308Y120291D01*
D02*
G37*
G36*
X500434D02*
X499566D01*
X498765Y119959D01*
X498151Y119346D01*
X497819Y118544D01*
Y117676D01*
X498151Y116875D01*
X498765Y116261D01*
X499566Y115929D01*
X500434D01*
X501236Y116261D01*
X501849Y116875D01*
X502181Y117676D01*
Y118544D01*
X501849Y119346D01*
X501236Y119959D01*
X500434Y120291D01*
D02*
G37*
G36*
X492560D02*
X491692D01*
X490891Y119959D01*
X490277Y119346D01*
X489945Y118544D01*
Y117676D01*
X490277Y116875D01*
X490891Y116261D01*
X491692Y115929D01*
X492560D01*
X493362Y116261D01*
X493975Y116875D01*
X494307Y117676D01*
Y118544D01*
X493975Y119346D01*
X493362Y119959D01*
X492560Y120291D01*
D02*
G37*
G36*
X366576Y120291D02*
X365708D01*
X364906Y119959D01*
X364293Y119346D01*
X363961Y118544D01*
Y117676D01*
X364293Y116875D01*
X364906Y116261D01*
X365708Y115929D01*
X366576D01*
X367377Y116261D01*
X367991Y116875D01*
X368323Y117676D01*
Y118544D01*
X367991Y119346D01*
X367377Y119959D01*
X366576Y120291D01*
D02*
G37*
G36*
X354764D02*
X353897D01*
X353095Y119959D01*
X352482Y119346D01*
X352150Y118544D01*
Y117676D01*
X352482Y116875D01*
X353095Y116261D01*
X353897Y115929D01*
X354764D01*
X355566Y116261D01*
X356180Y116875D01*
X356512Y117676D01*
Y118544D01*
X356180Y119346D01*
X355566Y119959D01*
X354764Y120291D01*
D02*
G37*
G36*
X342953D02*
X342086D01*
X341284Y119959D01*
X340670Y119346D01*
X340338Y118544D01*
Y117676D01*
X340670Y116875D01*
X341284Y116261D01*
X342086Y115929D01*
X342953D01*
X343755Y116261D01*
X344369Y116875D01*
X344701Y117676D01*
Y118544D01*
X344369Y119346D01*
X343755Y119959D01*
X342953Y120291D01*
D02*
G37*
G36*
X331142D02*
X330275D01*
X329473Y119959D01*
X328859Y119346D01*
X328527Y118544D01*
Y117676D01*
X328859Y116875D01*
X329473Y116261D01*
X330275Y115929D01*
X331142D01*
X331944Y116261D01*
X332558Y116875D01*
X332890Y117676D01*
Y118544D01*
X332558Y119346D01*
X331944Y119959D01*
X331142Y120291D01*
D02*
G37*
G36*
X319331D02*
X318464D01*
X317662Y119959D01*
X317049Y119346D01*
X316716Y118544D01*
Y117676D01*
X317049Y116875D01*
X317662Y116261D01*
X318464Y115929D01*
X319331D01*
X320133Y116261D01*
X320747Y116875D01*
X321079Y117676D01*
Y118544D01*
X320747Y119346D01*
X320133Y119959D01*
X319331Y120291D01*
D02*
G37*
G36*
X307520D02*
X306653D01*
X305851Y119959D01*
X305238Y119346D01*
X304905Y118544D01*
Y117676D01*
X305238Y116875D01*
X305851Y116261D01*
X306653Y115929D01*
X307520D01*
X308322Y116261D01*
X308936Y116875D01*
X309268Y117676D01*
Y118544D01*
X308936Y119346D01*
X308322Y119959D01*
X307520Y120291D01*
D02*
G37*
G36*
X295709D02*
X294842D01*
X294040Y119959D01*
X293426Y119346D01*
X293094Y118544D01*
Y117676D01*
X293426Y116875D01*
X294040Y116261D01*
X294842Y115929D01*
X295709D01*
X296511Y116261D01*
X297125Y116875D01*
X297457Y117676D01*
Y118544D01*
X297125Y119346D01*
X296511Y119959D01*
X295709Y120291D01*
D02*
G37*
G36*
X596239Y116591D02*
X595161D01*
X594121Y116312D01*
X593188Y115773D01*
X593133Y115718D01*
X593035Y115676D01*
X592785Y115648D01*
X592486Y115714D01*
X592367Y115773D01*
X592256Y115848D01*
X592190Y115861D01*
X592129Y115890D01*
X591996Y115899D01*
X591865Y115925D01*
X555386D01*
X554996Y115848D01*
X554665Y115627D01*
X554444Y115296D01*
X554366Y114906D01*
Y98270D01*
X554444Y97880D01*
X554665Y97549D01*
X554696Y96927D01*
X532627Y74858D01*
X522518D01*
X522091Y75035D01*
X521216D01*
X520407Y74700D01*
X519789Y74081D01*
X519453Y73272D01*
Y72397D01*
X519789Y71588D01*
X520407Y70970D01*
X521216Y70635D01*
X522091D01*
X522518Y70811D01*
X533414D01*
X533677Y70571D01*
X533800Y70368D01*
Y69562D01*
X534135Y68754D01*
X534754Y68135D01*
X535562Y67800D01*
X536438D01*
X537246Y68135D01*
X537865Y68754D01*
X538042Y69181D01*
X545838Y76977D01*
X554366D01*
Y74858D01*
X550077D01*
X549650Y75035D01*
X548775D01*
X547966Y74700D01*
X547347Y74081D01*
X547171Y73654D01*
X537826Y64309D01*
X524487D01*
X524060Y64486D01*
X523184D01*
X522376Y64151D01*
X521757Y63532D01*
X521422Y62724D01*
Y61848D01*
X521757Y61040D01*
X522376Y60421D01*
X523184Y60086D01*
X524060D01*
X524487Y60263D01*
X538664D01*
X539438Y60417D01*
X540095Y60855D01*
X550032Y70793D01*
X550077Y70811D01*
X554366D01*
Y67905D01*
X554444Y67515D01*
X554665Y67185D01*
X554996Y66963D01*
X555386Y66886D01*
X572218D01*
X572608Y66963D01*
X572938Y67185D01*
X573561Y67216D01*
X581968Y58808D01*
X582145Y58381D01*
X582763Y57763D01*
X583572Y57428D01*
X584447D01*
X585256Y57763D01*
X585875Y58381D01*
X586210Y59190D01*
Y60065D01*
X585875Y60874D01*
X585256Y61493D01*
X584829Y61670D01*
X580075Y66424D01*
X580266Y66886D01*
X612886D01*
X613276Y66963D01*
X613607Y67185D01*
X613828Y67515D01*
X613905Y67905D01*
Y114906D01*
X613828Y115296D01*
X613607Y115627D01*
X613276Y115848D01*
X612886Y115925D01*
X599535D01*
X599404Y115899D01*
X599271Y115890D01*
X599210Y115861D01*
X599144Y115848D01*
X599033Y115773D01*
X598914Y115714D01*
X598615Y115648D01*
X598365Y115676D01*
X598267Y115718D01*
X598212Y115773D01*
X597279Y116312D01*
X596239Y116591D01*
D02*
G37*
G36*
X261796Y121791D02*
X260719D01*
X259679Y121512D01*
X258746Y120973D01*
X257985Y120212D01*
X257446Y119279D01*
X257167Y118238D01*
Y117162D01*
X257446Y116121D01*
X257985Y115188D01*
X258746Y114427D01*
X259679Y113888D01*
X260719Y113609D01*
X261796D01*
X262837Y113888D01*
X263770Y114427D01*
X264531Y115188D01*
X265070Y116121D01*
X265349Y117162D01*
Y118238D01*
X265070Y119279D01*
X264531Y120212D01*
X263770Y120973D01*
X262837Y121512D01*
X261796Y121791D01*
D02*
G37*
G36*
X249417D02*
X248340D01*
X247300Y121512D01*
X246367Y120973D01*
X245606Y120212D01*
X245067Y119279D01*
X244788Y118238D01*
Y117162D01*
X245067Y116121D01*
X245606Y115188D01*
X246367Y114427D01*
X247300Y113888D01*
X248340Y113609D01*
X249417D01*
X250458Y113888D01*
X251391Y114427D01*
X252152Y115188D01*
X252691Y116121D01*
X252970Y117162D01*
Y118238D01*
X252691Y119279D01*
X252152Y120212D01*
X251391Y120973D01*
X250458Y121512D01*
X249417Y121791D01*
D02*
G37*
G36*
X236842D02*
X235765D01*
X234724Y121512D01*
X233791Y120973D01*
X233030Y120212D01*
X232491Y119279D01*
X232212Y118238D01*
Y117162D01*
X232491Y116121D01*
X233030Y115188D01*
X233791Y114427D01*
X234724Y113888D01*
X235765Y113609D01*
X236842D01*
X237882Y113888D01*
X238815Y114427D01*
X239576Y115188D01*
X240115Y116121D01*
X240394Y117162D01*
Y118238D01*
X240115Y119279D01*
X239576Y120212D01*
X238815Y120973D01*
X237882Y121512D01*
X236842Y121791D01*
D02*
G37*
G36*
X170814D02*
X169737D01*
X168697Y121512D01*
X167764Y120973D01*
X167002Y120212D01*
X166464Y119279D01*
X166185Y118238D01*
Y117162D01*
X166464Y116121D01*
X167002Y115188D01*
X167764Y114427D01*
X168697Y113888D01*
X169737Y113609D01*
X170814D01*
X171854Y113888D01*
X172787Y114427D01*
X173549Y115188D01*
X174087Y116121D01*
X174366Y117162D01*
Y118238D01*
X174087Y119279D01*
X173549Y120212D01*
X172787Y120973D01*
X171854Y121512D01*
X170814Y121791D01*
D02*
G37*
G36*
X543741Y112417D02*
X542873D01*
X542072Y112085D01*
X541458Y111472D01*
X541126Y110670D01*
Y109802D01*
X541458Y109001D01*
X542072Y108387D01*
X542873Y108055D01*
X543741D01*
X544543Y108387D01*
X545156Y109001D01*
X545489Y109802D01*
Y110670D01*
X545156Y111472D01*
X544543Y112085D01*
X543741Y112417D01*
D02*
G37*
G36*
X535867D02*
X535000D01*
X534198Y112085D01*
X533584Y111472D01*
X533252Y110670D01*
Y109802D01*
X533584Y109001D01*
X534198Y108387D01*
X535000Y108055D01*
X535867D01*
X536669Y108387D01*
X537282Y109001D01*
X537614Y109802D01*
Y110670D01*
X537282Y111472D01*
X536669Y112085D01*
X535867Y112417D01*
D02*
G37*
G36*
X527993D02*
X527126D01*
X526324Y112085D01*
X525710Y111472D01*
X525378Y110670D01*
Y109802D01*
X525710Y109001D01*
X526324Y108387D01*
X527126Y108055D01*
X527993D01*
X528795Y108387D01*
X529408Y109001D01*
X529740Y109802D01*
Y110670D01*
X529408Y111472D01*
X528795Y112085D01*
X527993Y112417D01*
D02*
G37*
G36*
X520119D02*
X519251D01*
X518450Y112085D01*
X517836Y111472D01*
X517504Y110670D01*
Y109802D01*
X517836Y109001D01*
X518450Y108387D01*
X519251Y108055D01*
X520119D01*
X520921Y108387D01*
X521534Y109001D01*
X521866Y109802D01*
Y110670D01*
X521534Y111472D01*
X520921Y112085D01*
X520119Y112417D01*
D02*
G37*
G36*
X512245D02*
X511377D01*
X510576Y112085D01*
X509962Y111472D01*
X509630Y110670D01*
Y109802D01*
X509962Y109001D01*
X510576Y108387D01*
X511377Y108055D01*
X512245D01*
X513047Y108387D01*
X513660Y109001D01*
X513992Y109802D01*
Y110670D01*
X513660Y111472D01*
X513047Y112085D01*
X512245Y112417D01*
D02*
G37*
G36*
X504371D02*
X503503D01*
X502702Y112085D01*
X502088Y111472D01*
X501756Y110670D01*
Y109802D01*
X502088Y109001D01*
X502702Y108387D01*
X503503Y108055D01*
X504371D01*
X505173Y108387D01*
X505786Y109001D01*
X506118Y109802D01*
Y110670D01*
X505786Y111472D01*
X505173Y112085D01*
X504371Y112417D01*
D02*
G37*
G36*
X496497D02*
X495629D01*
X494828Y112085D01*
X494214Y111472D01*
X493882Y110670D01*
Y109802D01*
X494214Y109001D01*
X494828Y108387D01*
X495629Y108055D01*
X496497D01*
X497299Y108387D01*
X497912Y109001D01*
X498244Y109802D01*
Y110670D01*
X497912Y111472D01*
X497299Y112085D01*
X496497Y112417D01*
D02*
G37*
G36*
X488623D02*
X487755D01*
X486954Y112085D01*
X486340Y111472D01*
X486008Y110670D01*
Y109802D01*
X486340Y109001D01*
X486954Y108387D01*
X487755Y108055D01*
X488623D01*
X489425Y108387D01*
X490038Y109001D01*
X490370Y109802D01*
Y110670D01*
X490038Y111472D01*
X489425Y112085D01*
X488623Y112417D01*
D02*
G37*
G36*
X128390Y109200D02*
X127515D01*
X126707Y108865D01*
X126088Y108246D01*
X125753Y107438D01*
Y106562D01*
X126088Y105754D01*
X126707Y105135D01*
X127515Y104800D01*
X128390D01*
X129199Y105135D01*
X129818Y105754D01*
X130153Y106562D01*
Y107438D01*
X129818Y108246D01*
X129199Y108865D01*
X128390Y109200D01*
D02*
G37*
G36*
X360670Y108480D02*
X359802D01*
X359001Y108148D01*
X358387Y107535D01*
X358055Y106733D01*
Y105865D01*
X358387Y105064D01*
X359001Y104450D01*
X359802Y104118D01*
X360670D01*
X361472Y104450D01*
X362085Y105064D01*
X362417Y105865D01*
Y106733D01*
X362085Y107535D01*
X361472Y108148D01*
X360670Y108480D01*
D02*
G37*
G36*
X348859D02*
X347991D01*
X347190Y108148D01*
X346576Y107535D01*
X346244Y106733D01*
Y105865D01*
X346576Y105064D01*
X347190Y104450D01*
X347991Y104118D01*
X348859D01*
X349661Y104450D01*
X350274Y105064D01*
X350606Y105865D01*
Y106733D01*
X350274Y107535D01*
X349661Y108148D01*
X348859Y108480D01*
D02*
G37*
G36*
X337048D02*
X336180D01*
X335379Y108148D01*
X334765Y107535D01*
X334433Y106733D01*
Y105865D01*
X334765Y105064D01*
X335379Y104450D01*
X336180Y104118D01*
X337048D01*
X337850Y104450D01*
X338463Y105064D01*
X338795Y105865D01*
Y106733D01*
X338463Y107535D01*
X337850Y108148D01*
X337048Y108480D01*
D02*
G37*
G36*
X325237D02*
X324369D01*
X323568Y108148D01*
X322954Y107535D01*
X322622Y106733D01*
Y105865D01*
X322954Y105064D01*
X323568Y104450D01*
X324369Y104118D01*
X325237D01*
X326039Y104450D01*
X326652Y105064D01*
X326984Y105865D01*
Y106733D01*
X326652Y107535D01*
X326039Y108148D01*
X325237Y108480D01*
D02*
G37*
G36*
X313426D02*
X312558D01*
X311756Y108148D01*
X311143Y107535D01*
X310811Y106733D01*
Y105865D01*
X311143Y105064D01*
X311756Y104450D01*
X312558Y104118D01*
X313426D01*
X314228Y104450D01*
X314841Y105064D01*
X315173Y105865D01*
Y106733D01*
X314841Y107535D01*
X314228Y108148D01*
X313426Y108480D01*
D02*
G37*
G36*
X301615D02*
X300747D01*
X299945Y108148D01*
X299332Y107535D01*
X299000Y106733D01*
Y105865D01*
X299332Y105064D01*
X299945Y104450D01*
X300747Y104118D01*
X301615D01*
X302416Y104450D01*
X303030Y105064D01*
X303362Y105865D01*
Y106733D01*
X303030Y107535D01*
X302416Y108148D01*
X301615Y108480D01*
D02*
G37*
G36*
X289804D02*
X288936D01*
X288135Y108148D01*
X287521Y107535D01*
X287189Y106733D01*
Y105865D01*
X287521Y105064D01*
X288135Y104450D01*
X288936Y104118D01*
X289804D01*
X290605Y104450D01*
X291219Y105064D01*
X291551Y105865D01*
Y106733D01*
X291219Y107535D01*
X290605Y108148D01*
X289804Y108480D01*
D02*
G37*
G36*
X154438Y105200D02*
X153562D01*
X152754Y104865D01*
X152135Y104246D01*
X151800Y103438D01*
Y102562D01*
X152135Y101754D01*
X152754Y101135D01*
X153562Y100800D01*
X154438D01*
X155246Y101135D01*
X155865Y101754D01*
X156200Y102562D01*
Y103438D01*
X155865Y104246D01*
X155246Y104865D01*
X154438Y105200D01*
D02*
G37*
G36*
X524056Y104543D02*
X523188D01*
X522387Y104211D01*
X521773Y103598D01*
X521441Y102796D01*
Y101928D01*
X521773Y101127D01*
X522387Y100513D01*
X523188Y100181D01*
X524056D01*
X524858Y100513D01*
X525471Y101127D01*
X525803Y101928D01*
Y102796D01*
X525471Y103598D01*
X524858Y104211D01*
X524056Y104543D01*
D02*
G37*
G36*
X516182D02*
X515314D01*
X514513Y104211D01*
X513899Y103598D01*
X513567Y102796D01*
Y101928D01*
X513899Y101127D01*
X514513Y100513D01*
X515314Y100181D01*
X516182D01*
X516984Y100513D01*
X517597Y101127D01*
X517929Y101928D01*
Y102796D01*
X517597Y103598D01*
X516984Y104211D01*
X516182Y104543D01*
D02*
G37*
G36*
X508308D02*
X507440D01*
X506639Y104211D01*
X506025Y103598D01*
X505693Y102796D01*
Y101928D01*
X506025Y101127D01*
X506639Y100513D01*
X507440Y100181D01*
X508308D01*
X509110Y100513D01*
X509723Y101127D01*
X510055Y101928D01*
Y102796D01*
X509723Y103598D01*
X509110Y104211D01*
X508308Y104543D01*
D02*
G37*
G36*
X500434D02*
X499566D01*
X498765Y104211D01*
X498151Y103598D01*
X497819Y102796D01*
Y101928D01*
X498151Y101127D01*
X498765Y100513D01*
X499566Y100181D01*
X500434D01*
X501236Y100513D01*
X501849Y101127D01*
X502181Y101928D01*
Y102796D01*
X501849Y103598D01*
X501236Y104211D01*
X500434Y104543D01*
D02*
G37*
G36*
X492560D02*
X491692D01*
X490891Y104211D01*
X490277Y103598D01*
X489945Y102796D01*
Y101928D01*
X490277Y101127D01*
X490891Y100513D01*
X491692Y100181D01*
X492560D01*
X493362Y100513D01*
X493975Y101127D01*
X494307Y101928D01*
Y102796D01*
X493975Y103598D01*
X493362Y104211D01*
X492560Y104543D01*
D02*
G37*
G36*
X478781Y100606D02*
X477913D01*
X477111Y100274D01*
X476498Y99661D01*
X476166Y98859D01*
Y97991D01*
X476498Y97190D01*
X477111Y96576D01*
X477913Y96244D01*
X478781D01*
X479582Y96576D01*
X480196Y97190D01*
X480528Y97991D01*
Y98859D01*
X480196Y99661D01*
X479582Y100274D01*
X478781Y100606D01*
D02*
G37*
G36*
X396103D02*
X395236D01*
X394434Y100274D01*
X393820Y99661D01*
X393488Y98859D01*
Y97991D01*
X393820Y97190D01*
X394434Y96576D01*
X395236Y96244D01*
X396103D01*
X396905Y96576D01*
X397519Y97190D01*
X397851Y97991D01*
Y98859D01*
X397519Y99661D01*
X396905Y100274D01*
X396103Y100606D01*
D02*
G37*
G36*
X527993Y96669D02*
X527126D01*
X526324Y96337D01*
X525710Y95724D01*
X525378Y94922D01*
Y94054D01*
X525710Y93253D01*
X526324Y92639D01*
X527126Y92307D01*
X527993D01*
X528795Y92639D01*
X529408Y93253D01*
X529740Y94054D01*
Y94922D01*
X529408Y95724D01*
X528795Y96337D01*
X527993Y96669D01*
D02*
G37*
G36*
X520119D02*
X519251D01*
X518450Y96337D01*
X517836Y95724D01*
X517504Y94922D01*
Y94054D01*
X517836Y93253D01*
X518450Y92639D01*
X519251Y92307D01*
X520119D01*
X520921Y92639D01*
X521534Y93253D01*
X521866Y94054D01*
Y94922D01*
X521534Y95724D01*
X520921Y96337D01*
X520119Y96669D01*
D02*
G37*
G36*
X512245D02*
X511377D01*
X510576Y96337D01*
X509962Y95724D01*
X509630Y94922D01*
Y94054D01*
X509962Y93253D01*
X510576Y92639D01*
X511377Y92307D01*
X512245D01*
X513047Y92639D01*
X513660Y93253D01*
X513992Y94054D01*
Y94922D01*
X513660Y95724D01*
X513047Y96337D01*
X512245Y96669D01*
D02*
G37*
G36*
X504371D02*
X503503D01*
X502702Y96337D01*
X502088Y95724D01*
X501756Y94922D01*
Y94054D01*
X502088Y93253D01*
X502702Y92639D01*
X503503Y92307D01*
X504371D01*
X505173Y92639D01*
X505786Y93253D01*
X506118Y94054D01*
Y94922D01*
X505786Y95724D01*
X505173Y96337D01*
X504371Y96669D01*
D02*
G37*
G36*
X496497D02*
X495629D01*
X494828Y96337D01*
X494214Y95724D01*
X493882Y94922D01*
Y94054D01*
X494214Y93253D01*
X494828Y92639D01*
X495629Y92307D01*
X496497D01*
X497299Y92639D01*
X497912Y93253D01*
X498244Y94054D01*
Y94922D01*
X497912Y95724D01*
X497299Y96337D01*
X496497Y96669D01*
D02*
G37*
G36*
X488623D02*
X487755D01*
X486954Y96337D01*
X486340Y95724D01*
X486008Y94922D01*
Y94054D01*
X486340Y93253D01*
X486954Y92639D01*
X487755Y92307D01*
X488623D01*
X489425Y92639D01*
X490038Y93253D01*
X490370Y94054D01*
Y94922D01*
X490038Y95724D01*
X489425Y96337D01*
X488623Y96669D01*
D02*
G37*
G36*
X445316D02*
X444448D01*
X443647Y96337D01*
X443033Y95724D01*
X442701Y94922D01*
Y94054D01*
X443033Y93253D01*
X443647Y92639D01*
X444448Y92307D01*
X445316D01*
X446118Y92639D01*
X446731Y93253D01*
X447063Y94054D01*
Y94922D01*
X446731Y95724D01*
X446118Y96337D01*
X445316Y96669D01*
D02*
G37*
G36*
X427599Y100606D02*
X426732D01*
X425930Y100274D01*
X425316Y99661D01*
X424985Y98859D01*
Y97991D01*
X425316Y97190D01*
X425930Y96576D01*
X426732Y96244D01*
X427098D01*
X427306Y95744D01*
X427285Y95724D01*
X426953Y94922D01*
Y94054D01*
X427285Y93253D01*
X427899Y92639D01*
X428700Y92307D01*
X429568D01*
X430370Y92639D01*
X430983Y93253D01*
X431315Y94054D01*
Y94922D01*
X430983Y95724D01*
X430370Y96337D01*
X429568Y96669D01*
X429201D01*
X428994Y97169D01*
X429015Y97190D01*
X429347Y97991D01*
Y98859D01*
X429015Y99661D01*
X428401Y100274D01*
X427599Y100606D01*
D02*
G37*
G36*
X366576Y96669D02*
X365708D01*
X364906Y96337D01*
X364293Y95724D01*
X363961Y94922D01*
Y94054D01*
X364293Y93253D01*
X364906Y92639D01*
X365708Y92307D01*
X366576D01*
X367377Y92639D01*
X367991Y93253D01*
X368323Y94054D01*
Y94922D01*
X367991Y95724D01*
X367377Y96337D01*
X366576Y96669D01*
D02*
G37*
G36*
X354764D02*
X353897D01*
X353095Y96337D01*
X352482Y95724D01*
X352150Y94922D01*
Y94054D01*
X352482Y93253D01*
X353095Y92639D01*
X353897Y92307D01*
X354764D01*
X355566Y92639D01*
X356180Y93253D01*
X356512Y94054D01*
Y94922D01*
X356180Y95724D01*
X355566Y96337D01*
X354764Y96669D01*
D02*
G37*
G36*
X342953D02*
X342086D01*
X341284Y96337D01*
X340670Y95724D01*
X340338Y94922D01*
Y94054D01*
X340670Y93253D01*
X341284Y92639D01*
X342086Y92307D01*
X342953D01*
X343755Y92639D01*
X344369Y93253D01*
X344701Y94054D01*
Y94922D01*
X344369Y95724D01*
X343755Y96337D01*
X342953Y96669D01*
D02*
G37*
G36*
X331142D02*
X330275D01*
X329473Y96337D01*
X328859Y95724D01*
X328527Y94922D01*
Y94054D01*
X328859Y93253D01*
X329473Y92639D01*
X330275Y92307D01*
X331142D01*
X331944Y92639D01*
X332558Y93253D01*
X332890Y94054D01*
Y94922D01*
X332558Y95724D01*
X331944Y96337D01*
X331142Y96669D01*
D02*
G37*
G36*
X319331D02*
X318464D01*
X317662Y96337D01*
X317049Y95724D01*
X316716Y94922D01*
Y94054D01*
X317049Y93253D01*
X317662Y92639D01*
X318464Y92307D01*
X319331D01*
X320133Y92639D01*
X320747Y93253D01*
X321079Y94054D01*
Y94922D01*
X320747Y95724D01*
X320133Y96337D01*
X319331Y96669D01*
D02*
G37*
G36*
X307520D02*
X306653D01*
X305851Y96337D01*
X305238Y95724D01*
X304905Y94922D01*
Y94054D01*
X305238Y93253D01*
X305851Y92639D01*
X306653Y92307D01*
X307520D01*
X308322Y92639D01*
X308936Y93253D01*
X309268Y94054D01*
Y94922D01*
X308936Y95724D01*
X308322Y96337D01*
X307520Y96669D01*
D02*
G37*
G36*
X295709D02*
X294842D01*
X294040Y96337D01*
X293426Y95724D01*
X293094Y94922D01*
Y94054D01*
X293426Y93253D01*
X294040Y92639D01*
X294842Y92307D01*
X295709D01*
X296511Y92639D01*
X297125Y93253D01*
X297457Y94054D01*
Y94922D01*
X297125Y95724D01*
X296511Y96337D01*
X295709Y96669D01*
D02*
G37*
G36*
X396103Y92732D02*
X395236D01*
X394434Y92400D01*
X393820Y91787D01*
X393488Y90985D01*
Y90117D01*
X393820Y89316D01*
X394434Y88702D01*
X395236Y88370D01*
X396103D01*
X396905Y88702D01*
X397519Y89316D01*
X397851Y90117D01*
Y90985D01*
X397519Y91787D01*
X396905Y92400D01*
X396103Y92732D01*
D02*
G37*
G36*
X184594Y91689D02*
X183517D01*
X182476Y91410D01*
X181544Y90872D01*
X180782Y90110D01*
X180243Y89177D01*
X179965Y88137D01*
Y87060D01*
X180243Y86019D01*
X180716Y85200D01*
X180527Y84700D01*
X154408D01*
X153981Y84877D01*
X153106D01*
X152297Y84542D01*
X151678Y83923D01*
X151343Y83115D01*
Y82240D01*
X151471Y81932D01*
X151193Y81516D01*
X141817D01*
X139837Y83496D01*
X139660Y83923D01*
X139041Y84542D01*
X138233Y84877D01*
X137358D01*
X136549Y84542D01*
X135930Y83923D01*
X135595Y83115D01*
Y82240D01*
X135930Y81431D01*
X136549Y80812D01*
X136976Y80635D01*
X139549Y78062D01*
X140205Y77624D01*
X140980Y77470D01*
X180294D01*
X180583Y76970D01*
X180243Y76382D01*
X179965Y75342D01*
Y74265D01*
X180243Y73224D01*
X180782Y72291D01*
X181544Y71530D01*
X182476Y70991D01*
X183517Y70713D01*
X184594D01*
X185634Y70991D01*
X186567Y71530D01*
X187328Y72291D01*
X187867Y73224D01*
X188146Y74265D01*
Y75342D01*
X187867Y76382D01*
X187528Y76970D01*
X187816Y77470D01*
X279655D01*
X280250Y76875D01*
X281058Y76540D01*
X281934D01*
X282742Y76875D01*
X283361Y77494D01*
X283696Y78303D01*
Y79178D01*
X283361Y79986D01*
X282742Y80605D01*
X282116Y80865D01*
X282057Y80923D01*
X281401Y81362D01*
X280627Y81516D01*
X279909D01*
X279632Y81932D01*
X279759Y82240D01*
Y83115D01*
X279424Y83923D01*
X278805Y84542D01*
X277997Y84877D01*
X277121D01*
X276694Y84700D01*
X187583D01*
X187394Y85200D01*
X187867Y86019D01*
X188146Y87060D01*
Y88137D01*
X187867Y89177D01*
X187328Y90110D01*
X186567Y90872D01*
X185634Y91410D01*
X184594Y91689D01*
D02*
G37*
G36*
X461064Y88795D02*
X460196D01*
X459395Y88463D01*
X458781Y87850D01*
X458449Y87048D01*
Y86180D01*
X458781Y85379D01*
X459395Y84765D01*
X460196Y84433D01*
X461064D01*
X461866Y84765D01*
X462479Y85379D01*
X462811Y86180D01*
Y87048D01*
X462479Y87850D01*
X461866Y88463D01*
X461064Y88795D01*
D02*
G37*
G36*
X445316D02*
X444448D01*
X443647Y88463D01*
X443033Y87850D01*
X442701Y87048D01*
Y86180D01*
X443033Y85379D01*
X443647Y84765D01*
X444448Y84433D01*
X445316D01*
X446118Y84765D01*
X446731Y85379D01*
X447063Y86180D01*
Y87048D01*
X446731Y87850D01*
X446118Y88463D01*
X445316Y88795D01*
D02*
G37*
G36*
X429568D02*
X428700D01*
X427899Y88463D01*
X427285Y87850D01*
X426953Y87048D01*
Y86180D01*
X427285Y85379D01*
X427899Y84765D01*
X428700Y84433D01*
X429568D01*
X430370Y84765D01*
X430983Y85379D01*
X431315Y86180D01*
Y87048D01*
X430983Y87850D01*
X430370Y88463D01*
X429568Y88795D01*
D02*
G37*
G36*
X411851Y100606D02*
X410984D01*
X410182Y100274D01*
X409569Y99661D01*
X409236Y98859D01*
Y97991D01*
X409569Y97190D01*
X410182Y96576D01*
X410984Y96244D01*
X411350D01*
X411557Y95744D01*
X411537Y95724D01*
X411205Y94922D01*
Y94054D01*
X411537Y93253D01*
X411557Y93232D01*
X411350Y92732D01*
X410984D01*
X410182Y92400D01*
X409569Y91787D01*
X409236Y90985D01*
Y90117D01*
X409569Y89316D01*
X410182Y88702D01*
X410984Y88370D01*
X411350D01*
X411557Y87870D01*
X411537Y87850D01*
X411205Y87048D01*
Y86180D01*
X411537Y85379D01*
X412151Y84765D01*
X412952Y84433D01*
X413820D01*
X414621Y84765D01*
X415235Y85379D01*
X415567Y86180D01*
Y87048D01*
X415235Y87850D01*
X414621Y88463D01*
X413820Y88795D01*
X413453D01*
X413246Y89295D01*
X413267Y89316D01*
X413599Y90117D01*
Y90985D01*
X413267Y91787D01*
X413246Y91807D01*
X413453Y92307D01*
X413820D01*
X413820Y92307D01*
X413820D01*
X414621Y92639D01*
X415235Y93253D01*
X415567Y94054D01*
Y94922D01*
X415235Y95724D01*
X414621Y96337D01*
X413820Y96669D01*
X413453D01*
X413246Y97169D01*
X413267Y97190D01*
X413599Y97991D01*
Y98859D01*
X413267Y99661D01*
X412653Y100274D01*
X411851Y100606D01*
D02*
G37*
G36*
X360670Y84858D02*
X359802D01*
X359001Y84526D01*
X358387Y83913D01*
X358055Y83111D01*
Y82243D01*
X358387Y81442D01*
X359001Y80828D01*
X359802Y80496D01*
X360670D01*
X361472Y80828D01*
X362085Y81442D01*
X362417Y82243D01*
Y83111D01*
X362085Y83913D01*
X361472Y84526D01*
X360670Y84858D01*
D02*
G37*
G36*
X348859D02*
X347991D01*
X347190Y84526D01*
X346576Y83913D01*
X346244Y83111D01*
Y82243D01*
X346576Y81442D01*
X347190Y80828D01*
X347991Y80496D01*
X348859D01*
X349661Y80828D01*
X350274Y81442D01*
X350606Y82243D01*
Y83111D01*
X350274Y83913D01*
X349661Y84526D01*
X348859Y84858D01*
D02*
G37*
G36*
X337048D02*
X336180D01*
X335379Y84526D01*
X334765Y83913D01*
X334433Y83111D01*
Y82243D01*
X334765Y81442D01*
X335379Y80828D01*
X336180Y80496D01*
X337048D01*
X337850Y80828D01*
X338463Y81442D01*
X338795Y82243D01*
Y83111D01*
X338463Y83913D01*
X337850Y84526D01*
X337048Y84858D01*
D02*
G37*
G36*
X325237D02*
X324369D01*
X323568Y84526D01*
X322954Y83913D01*
X322622Y83111D01*
Y82243D01*
X322954Y81442D01*
X323568Y80828D01*
X324369Y80496D01*
X325237D01*
X326039Y80828D01*
X326652Y81442D01*
X326984Y82243D01*
Y83111D01*
X326652Y83913D01*
X326039Y84526D01*
X325237Y84858D01*
D02*
G37*
G36*
X313426D02*
X312558D01*
X311756Y84526D01*
X311143Y83913D01*
X310811Y83111D01*
Y82243D01*
X311143Y81442D01*
X311756Y80828D01*
X312558Y80496D01*
X313426D01*
X314228Y80828D01*
X314841Y81442D01*
X315173Y82243D01*
Y83111D01*
X314841Y83913D01*
X314228Y84526D01*
X313426Y84858D01*
D02*
G37*
G36*
X289804D02*
X288936D01*
X288135Y84526D01*
X287521Y83913D01*
X287189Y83111D01*
Y82243D01*
X287521Y81442D01*
X288135Y80828D01*
X288936Y80496D01*
X289804D01*
X290605Y80828D01*
X291219Y81442D01*
X291551Y82243D01*
Y83111D01*
X291219Y83913D01*
X290605Y84526D01*
X289804Y84858D01*
D02*
G37*
G36*
X138438Y73200D02*
X137562D01*
X136754Y72865D01*
X136135Y72246D01*
X135800Y71438D01*
Y70562D01*
X136135Y69754D01*
X136754Y69135D01*
X137562Y68800D01*
X138438D01*
X139246Y69135D01*
X139865Y69754D01*
X140200Y70562D01*
Y71438D01*
X139865Y72246D01*
X139246Y72865D01*
X138438Y73200D01*
D02*
G37*
G36*
X354764Y73047D02*
X353897D01*
X353095Y72715D01*
X352482Y72102D01*
X352150Y71300D01*
Y70432D01*
X352482Y69631D01*
X353095Y69017D01*
X353897Y68685D01*
X354764D01*
X355566Y69017D01*
X356180Y69631D01*
X356512Y70432D01*
Y71300D01*
X356180Y72102D01*
X355566Y72715D01*
X354764Y73047D01*
D02*
G37*
G36*
X342953D02*
X342086D01*
X341284Y72715D01*
X340670Y72102D01*
X340338Y71300D01*
Y70432D01*
X340670Y69631D01*
X341284Y69017D01*
X342086Y68685D01*
X342953D01*
X343755Y69017D01*
X344369Y69631D01*
X344701Y70432D01*
Y71300D01*
X344369Y72102D01*
X343755Y72715D01*
X342953Y73047D01*
D02*
G37*
G36*
X331142D02*
X330275D01*
X329473Y72715D01*
X328859Y72102D01*
X328527Y71300D01*
Y70432D01*
X328859Y69631D01*
X329473Y69017D01*
X330275Y68685D01*
X331142D01*
X331944Y69017D01*
X332558Y69631D01*
X332890Y70432D01*
Y71300D01*
X332558Y72102D01*
X331944Y72715D01*
X331142Y73047D01*
D02*
G37*
G36*
X301615Y84858D02*
X300747D01*
X299945Y84526D01*
X299332Y83913D01*
X299000Y83111D01*
Y82243D01*
X299332Y81442D01*
X299945Y80828D01*
X300747Y80496D01*
X301368D01*
X301433Y79996D01*
X301103Y79908D01*
X299977Y79258D01*
X299058Y78338D01*
X298408Y77213D01*
X298072Y75957D01*
Y74657D01*
X298408Y73401D01*
X299058Y72276D01*
X299977Y71356D01*
X301103Y70706D01*
X302359Y70370D01*
X303659D01*
X304643Y70634D01*
X304905Y70432D01*
X305238Y69631D01*
X305851Y69017D01*
X306653Y68685D01*
X307520D01*
X308322Y69017D01*
X308936Y69631D01*
X309268Y70432D01*
Y71300D01*
X308936Y72102D01*
X308322Y72715D01*
X307893Y72893D01*
X307610Y73400D01*
X307636Y73499D01*
X307946Y74657D01*
Y75957D01*
X307610Y77213D01*
X306960Y78338D01*
X306040Y79258D01*
X304914Y79908D01*
X303659Y80244D01*
X302359D01*
X302229Y80209D01*
X302068Y80684D01*
X302416Y80828D01*
X303030Y81442D01*
X303362Y82243D01*
Y83111D01*
X303030Y83913D01*
X302416Y84526D01*
X301615Y84858D01*
D02*
G37*
G36*
X295709Y73047D02*
X294842D01*
X294040Y72715D01*
X293426Y72102D01*
X293094Y71300D01*
Y70432D01*
X293426Y69631D01*
X294040Y69017D01*
X294842Y68685D01*
X295709D01*
X296511Y69017D01*
X297125Y69631D01*
X297457Y70432D01*
Y71300D01*
X297125Y72102D01*
X296511Y72715D01*
X295709Y73047D01*
D02*
G37*
G36*
X271103Y71079D02*
X270235D01*
X269434Y70747D01*
X268820Y70133D01*
X268488Y69332D01*
Y68464D01*
X268820Y67662D01*
X269434Y67049D01*
X270235Y66716D01*
X271103D01*
X271905Y67049D01*
X272518Y67662D01*
X272850Y68464D01*
Y69332D01*
X272518Y70133D01*
X271905Y70747D01*
X271103Y71079D01*
D02*
G37*
G36*
X251418D02*
X250550D01*
X249749Y70747D01*
X249135Y70133D01*
X248803Y69332D01*
Y68464D01*
X249135Y67662D01*
X249749Y67049D01*
X250550Y66716D01*
X251418D01*
X252220Y67049D01*
X252833Y67662D01*
X253165Y68464D01*
Y69332D01*
X252833Y70133D01*
X252220Y70747D01*
X251418Y71079D01*
D02*
G37*
G36*
X261261D02*
X260393D01*
X259591Y70747D01*
X258978Y70133D01*
X258646Y69332D01*
Y68464D01*
X258978Y67662D01*
X259591Y67049D01*
X260296Y66757D01*
X260341Y66370D01*
X260322Y66246D01*
X259821Y66112D01*
X258888Y65573D01*
X258127Y64812D01*
X257588Y63879D01*
X257310Y62839D01*
Y61761D01*
X257438Y61281D01*
X257382Y61211D01*
X257007Y60960D01*
X256339Y61236D01*
X255472D01*
X254670Y60904D01*
X254057Y60291D01*
X253724Y59489D01*
Y58621D01*
X254057Y57820D01*
X254670Y57206D01*
X255472Y56874D01*
X256339D01*
X257141Y57206D01*
X257755Y57820D01*
X258087Y58621D01*
Y59121D01*
X258587Y59329D01*
X258888Y59027D01*
X259821Y58488D01*
X260861Y58210D01*
X261939D01*
X262979Y58488D01*
X263105Y58561D01*
X263691Y58322D01*
X263899Y57820D01*
X264513Y57206D01*
X265314Y56874D01*
X266182D01*
X266984Y57206D01*
X267597Y57820D01*
X267929Y58621D01*
Y59489D01*
X267597Y60291D01*
X266984Y60904D01*
X266182Y61236D01*
X265760D01*
X265456Y61633D01*
X265491Y61761D01*
Y62839D01*
X265212Y63879D01*
X264673Y64812D01*
X263912Y65573D01*
X262979Y66112D01*
X261939Y66391D01*
X261780D01*
X261681Y66891D01*
X262062Y67049D01*
X262676Y67662D01*
X263008Y68464D01*
Y69332D01*
X262676Y70133D01*
X262062Y70747D01*
X261261Y71079D01*
D02*
G37*
G36*
X411851Y65173D02*
X410984D01*
X410182Y64841D01*
X409569Y64228D01*
X409236Y63426D01*
Y62558D01*
X409569Y61757D01*
X410182Y61143D01*
X410984Y60811D01*
X411851D01*
X412653Y61143D01*
X413267Y61757D01*
X413599Y62558D01*
Y63426D01*
X413267Y64228D01*
X412653Y64841D01*
X411851Y65173D01*
D02*
G37*
G36*
X380355D02*
X379488D01*
X378686Y64841D01*
X378072Y64228D01*
X377740Y63426D01*
Y62558D01*
X378072Y61757D01*
X378686Y61143D01*
X379488Y60811D01*
X380355D01*
X381157Y61143D01*
X381770Y61757D01*
X382103Y62558D01*
Y63426D01*
X381770Y64228D01*
X381157Y64841D01*
X380355Y65173D01*
D02*
G37*
G36*
X246497Y61236D02*
X245629D01*
X244828Y60904D01*
X244214Y60291D01*
X243882Y59489D01*
Y58621D01*
X244214Y57820D01*
X244828Y57206D01*
X245629Y56874D01*
X246497D01*
X247299Y57206D01*
X247912Y57820D01*
X248244Y58621D01*
Y59489D01*
X247912Y60291D01*
X247299Y60904D01*
X246497Y61236D01*
D02*
G37*
G36*
X348859Y61236D02*
X347991D01*
X347190Y60904D01*
X346576Y60291D01*
X346244Y59489D01*
Y58621D01*
X346576Y57820D01*
X347190Y57206D01*
X347991Y56874D01*
X348859D01*
X349661Y57206D01*
X350274Y57820D01*
X350606Y58621D01*
Y59489D01*
X350274Y60291D01*
X349661Y60904D01*
X348859Y61236D01*
D02*
G37*
G36*
X325237D02*
X324369D01*
X323568Y60904D01*
X322954Y60291D01*
X322622Y59489D01*
Y58621D01*
X322954Y57820D01*
X323568Y57206D01*
X324369Y56874D01*
X325237D01*
X326039Y57206D01*
X326652Y57820D01*
X326984Y58621D01*
Y59489D01*
X326652Y60291D01*
X326039Y60904D01*
X325237Y61236D01*
D02*
G37*
G36*
X313426D02*
X312558D01*
X311756Y60904D01*
X311143Y60291D01*
X310811Y59489D01*
Y58621D01*
X311143Y57820D01*
X311756Y57206D01*
X312558Y56874D01*
X313426D01*
X314228Y57206D01*
X314841Y57820D01*
X315173Y58621D01*
Y59489D01*
X314841Y60291D01*
X314228Y60904D01*
X313426Y61236D01*
D02*
G37*
G36*
X301615D02*
X300747D01*
X299945Y60904D01*
X299332Y60291D01*
X299000Y59489D01*
Y58621D01*
X299332Y57820D01*
X299945Y57206D01*
X300747Y56874D01*
X301615D01*
X302416Y57206D01*
X303030Y57820D01*
X303362Y58621D01*
Y59489D01*
X303030Y60291D01*
X302416Y60904D01*
X301615Y61236D01*
D02*
G37*
G36*
X427599Y65173D02*
X426732D01*
X425930Y64841D01*
X425316Y64228D01*
X424985Y63426D01*
Y62558D01*
X425316Y61757D01*
X425930Y61143D01*
X426732Y60811D01*
X427098D01*
X427306Y60311D01*
X427285Y60291D01*
X426953Y59489D01*
Y58621D01*
X427285Y57820D01*
X427306Y57799D01*
X427098Y57299D01*
X426732D01*
X425930Y56967D01*
X425316Y56354D01*
X424985Y55552D01*
Y54684D01*
X425316Y53883D01*
X425930Y53269D01*
X426732Y52937D01*
X427599D01*
X428401Y53269D01*
X429015Y53883D01*
X429347Y54684D01*
Y55552D01*
X429015Y56354D01*
X428994Y56374D01*
X429201Y56874D01*
X429568D01*
X430370Y57206D01*
X430983Y57820D01*
X431315Y58621D01*
Y59489D01*
X430983Y60291D01*
X430370Y60904D01*
X429568Y61236D01*
X429201D01*
X428994Y61736D01*
X429015Y61757D01*
X429347Y62558D01*
Y63426D01*
X429015Y64228D01*
X428401Y64841D01*
X427599Y65173D01*
D02*
G37*
G36*
X411851Y57299D02*
X410984D01*
X410182Y56967D01*
X409569Y56354D01*
X409236Y55552D01*
Y54684D01*
X409569Y53883D01*
X410182Y53269D01*
X410984Y52937D01*
X411851D01*
X412653Y53269D01*
X413267Y53883D01*
X413599Y54684D01*
Y55552D01*
X413267Y56354D01*
X412653Y56967D01*
X411851Y57299D01*
D02*
G37*
G36*
X396103Y65173D02*
X395236D01*
X394434Y64841D01*
X393820Y64228D01*
X393488Y63426D01*
Y62558D01*
X393820Y61757D01*
X394227Y61350D01*
X394378Y61023D01*
X394227Y60697D01*
X393820Y60291D01*
X393488Y59489D01*
Y58621D01*
X393820Y57820D01*
X394227Y57413D01*
X394378Y57087D01*
X394227Y56760D01*
X393820Y56354D01*
X393488Y55552D01*
Y54684D01*
X393820Y53883D01*
X394434Y53269D01*
X395236Y52937D01*
X396103D01*
X396905Y53269D01*
X397519Y53883D01*
X397851Y54684D01*
Y55552D01*
X397519Y56354D01*
X397112Y56760D01*
X396960Y57086D01*
X397112Y57413D01*
X397518Y57820D01*
X397850Y58621D01*
Y59489D01*
X397518Y60291D01*
X397112Y60697D01*
X396960Y61024D01*
X397112Y61350D01*
X397519Y61757D01*
X397851Y62558D01*
Y63426D01*
X397519Y64228D01*
X396905Y64841D01*
X396103Y65173D01*
D02*
G37*
G36*
X380355Y57299D02*
X379488D01*
X378686Y56967D01*
X378072Y56354D01*
X377740Y55552D01*
Y54684D01*
X378072Y53883D01*
X378686Y53269D01*
X379488Y52937D01*
X380355D01*
X381157Y53269D01*
X381770Y53883D01*
X382103Y54684D01*
Y55552D01*
X381770Y56354D01*
X381157Y56967D01*
X380355Y57299D01*
D02*
G37*
G36*
X648139Y108091D02*
X647061D01*
X646021Y107812D01*
X645088Y107273D01*
X645016Y107201D01*
X617606D01*
X617216Y107123D01*
X616885Y106902D01*
X616664Y106571D01*
X616587Y106181D01*
Y51181D01*
X616664Y50791D01*
X616885Y50460D01*
X617216Y50239D01*
X617606Y50161D01*
X649606D01*
X649997Y50239D01*
X650327Y50460D01*
X650548Y50791D01*
X650626Y51181D01*
Y55303D01*
X651431Y56108D01*
X652029Y57144D01*
X652339Y58299D01*
Y59496D01*
X652029Y60651D01*
X651431Y61687D01*
X650626Y62492D01*
Y65303D01*
X651431Y66108D01*
X652029Y67144D01*
X652339Y68300D01*
Y69496D01*
X652029Y70651D01*
X651431Y71687D01*
X650626Y72492D01*
Y75303D01*
X651431Y76108D01*
X652029Y77144D01*
X652339Y78299D01*
Y79496D01*
X652029Y80651D01*
X651431Y81687D01*
X650626Y82492D01*
Y101241D01*
X650873Y101488D01*
X651412Y102421D01*
X651690Y103462D01*
Y104539D01*
X651412Y105579D01*
X650873Y106512D01*
X650112Y107273D01*
X649179Y107812D01*
X648139Y108091D01*
D02*
G37*
G36*
X463032Y65173D02*
X462165D01*
X461363Y64841D01*
X460750Y64228D01*
X460418Y63426D01*
Y62558D01*
X460750Y61757D01*
X460770Y61736D01*
X460563Y61236D01*
X460196D01*
X459395Y60904D01*
X458781Y60291D01*
X458449Y59489D01*
Y58621D01*
X458781Y57820D01*
X459395Y57206D01*
X460196Y56874D01*
X460563D01*
X460770Y56374D01*
X460750Y56354D01*
X460418Y55552D01*
Y54684D01*
X460750Y53883D01*
X460770Y53862D01*
X460563Y53362D01*
X460196D01*
X459395Y53030D01*
X458781Y52417D01*
X458449Y51615D01*
Y50747D01*
X458781Y49946D01*
X459395Y49332D01*
X460196Y49000D01*
X461064D01*
X461866Y49332D01*
X462479Y49946D01*
X462811Y50747D01*
Y51615D01*
X462479Y52417D01*
X462459Y52437D01*
X462666Y52937D01*
X463032D01*
X463834Y53269D01*
X464448Y53883D01*
X464780Y54684D01*
Y55552D01*
X464448Y56354D01*
X463834Y56967D01*
X463032Y57299D01*
X462666D01*
X462459Y57799D01*
X462479Y57820D01*
X462811Y58621D01*
Y59489D01*
X462479Y60291D01*
X462459Y60311D01*
X462666Y60811D01*
X463032D01*
X463834Y61143D01*
X464448Y61757D01*
X464780Y62558D01*
Y63426D01*
X464448Y64228D01*
X463834Y64841D01*
X463032Y65173D01*
D02*
G37*
G36*
X445316Y61236D02*
X444448D01*
X443647Y60904D01*
X443033Y60291D01*
X442701Y59489D01*
Y58621D01*
X443033Y57820D01*
X443053Y57799D01*
X442846Y57299D01*
X442480D01*
X441678Y56967D01*
X441065Y56354D01*
X440732Y55552D01*
Y54684D01*
X441065Y53883D01*
X441678Y53269D01*
X442480Y52937D01*
X442846D01*
X443053Y52437D01*
X443033Y52417D01*
X442701Y51615D01*
Y50747D01*
X443033Y49946D01*
X443647Y49332D01*
X444448Y49000D01*
X445316D01*
X446118Y49332D01*
X446731Y49946D01*
X447063Y50747D01*
Y51615D01*
X446731Y52417D01*
X446118Y53030D01*
X445316Y53362D01*
X444949D01*
X444742Y53862D01*
X444763Y53883D01*
X445095Y54684D01*
Y55552D01*
X444763Y56354D01*
X444742Y56374D01*
X444949Y56874D01*
X445316D01*
X446118Y57206D01*
X446731Y57820D01*
X447063Y58621D01*
Y59489D01*
X446731Y60291D01*
X446118Y60904D01*
X445316Y61236D01*
D02*
G37*
G36*
X271103Y51394D02*
X270235D01*
X269434Y51062D01*
X268820Y50448D01*
X268488Y49646D01*
Y48779D01*
X268820Y47977D01*
X269434Y47363D01*
X270235Y47032D01*
X271103D01*
X271905Y47363D01*
X272518Y47977D01*
X272850Y48779D01*
Y49646D01*
X272518Y50448D01*
X271905Y51062D01*
X271103Y51394D01*
D02*
G37*
G36*
X261261D02*
X260393D01*
X259591Y51062D01*
X258978Y50448D01*
X258646Y49646D01*
Y48779D01*
X258978Y47977D01*
X259591Y47363D01*
X260393Y47032D01*
X261261D01*
X262062Y47363D01*
X262676Y47977D01*
X263008Y48779D01*
Y49646D01*
X262676Y50448D01*
X262062Y51062D01*
X261261Y51394D01*
D02*
G37*
G36*
X251418D02*
X250550D01*
X249749Y51062D01*
X249135Y50448D01*
X248803Y49646D01*
Y48779D01*
X249135Y47977D01*
X249749Y47363D01*
X250550Y47032D01*
X251418D01*
X252220Y47363D01*
X252833Y47977D01*
X253165Y48779D01*
Y49646D01*
X252833Y50448D01*
X252220Y51062D01*
X251418Y51394D01*
D02*
G37*
G36*
X342953Y49425D02*
X342086D01*
X341284Y49093D01*
X340670Y48480D01*
X340338Y47678D01*
Y46810D01*
X340670Y46009D01*
X341284Y45395D01*
X342086Y45063D01*
X342953D01*
X343755Y45395D01*
X344369Y46009D01*
X344701Y46810D01*
Y47678D01*
X344369Y48480D01*
X343755Y49093D01*
X342953Y49425D01*
D02*
G37*
G36*
X331142D02*
X330275D01*
X329473Y49093D01*
X328859Y48480D01*
X328527Y47678D01*
Y46810D01*
X328859Y46009D01*
X329473Y45395D01*
X330275Y45063D01*
X331142D01*
X331944Y45395D01*
X332558Y46009D01*
X332890Y46810D01*
Y47678D01*
X332558Y48480D01*
X331944Y49093D01*
X331142Y49425D01*
D02*
G37*
G36*
X319331D02*
X318464D01*
X317662Y49093D01*
X317049Y48480D01*
X316716Y47678D01*
Y46810D01*
X317049Y46009D01*
X317662Y45395D01*
X318464Y45063D01*
X319331D01*
X320133Y45395D01*
X320747Y46009D01*
X321079Y46810D01*
Y47678D01*
X320747Y48480D01*
X320133Y49093D01*
X319331Y49425D01*
D02*
G37*
G36*
X307520D02*
X306653D01*
X305851Y49093D01*
X305238Y48480D01*
X304905Y47678D01*
Y46810D01*
X305238Y46009D01*
X305851Y45395D01*
X306653Y45063D01*
X307520D01*
X308322Y45395D01*
X308936Y46009D01*
X309268Y46810D01*
Y47678D01*
X308936Y48480D01*
X308322Y49093D01*
X307520Y49425D01*
D02*
G37*
G36*
X289804Y61236D02*
X288936D01*
X288135Y60904D01*
X287521Y60291D01*
X287189Y59489D01*
Y58621D01*
X287521Y57820D01*
X288135Y57206D01*
X288785Y56937D01*
X289010Y56504D01*
X289036Y56374D01*
X288566Y55559D01*
X288229Y54304D01*
Y53004D01*
X288566Y51748D01*
X289216Y50622D01*
X290135Y49703D01*
X291261Y49053D01*
X292516Y48717D01*
X293010D01*
X293318Y48217D01*
X293094Y47678D01*
Y46810D01*
X293426Y46009D01*
X294040Y45395D01*
X294842Y45063D01*
X295709D01*
X296511Y45395D01*
X297125Y46009D01*
X297457Y46810D01*
Y47678D01*
X297125Y48480D01*
X296511Y49093D01*
X296230Y49209D01*
X296225Y49293D01*
X296241Y49746D01*
X297117Y50622D01*
X297767Y51748D01*
X298103Y53004D01*
Y54304D01*
X297767Y55559D01*
X297117Y56685D01*
X296198Y57604D01*
X295072Y58254D01*
X293816Y58591D01*
X292516D01*
X291979Y58447D01*
X291551Y58850D01*
Y59489D01*
X291219Y60291D01*
X290605Y60904D01*
X289804Y61236D01*
D02*
G37*
G36*
X129438Y49200D02*
X128562D01*
X127754Y48865D01*
X127135Y48246D01*
X126800Y47438D01*
Y46562D01*
X127135Y45754D01*
X127754Y45135D01*
X128562Y44800D01*
X129438D01*
X130246Y45135D01*
X130865Y45754D01*
X131200Y46562D01*
Y47438D01*
X130865Y48246D01*
X130246Y48865D01*
X129438Y49200D01*
D02*
G37*
G36*
X500438Y39602D02*
X499562D01*
X498754Y39267D01*
X498135Y38648D01*
X497800Y37839D01*
Y36964D01*
X498135Y36155D01*
X498754Y35537D01*
X499562Y35202D01*
X500438D01*
X501246Y35537D01*
X501865Y36155D01*
X502200Y36964D01*
Y37839D01*
X501865Y38648D01*
X501246Y39267D01*
X500438Y39602D01*
D02*
G37*
G36*
X360670Y37614D02*
X359802D01*
X359001Y37282D01*
X358387Y36669D01*
X358055Y35867D01*
Y34999D01*
X358387Y34198D01*
X359001Y33584D01*
X359802Y33252D01*
X360670D01*
X361472Y33584D01*
X362085Y34198D01*
X362417Y34999D01*
Y35867D01*
X362085Y36669D01*
X361472Y37282D01*
X360670Y37614D01*
D02*
G37*
G36*
X348859D02*
X347991D01*
X347190Y37282D01*
X346576Y36669D01*
X346244Y35867D01*
Y34999D01*
X346576Y34198D01*
X347190Y33584D01*
X347991Y33252D01*
X348859D01*
X349661Y33584D01*
X350274Y34198D01*
X350606Y34999D01*
Y35867D01*
X350274Y36669D01*
X349661Y37282D01*
X348859Y37614D01*
D02*
G37*
G36*
X337048D02*
X336180D01*
X335379Y37282D01*
X334765Y36669D01*
X334433Y35867D01*
Y34999D01*
X334765Y34198D01*
X335379Y33584D01*
X336180Y33252D01*
X337048D01*
X337850Y33584D01*
X338463Y34198D01*
X338795Y34999D01*
Y35867D01*
X338463Y36669D01*
X337850Y37282D01*
X337048Y37614D01*
D02*
G37*
G36*
X313426D02*
X312558D01*
X311756Y37282D01*
X311143Y36669D01*
X310811Y35867D01*
Y34999D01*
X311143Y34198D01*
X311756Y33584D01*
X312558Y33252D01*
X313426D01*
X314228Y33584D01*
X314841Y34198D01*
X315173Y34999D01*
Y35867D01*
X314841Y36669D01*
X314228Y37282D01*
X313426Y37614D01*
D02*
G37*
G36*
X289804D02*
X288936D01*
X288135Y37282D01*
X287521Y36669D01*
X287189Y35867D01*
Y34999D01*
X287521Y34198D01*
X288135Y33584D01*
X288936Y33252D01*
X289804D01*
X290605Y33584D01*
X291219Y34198D01*
X291551Y34999D01*
Y35867D01*
X291219Y36669D01*
X290605Y37282D01*
X289804Y37614D01*
D02*
G37*
G36*
X303659Y36937D02*
X302359D01*
X301103Y36601D01*
X299977Y35951D01*
X299058Y35031D01*
X298408Y33906D01*
X298072Y32650D01*
Y31350D01*
X298408Y30094D01*
X299058Y28969D01*
X299977Y28049D01*
X301103Y27399D01*
X302359Y27063D01*
X303659D01*
X304914Y27399D01*
X306040Y28049D01*
X306960Y28969D01*
X307610Y30094D01*
X307946Y31350D01*
Y32650D01*
X307610Y33906D01*
X306960Y35031D01*
X306040Y35951D01*
X304914Y36601D01*
X303659Y36937D01*
D02*
G37*
G36*
X133578Y30791D02*
X132702D01*
X131894Y30456D01*
X131275Y29837D01*
X130940Y29028D01*
Y28153D01*
X131275Y27344D01*
X131894Y26726D01*
X132702Y26391D01*
X133578D01*
X134386Y26726D01*
X135005Y27344D01*
X135340Y28153D01*
Y29028D01*
X135005Y29837D01*
X134386Y30456D01*
X133578Y30791D01*
D02*
G37*
G36*
X369655Y28591D02*
X368578D01*
X367537Y28312D01*
X366604Y27773D01*
X365843Y27012D01*
X365304Y26079D01*
X365026Y25038D01*
Y23961D01*
X365304Y22921D01*
X365843Y21988D01*
X366604Y21227D01*
X367537Y20688D01*
X368578Y20410D01*
X369655D01*
X370695Y20688D01*
X371628Y21227D01*
X372389Y21988D01*
X372928Y22921D01*
X373207Y23961D01*
Y25038D01*
X372928Y26079D01*
X372389Y27012D01*
X371628Y27773D01*
X370695Y28312D01*
X369655Y28591D01*
D02*
G37*
G36*
X631162Y35449D02*
X628681D01*
X626230Y35061D01*
X623870Y34294D01*
X621659Y33167D01*
X619652Y31709D01*
X617897Y29954D01*
X616439Y27947D01*
X615312Y25736D01*
X614546Y23376D01*
X614157Y20926D01*
Y18444D01*
X614546Y15994D01*
X615312Y13634D01*
X616439Y11423D01*
X617897Y9416D01*
X619652Y7661D01*
X621659Y6203D01*
X623870Y5076D01*
X626230Y4309D01*
X628681Y3921D01*
X631162D01*
X633613Y4309D01*
X635972Y5076D01*
X638183Y6203D01*
X640191Y7661D01*
X641945Y9416D01*
X643404Y11423D01*
X644530Y13634D01*
X645297Y15994D01*
X645685Y18444D01*
Y20926D01*
X645297Y23376D01*
X644530Y25736D01*
X643404Y27947D01*
X641945Y29954D01*
X640191Y31709D01*
X638183Y33167D01*
X635972Y34294D01*
X633613Y35061D01*
X631162Y35449D01*
D02*
G37*
%LPD*%
G36*
X440820Y201884D02*
X455069D01*
X465407Y191546D01*
X465215Y191084D01*
X422458D01*
X420060Y193482D01*
X419403Y193920D01*
X418629Y194074D01*
X388425D01*
X381116Y201384D01*
X381231Y201884D01*
X387180D01*
X387180Y201884D01*
X397513D01*
X397513Y201884D01*
X430487D01*
X430487Y201884D01*
X440820D01*
X440820Y201884D01*
D02*
G37*
G36*
X386157Y190621D02*
X386813Y190182D01*
X387587Y190028D01*
X417791D01*
X420189Y187630D01*
X420845Y187191D01*
X421620Y187038D01*
X472893D01*
X473084Y186576D01*
X451918Y165409D01*
X306052D01*
X305860Y165871D01*
X306265Y166276D01*
X306915Y167402D01*
X307252Y168657D01*
Y169957D01*
X306915Y171213D01*
X306265Y172339D01*
X305346Y173258D01*
X304220Y173908D01*
X302965Y174244D01*
X301665D01*
X300409Y173908D01*
X299283Y173258D01*
X298364Y172339D01*
X297714Y171213D01*
X297378Y169957D01*
Y168657D01*
X297714Y167402D01*
X298364Y166276D01*
X298769Y165871D01*
X298578Y165409D01*
X279528D01*
X278911Y165286D01*
X278665Y165747D01*
X290029Y177111D01*
X459765D01*
X460192Y176934D01*
X461067D01*
X461876Y177269D01*
X462495Y177888D01*
X462830Y178696D01*
Y179571D01*
X462495Y180380D01*
X461876Y180999D01*
X461067Y181334D01*
X460192D01*
X459765Y181157D01*
X374070D01*
Y195986D01*
X374247Y196413D01*
Y197288D01*
X374120Y197596D01*
X374397Y198012D01*
X378766D01*
X386157Y190621D01*
D02*
G37*
G36*
X275006Y161950D02*
X275359Y161734D01*
Y160980D01*
X275694Y160171D01*
X276313Y159552D01*
X277121Y159217D01*
X277997D01*
X278805Y159552D01*
X279424Y160171D01*
X279601Y160598D01*
X280366Y161363D01*
X281111D01*
X281303Y160901D01*
X280677Y160275D01*
X280250Y160098D01*
X279631Y159479D01*
X279296Y158671D01*
Y157796D01*
X279631Y156987D01*
X280250Y156368D01*
X281058Y156033D01*
X281934D01*
X282742Y156368D01*
X283361Y156987D01*
X283538Y157414D01*
X284618Y158494D01*
X363618D01*
X363825Y157994D01*
X347618Y141787D01*
X284303D01*
X280958Y145131D01*
X280302Y145570D01*
X279528Y145724D01*
X262036D01*
X261829Y146224D01*
X271615Y156010D01*
X272053Y156666D01*
X272207Y157440D01*
Y159290D01*
X274897Y161979D01*
X275006Y161950D01*
D02*
G37*
%LPC*%
G36*
X348859Y155724D02*
X347991D01*
X347190Y155392D01*
X346576Y154779D01*
X346244Y153977D01*
Y153109D01*
X346576Y152308D01*
X347190Y151694D01*
X347991Y151362D01*
X348859D01*
X349661Y151694D01*
X350274Y152308D01*
X350606Y153109D01*
Y153977D01*
X350274Y154779D01*
X349661Y155392D01*
X348859Y155724D01*
D02*
G37*
G36*
X325237D02*
X324369D01*
X323568Y155392D01*
X322954Y154779D01*
X322622Y153977D01*
Y153109D01*
X322954Y152308D01*
X323568Y151694D01*
X324369Y151362D01*
X325237D01*
X326039Y151694D01*
X326652Y152308D01*
X326984Y153109D01*
Y153977D01*
X326652Y154779D01*
X326039Y155392D01*
X325237Y155724D01*
D02*
G37*
G36*
X313426D02*
X312558D01*
X311756Y155392D01*
X311143Y154779D01*
X310811Y153977D01*
Y153109D01*
X311143Y152308D01*
X311756Y151694D01*
X312558Y151362D01*
X313426D01*
X314228Y151694D01*
X314841Y152308D01*
X315173Y153109D01*
Y153977D01*
X314841Y154779D01*
X314228Y155392D01*
X313426Y155724D01*
D02*
G37*
G36*
X301615D02*
X300747D01*
X299945Y155392D01*
X299332Y154779D01*
X299000Y153977D01*
Y153109D01*
X299332Y152308D01*
X299945Y151694D01*
X300747Y151362D01*
X301615D01*
X302416Y151694D01*
X303030Y152308D01*
X303362Y153109D01*
Y153977D01*
X303030Y154779D01*
X302416Y155392D01*
X301615Y155724D01*
D02*
G37*
G36*
X289804D02*
X288936D01*
X288135Y155392D01*
X287521Y154779D01*
X287189Y153977D01*
Y153109D01*
X287521Y152308D01*
X288135Y151694D01*
X288622Y151492D01*
X288739Y150902D01*
X288522Y150685D01*
X287872Y149559D01*
X287535Y148304D01*
Y147004D01*
X287872Y145748D01*
X288522Y144622D01*
X289441Y143703D01*
X290567Y143053D01*
X291823Y142717D01*
X293122D01*
X294378Y143053D01*
X295504Y143703D01*
X296423Y144622D01*
X297073Y145748D01*
X297410Y147004D01*
Y148304D01*
X297073Y149559D01*
X296423Y150685D01*
X295504Y151604D01*
X294378Y152254D01*
X293122Y152591D01*
X291877D01*
X291587Y152857D01*
X291492Y152966D01*
X291551Y153109D01*
Y153977D01*
X291219Y154779D01*
X290605Y155392D01*
X289804Y155724D01*
D02*
G37*
%LPD*%
G36*
X612886Y67905D02*
X578593D01*
X572233Y74265D01*
X571577Y74704D01*
X570803Y74858D01*
X555386D01*
Y91895D01*
X561843Y98352D01*
X561888Y98371D01*
X583781D01*
X584208Y98194D01*
X585083D01*
X585892Y98529D01*
X586511Y99147D01*
X586846Y99956D01*
Y100831D01*
X586511Y101640D01*
X585892Y102259D01*
X585083Y102594D01*
X584208D01*
X583781Y102417D01*
X561888D01*
X561461Y102594D01*
X560586D01*
X559777Y102259D01*
X559159Y101640D01*
X558982Y101213D01*
X555848Y98079D01*
X555386Y98270D01*
Y114906D01*
X591865D01*
X592115Y114472D01*
X591888Y114079D01*
X591609Y113039D01*
Y111961D01*
X591888Y110921D01*
X592427Y109988D01*
X593188Y109227D01*
X594121Y108688D01*
X595161Y108409D01*
X596239D01*
X597279Y108688D01*
X598212Y109227D01*
X598973Y109988D01*
X599512Y110921D01*
X599790Y111961D01*
Y113039D01*
X599512Y114079D01*
X599285Y114472D01*
X599535Y114906D01*
X612886D01*
Y67905D01*
D02*
G37*
G36*
X572409Y68367D02*
X572218Y67905D01*
X555386D01*
Y70811D01*
X569965D01*
X572409Y68367D01*
D02*
G37*
G36*
X649606Y51181D02*
X617606D01*
Y106181D01*
X649606D01*
Y51181D01*
D02*
G37*
D14*
X270184Y157440D02*
Y160128D01*
X260169Y147425D02*
X270184Y157440D01*
X257425Y147425D02*
X260169D01*
X256885Y146885D02*
X257425Y147425D01*
X289191Y179134D02*
X370079D01*
X236221Y146885D02*
X256885D01*
X137795D02*
X236221D01*
X270184Y160128D02*
X289191Y179134D01*
X184055Y74803D02*
Y79493D01*
X280627D01*
X184055Y82677D02*
Y87598D01*
Y82677D02*
X277559D01*
X143554Y137648D02*
X266964D01*
X124016Y140517D02*
X268152D01*
X132300Y180927D02*
X187927D01*
X124016Y143701D02*
X279528D01*
X112205Y180927D02*
X132300D01*
X187927D02*
X274716Y267717D01*
X487623D01*
X492825Y272919D01*
X618674D01*
X618674Y272919D01*
X643701D01*
X652840Y263779D01*
Y166620D02*
Y263779D01*
X616142Y129921D02*
X652840Y166620D01*
X561023Y82571D02*
Y82677D01*
X559000Y80547D02*
X561023Y82571D01*
X559000Y79000D02*
Y80547D01*
X195218Y31820D02*
X203684Y40286D01*
X148996Y31820D02*
X195218D01*
X134000Y16824D02*
X148996Y31820D01*
X545000Y79000D02*
X559000D01*
X536000Y70000D02*
X545000Y79000D01*
X523000Y151000D02*
X568000D01*
X498000Y176000D02*
X523000Y151000D01*
X491000Y176000D02*
X498000D01*
X267000Y161000D02*
X306035Y200035D01*
X379604D01*
X387587Y192051D01*
X418629D01*
X421620Y189061D01*
X474374D01*
X504909Y219596D01*
X544626D01*
X545448Y218774D01*
X580000D01*
X203558Y238000D02*
X229000D01*
X191558Y250000D02*
X203558Y238000D01*
X166000Y250000D02*
X191558D01*
X383858Y79858D02*
Y148728D01*
X203684Y40286D02*
X344286D01*
X383858Y79858D01*
X281379Y78740D02*
X281496D01*
X137795Y82677D02*
X140980Y79493D01*
X280627D02*
X281379Y78740D01*
X140980Y79493D02*
X184055D01*
X570803Y72835D02*
X584010Y59628D01*
X549213Y72835D02*
X570803D01*
X538664Y62286D02*
X549213Y72835D01*
X523622Y62286D02*
X538664D01*
X561024Y100394D02*
X584646D01*
X533465Y72835D02*
X561024Y100394D01*
X521654Y72835D02*
X533465D01*
X485118Y68980D02*
X488106D01*
X488189Y68898D01*
X402187Y151912D02*
X485118Y68980D01*
X505905Y210630D02*
X543307D01*
X283780Y160517D02*
X455793D01*
X505905Y210630D01*
X505782Y216412D02*
X543307D01*
X279528Y163386D02*
X452756D01*
X505782Y216412D01*
X353364Y134027D02*
X371249Y151912D01*
X402187D01*
X406243Y154780D02*
X488189Y72835D01*
X351462Y136895D02*
X369347Y154780D01*
X406243D01*
X366259Y157333D02*
X366574Y157649D01*
X409280D01*
X490158Y76772D01*
X366025Y157333D02*
X366259D01*
X348456Y139764D02*
X366025Y157333D01*
X283465Y139764D02*
X348456D01*
X270585Y134027D02*
X353364D01*
X133858Y127953D02*
X143554Y137648D01*
X266964D02*
X270585Y134027D01*
X271773Y136895D02*
X351462D01*
X279528Y143701D02*
X283465Y139764D01*
X281496Y158233D02*
X283780Y160517D01*
X277559Y161417D02*
X279528Y163386D01*
X124016Y140516D02*
Y140517D01*
Y140516D02*
X124768D01*
X124016Y139764D02*
X124768Y140516D01*
X268152Y140517D02*
X271773Y136895D01*
X362205Y222441D02*
X375984D01*
X266668Y270734D02*
Y270734D01*
X261959Y266025D02*
X266668Y270734D01*
X175197Y266025D02*
X261959D01*
X372047Y181102D02*
Y196850D01*
X370079Y179134D02*
X372047Y181102D01*
X370079Y179134D02*
X460630D01*
X153543Y82677D02*
X184055D01*
X257874Y204878D02*
Y238189D01*
X328445Y229000D02*
X338000D01*
X323463Y224018D02*
X328445Y229000D01*
X323463Y219198D02*
Y224018D01*
X317892Y213627D02*
X323463Y219198D01*
X331082Y245000D02*
X337000D01*
X309836Y223754D02*
X331082Y245000D01*
X309836Y218836D02*
Y223754D01*
X304000Y213000D02*
X309836Y218836D01*
X336917Y261917D02*
X337000Y262000D01*
X334735Y261917D02*
X336917D01*
X298866Y226049D02*
X334735Y261917D01*
X298866Y222866D02*
Y226049D01*
X289000Y213000D02*
X298866Y222866D01*
X306000Y257000D02*
X311000Y262000D01*
X289503Y257000D02*
X306000D01*
X282083Y249579D02*
X289503Y257000D01*
X285898Y248674D02*
X291224Y254000D01*
X317000D02*
X325000Y262000D01*
X291224Y254000D02*
X317000D01*
X278083Y247083D02*
Y250083D01*
X278000Y247000D02*
X278083Y247083D01*
Y250083D02*
X290000Y262000D01*
X282083Y247083D02*
Y249579D01*
X282000Y247000D02*
X282083Y247083D01*
X285816Y247117D02*
X285898Y247199D01*
Y248674D01*
X290000Y262000D02*
X298000D01*
D17*
X651575Y127953D02*
Y132613D01*
X648606Y148598D02*
X655512Y155503D01*
X648606Y135582D02*
Y148598D01*
Y135582D02*
X651575Y132613D01*
X643701Y120079D02*
X651575Y127953D01*
X644807Y275590D02*
X655512Y264886D01*
Y155503D02*
Y264886D01*
X491718Y275590D02*
X619780D01*
X619780Y275590D02*
X644807D01*
X619780Y275590D02*
X619780Y275590D01*
X185355Y185197D02*
X270547Y270388D01*
X112428Y184327D02*
X113298Y185197D01*
X112205Y184327D02*
X112428D01*
X113298Y185197D02*
X185355D01*
X486516Y270388D02*
X491718Y275590D01*
X270547Y270388D02*
X486516D01*
X614173Y120079D02*
X643701D01*
D104*
X124016Y268701D02*
D03*
X642717Y129921D02*
D03*
X497047Y20669D02*
D03*
X74803Y42323D02*
D03*
Y20793D02*
D03*
X184055Y87598D02*
D03*
Y74803D02*
D03*
X369116Y24500D02*
D03*
X133500Y180200D02*
D03*
X203600Y159000D02*
D03*
X261400Y62300D02*
D03*
X633600Y206700D02*
D03*
X236303Y117700D02*
D03*
X595700Y112500D02*
D03*
X170276Y117700D02*
D03*
X647600Y104000D02*
D03*
X261258Y117700D02*
D03*
X248879D02*
D03*
D120*
X210630Y165354D02*
X250153Y204878D01*
X107000Y27000D02*
X120496D01*
X117000Y17000D02*
X117950Y17950D01*
Y25950D01*
X119000Y27000D01*
X120496D02*
X122118Y28622D01*
X21063Y55295D02*
X37426Y38932D01*
X47455D01*
X62145D02*
X95068D01*
X107000Y27000D01*
X257874Y204878D02*
X387180D01*
X250153D02*
X257874D01*
X397513D02*
X430487D01*
X440820D02*
X456309D01*
X468273Y192913D01*
D129*
X47455Y38932D02*
X62145D01*
X387180Y204878D02*
X397513D01*
X430487D02*
X440820D01*
D146*
X435654Y197972D02*
D03*
X414000Y186000D02*
D03*
X392346Y197972D02*
D03*
D147*
X571288Y30823D02*
D03*
X561288D02*
D03*
X551289Y20823D02*
D03*
X561288D02*
D03*
X571288Y10823D02*
D03*
Y20823D02*
D03*
X551289Y10823D02*
D03*
X561288D02*
D03*
X540816Y30823D02*
D03*
X530816D02*
D03*
X551289D02*
D03*
X520816Y20823D02*
D03*
Y30823D02*
D03*
X540816Y20823D02*
D03*
Y10823D02*
D03*
X530816D02*
D03*
Y20823D02*
D03*
X520816Y10823D02*
D03*
X21063Y70295D02*
D03*
X11063D02*
D03*
X647795Y68898D02*
D03*
Y58898D02*
D03*
Y78898D02*
D03*
X637795Y58898D02*
D03*
X627795D02*
D03*
Y68898D02*
D03*
Y78898D02*
D03*
X637795D02*
D03*
Y68898D02*
D03*
X11063Y55295D02*
D03*
X21063D02*
D03*
X559669Y242969D02*
D03*
X549669D02*
D03*
X569669D02*
D03*
X549669Y252969D02*
D03*
Y262968D02*
D03*
X559669D02*
D03*
X569669D02*
D03*
Y252969D02*
D03*
X559669D02*
D03*
X21063Y85295D02*
D03*
Y100295D02*
D03*
Y205295D02*
D03*
Y190295D02*
D03*
Y175295D02*
D03*
Y160295D02*
D03*
Y145295D02*
D03*
Y130295D02*
D03*
Y115295D02*
D03*
X11063Y130295D02*
D03*
Y160295D02*
D03*
Y190295D02*
D03*
Y205295D02*
D03*
Y175295D02*
D03*
Y145295D02*
D03*
Y115295D02*
D03*
Y100295D02*
D03*
Y85295D02*
D03*
D148*
X322000Y169307D02*
D03*
X333972Y147654D02*
D03*
X322000Y126000D02*
D03*
X322694Y75307D02*
D03*
X334666Y53654D02*
D03*
X322694Y32000D02*
D03*
D149*
X304000Y223000D02*
D03*
X289000D02*
D03*
X317892Y223627D02*
D03*
X331255D02*
D03*
D150*
X304000Y213000D02*
D03*
X289000D02*
D03*
X317892Y213627D02*
D03*
X331255D02*
D03*
D151*
X622500Y191500D02*
D03*
Y177720D02*
D03*
D152*
X435654Y217657D02*
D03*
X392346D02*
D03*
X414000Y227500D02*
D03*
X302315Y169307D02*
D03*
Y126000D02*
D03*
X292472Y147654D02*
D03*
X303009Y75307D02*
D03*
Y32000D02*
D03*
X293166Y53654D02*
D03*
D153*
X629921Y255906D02*
D03*
X629921Y19685D02*
D03*
X39370Y19685D02*
D03*
Y255906D02*
D03*
D154*
X21063Y220295D02*
D03*
X11063D02*
D03*
D155*
X647638Y261811D02*
D03*
Y234252D02*
D03*
Y206693D02*
D03*
Y179134D02*
D03*
X654528Y137795D02*
D03*
Y110236D02*
D03*
Y82677D02*
D03*
Y55118D02*
D03*
X647638Y41339D02*
D03*
X654528Y27559D02*
D03*
X647638Y13780D02*
D03*
X633858Y234252D02*
D03*
X640748Y220473D02*
D03*
Y192913D02*
D03*
Y137795D02*
D03*
Y110236D02*
D03*
X633858Y41339D02*
D03*
X620079Y234252D02*
D03*
X626969Y220473D02*
D03*
Y110236D02*
D03*
X620079Y41339D02*
D03*
X606299Y261811D02*
D03*
X613189Y248031D02*
D03*
X606299Y234252D02*
D03*
X613189Y220473D02*
D03*
Y55118D02*
D03*
Y27559D02*
D03*
X606299Y13780D02*
D03*
X592520Y261811D02*
D03*
X599410Y248031D02*
D03*
Y220473D02*
D03*
Y55118D02*
D03*
X592520Y41339D02*
D03*
X599410Y27559D02*
D03*
X592520Y13780D02*
D03*
X585630Y248031D02*
D03*
Y220473D02*
D03*
X578740Y41339D02*
D03*
X585630Y27559D02*
D03*
X578740Y13780D02*
D03*
X564961Y41339D02*
D03*
X558071Y55118D02*
D03*
X551181Y41339D02*
D03*
X537402Y261811D02*
D03*
Y234252D02*
D03*
X544291Y55118D02*
D03*
X537402Y41339D02*
D03*
X523622Y261811D02*
D03*
X530512Y248031D02*
D03*
Y82677D02*
D03*
Y55118D02*
D03*
X523622Y41339D02*
D03*
X509843Y234252D02*
D03*
X516732Y55118D02*
D03*
X509843Y41339D02*
D03*
X516732Y27559D02*
D03*
X509843Y13780D02*
D03*
X502953Y248031D02*
D03*
X496063Y234252D02*
D03*
X502953Y192913D02*
D03*
Y55118D02*
D03*
Y27559D02*
D03*
X496063Y13780D02*
D03*
X482284Y261811D02*
D03*
X489173Y248031D02*
D03*
X482284Y234252D02*
D03*
X489173Y220473D02*
D03*
X482284Y206693D02*
D03*
X489173Y165354D02*
D03*
Y82677D02*
D03*
Y55118D02*
D03*
X482284Y41339D02*
D03*
X489173Y27559D02*
D03*
X482284Y13780D02*
D03*
X468504Y261811D02*
D03*
X475394Y248031D02*
D03*
X468504Y234252D02*
D03*
X475394Y220473D02*
D03*
X468504Y206693D02*
D03*
X475394Y165354D02*
D03*
X468504Y151575D02*
D03*
X475394Y27559D02*
D03*
X468504Y13780D02*
D03*
X454725Y261811D02*
D03*
X461614Y248031D02*
D03*
Y220473D02*
D03*
Y192913D02*
D03*
X454725Y151575D02*
D03*
X461614Y110236D02*
D03*
Y82677D02*
D03*
Y27559D02*
D03*
X454725Y13780D02*
D03*
X440945Y261811D02*
D03*
X447835Y248031D02*
D03*
Y192913D02*
D03*
X440945Y151575D02*
D03*
X447835Y27559D02*
D03*
X440945Y13780D02*
D03*
X427165Y261811D02*
D03*
X434055Y248031D02*
D03*
X427165Y151575D02*
D03*
Y68898D02*
D03*
Y41339D02*
D03*
X434055Y27559D02*
D03*
X427165Y13780D02*
D03*
X413386Y261811D02*
D03*
X420276Y248031D02*
D03*
Y27559D02*
D03*
X413386Y13780D02*
D03*
X399606Y261811D02*
D03*
X406496Y248031D02*
D03*
Y27559D02*
D03*
X399606Y13780D02*
D03*
X385827Y261811D02*
D03*
X392717Y248031D02*
D03*
Y27559D02*
D03*
X385827Y13780D02*
D03*
X372047Y261811D02*
D03*
X378937Y248031D02*
D03*
Y192913D02*
D03*
Y27559D02*
D03*
X372047Y13780D02*
D03*
X358268Y261811D02*
D03*
X365158Y248031D02*
D03*
X358268Y234252D02*
D03*
Y13780D02*
D03*
X344488Y234252D02*
D03*
X351378Y220473D02*
D03*
X344488Y151575D02*
D03*
Y124016D02*
D03*
Y13780D02*
D03*
X337598Y220473D02*
D03*
X330709Y124016D02*
D03*
X337598Y27559D02*
D03*
X330709Y13780D02*
D03*
X316929Y151575D02*
D03*
Y68898D02*
D03*
X323819Y55118D02*
D03*
X316929Y13780D02*
D03*
X310039Y248031D02*
D03*
X303150Y13780D02*
D03*
X296260Y248031D02*
D03*
X289370Y13780D02*
D03*
X275591Y261811D02*
D03*
X282480Y220473D02*
D03*
Y192913D02*
D03*
X275591Y179134D02*
D03*
Y13780D02*
D03*
X268701Y192913D02*
D03*
X261811Y179134D02*
D03*
Y124016D02*
D03*
X268701Y110236D02*
D03*
X248031Y234252D02*
D03*
X254921Y192913D02*
D03*
X248031Y179134D02*
D03*
X254921Y165354D02*
D03*
X248031Y151575D02*
D03*
X254921Y110236D02*
D03*
X248031Y96457D02*
D03*
X241142Y248031D02*
D03*
Y220473D02*
D03*
X234252Y206693D02*
D03*
Y179134D02*
D03*
X241142Y165354D02*
D03*
X234252Y151575D02*
D03*
X241142Y110236D02*
D03*
X234252Y96457D02*
D03*
X220473Y234252D02*
D03*
Y206693D02*
D03*
X227362Y192913D02*
D03*
X220473Y124016D02*
D03*
X227362Y110236D02*
D03*
X220473Y96457D02*
D03*
Y68898D02*
D03*
X227362Y55118D02*
D03*
Y27559D02*
D03*
X206693Y234252D02*
D03*
X213583Y192913D02*
D03*
Y110236D02*
D03*
X206693Y96457D02*
D03*
Y68898D02*
D03*
X213583Y55118D02*
D03*
Y27559D02*
D03*
X199803Y248031D02*
D03*
X192913Y206693D02*
D03*
X199803Y110236D02*
D03*
X192913Y96457D02*
D03*
Y68898D02*
D03*
X199803Y55118D02*
D03*
X179134Y261811D02*
D03*
Y234252D02*
D03*
X186024Y220473D02*
D03*
X179134Y206693D02*
D03*
X186024Y192913D02*
D03*
X179134Y124016D02*
D03*
X186024Y110236D02*
D03*
X179134Y96457D02*
D03*
Y68898D02*
D03*
X186024Y55118D02*
D03*
X165354Y234252D02*
D03*
Y206693D02*
D03*
X172244Y192913D02*
D03*
X165354Y124016D02*
D03*
X172244Y110236D02*
D03*
X165354Y96457D02*
D03*
Y68898D02*
D03*
X172244Y55118D02*
D03*
X165354Y41339D02*
D03*
Y13780D02*
D03*
X151575Y261811D02*
D03*
X158465Y248031D02*
D03*
X151575Y234252D02*
D03*
X158465Y220473D02*
D03*
X151575Y206693D02*
D03*
Y151575D02*
D03*
Y96457D02*
D03*
X158465Y55118D02*
D03*
X151575Y41339D02*
D03*
X137795Y261811D02*
D03*
X144685Y248031D02*
D03*
X137795Y234252D02*
D03*
X144685Y220473D02*
D03*
X137795Y206693D02*
D03*
X144685Y192913D02*
D03*
Y165354D02*
D03*
X137795Y151575D02*
D03*
X144685Y110236D02*
D03*
Y55118D02*
D03*
X137795Y41339D02*
D03*
X124016Y261811D02*
D03*
X130905Y248031D02*
D03*
X124016Y234252D02*
D03*
X130905Y220473D02*
D03*
X124016Y151575D02*
D03*
Y124016D02*
D03*
X130905Y55118D02*
D03*
X124016Y41339D02*
D03*
Y13780D02*
D03*
X110236Y261811D02*
D03*
X117126Y248031D02*
D03*
X110236Y234252D02*
D03*
X117126Y220473D02*
D03*
X110236Y206693D02*
D03*
X117126Y192913D02*
D03*
Y165354D02*
D03*
Y110236D02*
D03*
Y82677D02*
D03*
X110236Y68898D02*
D03*
X117126Y55118D02*
D03*
X110236Y41339D02*
D03*
Y13780D02*
D03*
X216634Y176968D02*
D03*
X213583Y158661D02*
D03*
X210531Y152559D02*
D03*
X204429Y164764D02*
D03*
Y152559D02*
D03*
X198327Y164764D02*
D03*
X195275Y158661D02*
D03*
X198327Y152559D02*
D03*
X189173Y170866D02*
D03*
X192224Y164764D02*
D03*
Y152559D02*
D03*
X186122Y176968D02*
D03*
X183071Y170866D02*
D03*
X478347Y110236D02*
D03*
X452756Y196850D02*
D03*
X442913D02*
D03*
X423228D02*
D03*
X413386D02*
D03*
X408465Y167323D02*
D03*
X403543Y196850D02*
D03*
X398622Y187008D02*
D03*
Y167323D02*
D03*
X462598Y157480D02*
D03*
X447835Y167323D02*
D03*
X437992D02*
D03*
X468504Y114173D02*
D03*
X466536Y118110D02*
D03*
X433071Y114173D02*
D03*
X462599Y110236D02*
D03*
X428150Y167323D02*
D03*
X419292Y118110D02*
D03*
X418307Y167323D02*
D03*
X417323Y114173D02*
D03*
X427166Y110236D02*
D03*
X413386Y106299D02*
D03*
X401575Y114173D02*
D03*
X395670Y110236D02*
D03*
X411417D02*
D03*
X615158Y78740D02*
D03*
X460630Y78740D02*
D03*
X444882D02*
D03*
X462599Y74803D02*
D03*
X460630Y70866D02*
D03*
X442914Y74803D02*
D03*
X444882Y70866D02*
D03*
X429134Y106299D02*
D03*
Y78740D02*
D03*
X413386D02*
D03*
X427166Y74803D02*
D03*
X411417D02*
D03*
X429134Y70866D02*
D03*
X395670Y74803D02*
D03*
X191893Y258211D02*
D03*
Y253881D02*
D03*
X187563D02*
D03*
X183232Y258211D02*
D03*
X187563D02*
D03*
X183232Y253881D02*
D03*
X379922Y110236D02*
D03*
X159835Y28655D02*
D03*
X164165D02*
D03*
Y19993D02*
D03*
Y24324D02*
D03*
X159835Y19993D02*
D03*
Y24324D02*
D03*
X525591Y200787D02*
D03*
X611221Y194882D02*
D03*
X555118Y200787D02*
D03*
X617126Y194882D02*
D03*
X620079Y200787D02*
D03*
X633390Y205598D02*
D03*
X534449Y206693D02*
D03*
X608268Y212598D02*
D03*
X587598Y206693D02*
D03*
X628937D02*
D03*
Y194882D02*
D03*
X531496Y200787D02*
D03*
X605315Y206693D02*
D03*
X552165D02*
D03*
X631890Y200787D02*
D03*
X549213D02*
D03*
X608268D02*
D03*
X590551Y212598D02*
D03*
X623032Y206693D02*
D03*
X608268Y188976D02*
D03*
X561024Y200787D02*
D03*
X596457Y212598D02*
D03*
X522638Y206693D02*
D03*
X593504D02*
D03*
X614173Y188976D02*
D03*
X611221Y206693D02*
D03*
X614173Y200787D02*
D03*
X620079Y212598D02*
D03*
X617126Y206693D02*
D03*
X581693D02*
D03*
X625984Y200787D02*
D03*
X561024Y177165D02*
D03*
X625984Y212598D02*
D03*
X602362D02*
D03*
X546260Y206693D02*
D03*
X561024Y165354D02*
D03*
X519685Y200787D02*
D03*
X584646Y212598D02*
D03*
X599409Y206693D02*
D03*
X561024Y188976D02*
D03*
X578740Y212598D02*
D03*
X528543Y206693D02*
D03*
X543307Y200787D02*
D03*
X575787Y206693D02*
D03*
X540354D02*
D03*
X605315Y194882D02*
D03*
X602362Y200787D02*
D03*
X569882Y206693D02*
D03*
X537402Y200787D02*
D03*
X614173Y212598D02*
D03*
X447835Y226378D02*
D03*
X442913Y216535D02*
D03*
X437992Y226378D02*
D03*
X428150D02*
D03*
X423228Y216535D02*
D03*
X413386D02*
D03*
X408465Y226378D02*
D03*
X403543Y216535D02*
D03*
X398622Y226378D02*
D03*
X388779D02*
D03*
X468504Y137795D02*
D03*
Y129921D02*
D03*
X466536Y133858D02*
D03*
Y125984D02*
D03*
X452756Y129921D02*
D03*
X450788Y133858D02*
D03*
Y125984D02*
D03*
X417323Y129921D02*
D03*
X419292Y125984D02*
D03*
X401575Y137795D02*
D03*
Y129921D02*
D03*
X370079D02*
D03*
X478347Y98425D02*
D03*
X460630Y86614D02*
D03*
X444882Y94488D02*
D03*
Y86614D02*
D03*
X429134Y94488D02*
D03*
Y86614D02*
D03*
X427166Y98425D02*
D03*
X413386Y94488D02*
D03*
Y86614D02*
D03*
X411417Y98425D02*
D03*
Y90551D02*
D03*
X395670Y98425D02*
D03*
Y90551D02*
D03*
X379922Y98425D02*
D03*
Y90551D02*
D03*
X462599Y62992D02*
D03*
X460630Y59055D02*
D03*
X462599Y55118D02*
D03*
X460630Y51181D02*
D03*
X444882Y59055D02*
D03*
Y51181D02*
D03*
X442914Y55118D02*
D03*
X429134Y59055D02*
D03*
X427166Y62992D02*
D03*
Y55118D02*
D03*
X411417Y62992D02*
D03*
Y55118D02*
D03*
X395670Y62992D02*
D03*
Y55118D02*
D03*
X379922Y62992D02*
D03*
Y55118D02*
D03*
X466535Y129921D02*
D03*
X419291D02*
D03*
X413386Y94488D02*
D03*
X395669Y59055D02*
D03*
X366142Y141732D02*
D03*
Y118110D02*
D03*
Y94488D02*
D03*
X360236Y129921D02*
D03*
X354331Y118110D02*
D03*
X360236Y106299D02*
D03*
X354331Y94488D02*
D03*
X360236Y82677D02*
D03*
X354331Y70866D02*
D03*
X360236Y35433D02*
D03*
X348425Y153543D02*
D03*
Y129921D02*
D03*
X342520Y118110D02*
D03*
X348425Y106299D02*
D03*
X342520Y94488D02*
D03*
X348425Y82677D02*
D03*
X342520Y70866D02*
D03*
X348425Y59055D02*
D03*
X342520Y47244D02*
D03*
X348425Y35433D02*
D03*
X336614Y129921D02*
D03*
X330709Y118110D02*
D03*
X336614Y106299D02*
D03*
X330709Y94488D02*
D03*
X336614Y82677D02*
D03*
X330709Y70866D02*
D03*
Y47244D02*
D03*
X336614Y35433D02*
D03*
X324803Y153543D02*
D03*
X318898Y118110D02*
D03*
X324803Y106299D02*
D03*
X318898Y94488D02*
D03*
X324803Y82677D02*
D03*
Y59055D02*
D03*
X318898Y47244D02*
D03*
X312992Y153543D02*
D03*
Y129921D02*
D03*
X307086Y118110D02*
D03*
X312992Y106299D02*
D03*
X307086Y94488D02*
D03*
X312992Y82677D02*
D03*
X307086Y70866D02*
D03*
X312992Y59055D02*
D03*
X307086Y47244D02*
D03*
X312992Y35433D02*
D03*
X301181Y153543D02*
D03*
X295275Y118110D02*
D03*
X301181Y106299D02*
D03*
X295275Y94488D02*
D03*
X301181Y82677D02*
D03*
X295275Y70866D02*
D03*
X301181Y59055D02*
D03*
X295275Y47244D02*
D03*
X289370Y153543D02*
D03*
Y129921D02*
D03*
Y106299D02*
D03*
Y82677D02*
D03*
Y59055D02*
D03*
Y35433D02*
D03*
X602362Y149606D02*
D03*
X598425Y125984D02*
D03*
X594488Y149606D02*
D03*
X590552Y125984D02*
D03*
X586615Y149606D02*
D03*
X582678Y125984D02*
D03*
X578741Y149606D02*
D03*
X574803Y125984D02*
D03*
X566929D02*
D03*
X559055Y141732D02*
D03*
X562992Y133858D02*
D03*
X559055Y125984D02*
D03*
X551181D02*
D03*
X543307D02*
D03*
X547244Y118110D02*
D03*
X543307Y110236D02*
D03*
X535433Y125984D02*
D03*
X539370Y118110D02*
D03*
X535433Y110236D02*
D03*
X527559Y125984D02*
D03*
X531496Y118110D02*
D03*
X527559Y110236D02*
D03*
Y94488D02*
D03*
X519685Y125984D02*
D03*
X523622Y118110D02*
D03*
X519685Y110236D02*
D03*
X523622Y102362D02*
D03*
X519685Y94488D02*
D03*
X515748Y149606D02*
D03*
X511811Y141732D02*
D03*
X515748Y133858D02*
D03*
X511811Y125984D02*
D03*
X515748Y118110D02*
D03*
X511811Y110236D02*
D03*
X515748Y102362D02*
D03*
X511811Y94488D02*
D03*
X507874Y149606D02*
D03*
X503937Y141732D02*
D03*
X507874Y133858D02*
D03*
Y118110D02*
D03*
X503937Y110236D02*
D03*
X507874Y102362D02*
D03*
X503937Y94488D02*
D03*
X500000Y149606D02*
D03*
X496063Y141732D02*
D03*
X500000Y118110D02*
D03*
X496063Y110236D02*
D03*
X500000Y102362D02*
D03*
X496063Y94488D02*
D03*
X492126Y149606D02*
D03*
X488189Y141732D02*
D03*
Y125984D02*
D03*
X492126Y118110D02*
D03*
X488189Y110236D02*
D03*
X492126Y102362D02*
D03*
X488189Y94488D02*
D03*
X643701Y100394D02*
D03*
X646653Y94488D02*
D03*
X643701Y88583D02*
D03*
Y64961D02*
D03*
Y53150D02*
D03*
X637795Y100394D02*
D03*
X640748Y94488D02*
D03*
X637795Y88583D02*
D03*
Y53150D02*
D03*
X631890Y64961D02*
D03*
Y53150D02*
D03*
X625984D02*
D03*
X623031Y82677D02*
D03*
X620079Y76772D02*
D03*
Y64961D02*
D03*
Y53150D02*
D03*
X82677Y261811D02*
D03*
X89567Y248031D02*
D03*
X82677Y234252D02*
D03*
X89567Y220473D02*
D03*
X82677Y206693D02*
D03*
X89567Y192913D02*
D03*
Y165354D02*
D03*
X82677Y151575D02*
D03*
X89567Y137795D02*
D03*
X82677Y124016D02*
D03*
X89567Y110236D02*
D03*
X82677Y96457D02*
D03*
X89567Y82677D02*
D03*
Y55118D02*
D03*
Y27559D02*
D03*
X82677Y13780D02*
D03*
X68898Y261811D02*
D03*
X75787Y248031D02*
D03*
X68898Y234252D02*
D03*
X75787Y220473D02*
D03*
X68898Y206693D02*
D03*
X75787Y165354D02*
D03*
Y110236D02*
D03*
Y55118D02*
D03*
Y27559D02*
D03*
X68898Y13780D02*
D03*
X62008Y248031D02*
D03*
X55118Y234252D02*
D03*
X62008Y220473D02*
D03*
X55118Y206693D02*
D03*
X62008Y192913D02*
D03*
Y165354D02*
D03*
Y110236D02*
D03*
Y82677D02*
D03*
Y55118D02*
D03*
X41339Y234252D02*
D03*
X48228Y220473D02*
D03*
Y192913D02*
D03*
Y165354D02*
D03*
X41339Y151575D02*
D03*
X48228Y137795D02*
D03*
Y82677D02*
D03*
Y55118D02*
D03*
X27559Y234252D02*
D03*
X34449Y220473D02*
D03*
Y192913D02*
D03*
X27559Y179134D02*
D03*
X34449Y165354D02*
D03*
X27559Y151575D02*
D03*
X34449Y137795D02*
D03*
Y110236D02*
D03*
Y55118D02*
D03*
X27559Y41339D02*
D03*
X13780Y261811D02*
D03*
X20669Y248031D02*
D03*
X13780Y234252D02*
D03*
Y151575D02*
D03*
X20669Y137795D02*
D03*
X13780Y124016D02*
D03*
Y41339D02*
D03*
X20669Y27559D02*
D03*
X13780Y13780D02*
D03*
X270669Y68898D02*
D03*
X265748Y59055D02*
D03*
X270669Y49213D02*
D03*
X260827Y68898D02*
D03*
X255906Y59055D02*
D03*
X260827Y49213D02*
D03*
X250984Y68898D02*
D03*
X246063Y59055D02*
D03*
X250984Y49213D02*
D03*
X608267Y82677D02*
D03*
X602362Y94488D02*
D03*
Y82677D02*
D03*
X596456Y94488D02*
D03*
X599409Y88583D02*
D03*
X596456Y82677D02*
D03*
X593504Y100394D02*
D03*
X590551Y94488D02*
D03*
X593504Y88583D02*
D03*
X590551Y82677D02*
D03*
X593504Y76772D02*
D03*
X587598Y88583D02*
D03*
X584646Y82677D02*
D03*
X587598Y76772D02*
D03*
X581693Y88583D02*
D03*
X578740Y82677D02*
D03*
X581693Y76772D02*
D03*
X575787Y88583D02*
D03*
X572834Y82677D02*
D03*
X575787Y76772D02*
D03*
X569882Y88583D02*
D03*
X566929Y82677D02*
D03*
X569882Y76772D02*
D03*
X561023Y94488D02*
D03*
X563976Y88583D02*
D03*
X561023Y82677D02*
D03*
X563976Y76772D02*
D03*
D156*
X271904Y137211D02*
D03*
X249016Y143701D02*
D03*
X236221Y146885D02*
D03*
X112205Y180927D02*
D03*
X616142Y129921D02*
D03*
X206693Y251969D02*
D03*
X134000Y16824D02*
D03*
X154000Y103000D02*
D03*
X45000Y84000D02*
D03*
X51000Y114000D02*
D03*
X66000Y106000D02*
D03*
X39000Y139000D02*
D03*
X55000Y161000D02*
D03*
X76000Y194000D02*
D03*
X536000Y70000D02*
D03*
X568000Y151000D02*
D03*
X523000D02*
D03*
X491000Y176000D02*
D03*
X266000Y137332D02*
D03*
X267000Y161000D02*
D03*
X580000Y218774D02*
D03*
X229000Y238000D02*
D03*
X166000Y250000D02*
D03*
X138000Y71000D02*
D03*
X129000Y47000D02*
D03*
X513779Y261811D02*
D03*
X509842Y265748D02*
D03*
X590551Y232283D02*
D03*
X505905Y242126D02*
D03*
X490158Y261811D02*
D03*
Y265748D02*
D03*
X259842Y244179D02*
D03*
X623694Y131568D02*
D03*
X248031Y228346D02*
D03*
Y218504D02*
D03*
X111439Y192147D02*
D03*
X122122Y161122D02*
D03*
X127953Y107000D02*
D03*
X117000Y17000D02*
D03*
X133140Y28591D02*
D03*
X122118Y28622D02*
D03*
X584010Y59628D02*
D03*
X549213Y72835D02*
D03*
X523622Y62286D02*
D03*
X584646Y100394D02*
D03*
X561024D02*
D03*
X521654Y72835D02*
D03*
X488189Y68898D02*
D03*
X383858Y148728D02*
D03*
X366142Y157333D02*
D03*
X375984Y222441D02*
D03*
X362205D02*
D03*
X266668Y270734D02*
D03*
X175197Y266025D02*
D03*
X372047Y196850D02*
D03*
X137795Y146885D02*
D03*
X460630Y179134D02*
D03*
X133858Y127953D02*
D03*
X488189Y72835D02*
D03*
X490158Y76772D02*
D03*
X124016Y139764D02*
D03*
Y143701D02*
D03*
X137795Y82677D02*
D03*
X281496Y78740D02*
D03*
Y158233D02*
D03*
X543307Y210630D02*
D03*
X153543Y82677D02*
D03*
X277559D02*
D03*
Y161417D02*
D03*
X543307Y216412D02*
D03*
X257874Y238189D02*
D03*
X112205Y184327D02*
D03*
X614173Y120079D02*
D03*
X210630Y165354D02*
D03*
X468273Y192913D02*
D03*
X500000Y37402D02*
D03*
X338000Y229000D02*
D03*
X337000Y245000D02*
D03*
Y262000D02*
D03*
X278000Y247000D02*
D03*
X282000D02*
D03*
X285816D02*
D03*
X325000Y262000D02*
D03*
X311000D02*
D03*
X298000D02*
D03*
M02*
