G04*
G04 #@! TF.GenerationSoftware,Altium Limited,Altium Designer,26.1.1 (7)*
G04*
G04 Layer_Color=32896*
%FSLAX25Y25*%
%MOIN*%
G70*
G04*
G04 #@! TF.SameCoordinates,96ADB110-FC6B-4EA1-8182-D0924A2AF432*
G04*
G04*
G04 #@! TF.FilePolarity,Positive*
G04*
G01*
G75*
%ADD13C,0.01000*%
%ADD14C,0.01968*%
%ADD120C,0.03937*%
%ADD157R,0.11811X0.11811*%
G36*
X113334Y185313D02*
X113771Y185280D01*
X114844Y185213D01*
X114945Y185179D01*
X115851Y185146D01*
X116304Y185095D01*
X116707Y185028D01*
X117462Y184978D01*
X117797Y184944D01*
X118200Y184877D01*
X118300Y184844D01*
X118904Y184810D01*
X119139Y184776D01*
X119374Y184709D01*
X119542Y184642D01*
X120045Y184609D01*
X120381Y184575D01*
X120649Y184508D01*
X120750Y184475D01*
X121287Y184441D01*
X121421Y184407D01*
X121706Y184324D01*
X122025Y184273D01*
X122260Y184240D01*
X122646Y184122D01*
X123166Y184072D01*
X123468Y183938D01*
X123904Y183904D01*
X124038Y183871D01*
X124273Y183770D01*
X124743Y183703D01*
X124961Y183619D01*
X125179Y183569D01*
X125414Y183535D01*
X125716Y183401D01*
X126152Y183367D01*
X126353Y183233D01*
X126723Y183200D01*
X127024Y183065D01*
X127326Y183032D01*
X127628Y182897D01*
X127863Y182864D01*
X128098Y182763D01*
X128232Y182730D01*
X128249Y182713D01*
X128367Y182696D01*
X128501Y182663D01*
X128803Y182528D01*
X129004Y182495D01*
X129239Y182428D01*
X129306Y182361D01*
X129507Y182327D01*
X129809Y182193D01*
X130078Y182126D01*
X130229Y182075D01*
X130397Y182008D01*
X130682Y181958D01*
X130900Y181841D01*
X131085Y181790D01*
X131386Y181656D01*
X131521Y181622D01*
X131957Y181455D01*
X132192Y181354D01*
X132360Y181287D01*
X132494Y181253D01*
X132678Y181169D01*
X132896Y181086D01*
X133131Y180985D01*
X133299Y180918D01*
X133584Y180800D01*
X133802Y180717D01*
X134104Y180582D01*
X134272Y180515D01*
X134339Y180482D01*
X134390Y180431D01*
X134574Y180381D01*
X134943Y180213D01*
X136654Y179374D01*
X136789Y179341D01*
X137040Y179190D01*
X137225Y179139D01*
X137493Y178972D01*
X137728Y178838D01*
X138299Y178535D01*
X138533Y178401D01*
X138735Y178267D01*
X138869Y178234D01*
X138936Y178166D01*
X139641Y177764D01*
X139842Y177629D01*
X139909Y177596D01*
X140278Y177361D01*
X140345Y177328D01*
X140412Y177260D01*
X140715Y177093D01*
X140949Y176958D01*
X141016Y176891D01*
X141084Y176858D01*
X141201Y176707D01*
X141167Y176573D01*
X141050Y176522D01*
X140899Y176573D01*
X140715Y176724D01*
X140345Y176925D01*
X140278Y176992D01*
X140211Y177025D01*
X140010Y177160D01*
X139943Y177193D01*
X139741Y177328D01*
X139506Y177462D01*
X139238Y177629D01*
X138533Y177999D01*
X138466Y178066D01*
X138030Y178301D01*
X137862Y178401D01*
X137560Y178569D01*
X136990Y178871D01*
X136621Y179039D01*
X136386Y179173D01*
X135212Y179743D01*
X135027Y179827D01*
X134708Y179945D01*
X134658Y179995D01*
X134440Y180079D01*
X134306Y180113D01*
X134239Y180180D01*
X134071Y180247D01*
X133467Y180515D01*
X133299Y180582D01*
X132645Y180834D01*
X132326Y180951D01*
X132091Y181052D01*
X131923Y181119D01*
X131705Y181203D01*
X131135Y181404D01*
X130917Y181488D01*
X130631Y181606D01*
X130447Y181656D01*
X130162Y181740D01*
X129742Y181891D01*
X129558Y181975D01*
X129340Y182025D01*
X129122Y182109D01*
X128769Y182193D01*
X128585Y182277D01*
X128400Y182327D01*
X128266Y182361D01*
X128081Y182411D01*
X127914Y182478D01*
X127729Y182528D01*
X127192Y182696D01*
X127058Y182730D01*
X126723Y182830D01*
X126488Y182864D01*
X126303Y182914D01*
X126135Y182981D01*
X125951Y183032D01*
X125682Y183099D01*
X125447Y183166D01*
X125179Y183233D01*
X124944Y183267D01*
X124709Y183334D01*
X124525Y183384D01*
X124357Y183418D01*
X124156Y183451D01*
X123753Y183552D01*
X123434Y183602D01*
X123166Y183669D01*
X122998Y183736D01*
X122595Y183770D01*
X122461Y183803D01*
X122176Y183887D01*
X122042Y183921D01*
X121740Y183954D01*
X121538Y183988D01*
X121371Y184022D01*
X121102Y184089D01*
X120800Y184122D01*
X120465Y184189D01*
X120062Y184256D01*
X119626Y184290D01*
X119424Y184324D01*
X119290Y184357D01*
X119123Y184391D01*
X118921Y184424D01*
X118653Y184458D01*
X118284Y184491D01*
X118015Y184525D01*
X117847Y184558D01*
X117579Y184592D01*
X117143Y184625D01*
X116841Y184659D01*
X116438Y184693D01*
X116069Y184726D01*
X115398Y184793D01*
X114962Y184827D01*
X114593Y184860D01*
X114022Y184894D01*
X112630Y184944D01*
X112529Y184978D01*
X109358Y184961D01*
X108217Y184927D01*
X107580Y184894D01*
X107043Y184860D01*
X106305Y184793D01*
X105768Y184726D01*
X105399Y184693D01*
X104392Y184592D01*
X104124Y184558D01*
X103520Y184458D01*
X103067Y184407D01*
X102933Y184374D01*
X102748Y184324D01*
X102580Y184290D01*
X102379Y184256D01*
X102077Y184223D01*
X101909Y184189D01*
X101775Y184156D01*
X101439Y184089D01*
X101221Y184038D01*
X101087Y184005D01*
X100903Y183954D01*
X100617Y183904D01*
X100232Y183787D01*
X100097Y183753D01*
X99779Y183703D01*
X99560Y183619D01*
X99376Y183569D01*
X99242Y183535D01*
X98805Y183401D01*
X98520Y183317D01*
X98352Y183250D01*
X98134Y183200D01*
X97849Y183082D01*
X97631Y183032D01*
X97447Y182948D01*
X97128Y182830D01*
X96977Y182780D01*
X96759Y182696D01*
X96524Y182596D01*
X96021Y182361D01*
X95853Y182293D01*
X95685Y182193D01*
X95618Y182159D01*
X95316Y182025D01*
X95215Y181992D01*
X95014Y181857D01*
X94712Y181690D01*
X94477Y181555D01*
X94175Y181388D01*
X93940Y181220D01*
X93873Y181186D01*
X93403Y180851D01*
X93336Y180817D01*
X93269Y180750D01*
X93202Y180717D01*
X93135Y180649D01*
X93068Y180616D01*
X92833Y180381D01*
X92766Y180347D01*
X92397Y179978D01*
X92330Y179945D01*
X92246Y179861D01*
X92212Y179794D01*
X91944Y179525D01*
X91910Y179458D01*
X91793Y179341D01*
X91474Y178921D01*
X91440Y178854D01*
X91340Y178754D01*
X91306Y178686D01*
X91239Y178619D01*
X90769Y177713D01*
X90635Y177512D01*
X90601Y177244D01*
X90568Y177109D01*
X90434Y176673D01*
X90400Y176573D01*
X90367Y175935D01*
X90333Y175801D01*
X90283Y175751D01*
X90149Y175717D01*
X89998Y175901D01*
X90031Y176405D01*
X90065Y176539D01*
X90098Y176874D01*
X90216Y177260D01*
X90249Y177395D01*
X90400Y177814D01*
X90434Y177948D01*
X90501Y178116D01*
X90736Y178552D01*
X90769Y178653D01*
X90904Y178854D01*
X91004Y179022D01*
X91138Y179223D01*
X91172Y179290D01*
X91273Y179391D01*
X91306Y179458D01*
X91508Y179659D01*
X91541Y179727D01*
X91776Y179962D01*
X91809Y180029D01*
X92263Y180482D01*
X92330Y180515D01*
X92564Y180750D01*
X92632Y180784D01*
X92732Y180884D01*
X92799Y180918D01*
X92933Y181052D01*
X93001Y181086D01*
X93068Y181153D01*
X93135Y181186D01*
X93202Y181253D01*
X93269Y181287D01*
X93739Y181622D01*
X94108Y181824D01*
X94175Y181891D01*
X94745Y182193D01*
X95014Y182361D01*
X95517Y182629D01*
X95685Y182696D01*
X95987Y182830D01*
X96423Y183032D01*
X96557Y183065D01*
X96776Y183183D01*
X97027Y183233D01*
X97228Y183367D01*
X97497Y183401D01*
X97715Y183518D01*
X97933Y183569D01*
X98235Y183703D01*
X98504Y183736D01*
X98805Y183871D01*
X99007Y183904D01*
X99141Y183938D01*
X99309Y184005D01*
X99426Y184055D01*
X99812Y184105D01*
X99946Y184139D01*
X100181Y184240D01*
X100450Y184273D01*
X100584Y184307D01*
X100819Y184407D01*
X101356Y184475D01*
X101691Y184575D01*
X101825Y184609D01*
X102261Y184642D01*
X102396Y184676D01*
X102580Y184760D01*
X102748Y184793D01*
X103352Y184827D01*
X103520Y184860D01*
X103704Y184911D01*
X103805Y184944D01*
X104376Y184978D01*
X104828Y185028D01*
X104963Y185062D01*
X105130Y185095D01*
X105567Y185129D01*
X106171Y185162D01*
X106825Y185213D01*
X106926Y185246D01*
X107462Y185280D01*
X107563Y185313D01*
X111388Y185347D01*
X113334Y185313D01*
D02*
G37*
G36*
X128635Y181555D02*
X128803Y181488D01*
X129038Y181455D01*
X129407Y181287D01*
X129541Y181253D01*
X129759Y181136D01*
X129977Y181052D01*
X130246Y180884D01*
X130313Y180851D01*
X130548Y180616D01*
X130615Y180582D01*
X130782Y180414D01*
X130950Y180213D01*
X131101Y180029D01*
X131135Y179962D01*
X131269Y179827D01*
X131521Y179341D01*
X131705Y178821D01*
X131739Y178686D01*
X131839Y178452D01*
X131873Y177176D01*
X131839Y176942D01*
X131672Y176573D01*
X131638Y176438D01*
X131571Y176271D01*
X131403Y175901D01*
X131370Y175767D01*
X131236Y175633D01*
X131202Y175566D01*
X131101Y175465D01*
X131068Y175398D01*
X130967Y175297D01*
X130933Y175230D01*
X130799Y175096D01*
X130766Y175029D01*
X130665Y174962D01*
X130481Y174811D01*
X130178Y174576D01*
X129608Y174274D01*
X129541Y174241D01*
X129491Y174190D01*
X129457Y174090D01*
X129541Y174006D01*
X129608Y173972D01*
X129709Y174006D01*
X144036Y174039D01*
X144221Y173989D01*
X144204Y173905D01*
X141654Y173872D01*
X129876D01*
X129776Y173905D01*
X128937Y173872D01*
X128702Y173905D01*
X128602Y173872D01*
X127729Y173905D01*
X127628Y173872D01*
X126890Y173905D01*
X126790Y173872D01*
X126538Y173888D01*
X98873Y173872D01*
X98537Y173905D01*
X98403Y173939D01*
X98302Y173905D01*
X97631Y173872D01*
X96591Y173905D01*
X96255Y173872D01*
X95618Y173905D01*
X95517Y173872D01*
X95232Y173888D01*
X85149Y173872D01*
X85015Y173905D01*
X84998Y173989D01*
X85082Y174039D01*
X85501Y174022D01*
X94913Y174039D01*
X95014Y174006D01*
X95232Y174022D01*
X95416Y174073D01*
X95500Y174157D01*
X95450Y174274D01*
X95148Y174442D01*
X94813Y174643D01*
X94745Y174677D01*
X94678Y174744D01*
X94611Y174777D01*
X94511Y174878D01*
X94444Y174912D01*
X94091Y175264D01*
X94058Y175331D01*
X94007Y175381D01*
X93688Y175801D01*
X93487Y176170D01*
X93353Y176472D01*
X93286Y176640D01*
X93235Y176824D01*
X93202Y176992D01*
X93135Y177260D01*
X93101Y177730D01*
X93135Y178368D01*
X93168Y178535D01*
X93235Y178804D01*
X93286Y179022D01*
X93420Y179324D01*
X93588Y179693D01*
X93756Y179962D01*
X93789Y180029D01*
X93890Y180129D01*
X93923Y180196D01*
X94259Y180532D01*
X94292Y180599D01*
X94343Y180649D01*
X94460Y180733D01*
X94645Y180884D01*
X95148Y181153D01*
X95215Y181220D01*
X95282Y181253D01*
X95416Y181287D01*
X95584Y181354D01*
X95651Y181421D01*
X95953Y181455D01*
X96088Y181488D01*
X96188Y181522D01*
X96457Y181555D01*
X96557Y181589D01*
X97044Y181572D01*
X97413Y181539D01*
X97547Y181505D01*
X97799Y181455D01*
X97933Y181421D01*
X98235Y181287D01*
X98369Y181253D01*
X98604Y181119D01*
X98671Y181086D01*
X99040Y180851D01*
X99342Y180616D01*
X99410Y180582D01*
X99644Y180347D01*
X99913Y180012D01*
X100064Y179827D01*
X100215Y179542D01*
X100450Y179072D01*
X100550Y178804D01*
X100601Y178586D01*
X100634Y178485D01*
X100668Y177613D01*
X100634Y177176D01*
X100601Y176942D01*
X100567Y176807D01*
X100500Y176573D01*
X100416Y176287D01*
X100332Y176069D01*
X100097Y175734D01*
X99963Y175499D01*
X99896Y175432D01*
X99762Y175197D01*
X99678Y175113D01*
X99611Y175079D01*
X99560Y175029D01*
X99376Y174878D01*
X99309Y174845D01*
X99175Y174710D01*
X99107Y174677D01*
X99040Y174610D01*
X98336Y174241D01*
X98252Y174157D01*
X98285Y174022D01*
X98369Y173972D01*
X98671Y174006D01*
X98772Y174039D01*
X98923Y174022D01*
X125682Y174039D01*
X126320Y174006D01*
X126454Y174039D01*
X126672Y174123D01*
X126706Y174190D01*
X126622Y174274D01*
X126253Y174475D01*
X126018Y174610D01*
X125951Y174677D01*
X125884Y174710D01*
X125783Y174811D01*
X125716Y174845D01*
X125615Y174945D01*
X125548Y174979D01*
X125330Y175197D01*
X125296Y175264D01*
X125246Y175314D01*
X125078Y175516D01*
X124793Y175935D01*
X124692Y176103D01*
X124508Y176489D01*
X124474Y176623D01*
X124390Y177009D01*
X124323Y177176D01*
X124290Y177646D01*
X124256Y177747D01*
X124273Y177864D01*
X124307Y178301D01*
X124340Y178435D01*
X124390Y178653D01*
X124424Y178787D01*
X124458Y179022D01*
X124827Y179794D01*
X124994Y180029D01*
X125028Y180096D01*
X125229Y180297D01*
X125263Y180364D01*
X125330Y180431D01*
X125414Y180549D01*
X125531Y180633D01*
X125951Y180951D01*
X126320Y181153D01*
X126370Y181203D01*
X126588Y181287D01*
X126689Y181321D01*
X126756Y181354D01*
X126823Y181421D01*
X127024Y181455D01*
X127259Y181488D01*
X127393Y181522D01*
X127494Y181555D01*
X128400Y181589D01*
X128635Y181555D01*
D02*
G37*
G36*
X141486Y165516D02*
X141570Y165366D01*
X141553Y165147D01*
X141570Y159762D01*
X141537Y159527D01*
X141486Y159477D01*
X141419Y159443D01*
X141285Y159410D01*
X141184Y159443D01*
X140782Y159410D01*
X140647Y159443D01*
X140597Y159494D01*
X140563Y161473D01*
X140530Y162010D01*
X140446Y162295D01*
X140362Y162513D01*
X140295Y162581D01*
X140261Y162648D01*
X140211Y162698D01*
X139909Y162933D01*
X139372Y162966D01*
X139238Y162933D01*
X139070Y162832D01*
X139054Y162815D01*
X139037Y162799D01*
X138970Y162765D01*
X138852Y162614D01*
X138819Y162547D01*
X138668Y162295D01*
X138634Y162127D01*
X138601Y161557D01*
X138617Y159628D01*
X138584Y159494D01*
X138466Y159443D01*
X138366Y159410D01*
X138299Y159443D01*
X137896Y159410D01*
X137711Y159494D01*
X137678Y162480D01*
X137711Y162916D01*
X137913Y163352D01*
X137980Y163419D01*
X138013Y163487D01*
X138064Y163537D01*
X138131Y163570D01*
X138366Y163738D01*
X138584Y163822D01*
X138802Y163872D01*
X138903Y163906D01*
X139188Y163889D01*
X139607Y163805D01*
X140111Y163570D01*
X140278Y163503D01*
X140480Y163537D01*
X140530Y163587D01*
X140563Y165466D01*
X140647Y165550D01*
X141218Y165584D01*
X141486Y165516D01*
D02*
G37*
G36*
X124642Y171690D02*
X124810Y171623D01*
X125078Y171590D01*
X125313Y171556D01*
X125615Y171422D01*
X125749Y171388D01*
X126051Y171254D01*
X126186Y171221D01*
X126353Y171154D01*
X126723Y170952D01*
X126890Y170852D01*
X127092Y170717D01*
X127259Y170617D01*
X127326Y170550D01*
X127444Y170466D01*
X127628Y170315D01*
X127696Y170281D01*
X127813Y170164D01*
X127847Y170097D01*
X127947Y170029D01*
X127981Y169962D01*
X128350Y169593D01*
X128383Y169526D01*
X128451Y169459D01*
X128484Y169392D01*
X128618Y169258D01*
X128652Y169191D01*
X128853Y168989D01*
X129021Y168687D01*
X129189Y168318D01*
X129256Y168251D01*
X129390Y168016D01*
X129474Y167832D01*
X129591Y167513D01*
X129642Y167328D01*
X129675Y167161D01*
X129759Y166808D01*
X129860Y166439D01*
X129893Y166339D01*
X129927Y165064D01*
X129876Y164611D01*
X129843Y164476D01*
X129759Y164091D01*
X129709Y163906D01*
X129658Y163688D01*
X129591Y163419D01*
X129524Y163184D01*
X129122Y162346D01*
X129071Y162295D01*
X128987Y162077D01*
X128820Y161809D01*
X128786Y161742D01*
X128685Y161641D01*
X128652Y161574D01*
X128551Y161473D01*
X128518Y161406D01*
X128383Y161272D01*
X128350Y161205D01*
X128148Y161003D01*
X128115Y160936D01*
X127998Y160819D01*
X127930Y160785D01*
X127796Y160651D01*
X127729Y160618D01*
X127595Y160483D01*
X127528Y160450D01*
X127461Y160383D01*
X127393Y160349D01*
X127326Y160282D01*
X127259Y160248D01*
X127024Y160081D01*
X126655Y159879D01*
X126639Y159863D01*
X126572Y159829D01*
X126202Y159661D01*
X125766Y159494D01*
X125598Y159426D01*
X125380Y159376D01*
X125095Y159292D01*
X124927Y159259D01*
X124659Y159225D01*
X124105Y159175D01*
X124005Y159141D01*
X122780Y159158D01*
X122394Y159208D01*
X121924Y159275D01*
X121790Y159309D01*
X121622Y159376D01*
X121421Y159410D01*
X121287Y159443D01*
X120985Y159577D01*
X120213Y159947D01*
X119877Y160181D01*
X119810Y160215D01*
X119743Y160282D01*
X119676Y160316D01*
X119575Y160416D01*
X119508Y160450D01*
X119273Y160685D01*
X119206Y160718D01*
X119089Y160836D01*
X119055Y160903D01*
X118904Y161054D01*
X118418Y161708D01*
X118250Y162010D01*
X118082Y162278D01*
X118049Y162346D01*
X117931Y162564D01*
X117847Y162782D01*
X117763Y162966D01*
X117680Y163184D01*
X117613Y163352D01*
X117545Y163621D01*
X117512Y163856D01*
X117445Y164124D01*
X117411Y164225D01*
X117378Y164728D01*
X117344Y164862D01*
X117378Y165097D01*
X117344Y165198D01*
X117394Y165382D01*
X117512Y165466D01*
X122159Y165449D01*
X123099Y165483D01*
X123233Y165449D01*
X123317Y165366D01*
X123350Y163654D01*
X123317Y163520D01*
X123266Y163470D01*
X121119Y163436D01*
X120985Y163470D01*
X120750Y163436D01*
X120515Y163470D01*
X120179Y163436D01*
X120045Y163403D01*
X119961Y163319D01*
X119928Y163184D01*
X119995Y163017D01*
X120129Y162782D01*
X120263Y162581D01*
X120297Y162513D01*
X120851Y161960D01*
X120918Y161926D01*
X121152Y161758D01*
X121387Y161624D01*
X121555Y161524D01*
X121689Y161490D01*
X121975Y161373D01*
X122142Y161339D01*
X122411Y161305D01*
X122797Y161222D01*
X122897Y161188D01*
X123518Y161205D01*
X123719Y161238D01*
X124105Y161322D01*
X124441Y161356D01*
X124575Y161389D01*
X124642Y161457D01*
X124910Y161524D01*
X125548Y161826D01*
X125984Y162127D01*
X126051Y162161D01*
X126286Y162396D01*
X126353Y162429D01*
X126538Y162614D01*
X126572Y162681D01*
X126840Y162950D01*
X126874Y163017D01*
X126957Y163101D01*
X127125Y163369D01*
X127326Y163705D01*
X127461Y164040D01*
X127628Y164510D01*
X127662Y164678D01*
X127712Y165097D01*
X127746Y165198D01*
X127729Y165953D01*
X127696Y166121D01*
X127662Y166456D01*
X127595Y166725D01*
X127477Y167043D01*
X127310Y167412D01*
X127108Y167781D01*
X126941Y168016D01*
X126907Y168083D01*
X126286Y168704D01*
X126219Y168738D01*
X126135Y168822D01*
X125531Y169224D01*
X125364Y169291D01*
X125179Y169342D01*
X125129Y169392D01*
X124910Y169476D01*
X124776Y169509D01*
X124491Y169593D01*
X124290Y169627D01*
X123568Y169677D01*
X122830Y169644D01*
X122595Y169610D01*
X122260Y169509D01*
X121991Y169442D01*
X121555Y169275D01*
X121186Y169107D01*
X120951Y168939D01*
X120884Y168905D01*
X120716Y168805D01*
X120649Y168771D01*
X120582Y168704D01*
X120515Y168671D01*
X120414Y168570D01*
X120347Y168536D01*
X120213Y168402D01*
X120146Y168369D01*
X120129Y168318D01*
X119945Y168167D01*
X119844Y168134D01*
X119710Y168167D01*
X118468Y169409D01*
X118317Y169593D01*
X118384Y169761D01*
X118569Y169946D01*
X118636Y169979D01*
X118904Y170248D01*
X118972Y170281D01*
X119055Y170365D01*
X119475Y170684D01*
X119542Y170717D01*
X119777Y170885D01*
X120280Y171154D01*
X120381Y171187D01*
X120750Y171355D01*
X121018Y171422D01*
X121320Y171556D01*
X121656Y171590D01*
X121891Y171657D01*
X122058Y171724D01*
X124172Y171758D01*
X124642Y171690D01*
D02*
G37*
G36*
X89477Y168536D02*
X89712Y168436D01*
X90216Y168402D01*
X90451Y168335D01*
X90518Y168268D01*
X90753Y168234D01*
X90987Y168134D01*
X91256Y168033D01*
X91424Y167932D01*
X91793Y167731D01*
X91860Y167698D01*
X91927Y167630D01*
X91994Y167597D01*
X92061Y167530D01*
X92128Y167496D01*
X92195Y167429D01*
X92263Y167395D01*
X92363Y167295D01*
X92430Y167261D01*
X92598Y167094D01*
X92665Y167060D01*
X92850Y166875D01*
X92883Y166808D01*
X92950Y166741D01*
X93118Y166439D01*
X93252Y166238D01*
X93336Y166121D01*
X93504Y165852D01*
X93722Y165231D01*
X93840Y164845D01*
X93907Y164678D01*
X93940Y164543D01*
X93974Y163839D01*
X93957Y163218D01*
X93923Y162983D01*
X93873Y162832D01*
X93756Y162513D01*
X93621Y162077D01*
X93588Y161943D01*
X93454Y161641D01*
X93219Y161272D01*
X93185Y161205D01*
X93118Y161138D01*
X93085Y161071D01*
X92917Y160836D01*
X92883Y160769D01*
X92497Y160383D01*
X92430Y160349D01*
X92279Y160198D01*
X92263Y160181D01*
X92061Y160047D01*
X91994Y160014D01*
X91927Y159947D01*
X91424Y159678D01*
X91155Y159577D01*
X90937Y159494D01*
X90769Y159426D01*
X90383Y159343D01*
X90283Y159309D01*
X90014Y159275D01*
X89914Y159242D01*
X89008Y159208D01*
X88471Y159242D01*
X88035Y159275D01*
X87900Y159309D01*
X87665Y159376D01*
X87531Y159410D01*
X87296Y159443D01*
X86994Y159577D01*
X86860Y159611D01*
X86625Y159712D01*
X86105Y159997D01*
X85921Y160148D01*
X85854Y160181D01*
X85719Y160316D01*
X85652Y160349D01*
X85250Y160752D01*
X85099Y160936D01*
X85065Y161104D01*
X85451Y161389D01*
X85686Y161524D01*
X86391Y162027D01*
X86558Y162060D01*
X86726Y161993D01*
X86793Y161960D01*
X86944Y161809D01*
X87129Y161658D01*
X87364Y161524D01*
X87531Y161457D01*
X87598Y161423D01*
X87665Y161356D01*
X87934Y161322D01*
X88135Y161188D01*
X89511Y161154D01*
X89645Y161188D01*
X89880Y161289D01*
X90048Y161322D01*
X90551Y161557D01*
X90618Y161591D01*
X90685Y161658D01*
X90753Y161691D01*
X90820Y161758D01*
X90887Y161792D01*
X91122Y162027D01*
X91440Y162446D01*
X91608Y162748D01*
X91659Y162866D01*
X91709Y163084D01*
X91776Y163252D01*
X91809Y163621D01*
X91843Y163721D01*
X91826Y164107D01*
X91793Y164376D01*
X91759Y164543D01*
X91726Y164678D01*
X91675Y164896D01*
X91508Y165265D01*
X91440Y165332D01*
X91407Y165399D01*
X91340Y165466D01*
X91306Y165533D01*
X91206Y165634D01*
X91172Y165701D01*
X90987Y165886D01*
X90920Y165919D01*
X90719Y166121D01*
X90484Y166255D01*
X90165Y166406D01*
X89947Y166490D01*
X89712Y166523D01*
X89545Y166590D01*
X89008Y166624D01*
X88471Y166590D01*
X88286Y166540D01*
X88068Y166490D01*
X87833Y166422D01*
X87531Y166288D01*
X87364Y166188D01*
X87296Y166154D01*
X87229Y166087D01*
X87162Y166053D01*
X86994Y165886D01*
X86927Y165852D01*
X86793Y165718D01*
X86625Y165684D01*
X86323Y165819D01*
X86021Y165986D01*
X85954Y166020D01*
X85887Y166087D01*
X85048Y166523D01*
X84931Y166674D01*
X84998Y166842D01*
X85048Y166892D01*
X85115Y166926D01*
X85166Y166976D01*
X85199Y167043D01*
X85501Y167345D01*
X85686Y167496D01*
X85988Y167731D01*
X86290Y167899D01*
X86491Y168033D01*
X86625Y168067D01*
X86827Y168201D01*
X87028Y168234D01*
X87330Y168369D01*
X87733Y168402D01*
X87867Y168436D01*
X88102Y168536D01*
X89142Y168570D01*
X89477Y168536D01*
D02*
G37*
G36*
X111690D02*
X111925Y168436D01*
X112361Y168402D01*
X112496Y168369D01*
X112663Y168268D01*
X112831Y168234D01*
X113401Y167966D01*
X113469Y167932D01*
X113704Y167765D01*
X113771Y167731D01*
X113838Y167664D01*
X113905Y167630D01*
X113972Y167563D01*
X114039Y167530D01*
X114559Y167010D01*
X114593Y166943D01*
X114660Y166875D01*
X114693Y166808D01*
X114844Y166657D01*
X114995Y166473D01*
X115146Y166188D01*
X115264Y165869D01*
X115364Y165701D01*
X115398Y165634D01*
X115482Y165449D01*
X115566Y165231D01*
X115599Y164996D01*
X115666Y164829D01*
X115700Y164325D01*
X115734Y164225D01*
X115717Y163302D01*
X115666Y162983D01*
X115633Y162849D01*
X115599Y162748D01*
X115566Y162346D01*
X115465Y162111D01*
X115398Y161943D01*
X115062Y161238D01*
X114895Y161003D01*
X114861Y160936D01*
X114760Y160836D01*
X114727Y160769D01*
X114609Y160651D01*
X114542Y160618D01*
X114492Y160567D01*
X114458Y160500D01*
X114341Y160383D01*
X114274Y160349D01*
X114140Y160215D01*
X113838Y159980D01*
X113603Y159846D01*
X113167Y159611D01*
X112814Y159460D01*
X112462Y159376D01*
X112227Y159309D01*
X112126Y159275D01*
X111590Y159242D01*
X111489Y159208D01*
X110667Y159225D01*
X110046Y159275D01*
X109912Y159309D01*
X109727Y159359D01*
X109509Y159410D01*
X109375Y159443D01*
X108939Y159611D01*
X108503Y159812D01*
X108033Y160148D01*
X107966Y160181D01*
X107764Y160383D01*
X107697Y160416D01*
X107580Y160534D01*
X107546Y160601D01*
X107412Y160702D01*
X107378Y160769D01*
X107244Y160903D01*
X107211Y160970D01*
X107144Y161037D01*
X107177Y161138D01*
X107362Y161289D01*
X107462Y161322D01*
X107832Y161490D01*
X108536Y161826D01*
X108805Y161859D01*
X108939Y161826D01*
X109039Y161725D01*
X109107Y161691D01*
X109207Y161591D01*
X109442Y161457D01*
X109493Y161406D01*
X109811Y161289D01*
X109979Y161188D01*
X110315Y161154D01*
X110549Y161087D01*
X110684Y161054D01*
X110918Y161020D01*
X111355Y161054D01*
X111522Y161121D01*
X111791Y161154D01*
X111925Y161188D01*
X112428Y161389D01*
X112663Y161557D01*
X112730Y161591D01*
X112898Y161758D01*
X112965Y161792D01*
X113016Y161842D01*
X113049Y161909D01*
X113116Y161977D01*
X113351Y162278D01*
X113502Y162564D01*
X113586Y162782D01*
X113653Y162950D01*
X113687Y163184D01*
X113603Y163268D01*
X106624Y163302D01*
X106489Y163336D01*
X106439Y163386D01*
X106405Y163956D01*
X106456Y164409D01*
X106489Y164611D01*
X106540Y164963D01*
X106573Y165097D01*
X106708Y165533D01*
X106741Y165667D01*
X106909Y166104D01*
X107043Y166305D01*
X107077Y166439D01*
X107244Y166674D01*
X107278Y166741D01*
X107412Y166875D01*
X107446Y166943D01*
X108033Y167530D01*
X108100Y167563D01*
X108234Y167698D01*
X108251Y167714D01*
X108335Y167765D01*
X109073Y168167D01*
X109140Y168201D01*
X109409Y168268D01*
X109576Y168369D01*
X110012Y168402D01*
X110147Y168436D01*
X110382Y168536D01*
X111455Y168570D01*
X111690Y168536D01*
D02*
G37*
G36*
X100785D02*
X101020Y168436D01*
X101456Y168402D01*
X101825Y168234D01*
X101960Y168201D01*
X102530Y167932D01*
X102597Y167899D01*
X102798Y167765D01*
X102866Y167731D01*
X102933Y167664D01*
X103000Y167630D01*
X103134Y167496D01*
X103201Y167463D01*
X103302Y167362D01*
X103369Y167328D01*
X103537Y167161D01*
X103688Y166976D01*
X103721Y166909D01*
X103855Y166775D01*
X104090Y166473D01*
X104225Y166238D01*
X104426Y165802D01*
X104543Y165516D01*
X104594Y165332D01*
X104728Y165131D01*
X104761Y164896D01*
Y164862D01*
X104795Y164359D01*
X104828Y164258D01*
X104812Y163268D01*
X104761Y162648D01*
X104694Y162480D01*
X104594Y162245D01*
X104560Y162111D01*
X104426Y161775D01*
X104124Y161138D01*
X104057Y161071D01*
X104023Y161003D01*
X103889Y160869D01*
X103855Y160802D01*
X103436Y160383D01*
X103369Y160349D01*
X103235Y160215D01*
X103167Y160181D01*
X103000Y160014D01*
X102933Y159980D01*
X102866Y159913D01*
X102362Y159645D01*
X102094Y159544D01*
X101909Y159460D01*
X101725Y159410D01*
X101591Y159376D01*
X101305Y159292D01*
X100970Y159259D01*
X100148Y159208D01*
X99611Y159242D01*
X99175Y159275D01*
X98990Y159326D01*
X98604Y159410D01*
X98420Y159460D01*
X98084Y159594D01*
X97866Y159678D01*
X97597Y159846D01*
X97296Y160014D01*
X97195Y160114D01*
X97128Y160148D01*
X97061Y160215D01*
X96994Y160248D01*
X96809Y160433D01*
X96776Y160500D01*
X96658Y160618D01*
X96591Y160651D01*
X96507Y160735D01*
X96473Y160802D01*
X96306Y160970D01*
X96272Y161104D01*
X96457Y161289D01*
X96591Y161322D01*
X96759Y161389D01*
X96926Y161490D01*
X97296Y161658D01*
X97430Y161691D01*
X97631Y161826D01*
X97933Y161859D01*
X98151Y161742D01*
X98336Y161591D01*
X98705Y161389D01*
X98772Y161356D01*
X99007Y161255D01*
X99074Y161188D01*
X99342Y161154D01*
X99628Y161071D01*
X99762Y161037D01*
X100131Y161003D01*
X100416Y161020D01*
X100651Y161121D01*
X100953Y161154D01*
X101087Y161188D01*
X101523Y161389D01*
X101758Y161557D01*
X101825Y161591D01*
X101926Y161691D01*
X101993Y161725D01*
X102245Y161977D01*
X102278Y162044D01*
X102345Y162111D01*
X102446Y162278D01*
X102614Y162547D01*
X102647Y162681D01*
X102748Y162916D01*
X102782Y163184D01*
X102698Y163268D01*
X95651Y163302D01*
X95534Y163419D01*
X95551Y164174D01*
X95618Y164711D01*
X95651Y164879D01*
X95685Y165013D01*
X95752Y165349D01*
X95802Y165567D01*
X96071Y166137D01*
X96138Y166305D01*
X96306Y166574D01*
X96339Y166641D01*
X96406Y166708D01*
X96440Y166775D01*
X96541Y166875D01*
X96574Y166943D01*
X96910Y167278D01*
X96943Y167345D01*
X97128Y167496D01*
X97430Y167731D01*
X97497Y167765D01*
X97564Y167832D01*
X97631Y167865D01*
X97866Y168033D01*
X98000Y168067D01*
X98202Y168201D01*
X98504Y168234D01*
X98705Y168369D01*
X99107Y168402D01*
X99242Y168436D01*
X99477Y168536D01*
X100450Y168570D01*
X100785Y168536D01*
D02*
G37*
G36*
X134708Y163839D02*
X135044Y163805D01*
X135547Y163570D01*
X135614Y163503D01*
X135681Y163470D01*
X135749Y163403D01*
X135816Y163369D01*
X136050Y163134D01*
X136185Y162933D01*
X136520Y162362D01*
X136554Y162228D01*
X136587Y162027D01*
X136638Y161507D01*
X136604Y161171D01*
X136537Y160769D01*
X136436Y160534D01*
X136403Y160467D01*
X136235Y160198D01*
X136202Y160131D01*
X135950Y159879D01*
X135883Y159846D01*
X135816Y159779D01*
X135749Y159745D01*
X135681Y159678D01*
X135514Y159577D01*
X135329Y159494D01*
X135061Y159393D01*
X134641Y159343D01*
X134540Y159309D01*
X134054Y159326D01*
X133920Y159359D01*
X133635Y159410D01*
X133400Y159477D01*
X133232Y159544D01*
X132964Y159712D01*
X132896Y159745D01*
X132829Y159812D01*
X132762Y159846D01*
X132628Y159980D01*
X132561Y160014D01*
X132477Y160165D01*
X132510Y160299D01*
X132678Y160399D01*
X132846Y160467D01*
X133064Y160550D01*
X133098D01*
X133165Y160584D01*
X133333Y160517D01*
X133400Y160450D01*
X133467Y160416D01*
X133534Y160349D01*
X133702Y160282D01*
X134004Y160148D01*
X134440Y160114D01*
X134658Y160198D01*
X134826Y160265D01*
X135044Y160349D01*
X135111Y160416D01*
X135178Y160450D01*
X135430Y160702D01*
X135547Y160886D01*
X135614Y161054D01*
X135648Y161188D01*
X135631Y161272D01*
X135581Y161322D01*
X132259Y161356D01*
X132108Y161406D01*
X132057Y161524D01*
X132074Y162077D01*
X132209Y162513D01*
X132376Y162882D01*
X132510Y163084D01*
X132544Y163151D01*
X132661Y163268D01*
X132964Y163503D01*
X133081Y163587D01*
X133299Y163671D01*
X133500Y163805D01*
X133836Y163839D01*
X134071Y163872D01*
X134708Y163839D01*
D02*
G37*
G36*
X143667Y165449D02*
X143835Y165382D01*
X143885Y165332D01*
X143919Y164191D01*
X143885Y164057D01*
X143919Y163923D01*
X144003Y163839D01*
X144271Y163805D01*
X144439Y163738D01*
X144489Y163654D01*
X144523Y163151D01*
X144473Y163000D01*
X144271Y162966D01*
X144103Y162899D01*
X143952Y162715D01*
X143919Y161104D01*
Y161071D01*
X143902Y159510D01*
X143734Y159410D01*
X143432Y159443D01*
X143198Y159410D01*
X142979Y159494D01*
X142946Y162748D01*
X142912Y162882D01*
X142828Y162933D01*
X142359Y162966D01*
X142308Y163017D01*
X142275Y163721D01*
X142325Y163772D01*
X142560Y163805D01*
X142795Y163872D01*
X142946Y164023D01*
X142929Y165181D01*
X142946Y165332D01*
X143114Y165433D01*
X143332Y165483D01*
X143667Y165449D01*
D02*
G37*
%LPC*%
G36*
X127998Y181220D02*
X127880Y181203D01*
X127679Y181169D01*
X127427Y181119D01*
X127293Y181086D01*
X127108Y181035D01*
X126890Y180951D01*
X126454Y180750D01*
X126186Y180582D01*
X126119Y180549D01*
X126051Y180482D01*
X125984Y180448D01*
X125884Y180347D01*
X125817Y180314D01*
X125632Y180129D01*
X125598Y180062D01*
X125548Y180012D01*
X125481Y179978D01*
X125464Y179928D01*
X125347Y179811D01*
X125213Y179609D01*
X125045Y179341D01*
X124810Y178871D01*
X124709Y178368D01*
X124676Y178234D01*
X124642Y177898D01*
X124659Y177277D01*
X124692Y177042D01*
X124759Y176774D01*
X124961Y176338D01*
X125095Y176036D01*
X125263Y175734D01*
X125296Y175667D01*
X125749Y175214D01*
X126051Y174979D01*
X126555Y174710D01*
X126605Y174660D01*
X126622Y174643D01*
X126739Y174593D01*
X126957Y174542D01*
X127259Y174408D01*
X127930Y174375D01*
X128669Y174408D01*
X128887Y174492D01*
X129071Y174542D01*
X129205Y174576D01*
X129642Y174777D01*
X129709Y174811D01*
X130078Y175046D01*
X130145Y175079D01*
X130346Y175281D01*
X130413Y175314D01*
X130732Y175633D01*
X130766Y175700D01*
X130833Y175767D01*
X130866Y175834D01*
X130933Y175901D01*
X131068Y176136D01*
X131219Y176422D01*
X131286Y176589D01*
X131403Y176908D01*
X131437Y177042D01*
X131470Y177143D01*
X131504Y177546D01*
X131537Y177646D01*
X131504Y178150D01*
X131470Y178485D01*
X131437Y178619D01*
X131336Y178955D01*
X131001Y179659D01*
X130933Y179727D01*
X130900Y179794D01*
X130833Y179861D01*
X130799Y179928D01*
X130631Y180096D01*
X130598Y180163D01*
X130548Y180213D01*
X130430Y180297D01*
X130246Y180448D01*
X129944Y180683D01*
X129507Y180918D01*
X129373Y180951D01*
X129189Y181035D01*
X128836Y181119D01*
X128736Y181153D01*
X128098Y181186D01*
X127998Y181220D01*
D02*
G37*
G36*
X97363Y181186D02*
X96541Y181169D01*
X96373Y181136D01*
X96171Y181102D01*
X96037Y181069D01*
X95668Y180935D01*
X95651Y180918D01*
X95618D01*
X95316Y180784D01*
X94947Y180549D01*
X94880Y180515D01*
X94745Y180381D01*
X94678Y180347D01*
X94360Y180029D01*
X94326Y179962D01*
X94192Y179827D01*
X94158Y179760D01*
X94058Y179659D01*
X93722Y179056D01*
X93655Y178888D01*
X93588Y178619D01*
X93521Y178384D01*
X93487Y178284D01*
X93454Y178015D01*
X93420Y177915D01*
X93437Y177663D01*
X93470Y177395D01*
X93504Y177193D01*
X93571Y176925D01*
X93621Y176707D01*
X93688Y176438D01*
X93789Y176204D01*
X93856Y176136D01*
X93890Y176069D01*
X94058Y175801D01*
X94091Y175734D01*
X94158Y175667D01*
X94192Y175600D01*
X94259Y175532D01*
X94292Y175465D01*
X94360Y175398D01*
X94544Y175247D01*
X94611Y175214D01*
X94695Y175130D01*
X94880Y174979D01*
X95114Y174845D01*
X95182Y174777D01*
X95316Y174744D01*
X95568Y174593D01*
X95853Y174542D01*
X96155Y174408D01*
X96759Y174375D01*
X97396Y174408D01*
X97530Y174442D01*
X97681Y174492D01*
X97866Y174542D01*
X98101Y174610D01*
X98252Y174694D01*
X98436Y174744D01*
X98638Y174878D01*
X98705Y174912D01*
X98906Y175046D01*
X98973Y175079D01*
X99175Y175281D01*
X99292Y175365D01*
X99326Y175432D01*
X99577Y175683D01*
X99728Y175868D01*
X99829Y176036D01*
X99963Y176271D01*
X99997Y176338D01*
X100148Y176690D01*
X100198Y176942D01*
X100299Y177176D01*
X100332Y178116D01*
X100299Y178351D01*
X100198Y178754D01*
X100131Y178988D01*
X99795Y179693D01*
X99728Y179760D01*
X99695Y179827D01*
X99493Y180029D01*
X99460Y180096D01*
X99208Y180347D01*
X99141Y180381D01*
X99091Y180431D01*
X98906Y180582D01*
X98671Y180717D01*
X98420Y180868D01*
X98050Y181002D01*
X97832Y181086D01*
X97698Y181119D01*
X97463Y181153D01*
X97363Y181186D01*
D02*
G37*
G36*
X111388Y166758D02*
X110767Y166741D01*
X110633Y166708D01*
X110415Y166657D01*
X110147Y166590D01*
X109778Y166422D01*
X109476Y166255D01*
X109274Y166053D01*
X109207Y166020D01*
X109157Y165970D01*
X109123Y165902D01*
X109006Y165785D01*
X108855Y165600D01*
X108587Y165097D01*
X108620Y164963D01*
X108738Y164879D01*
X109358Y164896D01*
X112059Y164879D01*
X113066D01*
X113435Y165047D01*
X113519Y165164D01*
X113385Y165466D01*
X113351Y165533D01*
X113183Y165768D01*
X113150Y165835D01*
X113083Y165902D01*
X113049Y165970D01*
X112999Y166020D01*
X112932Y166053D01*
X112781Y166204D01*
X112512Y166372D01*
X112043Y166607D01*
X111489Y166725D01*
X111388Y166758D01*
D02*
G37*
G36*
X100517D02*
X99896Y166741D01*
X99628Y166674D01*
X99342Y166624D01*
X98638Y166288D01*
X98537Y166188D01*
X98504D01*
X98202Y165886D01*
X97883Y165466D01*
X97849Y165332D01*
X97782Y165265D01*
X97681Y165097D01*
X97749Y164929D01*
X97832Y164879D01*
X101607Y164896D01*
X102194Y164879D01*
X102329Y164912D01*
X102496Y164980D01*
X102580Y165064D01*
X102614Y165164D01*
X102413Y165600D01*
X102379Y165667D01*
X102312Y165735D01*
X102278Y165802D01*
X101825Y166255D01*
X101305Y166540D01*
X100987Y166657D01*
X100752Y166691D01*
X100617Y166725D01*
X100517Y166758D01*
D02*
G37*
G36*
X134591Y163084D02*
X134104Y163067D01*
X133920Y163017D01*
X133702Y162933D01*
X133635Y162866D01*
X133467Y162765D01*
X133383Y162681D01*
X133349Y162614D01*
X133249Y162513D01*
X133232Y162497D01*
X133148Y162379D01*
X133115Y162278D01*
X133165Y162127D01*
X133282Y162077D01*
X134339Y162094D01*
X134440Y162127D01*
X134725Y162111D01*
X135178Y162060D01*
X135413Y162127D01*
X135530Y162245D01*
X135564Y162346D01*
X135514Y162497D01*
X135363Y162681D01*
X135178Y162832D01*
X134994Y162950D01*
X134859Y162983D01*
X134591Y163084D01*
D02*
G37*
%LPD*%
D13*
X332536Y32000D02*
G03*
X332536Y32000I-19685J0D01*
G01*
Y75307D02*
G03*
X332536Y75307I-19685J0D01*
G01*
X412032Y207815D02*
G03*
X412032Y207815I-19685J0D01*
G01*
X455339D02*
G03*
X455339Y207815I-19685J0D01*
G01*
X331842Y169307D02*
G03*
X331842Y169307I-19685J0D01*
G01*
Y126000D02*
G03*
X331842Y126000I-19685J0D01*
G01*
X335167Y59153D02*
Y63152D01*
X419500Y185499D02*
X423499D01*
X292473Y153654D02*
Y157652D01*
X290474Y155653D02*
X294472D01*
X334473Y153154D02*
Y157152D01*
X293167Y59654D02*
Y63652D01*
X291168Y61653D02*
X295166D01*
X420000Y227499D02*
X423999D01*
X421999Y229499D02*
Y225500D01*
X59000Y216000D02*
X57001D01*
X58000D01*
Y219999D01*
X59000D01*
X50003Y220998D02*
X51003Y221998D01*
X53002D01*
X54002Y220998D01*
Y217000D01*
X53002Y216000D01*
X51003D01*
X50003Y217000D01*
Y218999D01*
X52002D01*
X48004Y216000D02*
Y221998D01*
X44005Y216000D01*
Y221998D01*
X42006D02*
Y216000D01*
X39007D01*
X38007Y217000D01*
Y220998D01*
X39007Y221998D01*
X42006D01*
X59000Y201000D02*
X57001D01*
X58000D01*
Y204999D01*
X59000D01*
X54002Y203999D02*
X50003D01*
X52002Y205998D02*
Y202000D01*
X44005Y206998D02*
X48004D01*
Y203999D01*
X46004Y204999D01*
X45004D01*
X44005Y203999D01*
Y202000D01*
X45004Y201000D01*
X47004D01*
X48004Y202000D01*
X42006Y206998D02*
Y202999D01*
X40006Y201000D01*
X38007Y202999D01*
Y206998D01*
X59000Y186000D02*
X57001D01*
X58000D01*
Y189999D01*
X59000D01*
X50003Y190998D02*
X51003Y191998D01*
X53002D01*
X54002Y190998D01*
Y189999D01*
X53002Y188999D01*
X51003D01*
X50003Y187999D01*
Y187000D01*
X51003Y186000D01*
X53002D01*
X54002Y187000D01*
X45004Y186000D02*
X47004D01*
X48004Y187000D01*
Y188999D01*
X47004Y189999D01*
X45004D01*
X44005Y188999D01*
Y187999D01*
X48004D01*
X42006Y186000D02*
Y189999D01*
X39007D01*
X38007Y188999D01*
Y186000D01*
X36007D02*
X33008D01*
X32009Y187000D01*
X33008Y187999D01*
X35008D01*
X36007Y188999D01*
X35008Y189999D01*
X32009D01*
X27010Y186000D02*
X29010D01*
X30009Y187000D01*
Y188999D01*
X29010Y189999D01*
X27010D01*
X26011Y188999D01*
Y187999D01*
X30009D01*
X55001Y131998D02*
X59000D01*
Y128999D01*
X57001D01*
X59000D01*
Y126000D01*
X53002D02*
Y129999D01*
X51003Y131998D01*
X49003Y129999D01*
Y126000D01*
Y128999D01*
X53002D01*
X47004Y131998D02*
Y127000D01*
X46004Y126000D01*
X44005D01*
X43005Y127000D01*
Y131998D01*
X41006D02*
Y126000D01*
X37007D01*
X35008Y131998D02*
X31009D01*
X33008D01*
Y126000D01*
X55001Y145998D02*
X56001Y146998D01*
X58000D01*
X59000Y145998D01*
Y144999D01*
X58000Y143999D01*
X56001D01*
X55001Y142999D01*
Y142000D01*
X56001Y141000D01*
X58000D01*
X59000Y142000D01*
X50003Y146998D02*
X52002D01*
X53002Y145998D01*
Y142000D01*
X52002Y141000D01*
X50003D01*
X49003Y142000D01*
Y145998D01*
X50003Y146998D01*
X43005D02*
X47004D01*
Y143999D01*
X45004D01*
X47004D01*
Y141000D01*
X41006Y146998D02*
X37007D01*
X39007D01*
Y141000D01*
X59000Y66000D02*
Y69999D01*
X57001Y71998D01*
X55001Y69999D01*
Y66000D01*
Y68999D01*
X59000D01*
X49003Y70998D02*
X50003Y71998D01*
X52002D01*
X53002Y70998D01*
Y67000D01*
X52002Y66000D01*
X50003D01*
X49003Y67000D01*
Y68999D01*
X51003D01*
X47004Y66000D02*
Y71998D01*
X43005Y66000D01*
Y71998D01*
X41006D02*
Y66000D01*
X38007D01*
X37007Y67000D01*
Y70998D01*
X38007Y71998D01*
X41006D01*
X59000Y53999D02*
X55001D01*
X57001Y55998D02*
Y52000D01*
X53002Y51000D02*
X51003D01*
X52002D01*
Y56998D01*
X53002Y55998D01*
X48004Y51000D02*
X46004D01*
X47004D01*
Y56998D01*
X48004Y55998D01*
X43005Y56998D02*
Y52999D01*
X41006Y51000D01*
X39007Y52999D01*
Y56998D01*
X55001Y115998D02*
X56001Y116998D01*
X58000D01*
X59000Y115998D01*
Y114999D01*
X58000Y113999D01*
X56001D01*
X55001Y112999D01*
Y112000D01*
X56001Y111000D01*
X58000D01*
X59000Y112000D01*
X53002Y116998D02*
Y111000D01*
X50003D01*
X49003Y112000D01*
Y115998D01*
X50003Y116998D01*
X53002D01*
X47004Y111000D02*
Y114999D01*
X45004Y116998D01*
X43005Y114999D01*
Y111000D01*
Y113999D01*
X47004D01*
X55001Y100998D02*
X56001Y101998D01*
X58000D01*
X59000Y100998D01*
Y99999D01*
X58000Y98999D01*
X56001D01*
X55001Y97999D01*
Y97000D01*
X56001Y96000D01*
X58000D01*
X59000Y97000D01*
X49003Y100998D02*
X50003Y101998D01*
X52002D01*
X53002Y100998D01*
Y97000D01*
X52002Y96000D01*
X50003D01*
X49003Y97000D01*
X47004Y101998D02*
Y96000D01*
X43005D01*
X59000Y171000D02*
Y176998D01*
X56001D01*
X55001Y175998D01*
Y173999D01*
X56001Y172999D01*
X59000D01*
X53002Y176998D02*
Y171000D01*
X51003Y172999D01*
X49003Y171000D01*
Y176998D01*
X47004Y171000D02*
Y176998D01*
X45004Y174999D01*
X43005Y176998D01*
Y171000D01*
X55001Y161998D02*
X59000D01*
Y156000D01*
X55001D01*
X59000Y158999D02*
X57001D01*
X53002Y156000D02*
Y161998D01*
X49003Y156000D01*
Y161998D01*
X59000Y81000D02*
Y86998D01*
X55001Y81000D01*
Y86998D01*
X49003Y85998D02*
X50003Y86998D01*
X52002D01*
X53002Y85998D01*
Y82000D01*
X52002Y81000D01*
X50003D01*
X49003Y82000D01*
X194530Y238282D02*
Y237282D01*
X195529D01*
X193530D01*
X194530D01*
Y234283D01*
X193530Y233283D01*
X190531Y239282D02*
Y233283D01*
Y236282D01*
X189531Y237282D01*
X187532D01*
X186532Y236282D01*
Y233283D01*
X181534D02*
X183533D01*
X184533Y234283D01*
Y236282D01*
X183533Y237282D01*
X181534D01*
X180534Y236282D01*
Y235283D01*
X184533D01*
X168538Y238282D02*
X169538Y239282D01*
X171537D01*
X172537Y238282D01*
Y234283D01*
X171537Y233283D01*
X169538D01*
X168538Y234283D01*
Y236282D01*
X170537D01*
X163540Y233283D02*
X165539D01*
X166539Y234283D01*
Y236282D01*
X165539Y237282D01*
X163540D01*
X162540Y236282D01*
Y235283D01*
X166539D01*
X157542Y233283D02*
X159541D01*
X160541Y234283D01*
Y236282D01*
X159541Y237282D01*
X157542D01*
X156542Y236282D01*
Y235283D01*
X160541D01*
X150544Y237282D02*
X153543D01*
X154543Y236282D01*
Y234283D01*
X153543Y233283D01*
X150544D01*
X105299Y251093D02*
X103300D01*
X104299D01*
Y245094D01*
X105299D01*
X103300D01*
X100301Y251093D02*
Y245094D01*
X97302D01*
X96302Y246094D01*
Y250093D01*
X97302Y251093D01*
X100301D01*
X136795Y245094D02*
Y251093D01*
X133796D01*
X132797Y250093D01*
Y248094D01*
X133796Y247094D01*
X136795D01*
X134796D02*
X132797Y245094D01*
X126798Y251093D02*
X130797D01*
Y245094D01*
X126798D01*
X130797Y248094D02*
X128798D01*
X124799Y251093D02*
Y247094D01*
X122800Y245094D01*
X120800Y247094D01*
Y251093D01*
X132797Y193913D02*
X136795D01*
X132797Y197912D01*
Y198912D01*
X133796Y199911D01*
X135796D01*
X136795Y198912D01*
X130797D02*
X129797Y199911D01*
X127798D01*
X126798Y198912D01*
Y194913D01*
X127798Y193913D01*
X129797D01*
X130797Y194913D01*
Y198912D01*
X120800Y193913D02*
X124799D01*
X120800Y197912D01*
Y198912D01*
X121800Y199911D01*
X123800D01*
X124799Y198912D01*
X114802Y199911D02*
X118801D01*
Y196912D01*
X116802Y197912D01*
X115802D01*
X114802Y196912D01*
Y194913D01*
X115802Y193913D01*
X117801D01*
X118801Y194913D01*
X112803Y196912D02*
X108804D01*
X102806Y193913D02*
X106805D01*
X102806Y197912D01*
Y198912D01*
X103806Y199911D01*
X105805D01*
X106805Y198912D01*
X100807D02*
X99807Y199911D01*
X97808D01*
X96808Y198912D01*
Y194913D01*
X97808Y193913D01*
X99807D01*
X100807Y194913D01*
Y198912D01*
X90810Y193913D02*
X94809D01*
X90810Y197912D01*
Y198912D01*
X91810Y199911D01*
X93809D01*
X94809Y198912D01*
X84812Y199911D02*
X86812Y198912D01*
X88811Y196912D01*
Y194913D01*
X87811Y193913D01*
X85812D01*
X84812Y194913D01*
Y195913D01*
X85812Y196912D01*
X88811D01*
X195529Y213722D02*
Y207724D01*
X192530D01*
X191531Y208723D01*
Y212722D01*
X192530Y213722D01*
X195529D01*
X186532Y207724D02*
X188532D01*
X189531Y208723D01*
Y210723D01*
X188532Y211722D01*
X186532D01*
X185533Y210723D01*
Y209723D01*
X189531D01*
X183533Y207724D02*
X180534D01*
X179535Y208723D01*
X180534Y209723D01*
X182534D01*
X183533Y210723D01*
X182534Y211722D01*
X179535D01*
X177535Y207724D02*
X175536D01*
X176535D01*
Y211722D01*
X177535D01*
X170537Y205724D02*
X169538D01*
X168538Y206724D01*
Y211722D01*
X171537D01*
X172537Y210723D01*
Y208723D01*
X171537Y207724D01*
X168538D01*
X166539D02*
Y211722D01*
X163540D01*
X162540Y210723D01*
Y207724D01*
X157542D02*
X159541D01*
X160541Y208723D01*
Y210723D01*
X159541Y211722D01*
X157542D01*
X156542Y210723D01*
Y209723D01*
X160541D01*
X150544Y213722D02*
Y207724D01*
X153543D01*
X154543Y208723D01*
Y210723D01*
X153543Y211722D01*
X150544D01*
X148545D02*
X147545D01*
Y210723D01*
X148545D01*
Y211722D01*
Y208723D02*
X147545D01*
Y207724D01*
X148545D01*
Y208723D01*
X133549Y212722D02*
X134549Y213722D01*
X136548D01*
X137548Y212722D01*
Y208723D01*
X136548Y207724D01*
X134549D01*
X133549Y208723D01*
X130550Y207724D02*
X128551D01*
X127551Y208723D01*
Y210723D01*
X128551Y211722D01*
X130550D01*
X131550Y210723D01*
Y208723D01*
X130550Y207724D01*
X125552D02*
Y211722D01*
X122553D01*
X121553Y210723D01*
Y207724D01*
X118554D02*
X116555D01*
X115555Y208723D01*
Y210723D01*
X116555Y211722D01*
X118554D01*
X119554Y210723D01*
Y208723D01*
X118554Y207724D01*
X113556Y211722D02*
Y207724D01*
Y209723D01*
X112556Y210723D01*
X111557Y211722D01*
X110557D01*
X97561Y213722D02*
X101560D01*
Y210723D01*
X99560D01*
X101560D01*
Y207724D01*
X94562Y211722D02*
X92563D01*
X91563Y210723D01*
Y207724D01*
X94562D01*
X95562Y208723D01*
X94562Y209723D01*
X91563D01*
X89564Y211722D02*
Y207724D01*
Y209723D01*
X88564Y210723D01*
X87564Y211722D01*
X86565D01*
X83566D02*
Y207724D01*
Y209723D01*
X82566Y210723D01*
X81566Y211722D01*
X80567D01*
X74568Y207724D02*
X76568D01*
X77568Y208723D01*
Y210723D01*
X76568Y211722D01*
X74568D01*
X73569Y210723D01*
Y209723D01*
X77568D01*
X71570Y207724D02*
X69570D01*
X70570D01*
Y213722D01*
X71570D01*
X66571Y207724D02*
X64572D01*
X65571D01*
Y213722D01*
X66571D01*
X195529Y226470D02*
Y220472D01*
X192530D01*
X191531Y221472D01*
Y222472D01*
X192530Y223471D01*
X195529D01*
X192530D01*
X191531Y224471D01*
Y225471D01*
X192530Y226470D01*
X195529D01*
X189531Y224471D02*
Y221472D01*
X188532Y220472D01*
X185533D01*
Y224471D01*
X179535D02*
X182534D01*
X183533Y223471D01*
Y221472D01*
X182534Y220472D01*
X179535D01*
X177535D02*
Y226470D01*
Y222472D02*
X174536Y224471D01*
X177535Y222472D02*
X174536Y220472D01*
X161540Y225471D02*
X162540Y226470D01*
X164539D01*
X165539Y225471D01*
Y221472D01*
X164539Y220472D01*
X162540D01*
X161540Y221472D01*
X158541Y220472D02*
X156542D01*
X155542Y221472D01*
Y223471D01*
X156542Y224471D01*
X158541D01*
X159541Y223471D01*
Y221472D01*
X158541Y220472D01*
X153543D02*
Y224471D01*
X150544D01*
X149544Y223471D01*
Y220472D01*
X147545Y224471D02*
X145546Y220472D01*
X143546Y224471D01*
X138548Y220472D02*
X140547D01*
X141547Y221472D01*
Y223471D01*
X140547Y224471D01*
X138548D01*
X137548Y223471D01*
Y222472D01*
X141547D01*
X135549Y224471D02*
Y220472D01*
Y222472D01*
X134549Y223471D01*
X133549Y224471D01*
X132550D01*
X128551Y225471D02*
Y224471D01*
X129551D01*
X127551D01*
X128551D01*
Y221472D01*
X127551Y220472D01*
X121553D02*
X123553D01*
X124552Y221472D01*
Y223471D01*
X123553Y224471D01*
X121553D01*
X120554Y223471D01*
Y222472D01*
X124552D01*
X118554Y224471D02*
Y220472D01*
Y222472D01*
X117555Y223471D01*
X116555Y224471D01*
X115555D01*
X32491Y219498D02*
Y221498D01*
Y220498D01*
X38489D01*
X37489Y219498D01*
D14*
X361442Y53654D02*
G03*
X361442Y53654I-45276J0D01*
G01*
D02*
G03*
X361442Y53654I-45276J0D01*
G01*
X459276Y204500D02*
G03*
X459276Y204500I-45276J0D01*
G01*
D02*
G03*
X459276Y204500I-45276J0D01*
G01*
X360748Y147654D02*
G03*
X360748Y147654I-45276J0D01*
G01*
D02*
G03*
X360748Y147654I-45276J0D01*
G01*
D120*
X220478Y39364D02*
X224413Y43299D01*
X232285D01*
X236221Y39364D01*
Y35428D01*
X232285Y31492D01*
X224413D01*
X220478Y27556D01*
Y23621D01*
X224413Y19685D01*
X232285D01*
X236221Y23621D01*
X196863Y43299D02*
X212606D01*
Y19685D01*
X196863D01*
X212606Y31492D02*
X204735D01*
X188992Y19685D02*
Y43299D01*
X181120Y35428D01*
X173249Y43299D01*
Y19685D01*
D157*
X100394Y238189D02*
D03*
X116142D02*
D03*
X131890D02*
D03*
M02*
