G04*
G04 #@! TF.GenerationSoftware,Altium Limited,Altium Designer,26.1.1 (7)*
G04*
G04 Layer_Color=255*
%FSLAX25Y25*%
%MOIN*%
G70*
G04*
G04 #@! TF.SameCoordinates,96ADB110-FC6B-4EA1-8182-D0924A2AF432*
G04*
G04*
G04 #@! TF.FilePolarity,Positive*
G04*
G01*
G75*
%ADD104C,0.06181*%
%ADD146R,0.07874X0.07874*%
%ADD147C,0.07087*%
%ADD148R,0.07874X0.07874*%
G04:AMPARAMS|DCode=149|XSize=62.99mil|YSize=62.99mil|CornerRadius=15.75mil|HoleSize=0mil|Usage=FLASHONLY|Rotation=270.000|XOffset=0mil|YOffset=0mil|HoleType=Round|Shape=RoundedRectangle|*
%AMROUNDEDRECTD149*
21,1,0.06299,0.03150,0,0,270.0*
21,1,0.03150,0.06299,0,0,270.0*
1,1,0.03150,-0.01575,-0.01575*
1,1,0.03150,-0.01575,0.01575*
1,1,0.03150,0.01575,0.01575*
1,1,0.03150,0.01575,-0.01575*
%
%ADD149ROUNDEDRECTD149*%
%ADD150C,0.06299*%
%ADD151C,0.06000*%
%ADD152C,0.07874*%
%ADD153C,0.29528*%
G04:AMPARAMS|DCode=154|XSize=70.87mil|YSize=70.87mil|CornerRadius=17.72mil|HoleSize=0mil|Usage=FLASHONLY|Rotation=270.000|XOffset=0mil|YOffset=0mil|HoleType=Round|Shape=RoundedRectangle|*
%AMROUNDEDRECTD154*
21,1,0.07087,0.03543,0,0,270.0*
21,1,0.03543,0.07087,0,0,270.0*
1,1,0.03543,-0.01772,-0.01772*
1,1,0.03543,-0.01772,0.01772*
1,1,0.03543,0.01772,0.01772*
1,1,0.03543,0.01772,-0.01772*
%
%ADD154ROUNDEDRECTD154*%
D104*
X124016Y268701D02*
D03*
X642717Y129921D02*
D03*
X497047Y20669D02*
D03*
X74803Y42323D02*
D03*
Y20793D02*
D03*
X184055Y87598D02*
D03*
Y74803D02*
D03*
X369116Y24500D02*
D03*
X133500Y180200D02*
D03*
X203600Y159000D02*
D03*
X261400Y62300D02*
D03*
X633600Y206700D02*
D03*
X236303Y117700D02*
D03*
X595700Y112500D02*
D03*
X170276Y117700D02*
D03*
X647600Y104000D02*
D03*
X261258Y117700D02*
D03*
X248879D02*
D03*
D146*
X435654Y197972D02*
D03*
X414000Y186000D02*
D03*
X392346Y197972D02*
D03*
D147*
X571288Y30823D02*
D03*
X561288D02*
D03*
X551289Y20823D02*
D03*
X561288D02*
D03*
X571288Y10823D02*
D03*
Y20823D02*
D03*
X551289Y10823D02*
D03*
X561288D02*
D03*
X540816Y30823D02*
D03*
X530816D02*
D03*
X551289D02*
D03*
X520816Y20823D02*
D03*
Y30823D02*
D03*
X540816Y20823D02*
D03*
Y10823D02*
D03*
X530816D02*
D03*
Y20823D02*
D03*
X520816Y10823D02*
D03*
X21063Y70295D02*
D03*
X11063D02*
D03*
X647795Y68898D02*
D03*
Y58898D02*
D03*
Y78898D02*
D03*
X637795Y58898D02*
D03*
X627795D02*
D03*
Y68898D02*
D03*
Y78898D02*
D03*
X637795D02*
D03*
Y68898D02*
D03*
X11063Y55295D02*
D03*
X21063D02*
D03*
X559669Y242969D02*
D03*
X549669D02*
D03*
X569669D02*
D03*
X549669Y252969D02*
D03*
Y262968D02*
D03*
X559669D02*
D03*
X569669D02*
D03*
Y252969D02*
D03*
X559669D02*
D03*
X21063Y85295D02*
D03*
Y100295D02*
D03*
Y205295D02*
D03*
Y190295D02*
D03*
Y175295D02*
D03*
Y160295D02*
D03*
Y145295D02*
D03*
Y130295D02*
D03*
Y115295D02*
D03*
X11063Y130295D02*
D03*
Y160295D02*
D03*
Y190295D02*
D03*
Y205295D02*
D03*
Y175295D02*
D03*
Y145295D02*
D03*
Y115295D02*
D03*
Y100295D02*
D03*
Y85295D02*
D03*
D148*
X322000Y169307D02*
D03*
X333972Y147654D02*
D03*
X322000Y126000D02*
D03*
X322694Y75307D02*
D03*
X334666Y53654D02*
D03*
X322694Y32000D02*
D03*
D149*
X304000Y223000D02*
D03*
X289000D02*
D03*
X317892Y223627D02*
D03*
X331255D02*
D03*
D150*
X304000Y213000D02*
D03*
X289000D02*
D03*
X317892Y213627D02*
D03*
X331255D02*
D03*
D151*
X622500Y191500D02*
D03*
Y177720D02*
D03*
D152*
X435654Y217657D02*
D03*
X392346D02*
D03*
X414000Y227500D02*
D03*
X302315Y169307D02*
D03*
Y126000D02*
D03*
X292472Y147654D02*
D03*
X303009Y75307D02*
D03*
Y32000D02*
D03*
X293166Y53654D02*
D03*
D153*
X629921Y255906D02*
D03*
X629921Y19685D02*
D03*
X39370Y19685D02*
D03*
Y255906D02*
D03*
D154*
X21063Y220295D02*
D03*
X11063D02*
D03*
M02*
