G04*
G04 #@! TF.GenerationSoftware,Altium Limited,Altium Designer,26.3.0 (6)*
G04*
G04 Layer_Color=32896*
%FSLAX25Y25*%
%MOIN*%
G70*
G04*
G04 #@! TF.SameCoordinates,A65C1770-D034-4F41-963D-00CE30BAA99E*
G04*
G04*
G04 #@! TF.FilePolarity,Positive*
G04*
G01*
G75*
%ADD15C,0.00800*%
%ADD16C,0.03937*%
%ADD73C,0.00700*%
D15*
X16968Y117265D02*
X17801Y118098D01*
X19467D01*
X20300Y117265D01*
Y113933D01*
X19467Y113100D01*
X17801D01*
X16968Y113933D01*
X15302Y113100D02*
Y116432D01*
X13635Y118098D01*
X11969Y116432D01*
Y113100D01*
Y115599D01*
X15302D01*
X10303Y113100D02*
Y118098D01*
X6971Y113100D01*
Y118098D01*
X5305D02*
Y113100D01*
X1973D01*
X19700Y52600D02*
Y55932D01*
X18034Y57598D01*
X16368Y55932D01*
Y52600D01*
Y55099D01*
X19700D01*
X11369Y56765D02*
X12202Y57598D01*
X13869D01*
X14702Y56765D01*
Y53433D01*
X13869Y52600D01*
X12202D01*
X11369Y53433D01*
Y55099D01*
X13036D01*
X9703Y52600D02*
Y55932D01*
X7204D01*
X6371Y55099D01*
Y52600D01*
X1373Y57598D02*
Y52600D01*
X3872D01*
X4705Y53433D01*
Y55099D01*
X3872Y55932D01*
X1373D01*
X19000Y72498D02*
Y69166D01*
X17334Y67500D01*
X15668Y69166D01*
Y72498D01*
X14002Y67500D02*
Y72498D01*
X12336Y70832D01*
X10669Y72498D01*
Y67500D01*
X8170D02*
X6504D01*
X5671Y68333D01*
Y69999D01*
X6504Y70832D01*
X8170D01*
X9003Y69999D01*
Y68333D01*
X8170Y67500D01*
X3172Y71665D02*
Y70832D01*
X4005D01*
X2339D01*
X3172D01*
Y68333D01*
X2339Y67500D01*
X17941Y98129D02*
Y101461D01*
X16274Y103127D01*
X14608Y101461D01*
Y98129D01*
Y100628D01*
X17941D01*
X12942Y102294D02*
X12109Y103127D01*
X10443D01*
X9610Y102294D01*
Y101461D01*
X10443Y100628D01*
X11276D01*
X10443D01*
X9610Y99795D01*
Y98962D01*
X10443Y98129D01*
X12109D01*
X12942Y98962D01*
X15468Y131665D02*
X16301Y132498D01*
X17967D01*
X18800Y131665D01*
Y128333D01*
X17967Y127500D01*
X16301D01*
X15468Y128333D01*
X13802Y127500D02*
Y130832D01*
X12135Y132498D01*
X10469Y130832D01*
Y127500D01*
Y129999D01*
X13802D01*
X8803Y127500D02*
Y132498D01*
X5471Y127500D01*
Y132498D01*
X3805D02*
Y127500D01*
Y129999D01*
X473D01*
Y132498D01*
Y127500D01*
X18600Y146798D02*
Y141800D01*
X16101D01*
X15268Y142633D01*
Y145965D01*
X16101Y146798D01*
X18600D01*
X13602Y141800D02*
X11936D01*
X12769D01*
Y146798D01*
X13602Y145965D01*
X6104Y141800D02*
X9436D01*
X6104Y145132D01*
Y145965D01*
X6937Y146798D01*
X8603D01*
X9436Y145965D01*
X18900Y162298D02*
Y157300D01*
X16401D01*
X15568Y158133D01*
Y161465D01*
X16401Y162298D01*
X18900D01*
X13902Y157300D02*
X12235D01*
X13069D01*
Y162298D01*
X13902Y161465D01*
X9736Y157300D02*
X8070D01*
X8903D01*
Y162298D01*
X9736Y161465D01*
X18900Y172400D02*
X17234D01*
X18067D01*
Y175732D01*
X18900D01*
X11402Y176565D02*
X12235Y177398D01*
X13902D01*
X14735Y176565D01*
Y173233D01*
X13902Y172400D01*
X12235D01*
X11402Y173233D01*
Y174899D01*
X13069D01*
X9736Y172400D02*
Y177398D01*
X6404Y172400D01*
Y177398D01*
X4738D02*
Y172400D01*
X2239D01*
X1406Y173233D01*
Y176565D01*
X2239Y177398D01*
X4738D01*
X22400Y187100D02*
X20734D01*
X21567D01*
Y190432D01*
X22400D01*
X14902Y191265D02*
X15735Y192098D01*
X17402D01*
X18235Y191265D01*
Y187933D01*
X17402Y187100D01*
X15735D01*
X14902Y187933D01*
Y189599D01*
X16568D01*
X13236Y187100D02*
Y192098D01*
X9904Y187100D01*
Y192098D01*
X8238D02*
Y187100D01*
X5739D01*
X4906Y187933D01*
Y191265D01*
X5739Y192098D01*
X8238D01*
X21100Y207798D02*
X17768D01*
X19434D01*
Y202800D01*
X16102Y207798D02*
Y202800D01*
Y205299D01*
X15269Y206132D01*
X13602D01*
X12769Y205299D01*
Y202800D01*
X11103Y206132D02*
Y202800D01*
Y204466D01*
X10270Y205299D01*
X9437Y206132D01*
X8604D01*
X5272Y202800D02*
X3606D01*
X2773Y203633D01*
Y205299D01*
X3606Y206132D01*
X5272D01*
X6105Y205299D01*
Y203633D01*
X5272Y202800D01*
X20800Y220199D02*
X17468D01*
X19134Y221865D02*
Y218533D01*
X12469Y222698D02*
X15802D01*
Y220199D01*
X14135Y221032D01*
X13302D01*
X12469Y220199D01*
Y218533D01*
X13302Y217700D01*
X14969D01*
X15802Y218533D01*
X10803Y222698D02*
Y219366D01*
X9137Y217700D01*
X7471Y219366D01*
Y222698D01*
X5805Y217700D02*
X4139D01*
X4972D01*
Y221032D01*
X5805D01*
X273468Y161765D02*
X274301Y162598D01*
X275967D01*
X276800Y161765D01*
Y160932D01*
X275967Y160099D01*
X274301D01*
X273468Y159266D01*
Y158433D01*
X274301Y157600D01*
X275967D01*
X276800Y158433D01*
X271802Y162598D02*
Y157600D01*
X269302D01*
X268469Y158433D01*
Y161765D01*
X269302Y162598D01*
X271802D01*
X266803Y157600D02*
Y160932D01*
X265137Y162598D01*
X263471Y160932D01*
Y157600D01*
Y160099D01*
X266803D01*
X273468Y146865D02*
X274301Y147698D01*
X275967D01*
X276800Y146865D01*
Y146032D01*
X275967Y145199D01*
X274301D01*
X273468Y144366D01*
Y143533D01*
X274301Y142700D01*
X275967D01*
X276800Y143533D01*
X268469Y146865D02*
X269302Y147698D01*
X270969D01*
X271802Y146865D01*
Y143533D01*
X270969Y142700D01*
X269302D01*
X268469Y143533D01*
X266803Y147698D02*
Y142700D01*
X263471D01*
X273468Y131665D02*
X274301Y132498D01*
X275967D01*
X276800Y131665D01*
Y128333D01*
X275967Y127500D01*
X274301D01*
X273468Y128333D01*
X271802Y127500D02*
Y130832D01*
X270135Y132498D01*
X268469Y130832D01*
Y127500D01*
Y129999D01*
X271802D01*
X266803Y127500D02*
Y132498D01*
X263471Y127500D01*
Y132498D01*
X261805D02*
Y127500D01*
Y129999D01*
X258473D01*
Y132498D01*
Y127500D01*
X273468Y115565D02*
X274301Y116398D01*
X275967D01*
X276800Y115565D01*
Y112233D01*
X275967Y111400D01*
X274301D01*
X273468Y112233D01*
X271802Y111400D02*
Y114732D01*
X270135Y116398D01*
X268469Y114732D01*
Y111400D01*
Y113899D01*
X271802D01*
X266803Y111400D02*
Y116398D01*
X263471Y111400D01*
Y116398D01*
X261805D02*
Y111400D01*
X258473D01*
X276800Y96600D02*
X275134D01*
X275967D01*
Y99932D01*
X276800D01*
X269302Y100765D02*
X270135Y101598D01*
X271802D01*
X272635Y100765D01*
Y97433D01*
X271802Y96600D01*
X270135D01*
X269302Y97433D01*
Y99099D01*
X270969D01*
X267636Y96600D02*
Y101598D01*
X264304Y96600D01*
Y101598D01*
X262638D02*
Y96600D01*
X260139D01*
X259306Y97433D01*
Y100765D01*
X260139Y101598D01*
X262638D01*
X276800Y67800D02*
Y71132D01*
X275134Y72798D01*
X273468Y71132D01*
Y67800D01*
Y70299D01*
X276800D01*
X268469Y71965D02*
X269302Y72798D01*
X270969D01*
X271802Y71965D01*
Y68633D01*
X270969Y67800D01*
X269302D01*
X268469Y68633D01*
Y70299D01*
X270135D01*
X266803Y67800D02*
Y72798D01*
X263471Y67800D01*
Y72798D01*
X261805D02*
Y67800D01*
X259306D01*
X258473Y68633D01*
Y71965D01*
X259306Y72798D01*
X261805D01*
X276800Y54499D02*
X273468D01*
X275134Y56165D02*
Y52833D01*
X271802Y52000D02*
X270135D01*
X270969D01*
Y56998D01*
X271802Y56165D01*
X267636Y52000D02*
X265970D01*
X266803D01*
Y56998D01*
X267636Y56165D01*
X263471Y56998D02*
Y53666D01*
X261805Y52000D01*
X260139Y53666D01*
Y56998D01*
X56972Y3127D02*
Y6459D01*
X58639Y4793D02*
X55306D01*
X54473Y8125D02*
Y9791D01*
Y8958D01*
X59472D01*
X58639Y8125D01*
X54473Y12290D02*
Y13957D01*
Y13124D01*
X59472D01*
X58639Y12290D01*
X59472Y16456D02*
X56139D01*
X54473Y18122D01*
X56139Y19788D01*
X59472D01*
X70221Y3127D02*
X73554D01*
X75220Y4793D01*
X73554Y6459D01*
X70221D01*
X72720D01*
Y3127D01*
X74387Y11457D02*
X75220Y10624D01*
Y8958D01*
X74387Y8125D01*
X71054D01*
X70221Y8958D01*
Y10624D01*
X71054Y11457D01*
X72720D01*
Y9791D01*
X70221Y13124D02*
X75220D01*
X70221Y16456D01*
X75220D01*
Y18122D02*
X70221D01*
Y20621D01*
X71054Y21454D01*
X74387D01*
X75220Y20621D01*
Y18122D01*
X87681Y3127D02*
Y6459D01*
X89347Y4793D02*
X86015D01*
X89347Y8125D02*
X90180Y8958D01*
Y10624D01*
X89347Y11457D01*
X88514D01*
X87681Y10624D01*
Y9791D01*
Y10624D01*
X86848Y11457D01*
X86015D01*
X85182Y10624D01*
Y8958D01*
X86015Y8125D01*
X90180Y13124D02*
X86848D01*
X85182Y14790D01*
X86848Y16456D01*
X90180D01*
X89347Y18122D02*
X90180Y18955D01*
Y20621D01*
X89347Y21454D01*
X88514D01*
X87681Y20621D01*
Y19788D01*
Y20621D01*
X86848Y21454D01*
X86015D01*
X85182Y20621D01*
Y18955D01*
X86015Y18122D01*
X104701Y6459D02*
X105535Y5626D01*
Y3960D01*
X104701Y3127D01*
X103868D01*
X103035Y3960D01*
Y5626D01*
X102202Y6459D01*
X101369D01*
X100536Y5626D01*
Y3960D01*
X101369Y3127D01*
X104701Y11457D02*
X105535Y10624D01*
Y8958D01*
X104701Y8125D01*
X101369D01*
X100536Y8958D01*
Y10624D01*
X101369Y11457D01*
X105535Y13124D02*
X100536D01*
Y16456D01*
X118875Y6459D02*
X119708Y5626D01*
Y3960D01*
X118875Y3127D01*
X118042D01*
X117209Y3960D01*
Y5626D01*
X116376Y6459D01*
X115542D01*
X114709Y5626D01*
Y3960D01*
X115542Y3127D01*
X119708Y8125D02*
X114709D01*
Y10624D01*
X115542Y11457D01*
X118875D01*
X119708Y10624D01*
Y8125D01*
X114709Y13124D02*
X118042D01*
X119708Y14790D01*
X118042Y16456D01*
X114709D01*
X117209D01*
Y13124D01*
X134275Y6459D02*
Y3127D01*
X131776D01*
Y4793D01*
Y3127D01*
X129276D01*
Y8125D02*
X132609D01*
X134275Y9791D01*
X132609Y11457D01*
X129276D01*
X131776D01*
Y8125D01*
X134275Y13124D02*
X130109D01*
X129276Y13957D01*
Y15623D01*
X130109Y16456D01*
X134275D01*
Y18122D02*
X129276D01*
Y21454D01*
X134275Y23120D02*
Y26452D01*
Y24786D01*
X129276D01*
X148402Y6459D02*
X149235Y5626D01*
Y3960D01*
X148402Y3127D01*
X147569D01*
X146736Y3960D01*
Y5626D01*
X145903Y6459D01*
X145070D01*
X144237Y5626D01*
Y3960D01*
X145070Y3127D01*
X149235Y10624D02*
Y8958D01*
X148402Y8125D01*
X145070D01*
X144237Y8958D01*
Y10624D01*
X145070Y11457D01*
X148402D01*
X149235Y10624D01*
Y16456D02*
Y13124D01*
X146736D01*
Y14790D01*
Y13124D01*
X144237D01*
X149235Y18122D02*
Y21454D01*
Y19788D01*
X144237D01*
X163802Y6459D02*
Y3127D01*
X158804D01*
Y6459D01*
X161303Y3127D02*
Y4793D01*
X158804Y8125D02*
X163802D01*
X158804Y11457D01*
X163802D01*
X174552Y3127D02*
X179550D01*
Y5626D01*
X178717Y6459D01*
X177051D01*
X176218Y5626D01*
Y3127D01*
X179550Y8125D02*
X174552D01*
X176218Y9791D01*
X174552Y11457D01*
X179550D01*
X174552Y13124D02*
X179550D01*
X177884Y14790D01*
X179550Y16456D01*
X174552D01*
X193724Y3127D02*
Y4793D01*
Y3960D01*
X188725D01*
Y3127D01*
Y4793D01*
Y7292D02*
Y9791D01*
X189558Y10624D01*
X190391Y9791D01*
Y8125D01*
X191224Y7292D01*
X192057Y8125D01*
Y10624D01*
X188725Y14790D02*
Y13124D01*
X189558Y12291D01*
X191224D01*
X192057Y13124D01*
Y14790D01*
X191224Y15623D01*
X190391D01*
Y12291D01*
X188725Y17289D02*
X192057D01*
Y19788D01*
X191224Y20621D01*
X188725D01*
X206972Y3127D02*
Y6459D01*
X208639Y4793D02*
X205306D01*
X209472Y11457D02*
Y8125D01*
X206972D01*
X207805Y9791D01*
Y10624D01*
X206972Y11457D01*
X205306D01*
X204473Y10624D01*
Y8958D01*
X205306Y8125D01*
X209472Y13124D02*
X206139D01*
X204473Y14790D01*
X206139Y16456D01*
X209472D01*
X223599Y6459D02*
X224432Y5626D01*
Y3960D01*
X223599Y3127D01*
X220267D01*
X219434Y3960D01*
Y5626D01*
X220267Y6459D01*
X221933D01*
Y4793D01*
X219434Y8125D02*
X224432D01*
X219434Y11457D01*
X224432D01*
Y13124D02*
X219434D01*
Y15623D01*
X220267Y16456D01*
X223599D01*
X224432Y15623D01*
Y13124D01*
D16*
X255911Y350387D02*
X259846Y354323D01*
X267718D01*
X271654Y350387D01*
Y346452D01*
X267718Y342516D01*
X259846D01*
X255911Y338580D01*
Y334644D01*
X259846Y330709D01*
X267718D01*
X271654Y334644D01*
X232296Y354323D02*
X248039D01*
Y330709D01*
X232296D01*
X248039Y342516D02*
X240168D01*
X224425Y330709D02*
Y354323D01*
X216553Y346452D01*
X208682Y354323D01*
Y330709D01*
D73*
X279100Y221932D02*
X277434Y218600D01*
X275768Y221932D01*
X274102Y218600D02*
Y223598D01*
X272435Y221932D01*
X270769Y223598D01*
Y218600D01*
X266604Y223598D02*
X268270D01*
X269103Y222765D01*
Y219433D01*
X268270Y218600D01*
X266604D01*
X265771Y219433D01*
Y222765D01*
X266604Y223598D01*
X264105D02*
X260773D01*
X262439D01*
Y218600D01*
X259106D02*
X256607D01*
X255774Y219433D01*
X256607Y220266D01*
X258273D01*
X259106Y221099D01*
X258273Y221932D01*
X255774D01*
X276900Y202400D02*
X275234D01*
X276067D01*
Y205732D01*
X276900D01*
X272735Y202400D02*
Y207398D01*
X271069Y205732D01*
X269402Y207398D01*
Y202400D01*
X265237Y207398D02*
X266903D01*
X267736Y206565D01*
Y203233D01*
X266903Y202400D01*
X265237D01*
X264404Y203233D01*
Y206565D01*
X265237Y207398D01*
X262738D02*
X259406D01*
X261072D01*
Y202400D01*
M02*
