G04*
G04 #@! TF.GenerationSoftware,Altium Limited,Altium Designer,26.3.0 (6)*
G04*
G04 Layer_Physical_Order=1*
G04 Layer_Color=255*
%FSLAX25Y25*%
%MOIN*%
G70*
G04*
G04 #@! TF.SameCoordinates,A65C1770-D034-4F41-963D-00CE30BAA99E*
G04*
G04*
G04 #@! TF.FilePolarity,Positive*
G04*
G01*
G75*
%ADD16C,0.03937*%
G04:AMPARAMS|DCode=19|XSize=21.65mil|YSize=49.21mil|CornerRadius=1.95mil|HoleSize=0mil|Usage=FLASHONLY|Rotation=90.000|XOffset=0mil|YOffset=0mil|HoleType=Round|Shape=RoundedRectangle|*
%AMROUNDEDRECTD19*
21,1,0.02165,0.04532,0,0,90.0*
21,1,0.01776,0.04921,0,0,90.0*
1,1,0.00390,0.02266,0.00888*
1,1,0.00390,0.02266,-0.00888*
1,1,0.00390,-0.02266,-0.00888*
1,1,0.00390,-0.02266,0.00888*
%
%ADD19ROUNDEDRECTD19*%
G04:AMPARAMS|DCode=20|XSize=73.78mil|YSize=21.34mil|CornerRadius=10.67mil|HoleSize=0mil|Usage=FLASHONLY|Rotation=180.000|XOffset=0mil|YOffset=0mil|HoleType=Round|Shape=RoundedRectangle|*
%AMROUNDEDRECTD20*
21,1,0.07378,0.00000,0,0,180.0*
21,1,0.05244,0.02134,0,0,180.0*
1,1,0.02134,-0.02622,0.00000*
1,1,0.02134,0.02622,0.00000*
1,1,0.02134,0.02622,0.00000*
1,1,0.02134,-0.02622,0.00000*
%
%ADD20ROUNDEDRECTD20*%
%ADD21R,0.07378X0.02134*%
%ADD22O,0.08858X0.02559*%
%ADD23R,0.05984X0.02362*%
%ADD24R,0.04803X0.01575*%
%ADD25R,0.02362X0.05709*%
%ADD29R,0.02362X0.06102*%
%ADD35C,0.06181*%
%ADD47C,0.05567*%
%ADD48R,0.05567X0.05567*%
%ADD51C,0.02000*%
%ADD52C,0.01500*%
%ADD53C,0.04000*%
%ADD54C,0.01543*%
%ADD55C,0.01314*%
%ADD56C,0.03937*%
%ADD57C,0.05906*%
G04:AMPARAMS|DCode=58|XSize=59.06mil|YSize=59.06mil|CornerRadius=14.76mil|HoleSize=0mil|Usage=FLASHONLY|Rotation=0.000|XOffset=0mil|YOffset=0mil|HoleType=Round|Shape=RoundedRectangle|*
%AMROUNDEDRECTD58*
21,1,0.05906,0.02953,0,0,0.0*
21,1,0.02953,0.05906,0,0,0.0*
1,1,0.02953,0.01476,-0.01476*
1,1,0.02953,-0.01476,-0.01476*
1,1,0.02953,-0.01476,0.01476*
1,1,0.02953,0.01476,0.01476*
%
%ADD58ROUNDEDRECTD58*%
%ADD59C,0.04961*%
%ADD60R,0.05315X0.05315*%
%ADD61C,0.05315*%
%ADD62C,0.08268*%
G04:AMPARAMS|DCode=63|XSize=82.68mil|YSize=82.68mil|CornerRadius=20.67mil|HoleSize=0mil|Usage=FLASHONLY|Rotation=0.000|XOffset=0mil|YOffset=0mil|HoleType=Round|Shape=RoundedRectangle|*
%AMROUNDEDRECTD63*
21,1,0.08268,0.04134,0,0,0.0*
21,1,0.04134,0.08268,0,0,0.0*
1,1,0.04134,0.02067,-0.02067*
1,1,0.04134,-0.02067,-0.02067*
1,1,0.04134,-0.02067,0.02067*
1,1,0.04134,0.02067,0.02067*
%
%ADD63ROUNDEDRECTD63*%
G04:AMPARAMS|DCode=64|XSize=62.99mil|YSize=62.99mil|CornerRadius=15.75mil|HoleSize=0mil|Usage=FLASHONLY|Rotation=90.000|XOffset=0mil|YOffset=0mil|HoleType=Round|Shape=RoundedRectangle|*
%AMROUNDEDRECTD64*
21,1,0.06299,0.03150,0,0,90.0*
21,1,0.03150,0.06299,0,0,90.0*
1,1,0.03150,0.01575,0.01575*
1,1,0.03150,0.01575,-0.01575*
1,1,0.03150,-0.01575,-0.01575*
1,1,0.03150,-0.01575,0.01575*
%
%ADD64ROUNDEDRECTD64*%
%ADD65C,0.06299*%
%ADD66C,0.29528*%
%ADD67R,0.05315X0.05315*%
%ADD68R,0.05118X0.05118*%
%ADD69C,0.05118*%
G04:AMPARAMS|DCode=70|XSize=82.68mil|YSize=82.68mil|CornerRadius=20.67mil|HoleSize=0mil|Usage=FLASHONLY|Rotation=90.000|XOffset=0mil|YOffset=0mil|HoleType=Round|Shape=RoundedRectangle|*
%AMROUNDEDRECTD70*
21,1,0.08268,0.04134,0,0,90.0*
21,1,0.04134,0.08268,0,0,90.0*
1,1,0.04134,0.02067,0.02067*
1,1,0.04134,0.02067,-0.02067*
1,1,0.04134,-0.02067,-0.02067*
1,1,0.04134,-0.02067,0.02067*
%
%ADD70ROUNDEDRECTD70*%
%ADD71C,0.02756*%
%ADD72C,0.05000*%
G36*
X259696Y393201D02*
X257728Y392562D01*
X255518Y391435D01*
X253510Y389977D01*
X251756Y388222D01*
X250297Y386215D01*
X249171Y384004D01*
X248404Y381644D01*
X248016Y379193D01*
Y376712D01*
X248404Y374261D01*
X249171Y371902D01*
X250297Y369691D01*
X251756Y367683D01*
X253510Y365929D01*
X255518Y364470D01*
X257728Y363344D01*
X260088Y362577D01*
X262539Y362189D01*
X265020D01*
X267471Y362577D01*
X269831Y363344D01*
X272042Y364470D01*
X274049Y365929D01*
X275803Y367683D01*
X277262Y369691D01*
X278388Y371902D01*
X279028Y373869D01*
X279528Y373790D01*
Y134377D01*
X279093Y134096D01*
X279028Y134103D01*
X278862Y134351D01*
X278862Y134351D01*
X255076Y158137D01*
X255178Y158314D01*
X255528Y159620D01*
Y160971D01*
X255178Y162277D01*
X254502Y163448D01*
X253546Y164404D01*
X252375Y165080D01*
X251070Y165429D01*
X249718D01*
X248412Y165080D01*
X247241Y164404D01*
X246286Y163448D01*
X245610Y162277D01*
X245260Y160971D01*
Y159620D01*
X245610Y158314D01*
X246286Y157143D01*
X247241Y156187D01*
X248412Y155512D01*
X249718Y155162D01*
X251070D01*
X252375Y155512D01*
X252552Y155614D01*
X275816Y132350D01*
Y123103D01*
X275316Y122897D01*
X255076Y143137D01*
X255178Y143314D01*
X255528Y144620D01*
Y145972D01*
X255178Y147277D01*
X254502Y148448D01*
X253546Y149404D01*
X252375Y150080D01*
X251070Y150429D01*
X249718D01*
X248412Y150080D01*
X247241Y149404D01*
X246286Y148448D01*
X245610Y147277D01*
X245260Y145972D01*
Y144620D01*
X245610Y143314D01*
X246286Y142143D01*
X247241Y141188D01*
X248412Y140512D01*
X249718Y140162D01*
X251070D01*
X252375Y140512D01*
X252552Y140614D01*
X272416Y120750D01*
Y93407D01*
X259927Y80918D01*
X253984D01*
X253777Y81418D01*
X254502Y82143D01*
X255178Y83314D01*
X255528Y84620D01*
Y85971D01*
X255178Y87277D01*
X254502Y88448D01*
X253546Y89404D01*
X252375Y90080D01*
X251070Y90430D01*
X249718D01*
X248412Y90080D01*
X247241Y89404D01*
X246286Y88448D01*
X245610Y87277D01*
X245260Y85971D01*
Y84620D01*
X245610Y83314D01*
X246286Y82143D01*
X247011Y81418D01*
X246804Y80918D01*
X240555D01*
X240323Y81150D01*
X239449Y81512D01*
X238503D01*
X237629Y81150D01*
X236960Y80481D01*
X236598Y79607D01*
Y78661D01*
X236660Y78513D01*
X236354Y78022D01*
X236000Y77992D01*
X235993Y78000D01*
X235119Y78362D01*
X234173D01*
X233299Y78000D01*
X232630Y77331D01*
X232268Y76457D01*
Y75511D01*
X232630Y74637D01*
X233299Y73968D01*
X234173Y73606D01*
X235119D01*
X235993Y73968D01*
X236224Y74200D01*
X240158D01*
Y23919D01*
X239860Y23622D01*
X107874D01*
Y44101D01*
X108336Y44292D01*
X110355Y42273D01*
X111016Y41831D01*
X111797Y41676D01*
X111797Y41676D01*
X120336D01*
X127713Y34299D01*
X127380Y33058D01*
Y31706D01*
X127730Y30400D01*
X128406Y29230D01*
X129362Y28274D01*
X130533Y27598D01*
X131838Y27248D01*
X133190D01*
X134496Y27598D01*
X135666Y28274D01*
X136622Y29230D01*
X137298Y30400D01*
X137648Y31706D01*
Y33058D01*
X137298Y34363D01*
X136622Y35534D01*
X135666Y36490D01*
X134496Y37166D01*
X133190Y37516D01*
X131838D01*
X130597Y37183D01*
X122623Y45157D01*
X121961Y45599D01*
X121181Y45754D01*
X112641D01*
X110323Y48073D01*
Y51723D01*
X110785Y51914D01*
X110809Y51889D01*
X111711Y51369D01*
X112716Y51100D01*
X112736D01*
Y55053D01*
Y59005D01*
X112716D01*
X111711Y58736D01*
X110809Y58215D01*
X110785Y58191D01*
X110323Y58382D01*
Y62583D01*
X110323Y62583D01*
X110167Y63363D01*
X109725Y64025D01*
X109725Y64025D01*
X107874Y65876D01*
Y74803D01*
X96874D01*
X96624Y75236D01*
X96676Y75327D01*
X96902Y76170D01*
X93433D01*
X89964D01*
X90190Y75327D01*
X90242Y75236D01*
X89992Y74803D01*
X77189D01*
X76939Y75236D01*
X76991Y75327D01*
X77228Y76212D01*
Y77128D01*
X76991Y78013D01*
X76533Y78807D01*
X75885Y79455D01*
X75091Y79913D01*
X74206Y80151D01*
X73290D01*
X72405Y79913D01*
X71611Y79455D01*
X71366Y79210D01*
X70866Y79417D01*
Y110236D01*
X66929Y114173D01*
X40224D01*
X40032Y114635D01*
X47505Y122108D01*
X47947Y122769D01*
X48102Y123550D01*
Y180599D01*
X48441Y181417D01*
Y182363D01*
X48079Y183237D01*
X47410Y183906D01*
X46536Y184268D01*
X45590D01*
X44716Y183906D01*
X44047Y183237D01*
X43685Y182363D01*
Y181417D01*
X44024Y180599D01*
Y124394D01*
X34730Y115100D01*
X34268Y115291D01*
Y115971D01*
X33918Y117277D01*
X33242Y118447D01*
X32286Y119403D01*
X31115Y120079D01*
X29810Y120429D01*
X28458D01*
X27152Y120079D01*
X25982Y119403D01*
X25026Y118447D01*
X24350Y117277D01*
X24000Y115971D01*
Y114619D01*
X24013Y114570D01*
X23709Y114173D01*
X0D01*
Y373790D01*
X500Y373869D01*
X1139Y371902D01*
X2266Y369691D01*
X3724Y367683D01*
X5479Y365929D01*
X7486Y364470D01*
X9697Y363344D01*
X12057Y362577D01*
X14507Y362189D01*
X16989D01*
X19439Y362577D01*
X21799Y363344D01*
X24010Y364470D01*
X26017Y365929D01*
X27772Y367683D01*
X29230Y369691D01*
X30357Y371902D01*
X31124Y374261D01*
X31512Y376712D01*
Y379193D01*
X31124Y381644D01*
X30357Y384004D01*
X29230Y386215D01*
X27772Y388222D01*
X26017Y389977D01*
X24010Y391435D01*
X21799Y392562D01*
X19832Y393201D01*
X19911Y393701D01*
X259616D01*
X259696Y393201D01*
D02*
G37*
%LPC*%
G36*
X66128Y379453D02*
Y376484D01*
X69097D01*
X68871Y377328D01*
X68412Y378121D01*
X67764Y378769D01*
X66971Y379227D01*
X66128Y379453D01*
D02*
G37*
G36*
X52749D02*
Y376484D01*
X55718D01*
X55492Y377328D01*
X55033Y378121D01*
X54386Y378769D01*
X53592Y379227D01*
X52749Y379453D01*
D02*
G37*
G36*
X39369D02*
Y376484D01*
X42339D01*
X42113Y377328D01*
X41654Y378121D01*
X41006Y378769D01*
X40213Y379227D01*
X39369Y379453D01*
D02*
G37*
G36*
X65127D02*
X64284Y379227D01*
X63490Y378769D01*
X62843Y378121D01*
X62384Y377328D01*
X62158Y376484D01*
X65127D01*
Y379453D01*
D02*
G37*
G36*
X51749D02*
X50905Y379227D01*
X50112Y378769D01*
X49464Y378121D01*
X49005Y377328D01*
X48779Y376484D01*
X51749D01*
Y379453D01*
D02*
G37*
G36*
X38370D02*
X37526Y379227D01*
X36733Y378769D01*
X36084Y378121D01*
X35626Y377328D01*
X35400Y376484D01*
X38370D01*
Y379453D01*
D02*
G37*
G36*
X158923Y383308D02*
X157927D01*
X156965Y383050D01*
X156102Y382552D01*
X155398Y381848D01*
X154900Y380985D01*
X154642Y380023D01*
Y379026D01*
X154900Y378064D01*
X155398Y377201D01*
X156102Y376497D01*
X156965Y375999D01*
X157927Y375741D01*
X158923D01*
X159886Y375999D01*
X160748Y376497D01*
X161453Y377201D01*
X161951Y378064D01*
X162209Y379026D01*
Y380023D01*
X161951Y380985D01*
X161453Y381848D01*
X160748Y382552D01*
X159886Y383050D01*
X158923Y383308D01*
D02*
G37*
G36*
X98923D02*
X97927D01*
X96965Y383050D01*
X96102Y382552D01*
X95398Y381848D01*
X94899Y380985D01*
X94642Y380023D01*
Y379026D01*
X94899Y378064D01*
X95398Y377201D01*
X96102Y376497D01*
X96965Y375999D01*
X97927Y375741D01*
X98923D01*
X99885Y375999D01*
X100748Y376497D01*
X101453Y377201D01*
X101951Y378064D01*
X102209Y379026D01*
Y380023D01*
X101951Y380985D01*
X101453Y381848D01*
X100748Y382552D01*
X99885Y383050D01*
X98923Y383308D01*
D02*
G37*
G36*
X204738Y378790D02*
X204700D01*
Y375200D01*
X208291D01*
Y375238D01*
X208012Y376279D01*
X207473Y377212D01*
X206712Y377973D01*
X205779Y378512D01*
X204738Y378790D01*
D02*
G37*
G36*
X203700D02*
X203661D01*
X202621Y378512D01*
X201688Y377973D01*
X200927Y377212D01*
X200388Y376279D01*
X200109Y375238D01*
Y375200D01*
X203700D01*
Y378790D01*
D02*
G37*
G36*
X69097Y375484D02*
X66128D01*
Y372515D01*
X66971Y372741D01*
X67764Y373199D01*
X68412Y373847D01*
X68871Y374641D01*
X69097Y375484D01*
D02*
G37*
G36*
X55718D02*
X52749D01*
Y372515D01*
X53592Y372741D01*
X54386Y373199D01*
X55033Y373847D01*
X55492Y374641D01*
X55718Y375484D01*
D02*
G37*
G36*
X42339D02*
X39369D01*
Y372515D01*
X40213Y372741D01*
X41006Y373199D01*
X41654Y373847D01*
X42113Y374641D01*
X42339Y375484D01*
D02*
G37*
G36*
X65127D02*
X62158D01*
X62384Y374641D01*
X62843Y373847D01*
X63490Y373199D01*
X64284Y372741D01*
X65127Y372515D01*
Y375484D01*
D02*
G37*
G36*
X51749D02*
X48779D01*
X49005Y374641D01*
X49464Y373847D01*
X50112Y373199D01*
X50905Y372741D01*
X51749Y372515D01*
Y375484D01*
D02*
G37*
G36*
X38370D02*
X35400D01*
X35626Y374641D01*
X36084Y373847D01*
X36733Y373199D01*
X37526Y372741D01*
X38370Y372515D01*
Y375484D01*
D02*
G37*
G36*
X208291Y374200D02*
X204700D01*
Y370609D01*
X204738D01*
X205779Y370888D01*
X206712Y371427D01*
X207473Y372188D01*
X208012Y373121D01*
X208291Y374162D01*
Y374200D01*
D02*
G37*
G36*
X203700D02*
X200109D01*
Y374162D01*
X200388Y373121D01*
X200927Y372188D01*
X201688Y371427D01*
X202621Y370888D01*
X203661Y370609D01*
X203700D01*
Y374200D01*
D02*
G37*
G36*
X158923Y373308D02*
X157927D01*
X156965Y373050D01*
X156102Y372552D01*
X155398Y371848D01*
X154900Y370985D01*
X154642Y370023D01*
Y369026D01*
X154900Y368064D01*
X155352Y367280D01*
X155188Y366780D01*
X104053D01*
X102124Y368710D01*
X102209Y369026D01*
Y370023D01*
X101951Y370985D01*
X101453Y371848D01*
X100748Y372552D01*
X99885Y373050D01*
X98923Y373308D01*
X97927D01*
X96965Y373050D01*
X96102Y372552D01*
X95398Y371848D01*
X94899Y370985D01*
X94642Y370023D01*
Y369026D01*
X94899Y368064D01*
X95398Y367201D01*
X96102Y366497D01*
X96965Y365999D01*
X97927Y365741D01*
X98923D01*
X99240Y365826D01*
X101767Y363299D01*
X102428Y362857D01*
X103209Y362702D01*
X155545D01*
X155752Y362202D01*
X155398Y361848D01*
X154900Y360985D01*
X154642Y360023D01*
Y359026D01*
X154900Y358064D01*
X155398Y357201D01*
X156102Y356497D01*
X156965Y355999D01*
X157927Y355741D01*
X158923D01*
X159240Y355826D01*
X170252Y344814D01*
Y341235D01*
X169790Y341043D01*
X162124Y348710D01*
X162209Y349026D01*
Y350023D01*
X161951Y350985D01*
X161453Y351848D01*
X160748Y352552D01*
X159886Y353050D01*
X158923Y353308D01*
X157927D01*
X156965Y353050D01*
X156102Y352552D01*
X155398Y351848D01*
X154900Y350985D01*
X154642Y350023D01*
Y349026D01*
X154900Y348064D01*
X155398Y347201D01*
X156102Y346497D01*
X156965Y345999D01*
X157927Y345741D01*
X158923D01*
X159240Y345826D01*
X167252Y337814D01*
Y334235D01*
X166790Y334043D01*
X162124Y338710D01*
X162209Y339026D01*
Y340023D01*
X161951Y340985D01*
X161453Y341848D01*
X160748Y342552D01*
X159886Y343050D01*
X158923Y343308D01*
X157927D01*
X156965Y343050D01*
X156102Y342552D01*
X155398Y341848D01*
X154900Y340985D01*
X154642Y340023D01*
Y339026D01*
X154900Y338064D01*
X155398Y337201D01*
X156102Y336497D01*
X156965Y335999D01*
X157927Y335741D01*
X158923D01*
X159240Y335826D01*
X164102Y330963D01*
Y186135D01*
X164258Y185355D01*
X164302Y185289D01*
X163914Y184970D01*
X158960Y189923D01*
Y211189D01*
X158805Y211969D01*
X158363Y212631D01*
X155773Y215222D01*
X148292Y222702D01*
X141409Y229585D01*
Y285225D01*
X153669Y297485D01*
X155234D01*
X155398Y297201D01*
X156102Y296497D01*
X156965Y295999D01*
X157927Y295741D01*
X158923D01*
X159886Y295999D01*
X160748Y296497D01*
X161453Y297201D01*
X161951Y298064D01*
X162209Y299026D01*
Y300023D01*
X161951Y300985D01*
X161453Y301848D01*
X160748Y302552D01*
X159886Y303050D01*
X158923Y303308D01*
X157927D01*
X156965Y303050D01*
X156102Y302552D01*
X155398Y301848D01*
X155234Y301564D01*
X152824D01*
X152044Y301409D01*
X151383Y300967D01*
X137928Y287512D01*
X137486Y286850D01*
X137331Y286070D01*
Y228740D01*
X137486Y227960D01*
X137928Y227298D01*
X143967Y221260D01*
X142364Y219657D01*
X135723D01*
X135604Y219864D01*
X134923Y220545D01*
X134089Y221026D01*
X133159Y221276D01*
X132196D01*
X131265Y221026D01*
X130431Y220545D01*
X129751Y219864D01*
X129269Y219030D01*
X129020Y218100D01*
Y217137D01*
X129269Y216206D01*
X129751Y215372D01*
X130431Y214691D01*
X131265Y214210D01*
X132196Y213961D01*
X133159D01*
X134089Y214210D01*
X134923Y214691D01*
X135604Y215372D01*
X135723Y215579D01*
X143209D01*
X143989Y215734D01*
X144651Y216176D01*
X146850Y218376D01*
X152889Y212338D01*
X154882Y210344D01*
Y207194D01*
X154466Y206916D01*
X154016Y207102D01*
X153070D01*
X152196Y206740D01*
X151527Y206071D01*
X151165Y205197D01*
Y204251D01*
X151504Y203433D01*
Y173332D01*
X151659Y172551D01*
X152101Y171890D01*
X155514Y168477D01*
Y167690D01*
X155508Y167659D01*
Y126811D01*
X155663Y126031D01*
X156105Y125369D01*
X157016Y124458D01*
Y118568D01*
X156554Y118377D01*
X153929Y121002D01*
X153591Y121819D01*
X152922Y122488D01*
X152048Y122850D01*
X151102D01*
X150228Y122488D01*
X150076Y122336D01*
X149614Y122528D01*
Y124897D01*
X150194Y125476D01*
X154625D01*
Y132791D01*
X147310D01*
Y128360D01*
X146133Y127183D01*
X145691Y126522D01*
X145535Y125741D01*
Y122223D01*
X140026D01*
X139907Y122430D01*
X139226Y123111D01*
X138392Y123592D01*
X137462Y123841D01*
X136499D01*
X135568Y123592D01*
X134734Y123111D01*
X134053Y122430D01*
X133572Y121596D01*
X133323Y120666D01*
Y119702D01*
X133572Y118772D01*
X134053Y117938D01*
X134734Y117257D01*
X135568Y116776D01*
X136499Y116526D01*
X137462D01*
X138392Y116776D01*
X139226Y117257D01*
X139907Y117938D01*
X140026Y118145D01*
X145535D01*
Y110395D01*
X144953D01*
X144146Y110235D01*
X143462Y109778D01*
X143005Y109094D01*
X142961Y108870D01*
X142418Y108706D01*
X133399Y117725D01*
X132737Y118167D01*
X131957Y118323D01*
X128656D01*
X128461Y118518D01*
Y120065D01*
X135490Y127095D01*
X136324D01*
X136443Y126888D01*
X137124Y126207D01*
X137958Y125726D01*
X138889Y125476D01*
X139851D01*
X140782Y125726D01*
X141616Y126207D01*
X142297Y126888D01*
X142778Y127722D01*
X143027Y128652D01*
Y129615D01*
X142778Y130546D01*
X142297Y131380D01*
X141616Y132061D01*
X140782Y132542D01*
X139851Y132791D01*
X138889D01*
X137958Y132542D01*
X137124Y132061D01*
X136443Y131380D01*
X136324Y131173D01*
X134646D01*
X133865Y131018D01*
X133204Y130576D01*
X125577Y122949D01*
X123009D01*
X122818Y123411D01*
X126029Y126622D01*
X126471Y127284D01*
X126626Y128064D01*
Y180156D01*
X126471Y180936D01*
X126439Y180983D01*
Y204342D01*
X129237D01*
X129357Y204135D01*
X130038Y203454D01*
X130872Y202973D01*
X131802Y202723D01*
X132765D01*
X133695Y202973D01*
X134529Y203454D01*
X135210Y204135D01*
X135692Y204969D01*
X135941Y205899D01*
Y206862D01*
X135692Y207793D01*
X135210Y208627D01*
X134529Y209308D01*
X133695Y209789D01*
X132765Y210038D01*
X131802D01*
X130872Y209789D01*
X130038Y209308D01*
X129357Y208627D01*
X129237Y208420D01*
X126439D01*
Y292847D01*
X141078Y307485D01*
X155234D01*
X155398Y307201D01*
X156102Y306497D01*
X156965Y305999D01*
X157927Y305741D01*
X158923D01*
X159886Y305999D01*
X160748Y306497D01*
X161453Y307201D01*
X161951Y308064D01*
X162209Y309026D01*
Y310023D01*
X161951Y310985D01*
X161453Y311848D01*
X160748Y312552D01*
X159886Y313050D01*
X158923Y313308D01*
X157927D01*
X156965Y313050D01*
X156102Y312552D01*
X155398Y311848D01*
X155234Y311564D01*
X140233D01*
X140233Y311564D01*
X139453Y311408D01*
X138791Y310966D01*
X122958Y295133D01*
X122516Y294472D01*
X122361Y293691D01*
Y206693D01*
Y181676D01*
X121899Y181485D01*
X119362Y184022D01*
Y298762D01*
X138086Y317485D01*
X155234D01*
X155398Y317201D01*
X156102Y316497D01*
X156965Y315999D01*
X157927Y315741D01*
X158923D01*
X159886Y315999D01*
X160748Y316497D01*
X161453Y317201D01*
X161951Y318064D01*
X162209Y319026D01*
Y320023D01*
X161951Y320985D01*
X161453Y321848D01*
X160748Y322552D01*
X159886Y323050D01*
X158923Y323308D01*
X157927D01*
X156965Y323050D01*
X156102Y322552D01*
X155398Y321848D01*
X155234Y321564D01*
X137241D01*
X137241Y321564D01*
X136461Y321409D01*
X135799Y320967D01*
X135799Y320966D01*
X115881Y301048D01*
X115439Y300387D01*
X115284Y299606D01*
Y183177D01*
X115439Y182397D01*
X115881Y181735D01*
X118069Y179547D01*
X117878Y179085D01*
X113272D01*
Y171770D01*
X119547D01*
Y143194D01*
X119047Y142994D01*
X118341Y143402D01*
X117411Y143652D01*
X116448D01*
X115517Y143402D01*
X114683Y142921D01*
X114003Y142240D01*
X113521Y141406D01*
X113272Y140476D01*
Y139513D01*
X113521Y138582D01*
X114003Y137748D01*
X114683Y137067D01*
X115517Y136586D01*
X116448Y136337D01*
X117411D01*
X118341Y136586D01*
X119047Y136994D01*
X119547Y136794D01*
Y130151D01*
X119080Y129684D01*
X118618Y129875D01*
Y134481D01*
X111303D01*
Y127166D01*
X115909D01*
X116101Y126704D01*
X108401Y119004D01*
X107959Y118343D01*
X107803Y117562D01*
Y110047D01*
X107465Y109229D01*
Y108283D01*
X107827Y107409D01*
X108100Y107135D01*
X107937Y106591D01*
X107748Y106553D01*
X95740Y118561D01*
Y161417D01*
X95585Y162198D01*
X95143Y162859D01*
X90622Y167380D01*
Y170731D01*
X90467Y171512D01*
X90025Y172173D01*
X88322Y173877D01*
X88557Y174285D01*
Y177300D01*
X85543D01*
X85134Y177064D01*
X53562Y208636D01*
X53679Y209226D01*
X54103Y209401D01*
X54772Y210070D01*
X55134Y210944D01*
Y211890D01*
X54772Y212764D01*
X54103Y213433D01*
X53285Y213772D01*
X41409Y225648D01*
Y235864D01*
X41809Y236106D01*
X41909Y236106D01*
X49124D01*
Y243421D01*
X41909D01*
X41809Y243421D01*
X41409Y243663D01*
Y274276D01*
X41909Y274342D01*
X42058Y273785D01*
X42540Y272951D01*
X43221Y272270D01*
X44055Y271789D01*
X44985Y271539D01*
X45948D01*
X46878Y271789D01*
X47712Y272270D01*
X48393Y272951D01*
X48660Y273413D01*
X72441D01*
X73124Y273548D01*
X73703Y273935D01*
X79647Y279880D01*
X79647Y279880D01*
X80034Y280459D01*
X80170Y281142D01*
Y284531D01*
X81787D01*
Y287094D01*
X84153D01*
X84836Y287229D01*
X85415Y287616D01*
X94928Y297129D01*
X95552Y297046D01*
X96102Y296497D01*
X96965Y295999D01*
X97927Y295741D01*
X98923D01*
X99885Y295999D01*
X100748Y296497D01*
X101453Y297201D01*
X101951Y298064D01*
X102209Y299026D01*
Y300023D01*
X101951Y300985D01*
X101453Y301848D01*
X100748Y302552D01*
X99885Y303050D01*
X98923Y303308D01*
X97927D01*
X97859Y303290D01*
X97600Y303738D01*
X98909Y305047D01*
X99295Y305626D01*
X99341Y305853D01*
X99885Y305999D01*
X100748Y306497D01*
X101453Y307201D01*
X101951Y308064D01*
X102209Y309026D01*
Y310023D01*
X101951Y310985D01*
X101453Y311848D01*
X100748Y312552D01*
X99885Y313050D01*
X98923Y313308D01*
X97927D01*
X96965Y313050D01*
X96102Y312552D01*
X95398Y311848D01*
X94899Y310985D01*
X94642Y310023D01*
Y309026D01*
X94899Y308064D01*
X95398Y307201D01*
X95707Y306892D01*
X82287Y293472D01*
X82230Y293496D01*
X78386D01*
X74984D01*
Y292209D01*
Y289650D01*
Y287090D01*
Y284531D01*
X76601D01*
Y281881D01*
X71702Y276981D01*
X48660D01*
X48393Y277443D01*
X47712Y278124D01*
X46878Y278605D01*
X45948Y278854D01*
X44985D01*
X44055Y278605D01*
X43221Y278124D01*
X42540Y277443D01*
X42058Y276609D01*
X41909Y276052D01*
X41409Y276118D01*
Y278683D01*
X43962Y281235D01*
X44404Y281897D01*
X44559Y282677D01*
Y285713D01*
X46177D01*
X46434Y285319D01*
X46490Y285037D01*
X46877Y284458D01*
X51034Y280300D01*
X51613Y279914D01*
X52296Y279778D01*
X52296Y279778D01*
X68479D01*
X69161Y279914D01*
X69740Y280300D01*
X70619Y281179D01*
X71006Y281758D01*
X71142Y282441D01*
Y284531D01*
X71472D01*
Y287090D01*
Y289650D01*
Y292209D01*
Y295783D01*
X70110D01*
Y300813D01*
X69955Y301593D01*
X69513Y302255D01*
X68242Y303525D01*
X68441Y304266D01*
Y305183D01*
X68204Y306068D01*
X67746Y306861D01*
X67098Y307509D01*
X66304Y307967D01*
X65419Y308205D01*
X64502D01*
X63617Y307967D01*
X62824Y307509D01*
X62176Y306861D01*
X61717Y306068D01*
X61480Y305183D01*
Y304266D01*
X61717Y303381D01*
X62176Y302587D01*
X62824Y301940D01*
X63617Y301481D01*
X64502Y301244D01*
X64756D01*
X66032Y299968D01*
Y295783D01*
X64669D01*
Y295176D01*
X64169Y295077D01*
X64016Y295447D01*
X63347Y296116D01*
X62473Y296478D01*
X61527D01*
X60653Y296116D01*
X59984Y295447D01*
X59622Y294573D01*
Y293627D01*
X59984Y292753D01*
X60653Y292084D01*
X60743Y292047D01*
X60979Y291694D01*
X62035Y290638D01*
X61944Y290022D01*
X60766Y288844D01*
X60374Y288258D01*
X60237Y287566D01*
Y286828D01*
X59795Y286386D01*
X59433Y285512D01*
Y284566D01*
X59731Y283846D01*
X59488Y283346D01*
X53035D01*
X51131Y285251D01*
X51322Y285713D01*
X57415D01*
Y293027D01*
X50099D01*
X49689Y293243D01*
X49400Y293674D01*
X49400Y293675D01*
X46537Y296537D01*
X45958Y296924D01*
X45276Y297060D01*
X29398D01*
X29398Y297060D01*
X28715Y296924D01*
X28137Y296537D01*
X26117Y294518D01*
X22765D01*
X22083Y294382D01*
X21504Y293995D01*
X21504Y293995D01*
X18362Y290854D01*
X17975Y290275D01*
X17839Y289592D01*
Y276684D01*
X17869Y276534D01*
X17458Y275821D01*
X17209Y274891D01*
Y273928D01*
X17458Y272998D01*
X17939Y272164D01*
X18620Y271483D01*
X19454Y271001D01*
X20385Y270752D01*
X21348D01*
X22278Y271001D01*
X23051Y271448D01*
X23551Y271297D01*
Y268708D01*
X23051Y268500D01*
X22607Y268945D01*
X21733Y269307D01*
X20787D01*
X19913Y268945D01*
X19244Y268276D01*
X19050Y267808D01*
X18006Y266764D01*
X11095D01*
X10801Y267272D01*
X10028Y268045D01*
X9082Y268591D01*
X8027Y268874D01*
X6934D01*
X5878Y268591D01*
X4932Y268045D01*
X4160Y267272D01*
X3613Y266326D01*
X3331Y265271D01*
Y264178D01*
X3613Y263123D01*
X4160Y262177D01*
X4932Y261404D01*
X5878Y260858D01*
X6934Y260575D01*
X8027D01*
X9082Y260858D01*
X10028Y261404D01*
X10801Y262177D01*
X11095Y262685D01*
X18851D01*
X19631Y262841D01*
X20293Y263283D01*
X21561Y264551D01*
X21733D01*
X22607Y264913D01*
X23051Y265358D01*
X23551Y265151D01*
Y242634D01*
X21248D01*
Y242996D01*
X21093Y243776D01*
X20651Y244438D01*
X11478Y253611D01*
X11630Y254178D01*
Y255271D01*
X11347Y256326D01*
X10801Y257272D01*
X10028Y258045D01*
X9082Y258591D01*
X8027Y258874D01*
X6934D01*
X5878Y258591D01*
X4932Y258045D01*
X4160Y257272D01*
X3613Y256326D01*
X3331Y255271D01*
Y254178D01*
X3613Y253123D01*
X4160Y252177D01*
X4932Y251404D01*
X5878Y250858D01*
X6934Y250575D01*
X8027D01*
X8594Y250727D01*
X10145Y249176D01*
X9862Y248752D01*
X9727Y248808D01*
X9055Y248896D01*
X7980D01*
Y245224D01*
X11652D01*
Y246299D01*
X11564Y246972D01*
X11508Y247106D01*
X11932Y247389D01*
X17169Y242151D01*
Y240634D01*
X17209Y240437D01*
Y235319D01*
X23551D01*
Y229528D01*
X23707Y228747D01*
X24149Y228086D01*
X26422Y225812D01*
X26203Y225324D01*
X25520Y225041D01*
X24880Y224549D01*
X24388Y223909D01*
X24079Y223163D01*
X23974Y222362D01*
Y218228D01*
X24079Y217427D01*
X24388Y216681D01*
X24880Y216041D01*
X25520Y215549D01*
X26266Y215240D01*
X27067Y215135D01*
X31201D01*
X32001Y215240D01*
X32747Y215549D01*
X33388Y216041D01*
X33880Y216681D01*
X34189Y217427D01*
X34294Y218228D01*
Y221483D01*
X34756Y221674D01*
X72390Y184041D01*
X72198Y183579D01*
X72123D01*
X71193Y183329D01*
X70359Y182848D01*
X69678Y182167D01*
X69196Y181333D01*
X68947Y180403D01*
Y179440D01*
X69196Y178509D01*
X69678Y177675D01*
X70359Y176995D01*
X71193Y176513D01*
X72123Y176264D01*
X73086D01*
X73316Y176326D01*
X78176Y171465D01*
Y169886D01*
X78215Y169689D01*
Y167524D01*
X85988D01*
X86189Y167205D01*
X85988Y166886D01*
X78215D01*
Y162524D01*
X83023D01*
X83122Y162386D01*
X82865Y161886D01*
X78215D01*
Y161744D01*
X75059D01*
X74279Y161589D01*
X73617Y161147D01*
X71162Y158692D01*
X70720Y158030D01*
X70565Y157250D01*
Y148146D01*
X68947D01*
Y146527D01*
X64413D01*
X64294Y146734D01*
X63613Y147415D01*
X62779Y147896D01*
X61848Y148146D01*
X60886D01*
X59955Y147896D01*
X59121Y147415D01*
X58440Y146734D01*
X57959Y145900D01*
X57709Y144970D01*
Y144007D01*
X57959Y143077D01*
X58440Y142242D01*
X59121Y141561D01*
X59955Y141080D01*
X60886Y140831D01*
X61848D01*
X62779Y141080D01*
X63613Y141561D01*
X64294Y142242D01*
X64413Y142449D01*
X68947D01*
Y140831D01*
X70565D01*
Y137747D01*
X70720Y136967D01*
X71162Y136305D01*
X75932Y131536D01*
X75870Y131305D01*
Y130342D01*
X76119Y129412D01*
X76601Y128578D01*
X77282Y127897D01*
X78116Y127416D01*
X79046Y127166D01*
X80009D01*
X80939Y127416D01*
X81773Y127897D01*
X82454Y128578D01*
X82936Y129412D01*
X83185Y130342D01*
Y131305D01*
X82936Y132235D01*
X82454Y133070D01*
X81773Y133750D01*
X80939Y134232D01*
X80009Y134481D01*
X79046D01*
X78816Y134420D01*
X74644Y138592D01*
Y140831D01*
X76262D01*
Y148146D01*
X74644D01*
Y156405D01*
X75904Y157666D01*
X78215D01*
Y157524D01*
X86200D01*
Y159177D01*
X86662Y159369D01*
X88512Y157518D01*
Y147158D01*
X88012Y146951D01*
X87024Y147939D01*
Y148111D01*
X86662Y148985D01*
X85993Y149654D01*
X85119Y150016D01*
X84173D01*
X83299Y149654D01*
X82630Y148985D01*
X82268Y148111D01*
Y147165D01*
X82630Y146291D01*
X83299Y145622D01*
X83767Y145428D01*
X84761Y144434D01*
Y141041D01*
X84268Y141024D01*
X83906Y141898D01*
X83237Y142567D01*
X82390Y142918D01*
Y140551D01*
Y138184D01*
X83237Y138535D01*
X83906Y139204D01*
X84268Y140078D01*
X84761Y140061D01*
Y122545D01*
X84539Y122323D01*
X84097Y121661D01*
X83942Y120881D01*
Y97491D01*
X84097Y96710D01*
X84539Y96049D01*
X85711Y94877D01*
X85711Y94877D01*
X86372Y94435D01*
X87153Y94280D01*
X89237D01*
X89427Y94153D01*
X89919Y94055D01*
Y93545D01*
X89427Y93447D01*
X88673Y92944D01*
X88169Y92190D01*
X88092Y91800D01*
X93466D01*
X98840D01*
X98763Y92190D01*
X98259Y92944D01*
X97505Y93447D01*
X97013Y93545D01*
Y94055D01*
X97505Y94153D01*
X98259Y94657D01*
X98763Y95411D01*
X98940Y96300D01*
X98763Y97189D01*
X98259Y97944D01*
X97505Y98447D01*
X97013Y98545D01*
Y99055D01*
X97505Y99153D01*
X97695Y99280D01*
X108994D01*
X116453Y91821D01*
X116261Y91359D01*
X109878D01*
Y87125D01*
X109477Y86724D01*
X109028Y86983D01*
X109114Y87300D01*
X102012D01*
X102246Y86426D01*
X102620Y85780D01*
X102392Y85280D01*
X85799D01*
X85599Y85480D01*
X84725Y85843D01*
X83779D01*
X82905Y85480D01*
X82236Y84812D01*
X81874Y83938D01*
Y82992D01*
X82236Y82118D01*
X82905Y81449D01*
X83779Y81087D01*
X84725D01*
X85003Y81202D01*
X108878D01*
X109658Y81357D01*
X110320Y81799D01*
X112762Y84241D01*
X116996D01*
Y90624D01*
X117458Y90816D01*
X118107Y90167D01*
Y81929D01*
X118262Y81149D01*
X118704Y80487D01*
X121432Y77759D01*
X122094Y77317D01*
X122874Y77162D01*
X131957D01*
X132737Y77317D01*
X133399Y77759D01*
X136733Y81093D01*
X140638D01*
Y88408D01*
X133899D01*
X133692Y88908D01*
X141032Y96248D01*
X144608D01*
X144953Y96180D01*
X150197D01*
X151003Y96340D01*
X151687Y96797D01*
X152144Y97481D01*
X152304Y98287D01*
X152144Y99094D01*
X151687Y99778D01*
X151003Y100235D01*
X150197Y100395D01*
X144953D01*
X144608Y100327D01*
X140187D01*
X139407Y100171D01*
X138745Y99729D01*
X126891Y87874D01*
X126429Y88066D01*
Y93010D01*
X126429Y93011D01*
X126273Y93791D01*
X125831Y94453D01*
X114523Y105761D01*
X113861Y106203D01*
X113081Y106358D01*
X111475D01*
X111308Y106858D01*
X111858Y107409D01*
X112221Y108283D01*
Y109229D01*
X111882Y110047D01*
Y116718D01*
X114822Y119658D01*
X115284Y119466D01*
Y108771D01*
X114945Y107953D01*
Y107007D01*
X115307Y106133D01*
X115976Y105464D01*
X116850Y105102D01*
X117796D01*
X118670Y105464D01*
X119339Y106133D01*
X119701Y107007D01*
Y107953D01*
X119362Y108771D01*
Y119955D01*
X120684Y121277D01*
X121146Y121086D01*
Y115634D01*
X125577D01*
X126369Y114841D01*
X127031Y114399D01*
X127811Y114244D01*
X131112D01*
X143267Y102089D01*
X143462Y101797D01*
X144146Y101340D01*
X144953Y101180D01*
X150197D01*
X151003Y101340D01*
X151687Y101797D01*
X152144Y102481D01*
X152304Y103287D01*
X152144Y104094D01*
X151687Y104778D01*
X151003Y105235D01*
X150197Y105395D01*
X145813D01*
X145555Y105720D01*
X145756Y106180D01*
X150197D01*
X151003Y106340D01*
X151687Y106797D01*
X152144Y107481D01*
X152304Y108287D01*
X152144Y109094D01*
X151687Y109778D01*
X151003Y110235D01*
X150197Y110395D01*
X149614D01*
Y118417D01*
X150076Y118609D01*
X150228Y118456D01*
X151046Y118118D01*
X154016Y115147D01*
Y78445D01*
X154171Y77665D01*
X154613Y77003D01*
X160475Y71141D01*
Y37133D01*
X159362Y36490D01*
X158406Y35534D01*
X157730Y34363D01*
X157380Y33058D01*
Y31706D01*
X157730Y30400D01*
X158406Y29230D01*
X159362Y28274D01*
X160532Y27598D01*
X161838Y27248D01*
X163190D01*
X164496Y27598D01*
X165666Y28274D01*
X166622Y29230D01*
X167298Y30400D01*
X167648Y31706D01*
Y33058D01*
X167298Y34363D01*
X166622Y35534D01*
X165666Y36490D01*
X164553Y37133D01*
Y71856D01*
X164999Y72117D01*
X175475Y61641D01*
Y54070D01*
X174788Y53673D01*
X174027Y52912D01*
X173488Y51979D01*
X173209Y50938D01*
Y49861D01*
X173488Y48821D01*
X174027Y47888D01*
X174788Y47127D01*
X175475Y46730D01*
Y37133D01*
X174362Y36490D01*
X173406Y35534D01*
X172730Y34363D01*
X172380Y33058D01*
Y31706D01*
X172730Y30400D01*
X173406Y29230D01*
X174362Y28274D01*
X175532Y27598D01*
X176838Y27248D01*
X178190D01*
X179496Y27598D01*
X180666Y28274D01*
X181622Y29230D01*
X182298Y30400D01*
X182648Y31706D01*
Y33058D01*
X182298Y34363D01*
X181622Y35534D01*
X180666Y36490D01*
X179553Y37133D01*
Y46978D01*
X179812Y47127D01*
X180573Y47888D01*
X181112Y48821D01*
X181391Y49861D01*
Y50938D01*
X181112Y51979D01*
X180573Y52912D01*
X179812Y53673D01*
X179553Y53822D01*
Y62486D01*
X179398Y63266D01*
X178956Y63928D01*
X168652Y74232D01*
X168866Y74725D01*
X169585D01*
X170470Y74962D01*
X171264Y75420D01*
X171912Y76068D01*
X172370Y76862D01*
X172596Y77705D01*
X169127D01*
Y78205D01*
X168627D01*
Y81674D01*
X167784Y81448D01*
X166990Y80990D01*
X166342Y80342D01*
X165884Y79548D01*
X165647Y78663D01*
Y77944D01*
X165154Y77730D01*
X161094Y81789D01*
Y90732D01*
X161122Y91220D01*
X170500D01*
Y91248D01*
X181458D01*
X187743Y84964D01*
X187681Y84733D01*
Y83771D01*
X187930Y82840D01*
X188412Y82006D01*
X189093Y81325D01*
X189927Y80844D01*
X190761Y80620D01*
X190936Y80339D01*
X191011Y80094D01*
X190866Y79877D01*
X190730Y79194D01*
Y54101D01*
X189988Y53673D01*
X189227Y52912D01*
X188688Y51979D01*
X188409Y50938D01*
Y49861D01*
X188688Y48821D01*
X189227Y47888D01*
X189988Y47127D01*
X190730Y46699D01*
Y37219D01*
X190533Y37166D01*
X189362Y36490D01*
X188406Y35534D01*
X187730Y34363D01*
X187380Y33058D01*
Y31706D01*
X187730Y30400D01*
X188406Y29230D01*
X189362Y28274D01*
X190533Y27598D01*
X191838Y27248D01*
X193190D01*
X194496Y27598D01*
X195666Y28274D01*
X196622Y29230D01*
X197298Y30400D01*
X197648Y31706D01*
Y33058D01*
X197298Y34363D01*
X196622Y35534D01*
X195666Y36490D01*
X194496Y37166D01*
X194298Y37219D01*
Y46715D01*
X195012Y47127D01*
X195773Y47888D01*
X196312Y48821D01*
X196591Y49861D01*
Y50938D01*
X196312Y51979D01*
X195773Y52912D01*
X195012Y53673D01*
X194298Y54085D01*
Y78455D01*
X213073Y97230D01*
X213459Y97808D01*
X213595Y98491D01*
X213595Y98491D01*
Y119352D01*
X214095Y119451D01*
X214232Y119121D01*
X214901Y118452D01*
X215748Y118101D01*
Y120468D01*
Y122835D01*
X214901Y122484D01*
X214232Y121815D01*
X214095Y121485D01*
X213595Y121584D01*
Y126194D01*
X214095Y126401D01*
X214290Y126207D01*
X215124Y125726D01*
X216054Y125476D01*
X217017D01*
X217247Y125538D01*
X220273Y122512D01*
Y120864D01*
X220115Y120628D01*
X220023Y120162D01*
Y118387D01*
X220115Y117920D01*
X220380Y117525D01*
X220775Y117261D01*
X221241Y117168D01*
X225773D01*
X226239Y117261D01*
X226634Y117525D01*
X226898Y117920D01*
X226991Y118387D01*
Y120162D01*
X226898Y120628D01*
X226634Y121024D01*
X226239Y121288D01*
X225773Y121381D01*
X224351D01*
Y123357D01*
X224196Y124137D01*
X223754Y124799D01*
X220131Y128422D01*
X220193Y128652D01*
Y129615D01*
X219944Y130546D01*
X219462Y131380D01*
X218781Y132061D01*
X218557Y132190D01*
Y149026D01*
X218520Y149213D01*
Y150079D01*
X218158Y150953D01*
X217489Y151622D01*
X216615Y151984D01*
X215669D01*
X214795Y151622D01*
X214412Y151240D01*
X213827Y151347D01*
X213158Y152016D01*
X212284Y152378D01*
X211338D01*
X210464Y152016D01*
X209795Y151347D01*
X209433Y150473D01*
Y149527D01*
X209795Y148653D01*
X210027Y148421D01*
Y132196D01*
X209527Y131989D01*
X207339Y134177D01*
Y139883D01*
X207520Y140063D01*
X207978Y140857D01*
X208215Y141742D01*
Y142658D01*
X207978Y143543D01*
X207520Y144337D01*
X207339Y144518D01*
Y162000D01*
X207339Y162000D01*
X207184Y162780D01*
X206742Y163442D01*
X197138Y173046D01*
X197329Y173508D01*
X198319D01*
Y176665D01*
X195161D01*
Y175676D01*
X194700Y175484D01*
X177992Y192192D01*
Y238122D01*
X178492Y238429D01*
X178855Y238279D01*
X179528Y238190D01*
X182677D01*
X183349Y238279D01*
X183976Y238538D01*
X184514Y238951D01*
X184926Y239489D01*
X185186Y240115D01*
X185213Y240323D01*
X186850D01*
X187631Y240478D01*
X188292Y240920D01*
X193647Y246275D01*
X194465Y246614D01*
X195134Y247283D01*
X195473Y248101D01*
X200828Y253456D01*
X201270Y254117D01*
X201425Y254898D01*
X201425Y254898D01*
Y255450D01*
X201748D01*
Y263159D01*
X197386D01*
Y260155D01*
X197347Y259958D01*
X197347Y259957D01*
X197347Y259957D01*
Y255742D01*
X192589Y250985D01*
X191771Y250646D01*
X191102Y249977D01*
X190763Y249159D01*
X186006Y244401D01*
X185213D01*
X185186Y244609D01*
X184926Y245235D01*
X184514Y245773D01*
X183976Y246186D01*
X183349Y246445D01*
X182677Y246534D01*
X179528D01*
X178855Y246445D01*
X178492Y246295D01*
X177992Y246602D01*
Y248951D01*
X178454Y249142D01*
X178554Y249042D01*
X179501Y248495D01*
X180556Y248213D01*
X181649D01*
X182704Y248495D01*
X183650Y249042D01*
X184423Y249814D01*
X184969Y250761D01*
X185252Y251816D01*
Y252908D01*
X184969Y253964D01*
X184423Y254910D01*
X183650Y255683D01*
X182704Y256229D01*
X181649Y256512D01*
X180556D01*
X179501Y256229D01*
X178554Y255683D01*
X178454Y255582D01*
X177992Y255773D01*
Y258951D01*
X178454Y259142D01*
X178554Y259042D01*
X179501Y258495D01*
X180556Y258213D01*
X181649D01*
X182704Y258495D01*
X183650Y259042D01*
X184423Y259814D01*
X184717Y260323D01*
X192786D01*
X193567Y260478D01*
X194228Y260920D01*
X197804Y264496D01*
X206636D01*
X207347Y263785D01*
Y260319D01*
X207386Y260121D01*
Y257146D01*
X206886Y256879D01*
X206787Y256945D01*
Y259957D01*
X206748Y260154D01*
Y263159D01*
X202386D01*
Y255450D01*
X202769D01*
X202864Y254972D01*
X203306Y254310D01*
X207528Y250089D01*
Y248933D01*
X207386D01*
Y240831D01*
X211748D01*
Y248933D01*
X211606D01*
Y250089D01*
X212579Y251061D01*
X241638D01*
X242319Y251196D01*
X242388Y251127D01*
X243321Y250588D01*
X244361Y250309D01*
X245439D01*
X246479Y250588D01*
X247412Y251127D01*
X248173Y251888D01*
X248712Y252821D01*
X248991Y253861D01*
Y254939D01*
X248712Y255979D01*
X248173Y256912D01*
X247412Y257673D01*
X246479Y258212D01*
X245439Y258490D01*
X244361D01*
X243321Y258212D01*
X242388Y257673D01*
X241627Y256912D01*
X241088Y255979D01*
X240868Y255157D01*
X240842Y255139D01*
X232119D01*
X231748Y255450D01*
X231748Y255639D01*
Y258805D01*
X229567D01*
X227386D01*
X227386Y255705D01*
X227067Y255511D01*
X226748Y255705D01*
Y263159D01*
X222386D01*
X222386Y255705D01*
X222067Y255511D01*
X221748Y255705D01*
Y258805D01*
X219567D01*
X217386D01*
X217386Y255705D01*
X217067Y255511D01*
X216748Y255705D01*
Y258805D01*
X214567D01*
X212386D01*
X212386Y255705D01*
X212067Y255511D01*
X211748Y255705D01*
Y263159D01*
X211425D01*
Y264630D01*
X211270Y265410D01*
X210828Y266072D01*
X208922Y267977D01*
X208261Y268419D01*
X207480Y268575D01*
X196960D01*
X196960Y268575D01*
X196179Y268419D01*
X195518Y267977D01*
X191942Y264401D01*
X184717D01*
X184423Y264910D01*
X183650Y265683D01*
X183142Y265976D01*
Y282992D01*
X196342Y296193D01*
X196784Y296854D01*
X196939Y297635D01*
Y317354D01*
X197412Y317627D01*
X198173Y318388D01*
X198712Y319321D01*
X198991Y320361D01*
Y321439D01*
X198712Y322479D01*
X198173Y323412D01*
X197412Y324173D01*
X196479Y324712D01*
X195439Y324991D01*
X194361D01*
X193321Y324712D01*
X192388Y324173D01*
X191627Y323412D01*
X191088Y322479D01*
X190809Y321439D01*
Y320361D01*
X191088Y319321D01*
X191627Y318388D01*
X192388Y317627D01*
X192861Y317354D01*
Y298479D01*
X185610Y291229D01*
X185116Y291441D01*
X184904Y292229D01*
X184423Y293063D01*
X184087Y293399D01*
Y317064D01*
X184179Y317088D01*
X185112Y317627D01*
X185873Y318388D01*
X186412Y319321D01*
X186691Y320361D01*
Y321439D01*
X186412Y322479D01*
X185873Y323412D01*
X185112Y324173D01*
X184179Y324712D01*
X183139Y324991D01*
X182062D01*
X181021Y324712D01*
X180088Y324173D01*
X179327Y323412D01*
X178788Y322479D01*
X178509Y321439D01*
Y320361D01*
X178788Y319321D01*
X179327Y318388D01*
X180009Y317706D01*
Y294182D01*
X179250Y293744D01*
X178569Y293063D01*
X178492Y292929D01*
X177992Y293063D01*
Y348762D01*
X177837Y349542D01*
X177395Y350204D01*
X161415Y366183D01*
X161155Y366357D01*
X161106Y366855D01*
X161453Y367201D01*
X161951Y368064D01*
X162209Y369026D01*
Y370023D01*
X161951Y370985D01*
X161453Y371848D01*
X160748Y372552D01*
X159886Y373050D01*
X158923Y373308D01*
D02*
G37*
G36*
X98923Y363308D02*
X97927D01*
X96965Y363050D01*
X96102Y362552D01*
X95398Y361848D01*
X94899Y360985D01*
X94642Y360023D01*
Y359026D01*
X94899Y358064D01*
X95398Y357201D01*
X96102Y356497D01*
X96965Y355999D01*
X97927Y355741D01*
X98923D01*
X99885Y355999D01*
X100748Y356497D01*
X101453Y357201D01*
X101951Y358064D01*
X102209Y359026D01*
Y360023D01*
X101951Y360985D01*
X101453Y361848D01*
X100748Y362552D01*
X99885Y363050D01*
X98923Y363308D01*
D02*
G37*
G36*
X86139Y363850D02*
X43580D01*
X42800Y363695D01*
X42138Y363253D01*
X38665Y359780D01*
X38411D01*
X37526Y359542D01*
X36733Y359084D01*
X36084Y358436D01*
X35626Y357643D01*
X35389Y356757D01*
Y356504D01*
X26117Y347232D01*
X25675Y346570D01*
X25520Y345790D01*
Y345539D01*
X14537D01*
X14206Y346112D01*
X13445Y346873D01*
X12512Y347412D01*
X11472Y347691D01*
X10395D01*
X9354Y347412D01*
X8421Y346873D01*
X7660Y346112D01*
X7121Y345179D01*
X6842Y344139D01*
Y343061D01*
X7121Y342021D01*
X7660Y341088D01*
X8421Y340327D01*
X9354Y339788D01*
X10395Y339510D01*
X11472D01*
X12512Y339788D01*
X13445Y340327D01*
X14206Y341088D01*
X14421Y341461D01*
X25520D01*
Y329081D01*
X25675Y328300D01*
X26117Y327639D01*
X27804Y325952D01*
X27625Y325285D01*
Y324322D01*
X27874Y323392D01*
X28356Y322557D01*
X29037Y321877D01*
X29871Y321395D01*
X30801Y321146D01*
X31764D01*
X32694Y321395D01*
X33528Y321877D01*
X34209Y322557D01*
X34691Y323392D01*
X34940Y324322D01*
Y325285D01*
X34691Y326215D01*
X34209Y327049D01*
X33528Y327730D01*
X32694Y328211D01*
X31764Y328461D01*
X31063D01*
X29598Y329925D01*
Y343500D01*
Y344945D01*
X37670Y353017D01*
X38411Y352819D01*
X39328D01*
X40213Y353056D01*
X41006Y353514D01*
X41654Y354162D01*
X42113Y354956D01*
X42350Y355841D01*
Y356757D01*
X42151Y357498D01*
X44425Y359772D01*
X50303D01*
X50437Y359272D01*
X50112Y359084D01*
X49464Y358436D01*
X49005Y357643D01*
X48768Y356757D01*
Y355841D01*
X49005Y354956D01*
X49225Y354575D01*
X46158Y351508D01*
X45716Y350847D01*
X45561Y350066D01*
Y347961D01*
X44888Y347573D01*
X44127Y346812D01*
X43588Y345879D01*
X43309Y344839D01*
Y343761D01*
X43588Y342721D01*
X44127Y341788D01*
X44888Y341027D01*
X45561Y340638D01*
Y330728D01*
X43231Y328399D01*
X43001Y328461D01*
X42038D01*
X41108Y328211D01*
X40274Y327730D01*
X39593Y327049D01*
X39111Y326215D01*
X38862Y325285D01*
Y324322D01*
X39111Y323392D01*
X39593Y322557D01*
X40274Y321877D01*
X41108Y321395D01*
X42038Y321146D01*
X43001D01*
X43437Y321263D01*
X47142Y317558D01*
X47803Y317116D01*
X48583Y316961D01*
X87901D01*
X88681Y317116D01*
X89342Y317558D01*
X97610Y325826D01*
X97927Y325741D01*
X98923D01*
X99885Y325999D01*
X100748Y326497D01*
X101453Y327201D01*
X101951Y328064D01*
X102209Y329026D01*
Y330023D01*
X101951Y330985D01*
X101453Y331848D01*
X100748Y332552D01*
X99885Y333050D01*
X98923Y333308D01*
X97927D01*
X96965Y333050D01*
X96102Y332552D01*
X95398Y331848D01*
X94899Y330985D01*
X94642Y330023D01*
Y329026D01*
X94727Y328710D01*
X87056Y321039D01*
X55553D01*
X55418Y321539D01*
X56003Y321877D01*
X56684Y322557D01*
X57165Y323392D01*
X57415Y324322D01*
Y325285D01*
X57186Y326136D01*
X67069Y336019D01*
X72111Y341061D01*
X74885D01*
X74927Y340988D01*
X75688Y340227D01*
X76621Y339688D01*
X77662Y339409D01*
X78738D01*
X79779Y339688D01*
X80712Y340227D01*
X81473Y340988D01*
X81515Y341061D01*
X94005D01*
X94727Y340339D01*
X94642Y340023D01*
Y339026D01*
X94899Y338064D01*
X95398Y337201D01*
X96102Y336497D01*
X96965Y335999D01*
X97927Y335741D01*
X98923D01*
X99885Y335999D01*
X100748Y336497D01*
X101453Y337201D01*
X101951Y338064D01*
X102209Y339026D01*
Y340023D01*
X101951Y340985D01*
X101453Y341848D01*
X100748Y342552D01*
X99885Y343050D01*
X98923Y343308D01*
X97927D01*
X97610Y343223D01*
X96292Y344542D01*
X95630Y344984D01*
X94850Y345139D01*
X81977D01*
X81473Y346012D01*
X80712Y346773D01*
X79779Y347312D01*
X78738Y347590D01*
X77662D01*
X76621Y347312D01*
X75688Y346773D01*
X74927Y346012D01*
X74423Y345139D01*
X71266D01*
X70486Y344984D01*
X69824Y344542D01*
X68129Y342846D01*
X67667Y343037D01*
Y353458D01*
X67764Y353514D01*
X68412Y354162D01*
X68871Y354956D01*
X69108Y355841D01*
Y356757D01*
X68871Y357643D01*
X68412Y358436D01*
X67764Y359084D01*
X67439Y359272D01*
X67573Y359772D01*
X85294D01*
X94727Y350339D01*
X94642Y350023D01*
Y349026D01*
X94899Y348064D01*
X95398Y347201D01*
X96102Y346497D01*
X96965Y345999D01*
X97927Y345741D01*
X98923D01*
X99885Y345999D01*
X100748Y346497D01*
X101453Y347201D01*
X101951Y348064D01*
X102209Y349026D01*
Y350023D01*
X101951Y350985D01*
X101453Y351848D01*
X100748Y352552D01*
X99885Y353050D01*
X98923Y353308D01*
X97927D01*
X97610Y353223D01*
X87581Y363253D01*
X86919Y363695D01*
X86139Y363850D01*
D02*
G37*
G36*
X158923Y333308D02*
X157927D01*
X156965Y333050D01*
X156102Y332552D01*
X155398Y331848D01*
X154900Y330985D01*
X154642Y330023D01*
Y329026D01*
X154900Y328064D01*
X155398Y327201D01*
X156102Y326497D01*
X156965Y325999D01*
X157927Y325741D01*
X158923D01*
X159886Y325999D01*
X160748Y326497D01*
X161453Y327201D01*
X161951Y328064D01*
X162209Y329026D01*
Y330023D01*
X161951Y330985D01*
X161453Y331848D01*
X160748Y332552D01*
X159886Y333050D01*
X158923Y333308D01*
D02*
G37*
G36*
X98923Y323308D02*
X97927D01*
X96965Y323050D01*
X96102Y322552D01*
X95398Y321848D01*
X94899Y320985D01*
X94642Y320023D01*
Y319026D01*
X94899Y318064D01*
X95398Y317201D01*
X96102Y316497D01*
X96965Y315999D01*
X97927Y315741D01*
X98923D01*
X99885Y315999D01*
X100748Y316497D01*
X101453Y317201D01*
X101951Y318064D01*
X102209Y319026D01*
Y320023D01*
X101951Y320985D01*
X101453Y321848D01*
X100748Y322552D01*
X99885Y323050D01*
X98923Y323308D01*
D02*
G37*
G36*
X204804Y316551D02*
X203858D01*
X202984Y316189D01*
X202315Y315520D01*
X201953Y314646D01*
Y313700D01*
X202315Y312826D01*
X202984Y312157D01*
X203858Y311795D01*
X204804D01*
X205678Y312157D01*
X205909Y312389D01*
X247686D01*
X253408Y306667D01*
X253394Y306553D01*
X252838Y306154D01*
X252687Y306184D01*
X208279D01*
X208047Y306416D01*
X207173Y306778D01*
X206227D01*
X205353Y306416D01*
X204684Y305747D01*
X204322Y304873D01*
Y303927D01*
X204684Y303053D01*
X205353Y302384D01*
X206227Y302022D01*
X207173D01*
X208047Y302384D01*
X208279Y302616D01*
X251947D01*
X261730Y292833D01*
X262309Y292446D01*
X262992Y292310D01*
X271650D01*
X271881Y292079D01*
X272755Y291717D01*
X273701D01*
X274575Y292079D01*
X275244Y292747D01*
X275606Y293621D01*
Y294567D01*
X275244Y295442D01*
X274575Y296110D01*
X273701Y296472D01*
X272755D01*
X271881Y296110D01*
X271650Y295879D01*
X263731D01*
X261701Y297909D01*
X261908Y298410D01*
X262284D01*
X263158Y298772D01*
X263827Y299440D01*
X264189Y300314D01*
Y301260D01*
X263827Y302134D01*
X263158Y302803D01*
X262284Y303165D01*
X261956D01*
X249687Y315435D01*
X249108Y315822D01*
X248425Y315957D01*
X205909D01*
X205678Y316189D01*
X204804Y316551D01*
D02*
G37*
G36*
X85146Y308193D02*
Y305224D01*
X88115D01*
X87889Y306068D01*
X87431Y306861D01*
X86783Y307509D01*
X85989Y307967D01*
X85146Y308193D01*
D02*
G37*
G36*
X84146D02*
X83302Y307967D01*
X82509Y307509D01*
X81861Y306861D01*
X81402Y306068D01*
X81177Y305224D01*
X84146D01*
Y308193D01*
D02*
G37*
G36*
X88115Y304224D02*
X85146D01*
Y301255D01*
X85989Y301481D01*
X86783Y301940D01*
X87431Y302587D01*
X87889Y303381D01*
X88115Y304224D01*
D02*
G37*
G36*
X84146D02*
X81177D01*
X81402Y303381D01*
X81861Y302587D01*
X82509Y301940D01*
X83302Y301481D01*
X84146Y301255D01*
Y304224D01*
D02*
G37*
G36*
X81787Y295783D02*
X78886D01*
Y294496D01*
X81787D01*
Y295783D01*
D02*
G37*
G36*
X77886D02*
X74984D01*
Y294496D01*
X77886D01*
Y295783D01*
D02*
G37*
G36*
X245385Y294491D02*
Y291522D01*
X248354D01*
X248128Y292366D01*
X247670Y293159D01*
X247022Y293807D01*
X246228Y294265D01*
X245385Y294491D01*
D02*
G37*
G36*
X244385D02*
X243542Y294265D01*
X242748Y293807D01*
X242100Y293159D01*
X241642Y292366D01*
X241416Y291522D01*
X244385D01*
Y294491D01*
D02*
G37*
G36*
X220587Y294475D02*
X217429D01*
Y291317D01*
X220587D01*
Y294475D01*
D02*
G37*
G36*
X216429D02*
X213272D01*
Y291317D01*
X216429D01*
Y294475D01*
D02*
G37*
G36*
X248354Y290522D02*
X245385D01*
Y287553D01*
X246228Y287779D01*
X247022Y288237D01*
X247670Y288885D01*
X248128Y289679D01*
X248354Y290522D01*
D02*
G37*
G36*
X244385D02*
X241416D01*
X241642Y289679D01*
X242100Y288885D01*
X242748Y288237D01*
X243542Y287779D01*
X244385Y287553D01*
Y290522D01*
D02*
G37*
G36*
X225658Y294502D02*
X224742D01*
X223857Y294265D01*
X223063Y293807D01*
X222415Y293159D01*
X221957Y292366D01*
X221720Y291480D01*
Y290564D01*
X221957Y289679D01*
X222415Y288885D01*
X223063Y288237D01*
X223857Y287779D01*
X224742Y287542D01*
X225658D01*
X226543Y287779D01*
X227337Y288237D01*
X227985Y288885D01*
X228443Y289679D01*
X228680Y290564D01*
Y291480D01*
X228443Y292366D01*
X227985Y293159D01*
X227337Y293807D01*
X226543Y294265D01*
X225658Y294502D01*
D02*
G37*
G36*
X220587Y290317D02*
X217429D01*
Y287160D01*
X220587D01*
Y290317D01*
D02*
G37*
G36*
X216429D02*
X213272D01*
Y287160D01*
X216429D01*
Y290317D01*
D02*
G37*
G36*
X158923Y293308D02*
X157927D01*
X156965Y293050D01*
X156102Y292552D01*
X155398Y291848D01*
X154900Y290985D01*
X154642Y290023D01*
Y289026D01*
X154900Y288064D01*
X155398Y287201D01*
X156102Y286497D01*
X156965Y285999D01*
X157927Y285741D01*
X158923D01*
X159886Y285999D01*
X160748Y286497D01*
X161453Y287201D01*
X161951Y288064D01*
X162209Y289026D01*
Y290023D01*
X161951Y290985D01*
X161453Y291848D01*
X160748Y292552D01*
X159886Y293050D01*
X158923Y293308D01*
D02*
G37*
G36*
X98923D02*
X97927D01*
X96965Y293050D01*
X96102Y292552D01*
X95398Y291848D01*
X94899Y290985D01*
X94642Y290023D01*
Y289026D01*
X94899Y288064D01*
X95398Y287201D01*
X96102Y286497D01*
X96965Y285999D01*
X97927Y285741D01*
X98923D01*
X99885Y285999D01*
X100748Y286497D01*
X101453Y287201D01*
X101951Y288064D01*
X102209Y289026D01*
Y290023D01*
X101951Y290985D01*
X101453Y291848D01*
X100748Y292552D01*
X99885Y293050D01*
X98923Y293308D01*
D02*
G37*
G36*
X211748Y284616D02*
X210067D01*
Y281261D01*
X211748D01*
Y284616D01*
D02*
G37*
G36*
X206748D02*
X205067D01*
Y281261D01*
X206748D01*
Y284616D01*
D02*
G37*
G36*
X226748D02*
X225067D01*
Y281261D01*
X226748D01*
Y284616D01*
D02*
G37*
G36*
X221748D02*
X220067D01*
Y281261D01*
X221748D01*
Y284616D01*
D02*
G37*
G36*
X209067D02*
X207386D01*
Y281261D01*
X209067D01*
Y284616D01*
D02*
G37*
G36*
X224067D02*
X222386D01*
Y281261D01*
X224067D01*
Y284616D01*
D02*
G37*
G36*
X204067D02*
X202386D01*
Y281261D01*
X204067D01*
Y284616D01*
D02*
G37*
G36*
X219067D02*
X217386D01*
Y281261D01*
X219067D01*
Y284616D01*
D02*
G37*
G36*
X231748D02*
X227386D01*
Y276907D01*
X231748D01*
Y284616D01*
D02*
G37*
G36*
X226748Y280261D02*
X225067D01*
Y276907D01*
X226748D01*
Y280261D01*
D02*
G37*
G36*
X224067D02*
X222386D01*
Y276907D01*
X224067D01*
Y280261D01*
D02*
G37*
G36*
X221748D02*
X220067D01*
Y276907D01*
X221748D01*
Y280261D01*
D02*
G37*
G36*
X219067D02*
X217386D01*
Y276907D01*
X219067D01*
Y280261D01*
D02*
G37*
G36*
X216748Y284616D02*
X212386D01*
Y276907D01*
X216748D01*
Y284616D01*
D02*
G37*
G36*
X211748Y280261D02*
X210067D01*
Y276907D01*
X211748D01*
Y280261D01*
D02*
G37*
G36*
X209067D02*
X207386D01*
Y276907D01*
X209067D01*
Y280261D01*
D02*
G37*
G36*
X206748D02*
X205067D01*
Y276907D01*
X206748D01*
Y280261D01*
D02*
G37*
G36*
X204067D02*
X202386D01*
Y276907D01*
X204067D01*
Y280261D01*
D02*
G37*
G36*
X197323Y288992D02*
X196377D01*
X195503Y288630D01*
X194834Y287961D01*
X194472Y287087D01*
Y286141D01*
X194834Y285267D01*
X194890Y285211D01*
Y282687D01*
X195045Y281907D01*
X195488Y281245D01*
X196580Y280153D01*
X197242Y279711D01*
X197386Y279682D01*
Y276907D01*
X201748D01*
Y284616D01*
X198969D01*
Y285514D01*
X199228Y286141D01*
Y287087D01*
X198866Y287961D01*
X198197Y288630D01*
X197323Y288992D01*
D02*
G37*
G36*
X158923Y283308D02*
X157927D01*
X156965Y283050D01*
X156102Y282552D01*
X155398Y281848D01*
X154900Y280985D01*
X154642Y280023D01*
Y279026D01*
X154900Y278064D01*
X155398Y277201D01*
X156102Y276497D01*
X156965Y275999D01*
X157927Y275741D01*
X158923D01*
X159886Y275999D01*
X160748Y276497D01*
X161453Y277201D01*
X161951Y278064D01*
X162209Y279026D01*
Y280023D01*
X161951Y280985D01*
X161453Y281848D01*
X160748Y282552D01*
X159886Y283050D01*
X158923Y283308D01*
D02*
G37*
G36*
X98923D02*
X97927D01*
X96965Y283050D01*
X96102Y282552D01*
X95398Y281848D01*
X94899Y280985D01*
X94642Y280023D01*
Y279026D01*
X94899Y278064D01*
X95398Y277201D01*
X96102Y276497D01*
X96965Y275999D01*
X97927Y275741D01*
X98923D01*
X99885Y275999D01*
X100748Y276497D01*
X101453Y277201D01*
X101951Y278064D01*
X102209Y279026D01*
Y280023D01*
X101951Y280985D01*
X101453Y281848D01*
X100748Y282552D01*
X99885Y283050D01*
X98923Y283308D01*
D02*
G37*
G36*
X158925Y273307D02*
Y270024D01*
X162208D01*
X161951Y270985D01*
X161453Y271848D01*
X160748Y272552D01*
X159886Y273050D01*
X158925Y273307D01*
D02*
G37*
G36*
X157925D02*
X156965Y273050D01*
X156102Y272552D01*
X155398Y271848D01*
X154900Y270985D01*
X154642Y270024D01*
X157925D01*
Y273307D01*
D02*
G37*
G36*
X272739Y276391D02*
X271661D01*
X270621Y276112D01*
X269688Y275573D01*
X268927Y274812D01*
X268388Y273879D01*
X268109Y272838D01*
Y271761D01*
X268388Y270721D01*
X268927Y269788D01*
X269688Y269027D01*
X270621Y268488D01*
X271661Y268210D01*
X272739D01*
X273779Y268488D01*
X274712Y269027D01*
X275473Y269788D01*
X276012Y270721D01*
X276290Y271761D01*
Y272838D01*
X276012Y273879D01*
X275473Y274812D01*
X274712Y275573D01*
X273779Y276112D01*
X272739Y276391D01*
D02*
G37*
G36*
X260038D02*
X258962D01*
X257921Y276112D01*
X256988Y275573D01*
X256227Y274812D01*
X255688Y273879D01*
X255410Y272838D01*
Y271761D01*
X255688Y270721D01*
X256227Y269788D01*
X256988Y269027D01*
X257921Y268488D01*
X258962Y268210D01*
X260038D01*
X261079Y268488D01*
X262012Y269027D01*
X262773Y269788D01*
X263312Y270721D01*
X263591Y271761D01*
Y272838D01*
X263312Y273879D01*
X262773Y274812D01*
X262012Y275573D01*
X261079Y276112D01*
X260038Y276391D01*
D02*
G37*
G36*
X57657Y268869D02*
Y265900D01*
X60627D01*
X60401Y266743D01*
X59942Y267537D01*
X59294Y268185D01*
X58501Y268643D01*
X57657Y268869D01*
D02*
G37*
G36*
X56657D02*
X55814Y268643D01*
X55020Y268185D01*
X54373Y267537D01*
X53914Y266743D01*
X53688Y265900D01*
X56657D01*
Y268869D01*
D02*
G37*
G36*
X162208Y269024D02*
X158925D01*
Y265742D01*
X159886Y265999D01*
X160748Y266497D01*
X161453Y267201D01*
X161951Y268064D01*
X162208Y269024D01*
D02*
G37*
G36*
X157925D02*
X154642D01*
X154900Y268064D01*
X155398Y267201D01*
X156102Y266497D01*
X156965Y265999D01*
X157925Y265742D01*
Y269024D01*
D02*
G37*
G36*
X98923Y273308D02*
X97927D01*
X96965Y273050D01*
X96102Y272552D01*
X95398Y271848D01*
X94899Y270985D01*
X94642Y270023D01*
Y269026D01*
X94899Y268064D01*
X95398Y267201D01*
X96102Y266497D01*
X96965Y265999D01*
X97927Y265741D01*
X98923D01*
X99885Y265999D01*
X100748Y266497D01*
X101453Y267201D01*
X101951Y268064D01*
X102209Y269026D01*
Y270023D01*
X101951Y270985D01*
X101453Y271848D01*
X100748Y272552D01*
X99885Y273050D01*
X98923Y273308D01*
D02*
G37*
G36*
X60627Y264900D02*
X57657D01*
Y261931D01*
X58501Y262157D01*
X59294Y262615D01*
X59942Y263263D01*
X60401Y264057D01*
X60627Y264900D01*
D02*
G37*
G36*
X56657D02*
X53688D01*
X53914Y264057D01*
X54373Y263263D01*
X55020Y262615D01*
X55814Y262157D01*
X56657Y261931D01*
Y264900D01*
D02*
G37*
G36*
X77301Y268880D02*
X76384D01*
X75499Y268643D01*
X74706Y268185D01*
X74058Y267537D01*
X73599Y266743D01*
X73362Y265858D01*
Y264942D01*
X73599Y264057D01*
X74058Y263263D01*
X74706Y262615D01*
X75499Y262157D01*
X76384Y261920D01*
X77301D01*
X78186Y262157D01*
X78979Y262615D01*
X79628Y263263D01*
X80086Y264057D01*
X80323Y264942D01*
Y265858D01*
X80086Y266743D01*
X79628Y267537D01*
X78979Y268185D01*
X78186Y268643D01*
X77301Y268880D01*
D02*
G37*
G36*
X231748Y263159D02*
X230067D01*
Y259805D01*
X231748D01*
Y263159D01*
D02*
G37*
G36*
X221748D02*
X220067D01*
Y259805D01*
X221748D01*
Y263159D01*
D02*
G37*
G36*
X216748D02*
X215067D01*
Y259805D01*
X216748D01*
Y263159D01*
D02*
G37*
G36*
X229067D02*
X227386D01*
Y259805D01*
X229067D01*
Y263159D01*
D02*
G37*
G36*
X219067D02*
X217386D01*
Y259805D01*
X219067D01*
Y263159D01*
D02*
G37*
G36*
X214067D02*
X212386D01*
Y259805D01*
X214067D01*
Y263159D01*
D02*
G37*
G36*
X158923Y263308D02*
X157927D01*
X156965Y263050D01*
X156102Y262552D01*
X155398Y261848D01*
X154900Y260985D01*
X154642Y260023D01*
Y259026D01*
X154900Y258064D01*
X155398Y257201D01*
X156102Y256497D01*
X156965Y255999D01*
X157927Y255741D01*
X158923D01*
X159886Y255999D01*
X160748Y256497D01*
X161453Y257201D01*
X161951Y258064D01*
X162209Y259026D01*
Y260023D01*
X161951Y260985D01*
X161453Y261848D01*
X160748Y262552D01*
X159886Y263050D01*
X158923Y263308D01*
D02*
G37*
G36*
X98923D02*
X97927D01*
X96965Y263050D01*
X96102Y262552D01*
X95398Y261848D01*
X94899Y260985D01*
X94642Y260023D01*
Y259026D01*
X94899Y258064D01*
X95398Y257201D01*
X96102Y256497D01*
X96965Y255999D01*
X97927Y255741D01*
X98923D01*
X99885Y255999D01*
X100748Y256497D01*
X101453Y257201D01*
X101951Y258064D01*
X102209Y259026D01*
Y260023D01*
X101951Y260985D01*
X101453Y261848D01*
X100748Y262552D01*
X99885Y263050D01*
X98923Y263308D01*
D02*
G37*
G36*
X98925Y253308D02*
Y250025D01*
X102208D01*
X101951Y250985D01*
X101453Y251848D01*
X100748Y252552D01*
X99885Y253050D01*
X98925Y253308D01*
D02*
G37*
G36*
X97925D02*
X96965Y253050D01*
X96102Y252552D01*
X95398Y251848D01*
X94899Y250985D01*
X94642Y250025D01*
X97925D01*
Y253308D01*
D02*
G37*
G36*
X102208Y249025D02*
X98925D01*
Y245742D01*
X99885Y245999D01*
X100748Y246497D01*
X101453Y247201D01*
X101951Y248064D01*
X102208Y249025D01*
D02*
G37*
G36*
X97925D02*
X94642D01*
X94899Y248064D01*
X95398Y247201D01*
X96102Y246497D01*
X96965Y245999D01*
X97925Y245742D01*
Y249025D01*
D02*
G37*
G36*
X158923Y253308D02*
X157927D01*
X156965Y253050D01*
X156102Y252552D01*
X155398Y251848D01*
X154900Y250985D01*
X154642Y250023D01*
Y249026D01*
X154900Y248064D01*
X155398Y247201D01*
X156102Y246497D01*
X156965Y245999D01*
X157927Y245741D01*
X158923D01*
X159886Y245999D01*
X160748Y246497D01*
X161453Y247201D01*
X161951Y248064D01*
X162209Y249026D01*
Y250023D01*
X161951Y250985D01*
X161453Y251848D01*
X160748Y252552D01*
X159886Y253050D01*
X158923Y253308D01*
D02*
G37*
G36*
X201748Y248933D02*
X200067D01*
Y245382D01*
X201748D01*
Y248933D01*
D02*
G37*
G36*
X199067D02*
X197386D01*
Y245382D01*
X199067D01*
Y248933D01*
D02*
G37*
G36*
X6980Y248896D02*
X5905D01*
X5233Y248808D01*
X4607Y248548D01*
X4069Y248136D01*
X3656Y247598D01*
X3397Y246972D01*
X3308Y246299D01*
Y245224D01*
X6980D01*
Y248896D01*
D02*
G37*
G36*
X206748Y248933D02*
X202386D01*
Y240831D01*
X206748D01*
Y248933D01*
D02*
G37*
G36*
X201748Y244382D02*
X200067D01*
Y240831D01*
X201748D01*
Y244382D01*
D02*
G37*
G36*
X199067D02*
X197386D01*
Y240831D01*
X199067D01*
Y244382D01*
D02*
G37*
G36*
X11652Y244225D02*
X7980D01*
Y240553D01*
X9055D01*
X9727Y240641D01*
X10353Y240901D01*
X10891Y241313D01*
X11304Y241851D01*
X11564Y242477D01*
X11652Y243150D01*
Y244225D01*
D02*
G37*
G36*
X6980D02*
X3308D01*
Y243150D01*
X3397Y242477D01*
X3656Y241851D01*
X4069Y241313D01*
X4607Y240901D01*
X5233Y240641D01*
X5905Y240553D01*
X6980D01*
Y244225D01*
D02*
G37*
G36*
X221748Y248933D02*
X217386D01*
Y244898D01*
X217347Y244701D01*
Y242849D01*
X217252Y242374D01*
Y240373D01*
X217106Y240211D01*
X216606Y240403D01*
Y240831D01*
X216748D01*
Y248933D01*
X212386D01*
Y240831D01*
X212528D01*
Y235149D01*
X212189Y234331D01*
Y233385D01*
X212551Y232511D01*
X213220Y231842D01*
X214094Y231480D01*
X215040D01*
X215914Y231842D01*
X216583Y232511D01*
X216945Y233385D01*
Y234331D01*
X216606Y235149D01*
Y237939D01*
X217106Y238038D01*
X217275Y237629D01*
X217944Y236960D01*
X218818Y236598D01*
X219764D01*
X220638Y236960D01*
X221307Y237629D01*
X221669Y238503D01*
Y239449D01*
X221330Y240267D01*
Y240831D01*
X221748D01*
Y248933D01*
D02*
G37*
G36*
X162209Y243308D02*
X154642D01*
Y235741D01*
X162209D01*
Y243308D01*
D02*
G37*
G36*
X98923D02*
X97927D01*
X96965Y243050D01*
X96102Y242552D01*
X95398Y241848D01*
X94899Y240985D01*
X94642Y240023D01*
Y239026D01*
X94899Y238064D01*
X95398Y237201D01*
X96102Y236497D01*
X96965Y235999D01*
X97927Y235741D01*
X98923D01*
X99885Y235999D01*
X100748Y236497D01*
X101453Y237201D01*
X101951Y238064D01*
X102209Y239026D01*
Y240023D01*
X101951Y240985D01*
X101453Y241848D01*
X100748Y242552D01*
X99885Y243050D01*
X98923Y243308D01*
D02*
G37*
G36*
X48925Y235438D02*
Y233571D01*
X50792D01*
X50441Y234418D01*
X49772Y235087D01*
X48925Y235438D01*
D02*
G37*
G36*
X47925D02*
X47078Y235087D01*
X46409Y234418D01*
X46058Y233571D01*
X47925D01*
Y235438D01*
D02*
G37*
G36*
X50792Y232571D02*
X48925D01*
Y230704D01*
X49772Y231055D01*
X50441Y231724D01*
X50792Y232571D01*
D02*
G37*
G36*
X47925D02*
X46058D01*
X46409Y231724D01*
X47078Y231055D01*
X47925Y230704D01*
Y232571D01*
D02*
G37*
G36*
X187698Y231654D02*
Y228685D01*
X190667D01*
X190441Y229528D01*
X189983Y230322D01*
X189335Y230970D01*
X188542Y231428D01*
X187698Y231654D01*
D02*
G37*
G36*
X186698D02*
X185855Y231428D01*
X185061Y230970D01*
X184413Y230322D01*
X183955Y229528D01*
X183729Y228685D01*
X186698D01*
Y231654D01*
D02*
G37*
G36*
X190667Y227685D02*
X187698D01*
Y224716D01*
X188542Y224942D01*
X189335Y225400D01*
X189983Y226048D01*
X190441Y226842D01*
X190667Y227685D01*
D02*
G37*
G36*
X186698D02*
X183729D01*
X183955Y226842D01*
X184413Y226048D01*
X185061Y225400D01*
X185855Y224942D01*
X186698Y224716D01*
Y227685D01*
D02*
G37*
G36*
X226748Y248933D02*
X222386D01*
Y240831D01*
X222449D01*
Y235261D01*
X222393Y235205D01*
X222031Y234331D01*
Y233385D01*
X222393Y232511D01*
X223062Y231842D01*
X223937Y231480D01*
X224883D01*
X225756Y231842D01*
X226425Y232511D01*
X226650Y233053D01*
X227083Y233000D01*
X227158Y232972D01*
X227508Y232126D01*
Y227673D01*
X227386D01*
Y219571D01*
X231748D01*
Y227673D01*
X231587D01*
Y232221D01*
X231906Y232992D01*
Y233938D01*
X231543Y234812D01*
X230875Y235480D01*
X230001Y235842D01*
X229055D01*
X228181Y235480D01*
X227512Y234812D01*
X227287Y234270D01*
X226854Y234323D01*
X226779Y234350D01*
X226527Y234959D01*
Y240831D01*
X226748D01*
Y248933D01*
D02*
G37*
G36*
X201748Y227673D02*
X197386D01*
Y219571D01*
X201748D01*
Y227673D01*
D02*
G37*
G36*
X100902Y221276D02*
X97744D01*
Y218118D01*
X100902D01*
Y221276D01*
D02*
G37*
G36*
X96744D02*
X93587D01*
Y218118D01*
X96744D01*
Y221276D01*
D02*
G37*
G36*
X216748Y227673D02*
X212386D01*
Y219571D01*
X212528D01*
Y217869D01*
X210915Y216256D01*
X210149D01*
X209951Y216203D01*
X209693Y216651D01*
X210828Y217787D01*
X211270Y218448D01*
X211425Y219228D01*
X211748Y219571D01*
X211748D01*
Y227673D01*
X207386D01*
Y223639D01*
X207347Y223442D01*
X207347Y223442D01*
X207347Y223441D01*
Y220475D01*
X207248Y220409D01*
X206748Y220676D01*
Y227673D01*
X202386D01*
Y219571D01*
X206137D01*
X206344Y219071D01*
X205800Y218527D01*
X202931D01*
X202150Y218372D01*
X201489Y217930D01*
X199706Y216147D01*
X199301Y216256D01*
X198337D01*
X197407Y216007D01*
X196573Y215525D01*
X195892Y214844D01*
X195411Y214010D01*
X195161Y213080D01*
Y212117D01*
X195411Y211187D01*
X195892Y210353D01*
X196573Y209672D01*
X197407Y209190D01*
X198337Y208941D01*
X199301D01*
X200231Y209190D01*
X201065Y209672D01*
X201746Y210353D01*
X202227Y211187D01*
X202477Y212117D01*
Y213080D01*
X202462Y213135D01*
X203775Y214448D01*
X206645D01*
X206930Y214505D01*
X207250Y214059D01*
X207222Y214010D01*
X206973Y213080D01*
Y212117D01*
X207222Y211187D01*
X207703Y210353D01*
X208384Y209672D01*
X209218Y209190D01*
X210149Y208941D01*
X211111D01*
X212042Y209190D01*
X212876Y209672D01*
X213557Y210353D01*
X214038Y211187D01*
X214287Y212117D01*
Y213080D01*
X214122Y213696D01*
X216009Y215583D01*
X216009Y215583D01*
X216451Y216244D01*
X216451Y216244D01*
X216536Y216672D01*
X216606Y217025D01*
Y219571D01*
X216748D01*
Y227673D01*
D02*
G37*
G36*
X226748D02*
X222386D01*
Y219571D01*
X222528D01*
Y218931D01*
X222683Y218150D01*
X222899Y217828D01*
X222919Y217724D01*
X223361Y217062D01*
X223916Y216507D01*
X223657Y216059D01*
X222922Y216256D01*
X222564D01*
X221606Y217214D01*
Y219571D01*
X221748D01*
Y227673D01*
X217386D01*
Y219571D01*
X217528D01*
Y216369D01*
X217683Y215589D01*
X218125Y214928D01*
X219036Y214016D01*
X219033Y214010D01*
X218783Y213080D01*
Y212117D01*
X219033Y211187D01*
X219514Y210353D01*
X220195Y209672D01*
X221029Y209190D01*
X221959Y208941D01*
X222922D01*
X223853Y209190D01*
X224687Y209672D01*
X225368Y210353D01*
X225849Y211187D01*
X226098Y212117D01*
Y213080D01*
X225902Y213815D01*
X226350Y214073D01*
X228751Y211672D01*
X229413Y211230D01*
X230193Y211075D01*
X230334D01*
X230751Y210353D01*
X231432Y209672D01*
X232266Y209190D01*
X233197Y208941D01*
X234160D01*
X235090Y209190D01*
X235924Y209672D01*
X236605Y210353D01*
X237086Y211187D01*
X237336Y212117D01*
Y213080D01*
X237086Y214010D01*
X236605Y214844D01*
X235924Y215525D01*
X235090Y216007D01*
X234160Y216256D01*
X233197D01*
X232266Y216007D01*
X231432Y215525D01*
X231061Y215153D01*
X231038D01*
X227011Y219180D01*
X226748Y219571D01*
Y227673D01*
D02*
G37*
G36*
X71139Y223791D02*
X70061D01*
X69021Y223512D01*
X68088Y222973D01*
X67327Y222212D01*
X66788Y221279D01*
X66509Y220238D01*
Y219162D01*
X66788Y218121D01*
X67327Y217188D01*
X68088Y216427D01*
X69021Y215888D01*
X70061Y215610D01*
X71139D01*
X72179Y215888D01*
X73112Y216427D01*
X73873Y217188D01*
X74412Y218121D01*
X74691Y219162D01*
Y220238D01*
X74412Y221279D01*
X73873Y222212D01*
X73112Y222973D01*
X72179Y223512D01*
X71139Y223791D01*
D02*
G37*
G36*
X100902Y217118D02*
X97744D01*
Y213961D01*
X100902D01*
Y217118D01*
D02*
G37*
G36*
X96744D02*
X93587D01*
Y213961D01*
X96744D01*
Y217118D01*
D02*
G37*
G36*
X100508Y210038D02*
X97350D01*
Y206881D01*
X100508D01*
Y210038D01*
D02*
G37*
G36*
X96350D02*
X93193D01*
Y206881D01*
X96350D01*
Y210038D01*
D02*
G37*
G36*
X231748Y248933D02*
X227386D01*
Y240831D01*
X231682D01*
X232427Y240522D01*
X233373D01*
X234024Y240792D01*
X235688D01*
X250589Y225891D01*
X250397Y225430D01*
X249718D01*
X248412Y225080D01*
X247241Y224404D01*
X246286Y223448D01*
X245610Y222277D01*
X245260Y220971D01*
Y219620D01*
X245610Y218314D01*
X246286Y217143D01*
X247241Y216188D01*
X248412Y215512D01*
X249718Y215162D01*
X251070D01*
X252375Y215512D01*
X253546Y216188D01*
X254502Y217143D01*
X255178Y218314D01*
X255335Y218900D01*
X255835Y218834D01*
Y206757D01*
X255335Y206691D01*
X255178Y207277D01*
X254502Y208448D01*
X253546Y209404D01*
X252375Y210080D01*
X251070Y210430D01*
X249718D01*
X248412Y210080D01*
X247241Y209404D01*
X246286Y208448D01*
X245610Y207277D01*
X245260Y205972D01*
Y204620D01*
X245610Y203314D01*
X246286Y202143D01*
X247241Y201187D01*
X248412Y200512D01*
X249718Y200162D01*
X251070D01*
X252375Y200512D01*
X253546Y201187D01*
X254502Y202143D01*
X255178Y203314D01*
X255335Y203900D01*
X255835Y203834D01*
Y191757D01*
X255335Y191691D01*
X255178Y192277D01*
X254502Y193448D01*
X253546Y194404D01*
X252375Y195080D01*
X251070Y195430D01*
X249718D01*
X248412Y195080D01*
X247241Y194404D01*
X246286Y193448D01*
X245610Y192277D01*
X245260Y190972D01*
Y189620D01*
X245610Y188314D01*
X246286Y187143D01*
X247241Y186188D01*
X248412Y185512D01*
X249718Y185162D01*
X251070D01*
X252375Y185512D01*
X253546Y186188D01*
X254502Y187143D01*
X255178Y188314D01*
X255335Y188900D01*
X255835Y188834D01*
Y186722D01*
X255725Y186659D01*
X255073Y186007D01*
X254612Y185209D01*
X254374Y184319D01*
Y183397D01*
X254612Y182507D01*
X255073Y181709D01*
X255725Y181058D01*
X256523Y180597D01*
X257413Y180358D01*
X258335D01*
X259225Y180597D01*
X260023Y181058D01*
X260675Y181709D01*
X261136Y182507D01*
X261374Y183397D01*
Y184319D01*
X261136Y185209D01*
X260675Y186007D01*
X260023Y186659D01*
X259913Y186722D01*
Y221490D01*
X259758Y222270D01*
X259316Y222932D01*
X237975Y244273D01*
X237314Y244715D01*
X236533Y244870D01*
X234293D01*
X234247Y244916D01*
X233373Y245278D01*
X232427D01*
X232164Y245169D01*
X231748Y245447D01*
Y248933D01*
D02*
G37*
G36*
X187656Y211980D02*
X186740D01*
X185855Y211743D01*
X185061Y211285D01*
X184413Y210637D01*
X183955Y209843D01*
X183718Y208958D01*
Y208042D01*
X183955Y207157D01*
X184413Y206363D01*
X185061Y205715D01*
X185855Y205257D01*
X186740Y205020D01*
X187656D01*
X188542Y205257D01*
X189335Y205715D01*
X189983Y206363D01*
X190441Y207157D01*
X190679Y208042D01*
Y208958D01*
X190441Y209843D01*
X189983Y210637D01*
X189335Y211285D01*
X188542Y211743D01*
X187656Y211980D01*
D02*
G37*
G36*
X100508Y205881D02*
X97350D01*
Y202723D01*
X100508D01*
Y205881D01*
D02*
G37*
G36*
X96350D02*
X93193D01*
Y202723D01*
X96350D01*
Y205881D01*
D02*
G37*
G36*
X29810Y210429D02*
X28458D01*
X27152Y210079D01*
X25982Y209403D01*
X25026Y208447D01*
X24350Y207277D01*
X24000Y205971D01*
Y204619D01*
X24350Y203313D01*
X25026Y202143D01*
X25982Y201187D01*
X27152Y200511D01*
X28458Y200161D01*
X29810D01*
X31115Y200511D01*
X32286Y201187D01*
X33242Y202143D01*
X33918Y203313D01*
X34268Y204619D01*
Y205971D01*
X33918Y207277D01*
X33242Y208447D01*
X32286Y209403D01*
X31115Y210079D01*
X29810Y210429D01*
D02*
G37*
G36*
Y195429D02*
X29634D01*
Y190795D01*
X34268D01*
Y190971D01*
X33918Y192277D01*
X33242Y193447D01*
X32286Y194403D01*
X31115Y195079D01*
X29810Y195429D01*
D02*
G37*
G36*
X28634D02*
X28458D01*
X27152Y195079D01*
X25982Y194403D01*
X25026Y193447D01*
X24350Y192277D01*
X24000Y190971D01*
Y190795D01*
X28634D01*
Y195429D01*
D02*
G37*
G36*
X34268Y189795D02*
X29634D01*
Y185161D01*
X29810D01*
X31115Y185511D01*
X32286Y186187D01*
X33242Y187143D01*
X33918Y188313D01*
X34268Y189619D01*
Y189795D01*
D02*
G37*
G36*
X28634D02*
X24000D01*
Y189619D01*
X24350Y188313D01*
X25026Y187143D01*
X25982Y186187D01*
X27152Y185511D01*
X28458Y185161D01*
X28634D01*
Y189795D01*
D02*
G37*
G36*
X65025Y183579D02*
X61867D01*
Y180421D01*
X65025D01*
Y183579D01*
D02*
G37*
G36*
X60867D02*
X57709D01*
Y180421D01*
X60867D01*
Y183579D01*
D02*
G37*
G36*
X135038Y187691D02*
X133961D01*
X132921Y187412D01*
X131988Y186873D01*
X131227Y186112D01*
X130688Y185179D01*
X130409Y184139D01*
Y183062D01*
X130688Y182021D01*
X131227Y181088D01*
X131988Y180327D01*
X132921Y179788D01*
X133961Y179509D01*
X135038D01*
X136079Y179788D01*
X137012Y180327D01*
X137773Y181088D01*
X138312Y182021D01*
X138591Y183062D01*
Y184139D01*
X138312Y185179D01*
X137773Y186112D01*
X137012Y186873D01*
X136079Y187412D01*
X135038Y187691D01*
D02*
G37*
G36*
X89557Y181269D02*
Y178300D01*
X92527D01*
X92301Y179143D01*
X91842Y179937D01*
X91194Y180585D01*
X90401Y181043D01*
X89557Y181269D01*
D02*
G37*
G36*
X88557D02*
X87714Y181043D01*
X86920Y180585D01*
X86273Y179937D01*
X85814Y179143D01*
X85588Y178300D01*
X88557D01*
Y181269D01*
D02*
G37*
G36*
X237336Y180823D02*
X234178D01*
Y177665D01*
X237336D01*
Y180823D01*
D02*
G37*
G36*
X226098D02*
X222941D01*
Y177665D01*
X226098D01*
Y180823D01*
D02*
G37*
G36*
X214287D02*
X211130D01*
Y177665D01*
X214287D01*
Y180823D01*
D02*
G37*
G36*
X202477D02*
X199319D01*
Y177665D01*
X202477D01*
Y180823D01*
D02*
G37*
G36*
X233178D02*
X230021D01*
Y177665D01*
X233178D01*
Y180823D01*
D02*
G37*
G36*
X221941D02*
X218783D01*
Y177665D01*
X221941D01*
Y180823D01*
D02*
G37*
G36*
X210130D02*
X206973D01*
Y177665D01*
X210130D01*
Y180823D01*
D02*
G37*
G36*
X198319D02*
X195161D01*
Y177665D01*
X198319D01*
Y180823D01*
D02*
G37*
G36*
X65025Y179421D02*
X61867D01*
Y176264D01*
X65025D01*
Y179421D01*
D02*
G37*
G36*
X60867D02*
X57709D01*
Y176264D01*
X60867D01*
Y179421D01*
D02*
G37*
G36*
X29810Y180429D02*
X29634D01*
Y175795D01*
X34268D01*
Y175971D01*
X33918Y177277D01*
X33242Y178447D01*
X32286Y179403D01*
X31115Y180079D01*
X29810Y180429D01*
D02*
G37*
G36*
X28634D02*
X28458D01*
X27152Y180079D01*
X25982Y179403D01*
X25026Y178447D01*
X24350Y177277D01*
X24000Y175971D01*
Y175795D01*
X28634D01*
Y180429D01*
D02*
G37*
G36*
X92527Y177300D02*
X89557D01*
Y174331D01*
X90401Y174557D01*
X91194Y175015D01*
X91842Y175663D01*
X92301Y176457D01*
X92527Y177300D01*
D02*
G37*
G36*
X109201Y181280D02*
X108284D01*
X107399Y181043D01*
X106606Y180585D01*
X105958Y179937D01*
X105499Y179143D01*
X105479Y179068D01*
X104892Y178675D01*
X102340Y176124D01*
X101899Y175463D01*
X101743Y174682D01*
Y171886D01*
X99790D01*
Y167524D01*
X107775D01*
Y171886D01*
X105822D01*
Y173838D01*
X106855Y174871D01*
X107399Y174557D01*
X108284Y174320D01*
X109201D01*
X110086Y174557D01*
X110880Y175015D01*
X111528Y175663D01*
X111986Y176457D01*
X112223Y177342D01*
Y178258D01*
X111986Y179143D01*
X111528Y179937D01*
X110880Y180585D01*
X110086Y181043D01*
X109201Y181280D01*
D02*
G37*
G36*
X237336Y176665D02*
X234178D01*
Y173508D01*
X237336D01*
Y176665D01*
D02*
G37*
G36*
X233178D02*
X230021D01*
Y173508D01*
X233178D01*
Y176665D01*
D02*
G37*
G36*
X226098D02*
X222941D01*
Y173508D01*
X226098D01*
Y176665D01*
D02*
G37*
G36*
X221941D02*
X218783D01*
Y173508D01*
X221941D01*
Y176665D01*
D02*
G37*
G36*
X214287D02*
X211130D01*
Y173508D01*
X214287D01*
Y176665D01*
D02*
G37*
G36*
X210130D02*
X206973D01*
Y173508D01*
X210130D01*
Y176665D01*
D02*
G37*
G36*
X202477D02*
X199319D01*
Y173508D01*
X202477D01*
Y176665D01*
D02*
G37*
G36*
X251070Y180429D02*
X249718D01*
X248412Y180080D01*
X247241Y179404D01*
X246286Y178448D01*
X245610Y177277D01*
X245260Y175971D01*
Y174620D01*
X245610Y173314D01*
X246286Y172143D01*
X247241Y171187D01*
X248412Y170512D01*
X249718Y170162D01*
X251070D01*
X252375Y170512D01*
X253546Y171187D01*
X254502Y172143D01*
X255178Y173314D01*
X255528Y174620D01*
Y175971D01*
X255178Y177277D01*
X254502Y178448D01*
X253546Y179404D01*
X252375Y180080D01*
X251070Y180429D01*
D02*
G37*
G36*
X34268Y174795D02*
X29634D01*
Y170161D01*
X29810D01*
X31115Y170511D01*
X32286Y171187D01*
X33242Y172143D01*
X33918Y173313D01*
X34268Y174619D01*
Y174795D01*
D02*
G37*
G36*
X28634D02*
X24000D01*
Y174619D01*
X24350Y173313D01*
X25026Y172143D01*
X25982Y171187D01*
X27152Y170511D01*
X28458Y170161D01*
X28634D01*
Y174795D01*
D02*
G37*
G36*
X220193Y168224D02*
X217035D01*
Y165067D01*
X220193D01*
Y168224D01*
D02*
G37*
G36*
X216035D02*
X212878D01*
Y165067D01*
X216035D01*
Y168224D01*
D02*
G37*
G36*
X151467Y168219D02*
Y165067D01*
X154620D01*
X154375Y165979D01*
X153894Y166813D01*
X153213Y167493D01*
X152379Y167975D01*
X151467Y168219D01*
D02*
G37*
G36*
X150467D02*
X149556Y167975D01*
X148722Y167493D01*
X148040Y166813D01*
X147559Y165979D01*
X147315Y165067D01*
X150467D01*
Y168219D01*
D02*
G37*
G36*
X107775Y166886D02*
X99790D01*
Y162524D01*
X107775D01*
Y166886D01*
D02*
G37*
G36*
X154620Y164067D02*
X151467D01*
Y160914D01*
X152379Y161159D01*
X153213Y161640D01*
X153894Y162321D01*
X154375Y163155D01*
X154620Y164067D01*
D02*
G37*
G36*
X150467D02*
X147315D01*
X147559Y163155D01*
X148040Y162321D01*
X148722Y161640D01*
X149556Y161159D01*
X150467Y160914D01*
Y164067D01*
D02*
G37*
G36*
X143027Y168225D02*
X135713D01*
Y160909D01*
X143027D01*
Y168225D01*
D02*
G37*
G36*
X220193Y164067D02*
X217035D01*
Y160909D01*
X220193D01*
Y164067D01*
D02*
G37*
G36*
X216035D02*
X212878D01*
Y160909D01*
X216035D01*
Y164067D01*
D02*
G37*
G36*
X107775Y161886D02*
X104282D01*
Y160205D01*
X107775D01*
Y161886D01*
D02*
G37*
G36*
X103282D02*
X99790D01*
Y160205D01*
X103282D01*
Y161886D01*
D02*
G37*
G36*
X107775Y159205D02*
X104282D01*
Y157524D01*
X107775D01*
Y159205D01*
D02*
G37*
G36*
X103282D02*
X99790D01*
Y157524D01*
X103282D01*
Y159205D01*
D02*
G37*
G36*
X107775Y156886D02*
X104282D01*
Y155205D01*
X107775D01*
Y156886D01*
D02*
G37*
G36*
X86200D02*
X82708D01*
Y155205D01*
X86200D01*
Y156886D01*
D02*
G37*
G36*
X103282D02*
X99790D01*
Y155205D01*
X103282D01*
Y156886D01*
D02*
G37*
G36*
X81708D02*
X78215D01*
Y155205D01*
X81708D01*
Y156886D01*
D02*
G37*
G36*
X29810Y165429D02*
X28458D01*
X27152Y165079D01*
X25982Y164403D01*
X25026Y163447D01*
X24350Y162277D01*
X24000Y160971D01*
Y159619D01*
X24350Y158313D01*
X25026Y157143D01*
X25982Y156187D01*
X27152Y155511D01*
X28458Y155161D01*
X29810D01*
X31115Y155511D01*
X32286Y156187D01*
X33242Y157143D01*
X33918Y158313D01*
X34268Y159619D01*
Y160971D01*
X33918Y162277D01*
X33242Y163447D01*
X32286Y164403D01*
X31115Y165079D01*
X29810Y165429D01*
D02*
G37*
G36*
X131602Y156697D02*
Y154831D01*
X133469D01*
X133118Y155678D01*
X132449Y156347D01*
X131602Y156697D01*
D02*
G37*
G36*
X130602D02*
X129755Y156347D01*
X129086Y155678D01*
X128736Y154831D01*
X130602D01*
Y156697D01*
D02*
G37*
G36*
X116642Y156304D02*
Y154437D01*
X118509D01*
X118158Y155284D01*
X117489Y155953D01*
X116642Y156304D01*
D02*
G37*
G36*
X115642D02*
X114795Y155953D01*
X114126Y155284D01*
X113775Y154437D01*
X115642D01*
Y156304D01*
D02*
G37*
G36*
X107775Y154205D02*
X104282D01*
Y152524D01*
X107775D01*
Y154205D01*
D02*
G37*
G36*
X103282D02*
X99790D01*
Y152524D01*
X103282D01*
Y154205D01*
D02*
G37*
G36*
X86200D02*
X82708D01*
Y152524D01*
X86200D01*
Y154205D01*
D02*
G37*
G36*
X81708D02*
X78215D01*
Y152524D01*
X81708D01*
Y154205D01*
D02*
G37*
G36*
X133469Y153831D02*
X131602D01*
Y151964D01*
X132449Y152315D01*
X133118Y152984D01*
X133469Y153831D01*
D02*
G37*
G36*
X130602D02*
X128736D01*
X129086Y152984D01*
X129755Y152315D01*
X130602Y151964D01*
Y153831D01*
D02*
G37*
G36*
X118509Y153437D02*
X116642D01*
Y151570D01*
X117489Y151921D01*
X118158Y152590D01*
X118509Y153437D01*
D02*
G37*
G36*
X115642D02*
X113775D01*
X114126Y152590D01*
X114795Y151921D01*
X115642Y151570D01*
Y153437D01*
D02*
G37*
G36*
X100894Y145674D02*
Y143807D01*
X102761D01*
X102410Y144654D01*
X101741Y145323D01*
X100894Y145674D01*
D02*
G37*
G36*
X99894D02*
X99047Y145323D01*
X98378Y144654D01*
X98027Y143807D01*
X99894D01*
Y145674D01*
D02*
G37*
G36*
X81390Y142918D02*
X80543Y142567D01*
X79874Y141898D01*
X79523Y141051D01*
X81390D01*
Y142918D01*
D02*
G37*
G36*
X102761Y142807D02*
X100894D01*
Y140940D01*
X101741Y141291D01*
X102410Y141960D01*
X102761Y142807D01*
D02*
G37*
G36*
X99894D02*
X98027D01*
X98378Y141960D01*
X99047Y141291D01*
X99894Y140940D01*
Y142807D01*
D02*
G37*
G36*
X29810Y150429D02*
X28458D01*
X27152Y150079D01*
X25982Y149403D01*
X25026Y148447D01*
X24350Y147277D01*
X24000Y145971D01*
Y144619D01*
X24350Y143313D01*
X25026Y142143D01*
X25982Y141187D01*
X27152Y140511D01*
X28458Y140161D01*
X29810D01*
X31115Y140511D01*
X32286Y141187D01*
X33242Y142143D01*
X33918Y143313D01*
X34268Y144619D01*
Y145971D01*
X33918Y147277D01*
X33242Y148447D01*
X32286Y149403D01*
X31115Y150079D01*
X29810Y150429D01*
D02*
G37*
G36*
X224200Y140067D02*
Y138200D01*
X226067D01*
X225716Y139047D01*
X225047Y139716D01*
X224200Y140067D01*
D02*
G37*
G36*
X223200D02*
X222353Y139716D01*
X221684Y139047D01*
X221333Y138200D01*
X223200D01*
Y140067D01*
D02*
G37*
G36*
X81390Y140051D02*
X79523D01*
X79874Y139204D01*
X80543Y138535D01*
X81390Y138184D01*
Y140051D01*
D02*
G37*
G36*
X226067Y137200D02*
X224200D01*
Y135333D01*
X225047Y135684D01*
X225716Y136353D01*
X226067Y137200D01*
D02*
G37*
G36*
X223200D02*
X221333D01*
X221684Y136353D01*
X222353Y135684D01*
X223200Y135333D01*
Y137200D01*
D02*
G37*
G36*
X233159Y135826D02*
X232196D01*
X231265Y135576D01*
X230432Y135095D01*
X229751Y134414D01*
X229269Y133580D01*
X229020Y132650D01*
Y131687D01*
X229269Y130756D01*
X229751Y129922D01*
X230432Y129242D01*
X231265Y128760D01*
X232196Y128511D01*
X233159D01*
X234089Y128760D01*
X234923Y129242D01*
X235604Y129922D01*
X236086Y130756D01*
X236335Y131687D01*
Y132650D01*
X236086Y133580D01*
X235604Y134414D01*
X234923Y135095D01*
X234089Y135576D01*
X233159Y135826D01*
D02*
G37*
G36*
X251070Y135430D02*
X249718D01*
X248412Y135080D01*
X247241Y134404D01*
X246286Y133448D01*
X245610Y132277D01*
X245260Y130972D01*
Y129620D01*
X245610Y128314D01*
X245712Y128137D01*
X233634Y116059D01*
X226582D01*
X226239Y116288D01*
X225773Y116381D01*
X221241D01*
X220775Y116288D01*
X220380Y116024D01*
X220115Y115629D01*
X220023Y115162D01*
Y113387D01*
X220115Y112920D01*
X220380Y112525D01*
X220775Y112261D01*
X221241Y112168D01*
X225773D01*
X226239Y112261D01*
X226582Y112490D01*
X234373D01*
X235055Y112626D01*
X235634Y113013D01*
X248235Y125614D01*
X248412Y125512D01*
X249718Y125162D01*
X251070D01*
X252375Y125512D01*
X253546Y126188D01*
X254502Y127143D01*
X255178Y128314D01*
X255528Y129620D01*
Y130972D01*
X255178Y132277D01*
X254502Y133448D01*
X253546Y134404D01*
X252375Y135080D01*
X251070Y135430D01*
D02*
G37*
G36*
X29810Y135429D02*
X28458D01*
X27152Y135079D01*
X25982Y134403D01*
X25026Y133447D01*
X24350Y132277D01*
X24000Y130971D01*
Y129619D01*
X24350Y128313D01*
X25026Y127143D01*
X25982Y126187D01*
X27152Y125511D01*
X28458Y125161D01*
X29810D01*
X31115Y125511D01*
X32286Y126187D01*
X33242Y127143D01*
X33918Y128313D01*
X34268Y129619D01*
Y130971D01*
X33918Y132277D01*
X33242Y133447D01*
X32286Y134403D01*
X31115Y135079D01*
X29810Y135429D01*
D02*
G37*
G36*
X216748Y122835D02*
Y120968D01*
X218615D01*
X218264Y121815D01*
X217595Y122484D01*
X216748Y122835D01*
D02*
G37*
G36*
X218615Y119968D02*
X216748D01*
Y118101D01*
X217595Y118452D01*
X218264Y119121D01*
X218615Y119968D01*
D02*
G37*
G36*
X251070Y120430D02*
X249718D01*
X248412Y120080D01*
X247241Y119404D01*
X246286Y118448D01*
X245610Y117277D01*
X245260Y115972D01*
Y114620D01*
X245610Y113314D01*
X246021Y112602D01*
X244460Y111041D01*
X244373Y111059D01*
X226582D01*
X226239Y111288D01*
X225773Y111381D01*
X221241D01*
X220775Y111288D01*
X220380Y111024D01*
X220115Y110628D01*
X220023Y110162D01*
Y108387D01*
X220115Y107921D01*
X220380Y107525D01*
X220775Y107261D01*
X221241Y107168D01*
X225773D01*
X226239Y107261D01*
X226582Y107490D01*
X240256D01*
X240447Y107028D01*
X233811Y100393D01*
X229020D01*
Y93078D01*
X236335D01*
Y97869D01*
X248858Y110392D01*
X249718Y110162D01*
X251070D01*
X252375Y110512D01*
X253546Y111188D01*
X254502Y112143D01*
X255178Y113314D01*
X255528Y114620D01*
Y115972D01*
X255178Y117277D01*
X254502Y118448D01*
X253546Y119404D01*
X252375Y120080D01*
X251070Y120430D01*
D02*
G37*
G36*
X225773Y106381D02*
X224007D01*
Y104774D01*
X226991D01*
Y105162D01*
X226898Y105629D01*
X226634Y106024D01*
X226239Y106288D01*
X225773Y106381D01*
D02*
G37*
G36*
X223007D02*
X221241D01*
X220775Y106288D01*
X220380Y106024D01*
X220115Y105629D01*
X220023Y105162D01*
Y104774D01*
X223007D01*
Y106381D01*
D02*
G37*
G36*
X226991Y103774D02*
X224007D01*
Y102168D01*
X225773D01*
X226239Y102261D01*
X226634Y102525D01*
X226898Y102920D01*
X226991Y103387D01*
Y103774D01*
D02*
G37*
G36*
X223007D02*
X220023D01*
Y103387D01*
X220115Y102920D01*
X220380Y102525D01*
X220775Y102261D01*
X221241Y102168D01*
X223007D01*
Y103774D01*
D02*
G37*
G36*
X251070Y105429D02*
X250894D01*
Y100796D01*
X255528D01*
Y100971D01*
X255178Y102277D01*
X254502Y103448D01*
X253546Y104404D01*
X252375Y105080D01*
X251070Y105429D01*
D02*
G37*
G36*
X249894D02*
X249718D01*
X248412Y105080D01*
X247241Y104404D01*
X246286Y103448D01*
X245610Y102277D01*
X245260Y100971D01*
Y100796D01*
X249894D01*
Y105429D01*
D02*
G37*
G36*
X255528Y99796D02*
X250894D01*
Y95162D01*
X251070D01*
X252375Y95512D01*
X253546Y96188D01*
X254502Y97143D01*
X255178Y98314D01*
X255528Y99620D01*
Y99796D01*
D02*
G37*
G36*
X249894D02*
X245260D01*
Y99620D01*
X245610Y98314D01*
X246286Y97143D01*
X247241Y96188D01*
X248412Y95512D01*
X249718Y95162D01*
X249894D01*
Y99796D01*
D02*
G37*
G36*
X98840Y90800D02*
X93966D01*
Y88976D01*
X96616D01*
X97505Y89153D01*
X98259Y89657D01*
X98763Y90411D01*
X98840Y90800D01*
D02*
G37*
G36*
X92966D02*
X88092D01*
X88169Y90411D01*
X88673Y89657D01*
X89427Y89153D01*
X90317Y88976D01*
X92966D01*
Y90800D01*
D02*
G37*
G36*
X106063Y91351D02*
Y88300D01*
X109114D01*
X108879Y89174D01*
X108411Y89985D01*
X107748Y90648D01*
X106937Y91116D01*
X106063Y91351D01*
D02*
G37*
G36*
X105063D02*
X104189Y91116D01*
X103378Y90648D01*
X102715Y89985D01*
X102246Y89174D01*
X102012Y88300D01*
X105063D01*
Y91351D01*
D02*
G37*
G36*
X180028Y87905D02*
Y84752D01*
X183180D01*
X182936Y85664D01*
X182454Y86498D01*
X181773Y87179D01*
X180939Y87660D01*
X180028Y87905D01*
D02*
G37*
G36*
X179028D02*
X178116Y87660D01*
X177282Y87179D01*
X176601Y86498D01*
X176119Y85664D01*
X175875Y84752D01*
X179028D01*
Y87905D01*
D02*
G37*
G36*
Y83752D02*
X175875D01*
X176119Y82840D01*
X176601Y82006D01*
X177282Y81325D01*
X178116Y80844D01*
X179028Y80599D01*
Y83752D01*
D02*
G37*
G36*
X183180D02*
X180028D01*
Y80599D01*
X180939Y80844D01*
X181773Y81325D01*
X182454Y82006D01*
X182936Y82840D01*
X183180Y83752D01*
D02*
G37*
G36*
X169627Y81674D02*
Y78705D01*
X172596D01*
X172370Y79548D01*
X171912Y80342D01*
X171264Y80990D01*
X170470Y81448D01*
X169627Y81674D01*
D02*
G37*
G36*
X93933Y80139D02*
Y77170D01*
X96902D01*
X96676Y78013D01*
X96218Y78807D01*
X95570Y79455D01*
X94776Y79913D01*
X93933Y80139D01*
D02*
G37*
G36*
X92933D02*
X92090Y79913D01*
X91296Y79455D01*
X90648Y78807D01*
X90190Y78013D01*
X89964Y77170D01*
X92933D01*
Y80139D01*
D02*
G37*
G36*
X150197Y95395D02*
X144953D01*
X144146Y95235D01*
X143462Y94778D01*
X143005Y94094D01*
X142845Y93287D01*
X143005Y92481D01*
X143462Y91797D01*
X144146Y91340D01*
X144953Y91180D01*
X145548D01*
Y85413D01*
X145703Y84632D01*
X146145Y83971D01*
X147275Y82841D01*
Y80960D01*
X146657Y80342D01*
X146199Y79548D01*
X145962Y78663D01*
Y77747D01*
X146199Y76862D01*
X146657Y76068D01*
X147305Y75420D01*
X148099Y74962D01*
X148984Y74725D01*
X149900D01*
X150785Y74962D01*
X151579Y75420D01*
X152227Y76068D01*
X152685Y76862D01*
X152922Y77747D01*
Y78663D01*
X152685Y79548D01*
X152227Y80342D01*
X151579Y80990D01*
X151354Y81120D01*
Y83685D01*
X151199Y84466D01*
X150757Y85127D01*
X149627Y86257D01*
Y91180D01*
X150197D01*
X151003Y91340D01*
X151687Y91797D01*
X152144Y92481D01*
X152304Y93287D01*
X152144Y94094D01*
X151687Y94778D01*
X151003Y95235D01*
X150197Y95395D01*
D02*
G37*
G36*
X205038Y81490D02*
X203961D01*
X202921Y81212D01*
X201988Y80673D01*
X201227Y79912D01*
X200688Y78979D01*
X200409Y77938D01*
Y76862D01*
X200688Y75821D01*
X201227Y74888D01*
X201988Y74127D01*
X202921Y73588D01*
X203961Y73309D01*
X205038D01*
X206079Y73588D01*
X207012Y74127D01*
X207773Y74888D01*
X208312Y75821D01*
X208591Y76862D01*
Y77938D01*
X208312Y78979D01*
X207773Y79912D01*
X207012Y80673D01*
X206079Y81212D01*
X205038Y81490D01*
D02*
G37*
G36*
X120756Y68340D02*
X120736D01*
Y64887D01*
X124189D01*
Y64907D01*
X123919Y65913D01*
X123399Y66814D01*
X122663Y67550D01*
X121762Y68071D01*
X120756Y68340D01*
D02*
G37*
G36*
X119736D02*
X119715D01*
X118710Y68071D01*
X117809Y67550D01*
X117073Y66814D01*
X116552Y65913D01*
X116283Y64907D01*
Y64887D01*
X119736D01*
Y68340D01*
D02*
G37*
G36*
X140756D02*
X139715D01*
X138710Y68071D01*
X137809Y67550D01*
X137073Y66814D01*
X136552Y65913D01*
X136283Y64907D01*
Y63867D01*
X136552Y62861D01*
X137073Y61960D01*
X137809Y61224D01*
X138710Y60704D01*
X139715Y60434D01*
X140756D01*
X141762Y60704D01*
X142663Y61224D01*
X143399Y61960D01*
X143919Y62861D01*
X144189Y63867D01*
Y64907D01*
X143919Y65913D01*
X143399Y66814D01*
X142663Y67550D01*
X141762Y68071D01*
X140756Y68340D01*
D02*
G37*
G36*
X124189Y63887D02*
X120736D01*
Y60434D01*
X120756D01*
X121762Y60704D01*
X122663Y61224D01*
X123399Y61960D01*
X123919Y62861D01*
X124189Y63867D01*
Y63887D01*
D02*
G37*
G36*
X119736D02*
X116283D01*
Y63867D01*
X116552Y62861D01*
X117073Y61960D01*
X117809Y61224D01*
X118710Y60704D01*
X119715Y60434D01*
X119736D01*
Y63887D01*
D02*
G37*
G36*
X113757Y59005D02*
X113736D01*
Y55553D01*
X117189D01*
Y55573D01*
X116920Y56578D01*
X116399Y57480D01*
X115663Y58215D01*
X114762Y58736D01*
X113757Y59005D01*
D02*
G37*
G36*
X123757D02*
X122716D01*
X121711Y58736D01*
X120809Y58215D01*
X120073Y57480D01*
X119553Y56578D01*
X119283Y55573D01*
Y54532D01*
X119553Y53527D01*
X120073Y52625D01*
X120809Y51889D01*
X121711Y51369D01*
X122716Y51100D01*
X123757D01*
X124762Y51369D01*
X125663Y51889D01*
X126399Y52625D01*
X126920Y53527D01*
X127189Y54532D01*
Y55573D01*
X126920Y56578D01*
X126399Y57480D01*
X125663Y58215D01*
X124762Y58736D01*
X123757Y59005D01*
D02*
G37*
G36*
X117189Y54553D02*
X113736D01*
Y51100D01*
X113757D01*
X114762Y51369D01*
X115663Y51889D01*
X116399Y52625D01*
X116920Y53527D01*
X117189Y54532D01*
Y54553D01*
D02*
G37*
G36*
X222538Y54491D02*
X222500D01*
Y50900D01*
X226091D01*
Y50938D01*
X225812Y51979D01*
X225273Y52912D01*
X224512Y53673D01*
X223579Y54212D01*
X222538Y54491D01*
D02*
G37*
G36*
X221500D02*
X221462D01*
X220421Y54212D01*
X219488Y53673D01*
X218727Y52912D01*
X218188Y51979D01*
X217910Y50938D01*
Y50900D01*
X221500D01*
Y54491D01*
D02*
G37*
G36*
X226091Y49900D02*
X217910D01*
Y49861D01*
X218188Y48821D01*
X218727Y47888D01*
X219231Y47384D01*
Y36359D01*
X218406Y35534D01*
X217730Y34363D01*
X217380Y33058D01*
Y32882D01*
X227648D01*
Y33058D01*
X227298Y34363D01*
X226622Y35534D01*
X225666Y36490D01*
X225283Y36711D01*
Y47905D01*
X225812Y48821D01*
X226091Y49861D01*
Y49900D01*
D02*
G37*
G36*
X227648Y31882D02*
X223014D01*
Y27248D01*
X223190D01*
X224496Y27598D01*
X225666Y28274D01*
X226622Y29230D01*
X227298Y30400D01*
X227648Y31706D01*
Y31882D01*
D02*
G37*
G36*
X222014D02*
X217380D01*
Y31706D01*
X217730Y30400D01*
X218406Y29230D01*
X219362Y28274D01*
X220532Y27598D01*
X221838Y27248D01*
X222014D01*
Y31882D01*
D02*
G37*
G36*
X207339Y54491D02*
X206261D01*
X205221Y54212D01*
X204288Y53673D01*
X203527Y52912D01*
X202988Y51979D01*
X202709Y50938D01*
Y49861D01*
X202988Y48821D01*
X203527Y47888D01*
X204131Y47284D01*
Y36259D01*
X203406Y35534D01*
X202730Y34363D01*
X202380Y33058D01*
Y31706D01*
X202730Y30400D01*
X203406Y29230D01*
X204362Y28274D01*
X205533Y27598D01*
X206838Y27248D01*
X208190D01*
X209496Y27598D01*
X210666Y28274D01*
X211622Y29230D01*
X212298Y30400D01*
X212648Y31706D01*
Y33058D01*
X212298Y34363D01*
X211622Y35534D01*
X210666Y36490D01*
X210183Y36769D01*
Y48078D01*
X210612Y48821D01*
X210891Y49861D01*
Y50938D01*
X210612Y51979D01*
X210073Y52912D01*
X209312Y53673D01*
X208379Y54212D01*
X207339Y54491D01*
D02*
G37*
G36*
X120237Y77197D02*
X119291D01*
X118417Y76835D01*
X117748Y76166D01*
X117386Y75292D01*
Y74346D01*
X117748Y73472D01*
X118417Y72803D01*
X119235Y72464D01*
X145475Y46224D01*
Y37133D01*
X144362Y36490D01*
X143406Y35534D01*
X142730Y34363D01*
X142380Y33058D01*
Y31706D01*
X142730Y30400D01*
X143406Y29230D01*
X144362Y28274D01*
X145533Y27598D01*
X146838Y27248D01*
X148190D01*
X149496Y27598D01*
X150666Y28274D01*
X151622Y29230D01*
X152298Y30400D01*
X152648Y31706D01*
Y33058D01*
X152298Y34363D01*
X151622Y35534D01*
X150666Y36490D01*
X149553Y37133D01*
Y47069D01*
X149398Y47850D01*
X148956Y48511D01*
X148956Y48511D01*
X122119Y75348D01*
X121780Y76166D01*
X121111Y76835D01*
X120237Y77197D01*
D02*
G37*
G36*
X118190Y37516D02*
X116838D01*
X115533Y37166D01*
X114362Y36490D01*
X113406Y35534D01*
X112730Y34363D01*
X112380Y33058D01*
Y31706D01*
X112730Y30400D01*
X113406Y29230D01*
X114362Y28274D01*
X115533Y27598D01*
X116838Y27248D01*
X118190D01*
X119496Y27598D01*
X120666Y28274D01*
X121622Y29230D01*
X122298Y30400D01*
X122648Y31706D01*
Y33058D01*
X122298Y34363D01*
X121622Y35534D01*
X120666Y36490D01*
X119496Y37166D01*
X118190Y37516D01*
D02*
G37*
%LPD*%
G36*
X38862Y293027D02*
X38862D01*
Y285713D01*
X40480D01*
Y283522D01*
X37928Y280970D01*
X37486Y280308D01*
X37331Y279528D01*
Y266417D01*
X36831Y266283D01*
X36487Y266879D01*
X35714Y267651D01*
X34768Y268197D01*
X33713Y268480D01*
X32620D01*
X31565Y268197D01*
X30618Y267651D01*
X29846Y266879D01*
X29300Y265932D01*
X29017Y264877D01*
Y263784D01*
X29300Y262729D01*
X29846Y261783D01*
X30618Y261010D01*
X31565Y260464D01*
X32620Y260181D01*
X33713D01*
X34768Y260464D01*
X35714Y261010D01*
X36487Y261783D01*
X36831Y262379D01*
X37331Y262245D01*
Y256417D01*
X36831Y256283D01*
X36487Y256879D01*
X35714Y257651D01*
X34768Y258197D01*
X33713Y258480D01*
X32620D01*
X31565Y258197D01*
X30618Y257651D01*
X29846Y256879D01*
X29300Y255932D01*
X29017Y254877D01*
Y253784D01*
X29300Y252729D01*
X29846Y251783D01*
X30618Y251010D01*
X31565Y250464D01*
X32620Y250181D01*
X33713D01*
X34768Y250464D01*
X35714Y251010D01*
X36487Y251783D01*
X36831Y252379D01*
X37331Y252245D01*
Y247581D01*
X36831Y247412D01*
X36577Y247742D01*
X36040Y248155D01*
X35413Y248414D01*
X34741Y248502D01*
X33666D01*
Y244331D01*
Y240159D01*
X34741D01*
X35413Y240247D01*
X36040Y240507D01*
X36577Y240919D01*
X36831Y241250D01*
X37331Y241080D01*
Y225520D01*
X36869Y225329D01*
X34327Y227871D01*
X33666Y228313D01*
X32885Y228468D01*
X29534D01*
X27630Y230372D01*
Y282834D01*
X30509Y285713D01*
X34940D01*
Y293027D01*
X34940D01*
X35027Y293491D01*
X38775D01*
X38862Y293027D01*
D02*
G37*
G36*
X193957Y155436D02*
Y123343D01*
X192984D01*
Y124813D01*
X192829Y125593D01*
X192387Y126255D01*
X192387Y126255D01*
X188459Y130182D01*
X187798Y130624D01*
X187017Y130779D01*
X177238D01*
X177027Y131146D01*
X176346Y131827D01*
X175512Y132308D01*
X174582Y132557D01*
X173618D01*
X172688Y132308D01*
X171854Y131827D01*
X171173Y131146D01*
X171043Y130920D01*
X170543Y131054D01*
Y160676D01*
X177758D01*
Y167991D01*
X176055D01*
Y170122D01*
X175900Y170902D01*
X175458Y171564D01*
X174184Y172838D01*
Y174502D01*
X174345Y174632D01*
X174693Y174701D01*
X193957Y155436D01*
D02*
G37*
G36*
X164306Y117850D02*
X164306Y117849D01*
X164968Y117407D01*
X165748Y117252D01*
X165748Y117252D01*
X175870D01*
Y116027D01*
X177134D01*
Y110333D01*
X176095Y109294D01*
X175605Y109391D01*
X175416Y109847D01*
X174747Y110516D01*
X173900Y110867D01*
Y108500D01*
X172900D01*
Y110867D01*
X172053Y110516D01*
X171864Y110327D01*
X168778D01*
X168433Y110395D01*
X166311D01*
Y108287D01*
X165311D01*
Y110395D01*
X163189D01*
X162383Y110235D01*
X161699Y109778D01*
X161594Y109621D01*
X161094Y109773D01*
Y120408D01*
X161556Y120599D01*
X164306Y117850D01*
D02*
G37*
%LPC*%
G36*
X32666Y248502D02*
X31592D01*
X30919Y248414D01*
X30293Y248155D01*
X29755Y247742D01*
X29342Y247204D01*
X29083Y246578D01*
X28995Y245905D01*
Y244831D01*
X32666D01*
Y248502D01*
D02*
G37*
G36*
Y243831D02*
X28995D01*
Y242756D01*
X29083Y242084D01*
X29342Y241457D01*
X29755Y240919D01*
X30293Y240507D01*
X30919Y240247D01*
X31592Y240159D01*
X32666D01*
Y243831D01*
D02*
G37*
G36*
X33571Y234257D02*
Y232390D01*
X35438D01*
X35087Y233237D01*
X34418Y233906D01*
X33571Y234257D01*
D02*
G37*
G36*
X32571D02*
X31724Y233906D01*
X31055Y233237D01*
X30704Y232390D01*
X32571D01*
Y234257D01*
D02*
G37*
G36*
X35438Y231390D02*
X33571D01*
Y229523D01*
X34418Y229874D01*
X35087Y230543D01*
X35438Y231390D01*
D02*
G37*
G36*
X32571D02*
X30704D01*
X31055Y230543D01*
X31724Y229874D01*
X32571Y229523D01*
Y231390D01*
D02*
G37*
G36*
X185550Y145669D02*
Y142700D01*
X188519D01*
X188293Y143543D01*
X187835Y144337D01*
X187187Y144985D01*
X186393Y145443D01*
X185550Y145669D01*
D02*
G37*
G36*
X184550Y145669D02*
X183706Y145443D01*
X182913Y144985D01*
X182265Y144337D01*
X181807Y143543D01*
X181581Y142700D01*
X184550D01*
Y145669D01*
D02*
G37*
G36*
X188519Y141700D02*
X185550D01*
Y138731D01*
X186393Y138957D01*
X187187Y139415D01*
X187835Y140063D01*
X188293Y140857D01*
X188519Y141700D01*
D02*
G37*
G36*
X184550D02*
X181581D01*
X181807Y140857D01*
X182265Y140063D01*
X182913Y139415D01*
X183706Y138957D01*
X184550Y138731D01*
Y141700D01*
D02*
G37*
%LPD*%
D16*
X102860Y54676D02*
X103236Y55053D01*
X96457Y44882D02*
X102860Y51285D01*
Y54676D01*
X86614Y44882D02*
X96457D01*
X76279Y34547D02*
X86614Y44882D01*
X75851Y34547D02*
X76279D01*
X72514Y32382D02*
X73686D01*
X75851Y34547D01*
X102252Y56569D02*
X103750Y55071D01*
X90236Y64387D02*
X90370Y64253D01*
X102252Y56569D02*
Y56756D01*
X94755Y64253D02*
X102252Y56756D01*
X90370Y64253D02*
X94755D01*
X40765Y19685D02*
X59817D01*
X29134Y31316D02*
Y55295D01*
Y31316D02*
X40765Y19685D01*
X29134Y55295D02*
X39197Y65358D01*
X50394Y91319D02*
Y96319D01*
X39197Y65358D02*
X45001D01*
X54332Y74689D01*
X52165Y91319D02*
X57628Y85856D01*
Y82645D02*
Y85856D01*
X250394Y70296D02*
X260807D01*
X267717Y63386D01*
X59817Y19685D02*
X72514Y32382D01*
X73343Y31553D01*
Y17996D02*
X83465Y7874D01*
X73343Y17996D02*
Y31553D01*
X228346Y7874D02*
X267717Y47244D01*
Y63386D01*
X83465Y7874D02*
X228346D01*
X41982Y70295D02*
X52002Y80315D01*
X29134Y70295D02*
X41982D01*
D19*
X223507Y109274D02*
D03*
Y114275D02*
D03*
Y119274D02*
D03*
X202838Y104274D02*
D03*
Y109274D02*
D03*
Y119274D02*
D03*
Y114275D02*
D03*
X223507Y104274D02*
D03*
D20*
X165811Y98287D02*
D03*
X147575D02*
D03*
Y103287D02*
D03*
Y108287D02*
D03*
X165811Y103287D02*
D03*
Y108287D02*
D03*
X147575Y93287D02*
D03*
D21*
X165811D02*
D03*
D22*
X51734Y101300D02*
D03*
X93466Y96300D02*
D03*
Y101300D02*
D03*
X51734Y91300D02*
D03*
Y96300D02*
D03*
Y106300D02*
D03*
X93466D02*
D03*
Y91300D02*
D03*
D23*
X82208Y169705D02*
D03*
Y164705D02*
D03*
Y159705D02*
D03*
X103782Y164705D02*
D03*
Y169705D02*
D03*
X82208Y154705D02*
D03*
X103782Y159705D02*
D03*
Y154705D02*
D03*
D24*
X78386Y286319D02*
D03*
Y288878D02*
D03*
Y291437D02*
D03*
X68071Y286319D02*
D03*
Y291437D02*
D03*
Y288878D02*
D03*
X78386Y293996D02*
D03*
X68071D02*
D03*
D25*
X204567Y280762D02*
D03*
X209567D02*
D03*
X229567Y259305D02*
D03*
X214567D02*
D03*
X219567Y280762D02*
D03*
Y259305D02*
D03*
X224567Y280762D02*
D03*
X199567D02*
D03*
Y259305D02*
D03*
X229567Y280762D02*
D03*
X214567D02*
D03*
X224567Y259305D02*
D03*
X209567D02*
D03*
X204567D02*
D03*
D29*
X209567Y223622D02*
D03*
X229567Y244882D02*
D03*
X224567Y223622D02*
D03*
X219567D02*
D03*
X214567D02*
D03*
X204567D02*
D03*
X199567D02*
D03*
X204567Y244882D02*
D03*
X209567D02*
D03*
X219567D02*
D03*
X229567Y223622D02*
D03*
X214567Y244882D02*
D03*
X224567D02*
D03*
X199567D02*
D03*
D35*
X272200Y272300D02*
D03*
X259500D02*
D03*
X222000Y50400D02*
D03*
X78200Y343500D02*
D03*
X206800Y50400D02*
D03*
X70600Y219700D02*
D03*
X194900Y320900D02*
D03*
X192500Y50400D02*
D03*
X47400Y344300D02*
D03*
X244900Y254400D02*
D03*
X134500Y183600D02*
D03*
X10933Y343600D02*
D03*
X177300Y50400D02*
D03*
X182600Y320900D02*
D03*
X204200Y374700D02*
D03*
X204500Y77400D02*
D03*
D47*
X98425Y249524D02*
D03*
X158425Y269525D02*
D03*
X98425D02*
D03*
Y239525D02*
D03*
X158425Y289525D02*
D03*
Y309524D02*
D03*
X98425Y339525D02*
D03*
X158425Y379524D02*
D03*
Y369525D02*
D03*
X98425Y319525D02*
D03*
X158425Y359524D02*
D03*
Y329524D02*
D03*
Y349524D02*
D03*
Y339525D02*
D03*
X98425Y369525D02*
D03*
Y259524D02*
D03*
Y279524D02*
D03*
Y289525D02*
D03*
Y329524D02*
D03*
Y349524D02*
D03*
Y359524D02*
D03*
Y379524D02*
D03*
X158425Y319525D02*
D03*
Y299524D02*
D03*
Y279524D02*
D03*
Y259524D02*
D03*
Y249524D02*
D03*
X98425Y299524D02*
D03*
Y309524D02*
D03*
D48*
X158425Y239525D02*
D03*
D51*
X147575Y120184D02*
Y125741D01*
X136980Y120184D02*
X147575D01*
Y108287D02*
Y120184D01*
Y125741D02*
X150967Y129134D01*
X84252Y83465D02*
X84456D01*
X84680Y83241D01*
X108878D01*
X113437Y87800D01*
X51734Y106309D02*
X51743Y106300D01*
X65936D02*
X66331Y105905D01*
X51743Y106300D02*
X65936D01*
X66331Y105905D02*
X66535D01*
X111797Y43715D02*
X121181D01*
X108283Y47228D02*
Y62583D01*
Y47228D02*
X111797Y43715D01*
X121181D02*
X132514Y32382D01*
X100300Y68700D02*
X100445Y68555D01*
X102311D02*
X108283Y62583D01*
X100445Y68555D02*
X102311D01*
X46063Y123550D02*
Y181890D01*
X39370Y224803D02*
X52756Y211417D01*
X39370Y224803D02*
Y279528D01*
X29942Y107429D02*
X46063Y123550D01*
X29942Y101103D02*
Y107429D01*
X29134Y100295D02*
X29942Y101103D01*
X7480Y264724D02*
X18851D01*
X21055Y266929D01*
X21260D01*
X25591Y229528D02*
Y283678D01*
X31282Y289370D01*
X64961Y303923D02*
X68071Y300813D01*
Y294225D02*
Y300813D01*
X64961Y303923D02*
Y304724D01*
X205300Y133332D02*
X208268Y130364D01*
X204298Y109357D02*
X208268Y113327D01*
Y130364D01*
X216518Y129151D02*
Y149026D01*
X216142Y149402D02*
X216518Y149026D01*
X216142Y149402D02*
Y149606D01*
X199662Y134727D02*
X203543Y130846D01*
Y119357D02*
Y130846D01*
X203461Y119274D02*
X203543Y119357D01*
X202838Y119274D02*
X203461D01*
X147514Y32382D02*
Y47069D01*
X119764Y74819D02*
X147514Y47069D01*
X168504Y122835D02*
Y177496D01*
X156921Y189079D02*
X168504Y177496D01*
X162204Y122835D02*
X165748Y119291D01*
X162204Y122835D02*
Y128740D01*
X165748Y119291D02*
X179134D01*
X156921Y189079D02*
Y211189D01*
X229528Y233465D02*
X229547Y233445D01*
Y223642D02*
Y233445D01*
Y223642D02*
X229567Y223622D01*
X124732Y206693D02*
X125045Y206381D01*
X124400Y180342D02*
Y206693D01*
Y293691D01*
X125045Y206381D02*
X132283D01*
X124400Y180342D02*
X124587Y180156D01*
X124400Y127877D02*
X124587Y128064D01*
X124400Y293691D02*
X140233Y309524D01*
X117323Y120800D02*
X124400Y127877D01*
X124587Y128064D02*
Y180156D01*
X153543Y173332D02*
X157553Y169322D01*
X153543Y173332D02*
Y204724D01*
X85981Y97491D02*
Y120881D01*
X86800Y121700D01*
X85981Y97491D02*
X87153Y96319D01*
X92126D01*
X91555Y111945D02*
X91700Y111800D01*
X90551Y116623D02*
Y158363D01*
X91555Y111945D02*
Y115619D01*
X90551Y116623D02*
X91555Y115619D01*
X85805Y163110D02*
X90551Y158363D01*
X92125Y106300D02*
X100300D01*
X92116Y106309D02*
X92125Y106300D01*
X100300D02*
X100300Y106300D01*
X86800Y121700D02*
Y145279D01*
X84646Y147433D02*
X86800Y145279D01*
X84646Y147433D02*
Y147638D01*
X72604Y137747D02*
X79528Y130824D01*
X72604Y137747D02*
Y144488D01*
X108176Y177234D02*
X108742Y177800D01*
X106333Y177234D02*
X108176D01*
X103782Y169705D02*
Y174682D01*
X106333Y177234D01*
X216518Y129151D02*
X222312Y123357D01*
X166142Y186135D02*
Y331808D01*
Y186135D02*
X195996Y156281D01*
Y118898D02*
Y156281D01*
X199662Y134727D02*
Y157638D01*
X169291Y188009D02*
X199662Y157638D01*
X169291Y188009D02*
Y338658D01*
X188600Y173700D02*
X188700D01*
X172291Y190009D02*
X188600Y173700D01*
X172291Y190009D02*
Y345658D01*
X175953Y191347D02*
Y348762D01*
Y191347D02*
X205300Y162000D01*
Y144159D02*
Y162000D01*
X229567Y243081D02*
X229748Y242900D01*
X232831D02*
X232900Y242831D01*
X229567Y243081D02*
X229748Y242900D01*
X229567Y243081D02*
Y246233D01*
X229748Y242900D02*
X232900D01*
Y242831D02*
X236533D01*
X229748Y242900D02*
X232831D01*
X229567Y243081D02*
Y246233D01*
X149315Y78333D02*
X149442Y78205D01*
X149315Y78333D02*
Y83685D01*
X147587Y85413D02*
X149315Y83685D01*
X147587Y85413D02*
Y93275D01*
X147575Y93287D02*
X147587Y93275D01*
X172983Y108287D02*
X173196Y108500D01*
X173400D01*
X165811Y108287D02*
X172983D01*
X47600Y329884D02*
Y350066D01*
X42780Y324803D02*
X48583Y319000D01*
X87901D02*
X98425Y329524D01*
X48583Y319000D02*
X87901D01*
X78200Y343100D02*
X94850D01*
X27559Y343500D02*
Y345790D01*
Y329081D02*
Y343500D01*
X12337D02*
X27559D01*
X38469Y356700D02*
X43580Y361811D01*
X71266Y343100D02*
X78200D01*
X65627Y337461D02*
X71266Y343100D01*
X94850D02*
X98425Y339525D01*
X27559Y345790D02*
X38469Y356700D01*
X127281Y85381D02*
X140187Y98287D01*
X127223Y85381D02*
X127281D01*
X140187Y98287D02*
X147575D01*
X124803Y83858D02*
X125700D01*
X127223Y85381D01*
X124389Y84272D02*
Y93011D01*
X107098Y104319D02*
X113081D01*
X124389Y93011D01*
X25591Y229528D02*
X28689Y226429D01*
X32885D01*
X88583Y166535D02*
Y170731D01*
X32885Y226429D02*
X88583Y170731D01*
Y166535D02*
X93701Y161417D01*
X124389Y84272D02*
X124803Y83858D01*
X93701Y117717D02*
X107098Y104319D01*
X93701Y117717D02*
Y161417D01*
X53757Y325591D02*
X65627Y337461D01*
Y356299D01*
X47600Y350066D02*
X51682Y354148D01*
X42520Y324803D02*
X47600Y329884D01*
X159055Y80945D02*
X177514Y62486D01*
Y32382D02*
Y62486D01*
X194900Y297635D02*
Y320900D01*
X181102Y283837D02*
X194900Y297635D01*
X181102Y262362D02*
Y283837D01*
X182048Y320348D02*
X182600Y320900D01*
X182048Y291369D02*
Y320348D01*
X181496Y290817D02*
X182048Y291369D01*
X244100Y253600D02*
X244900Y254400D01*
X242138Y253600D02*
X244100D01*
X209567Y250933D02*
X211734Y253100D01*
X241638D02*
X242138Y253600D01*
X211734Y253100D02*
X241638D01*
X44305Y91300D02*
X51734D01*
X40962Y87958D02*
X44305Y91300D01*
X40600Y87958D02*
X40962D01*
X42400Y54484D02*
X52002Y44882D01*
X41399Y54484D02*
X42400D01*
X40765Y55118D02*
X41399Y54484D01*
X40765Y55118D02*
X62992Y77346D01*
Y96457D01*
X58130Y101319D02*
X62992Y96457D01*
X50394Y101319D02*
X58130D01*
X199063Y116671D02*
X201460Y114275D01*
X202838D01*
X224488Y244803D02*
X224567Y244882D01*
X214567Y244882D02*
X214567Y244882D01*
X224488Y233937D02*
Y244803D01*
X224410Y233858D02*
X224488Y233937D01*
X196930Y282687D02*
Y286535D01*
X196850Y286614D02*
X196930Y286535D01*
X214567Y233858D02*
Y244882D01*
X214567Y233858D02*
X214567Y233858D01*
X196930Y282687D02*
X198022Y281595D01*
X199567D01*
X172145Y171993D02*
X174016Y170122D01*
X172145Y171993D02*
Y175355D01*
X172000Y175500D02*
X172145Y175355D01*
X174016Y164173D02*
Y170122D01*
X152824Y299524D02*
X158425D01*
X139370Y286070D02*
X152824Y299524D01*
X139370Y228740D02*
Y286070D01*
X204709Y142791D02*
Y143568D01*
Y142791D02*
X205300Y142200D01*
X204709Y141609D02*
X205300Y142200D01*
X204709Y140832D02*
Y141609D01*
Y140832D02*
X205300Y140241D01*
X202920Y109357D02*
X204298D01*
X204709Y143568D02*
X205300Y144159D01*
X202838Y109274D02*
X202920Y109357D01*
X205300Y133332D02*
Y140241D01*
X159055Y80945D02*
Y125303D01*
X162514Y32382D02*
Y71986D01*
X156055Y78445D02*
X162514Y71986D01*
X156055Y78445D02*
Y115992D01*
X40600Y107642D02*
X41401D01*
X42744Y106300D01*
X51734D01*
X109843Y108756D02*
Y117562D01*
X121587Y129306D01*
X159973Y364741D02*
X175953Y348762D01*
X43580Y361811D02*
X86139D01*
X51682Y354148D02*
Y354973D01*
X51181Y355474D02*
X51682Y354973D01*
X19209Y240634D02*
X20866Y238976D01*
X19209Y240634D02*
Y242996D01*
X7480Y254725D02*
X19209Y242996D01*
X143209Y217618D02*
X146850Y221260D01*
X132677Y217618D02*
X143209D01*
X146850Y221260D02*
X154331Y213779D01*
X139370Y228740D02*
X146850Y221260D01*
X181102Y242362D02*
X186850D01*
X193118Y248630D01*
X199386Y254898D01*
Y259957D01*
X199567Y260138D01*
X117323Y107480D02*
Y120800D01*
X140233Y309524D02*
X158425D01*
X117323Y183177D02*
Y299606D01*
X121587Y129306D02*
Y178913D01*
X117323Y183177D02*
X121587Y178913D01*
X117323Y299606D02*
X137241Y319525D01*
X154331Y213779D02*
X156921Y211189D01*
X98425Y369525D02*
X103209Y364741D01*
X159973D01*
X202931Y216488D02*
X206645D01*
X209386Y219228D01*
Y223441D01*
X209567Y223622D01*
X199041Y212598D02*
X202931Y216488D01*
X198819Y212598D02*
X199041D01*
X179173Y109488D02*
Y119331D01*
X172973Y103287D02*
X179173Y109488D01*
X165811Y103287D02*
X172973D01*
X190396Y118742D02*
X191339Y119685D01*
X173484Y98287D02*
X190396Y115199D01*
X165811Y98287D02*
X173484D01*
X190396Y115199D02*
Y118742D01*
X151575Y120472D02*
X156055Y115992D01*
X157547Y126811D02*
Y167659D01*
X157553Y167665D01*
Y169322D01*
X157547Y126811D02*
X159055Y125303D01*
X39370Y279528D02*
X42520Y282677D01*
X158432Y178576D02*
X162204Y174803D01*
X137241Y319525D02*
X158425D01*
X204567Y260138D02*
X204748Y259957D01*
Y255752D02*
Y259957D01*
Y255752D02*
X209567Y250933D01*
Y244882D02*
Y250933D01*
X219386Y244701D02*
X219567Y244882D01*
X219386Y242469D02*
Y244701D01*
X219291Y242374D02*
X219386Y242469D01*
X219291Y238976D02*
Y242374D01*
X158425Y359524D02*
X172291Y345658D01*
X158425Y349524D02*
X169291Y338658D01*
X158425Y339525D02*
X166142Y331808D01*
X195996Y118898D02*
X196063Y118831D01*
Y109671D02*
Y118831D01*
Y109671D02*
X201460Y104274D01*
X202838D01*
X162204Y164173D02*
Y174803D01*
X109838Y101319D02*
X120146Y91012D01*
Y81929D02*
Y91012D01*
X122874Y79201D02*
X131957D01*
X120146Y81929D02*
X122874Y79201D01*
X131957D02*
X136614Y83858D01*
X92126Y101319D02*
X109838D01*
X42520Y282677D02*
Y289370D01*
X85614Y163110D02*
X85805D01*
X84019Y164705D02*
X85614Y163110D01*
X82208Y164705D02*
X84019D01*
X75059Y159705D02*
X82208D01*
X72604Y157250D02*
X75059Y159705D01*
X72604Y144488D02*
Y157250D01*
X86139Y361811D02*
X98425Y349524D01*
X42520Y324803D02*
X42780D01*
X31282D02*
Y325357D01*
X27559Y329081D02*
X31282Y325357D01*
X257874Y183858D02*
Y221490D01*
X236533Y242831D02*
X257874Y221490D01*
X80397Y169705D02*
X82208D01*
X80216Y169886D02*
X80397Y169705D01*
X80216Y169886D02*
Y172310D01*
X72604Y179921D02*
X80216Y172310D01*
X61367Y144488D02*
X72604D01*
X61367Y144488D02*
X61367Y144488D01*
X222395Y119274D02*
X223507D01*
X222312Y119357D02*
X222395Y119274D01*
X222312Y119357D02*
Y123357D01*
X174016Y128740D02*
X187017D01*
X190945Y124813D01*
Y120079D02*
Y124813D01*
Y120079D02*
X191339Y119685D01*
X179134Y119291D02*
X179528Y119685D01*
X179173Y119331D02*
X179528Y119685D01*
X182303Y93287D02*
X191339Y84252D01*
X165811Y93287D02*
X182303D01*
X124803Y119291D02*
X127811Y116283D01*
X131957D01*
X144953Y103287D01*
X134646Y129134D02*
X139370D01*
X124803Y119291D02*
X134646Y129134D01*
X144953Y103287D02*
X147575D01*
X209386Y260319D02*
X209567Y260138D01*
X209386Y260319D02*
Y264630D01*
X207480Y266535D02*
X209386Y264630D01*
X196960Y266535D02*
X207480D01*
X192786Y262362D02*
X196960Y266535D01*
X181102Y262362D02*
X192786D01*
X233162Y213114D02*
X233678Y212598D01*
X224803Y218504D02*
Y218695D01*
Y218504D02*
X230193Y213114D01*
X224567Y218931D02*
Y223622D01*
Y218931D02*
X224803Y218695D01*
X230193Y213114D02*
X233162D01*
X219567Y216369D02*
Y223622D01*
Y216369D02*
X222441Y213495D01*
Y212598D02*
Y213495D01*
X214567Y217025D02*
Y223622D01*
X210630Y213087D02*
X214567Y217025D01*
X210630Y212598D02*
Y213087D01*
D52*
X252831Y76179D02*
X253026Y75984D01*
X247957Y76179D02*
X252831D01*
X265354Y75984D02*
X277600Y88230D01*
X247761Y75984D02*
X247957Y76179D01*
X253026Y75984D02*
X265354D01*
X238976Y79134D02*
X260666D01*
X234646Y75984D02*
X247761D01*
X68071Y286319D02*
X69320D01*
X52296Y281562D02*
X68479D01*
X48138Y285720D02*
X52296Y281562D01*
X69357Y282441D02*
Y286281D01*
X69320Y286319D02*
X69357Y286281D01*
X68479Y281562D02*
X69357Y282441D01*
X48138Y285720D02*
Y292413D01*
X45276Y295276D02*
X48138Y292413D01*
X29398Y295276D02*
X45276D01*
X26856Y292734D02*
X29398Y295276D01*
X22765Y292734D02*
X26856D01*
X19624Y289592D02*
X22765Y292734D01*
X204331Y314173D02*
X248425D01*
X261811Y300787D01*
X206700Y304400D02*
X252687D01*
X262992Y294094D01*
X250394Y145296D02*
X274200Y121489D01*
Y92668D02*
Y121489D01*
X260666Y79134D02*
X274200Y92668D01*
X250394Y160296D02*
X277600Y133089D01*
Y88230D02*
Y133089D01*
X62000Y294100D02*
X62240Y293860D01*
Y292956D02*
Y293860D01*
Y292956D02*
X63759Y291437D01*
X45467Y275197D02*
X72441D01*
X78386Y281142D01*
Y286319D01*
X63759Y291437D02*
X68071D01*
X78386D02*
X78407Y291459D01*
X97647Y306308D02*
Y308746D01*
X82797Y291459D02*
X97647Y306308D01*
X78407Y291459D02*
X82797D01*
X97647Y308746D02*
X98425Y309524D01*
X117514Y32382D02*
X117600Y32468D01*
X20866Y274409D02*
Y275442D01*
X19624Y276684D02*
X20866Y275442D01*
X19624Y276684D02*
Y289592D01*
X78386Y288878D02*
X84153D01*
X98178Y299278D02*
X98425Y299524D01*
X84153Y288878D02*
X94553Y299278D01*
X98178D01*
X262992Y294094D02*
X273228D01*
X211811Y98491D02*
Y150000D01*
X192514Y79194D02*
X211811Y98491D01*
X192514Y32382D02*
Y79194D01*
X232677Y96735D02*
X250394Y114452D01*
X234373Y114275D02*
X250394Y130296D01*
X223507Y114275D02*
X234373D01*
X250394Y114452D02*
Y115296D01*
X223507Y109274D02*
X244373D01*
D53*
X222257Y32639D02*
X222514Y32382D01*
X222257Y32639D02*
Y50143D01*
X222000Y50400D02*
X222257Y50143D01*
X207157Y32739D02*
X207514Y32382D01*
X207157Y32739D02*
Y50043D01*
X206800Y50400D02*
X207157Y50043D01*
X92712Y55576D02*
X93236Y55053D01*
X80709Y55576D02*
X92712D01*
X80709D02*
Y63914D01*
X57514Y32382D02*
X80709Y55576D01*
X80236Y64387D02*
X80709Y63914D01*
D54*
X61811Y285039D02*
X62043Y285271D01*
Y287566D01*
X63354Y288878D01*
X68071D01*
Y293996D02*
Y294225D01*
D55*
X198720Y120929D02*
X199606Y121816D01*
Y127559D01*
X198720Y117014D02*
Y120929D01*
Y117014D02*
X199063Y116671D01*
D56*
X54332Y74689D02*
X57628Y77985D01*
Y82645D01*
D57*
X123236Y55053D02*
D03*
X113236D02*
D03*
X103236D02*
D03*
X140236Y64387D02*
D03*
X120236D02*
D03*
X90236D02*
D03*
D58*
X93236Y55053D02*
D03*
X80236Y64387D02*
D03*
D59*
X108742Y177800D02*
D03*
X89057D02*
D03*
X149442Y78205D02*
D03*
X169127D02*
D03*
X65627Y356299D02*
D03*
Y375984D02*
D03*
X187198Y208500D02*
D03*
Y228185D02*
D03*
X57157Y265400D02*
D03*
X76842D02*
D03*
X52249Y356299D02*
D03*
Y375984D02*
D03*
X64961Y304724D02*
D03*
X84646D02*
D03*
X204735Y142200D02*
D03*
X185050D02*
D03*
X38870Y356299D02*
D03*
Y375984D02*
D03*
X225200Y291022D02*
D03*
X244885D02*
D03*
X40600Y107642D02*
D03*
Y87958D02*
D03*
X93433Y76670D02*
D03*
X73748D02*
D03*
D60*
X42520Y289370D02*
D03*
X31282D02*
D03*
X116929Y175427D02*
D03*
X150967Y129134D02*
D03*
X174100Y164333D02*
D03*
X179528Y119685D02*
D03*
X232677Y96735D02*
D03*
X124803Y119291D02*
D03*
X162204Y164173D02*
D03*
X233678Y177165D02*
D03*
X45467Y239764D02*
D03*
X139370Y164567D02*
D03*
X222441Y177165D02*
D03*
X20866Y238976D02*
D03*
X40765Y19685D02*
D03*
X210630Y177165D02*
D03*
X51100Y44883D02*
D03*
X191339Y119685D02*
D03*
X198819Y177165D02*
D03*
X53757Y289370D02*
D03*
X61367Y179921D02*
D03*
X72604Y144488D02*
D03*
X136980Y84751D02*
D03*
X216535Y164567D02*
D03*
D61*
X42520Y324803D02*
D03*
X31282D02*
D03*
X116929Y139994D02*
D03*
X150967Y164567D02*
D03*
X174100Y128900D02*
D03*
X179528Y84252D02*
D03*
X232677Y132168D02*
D03*
X124803Y83858D02*
D03*
X162204Y128740D02*
D03*
X233678Y212598D02*
D03*
X45467Y275197D02*
D03*
X132283Y206381D02*
D03*
X139370Y129134D02*
D03*
X222441Y212598D02*
D03*
X20866Y274409D02*
D03*
X40765Y55118D02*
D03*
X132677Y217618D02*
D03*
X210630Y212598D02*
D03*
X51100Y80317D02*
D03*
X181496Y290817D02*
D03*
X191339Y84252D02*
D03*
X198819Y212598D02*
D03*
X53757Y324803D02*
D03*
X61367Y144488D02*
D03*
X72604Y179921D02*
D03*
X79528Y130824D02*
D03*
X136980Y120184D02*
D03*
X216535Y129134D02*
D03*
D62*
X147514Y32382D02*
D03*
X72514D02*
D03*
X87514D02*
D03*
X177514D02*
D03*
X162514D02*
D03*
X132514D02*
D03*
X192514D02*
D03*
X207514D02*
D03*
X102514D02*
D03*
X222514D02*
D03*
X117514D02*
D03*
X250394Y115296D02*
D03*
Y130296D02*
D03*
Y205296D02*
D03*
Y220296D02*
D03*
Y175296D02*
D03*
Y85296D02*
D03*
Y70296D02*
D03*
Y190296D02*
D03*
Y145296D02*
D03*
Y100296D02*
D03*
Y160296D02*
D03*
X29134Y55295D02*
D03*
Y70295D02*
D03*
Y100295D02*
D03*
Y115295D02*
D03*
Y130295D02*
D03*
Y160295D02*
D03*
Y205295D02*
D03*
Y145295D02*
D03*
Y85295D02*
D03*
Y175295D02*
D03*
Y190295D02*
D03*
D63*
X57514Y32382D02*
D03*
D64*
X181102Y242362D02*
D03*
X7480Y244724D02*
D03*
X33166Y244331D02*
D03*
D65*
X181102Y252362D02*
D03*
Y262362D02*
D03*
X33166Y264331D02*
D03*
X7480Y264724D02*
D03*
Y254725D02*
D03*
X33166Y254331D02*
D03*
D66*
X263779Y377953D02*
D03*
X15748Y15748D02*
D03*
Y377953D02*
D03*
X263779Y15748D02*
D03*
D67*
X96850Y206381D02*
D03*
X97244Y217618D02*
D03*
X216929Y290817D02*
D03*
X114961Y130824D02*
D03*
D68*
X113437Y87800D02*
D03*
D69*
X105563D02*
D03*
D70*
X250394Y55296D02*
D03*
X29134Y220295D02*
D03*
D71*
X84252Y83465D02*
D03*
X238976Y79134D02*
D03*
X234646Y75984D02*
D03*
X66535Y105905D02*
D03*
X46063Y181890D02*
D03*
X52756Y211417D02*
D03*
X21260Y266929D02*
D03*
X61811Y285039D02*
D03*
X216142Y149606D02*
D03*
X116142Y153937D02*
D03*
X131102Y154331D02*
D03*
X199606Y127559D02*
D03*
X119764Y74819D02*
D03*
X204331Y314173D02*
D03*
X81890Y140551D02*
D03*
X216248Y120468D02*
D03*
X168504Y122835D02*
D03*
X48425Y233071D02*
D03*
X229528Y233465D02*
D03*
X206700Y304400D02*
D03*
X91700Y111800D02*
D03*
X100300Y106300D02*
D03*
X188700Y173700D02*
D03*
X232900Y242900D02*
D03*
X173400Y108500D02*
D03*
X62000Y294100D02*
D03*
X100394Y143307D02*
D03*
X33071Y231890D02*
D03*
X223700Y137700D02*
D03*
X214567Y233858D02*
D03*
X224410D02*
D03*
X196850Y286614D02*
D03*
X261811Y300787D02*
D03*
X172000Y175500D02*
D03*
X273228Y294094D02*
D03*
X211811Y150000D02*
D03*
X84646Y147638D02*
D03*
X109843Y108756D02*
D03*
X100300Y68700D02*
D03*
X193118Y248630D02*
D03*
X117323Y107480D02*
D03*
X151575Y120472D02*
D03*
X153543Y204724D02*
D03*
X158661Y178805D02*
D03*
X219291Y238976D02*
D03*
D72*
X257874Y183858D02*
D03*
M02*
