G04*
G04 #@! TF.GenerationSoftware,Altium Limited,Altium Designer,26.3.0 (6)*
G04*
G04 Layer_Color=8421504*
%FSLAX25Y25*%
%MOIN*%
G70*
G04*
G04 #@! TF.SameCoordinates,A65C1770-D034-4F41-963D-00CE30BAA99E*
G04*
G04*
G04 #@! TF.FilePolarity,Positive*
G04*
G01*
G75*
%ADD18R,0.02165X0.05905*%
G04:AMPARAMS|DCode=19|XSize=21.65mil|YSize=49.21mil|CornerRadius=1.95mil|HoleSize=0mil|Usage=FLASHONLY|Rotation=90.000|XOffset=0mil|YOffset=0mil|HoleType=Round|Shape=RoundedRectangle|*
%AMROUNDEDRECTD19*
21,1,0.02165,0.04532,0,0,90.0*
21,1,0.01776,0.04921,0,0,90.0*
1,1,0.00390,0.02266,0.00888*
1,1,0.00390,0.02266,-0.00888*
1,1,0.00390,-0.02266,-0.00888*
1,1,0.00390,-0.02266,0.00888*
%
%ADD19ROUNDEDRECTD19*%
G04:AMPARAMS|DCode=20|XSize=73.78mil|YSize=21.34mil|CornerRadius=10.67mil|HoleSize=0mil|Usage=FLASHONLY|Rotation=180.000|XOffset=0mil|YOffset=0mil|HoleType=Round|Shape=RoundedRectangle|*
%AMROUNDEDRECTD20*
21,1,0.07378,0.00000,0,0,180.0*
21,1,0.05244,0.02134,0,0,180.0*
1,1,0.02134,-0.02622,0.00000*
1,1,0.02134,0.02622,0.00000*
1,1,0.02134,0.02622,0.00000*
1,1,0.02134,-0.02622,0.00000*
%
%ADD20ROUNDEDRECTD20*%
%ADD21R,0.07378X0.02134*%
%ADD22O,0.08858X0.02559*%
%ADD23R,0.05984X0.02362*%
%ADD24R,0.04803X0.01575*%
%ADD25R,0.02362X0.05709*%
D18*
X229566Y244880D02*
D03*
X224566D02*
D03*
X219566D02*
D03*
X214566D02*
D03*
X209566D02*
D03*
X204566D02*
D03*
X199566D02*
D03*
X229568Y223620D02*
D03*
X224568D02*
D03*
X219567D02*
D03*
X214567D02*
D03*
X209567D02*
D03*
X204568D02*
D03*
X199567D02*
D03*
D19*
X223507Y109274D02*
D03*
Y114275D02*
D03*
Y119274D02*
D03*
X202838Y104274D02*
D03*
Y109274D02*
D03*
Y119274D02*
D03*
Y114275D02*
D03*
X223507Y104274D02*
D03*
D20*
X165811Y98287D02*
D03*
X147575D02*
D03*
Y103287D02*
D03*
Y108287D02*
D03*
X165811Y103287D02*
D03*
Y108287D02*
D03*
X147575Y93287D02*
D03*
D21*
X165811D02*
D03*
D22*
X51734Y101300D02*
D03*
X93466Y96300D02*
D03*
Y101300D02*
D03*
X51734Y91300D02*
D03*
Y96300D02*
D03*
Y106300D02*
D03*
X93466D02*
D03*
Y91300D02*
D03*
D23*
X82208Y169705D02*
D03*
Y164705D02*
D03*
Y159705D02*
D03*
X103782Y164705D02*
D03*
Y169705D02*
D03*
X82208Y154705D02*
D03*
X103782Y159705D02*
D03*
Y154705D02*
D03*
D24*
X78386Y286319D02*
D03*
Y288878D02*
D03*
Y291437D02*
D03*
X68071Y286319D02*
D03*
Y291437D02*
D03*
Y288878D02*
D03*
X78386Y293996D02*
D03*
X68071D02*
D03*
D25*
X204567Y280762D02*
D03*
X209567D02*
D03*
X229567Y259305D02*
D03*
X214567D02*
D03*
X219567Y280762D02*
D03*
Y259305D02*
D03*
X224567Y280762D02*
D03*
X199567D02*
D03*
Y259305D02*
D03*
X229567Y280762D02*
D03*
X214567D02*
D03*
X224567Y259305D02*
D03*
X209567D02*
D03*
X204567D02*
D03*
M02*
