M48
;Layer_Color=9474304
;FILE_FORMAT=2:5
INCH
;TYPE=PLATED
T01F00S00C0.01181
T02F00S00C0.02800
T03F00S00C0.02992
T04F00S00C0.03150
T05F00S00C0.03346
T06F00S00C0.03598
T07F00S00C0.03937
T08F00S00C0.04000
T09F00S00C0.04016
T10F00S00C0.04331
T11F00S00C0.05512
T12F00S00C0.12598
%
T01
X0084252Y0083465
X0100300Y0068700
X0119764Y0074819
X0117323Y0107480
X0109843Y0108756
X0100300Y0106300
X0091700Y0111800
X0066535Y0105905
X0081890Y0140551
X0084646Y0147638
X0100394Y0143307
X0116142Y0153937
X0131102Y0154331
X0151575Y0120472
X0168504Y0122835
X0173400Y0108500
X0199606Y0127559
X0216248Y0120468
X0223700Y0137700
X0216142Y0149606
X0211811Y0150000
X0234646Y0075984
X0238976Y0079134
X0188700Y0173700
X0172000Y0175500
X0158661Y0178805
X0193118Y0248630
X0219291Y0238976
X0214567Y0233858
X0224410
X0229528Y0233465
X0232900Y0242900
X0196850Y0286614
X0206700Y0304400
X0261811Y0300787
X0273228Y0294094
X0153543Y0204724
X0052756Y0211417
X0048425Y0233071
X0033071Y0231890
X0021260Y0266929
X0061811Y0285039
X0062000Y0294100
X0046063Y0181890
X0204331Y0314173
T02
X0257874Y0183858
T03
X0040600Y0087958
Y0107642
X0073748Y0076670
X0093433
X0149442Y0078205
X0169127
X0185050Y0142200
X0204735
X0187198Y0208500
Y0228185
X0225200Y0291022
X0244885
X0084646Y0304724
X0064961
X0057157Y0265400
X0076842
X0089057Y0177800
X0108742
X0065627Y0356299
X0052249
X0038870
Y0375984
X0052249
X0065627
T04
X0105563Y0087800
X0113437
T05
X0040765Y0019685
Y0055118
X0051100Y0044883
Y0080317
X0061367Y0144488
X0072604Y0144488
X0079528Y0130824
X0114961
X0116929Y0139994
X0124803Y0119291
X0136980Y0120184
X0139370Y0129134
X0150967
X0136980Y0084751
X0124803Y0083858
X0179528Y0084252
X0191339
Y0119685
X0179528
X0174100Y0128900
X0162204Y0128740
X0216535Y0129134
X0232677Y0132168
Y0096735
X0233678Y0177165
X0222441
X0210630
X0198819
X0216535Y0164567
X0174100Y0164333
X0162204Y0164173
X0198819Y0212598
X0210630
X0222441
X0233678
X0216929Y0290817
X0181496
X0132677Y0217618
X0132283Y0206381
X0096850
X0097244Y0217618
X0116929Y0175427
X0139370Y0164567
X0150967Y0164567
X0072604Y0179921
X0061367Y0179921
X0045467Y0239764
X0020866Y0238976
Y0274409
X0031282Y0289370
X0042520
X0053757
X0045467Y0275197
X0042520Y0324803
X0031282
X0053757
T06
X0158425Y0239525
Y0249524
Y0259524
Y0269525
Y0279524
Y0289525
Y0299524
Y0309524
X0098425
Y0299524
Y0289525
Y0279524
Y0269525
Y0259524
Y0249524
Y0239525
Y0319525
Y0329524
Y0339525
Y0349524
Y0359524
Y0369525
Y0379524
X0158425
Y0369525
Y0359524
Y0349524
Y0339525
Y0329524
Y0319525
T07
X0080236Y0064387
X0090236
X0093236Y0055053
X0103236
X0113236
X0123236
X0120236Y0064387
X0140236
T08
X0222000Y0050400
X0204200Y0374700
T09
X0177300Y0050400
X0192500
X0206800
X0204500Y0077400
X0244900Y0254400
X0259500Y0272300
X0272200
X0134500Y0183600
X0070600Y0219700
X0078200Y0343500
X0047400Y0344300
X0010933Y0343600
X0182600Y0320900
X0194900
T10
X0181102Y0242362
Y0252362
Y0262362
X0033166Y0264331
Y0254331
Y0244331
X0007480Y0244724
Y0254725
Y0264724
T11
X0029134Y0055295
Y0070295
Y0085295
Y0100295
Y0115295
Y0130295
Y0145295
X0057514Y0032382
X0072514
X0087514
X0102514
X0117514
X0132514
X0147514
X0162514
X0177514
X0192514
X0207514
X0222514
X0250394Y0055296
Y0070296
Y0085296
Y0100296
Y0115296
Y0130296
Y0145296
Y0160296
Y0175296
Y0190296
Y0205296
Y0220296
X0029134Y0220295
Y0205295
Y0190295
Y0175295
Y0160295
T12
X0015748Y0015748
X0263779
X0015748Y0377953
X0263779
M30
