G04*
G04 #@! TF.GenerationSoftware,Altium Limited,Altium Designer,26.1.1 (7)*
G04*
G04 Layer_Physical_Order=2*
G04 Layer_Color=16711680*
%FSLAX25Y25*%
%MOIN*%
G70*
G04*
G04 #@! TF.SameCoordinates,B0E09198-756F-40DB-88A9-0B99AA1CEF91*
G04*
G04*
G04 #@! TF.FilePolarity,Positive*
G04*
G01*
G75*
%ADD35R,0.05567X0.05567*%
%ADD36C,0.05567*%
%ADD48C,0.02000*%
%ADD49C,0.01500*%
%ADD54C,0.04000*%
G04:AMPARAMS|DCode=55|XSize=59.06mil|YSize=59.06mil|CornerRadius=14.76mil|HoleSize=0mil|Usage=FLASHONLY|Rotation=0.000|XOffset=0mil|YOffset=0mil|HoleType=Round|Shape=RoundedRectangle|*
%AMROUNDEDRECTD55*
21,1,0.05906,0.02953,0,0,0.0*
21,1,0.02953,0.05906,0,0,0.0*
1,1,0.02953,0.01476,-0.01476*
1,1,0.02953,-0.01476,-0.01476*
1,1,0.02953,-0.01476,0.01476*
1,1,0.02953,0.01476,0.01476*
%
%ADD55ROUNDEDRECTD55*%
%ADD56C,0.05906*%
%ADD57C,0.05315*%
%ADD58R,0.05315X0.05315*%
%ADD59C,0.29528*%
%ADD60C,0.04961*%
%ADD61C,0.05118*%
%ADD62R,0.05118X0.05118*%
%ADD63C,0.08268*%
G04:AMPARAMS|DCode=64|XSize=82.68mil|YSize=82.68mil|CornerRadius=20.67mil|HoleSize=0mil|Usage=FLASHONLY|Rotation=90.000|XOffset=0mil|YOffset=0mil|HoleType=Round|Shape=RoundedRectangle|*
%AMROUNDEDRECTD64*
21,1,0.08268,0.04134,0,0,90.0*
21,1,0.04134,0.08268,0,0,90.0*
1,1,0.04134,0.02067,0.02067*
1,1,0.04134,0.02067,-0.02067*
1,1,0.04134,-0.02067,-0.02067*
1,1,0.04134,-0.02067,0.02067*
%
%ADD64ROUNDEDRECTD64*%
%ADD65C,0.06299*%
G04:AMPARAMS|DCode=66|XSize=62.99mil|YSize=62.99mil|CornerRadius=15.75mil|HoleSize=0mil|Usage=FLASHONLY|Rotation=90.000|XOffset=0mil|YOffset=0mil|HoleType=Round|Shape=RoundedRectangle|*
%AMROUNDEDRECTD66*
21,1,0.06299,0.03150,0,0,90.0*
21,1,0.03150,0.06299,0,0,90.0*
1,1,0.03150,0.01575,0.01575*
1,1,0.03150,0.01575,-0.01575*
1,1,0.03150,-0.01575,-0.01575*
1,1,0.03150,-0.01575,0.01575*
%
%ADD66ROUNDEDRECTD66*%
G04:AMPARAMS|DCode=67|XSize=82.68mil|YSize=82.68mil|CornerRadius=20.67mil|HoleSize=0mil|Usage=FLASHONLY|Rotation=0.000|XOffset=0mil|YOffset=0mil|HoleType=Round|Shape=RoundedRectangle|*
%AMROUNDEDRECTD67*
21,1,0.08268,0.04134,0,0,0.0*
21,1,0.04134,0.08268,0,0,0.0*
1,1,0.04134,0.02067,-0.02067*
1,1,0.04134,-0.02067,-0.02067*
1,1,0.04134,-0.02067,0.02067*
1,1,0.04134,0.02067,0.02067*
%
%ADD67ROUNDEDRECTD67*%
%ADD68R,0.05315X0.05315*%
%ADD69C,0.02756*%
%ADD70C,0.05000*%
G36*
X259696Y393201D02*
X257728Y392562D01*
X255518Y391435D01*
X253510Y389977D01*
X251756Y388222D01*
X250297Y386215D01*
X249171Y384004D01*
X248404Y381644D01*
X248016Y379193D01*
Y376712D01*
X248404Y374261D01*
X249171Y371902D01*
X250297Y369691D01*
X251756Y367683D01*
X253510Y365929D01*
X255518Y364470D01*
X257728Y363344D01*
X260088Y362577D01*
X262539Y362189D01*
X265020D01*
X267471Y362577D01*
X269831Y363344D01*
X272042Y364470D01*
X274049Y365929D01*
X275803Y367683D01*
X277262Y369691D01*
X278388Y371902D01*
X279028Y373869D01*
X279528Y373790D01*
Y82677D01*
X283003Y79202D01*
X282811Y78740D01*
X263897D01*
X263859Y78756D01*
X262913D01*
X262875Y78740D01*
X240961D01*
Y79607D01*
X240599Y80481D01*
X239930Y81150D01*
X239056Y81512D01*
X238110D01*
X237236Y81150D01*
X236567Y80481D01*
X236205Y79607D01*
Y78886D01*
X228193Y70874D01*
X153342D01*
X153342Y70874D01*
X152659Y70738D01*
X152080Y70351D01*
X144473Y62744D01*
X144401Y62762D01*
X144051Y63354D01*
X144189Y63867D01*
Y63887D01*
X140736D01*
Y60434D01*
X140756D01*
X141268Y60571D01*
X141860Y60222D01*
X141879Y60150D01*
X127214Y45485D01*
X113833D01*
X113833Y45485D01*
X113150Y45349D01*
X112571Y44962D01*
X112571Y44962D01*
X104673Y37064D01*
X104496Y37166D01*
X103190Y37516D01*
X101838D01*
X100532Y37166D01*
X99362Y36490D01*
X98406Y35534D01*
X97730Y34363D01*
X97380Y33058D01*
Y31706D01*
X97730Y30400D01*
X98406Y29230D01*
X99362Y28274D01*
X100532Y27598D01*
X101838Y27248D01*
X103190D01*
X104496Y27598D01*
X105666Y28274D01*
X106622Y29230D01*
X107298Y30400D01*
X107648Y31706D01*
Y33058D01*
X107298Y34363D01*
X107196Y34540D01*
X114572Y41916D01*
X127953D01*
X128636Y42052D01*
X129214Y42439D01*
X154081Y67305D01*
X227908D01*
X228100Y66844D01*
X222883Y61627D01*
X150394D01*
X150394Y61627D01*
X149711Y61491D01*
X149132Y61104D01*
X122698Y34670D01*
X122073Y34753D01*
X121622Y35534D01*
X120666Y36490D01*
X119496Y37166D01*
X118190Y37516D01*
X116838D01*
X115533Y37166D01*
X114362Y36490D01*
X113406Y35534D01*
X112730Y34363D01*
X112380Y33058D01*
Y31706D01*
X112730Y30400D01*
X113406Y29230D01*
X114362Y28274D01*
X115533Y27598D01*
X116838Y27248D01*
X118190D01*
X119496Y27598D01*
X120666Y28274D01*
X121622Y29230D01*
X122298Y30400D01*
X122374Y30684D01*
X123019D01*
X123702Y30820D01*
X124281Y31206D01*
X127130Y34055D01*
X127578Y33797D01*
X127380Y33058D01*
Y31706D01*
X127730Y30400D01*
X128406Y29230D01*
X129362Y28274D01*
X130533Y27598D01*
X131838Y27248D01*
X133190D01*
X134496Y27598D01*
X135666Y28274D01*
X136622Y29230D01*
X137298Y30400D01*
X137648Y31706D01*
Y33058D01*
X137298Y34363D01*
X136622Y35534D01*
X135666Y36490D01*
X134496Y37166D01*
X133190Y37516D01*
X131838D01*
X131099Y37318D01*
X130841Y37766D01*
X151133Y58058D01*
X223622D01*
X224305Y58194D01*
X224884Y58581D01*
X239696Y73393D01*
X240158Y73201D01*
Y23622D01*
X94488D01*
Y74803D01*
X70866D01*
Y110236D01*
X68053Y113049D01*
X68244Y113511D01*
X84147D01*
X84425Y113096D01*
X84236Y112641D01*
Y111695D01*
X84598Y110821D01*
X85267Y110152D01*
X86141Y109790D01*
X87087D01*
X87824Y110095D01*
X107373D01*
X107651Y109679D01*
X107488Y109285D01*
X98858Y100655D01*
X98416Y99994D01*
X98261Y99213D01*
Y82011D01*
X97761Y81804D01*
X97479Y82085D01*
X96686Y82543D01*
X95801Y82780D01*
X94884D01*
X93999Y82543D01*
X93206Y82085D01*
X92558Y81437D01*
X92099Y80643D01*
X91862Y79758D01*
Y78842D01*
X92099Y77957D01*
X92558Y77163D01*
X93206Y76515D01*
X93999Y76057D01*
X94884Y75820D01*
X95801D01*
X96686Y76057D01*
X97479Y76515D01*
X97761Y76796D01*
X98261Y76589D01*
Y69991D01*
X97922Y69173D01*
Y68227D01*
X98284Y67353D01*
X98953Y66684D01*
X99827Y66322D01*
X100773D01*
X101647Y66684D01*
X102316Y67353D01*
X102678Y68227D01*
Y69173D01*
X102339Y69991D01*
Y85315D01*
X102839Y85491D01*
X103378Y84952D01*
X104189Y84483D01*
X105094Y84241D01*
X106032D01*
X106937Y84483D01*
X107748Y84952D01*
X108411Y85615D01*
X108879Y86426D01*
X109122Y87331D01*
Y88269D01*
X108879Y89174D01*
X108411Y89985D01*
X107748Y90648D01*
X106937Y91116D01*
X106032Y91359D01*
X105094D01*
X104189Y91116D01*
X103378Y90648D01*
X102839Y90109D01*
X102339Y90285D01*
Y98369D01*
X110372Y106401D01*
X111189Y106740D01*
X111858Y107409D01*
X112221Y108283D01*
Y109229D01*
X112034Y109679D01*
X112312Y110095D01*
X116114D01*
X116214Y109595D01*
X115976Y109496D01*
X115307Y108827D01*
X114945Y107953D01*
Y107007D01*
X115307Y106133D01*
X115976Y105464D01*
X116161Y105388D01*
Y91359D01*
X113937D01*
Y87800D01*
Y84241D01*
X116161D01*
Y73737D01*
X116316Y72957D01*
X116758Y72295D01*
X116913Y72140D01*
Y71968D01*
X117275Y71094D01*
X117944Y70425D01*
X118818Y70063D01*
X119764D01*
X120638Y70425D01*
X121307Y71094D01*
X121669Y71968D01*
Y72914D01*
X121307Y73788D01*
X120638Y74457D01*
X120239Y74622D01*
Y106398D01*
X120239Y106399D01*
X120084Y107179D01*
X119701Y107752D01*
Y107953D01*
X119339Y108827D01*
X118670Y109496D01*
X118432Y109595D01*
X118531Y110095D01*
X170252D01*
X170443Y109633D01*
X170425Y109615D01*
X170074Y108768D01*
X174808D01*
X174457Y109615D01*
X174439Y109633D01*
X174630Y110095D01*
X184265D01*
X189299Y105061D01*
Y87298D01*
X189093Y87179D01*
X188412Y86498D01*
X187930Y85664D01*
X187681Y84733D01*
Y83771D01*
X187930Y82840D01*
X188412Y82006D01*
X189093Y81325D01*
X189927Y80844D01*
X190857Y80594D01*
X191820D01*
X192750Y80844D01*
X193584Y81325D01*
X194265Y82006D01*
X194747Y82840D01*
X194996Y83771D01*
Y84733D01*
X194747Y85664D01*
X194265Y86498D01*
X193584Y87179D01*
X193378Y87298D01*
Y105905D01*
X193223Y106686D01*
X192780Y107347D01*
X187490Y112638D01*
X187682Y113100D01*
X245734D01*
X246286Y112143D01*
X247241Y111188D01*
X248412Y110512D01*
X249718Y110162D01*
X251070D01*
X252375Y110512D01*
X253546Y111188D01*
X254502Y112143D01*
X255178Y113314D01*
X255528Y114620D01*
Y115972D01*
X255178Y117277D01*
X254502Y118448D01*
X253546Y119404D01*
X252375Y120080D01*
X251070Y120430D01*
X249718D01*
X248412Y120080D01*
X247241Y119404D01*
X246286Y118448D01*
X245610Y117277D01*
X245447Y116668D01*
X194996D01*
Y123343D01*
X187681D01*
Y116668D01*
X183185D01*
Y123343D01*
X175870D01*
Y116668D01*
X139808D01*
X139612Y117168D01*
X140022Y117880D01*
X140272Y118810D01*
Y119773D01*
X140022Y120703D01*
X139541Y121537D01*
X138860Y122218D01*
X138026Y122700D01*
X137096Y122949D01*
X136133D01*
X135203Y122700D01*
X134369Y122218D01*
X133687Y121537D01*
X133206Y120703D01*
X132957Y119773D01*
Y118810D01*
X133206Y117880D01*
X133617Y117168D01*
X133421Y116668D01*
X128461D01*
Y122949D01*
X121146D01*
Y117192D01*
X121009Y117080D01*
X33970D01*
X33918Y117277D01*
X33242Y118447D01*
X32286Y119403D01*
X31115Y120079D01*
X29810Y120429D01*
X28458D01*
X27152Y120079D01*
X25982Y119403D01*
X25501Y118923D01*
X25039Y119114D01*
Y126476D01*
X25501Y126667D01*
X25982Y126187D01*
X27152Y125511D01*
X28458Y125161D01*
X29810D01*
X31115Y125511D01*
X32286Y126187D01*
X33242Y127143D01*
X33918Y128313D01*
X33971Y128511D01*
X73084D01*
X76440Y125155D01*
X76440Y125155D01*
X77019Y124768D01*
X77702Y124632D01*
X118343D01*
X119026Y124768D01*
X119605Y125155D01*
X126207Y131757D01*
X136176D01*
X136373Y131257D01*
X135962Y130546D01*
X135713Y129615D01*
Y128652D01*
X135962Y127722D01*
X136443Y126888D01*
X137124Y126207D01*
X137958Y125726D01*
X138889Y125476D01*
X139851D01*
X140782Y125726D01*
X141616Y126207D01*
X142297Y126888D01*
X142778Y127722D01*
X143027Y128652D01*
Y129615D01*
X142778Y130546D01*
X142367Y131257D01*
X142564Y131757D01*
X147310D01*
Y125476D01*
X154625D01*
Y131757D01*
X159342D01*
X159549Y131257D01*
X159278Y130986D01*
X158796Y130152D01*
X158547Y129222D01*
Y128259D01*
X158796Y127329D01*
X159278Y126495D01*
X159959Y125813D01*
X160793Y125332D01*
X161581Y125121D01*
X161793Y124626D01*
X159679Y122512D01*
X152866D01*
X152048Y122850D01*
X151102D01*
X150228Y122488D01*
X149559Y121819D01*
X149197Y120945D01*
Y119999D01*
X149559Y119125D01*
X150228Y118456D01*
X151102Y118095D01*
X152048D01*
X152866Y118433D01*
X160523D01*
X161304Y118588D01*
X161965Y119030D01*
X169407Y126473D01*
X169407Y126473D01*
X169850Y127134D01*
X169974Y127761D01*
X170487Y127777D01*
X170608Y127329D01*
X171089Y126495D01*
X171770Y125813D01*
X172604Y125332D01*
X173534Y125083D01*
X174497D01*
X175427Y125332D01*
X176262Y125813D01*
X176943Y126495D01*
X177424Y127329D01*
X177673Y128259D01*
Y129222D01*
X177424Y130152D01*
X176943Y130986D01*
X176672Y131257D01*
X176879Y131757D01*
X213342D01*
X213538Y131257D01*
X213127Y130546D01*
X212878Y129615D01*
Y128652D01*
X213127Y127722D01*
X213609Y126888D01*
X214290Y126207D01*
X214369Y126161D01*
X214235Y125661D01*
X200750D01*
X199933Y126000D01*
X198987D01*
X198113Y125638D01*
X197444Y124969D01*
X197082Y124095D01*
Y123149D01*
X197444Y122275D01*
X198113Y121606D01*
X198987Y121244D01*
X199933D01*
X200750Y121583D01*
X213693D01*
X213732Y121488D01*
X214401Y120819D01*
X215275Y120457D01*
X216221D01*
X217095Y120819D01*
X217764Y121488D01*
X218126Y122362D01*
Y123308D01*
X217764Y124182D01*
X217095Y124851D01*
X216791Y124976D01*
X216891Y125476D01*
X217017D01*
X217947Y125726D01*
X218781Y126207D01*
X219462Y126888D01*
X219944Y127722D01*
X220166Y128552D01*
X220456Y128731D01*
X220693Y128801D01*
X220924Y128647D01*
X221607Y128511D01*
X221607Y128511D01*
X245557D01*
X245610Y128314D01*
X246286Y127143D01*
X247241Y126188D01*
X248412Y125512D01*
X249718Y125162D01*
X251070D01*
X252375Y125512D01*
X253546Y126188D01*
X254502Y127143D01*
X255178Y128314D01*
X255528Y129620D01*
Y130972D01*
X255178Y132277D01*
X254502Y133448D01*
X253546Y134404D01*
X252375Y135080D01*
X251070Y135430D01*
X249718D01*
X248412Y135080D01*
X247241Y134404D01*
X246286Y133448D01*
X245610Y132277D01*
X245557Y132079D01*
X236335D01*
Y132650D01*
X236086Y133580D01*
X235604Y134414D01*
X234923Y135095D01*
X234089Y135576D01*
X233159Y135826D01*
X232196D01*
X231265Y135576D01*
X230432Y135095D01*
X229751Y134414D01*
X229269Y133580D01*
X229020Y132650D01*
Y132079D01*
X222346D01*
X219623Y134803D01*
X219478Y134900D01*
X219353Y135579D01*
X219410Y135661D01*
X222409D01*
X223227Y135322D01*
X224173D01*
X225047Y135684D01*
X225716Y136353D01*
X226078Y137227D01*
Y138173D01*
X225716Y139047D01*
X225047Y139716D01*
X224173Y140078D01*
X223227D01*
X222409Y139739D01*
X207264D01*
X207029Y140239D01*
X207386Y140857D01*
X207623Y141742D01*
Y142658D01*
X207386Y143543D01*
X206927Y144337D01*
X206279Y144985D01*
X205486Y145443D01*
X204601Y145680D01*
X203684D01*
X202799Y145443D01*
X202006Y144985D01*
X201358Y144337D01*
X200899Y143543D01*
X200721Y142877D01*
X200191Y142699D01*
X199248Y143642D01*
X198587Y144084D01*
X197806Y144239D01*
X187299D01*
X187242Y144337D01*
X186594Y144985D01*
X185801Y145443D01*
X184916Y145680D01*
X183999D01*
X183114Y145443D01*
X182320Y144985D01*
X181673Y144337D01*
X181214Y143543D01*
X180977Y142658D01*
Y141742D01*
X181214Y140857D01*
X181673Y140063D01*
X182320Y139415D01*
X183114Y138957D01*
X183999Y138720D01*
X184916D01*
X185801Y138957D01*
X186594Y139415D01*
X187242Y140063D01*
X187299Y140161D01*
X196962D01*
X200865Y136258D01*
X201526Y135816D01*
X201429Y135326D01*
X125468D01*
X124785Y135190D01*
X124206Y134803D01*
X124206Y134803D01*
X119080Y129677D01*
X118618Y129868D01*
Y130324D01*
X114961D01*
X111303D01*
Y128200D01*
X82721D01*
X82525Y128700D01*
X82936Y129412D01*
X83185Y130342D01*
Y131305D01*
X82936Y132235D01*
X82454Y133070D01*
X81773Y133750D01*
X80939Y134232D01*
X80009Y134481D01*
X79046D01*
X78116Y134232D01*
X77282Y133750D01*
X76601Y133070D01*
X76119Y132235D01*
X75907Y131442D01*
X75414Y131227D01*
X75085Y131557D01*
X74506Y131944D01*
X73823Y132079D01*
X33971D01*
X33918Y132277D01*
X33242Y133447D01*
X32286Y134403D01*
X31115Y135079D01*
X30414Y135267D01*
X30431Y135780D01*
X31089Y135911D01*
X31750Y136353D01*
X40812Y145415D01*
X40812Y145415D01*
X41254Y146076D01*
X41409Y146857D01*
Y211754D01*
X63080Y233424D01*
X63522Y234086D01*
X63677Y234866D01*
Y265922D01*
X64139Y266113D01*
X67161Y263091D01*
Y208359D01*
X67316Y207578D01*
X67758Y206917D01*
X74936Y199739D01*
X75598Y199297D01*
X76378Y199142D01*
X154561D01*
Y190900D01*
X154716Y190120D01*
X155158Y189458D01*
X169645Y174971D01*
X169866Y174439D01*
X169545Y173939D01*
X121301D01*
X120587Y174653D01*
Y179085D01*
X117160D01*
X117156Y179109D01*
X116714Y179770D01*
X113585Y182899D01*
X113776Y183361D01*
X150763D01*
X156616Y177508D01*
X156628Y177500D01*
X156646Y177458D01*
X157314Y176789D01*
X158188Y176427D01*
X159134D01*
X160008Y176789D01*
X160677Y177458D01*
X161039Y178332D01*
Y179278D01*
X160677Y180152D01*
X160008Y180821D01*
X159134Y181183D01*
X158709D01*
X153050Y186842D01*
X152388Y187284D01*
X151608Y187439D01*
X80405D01*
X51961Y215883D01*
X51622Y216701D01*
X50953Y217370D01*
X50079Y217732D01*
X49133D01*
X48259Y217370D01*
X47590Y216701D01*
X47228Y215827D01*
Y214881D01*
X47590Y214007D01*
X48259Y213338D01*
X49077Y213000D01*
X77176Y184901D01*
X76984Y184439D01*
X75433D01*
X74653Y184284D01*
X73992Y183842D01*
X73593Y183443D01*
X73086Y183579D01*
X72123D01*
X71193Y183329D01*
X70359Y182848D01*
X69678Y182167D01*
X69196Y181333D01*
X68947Y180403D01*
Y179440D01*
X69196Y178509D01*
X69678Y177675D01*
X70359Y176995D01*
X71193Y176513D01*
X72123Y176264D01*
X73086D01*
X74016Y176513D01*
X74850Y176995D01*
X75531Y177675D01*
X76013Y178509D01*
X76262Y179440D01*
Y180345D01*
X76278Y180361D01*
X86066D01*
X86229Y179861D01*
X85814Y179143D01*
X85577Y178258D01*
Y177342D01*
X85814Y176457D01*
X86273Y175663D01*
X86920Y175015D01*
X87714Y174557D01*
X88599Y174320D01*
X89516D01*
X90401Y174557D01*
X91194Y175015D01*
X91842Y175663D01*
X92301Y176457D01*
X92538Y177342D01*
Y178258D01*
X92301Y179143D01*
X91886Y179861D01*
X92049Y180361D01*
X105751D01*
X105914Y179861D01*
X105499Y179143D01*
X105273Y178300D01*
X108742D01*
Y177800D01*
X109242D01*
Y174331D01*
X110086Y174557D01*
X110880Y175015D01*
X111528Y175663D01*
X111986Y176457D01*
X112223Y177342D01*
Y177786D01*
X112723Y177993D01*
X113233Y177484D01*
Y177085D01*
X113272Y176888D01*
Y171770D01*
X117703D01*
X119015Y170458D01*
X119676Y170016D01*
X120456Y169861D01*
X180082D01*
X180862Y170016D01*
X181524Y170458D01*
X188105Y177039D01*
X188652Y176880D01*
X188929Y176212D01*
X189598Y175543D01*
X190416Y175204D01*
X192167Y173453D01*
X192278Y172899D01*
X192720Y172238D01*
X210743Y154215D01*
X211404Y153772D01*
X212185Y153617D01*
X213886D01*
X214007Y153496D01*
X214881Y153134D01*
X215827D01*
X216701Y153496D01*
X217370Y154165D01*
X217732Y155039D01*
Y155985D01*
X217370Y156859D01*
X216701Y157528D01*
X215827Y157890D01*
X214881D01*
X214413Y157696D01*
X213029D01*
X197679Y173046D01*
X197870Y173508D01*
X202477D01*
Y180823D01*
X195161D01*
Y176880D01*
X194700Y176688D01*
X193300Y178088D01*
X192961Y178906D01*
X192292Y179575D01*
X191624Y179851D01*
X191465Y180399D01*
X192885Y181819D01*
X255010D01*
X255073Y181709D01*
X255725Y181058D01*
X256523Y180597D01*
X257413Y180358D01*
X258335D01*
X259225Y180597D01*
X259840Y180952D01*
X260340Y180711D01*
Y166800D01*
X255708Y162169D01*
X255187Y162243D01*
X255178Y162277D01*
X254502Y163448D01*
X253546Y164404D01*
X252375Y165080D01*
X251070Y165429D01*
X249718D01*
X248412Y165080D01*
X247241Y164404D01*
X246286Y163448D01*
X245610Y162277D01*
X245260Y160971D01*
Y159620D01*
X245610Y158314D01*
X246286Y157143D01*
X247241Y156187D01*
X248412Y155512D01*
X249718Y155162D01*
X251070D01*
X252375Y155512D01*
X253546Y156187D01*
X254502Y157143D01*
X255178Y158314D01*
X255231Y158511D01*
X256359D01*
X257041Y158647D01*
X257620Y159034D01*
X263386Y164799D01*
X263773Y165378D01*
X263908Y166061D01*
X263908Y166061D01*
Y289451D01*
X263908Y289451D01*
X263773Y290134D01*
X263595Y290399D01*
Y299209D01*
X263827Y299440D01*
X264189Y300314D01*
Y301260D01*
X263827Y302134D01*
X263158Y302803D01*
X262284Y303165D01*
X261338D01*
X260464Y302803D01*
X259795Y302134D01*
X259433Y301260D01*
Y300314D01*
X259795Y299440D01*
X260027Y299209D01*
Y289764D01*
X260163Y289081D01*
X260340Y288816D01*
Y187005D01*
X259840Y186765D01*
X259225Y187120D01*
X258335Y187358D01*
X257413D01*
X256523Y187120D01*
X255725Y186659D01*
X255073Y186007D01*
X255010Y185898D01*
X253963D01*
X253756Y186398D01*
X254502Y187143D01*
X255178Y188314D01*
X255528Y189620D01*
Y190972D01*
X255178Y192277D01*
X254502Y193448D01*
X253546Y194404D01*
X252375Y195080D01*
X251070Y195430D01*
X249718D01*
X248412Y195080D01*
X247241Y194404D01*
X246286Y193448D01*
X245610Y192277D01*
X245260Y190972D01*
Y189620D01*
X245610Y188314D01*
X246286Y187143D01*
X247032Y186398D01*
X246825Y185898D01*
X192040D01*
X191260Y185742D01*
X190598Y185300D01*
X179237Y173939D01*
X174455D01*
X174135Y174439D01*
X174378Y175027D01*
Y175973D01*
X174016Y176847D01*
X173347Y177516D01*
X172529Y177855D01*
X158639Y191745D01*
Y200009D01*
X158484Y200790D01*
X158042Y201451D01*
X158042Y201451D01*
X156870Y202623D01*
X156209Y203065D01*
X155951Y203116D01*
X155684Y203679D01*
X155921Y204251D01*
Y205197D01*
X155582Y206015D01*
Y223958D01*
X176651Y245027D01*
X177075Y244744D01*
X177019Y244609D01*
X176931Y243937D01*
Y240787D01*
X177019Y240115D01*
X177278Y239489D01*
X177691Y238951D01*
X178229Y238538D01*
X178855Y238279D01*
X179528Y238190D01*
X182677D01*
X183349Y238279D01*
X183976Y238538D01*
X184514Y238951D01*
X184926Y239489D01*
X185186Y240115D01*
X185274Y240787D01*
Y243937D01*
X185186Y244609D01*
X184926Y245235D01*
X184514Y245773D01*
X183976Y246186D01*
X183349Y246445D01*
X182677Y246534D01*
X179528D01*
X178855Y246445D01*
X178721Y246390D01*
X178438Y246814D01*
X179989Y248365D01*
X180556Y248213D01*
X181649D01*
X182704Y248495D01*
X183650Y249042D01*
X184423Y249814D01*
X184969Y250761D01*
X185252Y251816D01*
Y252908D01*
X184969Y253964D01*
X184423Y254910D01*
X183650Y255683D01*
X182704Y256229D01*
X181649Y256512D01*
X180556D01*
X179501Y256229D01*
X178554Y255683D01*
X177782Y254910D01*
X177236Y253964D01*
X176953Y252908D01*
Y251816D01*
X177105Y251249D01*
X162671Y236814D01*
X162209Y237005D01*
Y243308D01*
X154642D01*
Y235741D01*
X160944D01*
X161135Y235279D01*
X152101Y226245D01*
X151659Y225584D01*
X151504Y224803D01*
Y206015D01*
X151165Y205197D01*
Y204251D01*
X151385Y203720D01*
X151051Y203220D01*
X135002D01*
X134795Y203720D01*
X135210Y204135D01*
X135692Y204969D01*
X135941Y205899D01*
Y206862D01*
X135692Y207793D01*
X135210Y208627D01*
X134529Y209308D01*
X133695Y209789D01*
X132765Y210038D01*
X131802D01*
X130872Y209789D01*
X130038Y209308D01*
X129357Y208627D01*
X128875Y207793D01*
X128626Y206862D01*
Y205899D01*
X128875Y204969D01*
X129357Y204135D01*
X129772Y203720D01*
X129564Y203220D01*
X100508D01*
Y210038D01*
X93193D01*
Y203220D01*
X77223D01*
X71240Y209203D01*
Y263936D01*
X71084Y264716D01*
X70642Y265378D01*
X70642Y265378D01*
X63917Y272103D01*
Y287456D01*
X64104Y287908D01*
X64595Y288005D01*
X75058Y277542D01*
Y268389D01*
X74706Y268185D01*
X74058Y267537D01*
X73599Y266743D01*
X73362Y265858D01*
Y264942D01*
X73599Y264057D01*
X74058Y263263D01*
X74706Y262615D01*
X75499Y262157D01*
X76384Y261920D01*
X77301D01*
X78186Y262157D01*
X78979Y262615D01*
X79628Y263263D01*
X80086Y264057D01*
X80323Y264942D01*
Y265858D01*
X80086Y266743D01*
X79628Y267537D01*
X78979Y268185D01*
X78627Y268389D01*
Y278281D01*
X78491Y278964D01*
X78104Y279543D01*
X78104Y279543D01*
X64678Y292969D01*
Y293273D01*
X64316Y294147D01*
X63647Y294816D01*
X62773Y295178D01*
X61827D01*
X61039Y294852D01*
X60539Y295055D01*
Y295655D01*
X65237Y300353D01*
X65661Y300070D01*
X65350Y299319D01*
X67216D01*
Y301186D01*
X66466Y300875D01*
X66182Y301298D01*
X82369Y317485D01*
X95234D01*
X95398Y317201D01*
X96102Y316497D01*
X96965Y315999D01*
X97927Y315741D01*
X98923D01*
X99885Y315999D01*
X100748Y316497D01*
X101453Y317201D01*
X101951Y318064D01*
X102209Y319026D01*
Y320023D01*
X101951Y320985D01*
X101453Y321848D01*
X100748Y322552D01*
X99885Y323050D01*
X98923Y323308D01*
X97927D01*
X96965Y323050D01*
X96102Y322552D01*
X95398Y321848D01*
X95234Y321564D01*
X81525D01*
X81524Y321564D01*
X80744Y321409D01*
X80083Y320967D01*
X68435Y309319D01*
X67987Y309578D01*
X68127Y310100D01*
X65158D01*
Y307131D01*
X65680Y307271D01*
X65939Y306823D01*
X57058Y297942D01*
X56616Y297280D01*
X56461Y296500D01*
Y293815D01*
X52983D01*
X48112Y298686D01*
X47451Y299128D01*
X46670Y299283D01*
X27559D01*
X26779Y299128D01*
X26117Y298686D01*
X24082Y296651D01*
X23640Y295989D01*
X23484Y295209D01*
Y277609D01*
X22984Y277410D01*
X22278Y277818D01*
X21348Y278067D01*
X20385D01*
X19454Y277818D01*
X18620Y277336D01*
X17939Y276655D01*
X17458Y275821D01*
X17209Y274891D01*
Y273928D01*
X17458Y272998D01*
X17939Y272164D01*
X18620Y271483D01*
X19454Y271001D01*
X20385Y270752D01*
X21348D01*
X22278Y271001D01*
X22984Y271409D01*
X23484Y271209D01*
Y242634D01*
X17209D01*
Y235319D01*
X21815D01*
X22006Y234857D01*
X21558Y234409D01*
X21116Y233747D01*
X20961Y232967D01*
Y211429D01*
X21116Y210648D01*
X21558Y209987D01*
X24333Y207212D01*
X24000Y205971D01*
Y204619D01*
X24350Y203313D01*
X25026Y202143D01*
X25982Y201187D01*
X27152Y200511D01*
X28458Y200161D01*
X29810D01*
X31115Y200511D01*
X32286Y201187D01*
X33242Y202143D01*
X33918Y203313D01*
X34268Y204619D01*
Y205971D01*
X33918Y207277D01*
X33242Y208447D01*
X32286Y209403D01*
X31115Y210079D01*
X29810Y210429D01*
X28458D01*
X27216Y210096D01*
X25039Y212274D01*
Y215353D01*
X25488Y215574D01*
X25520Y215549D01*
X26266Y215240D01*
X27067Y215135D01*
X28634D01*
Y220295D01*
Y225455D01*
X27067D01*
X26266Y225350D01*
X25520Y225041D01*
X25488Y225016D01*
X25039Y225237D01*
Y232122D01*
X26965Y234049D01*
X27408Y234710D01*
X27563Y235490D01*
Y285238D01*
X27625Y285713D01*
X28063Y285713D01*
X34940D01*
Y293027D01*
X27625Y293027D01*
X27563Y293502D01*
Y294364D01*
X28404Y295205D01*
X45826D01*
X50099Y290931D01*
Y286500D01*
X56461D01*
Y270394D01*
X56616Y269613D01*
X56772Y269380D01*
X56751Y269235D01*
X56534Y268836D01*
X55814Y268643D01*
X55020Y268185D01*
X54373Y267537D01*
X53914Y266743D01*
X53677Y265858D01*
Y264942D01*
X53914Y264057D01*
X54373Y263263D01*
X55020Y262615D01*
X55814Y262157D01*
X56699Y261920D01*
X57616D01*
X58501Y262157D01*
X59099Y262502D01*
X59599Y262253D01*
Y235711D01*
X37928Y214040D01*
X37486Y213379D01*
X37331Y212598D01*
Y147701D01*
X34730Y145100D01*
X34268Y145291D01*
Y145971D01*
X33918Y147277D01*
X33242Y148447D01*
X32286Y149403D01*
X31115Y150079D01*
X30365Y150280D01*
Y152429D01*
X30365Y152429D01*
X30209Y153209D01*
X29767Y153871D01*
X29767Y153871D01*
X28939Y154699D01*
X29130Y155161D01*
X29810D01*
X31115Y155511D01*
X32286Y156187D01*
X33242Y157143D01*
X33918Y158313D01*
X34268Y159619D01*
Y160971D01*
X33918Y162277D01*
X33242Y163447D01*
X32286Y164403D01*
X31115Y165079D01*
X30365Y165280D01*
Y167429D01*
X30209Y168209D01*
X29767Y168871D01*
X28939Y169699D01*
X29130Y170161D01*
X29810D01*
X31115Y170511D01*
X32286Y171187D01*
X33242Y172143D01*
X33918Y173313D01*
X34268Y174619D01*
Y175971D01*
X33918Y177277D01*
X33242Y178447D01*
X32286Y179403D01*
X31115Y180079D01*
X29810Y180429D01*
X28458D01*
X27152Y180079D01*
X25982Y179403D01*
X25026Y178447D01*
X24350Y177277D01*
X24000Y175971D01*
Y175291D01*
X23538Y175100D01*
X15819Y182819D01*
Y292462D01*
X18143Y294786D01*
X18585Y295448D01*
X18601Y295529D01*
X19171Y295833D01*
X19579Y295665D01*
Y298031D01*
X20079D01*
Y298532D01*
X22445D01*
X22095Y299378D01*
X21426Y300047D01*
X20976Y300234D01*
X20878Y300724D01*
X29267Y309113D01*
X35455D01*
X36236Y309268D01*
X36897Y309710D01*
X48619Y321432D01*
X49061Y322094D01*
X49216Y322874D01*
Y325860D01*
X49674Y326318D01*
X49975Y326144D01*
X50099Y326036D01*
Y325109D01*
X50349Y324179D01*
X50830Y323345D01*
X51511Y322664D01*
X52345Y322182D01*
X53276Y321933D01*
X54238D01*
X55169Y322182D01*
X56003Y322664D01*
X56684Y323345D01*
X57165Y324179D01*
X57415Y325109D01*
Y326072D01*
X57165Y327002D01*
X56684Y327836D01*
X56003Y328517D01*
X55169Y328999D01*
X54238Y329248D01*
X53312D01*
X53203Y329373D01*
X53030Y329674D01*
X85625Y362269D01*
X95188D01*
X95352Y361769D01*
X94899Y360985D01*
X94642Y360023D01*
Y359026D01*
X94899Y358064D01*
X95398Y357201D01*
X96102Y356497D01*
X96965Y355999D01*
X97927Y355741D01*
X98923D01*
X99885Y355999D01*
X100748Y356497D01*
X101453Y357201D01*
X101951Y358064D01*
X102209Y359026D01*
Y360023D01*
X101951Y360985D01*
X101498Y361769D01*
X101663Y362269D01*
X153209D01*
X153989Y362424D01*
X154650Y362866D01*
X157610Y365826D01*
X157927Y365741D01*
X158923D01*
X159886Y365999D01*
X160748Y366497D01*
X161453Y367201D01*
X161951Y368064D01*
X162209Y369026D01*
Y370023D01*
X161951Y370985D01*
X161453Y371848D01*
X160748Y372552D01*
X159886Y373050D01*
X158923Y373308D01*
X157927D01*
X156965Y373050D01*
X156102Y372552D01*
X155398Y371848D01*
X154900Y370985D01*
X154642Y370023D01*
Y369026D01*
X154727Y368710D01*
X152364Y366347D01*
X101305D01*
X101098Y366847D01*
X101453Y367201D01*
X101951Y368064D01*
X102209Y369026D01*
Y370023D01*
X101951Y370985D01*
X101498Y371769D01*
X101663Y372269D01*
X153209D01*
X153989Y372424D01*
X154650Y372866D01*
X157610Y375826D01*
X157927Y375741D01*
X158923D01*
X159886Y375999D01*
X160748Y376497D01*
X161453Y377201D01*
X161951Y378064D01*
X162209Y379026D01*
Y380023D01*
X161951Y380985D01*
X161453Y381848D01*
X160748Y382552D01*
X159886Y383050D01*
X158923Y383308D01*
X157927D01*
X156965Y383050D01*
X156102Y382552D01*
X155398Y381848D01*
X154900Y380985D01*
X154642Y380023D01*
Y379026D01*
X154727Y378710D01*
X152364Y376347D01*
X101305D01*
X101098Y376847D01*
X101453Y377201D01*
X101951Y378064D01*
X102209Y379026D01*
Y380023D01*
X101951Y380985D01*
X101453Y381848D01*
X100748Y382552D01*
X99885Y383050D01*
X98923Y383308D01*
X97927D01*
X96965Y383050D01*
X96102Y382552D01*
X95398Y381848D01*
X94899Y380985D01*
X94642Y380023D01*
Y379026D01*
X94899Y378064D01*
X95398Y377201D01*
X95752Y376847D01*
X95545Y376347D01*
X70287D01*
X69608Y376212D01*
X69292Y376358D01*
X69089Y376514D01*
X68871Y377328D01*
X68412Y378121D01*
X67764Y378769D01*
X66971Y379227D01*
X66086Y379465D01*
X65169D01*
X64284Y379227D01*
X63490Y378769D01*
X62843Y378121D01*
X62384Y377328D01*
X62147Y376442D01*
Y375526D01*
X62384Y374641D01*
X62730Y374043D01*
X62480Y373543D01*
X60480D01*
X59700Y373388D01*
X59038Y372946D01*
X42810Y356718D01*
X42306Y356921D01*
X42113Y357643D01*
X41654Y358436D01*
X41006Y359084D01*
X40213Y359542D01*
X39328Y359780D01*
X38411D01*
X37526Y359542D01*
X36733Y359084D01*
X36084Y358436D01*
X35626Y357643D01*
X35389Y356757D01*
Y355841D01*
X35626Y354956D01*
X36084Y354162D01*
X36733Y353514D01*
X37526Y353056D01*
X38248Y352863D01*
X38451Y352358D01*
X2495Y316403D01*
X2053Y315741D01*
X1898Y314961D01*
Y269309D01*
X889Y268299D01*
X500Y267718D01*
X145Y267748D01*
X0Y267801D01*
Y373790D01*
X500Y373869D01*
X1139Y371902D01*
X2266Y369691D01*
X3724Y367683D01*
X5479Y365929D01*
X7486Y364470D01*
X9697Y363344D01*
X12057Y362577D01*
X14507Y362189D01*
X16989D01*
X19439Y362577D01*
X21799Y363344D01*
X24010Y364470D01*
X26017Y365929D01*
X27772Y367683D01*
X29230Y369691D01*
X30357Y371902D01*
X31124Y374261D01*
X31512Y376712D01*
Y379193D01*
X31124Y381644D01*
X30357Y384004D01*
X29230Y386215D01*
X27772Y388222D01*
X26017Y389977D01*
X24010Y391435D01*
X21799Y392562D01*
X19832Y393201D01*
X19911Y393701D01*
X259616D01*
X259696Y393201D01*
D02*
G37*
G36*
X95352Y371769D02*
X94899Y370985D01*
X94642Y370023D01*
Y369026D01*
X94899Y368064D01*
X95398Y367201D01*
X95752Y366847D01*
X95545Y366347D01*
X84781D01*
X84780Y366347D01*
X84000Y366192D01*
X83338Y365750D01*
X45735Y328147D01*
X45463Y327739D01*
X44853Y327642D01*
X44765Y327730D01*
X43931Y328211D01*
X43001Y328461D01*
X42038D01*
X41108Y328211D01*
X40274Y327730D01*
X39593Y327049D01*
X39111Y326215D01*
X38862Y325285D01*
Y324322D01*
X39111Y323392D01*
X39593Y322557D01*
X40274Y321877D01*
X41108Y321395D01*
X41896Y321184D01*
X42108Y320689D01*
X34611Y313192D01*
X28422D01*
X27642Y313036D01*
X26981Y312594D01*
X26981Y312594D01*
X15259Y300873D01*
X14817Y300211D01*
X14662Y299431D01*
Y297073D01*
X12338Y294749D01*
X11896Y294087D01*
X11740Y293307D01*
Y266645D01*
X11240Y266511D01*
X10801Y267272D01*
X10028Y268045D01*
X9082Y268591D01*
X8027Y268874D01*
X7980D01*
Y264724D01*
X6980D01*
Y268874D01*
X6934D01*
X6373Y268724D01*
X5976Y269028D01*
Y296647D01*
X6476Y296854D01*
X6921Y296409D01*
X7768Y296058D01*
Y298425D01*
Y300792D01*
X6921Y300441D01*
X6476Y299997D01*
X5976Y300204D01*
Y314116D01*
X48268Y356408D01*
X48768Y356201D01*
Y355841D01*
X49005Y354956D01*
X49464Y354162D01*
X50112Y353514D01*
X50905Y353056D01*
X51790Y352819D01*
X52707D01*
X53592Y353056D01*
X54386Y353514D01*
X55033Y354162D01*
X55492Y354956D01*
X55729Y355841D01*
Y356757D01*
X55492Y357643D01*
X55033Y358436D01*
X54386Y359084D01*
X53592Y359542D01*
X52707Y359780D01*
X52347D01*
X52140Y360279D01*
X61325Y369465D01*
X67483D01*
X68264Y369620D01*
X68925Y370062D01*
X71132Y372269D01*
X95188D01*
X95352Y371769D01*
D02*
G37*
%LPC*%
G36*
X52707Y379465D02*
X51790D01*
X50905Y379227D01*
X50112Y378769D01*
X49464Y378121D01*
X49005Y377328D01*
X48768Y376442D01*
Y375526D01*
X49005Y374641D01*
X49464Y373847D01*
X50112Y373199D01*
X50905Y372741D01*
X51790Y372504D01*
X52707D01*
X53592Y372741D01*
X54386Y373199D01*
X55033Y373847D01*
X55492Y374641D01*
X55729Y375526D01*
Y376442D01*
X55492Y377328D01*
X55033Y378121D01*
X54386Y378769D01*
X53592Y379227D01*
X52707Y379465D01*
D02*
G37*
G36*
X39328D02*
X38411D01*
X37526Y379227D01*
X36733Y378769D01*
X36084Y378121D01*
X35626Y377328D01*
X35389Y376442D01*
Y375526D01*
X35626Y374641D01*
X36084Y373847D01*
X36733Y373199D01*
X37526Y372741D01*
X38411Y372504D01*
X39328D01*
X40213Y372741D01*
X41006Y373199D01*
X41654Y373847D01*
X42113Y374641D01*
X42350Y375526D01*
Y376442D01*
X42113Y377328D01*
X41654Y378121D01*
X41006Y378769D01*
X40213Y379227D01*
X39328Y379465D01*
D02*
G37*
G36*
X158923Y363308D02*
X157927D01*
X156965Y363050D01*
X156102Y362552D01*
X155398Y361848D01*
X154900Y360985D01*
X154642Y360023D01*
Y359026D01*
X154900Y358064D01*
X155398Y357201D01*
X155752Y356847D01*
X155545Y356347D01*
X103209D01*
X102428Y356192D01*
X101767Y355750D01*
X99240Y353223D01*
X98923Y353308D01*
X97927D01*
X96965Y353050D01*
X96102Y352552D01*
X95398Y351848D01*
X94899Y350985D01*
X94642Y350023D01*
Y349026D01*
X94899Y348064D01*
X95398Y347201D01*
X96102Y346497D01*
X96965Y345999D01*
X97927Y345741D01*
X98923D01*
X99885Y345999D01*
X100748Y346497D01*
X101453Y347201D01*
X101951Y348064D01*
X102209Y349026D01*
Y350023D01*
X102124Y350339D01*
X104053Y352269D01*
X155188D01*
X155352Y351769D01*
X154900Y350985D01*
X154642Y350023D01*
Y349026D01*
X154900Y348064D01*
X155398Y347201D01*
X156102Y346497D01*
X156965Y345999D01*
X157927Y345741D01*
X158923D01*
X159886Y345999D01*
X160748Y346497D01*
X161453Y347201D01*
X161951Y348064D01*
X162209Y349026D01*
Y350023D01*
X161951Y350985D01*
X161498Y351769D01*
X161662Y352269D01*
X179547D01*
X195025Y336791D01*
X194818Y336291D01*
X161249D01*
X161042Y336791D01*
X161453Y337201D01*
X161951Y338064D01*
X162209Y339026D01*
Y340023D01*
X161951Y340985D01*
X161453Y341848D01*
X160748Y342552D01*
X159886Y343050D01*
X158923Y343308D01*
X157927D01*
X156965Y343050D01*
X156102Y342552D01*
X155398Y341848D01*
X154900Y340985D01*
X154642Y340023D01*
Y339026D01*
X154900Y338064D01*
X155398Y337201D01*
X155808Y336791D01*
X155601Y336291D01*
X103153D01*
X103153Y336291D01*
X102372Y336136D01*
X101711Y335694D01*
X101711Y335694D01*
X99240Y333223D01*
X98923Y333308D01*
X97927D01*
X96965Y333050D01*
X96102Y332552D01*
X95398Y331848D01*
X94899Y330985D01*
X94642Y330023D01*
Y329026D01*
X94899Y328064D01*
X95398Y327201D01*
X96102Y326497D01*
X96965Y325999D01*
X97927Y325741D01*
X98923D01*
X99885Y325999D01*
X100748Y326497D01*
X101453Y327201D01*
X101951Y328064D01*
X102209Y329026D01*
Y330023D01*
X102124Y330339D01*
X103997Y332213D01*
X155115D01*
X155320Y331713D01*
X154900Y330985D01*
X154642Y330023D01*
Y329026D01*
X154900Y328064D01*
X155398Y327201D01*
X156102Y326497D01*
X156965Y325999D01*
X157927Y325741D01*
X158923D01*
X159886Y325999D01*
X160748Y326497D01*
X161453Y327201D01*
X161617Y327485D01*
X193631D01*
X226256Y294860D01*
X225998Y294411D01*
X225700Y294491D01*
Y291522D01*
X228669D01*
X228589Y291820D01*
X229038Y292078D01*
X230761Y290355D01*
Y250891D01*
X230422Y250073D01*
Y249127D01*
X230784Y248253D01*
X231453Y247584D01*
X232327Y247222D01*
X233273D01*
X234147Y247584D01*
X234199Y247636D01*
X234661Y247445D01*
Y218989D01*
X234816Y218209D01*
X235258Y217547D01*
X245593Y207213D01*
X245260Y205972D01*
Y204620D01*
X245610Y203314D01*
X246286Y202143D01*
X247241Y201187D01*
X248412Y200512D01*
X249718Y200162D01*
X251070D01*
X252375Y200512D01*
X253546Y201187D01*
X254502Y202143D01*
X255178Y203314D01*
X255528Y204620D01*
Y205972D01*
X255178Y207277D01*
X254502Y208448D01*
X253546Y209404D01*
X252375Y210080D01*
X251070Y210430D01*
X249718D01*
X248476Y210097D01*
X238739Y219834D01*
Y266000D01*
X238584Y266780D01*
X238142Y267442D01*
X237839Y267745D01*
Y270770D01*
X238339Y270977D01*
X248355Y260962D01*
Y225046D01*
X247241Y224404D01*
X246286Y223448D01*
X245610Y222277D01*
X245260Y220971D01*
Y219620D01*
X245610Y218314D01*
X246286Y217143D01*
X247241Y216188D01*
X248412Y215512D01*
X249718Y215162D01*
X251070D01*
X252375Y215512D01*
X253546Y216188D01*
X254502Y217143D01*
X255178Y218314D01*
X255528Y219620D01*
Y220971D01*
X255178Y222277D01*
X254502Y223448D01*
X253546Y224404D01*
X252433Y225046D01*
Y261806D01*
X252278Y262587D01*
X251836Y263248D01*
X241439Y273645D01*
Y289030D01*
X241939Y289164D01*
X242100Y288885D01*
X242748Y288237D01*
X243542Y287779D01*
X244427Y287542D01*
X245343D01*
X246228Y287779D01*
X247022Y288237D01*
X247670Y288885D01*
X248128Y289679D01*
X248365Y290564D01*
Y291480D01*
X248128Y292366D01*
X247670Y293159D01*
X247022Y293807D01*
X246228Y294265D01*
X245343Y294502D01*
X244427D01*
X243542Y294265D01*
X242748Y293807D01*
X242100Y293159D01*
X241939Y292880D01*
X241439Y293014D01*
Y295300D01*
X241284Y296080D01*
X240842Y296742D01*
X181834Y355750D01*
X181172Y356192D01*
X180392Y356347D01*
X161305D01*
X161098Y356847D01*
X161453Y357201D01*
X161951Y358064D01*
X162209Y359026D01*
Y360023D01*
X161951Y360985D01*
X161453Y361848D01*
X160748Y362552D01*
X159886Y363050D01*
X158923Y363308D01*
D02*
G37*
G36*
X98923Y343308D02*
X97927D01*
X96965Y343050D01*
X96102Y342552D01*
X95398Y341848D01*
X94899Y340985D01*
X94642Y340023D01*
Y339026D01*
X94899Y338064D01*
X95398Y337201D01*
X96102Y336497D01*
X96965Y335999D01*
X97927Y335741D01*
X98923D01*
X99885Y335999D01*
X100748Y336497D01*
X101453Y337201D01*
X101951Y338064D01*
X102209Y339026D01*
Y340023D01*
X101951Y340985D01*
X101453Y341848D01*
X100748Y342552D01*
X99885Y343050D01*
X98923Y343308D01*
D02*
G37*
G36*
X158923Y323308D02*
X157927D01*
X156965Y323050D01*
X156102Y322552D01*
X155398Y321848D01*
X154900Y320985D01*
X154642Y320023D01*
Y319026D01*
X154900Y318064D01*
X155398Y317201D01*
X156102Y316497D01*
X156170Y316458D01*
X156036Y315957D01*
X142209D01*
X141526Y315822D01*
X140947Y315435D01*
X136821Y311309D01*
X101764D01*
X101453Y311848D01*
X100748Y312552D01*
X99885Y313050D01*
X98923Y313308D01*
X97927D01*
X96965Y313050D01*
X96102Y312552D01*
X95398Y311848D01*
X94899Y310985D01*
X94642Y310023D01*
Y309026D01*
X94899Y308064D01*
X95398Y307201D01*
X96102Y306497D01*
X96965Y305999D01*
X97927Y305741D01*
X98923D01*
X99885Y305999D01*
X100748Y306497D01*
X101453Y307201D01*
X101764Y307740D01*
X137560D01*
X138243Y307876D01*
X138822Y308263D01*
X142948Y312389D01*
X155286D01*
X155477Y311927D01*
X155398Y311848D01*
X154900Y310985D01*
X154642Y310023D01*
Y309026D01*
X154900Y308064D01*
X155398Y307201D01*
X155984Y306615D01*
X155817Y306115D01*
X142367D01*
X141684Y305979D01*
X141105Y305592D01*
X136821Y301309D01*
X101764D01*
X101453Y301848D01*
X100748Y302552D01*
X99885Y303050D01*
X98923Y303308D01*
X97927D01*
X96965Y303050D01*
X96102Y302552D01*
X95398Y301848D01*
X94899Y300985D01*
X94642Y300023D01*
Y299026D01*
X94899Y298064D01*
X95398Y297201D01*
X96102Y296497D01*
X96965Y295999D01*
X97927Y295741D01*
X98923D01*
X99885Y295999D01*
X100748Y296497D01*
X101453Y297201D01*
X101764Y297740D01*
X137560D01*
X138243Y297876D01*
X138822Y298263D01*
X143106Y302546D01*
X155443D01*
X155634Y302084D01*
X155398Y301848D01*
X154900Y300985D01*
X154642Y300023D01*
Y299026D01*
X154900Y298064D01*
X155398Y297201D01*
X156102Y296497D01*
X156965Y295999D01*
X157927Y295741D01*
X158923D01*
X159886Y295999D01*
X160748Y296497D01*
X161453Y297201D01*
X161951Y298064D01*
X162209Y299026D01*
Y300023D01*
X161951Y300985D01*
X161453Y301848D01*
X161216Y302084D01*
X161407Y302546D01*
X209051D01*
X209283Y302315D01*
X210157Y301953D01*
X211103D01*
X211977Y302315D01*
X212646Y302984D01*
X213008Y303858D01*
Y304804D01*
X212646Y305678D01*
X211977Y306347D01*
X211103Y306709D01*
X210157D01*
X209283Y306347D01*
X209051Y306115D01*
X161033D01*
X160866Y306615D01*
X161453Y307201D01*
X161951Y308064D01*
X162209Y309026D01*
Y310023D01*
X161951Y310985D01*
X161453Y311848D01*
X161373Y311927D01*
X161565Y312389D01*
X199996D01*
X200228Y312157D01*
X201102Y311795D01*
X202048D01*
X202922Y312157D01*
X203591Y312826D01*
X203953Y313700D01*
Y314646D01*
X203591Y315520D01*
X202922Y316189D01*
X202048Y316551D01*
X201102D01*
X200228Y316189D01*
X199996Y315957D01*
X160814D01*
X160680Y316458D01*
X160748Y316497D01*
X161453Y317201D01*
X161951Y318064D01*
X162209Y319026D01*
Y320023D01*
X161951Y320985D01*
X161453Y321848D01*
X160748Y322552D01*
X159886Y323050D01*
X158923Y323308D01*
D02*
G37*
G36*
X65158Y314069D02*
Y311100D01*
X68127D01*
X67901Y311943D01*
X67442Y312737D01*
X66794Y313385D01*
X66001Y313843D01*
X65158Y314069D01*
D02*
G37*
G36*
X64157D02*
X63314Y313843D01*
X62520Y313385D01*
X61873Y312737D01*
X61414Y311943D01*
X61188Y311100D01*
X64157D01*
Y314069D01*
D02*
G37*
G36*
Y310100D02*
X61188D01*
X61414Y309257D01*
X61873Y308463D01*
X62520Y307815D01*
X63314Y307357D01*
X64157Y307131D01*
Y310100D01*
D02*
G37*
G36*
X84801Y314080D02*
X83884D01*
X82999Y313843D01*
X82206Y313385D01*
X81558Y312737D01*
X81099Y311943D01*
X80862Y311058D01*
Y310142D01*
X81099Y309257D01*
X81558Y308463D01*
X82206Y307815D01*
X82999Y307357D01*
X83884Y307120D01*
X84801D01*
X85686Y307357D01*
X86480Y307815D01*
X87128Y308463D01*
X87586Y309257D01*
X87823Y310142D01*
Y311058D01*
X87586Y311943D01*
X87128Y312737D01*
X86480Y313385D01*
X85686Y313843D01*
X84801Y314080D01*
D02*
G37*
G36*
X68217Y301186D02*
Y299319D01*
X70083D01*
X69732Y300166D01*
X69064Y300835D01*
X68217Y301186D01*
D02*
G37*
G36*
X70083Y298319D02*
X68217D01*
Y296452D01*
X69064Y296803D01*
X69732Y297472D01*
X70083Y298319D01*
D02*
G37*
G36*
X67216D02*
X65350D01*
X65701Y297472D01*
X66369Y296803D01*
X67216Y296452D01*
Y298319D01*
D02*
G37*
G36*
X22445Y297532D02*
X20579D01*
Y295665D01*
X21426Y296016D01*
X22095Y296685D01*
X22445Y297532D01*
D02*
G37*
G36*
X181978Y294475D02*
X181015D01*
X180084Y294226D01*
X179250Y293744D01*
X178569Y293063D01*
X178088Y292229D01*
X177910Y291564D01*
X161617D01*
X161453Y291848D01*
X160748Y292552D01*
X159886Y293050D01*
X158923Y293308D01*
X157927D01*
X156965Y293050D01*
X156102Y292552D01*
X155398Y291848D01*
X154900Y290985D01*
X154642Y290023D01*
Y289026D01*
X154900Y288064D01*
X155398Y287201D01*
X156102Y286497D01*
X156965Y285999D01*
X157927Y285741D01*
X158923D01*
X159886Y285999D01*
X160748Y286497D01*
X161453Y287201D01*
X161617Y287485D01*
X179952D01*
X180084Y287409D01*
X181015Y287160D01*
X181978D01*
X182908Y287409D01*
X183040Y287485D01*
X184828D01*
X191268Y281045D01*
Y275480D01*
X190768Y275328D01*
X190418Y275851D01*
X185303Y280966D01*
X184642Y281409D01*
X183861Y281564D01*
X161617D01*
X161453Y281848D01*
X160748Y282552D01*
X159886Y283050D01*
X158923Y283308D01*
X157927D01*
X156965Y283050D01*
X156102Y282552D01*
X155398Y281848D01*
X154900Y280985D01*
X154642Y280023D01*
Y279026D01*
X154900Y278064D01*
X155398Y277201D01*
X156102Y276497D01*
X156965Y275999D01*
X157927Y275741D01*
X158923D01*
X159886Y275999D01*
X160748Y276497D01*
X161453Y277201D01*
X161617Y277485D01*
X183017D01*
X186937Y273565D01*
Y243307D01*
X187092Y242527D01*
X187534Y241865D01*
X191865Y237534D01*
X191865Y237534D01*
X192527Y237092D01*
X193307Y236937D01*
X218001D01*
X218818Y236598D01*
X219764D01*
X220638Y236960D01*
X221307Y237629D01*
X221669Y238503D01*
Y239449D01*
X221307Y240323D01*
X220638Y240992D01*
X219764Y241354D01*
X218818D01*
X218001Y241016D01*
X194152D01*
X191016Y244152D01*
Y246662D01*
X191516Y246869D01*
X191771Y246614D01*
X192645Y246252D01*
X193591D01*
X194465Y246614D01*
X195134Y247283D01*
X195496Y248157D01*
Y249103D01*
X195157Y249921D01*
Y264626D01*
X195191Y264676D01*
X195346Y265457D01*
X195346Y265457D01*
Y281890D01*
X195191Y282670D01*
X194749Y283332D01*
X187114Y290967D01*
X186453Y291408D01*
X185672Y291564D01*
X185083D01*
X184904Y292229D01*
X184423Y293063D01*
X183742Y293744D01*
X182908Y294226D01*
X181978Y294475D01*
D02*
G37*
G36*
X224700Y294491D02*
X223857Y294265D01*
X223063Y293807D01*
X222415Y293159D01*
X221957Y292366D01*
X221731Y291522D01*
X224700D01*
Y294491D01*
D02*
G37*
G36*
X228669Y290522D02*
X225700D01*
Y287553D01*
X226543Y287779D01*
X227337Y288237D01*
X227985Y288885D01*
X228443Y289679D01*
X228669Y290522D01*
D02*
G37*
G36*
X224700D02*
X221731D01*
X221957Y289679D01*
X222415Y288885D01*
X223063Y288237D01*
X223857Y287779D01*
X224700Y287553D01*
Y290522D01*
D02*
G37*
G36*
X220587Y294475D02*
X213272D01*
Y287160D01*
X220587D01*
Y294475D01*
D02*
G37*
G36*
X197350Y288981D02*
Y287114D01*
X199217D01*
X198866Y287961D01*
X198197Y288630D01*
X197350Y288981D01*
D02*
G37*
G36*
X196350D02*
X195503Y288630D01*
X194834Y287961D01*
X194484Y287114D01*
X196350D01*
Y288981D01*
D02*
G37*
G36*
X98923Y293308D02*
X97927D01*
X96965Y293050D01*
X96102Y292552D01*
X95398Y291848D01*
X94899Y290985D01*
X94642Y290023D01*
Y289026D01*
X94899Y288064D01*
X95398Y287201D01*
X96102Y286497D01*
X96965Y285999D01*
X97927Y285741D01*
X98923D01*
X99885Y285999D01*
X100748Y286497D01*
X101453Y287201D01*
X101951Y288064D01*
X102209Y289026D01*
Y290023D01*
X101951Y290985D01*
X101453Y291848D01*
X100748Y292552D01*
X99885Y293050D01*
X98923Y293308D01*
D02*
G37*
G36*
X46177Y293027D02*
X38862D01*
Y285713D01*
X46177D01*
Y293027D01*
D02*
G37*
G36*
X199217Y286114D02*
X197350D01*
Y284247D01*
X198197Y284598D01*
X198866Y285267D01*
X199217Y286114D01*
D02*
G37*
G36*
X196350D02*
X194484D01*
X194834Y285267D01*
X195503Y284598D01*
X196350Y284247D01*
Y286114D01*
D02*
G37*
G36*
X98923Y283308D02*
X97927D01*
X96965Y283050D01*
X96102Y282552D01*
X95398Y281848D01*
X94899Y280985D01*
X94642Y280023D01*
Y279026D01*
X94899Y278064D01*
X95398Y277201D01*
X96102Y276497D01*
X96965Y275999D01*
X97927Y275741D01*
X98923D01*
X99885Y275999D01*
X100748Y276497D01*
X101453Y277201D01*
X101951Y278064D01*
X102209Y279026D01*
Y280023D01*
X101951Y280985D01*
X101453Y281848D01*
X100748Y282552D01*
X99885Y283050D01*
X98923Y283308D01*
D02*
G37*
G36*
X45948Y278854D02*
X44985D01*
X44055Y278605D01*
X43221Y278124D01*
X42540Y277443D01*
X42058Y276609D01*
X41809Y275678D01*
Y274715D01*
X42058Y273785D01*
X42540Y272951D01*
X43221Y272270D01*
X44055Y271789D01*
X44985Y271539D01*
X45948D01*
X46878Y271789D01*
X47712Y272270D01*
X48393Y272951D01*
X48875Y273785D01*
X49124Y274715D01*
Y275678D01*
X48875Y276609D01*
X48393Y277443D01*
X47712Y278124D01*
X46878Y278605D01*
X45948Y278854D01*
D02*
G37*
G36*
X98925Y273307D02*
Y270024D01*
X102208D01*
X101951Y270985D01*
X101453Y271848D01*
X100748Y272552D01*
X99885Y273050D01*
X98925Y273307D01*
D02*
G37*
G36*
X97925D02*
X96965Y273050D01*
X96102Y272552D01*
X95398Y271848D01*
X94899Y270985D01*
X94642Y270024D01*
X97925D01*
Y273307D01*
D02*
G37*
G36*
X102208Y269024D02*
X98925D01*
Y265742D01*
X99885Y265999D01*
X100748Y266497D01*
X101453Y267201D01*
X101951Y268064D01*
X102208Y269024D01*
D02*
G37*
G36*
X97925D02*
X94642D01*
X94899Y268064D01*
X95398Y267201D01*
X96102Y266497D01*
X96965Y265999D01*
X97925Y265742D01*
Y269024D01*
D02*
G37*
G36*
X158923Y273308D02*
X157927D01*
X156965Y273050D01*
X156102Y272552D01*
X155398Y271848D01*
X154900Y270985D01*
X154642Y270023D01*
Y269026D01*
X154900Y268064D01*
X155398Y267201D01*
X156102Y266497D01*
X156965Y265999D01*
X157927Y265741D01*
X158923D01*
X159886Y265999D01*
X160748Y266497D01*
X161453Y267201D01*
X161951Y268064D01*
X162209Y269026D01*
Y270023D01*
X161951Y270985D01*
X161453Y271848D01*
X160748Y272552D01*
X159886Y273050D01*
X158923Y273308D01*
D02*
G37*
G36*
X33713Y268480D02*
X33666D01*
Y264831D01*
X37316D01*
Y264877D01*
X37033Y265932D01*
X36487Y266879D01*
X35714Y267651D01*
X34768Y268197D01*
X33713Y268480D01*
D02*
G37*
G36*
X32666D02*
X32620D01*
X31565Y268197D01*
X30618Y267651D01*
X29846Y266879D01*
X29300Y265932D01*
X29017Y264877D01*
Y264831D01*
X32666D01*
Y268480D01*
D02*
G37*
G36*
X37316Y263831D02*
X33666D01*
Y260181D01*
X33713D01*
X34768Y260464D01*
X35714Y261010D01*
X36487Y261783D01*
X37033Y262729D01*
X37316Y263784D01*
Y263831D01*
D02*
G37*
G36*
X32666D02*
X29017D01*
Y263784D01*
X29300Y262729D01*
X29846Y261783D01*
X30618Y261010D01*
X31565Y260464D01*
X32620Y260181D01*
X32666D01*
Y263831D01*
D02*
G37*
G36*
X181649Y266512D02*
X180556D01*
X179501Y266229D01*
X178554Y265683D01*
X177782Y264910D01*
X177236Y263964D01*
X176953Y262909D01*
Y261816D01*
X177236Y260760D01*
X177782Y259814D01*
X178554Y259042D01*
X179501Y258495D01*
X180556Y258213D01*
X181649D01*
X182704Y258495D01*
X183650Y259042D01*
X184423Y259814D01*
X184969Y260760D01*
X185252Y261816D01*
Y262909D01*
X184969Y263964D01*
X184423Y264910D01*
X183650Y265683D01*
X182704Y266229D01*
X181649Y266512D01*
D02*
G37*
G36*
X158923Y263308D02*
X157927D01*
X156965Y263050D01*
X156102Y262552D01*
X155398Y261848D01*
X154900Y260985D01*
X154642Y260023D01*
Y259026D01*
X154900Y258064D01*
X155398Y257201D01*
X156102Y256497D01*
X156965Y255999D01*
X157927Y255741D01*
X158923D01*
X159886Y255999D01*
X160748Y256497D01*
X161453Y257201D01*
X161951Y258064D01*
X162209Y259026D01*
Y260023D01*
X161951Y260985D01*
X161453Y261848D01*
X160748Y262552D01*
X159886Y263050D01*
X158923Y263308D01*
D02*
G37*
G36*
X98923D02*
X97927D01*
X96965Y263050D01*
X96102Y262552D01*
X95398Y261848D01*
X94899Y260985D01*
X94642Y260023D01*
Y259026D01*
X94899Y258064D01*
X95398Y257201D01*
X96102Y256497D01*
X96965Y255999D01*
X97927Y255741D01*
X98923D01*
X99885Y255999D01*
X100748Y256497D01*
X101453Y257201D01*
X101951Y258064D01*
X102209Y259026D01*
Y260023D01*
X101951Y260985D01*
X101453Y261848D01*
X100748Y262552D01*
X99885Y263050D01*
X98923Y263308D01*
D02*
G37*
G36*
X33713Y258480D02*
X32620D01*
X31565Y258197D01*
X30618Y257651D01*
X29846Y256879D01*
X29300Y255932D01*
X29017Y254877D01*
Y253784D01*
X29300Y252729D01*
X29846Y251783D01*
X30618Y251010D01*
X31565Y250464D01*
X32620Y250181D01*
X33713D01*
X34280Y250333D01*
X35831Y248782D01*
X35548Y248358D01*
X35413Y248414D01*
X34741Y248502D01*
X31592D01*
X30919Y248414D01*
X30293Y248155D01*
X29755Y247742D01*
X29342Y247204D01*
X29083Y246578D01*
X28995Y245905D01*
Y242756D01*
X29083Y242084D01*
X29342Y241457D01*
X29755Y240919D01*
X30293Y240507D01*
X30919Y240247D01*
X31592Y240159D01*
X34741D01*
X35413Y240247D01*
X36040Y240507D01*
X36577Y240919D01*
X36990Y241457D01*
X37250Y242084D01*
X37338Y242756D01*
Y244301D01*
X37838Y244508D01*
X41809Y240537D01*
Y236106D01*
X49124D01*
Y243421D01*
X44693D01*
X40938Y247176D01*
Y248598D01*
X40783Y249378D01*
X40341Y250040D01*
X37164Y253217D01*
X37316Y253784D01*
Y254877D01*
X37033Y255932D01*
X36487Y256879D01*
X35714Y257651D01*
X34768Y258197D01*
X33713Y258480D01*
D02*
G37*
G36*
X158923Y253308D02*
X157927D01*
X156965Y253050D01*
X156102Y252552D01*
X155398Y251848D01*
X154900Y250985D01*
X154642Y250023D01*
Y249026D01*
X154900Y248064D01*
X155398Y247201D01*
X156102Y246497D01*
X156965Y245999D01*
X157927Y245741D01*
X158923D01*
X159886Y245999D01*
X160748Y246497D01*
X161453Y247201D01*
X161951Y248064D01*
X162209Y249026D01*
Y250023D01*
X161951Y250985D01*
X161453Y251848D01*
X160748Y252552D01*
X159886Y253050D01*
X158923Y253308D01*
D02*
G37*
G36*
X98923D02*
X97927D01*
X96965Y253050D01*
X96102Y252552D01*
X95398Y251848D01*
X94899Y250985D01*
X94642Y250023D01*
Y249026D01*
X94899Y248064D01*
X95398Y247201D01*
X96102Y246497D01*
X96965Y245999D01*
X97927Y245741D01*
X98923D01*
X99885Y245999D01*
X100748Y246497D01*
X101453Y247201D01*
X101951Y248064D01*
X102209Y249026D01*
Y250023D01*
X101951Y250985D01*
X101453Y251848D01*
X100748Y252552D01*
X99885Y253050D01*
X98923Y253308D01*
D02*
G37*
G36*
X98925Y243307D02*
Y240024D01*
X102208D01*
X101951Y240985D01*
X101453Y241848D01*
X100748Y242552D01*
X99885Y243050D01*
X98925Y243307D01*
D02*
G37*
G36*
X97925D02*
X96965Y243050D01*
X96102Y242552D01*
X95398Y241848D01*
X94899Y240985D01*
X94642Y240024D01*
X97925D01*
Y243307D01*
D02*
G37*
G36*
X102208Y239024D02*
X98925D01*
Y235742D01*
X99885Y235999D01*
X100748Y236497D01*
X101453Y237201D01*
X101951Y238064D01*
X102208Y239024D01*
D02*
G37*
G36*
X97925D02*
X94642D01*
X94899Y238064D01*
X95398Y237201D01*
X96102Y236497D01*
X96965Y235999D01*
X97925Y235742D01*
Y239024D01*
D02*
G37*
G36*
X224909Y236225D02*
Y234358D01*
X226776D01*
X226425Y235205D01*
X225756Y235874D01*
X224909Y236225D01*
D02*
G37*
G36*
X223909D02*
X223062Y235874D01*
X222393Y235205D01*
X222043Y234358D01*
X223909D01*
Y236225D01*
D02*
G37*
G36*
X215067D02*
Y234358D01*
X216934D01*
X216583Y235205D01*
X215914Y235874D01*
X215067Y236225D01*
D02*
G37*
G36*
X214067D02*
X213220Y235874D01*
X212551Y235205D01*
X212200Y234358D01*
X214067D01*
Y236225D01*
D02*
G37*
G36*
X230028Y233863D02*
Y231996D01*
X231894D01*
X231543Y232843D01*
X230875Y233512D01*
X230028Y233863D01*
D02*
G37*
G36*
X229028D02*
X228181Y233512D01*
X227512Y232843D01*
X227161Y231996D01*
X229028D01*
Y233863D01*
D02*
G37*
G36*
X226776Y233358D02*
X224909D01*
Y231491D01*
X225756Y231842D01*
X226425Y232511D01*
X226776Y233358D01*
D02*
G37*
G36*
X223909D02*
X222043D01*
X222393Y232511D01*
X223062Y231842D01*
X223909Y231491D01*
Y233358D01*
D02*
G37*
G36*
X216934D02*
X215067D01*
Y231491D01*
X215914Y231842D01*
X216583Y232511D01*
X216934Y233358D01*
D02*
G37*
G36*
X214067D02*
X212200D01*
X212551Y232511D01*
X213220Y231842D01*
X214067Y231491D01*
Y233358D01*
D02*
G37*
G36*
X231894Y230996D02*
X230028D01*
Y229129D01*
X230875Y229480D01*
X231543Y230149D01*
X231894Y230996D01*
D02*
G37*
G36*
X229028D02*
X227161D01*
X227512Y230149D01*
X228181Y229480D01*
X229028Y229129D01*
Y230996D01*
D02*
G37*
G36*
X33544Y234268D02*
X32598D01*
X31724Y233906D01*
X31055Y233237D01*
X30693Y232363D01*
Y231417D01*
X31055Y230543D01*
X31724Y229874D01*
X32598Y229512D01*
X32770D01*
X34196Y228086D01*
X34196Y228086D01*
X34857Y227644D01*
X35638Y227488D01*
X35638Y227488D01*
X43591D01*
X44409Y227150D01*
X45355D01*
X46229Y227512D01*
X46898Y228181D01*
X47260Y229055D01*
Y230001D01*
X46898Y230875D01*
X46229Y231543D01*
X45355Y231906D01*
X44409D01*
X43591Y231567D01*
X36482D01*
X35281Y232768D01*
X35087Y233237D01*
X34418Y233906D01*
X33544Y234268D01*
D02*
G37*
G36*
X190458Y233923D02*
X189542D01*
X188657Y233686D01*
X187863Y233227D01*
X187215Y232579D01*
X186757Y231786D01*
X186520Y230901D01*
Y229984D01*
X186757Y229099D01*
X187215Y228306D01*
X187863Y227658D01*
X188657Y227199D01*
X189542Y226962D01*
X190458D01*
X191343Y227199D01*
X192137Y227658D01*
X192785Y228306D01*
X193243Y229099D01*
X193480Y229984D01*
Y230901D01*
X193243Y231786D01*
X192785Y232579D01*
X192137Y233227D01*
X191343Y233686D01*
X190458Y233923D01*
D02*
G37*
G36*
X31201Y225455D02*
X29634D01*
Y220795D01*
X34294D01*
Y222362D01*
X34189Y223163D01*
X33880Y223909D01*
X33388Y224549D01*
X32747Y225041D01*
X32001Y225350D01*
X31201Y225455D01*
D02*
G37*
G36*
X34294Y219795D02*
X29634D01*
Y215135D01*
X31201D01*
X32001Y215240D01*
X32747Y215549D01*
X33388Y216041D01*
X33880Y216681D01*
X34189Y217427D01*
X34294Y218228D01*
Y219795D01*
D02*
G37*
G36*
X133159Y221276D02*
X132196D01*
X131265Y221026D01*
X130431Y220545D01*
X129751Y219864D01*
X129269Y219030D01*
X129020Y218100D01*
Y217137D01*
X129269Y216206D01*
X129751Y215372D01*
X130431Y214691D01*
X131265Y214210D01*
X132196Y213961D01*
X133159D01*
X134089Y214210D01*
X134923Y214691D01*
X135604Y215372D01*
X136085Y216206D01*
X136335Y217137D01*
Y218100D01*
X136085Y219030D01*
X135604Y219864D01*
X134923Y220545D01*
X134089Y221026D01*
X133159Y221276D01*
D02*
G37*
G36*
X100902D02*
X93587D01*
Y213961D01*
X100902D01*
Y221276D01*
D02*
G37*
G36*
X190500Y214227D02*
Y211258D01*
X193469D01*
X193243Y212101D01*
X192785Y212894D01*
X192137Y213542D01*
X191343Y214001D01*
X190500Y214227D01*
D02*
G37*
G36*
X189500D02*
X188657Y214001D01*
X187863Y213542D01*
X187215Y212894D01*
X186757Y212101D01*
X186531Y211258D01*
X189500D01*
Y214227D01*
D02*
G37*
G36*
X234160Y216256D02*
X233197D01*
X232266Y216007D01*
X231432Y215525D01*
X230751Y214844D01*
X230270Y214010D01*
X230021Y213080D01*
Y212117D01*
X230270Y211187D01*
X230751Y210353D01*
X231432Y209672D01*
X232266Y209190D01*
X233197Y208941D01*
X234160D01*
X235090Y209190D01*
X235924Y209672D01*
X236605Y210353D01*
X237086Y211187D01*
X237336Y212117D01*
Y213080D01*
X237086Y214010D01*
X236605Y214844D01*
X235924Y215525D01*
X235090Y216007D01*
X234160Y216256D01*
D02*
G37*
G36*
X222922D02*
X221959D01*
X221029Y216007D01*
X220195Y215525D01*
X219514Y214844D01*
X219033Y214010D01*
X218783Y213080D01*
Y212117D01*
X219033Y211187D01*
X219514Y210353D01*
X220195Y209672D01*
X221029Y209190D01*
X221959Y208941D01*
X222922D01*
X223853Y209190D01*
X224687Y209672D01*
X225368Y210353D01*
X225849Y211187D01*
X226098Y212117D01*
Y213080D01*
X225849Y214010D01*
X225368Y214844D01*
X224687Y215525D01*
X223853Y216007D01*
X222922Y216256D01*
D02*
G37*
G36*
X211111D02*
X210149D01*
X209218Y216007D01*
X208384Y215525D01*
X207703Y214844D01*
X207222Y214010D01*
X206973Y213080D01*
Y212117D01*
X207222Y211187D01*
X207703Y210353D01*
X208384Y209672D01*
X209218Y209190D01*
X210149Y208941D01*
X211111D01*
X212042Y209190D01*
X212876Y209672D01*
X213557Y210353D01*
X214038Y211187D01*
X214287Y212117D01*
Y213080D01*
X214038Y214010D01*
X213557Y214844D01*
X212876Y215525D01*
X212042Y216007D01*
X211111Y216256D01*
D02*
G37*
G36*
X199301D02*
X198337D01*
X197407Y216007D01*
X196573Y215525D01*
X195892Y214844D01*
X195411Y214010D01*
X195161Y213080D01*
Y212117D01*
X195411Y211187D01*
X195892Y210353D01*
X196573Y209672D01*
X197407Y209190D01*
X198337Y208941D01*
X199301D01*
X200231Y209190D01*
X201065Y209672D01*
X201746Y210353D01*
X202227Y211187D01*
X202477Y212117D01*
Y213080D01*
X202227Y214010D01*
X201746Y214844D01*
X201065Y215525D01*
X200231Y216007D01*
X199301Y216256D01*
D02*
G37*
G36*
X193469Y210258D02*
X190500D01*
Y207288D01*
X191343Y207514D01*
X192137Y207973D01*
X192785Y208621D01*
X193243Y209414D01*
X193469Y210258D01*
D02*
G37*
G36*
X189500D02*
X186531D01*
X186757Y209414D01*
X187215Y208621D01*
X187863Y207973D01*
X188657Y207514D01*
X189500Y207288D01*
Y210258D01*
D02*
G37*
G36*
X207953Y199228D02*
X207007D01*
X206133Y198866D01*
X205495Y198228D01*
X192989D01*
X192208Y198073D01*
X191547Y197631D01*
X190655Y196739D01*
X183891D01*
X183073Y197078D01*
X182127D01*
X181253Y196716D01*
X180584Y196047D01*
X180222Y195173D01*
Y194227D01*
X180584Y193353D01*
X181253Y192684D01*
X182127Y192322D01*
X183073D01*
X183891Y192661D01*
X191500D01*
X192280Y192816D01*
X192942Y193258D01*
X193833Y194149D01*
X206614D01*
X207394Y194305D01*
X207646Y194472D01*
X207953D01*
X208827Y194834D01*
X209496Y195503D01*
X209858Y196377D01*
Y197323D01*
X209496Y198197D01*
X208827Y198866D01*
X207953Y199228D01*
D02*
G37*
G36*
X29810Y195429D02*
X28458D01*
X27152Y195079D01*
X25982Y194403D01*
X25026Y193447D01*
X24350Y192277D01*
X24000Y190971D01*
Y189619D01*
X24350Y188313D01*
X25026Y187143D01*
X25982Y186187D01*
X27152Y185511D01*
X28458Y185161D01*
X29810D01*
X31115Y185511D01*
X32286Y186187D01*
X33242Y187143D01*
X33918Y188313D01*
X34268Y189619D01*
Y190971D01*
X33918Y192277D01*
X33242Y193447D01*
X32286Y194403D01*
X31115Y195079D01*
X29810Y195429D01*
D02*
G37*
G36*
X65025Y183579D02*
X57709D01*
Y176264D01*
X65025D01*
Y183579D01*
D02*
G37*
G36*
X108242Y177300D02*
X105273D01*
X105499Y176457D01*
X105958Y175663D01*
X106606Y175015D01*
X107399Y174557D01*
X108242Y174331D01*
Y177300D01*
D02*
G37*
G36*
X237336Y180823D02*
X230021D01*
Y173508D01*
X237336D01*
Y180823D01*
D02*
G37*
G36*
X226098D02*
X218783D01*
Y173508D01*
X226098D01*
Y180823D01*
D02*
G37*
G36*
X214287D02*
X206973D01*
Y173508D01*
X214287D01*
Y180823D01*
D02*
G37*
G36*
X98532Y172052D02*
Y170185D01*
X100398D01*
X100047Y171032D01*
X99379Y171701D01*
X98532Y172052D01*
D02*
G37*
G36*
X97531D02*
X96684Y171701D01*
X96016Y171032D01*
X95665Y170185D01*
X97531D01*
Y172052D01*
D02*
G37*
G36*
X251070Y180429D02*
X249718D01*
X248412Y180080D01*
X247241Y179404D01*
X246286Y178448D01*
X245610Y177277D01*
X245260Y175971D01*
Y174620D01*
X245610Y173314D01*
X246286Y172143D01*
X247241Y171187D01*
X248412Y170512D01*
X249718Y170162D01*
X251070D01*
X252375Y170512D01*
X253546Y171187D01*
X254502Y172143D01*
X255178Y173314D01*
X255528Y174620D01*
Y175971D01*
X255178Y177277D01*
X254502Y178448D01*
X253546Y179404D01*
X252375Y180080D01*
X251070Y180429D01*
D02*
G37*
G36*
X100398Y169185D02*
X98532D01*
Y167318D01*
X99379Y167669D01*
X100047Y168338D01*
X100398Y169185D01*
D02*
G37*
G36*
X97531D02*
X95665D01*
X96016Y168338D01*
X96684Y167669D01*
X97531Y167318D01*
Y169185D01*
D02*
G37*
G36*
X220193Y168224D02*
X212878D01*
Y160909D01*
X220193D01*
Y168224D01*
D02*
G37*
G36*
X151449Y168224D02*
X150486D01*
X149556Y167975D01*
X148722Y167493D01*
X148040Y166813D01*
X147559Y165979D01*
X147310Y165048D01*
Y164085D01*
X147559Y163155D01*
X148040Y162321D01*
X148722Y161640D01*
X149556Y161159D01*
X150486Y160909D01*
X151449D01*
X152379Y161159D01*
X153213Y161640D01*
X153894Y162321D01*
X154375Y163155D01*
X154625Y164085D01*
Y165048D01*
X154375Y165979D01*
X153894Y166813D01*
X153213Y167493D01*
X152379Y167975D01*
X151449Y168224D01*
D02*
G37*
G36*
X177673Y167831D02*
X170358D01*
Y160516D01*
X177673D01*
Y167831D01*
D02*
G37*
G36*
X273701Y296472D02*
X272755D01*
X271881Y296110D01*
X271212Y295442D01*
X270850Y294567D01*
Y293621D01*
X271212Y292747D01*
X271444Y292516D01*
Y168869D01*
X252552Y149978D01*
X252375Y150080D01*
X251070Y150429D01*
X249718D01*
X248412Y150080D01*
X247241Y149404D01*
X246286Y148448D01*
X245610Y147277D01*
X245260Y145972D01*
Y144620D01*
X245610Y143314D01*
X246286Y142143D01*
X247241Y141188D01*
X248412Y140512D01*
X249718Y140162D01*
X251070D01*
X252375Y140512D01*
X253546Y141188D01*
X254502Y142143D01*
X255178Y143314D01*
X255528Y144620D01*
Y145972D01*
X255178Y147277D01*
X255076Y147454D01*
X274490Y166868D01*
X274877Y167447D01*
X275013Y168130D01*
Y292516D01*
X275244Y292747D01*
X275606Y293621D01*
Y294567D01*
X275244Y295442D01*
X274575Y296110D01*
X273701Y296472D01*
D02*
G37*
G36*
X117008Y169307D02*
X116062D01*
X115188Y168945D01*
X114520Y168276D01*
X114157Y167402D01*
Y166456D01*
X114520Y165582D01*
X115188Y164913D01*
X116062Y164551D01*
X117008D01*
X117826Y164890D01*
X131353D01*
X131724Y164520D01*
X132598Y164157D01*
X133544D01*
X134418Y164520D01*
X135087Y165188D01*
X135213Y165492D01*
X135713Y165392D01*
Y160909D01*
X135756D01*
Y154388D01*
X131045Y149677D01*
X85936D01*
X85119Y150016D01*
X84173D01*
X83299Y149654D01*
X82630Y148985D01*
X82268Y148111D01*
Y147165D01*
X82488Y146634D01*
X82154Y146134D01*
X81212D01*
X80394Y146472D01*
X79448D01*
X78574Y146110D01*
X77905Y145441D01*
X77543Y144568D01*
Y143622D01*
X77905Y142747D01*
X78574Y142079D01*
X79448Y141717D01*
X80394D01*
X81212Y142055D01*
X98338D01*
X98378Y141960D01*
X99047Y141291D01*
X99921Y140929D01*
X100867D01*
X101741Y141291D01*
X102410Y141960D01*
X102772Y142834D01*
Y143780D01*
X102410Y144654D01*
X101965Y145099D01*
X102172Y145599D01*
X131890D01*
X132670Y145754D01*
X133332Y146196D01*
X139237Y152101D01*
X139679Y152763D01*
X139834Y153543D01*
Y160909D01*
X143027D01*
Y168225D01*
X135713D01*
Y167678D01*
X135213Y167579D01*
X135087Y167882D01*
X134418Y168551D01*
X133544Y168913D01*
X132749D01*
X132473Y168968D01*
X117826D01*
X117008Y169307D01*
D02*
G37*
G36*
X165862Y167831D02*
X158547D01*
Y160516D01*
X163338D01*
X175510Y148345D01*
X175510Y148345D01*
X176089Y147958D01*
X176771Y147822D01*
X176771Y147822D01*
X193924D01*
X194607Y147958D01*
X194993Y148216D01*
X210232D01*
X210464Y147984D01*
X211338Y147622D01*
X212284D01*
X213158Y147984D01*
X213827Y148653D01*
X214189Y149527D01*
Y150473D01*
X213827Y151347D01*
X213158Y152016D01*
X212284Y152378D01*
X211338D01*
X210464Y152016D01*
X210232Y151784D01*
X194318D01*
X194318Y151784D01*
X193635Y151648D01*
X193249Y151391D01*
X177510D01*
X165862Y163039D01*
Y167831D01*
D02*
G37*
G36*
X76262Y148146D02*
X68947D01*
Y140831D01*
X76262D01*
Y148146D01*
D02*
G37*
G36*
X61848Y148146D02*
X60886D01*
X59955Y147896D01*
X59121Y147415D01*
X58440Y146734D01*
X57959Y145900D01*
X57709Y144970D01*
Y144007D01*
X57959Y143077D01*
X58440Y142242D01*
X59121Y141561D01*
X59955Y141080D01*
X60886Y140831D01*
X61848D01*
X62779Y141080D01*
X63613Y141561D01*
X64294Y142242D01*
X64775Y143077D01*
X65025Y144007D01*
Y144970D01*
X64775Y145900D01*
X64294Y146734D01*
X63613Y147415D01*
X62779Y147896D01*
X61848Y148146D01*
D02*
G37*
G36*
X117429Y143647D02*
Y140494D01*
X120582D01*
X120337Y141406D01*
X119856Y142240D01*
X119175Y142921D01*
X118341Y143402D01*
X117429Y143647D01*
D02*
G37*
G36*
X116429D02*
X115517Y143402D01*
X114683Y142921D01*
X114003Y142240D01*
X113521Y141406D01*
X113277Y140494D01*
X116429D01*
Y143647D01*
D02*
G37*
G36*
X120582Y139494D02*
X117429D01*
Y136342D01*
X118341Y136586D01*
X119175Y137067D01*
X119856Y137748D01*
X120337Y138582D01*
X120582Y139494D01*
D02*
G37*
G36*
X116429D02*
X113277D01*
X113521Y138582D01*
X114003Y137748D01*
X114683Y137067D01*
X115517Y136586D01*
X116429Y136342D01*
Y139494D01*
D02*
G37*
G36*
X118618Y134481D02*
X115461D01*
Y131324D01*
X118618D01*
Y134481D01*
D02*
G37*
G36*
X114461D02*
X111303D01*
Y131324D01*
X114461D01*
Y134481D01*
D02*
G37*
G36*
X83177Y108666D02*
Y106799D01*
X85044D01*
X84693Y107646D01*
X84024Y108315D01*
X83177Y108666D01*
D02*
G37*
G36*
X82177D02*
X81330Y108315D01*
X80661Y107646D01*
X80310Y106799D01*
X82177D01*
Y108666D01*
D02*
G37*
G36*
X174808Y107768D02*
X172941D01*
Y105901D01*
X173788Y106252D01*
X174457Y106921D01*
X174808Y107768D01*
D02*
G37*
G36*
X171941D02*
X170074D01*
X170425Y106921D01*
X171094Y106252D01*
X171941Y105901D01*
Y107768D01*
D02*
G37*
G36*
X85044Y105799D02*
X83177D01*
Y103932D01*
X84024Y104283D01*
X84693Y104952D01*
X85044Y105799D01*
D02*
G37*
G36*
X82177D02*
X80310D01*
X80661Y104952D01*
X81330Y104283D01*
X82177Y103932D01*
Y105799D01*
D02*
G37*
G36*
X251070Y105429D02*
X249718D01*
X248412Y105080D01*
X247241Y104404D01*
X246286Y103448D01*
X245610Y102277D01*
X245260Y100971D01*
Y99620D01*
X245610Y98314D01*
X246286Y97143D01*
X247241Y96188D01*
X248412Y95512D01*
X249718Y95162D01*
X251070D01*
X252375Y95512D01*
X253546Y96188D01*
X254502Y97143D01*
X255178Y98314D01*
X255528Y99620D01*
Y100971D01*
X255178Y102277D01*
X254502Y103448D01*
X253546Y104404D01*
X252375Y105080D01*
X251070Y105429D01*
D02*
G37*
G36*
X236335Y100393D02*
X229020D01*
Y93078D01*
X236335D01*
Y100393D01*
D02*
G37*
G36*
X112937Y91359D02*
X109878D01*
Y88300D01*
X112937D01*
Y91359D01*
D02*
G37*
G36*
Y87300D02*
X109878D01*
Y84241D01*
X112937D01*
Y87300D01*
D02*
G37*
G36*
X180009Y87910D02*
X179046D01*
X178116Y87660D01*
X177282Y87179D01*
X176601Y86498D01*
X176119Y85664D01*
X175870Y84733D01*
Y83771D01*
X176119Y82840D01*
X176601Y82006D01*
X177282Y81325D01*
X178116Y80844D01*
X179046Y80594D01*
X180009D01*
X180939Y80844D01*
X181773Y81325D01*
X182454Y82006D01*
X182936Y82840D01*
X183185Y83771D01*
Y84733D01*
X182936Y85664D01*
X182454Y86498D01*
X181773Y87179D01*
X180939Y87660D01*
X180009Y87910D01*
D02*
G37*
G36*
X140272Y87516D02*
X132957D01*
Y80201D01*
X140272D01*
Y87516D01*
D02*
G37*
G36*
X125285D02*
X124322D01*
X123391Y87266D01*
X122557Y86785D01*
X121877Y86104D01*
X121395Y85270D01*
X121146Y84340D01*
Y83377D01*
X121395Y82446D01*
X121877Y81612D01*
X122557Y80932D01*
X123391Y80450D01*
X124322Y80201D01*
X125285D01*
X126215Y80450D01*
X127049Y80932D01*
X127730Y81612D01*
X128211Y82446D01*
X128461Y83377D01*
Y84340D01*
X128211Y85270D01*
X127730Y86104D01*
X127049Y86785D01*
X126215Y87266D01*
X125285Y87516D01*
D02*
G37*
G36*
X251070Y90430D02*
X249718D01*
X248412Y90080D01*
X247241Y89404D01*
X246286Y88448D01*
X245610Y87277D01*
X245260Y85971D01*
Y84620D01*
X245610Y83314D01*
X246286Y82143D01*
X247241Y81187D01*
X248412Y80512D01*
X249718Y80162D01*
X251070D01*
X252375Y80512D01*
X253546Y81187D01*
X254502Y82143D01*
X255178Y83314D01*
X255528Y84620D01*
Y85971D01*
X255178Y87277D01*
X254502Y88448D01*
X253546Y89404D01*
X252375Y90080D01*
X251070Y90430D01*
D02*
G37*
G36*
X76157Y82769D02*
Y79800D01*
X79127D01*
X78901Y80643D01*
X78442Y81437D01*
X77794Y82085D01*
X77001Y82543D01*
X76157Y82769D01*
D02*
G37*
G36*
X75157D02*
X74314Y82543D01*
X73520Y82085D01*
X72873Y81437D01*
X72414Y80643D01*
X72188Y79800D01*
X75157D01*
Y82769D01*
D02*
G37*
G36*
X169627Y81674D02*
Y78705D01*
X172596D01*
X172370Y79548D01*
X171912Y80342D01*
X171264Y80990D01*
X170470Y81448D01*
X169627Y81674D01*
D02*
G37*
G36*
X168627D02*
X167784Y81448D01*
X166990Y80990D01*
X166342Y80342D01*
X165884Y79548D01*
X165658Y78705D01*
X168627D01*
Y81674D01*
D02*
G37*
G36*
X79127Y78800D02*
X76157D01*
Y75831D01*
X77001Y76057D01*
X77794Y76515D01*
X78442Y77163D01*
X78901Y77957D01*
X79127Y78800D01*
D02*
G37*
G36*
X75157D02*
X72188D01*
X72414Y77957D01*
X72873Y77163D01*
X73520Y76515D01*
X74314Y76057D01*
X75157Y75831D01*
Y78800D01*
D02*
G37*
G36*
X172596Y77705D02*
X169627D01*
Y74736D01*
X170470Y74962D01*
X171264Y75420D01*
X171912Y76068D01*
X172370Y76862D01*
X172596Y77705D01*
D02*
G37*
G36*
X168627D02*
X165658D01*
X165884Y76862D01*
X166342Y76068D01*
X166990Y75420D01*
X167784Y74962D01*
X168627Y74736D01*
Y77705D01*
D02*
G37*
G36*
X149900Y81685D02*
X148984D01*
X148099Y81448D01*
X147305Y80990D01*
X146657Y80342D01*
X146199Y79548D01*
X145962Y78663D01*
Y77747D01*
X146199Y76862D01*
X146657Y76068D01*
X147305Y75420D01*
X148099Y74962D01*
X148984Y74725D01*
X149900D01*
X150785Y74962D01*
X151579Y75420D01*
X152227Y76068D01*
X152685Y76862D01*
X152922Y77747D01*
Y78663D01*
X152685Y79548D01*
X152227Y80342D01*
X151579Y80990D01*
X150785Y81448D01*
X149900Y81685D01*
D02*
G37*
G36*
X140756Y68340D02*
X140736D01*
Y64887D01*
X144189D01*
Y64907D01*
X143919Y65913D01*
X143399Y66814D01*
X142663Y67550D01*
X141762Y68070D01*
X140756Y68340D01*
D02*
G37*
G36*
X139736D02*
X139715D01*
X138710Y68070D01*
X137809Y67550D01*
X137073Y66814D01*
X136552Y65913D01*
X136283Y64907D01*
Y64887D01*
X139736D01*
Y68340D01*
D02*
G37*
G36*
Y63887D02*
X136283D01*
Y63867D01*
X136552Y62861D01*
X137073Y61960D01*
X137809Y61224D01*
X138710Y60704D01*
X139715Y60434D01*
X139736D01*
Y63887D01*
D02*
G37*
G36*
X120756Y68340D02*
X119715D01*
X118710Y68070D01*
X117809Y67550D01*
X117073Y66814D01*
X116552Y65913D01*
X116283Y64907D01*
Y63867D01*
X116552Y62861D01*
X117073Y61960D01*
X117809Y61224D01*
X118710Y60704D01*
X119715Y60434D01*
X120756D01*
X121762Y60704D01*
X122663Y61224D01*
X123399Y61960D01*
X123919Y62861D01*
X124189Y63867D01*
Y64907D01*
X123919Y65913D01*
X123399Y66814D01*
X122663Y67550D01*
X121762Y68070D01*
X120756Y68340D01*
D02*
G37*
G36*
X208190Y37516D02*
X208014D01*
Y32882D01*
X212648D01*
Y33058D01*
X212298Y34363D01*
X211622Y35534D01*
X210666Y36490D01*
X209496Y37166D01*
X208190Y37516D01*
D02*
G37*
G36*
X207014D02*
X206838D01*
X205533Y37166D01*
X204362Y36490D01*
X203406Y35534D01*
X202730Y34363D01*
X202380Y33058D01*
Y32882D01*
X207014D01*
Y37516D01*
D02*
G37*
G36*
X223190D02*
X221838D01*
X220532Y37166D01*
X219362Y36490D01*
X218406Y35534D01*
X217730Y34363D01*
X217380Y33058D01*
Y31706D01*
X217730Y30400D01*
X218406Y29230D01*
X219362Y28274D01*
X220532Y27598D01*
X221838Y27248D01*
X223190D01*
X224496Y27598D01*
X225666Y28274D01*
X226622Y29230D01*
X227298Y30400D01*
X227648Y31706D01*
Y33058D01*
X227298Y34363D01*
X226622Y35534D01*
X225666Y36490D01*
X224496Y37166D01*
X223190Y37516D01*
D02*
G37*
G36*
X212648Y31882D02*
X208014D01*
Y27248D01*
X208190D01*
X209496Y27598D01*
X210666Y28274D01*
X211622Y29230D01*
X212298Y30400D01*
X212648Y31706D01*
Y31882D01*
D02*
G37*
G36*
X207014D02*
X202380D01*
Y31706D01*
X202730Y30400D01*
X203406Y29230D01*
X204362Y28274D01*
X205533Y27598D01*
X206838Y27248D01*
X207014D01*
Y31882D01*
D02*
G37*
G36*
X193190Y37516D02*
X191838D01*
X190533Y37166D01*
X189362Y36490D01*
X188406Y35534D01*
X187730Y34363D01*
X187380Y33058D01*
Y31706D01*
X187730Y30400D01*
X188406Y29230D01*
X189362Y28274D01*
X190533Y27598D01*
X191838Y27248D01*
X193190D01*
X194496Y27598D01*
X195666Y28274D01*
X196622Y29230D01*
X197298Y30400D01*
X197648Y31706D01*
Y33058D01*
X197298Y34363D01*
X196622Y35534D01*
X195666Y36490D01*
X194496Y37166D01*
X193190Y37516D01*
D02*
G37*
G36*
X178190D02*
X176838D01*
X175532Y37166D01*
X174362Y36490D01*
X173406Y35534D01*
X172730Y34363D01*
X172380Y33058D01*
Y31706D01*
X172730Y30400D01*
X173406Y29230D01*
X174362Y28274D01*
X175532Y27598D01*
X176838Y27248D01*
X178190D01*
X179496Y27598D01*
X180666Y28274D01*
X181622Y29230D01*
X182298Y30400D01*
X182648Y31706D01*
Y33058D01*
X182298Y34363D01*
X181622Y35534D01*
X180666Y36490D01*
X179496Y37166D01*
X178190Y37516D01*
D02*
G37*
G36*
X163190D02*
X161838D01*
X160532Y37166D01*
X159362Y36490D01*
X158406Y35534D01*
X157730Y34363D01*
X157380Y33058D01*
Y31706D01*
X157730Y30400D01*
X158406Y29230D01*
X159362Y28274D01*
X160532Y27598D01*
X161838Y27248D01*
X163190D01*
X164496Y27598D01*
X165666Y28274D01*
X166622Y29230D01*
X167298Y30400D01*
X167648Y31706D01*
Y33058D01*
X167298Y34363D01*
X166622Y35534D01*
X165666Y36490D01*
X164496Y37166D01*
X163190Y37516D01*
D02*
G37*
G36*
X148190D02*
X146838D01*
X145533Y37166D01*
X144362Y36490D01*
X143406Y35534D01*
X142730Y34363D01*
X142380Y33058D01*
Y31706D01*
X142730Y30400D01*
X143406Y29230D01*
X144362Y28274D01*
X145533Y27598D01*
X146838Y27248D01*
X148190D01*
X149496Y27598D01*
X150666Y28274D01*
X151622Y29230D01*
X152298Y30400D01*
X152648Y31706D01*
Y33058D01*
X152298Y34363D01*
X151622Y35534D01*
X150666Y36490D01*
X149496Y37166D01*
X148190Y37516D01*
D02*
G37*
G36*
X66086Y359780D02*
X65169D01*
X64284Y359542D01*
X63490Y359084D01*
X62843Y358436D01*
X62384Y357643D01*
X62147Y356757D01*
Y355841D01*
X62384Y354956D01*
X62843Y354162D01*
X63490Y353514D01*
X64284Y353056D01*
X65169Y352819D01*
X66086D01*
X66971Y353056D01*
X67764Y353514D01*
X68412Y354162D01*
X68871Y354956D01*
X69108Y355841D01*
Y356757D01*
X68871Y357643D01*
X68412Y358436D01*
X67764Y359084D01*
X66971Y359542D01*
X66086Y359780D01*
D02*
G37*
G36*
X31764Y328461D02*
X30801D01*
X29871Y328211D01*
X29037Y327730D01*
X28356Y327049D01*
X27874Y326215D01*
X27625Y325285D01*
Y324322D01*
X27874Y323392D01*
X28356Y322557D01*
X29037Y321877D01*
X29871Y321395D01*
X30801Y321146D01*
X31764D01*
X32694Y321395D01*
X33528Y321877D01*
X34209Y322557D01*
X34691Y323392D01*
X34940Y324322D01*
Y325285D01*
X34691Y326215D01*
X34209Y327049D01*
X33528Y327730D01*
X32694Y328211D01*
X31764Y328461D01*
D02*
G37*
G36*
X8768Y300792D02*
Y298925D01*
X10634D01*
X10284Y299772D01*
X9615Y300441D01*
X8768Y300792D01*
D02*
G37*
G36*
X10634Y297925D02*
X8768D01*
Y296058D01*
X9615Y296409D01*
X10284Y297078D01*
X10634Y297925D01*
D02*
G37*
%LPD*%
D35*
X158425Y239525D02*
D03*
D36*
Y249524D02*
D03*
Y259524D02*
D03*
Y279524D02*
D03*
Y299524D02*
D03*
Y319525D02*
D03*
X98425Y379524D02*
D03*
Y359524D02*
D03*
Y349524D02*
D03*
Y329524D02*
D03*
Y309524D02*
D03*
Y299524D02*
D03*
Y289525D02*
D03*
Y279524D02*
D03*
Y259524D02*
D03*
Y369525D02*
D03*
X158425Y339525D02*
D03*
Y349524D02*
D03*
Y329524D02*
D03*
Y359524D02*
D03*
X98425Y319525D02*
D03*
X158425Y369525D02*
D03*
Y379524D02*
D03*
X98425Y339525D02*
D03*
X158425Y309524D02*
D03*
Y289525D02*
D03*
X98425Y249524D02*
D03*
X158425Y269525D02*
D03*
X98425Y239525D02*
D03*
Y269525D02*
D03*
D48*
X81524Y319525D02*
X98425D01*
X58500Y270394D02*
Y296500D01*
X81524Y319525D01*
X236700Y218989D02*
X250394Y205296D01*
X235800Y266900D02*
X236700Y266000D01*
Y218989D02*
Y266000D01*
X232800Y249600D02*
Y291200D01*
X235800Y266900D02*
Y293900D01*
X194475Y329524D02*
X232800Y291200D01*
X195448Y334252D02*
X235800Y293900D01*
X180392Y354308D02*
X239400Y295300D01*
Y272800D02*
Y295300D01*
Y272800D02*
X250394Y261806D01*
X103209Y354308D02*
X180392D01*
X160462Y334252D02*
X195448D01*
X158425Y329524D02*
X194475D01*
X250394Y220296D02*
Y261806D01*
X111200Y182400D02*
X115272Y178328D01*
Y177085D02*
X120456Y171900D01*
X75433Y182400D02*
X111200D01*
X115272Y177085D02*
Y178328D01*
X118200Y73737D02*
Y106399D01*
X117323Y107276D02*
X118200Y106399D01*
X117323Y107276D02*
Y107480D01*
X118200Y73737D02*
X119291Y72645D01*
X61878Y271258D02*
Y288800D01*
X39370Y212598D02*
X61638Y234866D01*
X69200Y208359D02*
X76378Y201181D01*
X69200Y208359D02*
Y263936D01*
X61878Y271258D02*
X69200Y263936D01*
X61638Y234866D02*
Y267256D01*
X58500Y270394D02*
X61638Y267256D01*
X182600Y194700D02*
X191500D01*
X192989Y196189D01*
X99402Y144095D02*
X100189Y143307D01*
X100394D01*
X79921Y144095D02*
X99402D01*
X184458Y142200D02*
X197806D01*
X132473Y166929D02*
X132866Y166535D01*
X133071D01*
X35638Y229528D02*
X44882D01*
X33275Y231890D02*
X35638Y229528D01*
X33071Y231890D02*
X33275D01*
X116535Y166929D02*
X132473D01*
X214756Y123622D02*
X215544Y122835D01*
X199460Y123622D02*
X214756D01*
X215544Y122835D02*
X215748D01*
X197806Y142200D02*
X202306Y137700D01*
X223700D01*
X207276Y196850D02*
X207480D01*
X206614Y196189D02*
X207276Y196850D01*
X192989Y196189D02*
X206614D01*
X84646Y147638D02*
X131890D01*
X137795Y153543D01*
Y162992D01*
X139370Y164567D01*
X20079Y298031D02*
X20091Y298044D01*
X20208D01*
X100300Y99213D02*
X109843Y108756D01*
X100300Y68700D02*
Y99213D01*
X119291Y72441D02*
Y72645D01*
X72604Y179921D02*
X72955D01*
X75433Y182400D01*
X49606Y215354D02*
X79561Y185400D01*
X151608D01*
X158058Y178950D01*
X76378Y201181D02*
X155428D01*
X156600Y200009D01*
Y190900D02*
X172000Y175500D01*
X156600Y190900D02*
Y200009D01*
X180082Y171900D02*
X192040Y183858D01*
X120456Y171900D02*
X180082D01*
X2331Y241669D02*
Y266858D01*
X3937Y268464D02*
Y314961D01*
X2331Y266858D02*
X3937Y268464D01*
Y176817D02*
Y240063D01*
Y176817D02*
X28325Y152429D01*
X3937Y314961D02*
X60480Y371504D01*
X2331Y241669D02*
X3937Y240063D01*
X35455Y311152D02*
X47177Y322874D01*
Y326705D01*
X84780Y364308D01*
X13780Y293307D02*
X16701Y296228D01*
Y299431D01*
X28422Y311152D01*
X13780Y181975D02*
Y293307D01*
X84780Y364308D02*
X153209D01*
X28422Y311152D02*
X35455D01*
X60480Y371504D02*
X67483D01*
X70287Y374308D02*
X153209D01*
X67483Y371504D02*
X70287Y374308D01*
X27559Y297244D02*
X46670D01*
X38899Y246331D02*
X45467Y239764D01*
X38899Y246331D02*
Y248598D01*
X33166Y254331D02*
X38899Y248598D01*
X181496Y289525D02*
X185672D01*
X193307Y281890D01*
X193118Y248630D02*
Y265268D01*
X193307Y265457D01*
Y281890D01*
X158425Y289525D02*
X181496D01*
X194161Y173679D02*
X212185Y155656D01*
X190945Y177559D02*
X194161Y174342D01*
Y173679D02*
Y174342D01*
X151575Y120472D02*
X160523D01*
X167966Y127915D01*
Y130170D01*
X168110Y130315D01*
X153543Y224803D02*
X181102Y252362D01*
X153543Y204724D02*
Y224803D01*
X158517Y178950D02*
X158661Y178805D01*
X158058Y178950D02*
X158517D01*
X193307Y238976D02*
X219291D01*
X188976Y243307D02*
X193307Y238976D01*
X188976Y243307D02*
Y274410D01*
X183861Y279524D02*
X188976Y274410D01*
X158425Y279524D02*
X183861D01*
X156444Y334308D02*
X160406D01*
X98425Y329524D02*
X103153Y334252D01*
X156388D01*
X156444Y334308D01*
X160406D02*
X160462Y334252D01*
X215210Y155656D02*
X215354Y155512D01*
X212185Y155656D02*
X215210D01*
X98425Y349524D02*
X103209Y354308D01*
X185110Y112134D02*
X191339Y105905D01*
X86648Y112134D02*
X185110D01*
X191339Y84252D02*
Y105905D01*
X86614Y112168D02*
X86648Y112134D01*
X66929Y53712D02*
Y106299D01*
Y53712D02*
X87514Y33127D01*
Y32382D02*
Y33127D01*
X39370Y146857D02*
Y212598D01*
X30308Y137795D02*
X39370Y146857D01*
X27959Y137795D02*
X30308D01*
X23000Y132836D02*
X27959Y137795D01*
X23000Y112754D02*
Y132836D01*
Y112754D02*
X28325Y107429D01*
Y101103D02*
Y107429D01*
Y101103D02*
X29134Y100295D01*
X153209Y374308D02*
X158425Y379524D01*
X28325Y146103D02*
Y152429D01*
Y146103D02*
X29134Y145295D01*
X13780Y181975D02*
X28325Y167429D01*
X153209Y364308D02*
X158425Y369525D01*
X28325Y161103D02*
Y167429D01*
Y161103D02*
X29134Y160295D01*
X46670Y297244D02*
X53757Y290157D01*
X25524Y295209D02*
X27559Y297244D01*
X25524Y235490D02*
Y295209D01*
X23000Y232967D02*
X25524Y235490D01*
X23000Y211429D02*
Y232967D01*
Y211429D02*
X29134Y205295D01*
X192040Y183858D02*
X257874D01*
D49*
X194318Y150000D02*
X211811D01*
X76842Y265400D02*
Y278281D01*
X62324Y292800D02*
X76842Y278281D01*
X62300Y292800D02*
X62324D01*
X193924Y149606D02*
X194318Y150000D01*
X176771Y149606D02*
X193924D01*
X137560Y299524D02*
X142367Y304331D01*
X210630D01*
X142209Y314173D02*
X201575D01*
X137560Y309524D02*
X142209Y314173D01*
X162204Y164173D02*
X176771Y149606D01*
X261811Y289764D02*
Y300787D01*
X98425Y299524D02*
X137560D01*
X98425Y309524D02*
X137560D01*
X262124Y166061D02*
Y289451D01*
X256359Y160296D02*
X262124Y166061D01*
X250394Y160296D02*
X256359D01*
X273228Y168130D02*
Y293307D01*
X250394Y145296D02*
X273228Y168130D01*
X261811Y289764D02*
X262124Y289451D01*
X228932Y69090D02*
X238779Y78937D01*
X153342Y69090D02*
X228932D01*
X240158Y76378D02*
X263386D01*
X223622Y59842D02*
X240158Y76378D01*
X150394Y59842D02*
X223622D01*
X127953Y43701D02*
X153342Y69090D01*
X113833Y43701D02*
X127953D01*
X102514Y32382D02*
X113833Y43701D01*
X117600Y32468D02*
X123019D01*
X150394Y59842D01*
X118343Y126416D02*
X125468Y133541D01*
X218361D01*
X73823Y130295D02*
X77702Y126416D01*
X218361Y133541D02*
X221607Y130295D01*
X250393D01*
X29134D02*
X73823D01*
X77702Y126416D02*
X118343D01*
X250393Y130295D02*
X250394Y130296D01*
X121421Y114884D02*
X249982D01*
X250394Y115296D01*
X29134D02*
X121009D01*
X121421Y114884D01*
X29134Y115295D02*
X29134Y115296D01*
D54*
X250394Y29134D02*
Y55296D01*
X87140Y12992D02*
X234252D01*
X250394Y29134D01*
X82022Y7874D02*
X87140Y12992D01*
X57514Y32382D02*
X82022Y7874D01*
X250000Y54902D02*
X250394Y55296D01*
D55*
X80236Y64387D02*
D03*
D56*
X90236D02*
D03*
X120236D02*
D03*
X140236D02*
D03*
D57*
X132283Y206381D02*
D03*
X136614Y119291D02*
D03*
X150967Y164567D02*
D03*
X51100Y80317D02*
D03*
X40765Y55118D02*
D03*
X139370Y129134D02*
D03*
X124803Y83858D02*
D03*
X232677Y132168D02*
D03*
X31282Y324803D02*
D03*
X216535Y129134D02*
D03*
X53757Y325591D02*
D03*
X42520Y324803D02*
D03*
X20866Y274409D02*
D03*
X45467Y275197D02*
D03*
X162204Y128740D02*
D03*
X179528Y84252D02*
D03*
X116929Y139994D02*
D03*
X79528Y130824D02*
D03*
X174016Y128740D02*
D03*
X191339Y84252D02*
D03*
X72604Y179921D02*
D03*
X61367Y144488D02*
D03*
X198819Y212598D02*
D03*
X210630D02*
D03*
X222441D02*
D03*
X233678D02*
D03*
X181496Y290817D02*
D03*
X132677Y217618D02*
D03*
D58*
X96850Y206381D02*
D03*
X114961Y130824D02*
D03*
X216929Y290817D02*
D03*
X97244Y217618D02*
D03*
D59*
X263779Y377953D02*
D03*
X15748Y15748D02*
D03*
X263779D02*
D03*
X15748Y377953D02*
D03*
D60*
X76842Y265400D02*
D03*
X57157D02*
D03*
X65627Y356299D02*
D03*
Y375984D02*
D03*
X52249Y356299D02*
D03*
Y375984D02*
D03*
X38870Y356299D02*
D03*
Y375984D02*
D03*
X149442Y78205D02*
D03*
X169127D02*
D03*
X95342Y79300D02*
D03*
X75657D02*
D03*
X204142Y142200D02*
D03*
X184458D02*
D03*
X40600Y87958D02*
D03*
Y107642D02*
D03*
X84342Y310600D02*
D03*
X64657D02*
D03*
X244885Y291022D02*
D03*
X225200D02*
D03*
X89057Y177800D02*
D03*
X108742D02*
D03*
X190000Y230443D02*
D03*
Y210757D02*
D03*
D61*
X105563Y87800D02*
D03*
D62*
X113437D02*
D03*
D63*
X250394Y190296D02*
D03*
Y70296D02*
D03*
Y85296D02*
D03*
Y175296D02*
D03*
Y220296D02*
D03*
Y205296D02*
D03*
Y145296D02*
D03*
Y160296D02*
D03*
Y130296D02*
D03*
Y115296D02*
D03*
Y100296D02*
D03*
X192514Y32382D02*
D03*
X132514D02*
D03*
X102514D02*
D03*
X117514D02*
D03*
X162514D02*
D03*
X177514D02*
D03*
X87514D02*
D03*
X72514D02*
D03*
X147514D02*
D03*
X222514D02*
D03*
X207514D02*
D03*
X29134Y85295D02*
D03*
Y145295D02*
D03*
Y205295D02*
D03*
Y160295D02*
D03*
Y130295D02*
D03*
Y115295D02*
D03*
Y100295D02*
D03*
Y70295D02*
D03*
Y55295D02*
D03*
Y175295D02*
D03*
Y190295D02*
D03*
D64*
X250394Y55296D02*
D03*
X29134Y220295D02*
D03*
D65*
X181102Y262362D02*
D03*
Y252362D02*
D03*
X7480Y254725D02*
D03*
Y264724D02*
D03*
X33166Y254331D02*
D03*
Y264331D02*
D03*
D66*
X181102Y242362D02*
D03*
X7480Y244724D02*
D03*
X33166Y244331D02*
D03*
D67*
X57514Y32382D02*
D03*
D68*
X136614Y83858D02*
D03*
X150967Y129134D02*
D03*
X51100Y44883D02*
D03*
X40765Y19685D02*
D03*
X139370Y164567D02*
D03*
X124803Y119291D02*
D03*
X232677Y96735D02*
D03*
X31282Y289370D02*
D03*
X216535Y164567D02*
D03*
X53757Y290157D02*
D03*
X42520Y289370D02*
D03*
X20866Y238976D02*
D03*
X45467Y239764D02*
D03*
X162204Y164173D02*
D03*
X179528Y119685D02*
D03*
X116929Y175427D02*
D03*
X174016Y164173D02*
D03*
X191339Y119685D02*
D03*
X72604Y144488D02*
D03*
X61367Y179921D02*
D03*
X198819Y177165D02*
D03*
X210630D02*
D03*
X222441D02*
D03*
X233678D02*
D03*
D69*
X232800Y249600D02*
D03*
X211811Y150000D02*
D03*
X62300Y292800D02*
D03*
X61900Y288800D02*
D03*
X182600Y194700D02*
D03*
X100394Y143307D02*
D03*
X79921Y144095D02*
D03*
X133071Y166535D02*
D03*
X116535Y166929D02*
D03*
X44882Y229528D02*
D03*
X33071Y231890D02*
D03*
X199460Y123622D02*
D03*
X215748Y122835D02*
D03*
X207480Y196850D02*
D03*
X223700Y137700D02*
D03*
X84646Y147638D02*
D03*
X8268Y298425D02*
D03*
X20079Y298031D02*
D03*
X98032Y169685D02*
D03*
X224410Y233858D02*
D03*
X214567D02*
D03*
X229528Y231496D02*
D03*
X67716Y298819D02*
D03*
X196850Y286614D02*
D03*
X172441Y108268D02*
D03*
X82677Y106299D02*
D03*
X109843Y108756D02*
D03*
X100300Y68700D02*
D03*
X172000Y175500D02*
D03*
X193118Y248630D02*
D03*
X119291Y72441D02*
D03*
X117323Y107480D02*
D03*
X190945Y177559D02*
D03*
X210630Y304331D02*
D03*
X201575Y314173D02*
D03*
X151575Y120472D02*
D03*
X168110Y130315D02*
D03*
X153543Y204724D02*
D03*
X158661Y178805D02*
D03*
X49606Y215354D02*
D03*
X273228Y294094D02*
D03*
X261811Y300787D02*
D03*
X238583Y79134D02*
D03*
X263386Y76378D02*
D03*
X219291Y238976D02*
D03*
X215354Y155512D02*
D03*
X86614Y112168D02*
D03*
X66929Y106299D02*
D03*
D70*
X257874Y183858D02*
D03*
M02*
