G04*
G04 #@! TF.GenerationSoftware,Altium Limited,Altium Designer,26.3.0 (6)*
G04*
G04 Layer_Physical_Order=2*
G04 Layer_Color=16711680*
%FSLAX25Y25*%
%MOIN*%
G70*
G04*
G04 #@! TF.SameCoordinates,A65C1770-D034-4F41-963D-00CE30BAA99E*
G04*
G04*
G04 #@! TF.FilePolarity,Positive*
G04*
G01*
G75*
%ADD35C,0.06181*%
%ADD47C,0.05567*%
%ADD48R,0.05567X0.05567*%
%ADD51C,0.02000*%
%ADD52C,0.01500*%
%ADD53C,0.04000*%
%ADD57C,0.05906*%
G04:AMPARAMS|DCode=58|XSize=59.06mil|YSize=59.06mil|CornerRadius=14.76mil|HoleSize=0mil|Usage=FLASHONLY|Rotation=0.000|XOffset=0mil|YOffset=0mil|HoleType=Round|Shape=RoundedRectangle|*
%AMROUNDEDRECTD58*
21,1,0.05906,0.02953,0,0,0.0*
21,1,0.02953,0.05906,0,0,0.0*
1,1,0.02953,0.01476,-0.01476*
1,1,0.02953,-0.01476,-0.01476*
1,1,0.02953,-0.01476,0.01476*
1,1,0.02953,0.01476,0.01476*
%
%ADD58ROUNDEDRECTD58*%
%ADD59C,0.04961*%
%ADD60R,0.05315X0.05315*%
%ADD61C,0.05315*%
%ADD62C,0.08268*%
G04:AMPARAMS|DCode=63|XSize=82.68mil|YSize=82.68mil|CornerRadius=20.67mil|HoleSize=0mil|Usage=FLASHONLY|Rotation=0.000|XOffset=0mil|YOffset=0mil|HoleType=Round|Shape=RoundedRectangle|*
%AMROUNDEDRECTD63*
21,1,0.08268,0.04134,0,0,0.0*
21,1,0.04134,0.08268,0,0,0.0*
1,1,0.04134,0.02067,-0.02067*
1,1,0.04134,-0.02067,-0.02067*
1,1,0.04134,-0.02067,0.02067*
1,1,0.04134,0.02067,0.02067*
%
%ADD63ROUNDEDRECTD63*%
G04:AMPARAMS|DCode=64|XSize=62.99mil|YSize=62.99mil|CornerRadius=15.75mil|HoleSize=0mil|Usage=FLASHONLY|Rotation=90.000|XOffset=0mil|YOffset=0mil|HoleType=Round|Shape=RoundedRectangle|*
%AMROUNDEDRECTD64*
21,1,0.06299,0.03150,0,0,90.0*
21,1,0.03150,0.06299,0,0,90.0*
1,1,0.03150,0.01575,0.01575*
1,1,0.03150,0.01575,-0.01575*
1,1,0.03150,-0.01575,-0.01575*
1,1,0.03150,-0.01575,0.01575*
%
%ADD64ROUNDEDRECTD64*%
%ADD65C,0.06299*%
%ADD66C,0.29528*%
%ADD67R,0.05315X0.05315*%
%ADD68R,0.05118X0.05118*%
%ADD69C,0.05118*%
G04:AMPARAMS|DCode=70|XSize=82.68mil|YSize=82.68mil|CornerRadius=20.67mil|HoleSize=0mil|Usage=FLASHONLY|Rotation=90.000|XOffset=0mil|YOffset=0mil|HoleType=Round|Shape=RoundedRectangle|*
%AMROUNDEDRECTD70*
21,1,0.08268,0.04134,0,0,90.0*
21,1,0.04134,0.08268,0,0,90.0*
1,1,0.04134,0.02067,0.02067*
1,1,0.04134,0.02067,-0.02067*
1,1,0.04134,-0.02067,-0.02067*
1,1,0.04134,-0.02067,0.02067*
%
%ADD70ROUNDEDRECTD70*%
%ADD71C,0.02756*%
%ADD72C,0.05000*%
G36*
X259696Y393201D02*
X257728Y392562D01*
X255518Y391435D01*
X253510Y389977D01*
X251756Y388222D01*
X250297Y386215D01*
X249171Y384004D01*
X248404Y381644D01*
X248016Y379193D01*
Y376712D01*
X248404Y374261D01*
X249171Y371902D01*
X250297Y369691D01*
X251756Y367683D01*
X253510Y365929D01*
X255518Y364470D01*
X257728Y363344D01*
X260088Y362577D01*
X262539Y362189D01*
X265020D01*
X267471Y362577D01*
X269831Y363344D01*
X272042Y364470D01*
X274049Y365929D01*
X275803Y367683D01*
X277262Y369691D01*
X278388Y371902D01*
X279028Y373869D01*
X279528Y373790D01*
Y82677D01*
Y78740D01*
X241354D01*
Y79607D01*
X240992Y80481D01*
X240323Y81150D01*
X239449Y81512D01*
X238503D01*
X237629Y81150D01*
X236960Y80481D01*
X236598Y79607D01*
Y78661D01*
X236947Y77818D01*
X236955Y77773D01*
X236947Y77752D01*
X236366Y77627D01*
X235993Y78000D01*
X235119Y78362D01*
X234173D01*
X233299Y78000D01*
X232630Y77331D01*
X232268Y76457D01*
Y75511D01*
X232630Y74637D01*
X232861Y74406D01*
Y30267D01*
X228001Y25406D01*
X127013D01*
X122196Y30223D01*
X122298Y30400D01*
X122648Y31706D01*
Y33058D01*
X122298Y34363D01*
X121622Y35534D01*
X120666Y36490D01*
X119496Y37166D01*
X118190Y37516D01*
X116838D01*
X115533Y37166D01*
X114362Y36490D01*
X113406Y35534D01*
X112730Y34363D01*
X112380Y33058D01*
Y31706D01*
X112730Y30400D01*
X113406Y29230D01*
X114362Y28274D01*
X115533Y27598D01*
X116838Y27248D01*
X118190D01*
X119496Y27598D01*
X119673Y27700D01*
X123289Y24084D01*
X123097Y23622D01*
X113797D01*
X107874Y29545D01*
Y74803D01*
X102339D01*
Y85315D01*
X102839Y85491D01*
X103378Y84952D01*
X104189Y84483D01*
X105094Y84241D01*
X106032D01*
X106937Y84483D01*
X107748Y84952D01*
X108411Y85615D01*
X108879Y86426D01*
X109122Y87331D01*
Y88269D01*
X108879Y89174D01*
X108411Y89985D01*
X107748Y90648D01*
X106937Y91116D01*
X106032Y91359D01*
X105094D01*
X104189Y91116D01*
X103378Y90648D01*
X102839Y90109D01*
X102339Y90285D01*
Y98369D01*
X110372Y106401D01*
X111189Y106740D01*
X111858Y107409D01*
X112221Y108283D01*
Y109229D01*
X112034Y109679D01*
X112312Y110095D01*
X116114D01*
X116214Y109595D01*
X115976Y109496D01*
X115307Y108827D01*
X114945Y107953D01*
Y107007D01*
X115307Y106133D01*
X115976Y105464D01*
X116445Y105270D01*
X117725Y103990D01*
Y76110D01*
X117386Y75292D01*
Y74346D01*
X117748Y73472D01*
X118417Y72803D01*
X119291Y72441D01*
X120237D01*
X121111Y72803D01*
X121780Y73472D01*
X122142Y74346D01*
Y75292D01*
X121803Y76110D01*
Y80978D01*
X122303Y81186D01*
X122557Y80932D01*
X123391Y80450D01*
X124322Y80201D01*
X125285D01*
X126215Y80450D01*
X127049Y80932D01*
X127730Y81612D01*
X128211Y82446D01*
X128461Y83377D01*
Y84340D01*
X128211Y85270D01*
X127730Y86104D01*
X127049Y86785D01*
X126215Y87266D01*
X125285Y87516D01*
X124322D01*
X123391Y87266D01*
X122557Y86785D01*
X122303Y86531D01*
X121803Y86738D01*
Y104834D01*
X121803Y104834D01*
X121648Y105615D01*
X121206Y106276D01*
X119701Y107782D01*
Y107953D01*
X119339Y108827D01*
X118670Y109496D01*
X118432Y109595D01*
X118531Y110095D01*
X170978D01*
X171280Y109595D01*
X171045Y109029D01*
X167685Y105669D01*
X167243Y105008D01*
X167088Y104227D01*
Y81046D01*
X166990Y80990D01*
X166342Y80342D01*
X165884Y79548D01*
X165647Y78663D01*
Y77747D01*
X165884Y76862D01*
X166342Y76068D01*
X166990Y75420D01*
X167784Y74962D01*
X168669Y74725D01*
X169585D01*
X170470Y74962D01*
X171264Y75420D01*
X171912Y76068D01*
X172370Y76862D01*
X172607Y77747D01*
Y78663D01*
X172370Y79548D01*
X171912Y80342D01*
X171264Y80990D01*
X171166Y81046D01*
Y103383D01*
X173929Y106145D01*
X174747Y106484D01*
X175416Y107153D01*
X175778Y108027D01*
Y108973D01*
X175520Y109595D01*
X175821Y110095D01*
X184265D01*
X189299Y105061D01*
Y87298D01*
X189093Y87179D01*
X188412Y86498D01*
X187930Y85664D01*
X187681Y84733D01*
Y83771D01*
X187930Y82840D01*
X188412Y82006D01*
X189093Y81325D01*
X189927Y80844D01*
X190857Y80594D01*
X191820D01*
X192750Y80844D01*
X193584Y81325D01*
X193992Y81733D01*
X197283D01*
X200551Y78465D01*
X200409Y77938D01*
Y76862D01*
X200688Y75821D01*
X201227Y74888D01*
X201988Y74127D01*
X202921Y73588D01*
X203961Y73309D01*
X205038D01*
X206079Y73588D01*
X207012Y74127D01*
X207773Y74888D01*
X208312Y75821D01*
X208591Y76862D01*
Y77938D01*
X208312Y78979D01*
X207773Y79912D01*
X207012Y80673D01*
X206079Y81212D01*
X205038Y81490D01*
X203961D01*
X203434Y81349D01*
X199569Y85214D01*
X198908Y85656D01*
X198127Y85812D01*
X194661D01*
X194265Y86498D01*
X193584Y87179D01*
X193378Y87298D01*
Y105905D01*
X193223Y106686D01*
X192780Y107347D01*
X187490Y112638D01*
X187682Y113100D01*
X245734D01*
X246286Y112143D01*
X247241Y111188D01*
X248412Y110512D01*
X249718Y110162D01*
X251070D01*
X252375Y110512D01*
X253546Y111188D01*
X254502Y112143D01*
X255178Y113314D01*
X255528Y114620D01*
Y115972D01*
X255178Y117277D01*
X254502Y118448D01*
X253546Y119404D01*
X252375Y120080D01*
X251070Y120430D01*
X249718D01*
X248412Y120080D01*
X247241Y119404D01*
X246286Y118448D01*
X245610Y117277D01*
X245447Y116668D01*
X194996D01*
Y123343D01*
X187681D01*
Y116668D01*
X183185D01*
Y123343D01*
X175870D01*
Y116668D01*
X139206D01*
X139072Y117168D01*
X139226Y117257D01*
X139907Y117938D01*
X140388Y118772D01*
X140638Y119702D01*
Y120666D01*
X140388Y121596D01*
X139907Y122430D01*
X139226Y123111D01*
X138392Y123592D01*
X137462Y123841D01*
X136499D01*
X135568Y123592D01*
X134734Y123111D01*
X134053Y122430D01*
X133572Y121596D01*
X133323Y120666D01*
Y119702D01*
X133572Y118772D01*
X134053Y117938D01*
X134734Y117257D01*
X134889Y117168D01*
X134755Y116668D01*
X128461D01*
Y122949D01*
X121146D01*
Y117192D01*
X121009Y117080D01*
X33970D01*
X33918Y117277D01*
X33242Y118447D01*
X32286Y119403D01*
X31115Y120079D01*
X29810Y120429D01*
X28458D01*
X27152Y120079D01*
X25982Y119403D01*
X25026Y118447D01*
X24350Y117277D01*
X24000Y115971D01*
Y114619D01*
X24013Y114570D01*
X23709Y114173D01*
X0D01*
Y240726D01*
X145Y240779D01*
X500Y240809D01*
X889Y240227D01*
X1898Y239218D01*
Y170492D01*
X2053Y169711D01*
X2495Y169050D01*
X24333Y147212D01*
X24000Y145971D01*
Y144619D01*
X24350Y143313D01*
X25026Y142143D01*
X25982Y141187D01*
X27152Y140511D01*
X28458Y140161D01*
X29810D01*
X31115Y140511D01*
X32286Y141187D01*
X33242Y142143D01*
X33918Y143313D01*
X34268Y144619D01*
Y145971D01*
X33918Y147277D01*
X33242Y148447D01*
X32286Y149403D01*
X31115Y150079D01*
X29810Y150429D01*
X28458D01*
X27216Y150096D01*
X5976Y171336D01*
Y240063D01*
X6389Y240553D01*
X9055D01*
X9727Y240641D01*
X10353Y240901D01*
X10453Y240977D01*
X10953Y240730D01*
Y177508D01*
X11108Y176727D01*
X11550Y176066D01*
X24712Y162904D01*
X24350Y162277D01*
X24000Y160971D01*
Y159619D01*
X24350Y158313D01*
X25026Y157143D01*
X25982Y156187D01*
X27152Y155511D01*
X28458Y155161D01*
X29810D01*
X31115Y155511D01*
X32286Y156187D01*
X33242Y157143D01*
X33918Y158313D01*
X34268Y159619D01*
Y160971D01*
X33918Y162277D01*
X33242Y163447D01*
X32286Y164403D01*
X31115Y165079D01*
X29810Y165429D01*
X28458D01*
X28061Y165323D01*
X15031Y178352D01*
Y233131D01*
X15493Y233322D01*
X16465Y232351D01*
Y215925D01*
X16620Y215144D01*
X17062Y214483D01*
X24333Y207212D01*
X24000Y205971D01*
Y204619D01*
X24350Y203313D01*
X25026Y202143D01*
X25982Y201187D01*
X27152Y200511D01*
X28458Y200161D01*
X29810D01*
X31115Y200511D01*
X32286Y201187D01*
X33242Y202143D01*
X33918Y203313D01*
X34268Y204619D01*
Y205971D01*
X33918Y207277D01*
X33242Y208447D01*
X32286Y209403D01*
X31115Y210079D01*
X29810Y210429D01*
X28458D01*
X27216Y210096D01*
X20543Y216770D01*
Y233195D01*
X20388Y233976D01*
X19946Y234637D01*
X19726Y234857D01*
X19917Y235319D01*
X24524D01*
Y242634D01*
X18248D01*
Y271209D01*
X18748Y271409D01*
X19454Y271001D01*
X20385Y270752D01*
X21348D01*
X22278Y271001D01*
X23112Y271483D01*
X23793Y272164D01*
X24274Y272998D01*
X24524Y273928D01*
Y274891D01*
X24274Y275821D01*
X23793Y276655D01*
X23112Y277336D01*
X22278Y277818D01*
X21348Y278067D01*
X20385D01*
X19454Y277818D01*
X18748Y277410D01*
X18248Y277609D01*
Y288540D01*
X24913Y295205D01*
X45826D01*
X50099Y290931D01*
Y285713D01*
X54706D01*
X54897Y285251D01*
X50658Y281012D01*
X50216Y280350D01*
X50061Y279570D01*
Y235452D01*
X49561Y235174D01*
X48898Y235449D01*
X47952D01*
X47078Y235087D01*
X46409Y234418D01*
X46071Y233600D01*
X44037Y231567D01*
X36482D01*
X35281Y232768D01*
X35087Y233237D01*
X34418Y233906D01*
X33544Y234268D01*
X32598D01*
X31724Y233906D01*
X31055Y233237D01*
X30693Y232363D01*
Y231417D01*
X31055Y230543D01*
X31724Y229874D01*
X32598Y229512D01*
X32770D01*
X34196Y228086D01*
X34196Y228086D01*
X34857Y227644D01*
X35638Y227488D01*
X35638Y227488D01*
X44882D01*
X45662Y227644D01*
X46324Y228086D01*
X48954Y230716D01*
X49561Y230967D01*
X50061Y230690D01*
Y229045D01*
X44621Y223605D01*
X44179Y222943D01*
X44024Y222163D01*
Y183181D01*
X43685Y182363D01*
Y181417D01*
X44047Y180543D01*
X44716Y179874D01*
X45590Y179512D01*
X46536D01*
X47410Y179874D01*
X48079Y180543D01*
X48441Y181417D01*
Y182363D01*
X48102Y183181D01*
Y221318D01*
X53542Y226758D01*
X53984Y227420D01*
X54139Y228200D01*
Y262789D01*
X54639Y262996D01*
X55020Y262615D01*
X55814Y262157D01*
X56699Y261920D01*
X57616D01*
X58501Y262157D01*
X59294Y262615D01*
X59942Y263263D01*
X60401Y264057D01*
X60638Y264942D01*
Y265858D01*
X60401Y266743D01*
X59942Y267537D01*
X59294Y268185D01*
X58501Y268643D01*
X57616Y268880D01*
X56699D01*
X55814Y268643D01*
X55020Y268185D01*
X54639Y267804D01*
X54139Y268011D01*
Y278725D01*
X59275Y283861D01*
X59536Y283809D01*
X59772Y283650D01*
Y271325D01*
X59927Y270545D01*
X60369Y269883D01*
X67161Y263091D01*
Y221925D01*
X66788Y221279D01*
X66509Y220238D01*
Y219162D01*
X66788Y218121D01*
X67161Y217475D01*
Y208359D01*
X67316Y207578D01*
X67758Y206917D01*
X74936Y199739D01*
X75598Y199297D01*
X76378Y199142D01*
X154561D01*
Y190900D01*
X154716Y190120D01*
X155158Y189458D01*
X169645Y174971D01*
X169866Y174439D01*
X169545Y173939D01*
X136239D01*
Y179881D01*
X137012Y180327D01*
X137773Y181088D01*
X138312Y182021D01*
X138591Y183062D01*
Y184139D01*
X138312Y185179D01*
X137773Y186112D01*
X137012Y186873D01*
X136079Y187412D01*
X135038Y187691D01*
X133961D01*
X132921Y187412D01*
X131988Y186873D01*
X131227Y186112D01*
X130688Y185179D01*
X130409Y184139D01*
Y183062D01*
X130688Y182021D01*
X131227Y181088D01*
X131988Y180327D01*
X132201Y180204D01*
X132161Y180000D01*
Y173939D01*
X121301D01*
X120587Y174653D01*
Y179085D01*
X117160D01*
X117156Y179109D01*
X116714Y179770D01*
X112642Y183842D01*
X111980Y184284D01*
X111200Y184439D01*
X75433D01*
X74653Y184284D01*
X73992Y183842D01*
X73593Y183443D01*
X73086Y183579D01*
X72123D01*
X71193Y183329D01*
X70359Y182848D01*
X69678Y182167D01*
X69196Y181333D01*
X68947Y180403D01*
Y179440D01*
X69196Y178509D01*
X69678Y177675D01*
X70359Y176995D01*
X71193Y176513D01*
X72123Y176264D01*
X73086D01*
X74016Y176513D01*
X74850Y176995D01*
X75531Y177675D01*
X76013Y178509D01*
X76262Y179440D01*
Y180345D01*
X76278Y180361D01*
X86066D01*
X86229Y179861D01*
X85814Y179143D01*
X85577Y178258D01*
Y177342D01*
X85814Y176457D01*
X86273Y175663D01*
X86920Y175015D01*
X87714Y174557D01*
X88599Y174320D01*
X89516D01*
X90401Y174557D01*
X91194Y175015D01*
X91842Y175663D01*
X92301Y176457D01*
X92538Y177342D01*
Y178258D01*
X92301Y179143D01*
X91886Y179861D01*
X92049Y180361D01*
X105751D01*
X105914Y179861D01*
X105499Y179143D01*
X105273Y178300D01*
X108742D01*
Y177800D01*
X109242D01*
Y174331D01*
X110086Y174557D01*
X110880Y175015D01*
X111528Y175663D01*
X111986Y176457D01*
X112223Y177342D01*
Y177786D01*
X112723Y177993D01*
X113233Y177484D01*
Y177085D01*
X113272Y176888D01*
Y171770D01*
X117703D01*
X119015Y170458D01*
X119676Y170016D01*
X120456Y169861D01*
X134600D01*
X134600Y169861D01*
X134600Y169861D01*
X180082D01*
X180862Y170016D01*
X181524Y170458D01*
X186164Y175099D01*
X186588Y174815D01*
X186322Y174173D01*
Y173227D01*
X186684Y172353D01*
X187353Y171684D01*
X188171Y171345D01*
X205053Y154464D01*
X205714Y154022D01*
X206494Y153866D01*
X212935D01*
X213958Y152843D01*
Y151923D01*
X213458Y151716D01*
X213158Y152016D01*
X212284Y152378D01*
X211338D01*
X210464Y152016D01*
X210232Y151784D01*
X194318D01*
X194318Y151784D01*
X193635Y151648D01*
X193249Y151391D01*
X177510D01*
X165862Y163039D01*
Y167831D01*
X158547D01*
Y160516D01*
X163338D01*
X175510Y148345D01*
X175510Y148345D01*
X176089Y147958D01*
X176771Y147822D01*
X176771Y147822D01*
X193924D01*
X194607Y147958D01*
X194993Y148216D01*
X210232D01*
X210464Y147984D01*
X211338Y147622D01*
X212284D01*
X213158Y147984D01*
X213540Y148366D01*
X214126Y148259D01*
X214795Y147590D01*
X215669Y147228D01*
X216615D01*
X217489Y147590D01*
X218158Y148259D01*
X218520Y149133D01*
Y150079D01*
X218158Y150953D01*
X218036Y151075D01*
Y153688D01*
X217881Y154468D01*
X217439Y155130D01*
X215222Y157347D01*
X214560Y157790D01*
X213779Y157945D01*
X207339D01*
X191055Y174229D01*
X190716Y175047D01*
X190047Y175716D01*
X189173Y176078D01*
X188227D01*
X187585Y175812D01*
X187301Y176236D01*
X192885Y181819D01*
X255010D01*
X255073Y181709D01*
X255725Y181058D01*
X256523Y180597D01*
X257413Y180358D01*
X258335D01*
X259225Y180597D01*
X259840Y180952D01*
X260340Y180711D01*
Y166800D01*
X255708Y162169D01*
X255187Y162243D01*
X255178Y162277D01*
X254502Y163448D01*
X253546Y164404D01*
X252375Y165080D01*
X251070Y165429D01*
X249718D01*
X248412Y165080D01*
X247241Y164404D01*
X246286Y163448D01*
X245610Y162277D01*
X245260Y160971D01*
Y159620D01*
X245610Y158314D01*
X246286Y157143D01*
X247241Y156187D01*
X248412Y155512D01*
X249718Y155162D01*
X251070D01*
X252375Y155512D01*
X253546Y156187D01*
X254502Y157143D01*
X255178Y158314D01*
X255231Y158511D01*
X256359D01*
X257041Y158647D01*
X257620Y159034D01*
X263386Y164799D01*
X263773Y165378D01*
X263908Y166061D01*
X263908Y166061D01*
Y264300D01*
Y289451D01*
X263908Y289451D01*
X263773Y290134D01*
X263595Y290399D01*
Y299209D01*
X263827Y299440D01*
X264189Y300314D01*
Y301260D01*
X263827Y302134D01*
X263158Y302803D01*
X262284Y303165D01*
X261338D01*
X260464Y302803D01*
X259795Y302134D01*
X259433Y301260D01*
Y300314D01*
X259795Y299440D01*
X260027Y299209D01*
Y289764D01*
X260163Y289081D01*
X260340Y288816D01*
Y276622D01*
X260038Y276391D01*
X258962D01*
X257921Y276112D01*
X256988Y275573D01*
X256227Y274812D01*
X255688Y273879D01*
X255410Y272838D01*
Y271761D01*
X255688Y270721D01*
X256227Y269788D01*
X256988Y269027D01*
X257921Y268488D01*
X258962Y268210D01*
X260038D01*
X260340Y267978D01*
Y264300D01*
Y187005D01*
X259840Y186765D01*
X259225Y187120D01*
X258335Y187358D01*
X257413D01*
X256523Y187120D01*
X255725Y186659D01*
X255073Y186007D01*
X255010Y185898D01*
X253963D01*
X253756Y186398D01*
X254502Y187143D01*
X255178Y188314D01*
X255528Y189620D01*
Y190972D01*
X255178Y192277D01*
X254502Y193448D01*
X253546Y194404D01*
X252375Y195080D01*
X251070Y195430D01*
X249718D01*
X248412Y195080D01*
X247241Y194404D01*
X246286Y193448D01*
X245610Y192277D01*
X245260Y190972D01*
Y189620D01*
X245610Y188314D01*
X246286Y187143D01*
X247032Y186398D01*
X246825Y185898D01*
X192040D01*
X191260Y185742D01*
X190598Y185300D01*
X179237Y173939D01*
X174455D01*
X174135Y174439D01*
X174378Y175027D01*
Y175973D01*
X174016Y176847D01*
X173347Y177516D01*
X172529Y177855D01*
X158639Y191745D01*
Y200009D01*
X158484Y200790D01*
X158042Y201451D01*
X158042Y201451D01*
X156870Y202623D01*
X156209Y203065D01*
X155951Y203116D01*
X155684Y203679D01*
X155921Y204251D01*
Y205197D01*
X155582Y206015D01*
Y223958D01*
X176651Y245027D01*
X177075Y244744D01*
X177019Y244609D01*
X176931Y243937D01*
Y240787D01*
X177019Y240115D01*
X177278Y239489D01*
X177691Y238951D01*
X178229Y238538D01*
X178855Y238279D01*
X179528Y238190D01*
X182677D01*
X183349Y238279D01*
X183976Y238538D01*
X184514Y238951D01*
X184926Y239489D01*
X185186Y240115D01*
X185274Y240787D01*
Y243937D01*
X185186Y244609D01*
X184926Y245235D01*
X184514Y245773D01*
X183976Y246186D01*
X183349Y246445D01*
X182677Y246534D01*
X179528D01*
X178855Y246445D01*
X178721Y246390D01*
X178438Y246814D01*
X179989Y248365D01*
X180556Y248213D01*
X181649D01*
X182704Y248495D01*
X183650Y249042D01*
X184423Y249814D01*
X184969Y250761D01*
X185252Y251816D01*
Y252908D01*
X184969Y253964D01*
X184423Y254910D01*
X183650Y255683D01*
X182704Y256229D01*
X181649Y256512D01*
X180556D01*
X179501Y256229D01*
X178554Y255683D01*
X177782Y254910D01*
X177236Y253964D01*
X176953Y252908D01*
Y251816D01*
X177105Y251249D01*
X162671Y236814D01*
X162209Y237005D01*
Y243308D01*
X154642D01*
Y235741D01*
X160944D01*
X161135Y235279D01*
X152101Y226245D01*
X151659Y225584D01*
X151504Y224803D01*
Y206015D01*
X151165Y205197D01*
Y204251D01*
X151385Y203720D01*
X151051Y203220D01*
X135002D01*
X134795Y203720D01*
X135210Y204135D01*
X135692Y204969D01*
X135941Y205899D01*
Y206862D01*
X135692Y207793D01*
X135210Y208627D01*
X134529Y209308D01*
X133695Y209789D01*
X132765Y210038D01*
X131802D01*
X130872Y209789D01*
X130038Y209308D01*
X129357Y208627D01*
X128875Y207793D01*
X128626Y206862D01*
Y205899D01*
X128875Y204969D01*
X129357Y204135D01*
X129772Y203720D01*
X129564Y203220D01*
X100508D01*
Y210038D01*
X93193D01*
Y203220D01*
X77223D01*
X71240Y209203D01*
Y215636D01*
X72179Y215888D01*
X73112Y216427D01*
X73873Y217188D01*
X74412Y218121D01*
X74691Y219162D01*
Y220238D01*
X74412Y221279D01*
X73873Y222212D01*
X73112Y222973D01*
X72179Y223512D01*
X71240Y223763D01*
Y263936D01*
X71084Y264716D01*
X70642Y265378D01*
X63850Y272170D01*
Y283749D01*
X64189Y284566D01*
Y285512D01*
X63827Y286386D01*
X63158Y287055D01*
X62284Y287417D01*
X61338D01*
X60954Y287258D01*
X60454Y287592D01*
Y291630D01*
X60954Y291960D01*
X61527Y291722D01*
X62473D01*
X63347Y292084D01*
X63579Y292316D01*
X69728D01*
X75058Y286985D01*
Y268389D01*
X74706Y268185D01*
X74058Y267537D01*
X73599Y266743D01*
X73362Y265858D01*
Y264942D01*
X73599Y264057D01*
X74058Y263263D01*
X74706Y262615D01*
X75499Y262157D01*
X76384Y261920D01*
X77301D01*
X78186Y262157D01*
X78979Y262615D01*
X79628Y263263D01*
X80086Y264057D01*
X80323Y264942D01*
Y265858D01*
X80086Y266743D01*
X79628Y267537D01*
X78979Y268185D01*
X78627Y268389D01*
Y287724D01*
X78627Y287724D01*
X78491Y288407D01*
X78104Y288986D01*
X78104Y288986D01*
X71729Y295362D01*
X71150Y295748D01*
X70467Y295884D01*
X63579D01*
X63347Y296116D01*
X62473Y296478D01*
X61527D01*
X60954Y296240D01*
X60454Y296570D01*
Y312294D01*
X65645Y317485D01*
X95234D01*
X95398Y317201D01*
X96102Y316497D01*
X96965Y315999D01*
X97927Y315741D01*
X98923D01*
X99885Y315999D01*
X100748Y316497D01*
X101453Y317201D01*
X101951Y318064D01*
X102209Y319026D01*
Y320023D01*
X101951Y320985D01*
X101453Y321848D01*
X100748Y322552D01*
X99885Y323050D01*
X98923Y323308D01*
X97927D01*
X96965Y323050D01*
X96102Y322552D01*
X95398Y321848D01*
X95234Y321564D01*
X64800D01*
X64020Y321409D01*
X63358Y320967D01*
X56973Y314581D01*
X56530Y313919D01*
X56375Y313139D01*
Y293027D01*
X53771D01*
X48112Y298686D01*
X47451Y299128D01*
X46670Y299283D01*
X24069D01*
X23288Y299128D01*
X22627Y298686D01*
X15493Y291553D01*
X15031Y291744D01*
Y294877D01*
X29267Y309113D01*
X35455D01*
X36236Y309268D01*
X36897Y309710D01*
X49842Y322655D01*
X50032Y322940D01*
X50621Y322920D01*
X50830Y322557D01*
X51511Y321877D01*
X52345Y321395D01*
X53276Y321146D01*
X54238D01*
X55169Y321395D01*
X56003Y321877D01*
X56684Y322557D01*
X57165Y323392D01*
X57415Y324322D01*
Y325285D01*
X57165Y326215D01*
X56684Y327049D01*
X56003Y327730D01*
X55169Y328211D01*
X54238Y328461D01*
X53276D01*
X52345Y328211D01*
X52179Y328115D01*
X51872Y328515D01*
X85625Y362269D01*
X95188D01*
X95352Y361769D01*
X94899Y360985D01*
X94642Y360023D01*
Y359026D01*
X94899Y358064D01*
X95398Y357201D01*
X96102Y356497D01*
X96965Y355999D01*
X97927Y355741D01*
X98923D01*
X99885Y355999D01*
X100748Y356497D01*
X101453Y357201D01*
X101951Y358064D01*
X102209Y359026D01*
Y360023D01*
X101951Y360985D01*
X101498Y361769D01*
X101663Y362269D01*
X135174D01*
X135954Y362424D01*
X136616Y362866D01*
X141235Y367485D01*
X155234D01*
X155398Y367201D01*
X156102Y366497D01*
X156965Y365999D01*
X157927Y365741D01*
X158923D01*
X159886Y365999D01*
X160748Y366497D01*
X161453Y367201D01*
X161951Y368064D01*
X162209Y369026D01*
Y370023D01*
X161951Y370985D01*
X161453Y371848D01*
X160748Y372552D01*
X159886Y373050D01*
X158923Y373308D01*
X157927D01*
X156965Y373050D01*
X156102Y372552D01*
X155398Y371848D01*
X155234Y371564D01*
X140391D01*
X139610Y371409D01*
X138949Y370967D01*
X134329Y366347D01*
X101305D01*
X101098Y366847D01*
X101453Y367201D01*
X101951Y368064D01*
X102209Y369026D01*
Y370023D01*
X101951Y370985D01*
X101453Y371848D01*
X100748Y372552D01*
X99885Y373050D01*
X98923Y373308D01*
X97927D01*
X96965Y373050D01*
X96102Y372552D01*
X95398Y371848D01*
X94899Y370985D01*
X94642Y370023D01*
Y369026D01*
X94899Y368064D01*
X95398Y367201D01*
X95752Y366847D01*
X95545Y366347D01*
X84781D01*
X84780Y366347D01*
X84000Y366192D01*
X83338Y365750D01*
X46958Y329369D01*
X46516Y328708D01*
X46361Y327928D01*
Y326465D01*
X45861Y326331D01*
X45446Y327049D01*
X44765Y327730D01*
X43931Y328211D01*
X43001Y328461D01*
X42038D01*
X41108Y328211D01*
X40274Y327730D01*
X39593Y327049D01*
X39111Y326215D01*
X38862Y325285D01*
Y324322D01*
X39111Y323392D01*
X39593Y322557D01*
X40274Y321877D01*
X41108Y321395D01*
X41896Y321184D01*
X42108Y320689D01*
X34611Y313192D01*
X28422D01*
X27642Y313036D01*
X26981Y312594D01*
X11550Y297164D01*
X11108Y296502D01*
X10953Y295722D01*
Y267827D01*
X10453Y267620D01*
X10028Y268045D01*
X9082Y268591D01*
X8027Y268874D01*
X7980D01*
Y264724D01*
X6980D01*
Y268874D01*
X6934D01*
X5878Y268591D01*
X4932Y268045D01*
X4832Y267944D01*
X4370Y268136D01*
Y312510D01*
X48268Y356408D01*
X48768Y356201D01*
Y355841D01*
X49005Y354956D01*
X49464Y354162D01*
X50112Y353514D01*
X50905Y353056D01*
X51790Y352819D01*
X52707D01*
X53592Y353056D01*
X54386Y353514D01*
X55033Y354162D01*
X55492Y354956D01*
X55729Y355841D01*
Y356757D01*
X55492Y357643D01*
X55033Y358436D01*
X54386Y359084D01*
X53592Y359542D01*
X52707Y359780D01*
X52347D01*
X52140Y360279D01*
X61325Y369465D01*
X77016D01*
X77796Y369620D01*
X78458Y370062D01*
X92577Y384181D01*
X108211D01*
X114309Y378083D01*
X114309Y378083D01*
X114971Y377641D01*
X115751Y377485D01*
X115751Y377485D01*
X155234D01*
X155398Y377201D01*
X156102Y376497D01*
X156965Y375999D01*
X157927Y375741D01*
X158923D01*
X159886Y375999D01*
X160748Y376497D01*
X161453Y377201D01*
X161951Y378064D01*
X162209Y379026D01*
Y380023D01*
X161951Y380985D01*
X161453Y381848D01*
X160748Y382552D01*
X159886Y383050D01*
X158923Y383308D01*
X157927D01*
X156965Y383050D01*
X156102Y382552D01*
X155398Y381848D01*
X155234Y381564D01*
X116596D01*
X110497Y387662D01*
X109836Y388104D01*
X109055Y388260D01*
X91732D01*
X90952Y388104D01*
X90290Y387662D01*
X76171Y373543D01*
X68775D01*
X68525Y374043D01*
X68871Y374641D01*
X69108Y375526D01*
Y376442D01*
X68871Y377328D01*
X68412Y378121D01*
X67764Y378769D01*
X66971Y379227D01*
X66086Y379465D01*
X65169D01*
X64284Y379227D01*
X63490Y378769D01*
X62843Y378121D01*
X62384Y377328D01*
X62147Y376442D01*
Y375526D01*
X62384Y374641D01*
X62730Y374043D01*
X62480Y373543D01*
X60480D01*
X59700Y373388D01*
X59038Y372946D01*
X42810Y356718D01*
X42306Y356921D01*
X42113Y357643D01*
X41654Y358436D01*
X41006Y359084D01*
X40213Y359542D01*
X39328Y359780D01*
X38411D01*
X37526Y359542D01*
X36733Y359084D01*
X36084Y358436D01*
X35626Y357643D01*
X35389Y356757D01*
Y355841D01*
X35626Y354956D01*
X36084Y354162D01*
X36733Y353514D01*
X37526Y353056D01*
X38248Y352863D01*
X38451Y352358D01*
X889Y314796D01*
X500Y314214D01*
X145Y314245D01*
X0Y314298D01*
Y373790D01*
X500Y373869D01*
X1139Y371902D01*
X2266Y369691D01*
X3724Y367683D01*
X5479Y365929D01*
X7486Y364470D01*
X9697Y363344D01*
X12057Y362577D01*
X14507Y362189D01*
X16989D01*
X19439Y362577D01*
X21799Y363344D01*
X24010Y364470D01*
X26017Y365929D01*
X27772Y367683D01*
X29230Y369691D01*
X30357Y371902D01*
X31124Y374261D01*
X31512Y376712D01*
Y379193D01*
X31124Y381644D01*
X30357Y384004D01*
X29230Y386215D01*
X27772Y388222D01*
X26017Y389977D01*
X24010Y391435D01*
X21799Y392562D01*
X19832Y393201D01*
X19911Y393701D01*
X259616D01*
X259696Y393201D01*
D02*
G37*
G36*
X89628Y113011D02*
X89322Y112273D01*
Y111327D01*
X89684Y110453D01*
X90353Y109784D01*
X91227Y109422D01*
X92173D01*
X92991Y109761D01*
X107235D01*
X107451Y109437D01*
X107464Y109261D01*
X98858Y100655D01*
X98416Y99994D01*
X98261Y99213D01*
Y74803D01*
X96874D01*
X96624Y75236D01*
X96676Y75327D01*
X96913Y76212D01*
Y77128D01*
X96676Y78013D01*
X96218Y78807D01*
X95570Y79455D01*
X94776Y79913D01*
X93891Y80151D01*
X92975D01*
X92090Y79913D01*
X91296Y79455D01*
X90648Y78807D01*
X90190Y78013D01*
X89953Y77128D01*
Y76212D01*
X90190Y75327D01*
X90242Y75236D01*
X89992Y74803D01*
X77189D01*
X76939Y75236D01*
X76991Y75327D01*
X77217Y76170D01*
X73748D01*
Y76670D01*
X73248D01*
Y80139D01*
X72405Y79913D01*
X71611Y79455D01*
X71366Y79210D01*
X70866Y79417D01*
Y110236D01*
X68053Y113049D01*
X68244Y113511D01*
X89395D01*
X89628Y113011D01*
D02*
G37*
%LPC*%
G36*
X98923Y383308D02*
X97927D01*
X96965Y383050D01*
X96102Y382552D01*
X95398Y381848D01*
X94899Y380985D01*
X94642Y380023D01*
Y379026D01*
X94899Y378064D01*
X95398Y377201D01*
X96102Y376497D01*
X96965Y375999D01*
X97927Y375741D01*
X98923D01*
X99885Y375999D01*
X100748Y376497D01*
X101453Y377201D01*
X101951Y378064D01*
X102209Y379026D01*
Y380023D01*
X101951Y380985D01*
X101453Y381848D01*
X100748Y382552D01*
X99885Y383050D01*
X98923Y383308D01*
D02*
G37*
G36*
X52707Y379465D02*
X51790D01*
X50905Y379227D01*
X50112Y378769D01*
X49464Y378121D01*
X49005Y377328D01*
X48768Y376442D01*
Y375526D01*
X49005Y374641D01*
X49464Y373847D01*
X50112Y373199D01*
X50905Y372741D01*
X51790Y372504D01*
X52707D01*
X53592Y372741D01*
X54386Y373199D01*
X55033Y373847D01*
X55492Y374641D01*
X55729Y375526D01*
Y376442D01*
X55492Y377328D01*
X55033Y378121D01*
X54386Y378769D01*
X53592Y379227D01*
X52707Y379465D01*
D02*
G37*
G36*
X39328D02*
X38411D01*
X37526Y379227D01*
X36733Y378769D01*
X36084Y378121D01*
X35626Y377328D01*
X35389Y376442D01*
Y375526D01*
X35626Y374641D01*
X36084Y373847D01*
X36733Y373199D01*
X37526Y372741D01*
X38411Y372504D01*
X39328D01*
X40213Y372741D01*
X41006Y373199D01*
X41654Y373847D01*
X42113Y374641D01*
X42350Y375526D01*
Y376442D01*
X42113Y377328D01*
X41654Y378121D01*
X41006Y378769D01*
X40213Y379227D01*
X39328Y379465D01*
D02*
G37*
G36*
X204738Y378790D02*
X203661D01*
X202621Y378512D01*
X201688Y377973D01*
X200927Y377212D01*
X200388Y376279D01*
X200109Y375238D01*
Y374162D01*
X200388Y373121D01*
X200927Y372188D01*
X201688Y371427D01*
X202621Y370888D01*
X203661Y370609D01*
X204738D01*
X205779Y370888D01*
X206712Y371427D01*
X207473Y372188D01*
X208012Y373121D01*
X208291Y374162D01*
Y375238D01*
X208012Y376279D01*
X207473Y377212D01*
X206712Y377973D01*
X205779Y378512D01*
X204738Y378790D01*
D02*
G37*
G36*
X158923Y363308D02*
X157927D01*
X156965Y363050D01*
X156102Y362552D01*
X155398Y361848D01*
X154900Y360985D01*
X154642Y360023D01*
Y359026D01*
X154900Y358064D01*
X155398Y357201D01*
X155752Y356847D01*
X155545Y356347D01*
X103209D01*
X102428Y356192D01*
X101767Y355750D01*
X99240Y353223D01*
X98923Y353308D01*
X97927D01*
X96965Y353050D01*
X96102Y352552D01*
X95398Y351848D01*
X94899Y350985D01*
X94642Y350023D01*
Y349026D01*
X94899Y348064D01*
X95398Y347201D01*
X96102Y346497D01*
X96965Y345999D01*
X97927Y345741D01*
X98923D01*
X99885Y345999D01*
X100748Y346497D01*
X101453Y347201D01*
X101951Y348064D01*
X102209Y349026D01*
Y350023D01*
X102124Y350339D01*
X104053Y352269D01*
X155188D01*
X155352Y351769D01*
X154900Y350985D01*
X154642Y350023D01*
Y349026D01*
X154900Y348064D01*
X155398Y347201D01*
X156102Y346497D01*
X156965Y345999D01*
X157927Y345741D01*
X158923D01*
X159886Y345999D01*
X160748Y346497D01*
X161453Y347201D01*
X161951Y348064D01*
X162209Y349026D01*
Y350023D01*
X161951Y350985D01*
X161498Y351769D01*
X161662Y352269D01*
X179547D01*
X195025Y336791D01*
X194818Y336291D01*
X161249D01*
X161042Y336791D01*
X161453Y337201D01*
X161951Y338064D01*
X162209Y339026D01*
Y340023D01*
X161951Y340985D01*
X161453Y341848D01*
X160748Y342552D01*
X159886Y343050D01*
X158923Y343308D01*
X157927D01*
X156965Y343050D01*
X156102Y342552D01*
X155398Y341848D01*
X154900Y340985D01*
X154642Y340023D01*
Y339026D01*
X154900Y338064D01*
X155398Y337201D01*
X155808Y336791D01*
X155601Y336291D01*
X103153D01*
X103153Y336291D01*
X102372Y336136D01*
X101711Y335694D01*
X101711Y335694D01*
X99240Y333223D01*
X98923Y333308D01*
X97927D01*
X96965Y333050D01*
X96102Y332552D01*
X95398Y331848D01*
X94899Y330985D01*
X94642Y330023D01*
Y329026D01*
X94899Y328064D01*
X95398Y327201D01*
X96102Y326497D01*
X96965Y325999D01*
X97927Y325741D01*
X98923D01*
X99885Y325999D01*
X100748Y326497D01*
X101453Y327201D01*
X101951Y328064D01*
X102209Y329026D01*
Y330023D01*
X102124Y330339D01*
X103997Y332213D01*
X155115D01*
X155320Y331713D01*
X154900Y330985D01*
X154642Y330023D01*
Y329026D01*
X154900Y328064D01*
X155398Y327201D01*
X156102Y326497D01*
X156965Y325999D01*
X157927Y325741D01*
X158923D01*
X159886Y325999D01*
X160748Y326497D01*
X161453Y327201D01*
X161617Y327485D01*
X193631D01*
X195694Y325422D01*
X195489Y325067D01*
X195419Y324991D01*
X194361D01*
X193321Y324712D01*
X192388Y324173D01*
X191627Y323412D01*
X191088Y322479D01*
X190809Y321439D01*
Y320361D01*
X191088Y319321D01*
X191627Y318388D01*
X192388Y317627D01*
X193321Y317088D01*
X194361Y316810D01*
X195439D01*
X196479Y317088D01*
X197412Y317627D01*
X198173Y318388D01*
X198712Y319321D01*
X198991Y320361D01*
Y321418D01*
X199067Y321489D01*
X199422Y321694D01*
X204103Y317013D01*
X203912Y316551D01*
X203858D01*
X202984Y316189D01*
X202752Y315957D01*
X160814D01*
X160680Y316458D01*
X160748Y316497D01*
X161453Y317201D01*
X161951Y318064D01*
X162209Y319026D01*
Y320023D01*
X161951Y320985D01*
X161453Y321848D01*
X160748Y322552D01*
X159886Y323050D01*
X158923Y323308D01*
X157927D01*
X156965Y323050D01*
X156102Y322552D01*
X155398Y321848D01*
X154900Y320985D01*
X154642Y320023D01*
Y319026D01*
X154900Y318064D01*
X155398Y317201D01*
X156102Y316497D01*
X156170Y316458D01*
X156036Y315957D01*
X139686D01*
X139003Y315822D01*
X138424Y315435D01*
X134298Y311309D01*
X101764D01*
X101453Y311848D01*
X100748Y312552D01*
X99885Y313050D01*
X98923Y313308D01*
X97927D01*
X96965Y313050D01*
X96102Y312552D01*
X95398Y311848D01*
X94899Y310985D01*
X94642Y310023D01*
Y309026D01*
X94899Y308064D01*
X95398Y307201D01*
X96102Y306497D01*
X96965Y305999D01*
X97927Y305741D01*
X98923D01*
X99885Y305999D01*
X100748Y306497D01*
X101453Y307201D01*
X101764Y307740D01*
X135037D01*
X135720Y307876D01*
X136299Y308263D01*
X140425Y312389D01*
X155286D01*
X155477Y311927D01*
X155398Y311848D01*
X154900Y310985D01*
X154642Y310023D01*
Y309026D01*
X154900Y308064D01*
X155398Y307201D01*
X155915Y306684D01*
X155708Y306184D01*
X142436D01*
X141753Y306048D01*
X141174Y305662D01*
X136821Y301309D01*
X101764D01*
X101453Y301848D01*
X100748Y302552D01*
X99885Y303050D01*
X98923Y303308D01*
X97927D01*
X96965Y303050D01*
X96102Y302552D01*
X95398Y301848D01*
X94899Y300985D01*
X94642Y300023D01*
Y299026D01*
X94899Y298064D01*
X95398Y297201D01*
X96102Y296497D01*
X96965Y295999D01*
X97927Y295741D01*
X98923D01*
X99885Y295999D01*
X100748Y296497D01*
X101453Y297201D01*
X101764Y297740D01*
X137560D01*
X138243Y297876D01*
X138822Y298263D01*
X143175Y302616D01*
X155458D01*
X155666Y302116D01*
X155398Y301848D01*
X154900Y300985D01*
X154642Y300023D01*
Y299026D01*
X154900Y298064D01*
X155398Y297201D01*
X156102Y296497D01*
X156965Y295999D01*
X157927Y295741D01*
X158923D01*
X159886Y295999D01*
X160748Y296497D01*
X161453Y297201D01*
X161951Y298064D01*
X162209Y299026D01*
Y300023D01*
X161951Y300985D01*
X161453Y301848D01*
X161185Y302116D01*
X161392Y302616D01*
X205121D01*
X205353Y302384D01*
X206227Y302022D01*
X207173D01*
X208047Y302384D01*
X208716Y303053D01*
X209078Y303927D01*
Y304873D01*
X208716Y305747D01*
X208047Y306416D01*
X207173Y306778D01*
X206227D01*
X205353Y306416D01*
X205121Y306184D01*
X161143D01*
X160935Y306684D01*
X161453Y307201D01*
X161951Y308064D01*
X162209Y309026D01*
Y310023D01*
X161951Y310985D01*
X161453Y311848D01*
X161373Y311927D01*
X161565Y312389D01*
X202752D01*
X202984Y312157D01*
X203858Y311795D01*
X204804D01*
X205678Y312157D01*
X206347Y312826D01*
X206709Y313700D01*
Y313754D01*
X207171Y313946D01*
X226256Y294860D01*
X225998Y294411D01*
X225700Y294491D01*
Y291522D01*
X228669D01*
X228589Y291820D01*
X229038Y292078D01*
X230761Y290355D01*
Y243949D01*
X230522Y243373D01*
Y242427D01*
X230884Y241553D01*
X231553Y240884D01*
X232427Y240522D01*
X233373D01*
X234161Y240848D01*
X234661Y240645D01*
Y218989D01*
X234816Y218209D01*
X235258Y217547D01*
X245593Y207213D01*
X245260Y205972D01*
Y204620D01*
X245610Y203314D01*
X246286Y202143D01*
X247241Y201187D01*
X248412Y200512D01*
X249718Y200162D01*
X251070D01*
X252375Y200512D01*
X253546Y201187D01*
X254502Y202143D01*
X255178Y203314D01*
X255528Y204620D01*
Y205972D01*
X255178Y207277D01*
X254502Y208448D01*
X253546Y209404D01*
X252375Y210080D01*
X251070Y210430D01*
X249718D01*
X248476Y210097D01*
X238739Y219834D01*
Y266000D01*
X238584Y266780D01*
X238142Y267442D01*
X237839Y267745D01*
Y270770D01*
X238339Y270977D01*
X248355Y260962D01*
Y257437D01*
X247855Y257230D01*
X247412Y257673D01*
X246479Y258212D01*
X245439Y258490D01*
X244361D01*
X243321Y258212D01*
X242388Y257673D01*
X241627Y256912D01*
X241088Y255979D01*
X240809Y254939D01*
Y253861D01*
X241088Y252821D01*
X241627Y251888D01*
X242388Y251127D01*
X243321Y250588D01*
X244361Y250309D01*
X245439D01*
X246479Y250588D01*
X247412Y251127D01*
X247855Y251570D01*
X248355Y251363D01*
Y225046D01*
X247241Y224404D01*
X246286Y223448D01*
X245610Y222277D01*
X245260Y220971D01*
Y219620D01*
X245610Y218314D01*
X246286Y217143D01*
X247241Y216188D01*
X248412Y215512D01*
X249718Y215162D01*
X251070D01*
X252375Y215512D01*
X253546Y216188D01*
X254502Y217143D01*
X255178Y218314D01*
X255528Y219620D01*
Y220971D01*
X255178Y222277D01*
X254502Y223448D01*
X253546Y224404D01*
X252433Y225046D01*
Y261806D01*
X252278Y262587D01*
X251836Y263248D01*
X241439Y273645D01*
Y289030D01*
X241939Y289164D01*
X242100Y288885D01*
X242748Y288237D01*
X243542Y287779D01*
X244427Y287542D01*
X245343D01*
X246228Y287779D01*
X247022Y288237D01*
X247670Y288885D01*
X248128Y289679D01*
X248365Y290564D01*
Y291480D01*
X248128Y292366D01*
X247670Y293159D01*
X247022Y293807D01*
X246228Y294265D01*
X245343Y294502D01*
X244427D01*
X243542Y294265D01*
X242748Y293807D01*
X242100Y293159D01*
X241939Y292880D01*
X241439Y293014D01*
Y295300D01*
X241284Y296080D01*
X240842Y296742D01*
X181834Y355750D01*
X181172Y356192D01*
X180392Y356347D01*
X161305D01*
X161098Y356847D01*
X161453Y357201D01*
X161951Y358064D01*
X162209Y359026D01*
Y360023D01*
X161951Y360985D01*
X161453Y361848D01*
X160748Y362552D01*
X159886Y363050D01*
X158923Y363308D01*
D02*
G37*
G36*
X66086Y359780D02*
X65169D01*
X64284Y359542D01*
X63490Y359084D01*
X62843Y358436D01*
X62384Y357643D01*
X62147Y356757D01*
Y355841D01*
X62384Y354956D01*
X62843Y354162D01*
X63490Y353514D01*
X64284Y353056D01*
X65169Y352819D01*
X66086D01*
X66971Y353056D01*
X67764Y353514D01*
X68412Y354162D01*
X68871Y354956D01*
X69108Y355841D01*
Y356757D01*
X68871Y357643D01*
X68412Y358436D01*
X67764Y359084D01*
X66971Y359542D01*
X66086Y359780D01*
D02*
G37*
G36*
X47938Y348391D02*
X46861D01*
X45821Y348112D01*
X44888Y347573D01*
X44127Y346812D01*
X43588Y345879D01*
X43309Y344839D01*
Y343761D01*
X43588Y342721D01*
X44127Y341788D01*
X44888Y341027D01*
X45821Y340488D01*
X46861Y340210D01*
X47938D01*
X48979Y340488D01*
X49912Y341027D01*
X50673Y341788D01*
X51212Y342721D01*
X51490Y343761D01*
Y344839D01*
X51212Y345879D01*
X50673Y346812D01*
X49912Y347573D01*
X48979Y348112D01*
X47938Y348391D01*
D02*
G37*
G36*
X11472Y347691D02*
X10395D01*
X9354Y347412D01*
X8421Y346873D01*
X7660Y346112D01*
X7121Y345179D01*
X6842Y344139D01*
Y343061D01*
X7121Y342021D01*
X7660Y341088D01*
X8421Y340327D01*
X9354Y339788D01*
X10395Y339510D01*
X11472D01*
X12512Y339788D01*
X13445Y340327D01*
X14206Y341088D01*
X14745Y342021D01*
X15024Y343061D01*
Y344139D01*
X14745Y345179D01*
X14206Y346112D01*
X13445Y346873D01*
X12512Y347412D01*
X11472Y347691D01*
D02*
G37*
G36*
X78738Y347590D02*
X77662D01*
X76621Y347312D01*
X75688Y346773D01*
X74927Y346012D01*
X74388Y345079D01*
X74110Y344039D01*
Y342962D01*
X74388Y341921D01*
X74927Y340988D01*
X75688Y340227D01*
X76621Y339688D01*
X77662Y339409D01*
X78738D01*
X79779Y339688D01*
X80712Y340227D01*
X81473Y340988D01*
X82012Y341921D01*
X82291Y342962D01*
Y344039D01*
X82012Y345079D01*
X81473Y346012D01*
X80712Y346773D01*
X79779Y347312D01*
X78738Y347590D01*
D02*
G37*
G36*
X98923Y343308D02*
X97927D01*
X96965Y343050D01*
X96102Y342552D01*
X95398Y341848D01*
X94899Y340985D01*
X94642Y340023D01*
Y339026D01*
X94899Y338064D01*
X95398Y337201D01*
X96102Y336497D01*
X96965Y335999D01*
X97927Y335741D01*
X98923D01*
X99885Y335999D01*
X100748Y336497D01*
X101453Y337201D01*
X101951Y338064D01*
X102209Y339026D01*
Y340023D01*
X101951Y340985D01*
X101453Y341848D01*
X100748Y342552D01*
X99885Y343050D01*
X98923Y343308D01*
D02*
G37*
G36*
X31764Y328461D02*
X30801D01*
X29871Y328211D01*
X29037Y327730D01*
X28356Y327049D01*
X27874Y326215D01*
X27625Y325285D01*
Y324322D01*
X27874Y323392D01*
X28356Y322557D01*
X29037Y321877D01*
X29871Y321395D01*
X30801Y321146D01*
X31764D01*
X32694Y321395D01*
X33528Y321877D01*
X34209Y322557D01*
X34691Y323392D01*
X34940Y324322D01*
Y325285D01*
X34691Y326215D01*
X34209Y327049D01*
X33528Y327730D01*
X32694Y328211D01*
X31764Y328461D01*
D02*
G37*
G36*
X183139Y324991D02*
X182062D01*
X181021Y324712D01*
X180088Y324173D01*
X179327Y323412D01*
X178788Y322479D01*
X178509Y321439D01*
Y320361D01*
X178788Y319321D01*
X179327Y318388D01*
X180088Y317627D01*
X181021Y317088D01*
X182062Y316810D01*
X183139D01*
X184179Y317088D01*
X185112Y317627D01*
X185873Y318388D01*
X186412Y319321D01*
X186691Y320361D01*
Y321439D01*
X186412Y322479D01*
X185873Y323412D01*
X185112Y324173D01*
X184179Y324712D01*
X183139Y324991D01*
D02*
G37*
G36*
X65461Y308193D02*
Y305224D01*
X68430D01*
X68204Y306068D01*
X67746Y306861D01*
X67098Y307509D01*
X66304Y307967D01*
X65461Y308193D01*
D02*
G37*
G36*
X64461D02*
X63617Y307967D01*
X62824Y307509D01*
X62176Y306861D01*
X61717Y306068D01*
X61492Y305224D01*
X64461D01*
Y308193D01*
D02*
G37*
G36*
X68430Y304224D02*
X65461D01*
Y301255D01*
X66304Y301481D01*
X67098Y301940D01*
X67746Y302587D01*
X68204Y303381D01*
X68430Y304224D01*
D02*
G37*
G36*
X64461D02*
X61492D01*
X61717Y303381D01*
X62176Y302587D01*
X62824Y301940D01*
X63617Y301481D01*
X64461Y301255D01*
Y304224D01*
D02*
G37*
G36*
X85104Y308205D02*
X84188D01*
X83302Y307967D01*
X82509Y307509D01*
X81861Y306861D01*
X81402Y306068D01*
X81165Y305183D01*
Y304266D01*
X81402Y303381D01*
X81861Y302587D01*
X82509Y301940D01*
X83302Y301481D01*
X84188Y301244D01*
X85104D01*
X85989Y301481D01*
X86783Y301940D01*
X87431Y302587D01*
X87889Y303381D01*
X88126Y304266D01*
Y305183D01*
X87889Y306068D01*
X87431Y306861D01*
X86783Y307509D01*
X85989Y307967D01*
X85104Y308205D01*
D02*
G37*
G36*
X181978Y294475D02*
X181015D01*
X180084Y294226D01*
X179250Y293744D01*
X178569Y293063D01*
X178088Y292229D01*
X177910Y291564D01*
X161617D01*
X161453Y291848D01*
X160748Y292552D01*
X159886Y293050D01*
X158923Y293308D01*
X157927D01*
X156965Y293050D01*
X156102Y292552D01*
X155398Y291848D01*
X154900Y290985D01*
X154642Y290023D01*
Y289026D01*
X154900Y288064D01*
X155398Y287201D01*
X156102Y286497D01*
X156965Y285999D01*
X157927Y285741D01*
X158923D01*
X159886Y285999D01*
X160748Y286497D01*
X161453Y287201D01*
X161617Y287485D01*
X179952D01*
X180084Y287409D01*
X181015Y287160D01*
X181978D01*
X182908Y287409D01*
X183040Y287485D01*
X184828D01*
X191268Y281045D01*
Y275480D01*
X190768Y275328D01*
X190418Y275851D01*
X185303Y280966D01*
X184642Y281409D01*
X183861Y281564D01*
X161617D01*
X161453Y281848D01*
X160748Y282552D01*
X159886Y283050D01*
X158923Y283308D01*
X157927D01*
X156965Y283050D01*
X156102Y282552D01*
X155398Y281848D01*
X154900Y280985D01*
X154642Y280023D01*
Y279026D01*
X154900Y278064D01*
X155398Y277201D01*
X156102Y276497D01*
X156965Y275999D01*
X157927Y275741D01*
X158923D01*
X159886Y275999D01*
X160748Y276497D01*
X161453Y277201D01*
X161617Y277485D01*
X183017D01*
X186937Y273565D01*
Y243307D01*
X187092Y242527D01*
X187534Y241865D01*
X191865Y237534D01*
X191865Y237534D01*
X192527Y237092D01*
X193307Y236937D01*
X218001D01*
X218818Y236598D01*
X219764D01*
X220638Y236960D01*
X221307Y237629D01*
X221669Y238503D01*
Y239449D01*
X221307Y240323D01*
X220638Y240992D01*
X219764Y241354D01*
X218818D01*
X218001Y241016D01*
X194152D01*
X191016Y244152D01*
Y246662D01*
X191516Y246869D01*
X191771Y246614D01*
X192645Y246252D01*
X193591D01*
X194465Y246614D01*
X195134Y247283D01*
X195496Y248157D01*
Y249103D01*
X195157Y249921D01*
Y264626D01*
X195191Y264676D01*
X195346Y265457D01*
X195346Y265457D01*
Y281890D01*
X195191Y282670D01*
X194749Y283332D01*
X187114Y290967D01*
X186453Y291408D01*
X185672Y291564D01*
X185083D01*
X184904Y292229D01*
X184423Y293063D01*
X183742Y293744D01*
X182908Y294226D01*
X181978Y294475D01*
D02*
G37*
G36*
X224700Y294491D02*
X223857Y294265D01*
X223063Y293807D01*
X222415Y293159D01*
X221957Y292366D01*
X221731Y291522D01*
X224700D01*
Y294491D01*
D02*
G37*
G36*
X228669Y290522D02*
X225700D01*
Y287553D01*
X226543Y287779D01*
X227337Y288237D01*
X227985Y288885D01*
X228443Y289679D01*
X228669Y290522D01*
D02*
G37*
G36*
X224700D02*
X221731D01*
X221957Y289679D01*
X222415Y288885D01*
X223063Y288237D01*
X223857Y287779D01*
X224700Y287553D01*
Y290522D01*
D02*
G37*
G36*
X220587Y294475D02*
X213272D01*
Y287160D01*
X220587D01*
Y294475D01*
D02*
G37*
G36*
X197350Y288981D02*
Y287114D01*
X199217D01*
X198866Y287961D01*
X198197Y288630D01*
X197350Y288981D01*
D02*
G37*
G36*
X196350D02*
X195503Y288630D01*
X194834Y287961D01*
X194484Y287114D01*
X196350D01*
Y288981D01*
D02*
G37*
G36*
X98923Y293308D02*
X97927D01*
X96965Y293050D01*
X96102Y292552D01*
X95398Y291848D01*
X94899Y290985D01*
X94642Y290023D01*
Y289026D01*
X94899Y288064D01*
X95398Y287201D01*
X96102Y286497D01*
X96965Y285999D01*
X97927Y285741D01*
X98923D01*
X99885Y285999D01*
X100748Y286497D01*
X101453Y287201D01*
X101951Y288064D01*
X102209Y289026D01*
Y290023D01*
X101951Y290985D01*
X101453Y291848D01*
X100748Y292552D01*
X99885Y293050D01*
X98923Y293308D01*
D02*
G37*
G36*
X46177Y293027D02*
X38862D01*
Y285713D01*
X46177D01*
Y293027D01*
D02*
G37*
G36*
X34940D02*
X27625D01*
Y285713D01*
X34940D01*
Y293027D01*
D02*
G37*
G36*
X199217Y286114D02*
X197350D01*
Y284247D01*
X198197Y284598D01*
X198866Y285267D01*
X199217Y286114D01*
D02*
G37*
G36*
X196350D02*
X194484D01*
X194834Y285267D01*
X195503Y284598D01*
X196350Y284247D01*
Y286114D01*
D02*
G37*
G36*
X98923Y283308D02*
X97927D01*
X96965Y283050D01*
X96102Y282552D01*
X95398Y281848D01*
X94899Y280985D01*
X94642Y280023D01*
Y279026D01*
X94899Y278064D01*
X95398Y277201D01*
X96102Y276497D01*
X96965Y275999D01*
X97927Y275741D01*
X98923D01*
X99885Y275999D01*
X100748Y276497D01*
X101453Y277201D01*
X101951Y278064D01*
X102209Y279026D01*
Y280023D01*
X101951Y280985D01*
X101453Y281848D01*
X100748Y282552D01*
X99885Y283050D01*
X98923Y283308D01*
D02*
G37*
G36*
X45948Y278854D02*
X44985D01*
X44055Y278605D01*
X43221Y278124D01*
X42540Y277443D01*
X42058Y276609D01*
X41809Y275678D01*
Y274715D01*
X42058Y273785D01*
X42540Y272951D01*
X43221Y272270D01*
X44055Y271789D01*
X44985Y271539D01*
X45948D01*
X46878Y271789D01*
X47712Y272270D01*
X48393Y272951D01*
X48875Y273785D01*
X49124Y274715D01*
Y275678D01*
X48875Y276609D01*
X48393Y277443D01*
X47712Y278124D01*
X46878Y278605D01*
X45948Y278854D01*
D02*
G37*
G36*
X98925Y273307D02*
Y270024D01*
X102208D01*
X101951Y270985D01*
X101453Y271848D01*
X100748Y272552D01*
X99885Y273050D01*
X98925Y273307D01*
D02*
G37*
G36*
X97925D02*
X96965Y273050D01*
X96102Y272552D01*
X95398Y271848D01*
X94899Y270985D01*
X94642Y270024D01*
X97925D01*
Y273307D01*
D02*
G37*
G36*
X21760Y269296D02*
Y267429D01*
X23627D01*
X23276Y268276D01*
X22607Y268945D01*
X21760Y269296D01*
D02*
G37*
G36*
X20760D02*
X19913Y268945D01*
X19244Y268276D01*
X18893Y267429D01*
X20760D01*
Y269296D01*
D02*
G37*
G36*
X102208Y269024D02*
X98925D01*
Y265742D01*
X99885Y265999D01*
X100748Y266497D01*
X101453Y267201D01*
X101951Y268064D01*
X102208Y269024D01*
D02*
G37*
G36*
X97925D02*
X94642D01*
X94899Y268064D01*
X95398Y267201D01*
X96102Y266497D01*
X96965Y265999D01*
X97925Y265742D01*
Y269024D01*
D02*
G37*
G36*
X158923Y273308D02*
X157927D01*
X156965Y273050D01*
X156102Y272552D01*
X155398Y271848D01*
X154900Y270985D01*
X154642Y270023D01*
Y269026D01*
X154900Y268064D01*
X155398Y267201D01*
X156102Y266497D01*
X156965Y265999D01*
X157927Y265741D01*
X158923D01*
X159886Y265999D01*
X160748Y266497D01*
X161453Y267201D01*
X161951Y268064D01*
X162209Y269026D01*
Y270023D01*
X161951Y270985D01*
X161453Y271848D01*
X160748Y272552D01*
X159886Y273050D01*
X158923Y273308D01*
D02*
G37*
G36*
X33713Y268480D02*
X33666D01*
Y264831D01*
X37316D01*
Y264877D01*
X37033Y265932D01*
X36487Y266879D01*
X35714Y267651D01*
X34768Y268197D01*
X33713Y268480D01*
D02*
G37*
G36*
X32666D02*
X32620D01*
X31565Y268197D01*
X30618Y267651D01*
X29846Y266879D01*
X29300Y265932D01*
X29017Y264877D01*
Y264831D01*
X32666D01*
Y268480D01*
D02*
G37*
G36*
X23627Y266429D02*
X21760D01*
Y264562D01*
X22607Y264913D01*
X23276Y265582D01*
X23627Y266429D01*
D02*
G37*
G36*
X20760D02*
X18893D01*
X19244Y265582D01*
X19913Y264913D01*
X20760Y264562D01*
Y266429D01*
D02*
G37*
G36*
X37316Y263831D02*
X33666D01*
Y260181D01*
X33713D01*
X34768Y260464D01*
X35714Y261010D01*
X36487Y261783D01*
X37033Y262729D01*
X37316Y263784D01*
Y263831D01*
D02*
G37*
G36*
X32666D02*
X29017D01*
Y263784D01*
X29300Y262729D01*
X29846Y261783D01*
X30618Y261010D01*
X31565Y260464D01*
X32620Y260181D01*
X32666D01*
Y263831D01*
D02*
G37*
G36*
X181649Y266512D02*
X180556D01*
X179501Y266229D01*
X178554Y265683D01*
X177782Y264910D01*
X177236Y263964D01*
X176953Y262909D01*
Y261816D01*
X177236Y260760D01*
X177782Y259814D01*
X178554Y259042D01*
X179501Y258495D01*
X180556Y258213D01*
X181649D01*
X182704Y258495D01*
X183650Y259042D01*
X184423Y259814D01*
X184969Y260760D01*
X185252Y261816D01*
Y262909D01*
X184969Y263964D01*
X184423Y264910D01*
X183650Y265683D01*
X182704Y266229D01*
X181649Y266512D01*
D02*
G37*
G36*
X158923Y263308D02*
X157927D01*
X156965Y263050D01*
X156102Y262552D01*
X155398Y261848D01*
X154900Y260985D01*
X154642Y260023D01*
Y259026D01*
X154900Y258064D01*
X155398Y257201D01*
X156102Y256497D01*
X156965Y255999D01*
X157927Y255741D01*
X158923D01*
X159886Y255999D01*
X160748Y256497D01*
X161453Y257201D01*
X161951Y258064D01*
X162209Y259026D01*
Y260023D01*
X161951Y260985D01*
X161453Y261848D01*
X160748Y262552D01*
X159886Y263050D01*
X158923Y263308D01*
D02*
G37*
G36*
X98923D02*
X97927D01*
X96965Y263050D01*
X96102Y262552D01*
X95398Y261848D01*
X94899Y260985D01*
X94642Y260023D01*
Y259026D01*
X94899Y258064D01*
X95398Y257201D01*
X96102Y256497D01*
X96965Y255999D01*
X97927Y255741D01*
X98923D01*
X99885Y255999D01*
X100748Y256497D01*
X101453Y257201D01*
X101951Y258064D01*
X102209Y259026D01*
Y260023D01*
X101951Y260985D01*
X101453Y261848D01*
X100748Y262552D01*
X99885Y263050D01*
X98923Y263308D01*
D02*
G37*
G36*
X158923Y253308D02*
X157927D01*
X156965Y253050D01*
X156102Y252552D01*
X155398Y251848D01*
X154900Y250985D01*
X154642Y250023D01*
Y249026D01*
X154900Y248064D01*
X155398Y247201D01*
X156102Y246497D01*
X156965Y245999D01*
X157927Y245741D01*
X158923D01*
X159886Y245999D01*
X160748Y246497D01*
X161453Y247201D01*
X161951Y248064D01*
X162209Y249026D01*
Y250023D01*
X161951Y250985D01*
X161453Y251848D01*
X160748Y252552D01*
X159886Y253050D01*
X158923Y253308D01*
D02*
G37*
G36*
X98923D02*
X97927D01*
X96965Y253050D01*
X96102Y252552D01*
X95398Y251848D01*
X94899Y250985D01*
X94642Y250023D01*
Y249026D01*
X94899Y248064D01*
X95398Y247201D01*
X96102Y246497D01*
X96965Y245999D01*
X97927Y245741D01*
X98923D01*
X99885Y245999D01*
X100748Y246497D01*
X101453Y247201D01*
X101951Y248064D01*
X102209Y249026D01*
Y250023D01*
X101951Y250985D01*
X101453Y251848D01*
X100748Y252552D01*
X99885Y253050D01*
X98923Y253308D01*
D02*
G37*
G36*
X34741Y248502D02*
X31592D01*
X30919Y248414D01*
X30293Y248155D01*
X29755Y247742D01*
X29342Y247204D01*
X29083Y246578D01*
X28995Y245905D01*
Y242756D01*
X29083Y242084D01*
X29342Y241457D01*
X29755Y240919D01*
X30293Y240507D01*
X30919Y240247D01*
X31592Y240159D01*
X34741D01*
X35413Y240247D01*
X36040Y240507D01*
X36577Y240919D01*
X36990Y241457D01*
X37250Y242084D01*
X37338Y242756D01*
Y245905D01*
X37250Y246578D01*
X36990Y247204D01*
X36577Y247742D01*
X36040Y248155D01*
X35413Y248414D01*
X34741Y248502D01*
D02*
G37*
G36*
X98925Y243307D02*
Y240024D01*
X102208D01*
X101951Y240985D01*
X101453Y241848D01*
X100748Y242552D01*
X99885Y243050D01*
X98925Y243307D01*
D02*
G37*
G36*
X97925D02*
X96965Y243050D01*
X96102Y242552D01*
X95398Y241848D01*
X94899Y240985D01*
X94642Y240024D01*
X97925D01*
Y243307D01*
D02*
G37*
G36*
X33713Y258480D02*
X32620D01*
X31565Y258197D01*
X30618Y257651D01*
X29846Y256879D01*
X29300Y255932D01*
X29017Y254877D01*
Y253784D01*
X29300Y252729D01*
X29846Y251783D01*
X30618Y251010D01*
X31565Y250464D01*
X32620Y250181D01*
X33713D01*
X34768Y250464D01*
X35714Y251010D01*
X35792Y251088D01*
X42959Y243921D01*
X42752Y243421D01*
X41809D01*
Y236106D01*
X49124D01*
Y243421D01*
X47506D01*
Y244297D01*
X47506Y244297D01*
X47350Y245078D01*
X46909Y245739D01*
X46909Y245739D01*
X37698Y254950D01*
X37209Y255277D01*
X37033Y255932D01*
X36487Y256879D01*
X35714Y257651D01*
X34768Y258197D01*
X33713Y258480D01*
D02*
G37*
G36*
X102208Y239024D02*
X98925D01*
Y235742D01*
X99885Y235999D01*
X100748Y236497D01*
X101453Y237201D01*
X101951Y238064D01*
X102208Y239024D01*
D02*
G37*
G36*
X97925D02*
X94642D01*
X94899Y238064D01*
X95398Y237201D01*
X96102Y236497D01*
X96965Y235999D01*
X97925Y235742D01*
Y239024D01*
D02*
G37*
G36*
X223909Y236225D02*
X223062Y235874D01*
X222393Y235205D01*
X222043Y234358D01*
X223909D01*
Y236225D01*
D02*
G37*
G36*
X215067D02*
Y234358D01*
X216934D01*
X216583Y235205D01*
X215914Y235874D01*
X215067Y236225D01*
D02*
G37*
G36*
X214067D02*
X213220Y235874D01*
X212551Y235205D01*
X212200Y234358D01*
X214067D01*
Y236225D01*
D02*
G37*
G36*
X230028Y235831D02*
Y233965D01*
X231894D01*
X231543Y234812D01*
X230875Y235480D01*
X230028Y235831D01*
D02*
G37*
G36*
X223909Y233358D02*
X222043D01*
X222393Y232511D01*
X223062Y231842D01*
X223909Y231491D01*
Y233358D01*
D02*
G37*
G36*
X216934D02*
X215067D01*
Y231491D01*
X215914Y231842D01*
X216583Y232511D01*
X216934Y233358D01*
D02*
G37*
G36*
X214067D02*
X212200D01*
X212551Y232511D01*
X213220Y231842D01*
X214067Y231491D01*
Y233358D01*
D02*
G37*
G36*
X231894Y232965D02*
X230028D01*
Y231098D01*
X230875Y231449D01*
X231543Y232118D01*
X231894Y232965D01*
D02*
G37*
G36*
X224909Y236225D02*
Y233858D01*
Y231491D01*
X225756Y231842D01*
X226425Y232511D01*
X226650Y233053D01*
X227083Y233000D01*
X227158Y232972D01*
X227512Y232118D01*
X228181Y231449D01*
X229028Y231098D01*
Y233465D01*
Y235831D01*
X228181Y235480D01*
X227512Y234812D01*
X227287Y234270D01*
X226854Y234323D01*
X226779Y234350D01*
X226425Y235205D01*
X225756Y235874D01*
X224909Y236225D01*
D02*
G37*
G36*
X187656Y231665D02*
X186740D01*
X185855Y231428D01*
X185061Y230970D01*
X184413Y230322D01*
X183955Y229528D01*
X183718Y228643D01*
Y227727D01*
X183955Y226842D01*
X184413Y226048D01*
X185061Y225400D01*
X185855Y224942D01*
X186740Y224705D01*
X187656D01*
X188542Y224942D01*
X189335Y225400D01*
X189983Y226048D01*
X190441Y226842D01*
X190679Y227727D01*
Y228643D01*
X190441Y229528D01*
X189983Y230322D01*
X189335Y230970D01*
X188542Y231428D01*
X187656Y231665D01*
D02*
G37*
G36*
X31201Y225455D02*
X29634D01*
Y220795D01*
X34294D01*
Y222362D01*
X34189Y223163D01*
X33880Y223909D01*
X33388Y224549D01*
X32747Y225041D01*
X32001Y225350D01*
X31201Y225455D01*
D02*
G37*
G36*
X28634D02*
X27067D01*
X26266Y225350D01*
X25520Y225041D01*
X24880Y224549D01*
X24388Y223909D01*
X24079Y223163D01*
X23974Y222362D01*
Y220795D01*
X28634D01*
Y225455D01*
D02*
G37*
G36*
X34294Y219795D02*
X29634D01*
Y215135D01*
X31201D01*
X32001Y215240D01*
X32747Y215549D01*
X33388Y216041D01*
X33880Y216681D01*
X34189Y217427D01*
X34294Y218228D01*
Y219795D01*
D02*
G37*
G36*
X28634D02*
X23974D01*
Y218228D01*
X24079Y217427D01*
X24388Y216681D01*
X24880Y216041D01*
X25520Y215549D01*
X26266Y215240D01*
X27067Y215135D01*
X28634D01*
Y219795D01*
D02*
G37*
G36*
X133159Y221276D02*
X132196D01*
X131265Y221026D01*
X130431Y220545D01*
X129751Y219864D01*
X129269Y219030D01*
X129020Y218100D01*
Y217137D01*
X129269Y216206D01*
X129751Y215372D01*
X130431Y214691D01*
X131265Y214210D01*
X132196Y213961D01*
X133159D01*
X134089Y214210D01*
X134923Y214691D01*
X135604Y215372D01*
X136085Y216206D01*
X136335Y217137D01*
Y218100D01*
X136085Y219030D01*
X135604Y219864D01*
X134923Y220545D01*
X134089Y221026D01*
X133159Y221276D01*
D02*
G37*
G36*
X100902D02*
X93587D01*
Y213961D01*
X100902D01*
Y221276D01*
D02*
G37*
G36*
X187698Y211969D02*
Y209000D01*
X190667D01*
X190441Y209843D01*
X189983Y210637D01*
X189335Y211285D01*
X188542Y211743D01*
X187698Y211969D01*
D02*
G37*
G36*
X186698D02*
X185855Y211743D01*
X185061Y211285D01*
X184413Y210637D01*
X183955Y209843D01*
X183729Y209000D01*
X186698D01*
Y211969D01*
D02*
G37*
G36*
X234160Y216256D02*
X233197D01*
X232266Y216007D01*
X231432Y215525D01*
X230751Y214844D01*
X230270Y214010D01*
X230021Y213080D01*
Y212117D01*
X230270Y211187D01*
X230751Y210353D01*
X231432Y209672D01*
X232266Y209190D01*
X233197Y208941D01*
X234160D01*
X235090Y209190D01*
X235924Y209672D01*
X236605Y210353D01*
X237086Y211187D01*
X237336Y212117D01*
Y213080D01*
X237086Y214010D01*
X236605Y214844D01*
X235924Y215525D01*
X235090Y216007D01*
X234160Y216256D01*
D02*
G37*
G36*
X222922D02*
X221959D01*
X221029Y216007D01*
X220195Y215525D01*
X219514Y214844D01*
X219033Y214010D01*
X218783Y213080D01*
Y212117D01*
X219033Y211187D01*
X219514Y210353D01*
X220195Y209672D01*
X221029Y209190D01*
X221959Y208941D01*
X222922D01*
X223853Y209190D01*
X224687Y209672D01*
X225368Y210353D01*
X225849Y211187D01*
X226098Y212117D01*
Y213080D01*
X225849Y214010D01*
X225368Y214844D01*
X224687Y215525D01*
X223853Y216007D01*
X222922Y216256D01*
D02*
G37*
G36*
X211111D02*
X210149D01*
X209218Y216007D01*
X208384Y215525D01*
X207703Y214844D01*
X207222Y214010D01*
X206973Y213080D01*
Y212117D01*
X207222Y211187D01*
X207703Y210353D01*
X208384Y209672D01*
X209218Y209190D01*
X210149Y208941D01*
X211111D01*
X212042Y209190D01*
X212876Y209672D01*
X213557Y210353D01*
X214038Y211187D01*
X214287Y212117D01*
Y213080D01*
X214038Y214010D01*
X213557Y214844D01*
X212876Y215525D01*
X212042Y216007D01*
X211111Y216256D01*
D02*
G37*
G36*
X199301D02*
X198337D01*
X197407Y216007D01*
X196573Y215525D01*
X195892Y214844D01*
X195411Y214010D01*
X195161Y213080D01*
Y212117D01*
X195411Y211187D01*
X195892Y210353D01*
X196573Y209672D01*
X197407Y209190D01*
X198337Y208941D01*
X199301D01*
X200231Y209190D01*
X201065Y209672D01*
X201746Y210353D01*
X202227Y211187D01*
X202477Y212117D01*
Y213080D01*
X202227Y214010D01*
X201746Y214844D01*
X201065Y215525D01*
X200231Y216007D01*
X199301Y216256D01*
D02*
G37*
G36*
X190667Y208000D02*
X187698D01*
Y205031D01*
X188542Y205257D01*
X189335Y205715D01*
X189983Y206363D01*
X190441Y207157D01*
X190667Y208000D01*
D02*
G37*
G36*
X186698D02*
X183729D01*
X183955Y207157D01*
X184413Y206363D01*
X185061Y205715D01*
X185855Y205257D01*
X186698Y205031D01*
Y208000D01*
D02*
G37*
G36*
X29810Y195429D02*
X28458D01*
X27152Y195079D01*
X25982Y194403D01*
X25026Y193447D01*
X24350Y192277D01*
X24000Y190971D01*
Y189619D01*
X24350Y188313D01*
X25026Y187143D01*
X25982Y186187D01*
X27152Y185511D01*
X28458Y185161D01*
X29810D01*
X31115Y185511D01*
X32286Y186187D01*
X33242Y187143D01*
X33918Y188313D01*
X34268Y189619D01*
Y190971D01*
X33918Y192277D01*
X33242Y193447D01*
X32286Y194403D01*
X31115Y195079D01*
X29810Y195429D01*
D02*
G37*
G36*
X53229Y213795D02*
X52283D01*
X51409Y213433D01*
X50740Y212764D01*
X50378Y211890D01*
Y210944D01*
X50740Y210070D01*
X51409Y209401D01*
X52227Y209063D01*
X70731Y190558D01*
X71393Y190116D01*
X72173Y189961D01*
X144163D01*
X156616Y177508D01*
X156628Y177500D01*
X156646Y177458D01*
X157314Y176789D01*
X158188Y176427D01*
X159134D01*
X160008Y176789D01*
X160677Y177458D01*
X161039Y178332D01*
Y179278D01*
X160677Y180152D01*
X160008Y180821D01*
X159134Y181183D01*
X158709D01*
X146450Y193442D01*
X145788Y193884D01*
X145008Y194039D01*
X73018D01*
X55111Y211947D01*
X54772Y212764D01*
X54103Y213433D01*
X53229Y213795D01*
D02*
G37*
G36*
X65025Y183579D02*
X57709D01*
Y176264D01*
X65025D01*
Y183579D01*
D02*
G37*
G36*
X108242Y177300D02*
X105273D01*
X105499Y176457D01*
X105958Y175663D01*
X106606Y175015D01*
X107399Y174557D01*
X108242Y174331D01*
Y177300D01*
D02*
G37*
G36*
X237336Y180823D02*
X230021D01*
Y173508D01*
X237336D01*
Y180823D01*
D02*
G37*
G36*
X226098D02*
X218783D01*
Y173508D01*
X226098D01*
Y180823D01*
D02*
G37*
G36*
X214287D02*
X206973D01*
Y173508D01*
X214287D01*
Y180823D01*
D02*
G37*
G36*
X202477D02*
X195161D01*
Y173508D01*
X202477D01*
Y180823D01*
D02*
G37*
G36*
X251070Y180429D02*
X249718D01*
X248412Y180080D01*
X247241Y179404D01*
X246286Y178448D01*
X245610Y177277D01*
X245260Y175971D01*
Y174620D01*
X245610Y173314D01*
X246286Y172143D01*
X247241Y171187D01*
X248412Y170512D01*
X249718Y170162D01*
X251070D01*
X252375Y170512D01*
X253546Y171187D01*
X254502Y172143D01*
X255178Y173314D01*
X255528Y174620D01*
Y175971D01*
X255178Y177277D01*
X254502Y178448D01*
X253546Y179404D01*
X252375Y180080D01*
X251070Y180429D01*
D02*
G37*
G36*
X29810Y180429D02*
X28458D01*
X27152Y180079D01*
X25982Y179403D01*
X25026Y178447D01*
X24350Y177277D01*
X24000Y175971D01*
Y174619D01*
X24350Y173313D01*
X25026Y172143D01*
X25982Y171187D01*
X27152Y170511D01*
X28458Y170161D01*
X29810D01*
X31115Y170511D01*
X32286Y171187D01*
X33242Y172143D01*
X33918Y173313D01*
X34268Y174619D01*
Y175971D01*
X33918Y177277D01*
X33242Y178447D01*
X32286Y179403D01*
X31115Y180079D01*
X29810Y180429D01*
D02*
G37*
G36*
X220193Y168224D02*
X212878D01*
Y160909D01*
X220193D01*
Y168224D01*
D02*
G37*
G36*
X151449Y168224D02*
X150486D01*
X149556Y167975D01*
X148722Y167493D01*
X148040Y166813D01*
X147559Y165979D01*
X147310Y165048D01*
Y164085D01*
X147559Y163155D01*
X148040Y162321D01*
X148722Y161640D01*
X149556Y161159D01*
X150486Y160909D01*
X151449D01*
X152379Y161159D01*
X153213Y161640D01*
X153894Y162321D01*
X154375Y163155D01*
X154625Y164085D01*
Y165048D01*
X154375Y165979D01*
X153894Y166813D01*
X153213Y167493D01*
X152379Y167975D01*
X151449Y168224D01*
D02*
G37*
G36*
X177758Y167991D02*
X170442D01*
Y160676D01*
X177758D01*
Y167991D01*
D02*
G37*
G36*
X131575Y156709D02*
X130629D01*
X129812Y156370D01*
X123747D01*
X123747Y156370D01*
X122966Y156215D01*
X122609Y155976D01*
X117433D01*
X116615Y156315D01*
X115669D01*
X114795Y155953D01*
X114126Y155284D01*
X113764Y154410D01*
Y153464D01*
X114126Y152590D01*
X114795Y151921D01*
X115669Y151559D01*
X116615D01*
X117433Y151898D01*
X123353D01*
X124133Y152053D01*
X124490Y152292D01*
X129812D01*
X130629Y151953D01*
X131575D01*
X132449Y152315D01*
X133118Y152984D01*
X133480Y153858D01*
Y154804D01*
X133118Y155678D01*
X132449Y156347D01*
X131575Y156709D01*
D02*
G37*
G36*
X273701Y296472D02*
X272755D01*
X271881Y296110D01*
X271212Y295442D01*
X270850Y294567D01*
Y293621D01*
X271212Y292747D01*
X271444Y292516D01*
Y276332D01*
X270621Y276112D01*
X269688Y275573D01*
X268927Y274812D01*
X268388Y273879D01*
X268109Y272838D01*
Y271761D01*
X268388Y270721D01*
X268927Y269788D01*
X269688Y269027D01*
X270621Y268488D01*
X271444Y268268D01*
Y168869D01*
X252552Y149978D01*
X252375Y150080D01*
X251070Y150429D01*
X249718D01*
X248412Y150080D01*
X247241Y149404D01*
X246286Y148448D01*
X245610Y147277D01*
X245260Y145972D01*
Y144620D01*
X245610Y143314D01*
X246286Y142143D01*
X247241Y141188D01*
X248412Y140512D01*
X249718Y140162D01*
X251070D01*
X252375Y140512D01*
X253546Y141188D01*
X254502Y142143D01*
X255178Y143314D01*
X255528Y144620D01*
Y145972D01*
X255178Y147277D01*
X255076Y147454D01*
X274490Y166868D01*
X274877Y167447D01*
X275013Y168130D01*
Y269328D01*
X275473Y269788D01*
X276012Y270721D01*
X276290Y271761D01*
Y272838D01*
X276012Y273879D01*
X275473Y274812D01*
X275013Y275272D01*
Y292516D01*
X275244Y292747D01*
X275606Y293621D01*
Y294567D01*
X275244Y295442D01*
X274575Y296110D01*
X273701Y296472D01*
D02*
G37*
G36*
X143027Y168225D02*
X135713D01*
Y160909D01*
X135756D01*
Y154388D01*
X131045Y149677D01*
X85936D01*
X85119Y150016D01*
X84173D01*
X83299Y149654D01*
X82630Y148985D01*
X82268Y148111D01*
Y147165D01*
X82630Y146291D01*
X83299Y145622D01*
X84173Y145260D01*
X85119D01*
X85936Y145599D01*
X98615D01*
X98822Y145099D01*
X98378Y144654D01*
X98184Y144185D01*
X96589Y142590D01*
X83181D01*
X82363Y142929D01*
X81417D01*
X80543Y142567D01*
X79874Y141898D01*
X79512Y141024D01*
Y140078D01*
X79874Y139204D01*
X80543Y138535D01*
X81417Y138173D01*
X82363D01*
X83181Y138512D01*
X97433D01*
X98214Y138667D01*
X98875Y139109D01*
X100695Y140929D01*
X100867D01*
X101741Y141291D01*
X102410Y141960D01*
X102772Y142834D01*
Y143780D01*
X102410Y144654D01*
X101965Y145099D01*
X102172Y145599D01*
X131890D01*
X132670Y145754D01*
X133332Y146196D01*
X139237Y152101D01*
X139679Y152763D01*
X139834Y153543D01*
Y160909D01*
X143027D01*
Y168225D01*
D02*
G37*
G36*
X205193Y145680D02*
X204277D01*
X203391Y145443D01*
X202598Y144985D01*
X201950Y144337D01*
X201492Y143543D01*
X201254Y142658D01*
Y142343D01*
X200754Y142136D01*
X199248Y143642D01*
X198587Y144084D01*
X197806Y144239D01*
X187891D01*
X187835Y144337D01*
X187187Y144985D01*
X186393Y145443D01*
X185508Y145680D01*
X184591D01*
X183706Y145443D01*
X182913Y144985D01*
X182265Y144337D01*
X181807Y143543D01*
X181569Y142658D01*
Y141742D01*
X181807Y140857D01*
X182265Y140063D01*
X182913Y139415D01*
X183706Y138957D01*
X184591Y138720D01*
X185508D01*
X186393Y138957D01*
X187187Y139415D01*
X187835Y140063D01*
X187891Y140161D01*
X196962D01*
X200865Y136258D01*
X201526Y135816D01*
X201429Y135326D01*
X125468D01*
X124785Y135190D01*
X124206Y134803D01*
X124206Y134803D01*
X119080Y129677D01*
X118618Y129868D01*
Y130324D01*
X114961D01*
X111303D01*
Y128200D01*
X82721D01*
X82525Y128700D01*
X82936Y129412D01*
X83185Y130342D01*
Y131305D01*
X82936Y132235D01*
X82454Y133070D01*
X81773Y133750D01*
X80939Y134232D01*
X80009Y134481D01*
X79046D01*
X78116Y134232D01*
X77282Y133750D01*
X76601Y133070D01*
X76119Y132235D01*
X75907Y131442D01*
X75414Y131227D01*
X75085Y131557D01*
X74506Y131944D01*
X73823Y132079D01*
X33971D01*
X33918Y132277D01*
X33242Y133447D01*
X32286Y134403D01*
X31115Y135079D01*
X29810Y135429D01*
X28458D01*
X27152Y135079D01*
X25982Y134403D01*
X25026Y133447D01*
X24350Y132277D01*
X24000Y130971D01*
Y129619D01*
X24350Y128313D01*
X25026Y127143D01*
X25982Y126187D01*
X27152Y125511D01*
X28458Y125161D01*
X29810D01*
X31115Y125511D01*
X32286Y126187D01*
X33242Y127143D01*
X33918Y128313D01*
X33971Y128511D01*
X73084D01*
X76440Y125155D01*
X76440Y125155D01*
X77019Y124768D01*
X77702Y124632D01*
X118343D01*
X119026Y124768D01*
X119605Y125155D01*
X126207Y131757D01*
X136176D01*
X136373Y131257D01*
X135962Y130546D01*
X135713Y129615D01*
Y128652D01*
X135962Y127722D01*
X136443Y126888D01*
X137124Y126207D01*
X137958Y125726D01*
X138889Y125476D01*
X139851D01*
X140782Y125726D01*
X141616Y126207D01*
X142297Y126888D01*
X142778Y127722D01*
X143027Y128652D01*
Y129615D01*
X142778Y130546D01*
X142367Y131257D01*
X142564Y131757D01*
X147310D01*
Y125476D01*
X154625D01*
Y131757D01*
X159342D01*
X159549Y131257D01*
X159278Y130986D01*
X158796Y130152D01*
X158547Y129222D01*
Y128259D01*
X158796Y127329D01*
X159278Y126495D01*
X159959Y125813D01*
X160793Y125332D01*
X161723Y125083D01*
X162686D01*
X163616Y125332D01*
X164450Y125813D01*
X165131Y126495D01*
X165613Y127329D01*
X165862Y128259D01*
Y129222D01*
X165613Y130152D01*
X165131Y130986D01*
X164860Y131257D01*
X165067Y131757D01*
X171131D01*
X171323Y131295D01*
X171173Y131146D01*
X170692Y130312D01*
X170442Y129382D01*
Y128419D01*
X170692Y127488D01*
X171173Y126654D01*
X171854Y125973D01*
X172688Y125492D01*
X173618Y125242D01*
X174582D01*
X175512Y125492D01*
X176346Y125973D01*
X177027Y126654D01*
X177508Y127488D01*
X177758Y128419D01*
Y129382D01*
X177508Y130312D01*
X177027Y131146D01*
X176877Y131295D01*
X177069Y131757D01*
X213342D01*
X213538Y131257D01*
X213127Y130546D01*
X212878Y129615D01*
Y128652D01*
X213127Y127722D01*
X213609Y126888D01*
X214290Y126207D01*
X215124Y125726D01*
X216054Y125476D01*
X217017D01*
X217947Y125726D01*
X218781Y126207D01*
X219462Y126888D01*
X219944Y127722D01*
X220166Y128552D01*
X220456Y128731D01*
X220693Y128801D01*
X220924Y128647D01*
X221607Y128511D01*
X221607Y128511D01*
X245557D01*
X245610Y128314D01*
X246286Y127143D01*
X247241Y126188D01*
X248412Y125512D01*
X249718Y125162D01*
X251070D01*
X252375Y125512D01*
X253546Y126188D01*
X254502Y127143D01*
X255178Y128314D01*
X255528Y129620D01*
Y130972D01*
X255178Y132277D01*
X254502Y133448D01*
X253546Y134404D01*
X252375Y135080D01*
X251070Y135430D01*
X249718D01*
X248412Y135080D01*
X247241Y134404D01*
X246286Y133448D01*
X245610Y132277D01*
X245557Y132079D01*
X236335D01*
Y132650D01*
X236086Y133580D01*
X235604Y134414D01*
X234923Y135095D01*
X234089Y135576D01*
X233159Y135826D01*
X232196D01*
X231265Y135576D01*
X230432Y135095D01*
X229751Y134414D01*
X229269Y133580D01*
X229020Y132650D01*
Y132079D01*
X222346D01*
X219623Y134803D01*
X219478Y134900D01*
X219353Y135579D01*
X219410Y135661D01*
X222409D01*
X223227Y135322D01*
X224173D01*
X225047Y135684D01*
X225716Y136353D01*
X226078Y137227D01*
Y138173D01*
X225716Y139047D01*
X225047Y139716D01*
X224173Y140078D01*
X223227D01*
X222409Y139739D01*
X207856D01*
X207621Y140239D01*
X207978Y140857D01*
X208215Y141742D01*
Y142658D01*
X207978Y143543D01*
X207520Y144337D01*
X206872Y144985D01*
X206078Y145443D01*
X205193Y145680D01*
D02*
G37*
G36*
X76262Y148146D02*
X68947D01*
Y140831D01*
X76262D01*
Y148146D01*
D02*
G37*
G36*
X61848Y148146D02*
X60886D01*
X59955Y147896D01*
X59121Y147415D01*
X58440Y146734D01*
X57959Y145900D01*
X57709Y144970D01*
Y144007D01*
X57959Y143077D01*
X58440Y142242D01*
X59121Y141561D01*
X59955Y141080D01*
X60886Y140831D01*
X61848D01*
X62779Y141080D01*
X63613Y141561D01*
X64294Y142242D01*
X64775Y143077D01*
X65025Y144007D01*
Y144970D01*
X64775Y145900D01*
X64294Y146734D01*
X63613Y147415D01*
X62779Y147896D01*
X61848Y148146D01*
D02*
G37*
G36*
X117429Y143647D02*
Y140494D01*
X120582D01*
X120337Y141406D01*
X119856Y142240D01*
X119175Y142921D01*
X118341Y143402D01*
X117429Y143647D01*
D02*
G37*
G36*
X116429D02*
X115517Y143402D01*
X114683Y142921D01*
X114003Y142240D01*
X113521Y141406D01*
X113277Y140494D01*
X116429D01*
Y143647D01*
D02*
G37*
G36*
X120582Y139494D02*
X117429D01*
Y136342D01*
X118341Y136586D01*
X119175Y137067D01*
X119856Y137748D01*
X120337Y138582D01*
X120582Y139494D01*
D02*
G37*
G36*
X116429D02*
X113277D01*
X113521Y138582D01*
X114003Y137748D01*
X114683Y137067D01*
X115517Y136586D01*
X116429Y136342D01*
Y139494D01*
D02*
G37*
G36*
X118618Y134481D02*
X115461D01*
Y131324D01*
X118618D01*
Y134481D01*
D02*
G37*
G36*
X114461D02*
X111303D01*
Y131324D01*
X114461D01*
Y134481D01*
D02*
G37*
G36*
X168977Y125213D02*
X168031D01*
X167157Y124851D01*
X166488Y124182D01*
X166294Y123713D01*
X165093Y122512D01*
X152866D01*
X152048Y122850D01*
X151102D01*
X150228Y122488D01*
X149559Y121819D01*
X149197Y120945D01*
Y119999D01*
X149559Y119125D01*
X150228Y118456D01*
X151102Y118095D01*
X152048D01*
X152866Y118433D01*
X165937D01*
X166718Y118588D01*
X167379Y119030D01*
X168805Y120457D01*
X168977D01*
X169851Y120819D01*
X170520Y121488D01*
X170882Y122362D01*
Y123308D01*
X170520Y124182D01*
X169851Y124851D01*
X168977Y125213D01*
D02*
G37*
G36*
X200079Y129937D02*
X199133D01*
X198259Y129575D01*
X197590Y128906D01*
X197228Y128032D01*
Y127086D01*
X197590Y126212D01*
X198259Y125543D01*
X199133Y125181D01*
X200079D01*
X200897Y125520D01*
X208312D01*
X213893Y119939D01*
X214232Y119121D01*
X214901Y118452D01*
X215775Y118090D01*
X216721D01*
X217595Y118452D01*
X218264Y119121D01*
X218626Y119995D01*
Y120941D01*
X218264Y121815D01*
X217595Y122484D01*
X216777Y122823D01*
X210599Y129001D01*
X209937Y129443D01*
X209157Y129598D01*
X200897D01*
X200079Y129937D01*
D02*
G37*
G36*
X251070Y105429D02*
X249718D01*
X248412Y105080D01*
X247241Y104404D01*
X246286Y103448D01*
X245610Y102277D01*
X245260Y100971D01*
Y99620D01*
X245610Y98314D01*
X246286Y97143D01*
X247241Y96188D01*
X248412Y95512D01*
X249718Y95162D01*
X251070D01*
X252375Y95512D01*
X253546Y96188D01*
X254502Y97143D01*
X255178Y98314D01*
X255528Y99620D01*
Y100971D01*
X255178Y102277D01*
X254502Y103448D01*
X253546Y104404D01*
X252375Y105080D01*
X251070Y105429D01*
D02*
G37*
G36*
X236335Y100393D02*
X229020D01*
Y93078D01*
X236335D01*
Y100393D01*
D02*
G37*
G36*
X116996Y91359D02*
X113937D01*
Y88300D01*
X116996D01*
Y91359D01*
D02*
G37*
G36*
X112937D02*
X109878D01*
Y88300D01*
X112937D01*
Y91359D01*
D02*
G37*
G36*
X116996Y87300D02*
X113937D01*
Y84241D01*
X116996D01*
Y87300D01*
D02*
G37*
G36*
X112937D02*
X109878D01*
Y84241D01*
X112937D01*
Y87300D01*
D02*
G37*
G36*
X140638Y88408D02*
X133323D01*
Y81093D01*
X140638D01*
Y88408D01*
D02*
G37*
G36*
X180009Y87910D02*
X179046D01*
X178116Y87660D01*
X177282Y87179D01*
X176601Y86498D01*
X176119Y85664D01*
X175870Y84733D01*
Y83771D01*
X176119Y82840D01*
X176601Y82006D01*
X177282Y81325D01*
X178116Y80844D01*
X179046Y80594D01*
X180009D01*
X180939Y80844D01*
X181773Y81325D01*
X182454Y82006D01*
X182936Y82840D01*
X183185Y83771D01*
Y84733D01*
X182936Y85664D01*
X182454Y86498D01*
X181773Y87179D01*
X180939Y87660D01*
X180009Y87910D01*
D02*
G37*
G36*
X251070Y90430D02*
X249718D01*
X248412Y90080D01*
X247241Y89404D01*
X246286Y88448D01*
X245610Y87277D01*
X245260Y85971D01*
Y84620D01*
X245610Y83314D01*
X246286Y82143D01*
X247241Y81187D01*
X248412Y80512D01*
X249718Y80162D01*
X251070D01*
X252375Y80512D01*
X253546Y81187D01*
X254502Y82143D01*
X255178Y83314D01*
X255528Y84620D01*
Y85971D01*
X255178Y87277D01*
X254502Y88448D01*
X253546Y89404D01*
X252375Y90080D01*
X251070Y90430D01*
D02*
G37*
G36*
X149942Y81674D02*
Y78705D01*
X152911D01*
X152685Y79548D01*
X152227Y80342D01*
X151579Y80990D01*
X150785Y81448D01*
X149942Y81674D01*
D02*
G37*
G36*
X148942D02*
X148099Y81448D01*
X147305Y80990D01*
X146657Y80342D01*
X146199Y79548D01*
X145973Y78705D01*
X148942D01*
Y81674D01*
D02*
G37*
G36*
X152911Y77705D02*
X149942D01*
Y74736D01*
X150785Y74962D01*
X151579Y75420D01*
X152227Y76068D01*
X152685Y76862D01*
X152911Y77705D01*
D02*
G37*
G36*
X148942D02*
X145973D01*
X146199Y76862D01*
X146657Y76068D01*
X147305Y75420D01*
X148099Y74962D01*
X148942Y74736D01*
Y77705D01*
D02*
G37*
G36*
X140756Y68340D02*
X140736D01*
Y64887D01*
X144189D01*
Y64907D01*
X143919Y65913D01*
X143399Y66814D01*
X142663Y67550D01*
X141762Y68071D01*
X140756Y68340D01*
D02*
G37*
G36*
X139736D02*
X139715D01*
X138710Y68071D01*
X137809Y67550D01*
X137073Y66814D01*
X136552Y65913D01*
X136283Y64907D01*
Y64887D01*
X139736D01*
Y68340D01*
D02*
G37*
G36*
X144189Y63887D02*
X140736D01*
Y60434D01*
X140756D01*
X141762Y60704D01*
X142663Y61224D01*
X143399Y61960D01*
X143919Y62861D01*
X144189Y63867D01*
Y63887D01*
D02*
G37*
G36*
X139736D02*
X136283D01*
Y63867D01*
X136552Y62861D01*
X137073Y61960D01*
X137809Y61224D01*
X138710Y60704D01*
X139715Y60434D01*
X139736D01*
Y63887D01*
D02*
G37*
G36*
X120756Y68340D02*
X119715D01*
X118710Y68071D01*
X117809Y67550D01*
X117073Y66814D01*
X116552Y65913D01*
X116283Y64907D01*
Y63867D01*
X116552Y62861D01*
X117073Y61960D01*
X117809Y61224D01*
X118710Y60704D01*
X119715Y60434D01*
X120756D01*
X121762Y60704D01*
X122663Y61224D01*
X123399Y61960D01*
X123919Y62861D01*
X124189Y63867D01*
Y64907D01*
X123919Y65913D01*
X123399Y66814D01*
X122663Y67550D01*
X121762Y68071D01*
X120756Y68340D01*
D02*
G37*
G36*
X123757Y59005D02*
X123736D01*
Y55553D01*
X127189D01*
Y55573D01*
X126920Y56578D01*
X126399Y57480D01*
X125663Y58215D01*
X124762Y58736D01*
X123757Y59005D01*
D02*
G37*
G36*
X122736D02*
X122716D01*
X121711Y58736D01*
X120809Y58215D01*
X120073Y57480D01*
X119553Y56578D01*
X119283Y55573D01*
Y55553D01*
X122736D01*
Y59005D01*
D02*
G37*
G36*
X127189Y54553D02*
X123736D01*
Y51100D01*
X123757D01*
X124762Y51369D01*
X125663Y51889D01*
X126399Y52625D01*
X126920Y53527D01*
X127189Y54532D01*
Y54553D01*
D02*
G37*
G36*
X122736D02*
X119283D01*
Y54532D01*
X119553Y53527D01*
X120073Y52625D01*
X120809Y51889D01*
X121711Y51369D01*
X122716Y51100D01*
X122736D01*
Y54553D01*
D02*
G37*
G36*
X113757Y59005D02*
X112716D01*
X111711Y58736D01*
X110809Y58215D01*
X110073Y57480D01*
X109553Y56578D01*
X109283Y55573D01*
Y54532D01*
X109553Y53527D01*
X110073Y52625D01*
X110809Y51889D01*
X111711Y51369D01*
X112716Y51100D01*
X113757D01*
X114762Y51369D01*
X115663Y51889D01*
X116399Y52625D01*
X116920Y53527D01*
X117189Y54532D01*
Y55573D01*
X116920Y56578D01*
X116399Y57480D01*
X115663Y58215D01*
X114762Y58736D01*
X113757Y59005D01*
D02*
G37*
G36*
X207339Y54491D02*
X207300D01*
Y50900D01*
X210891D01*
Y50938D01*
X210612Y51979D01*
X210073Y52912D01*
X209312Y53673D01*
X208379Y54212D01*
X207339Y54491D01*
D02*
G37*
G36*
X206300D02*
X206261D01*
X205221Y54212D01*
X204288Y53673D01*
X203527Y52912D01*
X202988Y51979D01*
X202709Y50938D01*
Y50900D01*
X206300D01*
Y54491D01*
D02*
G37*
G36*
X222538D02*
X221462D01*
X220421Y54212D01*
X219488Y53673D01*
X218727Y52912D01*
X218188Y51979D01*
X217910Y50938D01*
Y49861D01*
X218188Y48821D01*
X218727Y47888D01*
X219488Y47127D01*
X220421Y46588D01*
X221462Y46309D01*
X222538D01*
X223579Y46588D01*
X224512Y47127D01*
X225273Y47888D01*
X225812Y48821D01*
X226091Y49861D01*
Y50938D01*
X225812Y51979D01*
X225273Y52912D01*
X224512Y53673D01*
X223579Y54212D01*
X222538Y54491D01*
D02*
G37*
G36*
X210891Y49900D02*
X207300D01*
Y46309D01*
X207339D01*
X208379Y46588D01*
X209312Y47127D01*
X210073Y47888D01*
X210612Y48821D01*
X210891Y49861D01*
Y49900D01*
D02*
G37*
G36*
X206300D02*
X202709D01*
Y49861D01*
X202988Y48821D01*
X203527Y47888D01*
X204288Y47127D01*
X205221Y46588D01*
X206261Y46309D01*
X206300D01*
Y49900D01*
D02*
G37*
G36*
X193038Y54491D02*
X191962D01*
X190921Y54212D01*
X189988Y53673D01*
X189227Y52912D01*
X188688Y51979D01*
X188409Y50938D01*
Y49861D01*
X188688Y48821D01*
X189227Y47888D01*
X189988Y47127D01*
X190921Y46588D01*
X191962Y46309D01*
X193038D01*
X194079Y46588D01*
X195012Y47127D01*
X195773Y47888D01*
X196312Y48821D01*
X196591Y49861D01*
Y50938D01*
X196312Y51979D01*
X195773Y52912D01*
X195012Y53673D01*
X194079Y54212D01*
X193038Y54491D01*
D02*
G37*
G36*
X177839D02*
X176761D01*
X175721Y54212D01*
X174788Y53673D01*
X174027Y52912D01*
X173488Y51979D01*
X173209Y50938D01*
Y49861D01*
X173488Y48821D01*
X174027Y47888D01*
X174788Y47127D01*
X175721Y46588D01*
X176761Y46309D01*
X177839D01*
X178879Y46588D01*
X179812Y47127D01*
X180573Y47888D01*
X181112Y48821D01*
X181391Y49861D01*
Y50938D01*
X181112Y51979D01*
X180573Y52912D01*
X179812Y53673D01*
X178879Y54212D01*
X177839Y54491D01*
D02*
G37*
G36*
X208190Y37516D02*
X208014D01*
Y32882D01*
X212648D01*
Y33058D01*
X212298Y34363D01*
X211622Y35534D01*
X210666Y36490D01*
X209496Y37166D01*
X208190Y37516D01*
D02*
G37*
G36*
X207014D02*
X206838D01*
X205533Y37166D01*
X204362Y36490D01*
X203406Y35534D01*
X202730Y34363D01*
X202380Y33058D01*
Y32882D01*
X207014D01*
Y37516D01*
D02*
G37*
G36*
X223190D02*
X221838D01*
X220532Y37166D01*
X219362Y36490D01*
X218406Y35534D01*
X217730Y34363D01*
X217380Y33058D01*
Y31706D01*
X217730Y30400D01*
X218406Y29230D01*
X219362Y28274D01*
X220532Y27598D01*
X221838Y27248D01*
X223190D01*
X224496Y27598D01*
X225666Y28274D01*
X226622Y29230D01*
X227298Y30400D01*
X227648Y31706D01*
Y33058D01*
X227298Y34363D01*
X226622Y35534D01*
X225666Y36490D01*
X224496Y37166D01*
X223190Y37516D01*
D02*
G37*
G36*
X212648Y31882D02*
X208014D01*
Y27248D01*
X208190D01*
X209496Y27598D01*
X210666Y28274D01*
X211622Y29230D01*
X212298Y30400D01*
X212648Y31706D01*
Y31882D01*
D02*
G37*
G36*
X207014D02*
X202380D01*
Y31706D01*
X202730Y30400D01*
X203406Y29230D01*
X204362Y28274D01*
X205533Y27598D01*
X206838Y27248D01*
X207014D01*
Y31882D01*
D02*
G37*
G36*
X193190Y37516D02*
X191838D01*
X190533Y37166D01*
X189362Y36490D01*
X188406Y35534D01*
X187730Y34363D01*
X187380Y33058D01*
Y31706D01*
X187730Y30400D01*
X188406Y29230D01*
X189362Y28274D01*
X190533Y27598D01*
X191838Y27248D01*
X193190D01*
X194496Y27598D01*
X195666Y28274D01*
X196622Y29230D01*
X197298Y30400D01*
X197648Y31706D01*
Y33058D01*
X197298Y34363D01*
X196622Y35534D01*
X195666Y36490D01*
X194496Y37166D01*
X193190Y37516D01*
D02*
G37*
G36*
X178190D02*
X176838D01*
X175532Y37166D01*
X174362Y36490D01*
X173406Y35534D01*
X172730Y34363D01*
X172380Y33058D01*
Y31706D01*
X172730Y30400D01*
X173406Y29230D01*
X174362Y28274D01*
X175532Y27598D01*
X176838Y27248D01*
X178190D01*
X179496Y27598D01*
X180666Y28274D01*
X181622Y29230D01*
X182298Y30400D01*
X182648Y31706D01*
Y33058D01*
X182298Y34363D01*
X181622Y35534D01*
X180666Y36490D01*
X179496Y37166D01*
X178190Y37516D01*
D02*
G37*
G36*
X163190D02*
X161838D01*
X160532Y37166D01*
X159362Y36490D01*
X158406Y35534D01*
X157730Y34363D01*
X157380Y33058D01*
Y31706D01*
X157730Y30400D01*
X158406Y29230D01*
X159362Y28274D01*
X160532Y27598D01*
X161838Y27248D01*
X163190D01*
X164496Y27598D01*
X165666Y28274D01*
X166622Y29230D01*
X167298Y30400D01*
X167648Y31706D01*
Y33058D01*
X167298Y34363D01*
X166622Y35534D01*
X165666Y36490D01*
X164496Y37166D01*
X163190Y37516D01*
D02*
G37*
G36*
X148190D02*
X146838D01*
X145533Y37166D01*
X144362Y36490D01*
X143406Y35534D01*
X142730Y34363D01*
X142380Y33058D01*
Y31706D01*
X142730Y30400D01*
X143406Y29230D01*
X144362Y28274D01*
X145533Y27598D01*
X146838Y27248D01*
X148190D01*
X149496Y27598D01*
X150666Y28274D01*
X151622Y29230D01*
X152298Y30400D01*
X152648Y31706D01*
Y33058D01*
X152298Y34363D01*
X151622Y35534D01*
X150666Y36490D01*
X149496Y37166D01*
X148190Y37516D01*
D02*
G37*
G36*
X133190D02*
X131838D01*
X130533Y37166D01*
X129362Y36490D01*
X128406Y35534D01*
X127730Y34363D01*
X127380Y33058D01*
Y31706D01*
X127730Y30400D01*
X128406Y29230D01*
X129362Y28274D01*
X130533Y27598D01*
X131838Y27248D01*
X133190D01*
X134496Y27598D01*
X135666Y28274D01*
X136622Y29230D01*
X137298Y30400D01*
X137648Y31706D01*
Y33058D01*
X137298Y34363D01*
X136622Y35534D01*
X135666Y36490D01*
X134496Y37166D01*
X133190Y37516D01*
D02*
G37*
G36*
X100800Y108667D02*
Y106800D01*
X102667D01*
X102316Y107647D01*
X101647Y108316D01*
X100800Y108667D01*
D02*
G37*
G36*
X99800D02*
X98953Y108316D01*
X98284Y107647D01*
X97933Y106800D01*
X99800D01*
Y108667D01*
D02*
G37*
G36*
X102667Y105800D02*
X100800D01*
Y103933D01*
X101647Y104284D01*
X102316Y104953D01*
X102667Y105800D01*
D02*
G37*
G36*
X99800D02*
X97933D01*
X98284Y104953D01*
X98953Y104284D01*
X99800Y103933D01*
Y105800D01*
D02*
G37*
G36*
X84752Y85831D02*
Y83965D01*
X86619D01*
X86268Y84812D01*
X85599Y85480D01*
X84752Y85831D01*
D02*
G37*
G36*
X83752D02*
X82905Y85480D01*
X82236Y84812D01*
X81885Y83965D01*
X83752D01*
Y85831D01*
D02*
G37*
G36*
X86619Y82965D02*
X84752D01*
Y81098D01*
X85599Y81449D01*
X86268Y82118D01*
X86619Y82965D01*
D02*
G37*
G36*
X83752D02*
X81885D01*
X82236Y82118D01*
X82905Y81449D01*
X83752Y81098D01*
Y82965D01*
D02*
G37*
G36*
X74248Y80139D02*
Y77170D01*
X77217D01*
X76991Y78013D01*
X76533Y78807D01*
X75885Y79455D01*
X75091Y79913D01*
X74248Y80139D01*
D02*
G37*
%LPD*%
D35*
X272200Y272300D02*
D03*
X259500D02*
D03*
X222000Y50400D02*
D03*
X78200Y343500D02*
D03*
X206800Y50400D02*
D03*
X70600Y219700D02*
D03*
X194900Y320900D02*
D03*
X192500Y50400D02*
D03*
X47400Y344300D02*
D03*
X244900Y254400D02*
D03*
X134500Y183600D02*
D03*
X10933Y343600D02*
D03*
X177300Y50400D02*
D03*
X182600Y320900D02*
D03*
X204200Y374700D02*
D03*
X204500Y77400D02*
D03*
D47*
X98425Y249524D02*
D03*
X158425Y269525D02*
D03*
X98425D02*
D03*
Y239525D02*
D03*
X158425Y289525D02*
D03*
Y309524D02*
D03*
X98425Y339525D02*
D03*
X158425Y379524D02*
D03*
Y369525D02*
D03*
X98425Y319525D02*
D03*
X158425Y359524D02*
D03*
Y329524D02*
D03*
Y349524D02*
D03*
Y339525D02*
D03*
X98425Y369525D02*
D03*
Y259524D02*
D03*
Y279524D02*
D03*
Y289525D02*
D03*
Y329524D02*
D03*
Y349524D02*
D03*
Y359524D02*
D03*
Y379524D02*
D03*
X158425Y319525D02*
D03*
Y299524D02*
D03*
Y279524D02*
D03*
Y259524D02*
D03*
Y249524D02*
D03*
X98425Y299524D02*
D03*
Y309524D02*
D03*
D48*
X158425Y239525D02*
D03*
D51*
X63100Y56796D02*
Y102470D01*
X66535Y105905D01*
X46063Y181890D02*
Y222163D01*
X52100Y228200D01*
X72173Y192000D02*
X145008D01*
X52756Y211417D02*
X72173Y192000D01*
X69200Y219700D02*
Y263936D01*
X61811Y271325D02*
Y285039D01*
X69200Y208359D02*
Y219700D01*
X61811Y271325D02*
X69200Y263936D01*
X109055Y386221D02*
X115751Y379524D01*
X77016Y371504D02*
X91732Y386221D01*
X109055D01*
X115751Y379524D02*
X158425D01*
X60480Y371504D02*
X77016D01*
X135174Y364308D02*
X140391Y369525D01*
X84780Y364308D02*
X135174D01*
X140391Y369525D02*
X158425D01*
X36256Y253508D02*
X45467Y244297D01*
X33989Y253508D02*
X36256D01*
X45467Y239764D02*
Y244297D01*
X33166Y254331D02*
X33989Y253508D01*
X2331Y241669D02*
Y313354D01*
X60480Y371504D01*
X18504Y215925D02*
X29134Y205295D01*
X16209Y289384D02*
X24069Y297244D01*
X16209Y235490D02*
X18504Y233195D01*
X16209Y235490D02*
Y289384D01*
X18504Y215925D02*
Y233195D01*
X24069Y297244D02*
X46670D01*
X12992Y177508D02*
Y295722D01*
X28422Y311152D01*
X12992Y177508D02*
X29134Y161366D01*
X58415Y313139D02*
X64800Y319525D01*
X98425D01*
X58415Y285884D02*
Y313139D01*
X213779Y155905D02*
X215997Y153688D01*
X206494Y155905D02*
X213779D01*
X188700Y173700D02*
X206494Y155905D01*
X215997Y149751D02*
Y153688D01*
Y149751D02*
X216142Y149606D01*
X116142Y153937D02*
X123353D01*
X123747Y154331D01*
X131102D01*
X199606Y127559D02*
X209157D01*
X216248Y120468D01*
X119764Y74819D02*
Y104834D01*
X117323Y107276D02*
X119764Y104834D01*
X97433Y140551D02*
X100189Y143307D01*
X81890Y140551D02*
X97433D01*
X100189Y143307D02*
X100394D01*
X168299Y122835D02*
X168504D01*
X151575Y120472D02*
X165937D01*
X168299Y122835D01*
X44882Y229528D02*
X48425Y233071D01*
X35638Y229528D02*
X44882D01*
X33275Y231890D02*
X35638Y229528D01*
X33071Y231890D02*
X33275D01*
X108443Y112134D02*
X185110D01*
X108109Y111800D02*
X108443Y112134D01*
X91700Y111800D02*
X108109D01*
X63100Y56796D02*
X87514Y32382D01*
X52100Y228200D02*
Y279570D01*
X58415Y285884D01*
X29134Y160295D02*
Y161366D01*
X3937Y170492D02*
X29134Y145295D01*
X3937Y170492D02*
Y240063D01*
X232800Y243000D02*
Y291200D01*
X194475Y329524D02*
X232800Y291200D01*
Y243000D02*
X232900Y242900D01*
X169127Y104227D02*
X173400Y108500D01*
X169127Y78205D02*
Y104227D01*
X48400Y327928D02*
X84780Y364308D01*
X35455Y311152D02*
X48400Y324097D01*
Y327928D01*
X145008Y192000D02*
X158058Y178950D01*
X134200Y172300D02*
X134600Y171900D01*
X134200Y172300D02*
Y180000D01*
X134600Y171900D02*
X180082D01*
X115272Y177085D02*
X116929Y175427D01*
X115272Y177085D02*
Y178328D01*
X116929Y175427D02*
X120456Y171900D01*
X198127Y83772D02*
X204500Y77400D01*
X191818Y83772D02*
X198127D01*
X191339Y84252D02*
X191818Y83772D01*
X184458Y142200D02*
X197806D01*
X202306Y137700D01*
X223700D01*
X156600Y190900D02*
Y200009D01*
Y190900D02*
X172000Y175500D01*
X155428Y201181D02*
X156600Y200009D01*
X76378Y201181D02*
X155428D01*
X69200Y208359D02*
X76378Y201181D01*
X236700Y218989D02*
X250394Y205296D01*
X235800Y266900D02*
X236700Y266000D01*
Y218989D02*
Y266000D01*
X235800Y266900D02*
Y293900D01*
X195448Y334252D02*
X235800Y293900D01*
X180392Y354308D02*
X239400Y295300D01*
Y272800D02*
Y295300D01*
Y272800D02*
X250394Y261806D01*
X103209Y354308D02*
X180392D01*
X160462Y334252D02*
X195448D01*
X158425Y329524D02*
X194475D01*
X250394Y220296D02*
Y261806D01*
X111200Y182400D02*
X115272Y178328D01*
X75433Y182400D02*
X111200D01*
X117323Y107276D02*
Y107480D01*
X84646Y147638D02*
X131890D01*
X137795Y153543D01*
Y162992D01*
X139370Y164567D01*
X100300Y99213D02*
X109843Y108756D01*
X100300Y68700D02*
Y99213D01*
X72604Y179921D02*
X72955D01*
X75433Y182400D01*
X180082Y171900D02*
X192040Y183858D01*
X120456Y171900D02*
X134600D01*
X2331Y241669D02*
X3937Y240063D01*
X28422Y311152D02*
X35455D01*
X185672Y289525D02*
X193307Y281890D01*
X193118Y248630D02*
Y265268D01*
X193307Y265457D01*
Y281890D01*
X158425Y289525D02*
X185672D01*
X153543Y224803D02*
X181102Y252362D01*
X153543Y204724D02*
Y224803D01*
X158517Y178950D02*
X158661Y178805D01*
X158058Y178950D02*
X158517D01*
X193307Y238976D02*
X219291D01*
X188976Y243307D02*
X193307Y238976D01*
X188976Y243307D02*
Y274410D01*
X183861Y279524D02*
X188976Y274410D01*
X158425Y279524D02*
X183861D01*
X156444Y334308D02*
X160406D01*
X98425Y329524D02*
X103153Y334252D01*
X156388D01*
X156444Y334308D01*
X160406D02*
X160462Y334252D01*
X98425Y349524D02*
X103209Y354308D01*
X185110Y112134D02*
X191339Y105905D01*
Y84252D02*
Y105905D01*
X46670Y297244D02*
X53757Y290157D01*
X192040Y183858D02*
X257874D01*
D52*
X238976Y27953D02*
Y79134D01*
X229921Y18898D02*
X238976Y27953D01*
X115998Y18898D02*
X229921D01*
X102514Y32382D02*
X115998Y18898D01*
X234646Y29528D02*
Y75984D01*
X228740Y23622D02*
X234646Y29528D01*
X126274Y23622D02*
X228740D01*
X117514Y32382D02*
X126274Y23622D01*
X70467Y294100D02*
X76842Y287724D01*
Y265400D02*
Y287724D01*
X62000Y294100D02*
X70467D01*
X139686Y314173D02*
X204331D01*
X135037Y309524D02*
X139686Y314173D01*
X137560Y299524D02*
X142436Y304400D01*
X206700D01*
X98425Y309524D02*
X135037D01*
X273228Y168130D02*
Y293307D01*
X262124Y264300D02*
Y289451D01*
X261811Y289764D02*
X262124Y289451D01*
X250394Y160296D02*
X256359D01*
X262124Y166061D01*
Y264300D01*
X261811Y289764D02*
Y300787D01*
X250394Y145296D02*
X273228Y168130D01*
X98425Y299524D02*
X137560D01*
X194318Y150000D02*
X211811D01*
X193924Y149606D02*
X194318Y150000D01*
X176771Y149606D02*
X193924D01*
X162204Y164173D02*
X176771Y149606D01*
X118343Y126416D02*
X125468Y133541D01*
X218361D01*
X73823Y130295D02*
X77702Y126416D01*
X218361Y133541D02*
X221607Y130295D01*
X250393D01*
X29134D02*
X73823D01*
X77702Y126416D02*
X118343D01*
X250393Y130295D02*
X250394Y130296D01*
X121421Y114884D02*
X249982D01*
X250394Y115296D01*
X29134D02*
X121009D01*
X121421Y114884D01*
X29134Y115295D02*
X29134Y115296D01*
D53*
X82022Y7874D02*
X229134D01*
X250394Y29134D01*
Y55296D01*
X57514Y32382D02*
X82022Y7874D01*
X250000Y54902D02*
X250394Y55296D01*
D57*
X123236Y55053D02*
D03*
X113236D02*
D03*
X103236D02*
D03*
X140236Y64387D02*
D03*
X120236D02*
D03*
X90236D02*
D03*
D58*
X93236Y55053D02*
D03*
X80236Y64387D02*
D03*
D59*
X108742Y177800D02*
D03*
X89057D02*
D03*
X149442Y78205D02*
D03*
X169127D02*
D03*
X65627Y356299D02*
D03*
Y375984D02*
D03*
X187198Y208500D02*
D03*
Y228185D02*
D03*
X57157Y265400D02*
D03*
X76842D02*
D03*
X52249Y356299D02*
D03*
Y375984D02*
D03*
X64961Y304724D02*
D03*
X84646D02*
D03*
X204735Y142200D02*
D03*
X185050D02*
D03*
X38870Y356299D02*
D03*
Y375984D02*
D03*
X225200Y291022D02*
D03*
X244885D02*
D03*
X40600Y107642D02*
D03*
Y87958D02*
D03*
X93433Y76670D02*
D03*
X73748D02*
D03*
D60*
X42520Y289370D02*
D03*
X31282D02*
D03*
X116929Y175427D02*
D03*
X150967Y129134D02*
D03*
X174100Y164333D02*
D03*
X179528Y119685D02*
D03*
X232677Y96735D02*
D03*
X124803Y119291D02*
D03*
X162204Y164173D02*
D03*
X233678Y177165D02*
D03*
X45467Y239764D02*
D03*
X139370Y164567D02*
D03*
X222441Y177165D02*
D03*
X20866Y238976D02*
D03*
X40765Y19685D02*
D03*
X210630Y177165D02*
D03*
X51100Y44883D02*
D03*
X191339Y119685D02*
D03*
X198819Y177165D02*
D03*
X53757Y289370D02*
D03*
X61367Y179921D02*
D03*
X72604Y144488D02*
D03*
X136980Y84751D02*
D03*
X216535Y164567D02*
D03*
D61*
X42520Y324803D02*
D03*
X31282D02*
D03*
X116929Y139994D02*
D03*
X150967Y164567D02*
D03*
X174100Y128900D02*
D03*
X179528Y84252D02*
D03*
X232677Y132168D02*
D03*
X124803Y83858D02*
D03*
X162204Y128740D02*
D03*
X233678Y212598D02*
D03*
X45467Y275197D02*
D03*
X132283Y206381D02*
D03*
X139370Y129134D02*
D03*
X222441Y212598D02*
D03*
X20866Y274409D02*
D03*
X40765Y55118D02*
D03*
X132677Y217618D02*
D03*
X210630Y212598D02*
D03*
X51100Y80317D02*
D03*
X181496Y290817D02*
D03*
X191339Y84252D02*
D03*
X198819Y212598D02*
D03*
X53757Y324803D02*
D03*
X61367Y144488D02*
D03*
X72604Y179921D02*
D03*
X79528Y130824D02*
D03*
X136980Y120184D02*
D03*
X216535Y129134D02*
D03*
D62*
X147514Y32382D02*
D03*
X72514D02*
D03*
X87514D02*
D03*
X177514D02*
D03*
X162514D02*
D03*
X132514D02*
D03*
X192514D02*
D03*
X207514D02*
D03*
X102514D02*
D03*
X222514D02*
D03*
X117514D02*
D03*
X250394Y115296D02*
D03*
Y130296D02*
D03*
Y205296D02*
D03*
Y220296D02*
D03*
Y175296D02*
D03*
Y85296D02*
D03*
Y70296D02*
D03*
Y190296D02*
D03*
Y145296D02*
D03*
Y100296D02*
D03*
Y160296D02*
D03*
X29134Y55295D02*
D03*
Y70295D02*
D03*
Y100295D02*
D03*
Y115295D02*
D03*
Y130295D02*
D03*
Y160295D02*
D03*
Y205295D02*
D03*
Y145295D02*
D03*
Y85295D02*
D03*
Y175295D02*
D03*
Y190295D02*
D03*
D63*
X57514Y32382D02*
D03*
D64*
X181102Y242362D02*
D03*
X7480Y244724D02*
D03*
X33166Y244331D02*
D03*
D65*
X181102Y252362D02*
D03*
Y262362D02*
D03*
X33166Y264331D02*
D03*
X7480Y264724D02*
D03*
Y254725D02*
D03*
X33166Y254331D02*
D03*
D66*
X263779Y377953D02*
D03*
X15748Y15748D02*
D03*
Y377953D02*
D03*
X263779Y15748D02*
D03*
D67*
X96850Y206381D02*
D03*
X97244Y217618D02*
D03*
X216929Y290817D02*
D03*
X114961Y130824D02*
D03*
D68*
X113437Y87800D02*
D03*
D69*
X105563D02*
D03*
D70*
X250394Y55296D02*
D03*
X29134Y220295D02*
D03*
D71*
X84252Y83465D02*
D03*
X238976Y79134D02*
D03*
X234646Y75984D02*
D03*
X66535Y105905D02*
D03*
X46063Y181890D02*
D03*
X52756Y211417D02*
D03*
X21260Y266929D02*
D03*
X61811Y285039D02*
D03*
X216142Y149606D02*
D03*
X116142Y153937D02*
D03*
X131102Y154331D02*
D03*
X199606Y127559D02*
D03*
X119764Y74819D02*
D03*
X204331Y314173D02*
D03*
X81890Y140551D02*
D03*
X216248Y120468D02*
D03*
X168504Y122835D02*
D03*
X48425Y233071D02*
D03*
X229528Y233465D02*
D03*
X206700Y304400D02*
D03*
X91700Y111800D02*
D03*
X100300Y106300D02*
D03*
X188700Y173700D02*
D03*
X232900Y242900D02*
D03*
X173400Y108500D02*
D03*
X62000Y294100D02*
D03*
X100394Y143307D02*
D03*
X33071Y231890D02*
D03*
X223700Y137700D02*
D03*
X214567Y233858D02*
D03*
X224410D02*
D03*
X196850Y286614D02*
D03*
X261811Y300787D02*
D03*
X172000Y175500D02*
D03*
X273228Y294094D02*
D03*
X211811Y150000D02*
D03*
X84646Y147638D02*
D03*
X109843Y108756D02*
D03*
X100300Y68700D02*
D03*
X193118Y248630D02*
D03*
X117323Y107480D02*
D03*
X151575Y120472D02*
D03*
X153543Y204724D02*
D03*
X158661Y178805D02*
D03*
X219291Y238976D02*
D03*
D72*
X257874Y183858D02*
D03*
M02*
