G04*
G04 #@! TF.GenerationSoftware,Altium Limited,Altium Designer,26.1.1 (7)*
G04*
G04 Layer_Color=8421504*
%FSLAX25Y25*%
%MOIN*%
G70*
G04*
G04 #@! TF.SameCoordinates,B0E09198-756F-40DB-88A9-0B99AA1CEF91*
G04*
G04*
G04 #@! TF.FilePolarity,Positive*
G04*
G01*
G75*
%ADD16R,0.02165X0.05905*%
%ADD17R,0.04803X0.01575*%
%ADD18R,0.02362X0.05709*%
%ADD19O,0.08858X0.02559*%
%ADD20R,0.05984X0.02362*%
G04:AMPARAMS|DCode=21|XSize=73.78mil|YSize=21.34mil|CornerRadius=10.67mil|HoleSize=0mil|Usage=FLASHONLY|Rotation=180.000|XOffset=0mil|YOffset=0mil|HoleType=Round|Shape=RoundedRectangle|*
%AMROUNDEDRECTD21*
21,1,0.07378,0.00000,0,0,180.0*
21,1,0.05244,0.02134,0,0,180.0*
1,1,0.02134,-0.02622,0.00000*
1,1,0.02134,0.02622,0.00000*
1,1,0.02134,0.02622,0.00000*
1,1,0.02134,-0.02622,0.00000*
%
%ADD21ROUNDEDRECTD21*%
%ADD22R,0.07378X0.02134*%
G04:AMPARAMS|DCode=23|XSize=21.65mil|YSize=49.21mil|CornerRadius=1.95mil|HoleSize=0mil|Usage=FLASHONLY|Rotation=90.000|XOffset=0mil|YOffset=0mil|HoleType=Round|Shape=RoundedRectangle|*
%AMROUNDEDRECTD23*
21,1,0.02165,0.04532,0,0,90.0*
21,1,0.01776,0.04921,0,0,90.0*
1,1,0.00390,0.02266,0.00888*
1,1,0.00390,0.02266,-0.00888*
1,1,0.00390,-0.02266,-0.00888*
1,1,0.00390,-0.02266,0.00888*
%
%ADD23ROUNDEDRECTD23*%
D16*
X199567Y223620D02*
D03*
X204568D02*
D03*
X209567D02*
D03*
X214567D02*
D03*
X219567D02*
D03*
X224568D02*
D03*
X229568D02*
D03*
X199566Y244881D02*
D03*
X204566D02*
D03*
X209566D02*
D03*
X214566D02*
D03*
X219566D02*
D03*
X224566D02*
D03*
X229566D02*
D03*
D17*
X78386Y286319D02*
D03*
Y288878D02*
D03*
Y291437D02*
D03*
X68071Y286319D02*
D03*
Y291437D02*
D03*
Y288878D02*
D03*
X78386Y293996D02*
D03*
X68071D02*
D03*
D18*
X204567Y259305D02*
D03*
X209567D02*
D03*
X224567D02*
D03*
X214567Y280762D02*
D03*
X229567D02*
D03*
X199567Y259305D02*
D03*
X204567Y280762D02*
D03*
X209567D02*
D03*
X229567Y259305D02*
D03*
X214567D02*
D03*
X219567Y280762D02*
D03*
Y259305D02*
D03*
X224567Y280762D02*
D03*
X199567D02*
D03*
D19*
X51734Y106300D02*
D03*
Y96300D02*
D03*
Y91300D02*
D03*
X93466Y101300D02*
D03*
Y96300D02*
D03*
X51734Y101300D02*
D03*
X93466Y91300D02*
D03*
Y106300D02*
D03*
D20*
X103782Y164705D02*
D03*
X82208Y159705D02*
D03*
Y164705D02*
D03*
Y169705D02*
D03*
Y154705D02*
D03*
X103782Y159705D02*
D03*
Y154705D02*
D03*
Y169705D02*
D03*
D21*
X165811Y103287D02*
D03*
X147575Y108287D02*
D03*
Y103287D02*
D03*
Y98287D02*
D03*
X165811D02*
D03*
X147575Y93287D02*
D03*
X165811Y108287D02*
D03*
D22*
Y93287D02*
D03*
D23*
X202838Y119274D02*
D03*
Y109274D02*
D03*
Y104274D02*
D03*
X223507Y119274D02*
D03*
Y114275D02*
D03*
Y109274D02*
D03*
X202838Y114275D02*
D03*
X223507Y104274D02*
D03*
M02*
