G04*
G04 #@! TF.GenerationSoftware,Altium Limited,Altium Designer,26.1.1 (7)*
G04*
G04 Layer_Color=65535*
%FSLAX25Y25*%
%MOIN*%
G70*
G04*
G04 #@! TF.SameCoordinates,3F132659-CDCA-43B9-939C-0D513323B7BC*
G04*
G04*
G04 #@! TF.FilePolarity,Positive*
G04*
G01*
G75*
%ADD10C,0.00984*%
%ADD11C,0.02362*%
%ADD12C,0.01000*%
%ADD13C,0.00787*%
%ADD14C,0.00591*%
%ADD15C,0.03937*%
G36*
X250705Y323109D02*
X250805Y323075D01*
X251342Y323042D01*
X251443Y323008D01*
X252097Y322958D01*
X252701Y322924D01*
X253137Y322891D01*
X253305Y322857D01*
X253439Y322824D01*
X253892Y322773D01*
X254463Y322740D01*
X254563Y322706D01*
X254748Y322656D01*
X254916Y322622D01*
X255520Y322589D01*
X255687Y322555D01*
X255872Y322471D01*
X256006Y322438D01*
X256442Y322404D01*
X256577Y322371D01*
X256912Y322270D01*
X257449Y322203D01*
X257684Y322102D01*
X257818Y322069D01*
X258086Y322035D01*
X258321Y321934D01*
X258456Y321901D01*
X258841Y321850D01*
X258959Y321800D01*
X259127Y321733D01*
X259261Y321699D01*
X259462Y321666D01*
X259764Y321532D01*
X260033Y321498D01*
X260335Y321364D01*
X260553Y321314D01*
X260771Y321196D01*
X261039Y321163D01*
X261241Y321028D01*
X261492Y320978D01*
X261710Y320861D01*
X261845Y320827D01*
X262281Y320626D01*
X262583Y320491D01*
X262751Y320424D01*
X263254Y320156D01*
X263522Y319988D01*
X264093Y319686D01*
X264160Y319619D01*
X264529Y319418D01*
X264999Y319082D01*
X265066Y319049D01*
X265133Y318982D01*
X265200Y318948D01*
X265267Y318881D01*
X265334Y318847D01*
X265468Y318713D01*
X265535Y318679D01*
X265636Y318579D01*
X265703Y318545D01*
X265938Y318310D01*
X266005Y318277D01*
X266458Y317824D01*
X266492Y317757D01*
X266727Y317522D01*
X266760Y317455D01*
X266962Y317253D01*
X266995Y317186D01*
X267096Y317086D01*
X267129Y317019D01*
X267264Y316817D01*
X267364Y316650D01*
X267498Y316448D01*
X267532Y316348D01*
X267767Y315911D01*
X267834Y315744D01*
X267867Y315609D01*
X268019Y315190D01*
X268052Y315056D01*
X268169Y314670D01*
X268203Y314334D01*
X268237Y314200D01*
X268270Y313697D01*
X268119Y313512D01*
X267985Y313546D01*
X267935Y313596D01*
X267901Y313730D01*
X267867Y314368D01*
X267834Y314469D01*
X267700Y314905D01*
X267666Y315039D01*
X267633Y315307D01*
X267498Y315509D01*
X267029Y316415D01*
X266962Y316482D01*
X266928Y316549D01*
X266827Y316650D01*
X266794Y316717D01*
X266475Y317136D01*
X266358Y317253D01*
X266324Y317321D01*
X266056Y317589D01*
X266022Y317656D01*
X265938Y317740D01*
X265871Y317774D01*
X265502Y318143D01*
X265435Y318176D01*
X265200Y318411D01*
X265133Y318445D01*
X265066Y318512D01*
X264999Y318545D01*
X264932Y318612D01*
X264864Y318646D01*
X264395Y318982D01*
X264328Y319015D01*
X264093Y319183D01*
X263791Y319351D01*
X263556Y319485D01*
X263254Y319653D01*
X263053Y319787D01*
X262952Y319820D01*
X262650Y319955D01*
X262583Y319988D01*
X262415Y320089D01*
X262247Y320156D01*
X261744Y320391D01*
X261509Y320491D01*
X261291Y320575D01*
X261140Y320626D01*
X260821Y320743D01*
X260637Y320827D01*
X260419Y320877D01*
X260133Y320995D01*
X259915Y321045D01*
X259747Y321112D01*
X259462Y321196D01*
X259026Y321330D01*
X258892Y321364D01*
X258707Y321414D01*
X258489Y321498D01*
X258170Y321548D01*
X258036Y321582D01*
X257650Y321699D01*
X257365Y321750D01*
X257181Y321800D01*
X257046Y321834D01*
X256828Y321884D01*
X256493Y321951D01*
X256359Y321985D01*
X256191Y322018D01*
X255889Y322052D01*
X255687Y322085D01*
X255520Y322119D01*
X255335Y322169D01*
X255201Y322203D01*
X254748Y322253D01*
X254144Y322354D01*
X253875Y322387D01*
X252869Y322488D01*
X252500Y322521D01*
X251963Y322589D01*
X251225Y322656D01*
X250688Y322689D01*
X250050Y322723D01*
X248909Y322756D01*
X245739Y322773D01*
X245638Y322740D01*
X244246Y322689D01*
X243675Y322656D01*
X243306Y322622D01*
X242870Y322589D01*
X242199Y322521D01*
X241830Y322488D01*
X241427Y322454D01*
X241125Y322421D01*
X240689Y322387D01*
X240420Y322354D01*
X240253Y322320D01*
X239984Y322287D01*
X239615Y322253D01*
X239347Y322219D01*
X239145Y322186D01*
X238978Y322152D01*
X238843Y322119D01*
X238642Y322085D01*
X238206Y322052D01*
X237803Y321985D01*
X237468Y321918D01*
X237166Y321884D01*
X236897Y321817D01*
X236729Y321783D01*
X236528Y321750D01*
X236226Y321716D01*
X236092Y321683D01*
X235807Y321599D01*
X235672Y321565D01*
X235270Y321532D01*
X235102Y321464D01*
X234834Y321397D01*
X234515Y321347D01*
X234112Y321246D01*
X233911Y321213D01*
X233743Y321179D01*
X233559Y321129D01*
X233324Y321062D01*
X233089Y321028D01*
X232820Y320961D01*
X232585Y320894D01*
X232317Y320827D01*
X232133Y320777D01*
X231965Y320710D01*
X231780Y320659D01*
X231545Y320626D01*
X231210Y320525D01*
X231076Y320491D01*
X230539Y320324D01*
X230354Y320273D01*
X230186Y320206D01*
X230002Y320156D01*
X229868Y320122D01*
X229683Y320072D01*
X229499Y319988D01*
X229146Y319904D01*
X228928Y319820D01*
X228710Y319770D01*
X228525Y319686D01*
X228106Y319535D01*
X227821Y319451D01*
X227636Y319401D01*
X227351Y319284D01*
X227133Y319200D01*
X226562Y318998D01*
X226344Y318914D01*
X226177Y318847D01*
X225942Y318747D01*
X225623Y318629D01*
X224969Y318378D01*
X224801Y318310D01*
X224197Y318042D01*
X224029Y317975D01*
X223962Y317908D01*
X223828Y317874D01*
X223610Y317790D01*
X223559Y317740D01*
X223241Y317623D01*
X223056Y317539D01*
X221882Y316968D01*
X221647Y316834D01*
X221278Y316666D01*
X220707Y316364D01*
X220405Y316196D01*
X220238Y316096D01*
X219801Y315861D01*
X219734Y315794D01*
X219030Y315425D01*
X218761Y315257D01*
X218526Y315123D01*
X218325Y314989D01*
X218258Y314955D01*
X218057Y314821D01*
X217989Y314787D01*
X217922Y314720D01*
X217553Y314519D01*
X217369Y314368D01*
X217218Y314317D01*
X217100Y314368D01*
X217067Y314502D01*
X217184Y314653D01*
X217251Y314687D01*
X217318Y314754D01*
X217553Y314888D01*
X217855Y315056D01*
X217922Y315123D01*
X217989Y315156D01*
X218358Y315391D01*
X218426Y315425D01*
X218627Y315559D01*
X219332Y315962D01*
X219399Y316029D01*
X219533Y316062D01*
X219734Y316196D01*
X219969Y316331D01*
X220540Y316633D01*
X220774Y316767D01*
X221043Y316935D01*
X221227Y316985D01*
X221479Y317136D01*
X221613Y317170D01*
X223324Y318008D01*
X223694Y318176D01*
X223878Y318227D01*
X223928Y318277D01*
X223996Y318310D01*
X224163Y318378D01*
X224465Y318512D01*
X224683Y318596D01*
X224969Y318713D01*
X225136Y318780D01*
X225371Y318881D01*
X225589Y318965D01*
X225774Y319049D01*
X225908Y319082D01*
X226076Y319149D01*
X226311Y319250D01*
X226747Y319418D01*
X226881Y319451D01*
X227183Y319585D01*
X227368Y319636D01*
X227586Y319753D01*
X227871Y319804D01*
X228039Y319871D01*
X228190Y319921D01*
X228458Y319988D01*
X228760Y320122D01*
X228962Y320156D01*
X229029Y320223D01*
X229264Y320290D01*
X229465Y320324D01*
X229767Y320458D01*
X229901Y320491D01*
X230019Y320508D01*
X230035Y320525D01*
X230170Y320559D01*
X230404Y320659D01*
X230639Y320693D01*
X230941Y320827D01*
X231243Y320861D01*
X231545Y320995D01*
X231914Y321028D01*
X232116Y321163D01*
X232552Y321196D01*
X232854Y321330D01*
X233089Y321364D01*
X233307Y321414D01*
X233525Y321498D01*
X233995Y321565D01*
X234230Y321666D01*
X234364Y321699D01*
X234800Y321733D01*
X235102Y321867D01*
X235622Y321918D01*
X236008Y322035D01*
X236243Y322069D01*
X236562Y322119D01*
X236847Y322203D01*
X236981Y322236D01*
X237518Y322270D01*
X237619Y322303D01*
X237887Y322371D01*
X238223Y322404D01*
X238726Y322438D01*
X238894Y322505D01*
X239128Y322572D01*
X239363Y322605D01*
X239967Y322639D01*
X240068Y322673D01*
X240471Y322740D01*
X240806Y322773D01*
X241561Y322824D01*
X241964Y322891D01*
X242417Y322941D01*
X243323Y322974D01*
X243423Y323008D01*
X244497Y323075D01*
X244933Y323109D01*
X246880Y323142D01*
X250705Y323109D01*
D02*
G37*
G36*
X261811Y319351D02*
X262080Y319317D01*
X262180Y319284D01*
X262314Y319250D01*
X262616Y319216D01*
X262683Y319149D01*
X262851Y319082D01*
X262985Y319049D01*
X263053Y319015D01*
X263120Y318948D01*
X263623Y318679D01*
X263808Y318529D01*
X263925Y318445D01*
X263975Y318394D01*
X264009Y318327D01*
X264344Y317992D01*
X264378Y317925D01*
X264479Y317824D01*
X264512Y317757D01*
X264680Y317488D01*
X264848Y317119D01*
X264982Y316817D01*
X265032Y316599D01*
X265099Y316331D01*
X265133Y316163D01*
X265166Y315526D01*
X265133Y315056D01*
X265066Y314787D01*
X265032Y314619D01*
X264982Y314435D01*
X264915Y314267D01*
X264781Y313965D01*
X264579Y313596D01*
X264261Y313177D01*
X264210Y313126D01*
X264177Y313059D01*
X263824Y312707D01*
X263757Y312673D01*
X263656Y312573D01*
X263589Y312539D01*
X263522Y312472D01*
X263455Y312439D01*
X263120Y312237D01*
X262818Y312069D01*
X262767Y311952D01*
X262851Y311868D01*
X263036Y311818D01*
X263254Y311801D01*
X263354Y311835D01*
X272766Y311818D01*
X273186Y311835D01*
X273270Y311784D01*
X273253Y311700D01*
X273119Y311667D01*
X263036Y311684D01*
X262751Y311667D01*
X262650Y311700D01*
X262012Y311667D01*
X261677Y311700D01*
X260637Y311667D01*
X259965Y311700D01*
X259865Y311734D01*
X259731Y311700D01*
X259395Y311667D01*
X231730Y311684D01*
X231478Y311667D01*
X231378Y311700D01*
X230639Y311667D01*
X230539Y311700D01*
X229666Y311667D01*
X229566Y311700D01*
X229331Y311667D01*
X228492Y311700D01*
X228391Y311667D01*
X216614D01*
X214064Y311700D01*
X214047Y311784D01*
X214231Y311835D01*
X228559Y311801D01*
X228660Y311767D01*
X228727Y311801D01*
X228811Y311885D01*
X228777Y311985D01*
X228727Y312036D01*
X228660Y312069D01*
X228089Y312371D01*
X227787Y312606D01*
X227603Y312757D01*
X227502Y312824D01*
X227468Y312892D01*
X227334Y313026D01*
X227301Y313093D01*
X227200Y313193D01*
X227167Y313261D01*
X227066Y313361D01*
X227032Y313428D01*
X226898Y313562D01*
X226865Y313697D01*
X226697Y314066D01*
X226630Y314234D01*
X226596Y314368D01*
X226428Y314737D01*
X226395Y314972D01*
X226428Y316247D01*
X226529Y316482D01*
X226562Y316616D01*
X226747Y317136D01*
X226999Y317623D01*
X227133Y317757D01*
X227167Y317824D01*
X227318Y318008D01*
X227485Y318210D01*
X227653Y318378D01*
X227720Y318411D01*
X227955Y318646D01*
X228022Y318679D01*
X228291Y318847D01*
X228509Y318931D01*
X228727Y319049D01*
X228861Y319082D01*
X229230Y319250D01*
X229465Y319284D01*
X229633Y319351D01*
X229868Y319384D01*
X230773Y319351D01*
X230874Y319317D01*
X231008Y319284D01*
X231243Y319250D01*
X231445Y319216D01*
X231512Y319149D01*
X231579Y319116D01*
X231680Y319082D01*
X231898Y318998D01*
X231948Y318948D01*
X232317Y318747D01*
X232736Y318428D01*
X232854Y318344D01*
X232938Y318227D01*
X233005Y318160D01*
X233038Y318092D01*
X233240Y317891D01*
X233273Y317824D01*
X233441Y317589D01*
X233810Y316817D01*
X233844Y316582D01*
X233877Y316448D01*
X233928Y316230D01*
X233961Y316096D01*
X233995Y315660D01*
X234012Y315542D01*
X233978Y315442D01*
X233944Y314972D01*
X233877Y314804D01*
X233793Y314418D01*
X233760Y314284D01*
X233575Y313898D01*
X233475Y313730D01*
X233189Y313311D01*
X233022Y313110D01*
X232971Y313059D01*
X232938Y312992D01*
X232720Y312774D01*
X232653Y312740D01*
X232552Y312640D01*
X232485Y312606D01*
X232384Y312506D01*
X232317Y312472D01*
X232250Y312405D01*
X232015Y312271D01*
X231646Y312069D01*
X231562Y311985D01*
X231596Y311918D01*
X231814Y311835D01*
X231948Y311801D01*
X232585Y311835D01*
X259345Y311818D01*
X259496Y311835D01*
X259596Y311801D01*
X259898Y311767D01*
X259982Y311818D01*
X260016Y311952D01*
X259932Y312036D01*
X259227Y312405D01*
X259160Y312472D01*
X259093Y312506D01*
X258959Y312640D01*
X258892Y312673D01*
X258707Y312824D01*
X258657Y312875D01*
X258590Y312908D01*
X258506Y312992D01*
X258372Y313227D01*
X258305Y313294D01*
X258170Y313529D01*
X257936Y313864D01*
X257852Y314083D01*
X257768Y314368D01*
X257701Y314603D01*
X257667Y314737D01*
X257634Y314972D01*
X257600Y315408D01*
X257634Y316280D01*
X257667Y316381D01*
X257717Y316599D01*
X257818Y316868D01*
X258053Y317337D01*
X258204Y317623D01*
X258355Y317807D01*
X258623Y318143D01*
X258858Y318378D01*
X258925Y318411D01*
X259227Y318646D01*
X259596Y318881D01*
X259664Y318914D01*
X259898Y319049D01*
X260033Y319082D01*
X260335Y319216D01*
X260469Y319250D01*
X260720Y319300D01*
X260855Y319334D01*
X261224Y319367D01*
X261710Y319384D01*
X261811Y319351D01*
D02*
G37*
G36*
X236209Y309519D02*
X236377Y309452D01*
X236612Y309385D01*
X236947Y309351D01*
X237249Y309217D01*
X237518Y309150D01*
X237887Y308982D01*
X237988Y308949D01*
X238491Y308680D01*
X238726Y308513D01*
X238793Y308479D01*
X239212Y308160D01*
X239296Y308077D01*
X239363Y308043D01*
X239632Y307774D01*
X239699Y307741D01*
X239883Y307556D01*
X239951Y307389D01*
X239800Y307204D01*
X238558Y305963D01*
X238424Y305929D01*
X238323Y305963D01*
X238139Y306114D01*
X238122Y306164D01*
X238055Y306197D01*
X237921Y306332D01*
X237853Y306365D01*
X237753Y306466D01*
X237686Y306499D01*
X237619Y306567D01*
X237551Y306600D01*
X237384Y306701D01*
X237317Y306734D01*
X237082Y306902D01*
X236713Y307070D01*
X236276Y307238D01*
X236008Y307305D01*
X235672Y307405D01*
X235438Y307439D01*
X234699Y307472D01*
X233978Y307422D01*
X233777Y307389D01*
X233491Y307305D01*
X233357Y307271D01*
X233139Y307187D01*
X233089Y307137D01*
X232904Y307087D01*
X232736Y307019D01*
X232133Y306617D01*
X232049Y306533D01*
X231981Y306499D01*
X231361Y305879D01*
X231327Y305812D01*
X231159Y305577D01*
X230958Y305208D01*
X230790Y304838D01*
X230673Y304520D01*
X230606Y304251D01*
X230572Y303916D01*
X230539Y303748D01*
X230522Y302993D01*
X230555Y302892D01*
X230606Y302473D01*
X230639Y302305D01*
X230807Y301835D01*
X230941Y301500D01*
X231143Y301164D01*
X231310Y300896D01*
X231394Y300812D01*
X231428Y300745D01*
X231696Y300477D01*
X231730Y300409D01*
X231914Y300225D01*
X231981Y300191D01*
X232216Y299956D01*
X232283Y299923D01*
X232720Y299621D01*
X233357Y299319D01*
X233626Y299252D01*
X233693Y299185D01*
X233827Y299151D01*
X234162Y299117D01*
X234548Y299034D01*
X234750Y299000D01*
X235370Y298983D01*
X235471Y299017D01*
X235857Y299101D01*
X236125Y299134D01*
X236293Y299168D01*
X236578Y299285D01*
X236713Y299319D01*
X236880Y299419D01*
X237115Y299554D01*
X237350Y299722D01*
X237417Y299755D01*
X237971Y300309D01*
X238004Y300376D01*
X238139Y300577D01*
X238273Y300812D01*
X238340Y300980D01*
X238306Y301114D01*
X238223Y301198D01*
X238088Y301231D01*
X237753Y301265D01*
X237518Y301231D01*
X237283Y301265D01*
X237149Y301231D01*
X235001Y301265D01*
X234951Y301315D01*
X234917Y301449D01*
X234951Y303161D01*
X235035Y303245D01*
X235169Y303278D01*
X236109Y303245D01*
X240756Y303261D01*
X240873Y303178D01*
X240924Y302993D01*
X240890Y302892D01*
X240924Y302658D01*
X240890Y302523D01*
X240857Y302020D01*
X240823Y301919D01*
X240756Y301651D01*
X240722Y301416D01*
X240655Y301148D01*
X240588Y300980D01*
X240504Y300762D01*
X240420Y300577D01*
X240336Y300359D01*
X240219Y300141D01*
X240185Y300074D01*
X240018Y299805D01*
X239850Y299503D01*
X239363Y298849D01*
X239212Y298698D01*
X239179Y298631D01*
X239061Y298514D01*
X238994Y298480D01*
X238759Y298245D01*
X238692Y298212D01*
X238592Y298111D01*
X238525Y298077D01*
X238457Y298010D01*
X238390Y297977D01*
X238055Y297742D01*
X237283Y297373D01*
X236981Y297238D01*
X236847Y297205D01*
X236646Y297171D01*
X236478Y297104D01*
X236344Y297071D01*
X235874Y297004D01*
X235488Y296953D01*
X234263Y296936D01*
X234162Y296970D01*
X233609Y297020D01*
X233340Y297054D01*
X233173Y297088D01*
X232887Y297171D01*
X232669Y297222D01*
X232502Y297289D01*
X232065Y297457D01*
X231696Y297624D01*
X231629Y297658D01*
X231612Y297675D01*
X231243Y297876D01*
X231008Y298044D01*
X230941Y298077D01*
X230874Y298145D01*
X230807Y298178D01*
X230740Y298245D01*
X230673Y298279D01*
X230539Y298413D01*
X230471Y298446D01*
X230337Y298581D01*
X230270Y298614D01*
X230153Y298732D01*
X230119Y298799D01*
X229918Y299000D01*
X229884Y299067D01*
X229750Y299201D01*
X229717Y299269D01*
X229616Y299369D01*
X229582Y299436D01*
X229482Y299537D01*
X229448Y299604D01*
X229280Y299872D01*
X229197Y300091D01*
X229146Y300141D01*
X228744Y300980D01*
X228676Y301215D01*
X228609Y301483D01*
X228559Y301701D01*
X228509Y301886D01*
X228425Y302272D01*
X228391Y302406D01*
X228341Y302859D01*
X228374Y304134D01*
X228408Y304235D01*
X228509Y304604D01*
X228592Y304956D01*
X228626Y305124D01*
X228676Y305308D01*
X228794Y305627D01*
X228878Y305812D01*
X229012Y306046D01*
X229079Y306114D01*
X229247Y306483D01*
X229415Y306785D01*
X229616Y306986D01*
X229649Y307053D01*
X229784Y307187D01*
X229817Y307254D01*
X229884Y307322D01*
X229918Y307389D01*
X230287Y307758D01*
X230321Y307825D01*
X230421Y307892D01*
X230455Y307959D01*
X230572Y308077D01*
X230639Y308110D01*
X230824Y308261D01*
X230941Y308345D01*
X231008Y308412D01*
X231176Y308513D01*
X231378Y308647D01*
X231545Y308748D01*
X231914Y308949D01*
X232082Y309016D01*
X232216Y309050D01*
X232518Y309184D01*
X232653Y309217D01*
X232955Y309351D01*
X233189Y309385D01*
X233458Y309419D01*
X233626Y309486D01*
X234095Y309553D01*
X236209Y309519D01*
D02*
G37*
G36*
X270166Y306332D02*
X270401Y306231D01*
X270535Y306197D01*
X270938Y306164D01*
X271240Y306030D01*
X271441Y305996D01*
X271642Y305862D01*
X271777Y305828D01*
X271978Y305694D01*
X272280Y305526D01*
X272582Y305292D01*
X272766Y305140D01*
X273068Y304838D01*
X273102Y304771D01*
X273152Y304721D01*
X273219Y304688D01*
X273270Y304637D01*
X273337Y304469D01*
X273219Y304318D01*
X272380Y303882D01*
X272313Y303815D01*
X272246Y303782D01*
X271944Y303614D01*
X271642Y303480D01*
X271475Y303513D01*
X271340Y303647D01*
X271273Y303681D01*
X271106Y303849D01*
X271038Y303882D01*
X270971Y303949D01*
X270904Y303983D01*
X270736Y304083D01*
X270434Y304218D01*
X270199Y304285D01*
X269981Y304335D01*
X269797Y304385D01*
X269260Y304419D01*
X268723Y304385D01*
X268555Y304318D01*
X268320Y304285D01*
X268102Y304201D01*
X267784Y304050D01*
X267549Y303916D01*
X267347Y303714D01*
X267280Y303681D01*
X267096Y303496D01*
X267062Y303429D01*
X266962Y303329D01*
X266928Y303261D01*
X266861Y303194D01*
X266827Y303127D01*
X266760Y303060D01*
X266593Y302691D01*
X266542Y302473D01*
X266509Y302339D01*
X266475Y302171D01*
X266441Y301903D01*
X266425Y301517D01*
X266458Y301416D01*
X266492Y301047D01*
X266559Y300879D01*
X266609Y300661D01*
X266660Y300544D01*
X266827Y300242D01*
X267146Y299822D01*
X267381Y299587D01*
X267448Y299554D01*
X267515Y299487D01*
X267582Y299453D01*
X267649Y299386D01*
X267717Y299352D01*
X268220Y299117D01*
X268388Y299084D01*
X268622Y298983D01*
X268757Y298950D01*
X270132Y298983D01*
X270334Y299117D01*
X270602Y299151D01*
X270669Y299218D01*
X270736Y299252D01*
X270904Y299319D01*
X271139Y299453D01*
X271324Y299604D01*
X271475Y299755D01*
X271542Y299789D01*
X271709Y299856D01*
X271877Y299822D01*
X272582Y299319D01*
X272817Y299185D01*
X273203Y298899D01*
X273169Y298732D01*
X273018Y298547D01*
X272615Y298145D01*
X272548Y298111D01*
X272414Y297977D01*
X272347Y297943D01*
X272162Y297792D01*
X271642Y297507D01*
X271408Y297406D01*
X271273Y297373D01*
X270971Y297238D01*
X270736Y297205D01*
X270602Y297171D01*
X270367Y297104D01*
X270233Y297071D01*
X269797Y297037D01*
X269260Y297004D01*
X268354Y297037D01*
X268253Y297071D01*
X267985Y297104D01*
X267884Y297138D01*
X267498Y297222D01*
X267331Y297289D01*
X267113Y297373D01*
X266844Y297473D01*
X266341Y297742D01*
X266274Y297809D01*
X266207Y297843D01*
X266005Y297977D01*
X265988Y297993D01*
X265838Y298145D01*
X265770Y298178D01*
X265385Y298564D01*
X265351Y298631D01*
X265183Y298866D01*
X265150Y298933D01*
X265083Y299000D01*
X265049Y299067D01*
X264814Y299436D01*
X264680Y299738D01*
X264646Y299872D01*
X264512Y300309D01*
X264395Y300627D01*
X264344Y300779D01*
X264311Y301013D01*
X264294Y301634D01*
X264328Y302339D01*
X264361Y302473D01*
X264428Y302641D01*
X264546Y303027D01*
X264764Y303647D01*
X264932Y303916D01*
X265015Y304033D01*
X265150Y304235D01*
X265317Y304537D01*
X265385Y304604D01*
X265418Y304671D01*
X265603Y304855D01*
X265670Y304889D01*
X265838Y305057D01*
X265905Y305090D01*
X266005Y305191D01*
X266072Y305224D01*
X266140Y305292D01*
X266207Y305325D01*
X266274Y305392D01*
X266341Y305426D01*
X266408Y305493D01*
X266475Y305526D01*
X266844Y305728D01*
X267012Y305828D01*
X267280Y305929D01*
X267515Y306030D01*
X267750Y306063D01*
X267817Y306130D01*
X268052Y306197D01*
X268555Y306231D01*
X268790Y306332D01*
X269126Y306365D01*
X270166Y306332D01*
D02*
G37*
G36*
X217620Y303345D02*
X217704Y303261D01*
X217738Y301382D01*
X217788Y301332D01*
X217989Y301298D01*
X218157Y301366D01*
X218660Y301601D01*
X219080Y301684D01*
X219365Y301701D01*
X219466Y301668D01*
X219684Y301617D01*
X219902Y301533D01*
X220137Y301366D01*
X220204Y301332D01*
X220254Y301282D01*
X220288Y301215D01*
X220355Y301148D01*
X220556Y300711D01*
X220590Y300275D01*
X220556Y297289D01*
X220372Y297205D01*
X219969Y297238D01*
X219902Y297205D01*
X219801Y297238D01*
X219684Y297289D01*
X219650Y297423D01*
X219667Y299352D01*
X219634Y299923D01*
X219600Y300091D01*
X219449Y300342D01*
X219415Y300409D01*
X219298Y300560D01*
X219231Y300594D01*
X219214Y300611D01*
X219197Y300627D01*
X219030Y300728D01*
X218895Y300762D01*
X218358Y300728D01*
X218057Y300493D01*
X218006Y300443D01*
X217973Y300376D01*
X217906Y300309D01*
X217822Y300091D01*
X217738Y299805D01*
X217704Y299269D01*
X217671Y297289D01*
X217620Y297238D01*
X217486Y297205D01*
X217084Y297238D01*
X216983Y297205D01*
X216849Y297238D01*
X216781Y297272D01*
X216731Y297322D01*
X216698Y297557D01*
X216714Y302943D01*
X216698Y303161D01*
X216781Y303312D01*
X217050Y303379D01*
X217620Y303345D01*
D02*
G37*
G36*
X215154Y303228D02*
X215322Y303127D01*
X215339Y302976D01*
X215322Y301819D01*
X215473Y301668D01*
X215708Y301601D01*
X215943Y301567D01*
X215993Y301517D01*
X215959Y300812D01*
X215909Y300762D01*
X215439Y300728D01*
X215355Y300678D01*
X215322Y300544D01*
X215288Y297289D01*
X215070Y297205D01*
X214835Y297238D01*
X214533Y297205D01*
X214366Y297306D01*
X214349Y298866D01*
Y298899D01*
X214315Y300510D01*
X214164Y300695D01*
X213997Y300762D01*
X213795Y300795D01*
X213745Y300946D01*
X213778Y301449D01*
X213829Y301533D01*
X213997Y301601D01*
X214265Y301634D01*
X214349Y301718D01*
X214382Y301852D01*
X214349Y301986D01*
X214382Y303127D01*
X214433Y303178D01*
X214600Y303245D01*
X214936Y303278D01*
X215154Y303228D01*
D02*
G37*
G36*
X224432Y301634D02*
X224767Y301601D01*
X224969Y301466D01*
X225187Y301382D01*
X225304Y301298D01*
X225606Y301064D01*
X225724Y300946D01*
X225757Y300879D01*
X225891Y300678D01*
X226059Y300309D01*
X226193Y299872D01*
X226210Y299319D01*
X226160Y299201D01*
X226009Y299151D01*
X222687Y299117D01*
X222637Y299067D01*
X222620Y298983D01*
X222654Y298849D01*
X222721Y298681D01*
X222838Y298497D01*
X223090Y298245D01*
X223157Y298212D01*
X223224Y298145D01*
X223442Y298061D01*
X223610Y297993D01*
X223828Y297910D01*
X224264Y297943D01*
X224566Y298077D01*
X224734Y298145D01*
X224801Y298212D01*
X224868Y298245D01*
X224935Y298312D01*
X225103Y298379D01*
X225170Y298346D01*
X225204D01*
X225422Y298262D01*
X225589Y298195D01*
X225757Y298094D01*
X225791Y297960D01*
X225707Y297809D01*
X225640Y297775D01*
X225505Y297641D01*
X225438Y297608D01*
X225371Y297540D01*
X225304Y297507D01*
X225036Y297339D01*
X224868Y297272D01*
X224633Y297205D01*
X224348Y297155D01*
X224214Y297121D01*
X223727Y297104D01*
X223626Y297138D01*
X223207Y297188D01*
X222939Y297289D01*
X222754Y297373D01*
X222586Y297473D01*
X222519Y297540D01*
X222452Y297574D01*
X222385Y297641D01*
X222318Y297675D01*
X222066Y297926D01*
X222033Y297993D01*
X221865Y298262D01*
X221831Y298329D01*
X221731Y298564D01*
X221664Y298967D01*
X221630Y299302D01*
X221680Y299822D01*
X221714Y300024D01*
X221747Y300158D01*
X222083Y300728D01*
X222217Y300929D01*
X222452Y301164D01*
X222519Y301198D01*
X222586Y301265D01*
X222654Y301298D01*
X222721Y301366D01*
X223224Y301601D01*
X223559Y301634D01*
X224197Y301668D01*
X224432Y301634D01*
D02*
G37*
G36*
X258791Y306332D02*
X259026Y306231D01*
X259160Y306197D01*
X259563Y306164D01*
X259764Y306030D01*
X260066Y305996D01*
X260267Y305862D01*
X260402Y305828D01*
X260637Y305661D01*
X260704Y305627D01*
X260771Y305560D01*
X260838Y305526D01*
X261140Y305292D01*
X261325Y305140D01*
X261358Y305073D01*
X261694Y304738D01*
X261727Y304671D01*
X261828Y304570D01*
X261861Y304503D01*
X261929Y304436D01*
X261962Y304369D01*
X262130Y304100D01*
X262197Y303932D01*
X262465Y303362D01*
X262516Y303144D01*
X262583Y302808D01*
X262616Y302674D01*
X262650Y302506D01*
X262717Y301970D01*
X262734Y301215D01*
X262616Y301097D01*
X255570Y301064D01*
X255486Y300980D01*
X255520Y300711D01*
X255620Y300477D01*
X255654Y300342D01*
X255822Y300074D01*
X255922Y299906D01*
X255989Y299839D01*
X256023Y299772D01*
X256275Y299520D01*
X256342Y299487D01*
X256442Y299386D01*
X256509Y299352D01*
X256744Y299185D01*
X257181Y298983D01*
X257315Y298950D01*
X257617Y298916D01*
X257852Y298815D01*
X258137Y298799D01*
X258506Y298832D01*
X258640Y298866D01*
X258925Y298950D01*
X259194Y298983D01*
X259261Y299050D01*
X259496Y299151D01*
X259563Y299185D01*
X259932Y299386D01*
X260117Y299537D01*
X260335Y299654D01*
X260637Y299621D01*
X260838Y299487D01*
X260972Y299453D01*
X261341Y299285D01*
X261509Y299185D01*
X261677Y299117D01*
X261811Y299084D01*
X261996Y298899D01*
X261962Y298765D01*
X261794Y298597D01*
X261761Y298530D01*
X261677Y298446D01*
X261610Y298413D01*
X261492Y298295D01*
X261459Y298228D01*
X261274Y298044D01*
X261207Y298010D01*
X261140Y297943D01*
X261073Y297910D01*
X260972Y297809D01*
X260670Y297641D01*
X260402Y297473D01*
X260184Y297390D01*
X259848Y297255D01*
X259664Y297205D01*
X259278Y297121D01*
X259093Y297071D01*
X258657Y297037D01*
X258120Y297004D01*
X257298Y297054D01*
X256962Y297088D01*
X256677Y297171D01*
X256543Y297205D01*
X256359Y297255D01*
X256174Y297339D01*
X255906Y297440D01*
X255402Y297708D01*
X255335Y297775D01*
X255268Y297809D01*
X255100Y297977D01*
X255033Y298010D01*
X254899Y298145D01*
X254832Y298178D01*
X254412Y298597D01*
X254379Y298665D01*
X254245Y298799D01*
X254211Y298866D01*
X254144Y298933D01*
X253842Y299570D01*
X253708Y299906D01*
X253674Y300040D01*
X253573Y300275D01*
X253506Y300443D01*
X253456Y301064D01*
X253439Y302053D01*
X253473Y302154D01*
X253506Y302658D01*
Y302691D01*
X253540Y302926D01*
X253674Y303127D01*
X253725Y303312D01*
X253842Y303597D01*
X254043Y304033D01*
X254177Y304268D01*
X254412Y304570D01*
X254547Y304704D01*
X254580Y304771D01*
X254731Y304956D01*
X254899Y305124D01*
X254966Y305157D01*
X255067Y305258D01*
X255134Y305292D01*
X255268Y305426D01*
X255335Y305459D01*
X255402Y305526D01*
X255469Y305560D01*
X255671Y305694D01*
X255738Y305728D01*
X256308Y305996D01*
X256442Y306030D01*
X256811Y306197D01*
X257248Y306231D01*
X257483Y306332D01*
X257818Y306365D01*
X258791Y306332D01*
D02*
G37*
G36*
X247886D02*
X248121Y306231D01*
X248255Y306197D01*
X248691Y306164D01*
X248859Y306063D01*
X249128Y305996D01*
X249195Y305963D01*
X249933Y305560D01*
X250017Y305510D01*
X250034Y305493D01*
X250168Y305359D01*
X250235Y305325D01*
X250822Y304738D01*
X250856Y304671D01*
X250990Y304537D01*
X251023Y304469D01*
X251191Y304235D01*
X251225Y304100D01*
X251359Y303899D01*
X251527Y303463D01*
X251560Y303329D01*
X251694Y302892D01*
X251728Y302758D01*
X251778Y302406D01*
X251812Y302204D01*
X251862Y301751D01*
X251829Y301181D01*
X251778Y301131D01*
X251644Y301097D01*
X244665Y301064D01*
X244581Y300980D01*
X244615Y300745D01*
X244682Y300577D01*
X244766Y300359D01*
X244917Y300074D01*
X245151Y299772D01*
X245219Y299705D01*
X245252Y299638D01*
X245302Y299587D01*
X245370Y299554D01*
X245537Y299386D01*
X245604Y299352D01*
X245839Y299185D01*
X246343Y298983D01*
X246477Y298950D01*
X246745Y298916D01*
X246913Y298849D01*
X247349Y298815D01*
X247584Y298849D01*
X247718Y298883D01*
X247953Y298950D01*
X248289Y298983D01*
X248457Y299084D01*
X248775Y299201D01*
X248826Y299252D01*
X249061Y299386D01*
X249161Y299487D01*
X249228Y299520D01*
X249329Y299621D01*
X249463Y299654D01*
X249732Y299621D01*
X250436Y299285D01*
X250805Y299117D01*
X250906Y299084D01*
X251091Y298933D01*
X251124Y298832D01*
X251057Y298765D01*
X251023Y298698D01*
X250889Y298564D01*
X250856Y298497D01*
X250721Y298396D01*
X250688Y298329D01*
X250570Y298212D01*
X250503Y298178D01*
X250302Y297977D01*
X250235Y297943D01*
X249765Y297608D01*
X249329Y297406D01*
X248893Y297238D01*
X248759Y297205D01*
X248540Y297155D01*
X248356Y297104D01*
X248222Y297071D01*
X247601Y297020D01*
X246779Y297004D01*
X246678Y297037D01*
X246141Y297071D01*
X246041Y297104D01*
X245806Y297171D01*
X245453Y297255D01*
X245101Y297406D01*
X244665Y297641D01*
X244430Y297775D01*
X244128Y298010D01*
X243994Y298145D01*
X243927Y298178D01*
X243809Y298295D01*
X243776Y298363D01*
X243725Y298413D01*
X243658Y298446D01*
X243541Y298564D01*
X243507Y298631D01*
X243407Y298732D01*
X243373Y298799D01*
X243205Y299034D01*
X242870Y299738D01*
X242803Y299906D01*
X242702Y300141D01*
X242668Y300544D01*
X242635Y300644D01*
X242601Y300779D01*
X242551Y301097D01*
X242534Y302020D01*
X242568Y302121D01*
X242601Y302624D01*
X242668Y302792D01*
X242702Y303027D01*
X242786Y303245D01*
X242870Y303429D01*
X242903Y303496D01*
X243004Y303664D01*
X243121Y303983D01*
X243272Y304268D01*
X243423Y304453D01*
X243574Y304604D01*
X243608Y304671D01*
X243675Y304738D01*
X243709Y304805D01*
X244229Y305325D01*
X244296Y305359D01*
X244363Y305426D01*
X244430Y305459D01*
X244497Y305526D01*
X244564Y305560D01*
X244799Y305728D01*
X244866Y305761D01*
X245437Y306030D01*
X245604Y306063D01*
X245772Y306164D01*
X245906Y306197D01*
X246343Y306231D01*
X246578Y306332D01*
X246812Y306365D01*
X247886Y306332D01*
D02*
G37*
%LPC*%
G36*
X260905Y318982D02*
X260804Y318948D01*
X260570Y318914D01*
X260435Y318881D01*
X260217Y318797D01*
X259848Y318663D01*
X259596Y318512D01*
X259362Y318378D01*
X259177Y318227D01*
X259127Y318176D01*
X259060Y318143D01*
X258808Y317891D01*
X258774Y317824D01*
X258573Y317623D01*
X258540Y317555D01*
X258472Y317488D01*
X258137Y316784D01*
X258070Y316549D01*
X257969Y316146D01*
X257936Y315911D01*
X257969Y314972D01*
X258070Y314737D01*
X258120Y314485D01*
X258271Y314133D01*
X258305Y314066D01*
X258439Y313831D01*
X258540Y313663D01*
X258691Y313479D01*
X258942Y313227D01*
X258976Y313160D01*
X259093Y313076D01*
X259295Y312875D01*
X259362Y312841D01*
X259563Y312707D01*
X259630Y312673D01*
X259831Y312539D01*
X260016Y312489D01*
X260167Y312405D01*
X260402Y312338D01*
X260586Y312287D01*
X260737Y312237D01*
X260872Y312204D01*
X261509Y312170D01*
X262113Y312204D01*
X262415Y312338D01*
X262700Y312388D01*
X262952Y312539D01*
X263086Y312573D01*
X263153Y312640D01*
X263388Y312774D01*
X263573Y312925D01*
X263656Y313009D01*
X263724Y313042D01*
X263908Y313193D01*
X263975Y313261D01*
X264009Y313328D01*
X264076Y313395D01*
X264109Y313462D01*
X264177Y313529D01*
X264210Y313596D01*
X264378Y313864D01*
X264411Y313932D01*
X264479Y313999D01*
X264579Y314234D01*
X264646Y314502D01*
X264697Y314720D01*
X264764Y314989D01*
X264797Y315190D01*
X264831Y315458D01*
X264848Y315710D01*
X264814Y315811D01*
X264781Y316079D01*
X264747Y316180D01*
X264680Y316415D01*
X264613Y316683D01*
X264546Y316851D01*
X264210Y317455D01*
X264109Y317555D01*
X264076Y317623D01*
X263942Y317757D01*
X263908Y317824D01*
X263589Y318143D01*
X263522Y318176D01*
X263388Y318310D01*
X263321Y318344D01*
X262952Y318579D01*
X262650Y318713D01*
X262616D01*
X262599Y318730D01*
X262230Y318864D01*
X262096Y318898D01*
X261895Y318931D01*
X261727Y318965D01*
X260905Y318982D01*
D02*
G37*
G36*
X230270Y319015D02*
X230170Y318982D01*
X229532Y318948D01*
X229431Y318914D01*
X229079Y318830D01*
X228894Y318747D01*
X228760Y318713D01*
X228324Y318478D01*
X228022Y318243D01*
X227838Y318092D01*
X227720Y318008D01*
X227670Y317958D01*
X227636Y317891D01*
X227468Y317723D01*
X227435Y317656D01*
X227368Y317589D01*
X227334Y317522D01*
X227267Y317455D01*
X226932Y316750D01*
X226831Y316415D01*
X226797Y316280D01*
X226764Y315945D01*
X226730Y315442D01*
X226764Y315341D01*
X226797Y314938D01*
X226831Y314838D01*
X226865Y314703D01*
X226982Y314385D01*
X227049Y314217D01*
X227200Y313932D01*
X227334Y313697D01*
X227401Y313630D01*
X227435Y313562D01*
X227502Y313495D01*
X227536Y313428D01*
X227854Y313110D01*
X227921Y313076D01*
X228123Y312875D01*
X228190Y312841D01*
X228559Y312606D01*
X228626Y312573D01*
X229062Y312371D01*
X229197Y312338D01*
X229381Y312287D01*
X229599Y312204D01*
X230337Y312170D01*
X231008Y312204D01*
X231310Y312338D01*
X231528Y312388D01*
X231646Y312439D01*
X231663Y312455D01*
X231713Y312506D01*
X232216Y312774D01*
X232518Y313009D01*
X232971Y313462D01*
X233005Y313529D01*
X233173Y313831D01*
X233307Y314133D01*
X233508Y314569D01*
X233575Y314838D01*
X233609Y315072D01*
X233626Y315693D01*
X233592Y316029D01*
X233559Y316163D01*
X233458Y316666D01*
X233223Y317136D01*
X233055Y317405D01*
X232921Y317606D01*
X232804Y317723D01*
X232787Y317774D01*
X232720Y317807D01*
X232669Y317858D01*
X232636Y317925D01*
X232451Y318109D01*
X232384Y318143D01*
X232283Y318243D01*
X232216Y318277D01*
X232149Y318344D01*
X232082Y318378D01*
X231814Y318545D01*
X231378Y318747D01*
X231159Y318830D01*
X230975Y318881D01*
X230841Y318914D01*
X230589Y318965D01*
X230388Y318998D01*
X230270Y319015D01*
D02*
G37*
G36*
X223677Y300879D02*
X223408Y300779D01*
X223274Y300745D01*
X223090Y300627D01*
X222905Y300477D01*
X222754Y300292D01*
X222704Y300141D01*
X222737Y300040D01*
X222855Y299923D01*
X223090Y299856D01*
X223543Y299906D01*
X223828Y299923D01*
X223928Y299889D01*
X224986Y299872D01*
X225103Y299923D01*
X225153Y300074D01*
X225120Y300174D01*
X225036Y300292D01*
X225019Y300309D01*
X224918Y300409D01*
X224885Y300477D01*
X224801Y300560D01*
X224633Y300661D01*
X224566Y300728D01*
X224348Y300812D01*
X224163Y300862D01*
X223677Y300879D01*
D02*
G37*
G36*
X257751Y304553D02*
X257650Y304520D01*
X257516Y304486D01*
X257281Y304453D01*
X256962Y304335D01*
X256442Y304050D01*
X255989Y303597D01*
X255956Y303530D01*
X255889Y303463D01*
X255855Y303396D01*
X255654Y302959D01*
X255687Y302859D01*
X255771Y302775D01*
X255939Y302708D01*
X256073Y302674D01*
X256661Y302691D01*
X260435Y302674D01*
X260519Y302725D01*
X260586Y302892D01*
X260486Y303060D01*
X260419Y303127D01*
X260385Y303261D01*
X260066Y303681D01*
X259764Y303983D01*
X259731D01*
X259630Y304083D01*
X258925Y304419D01*
X258640Y304469D01*
X258372Y304537D01*
X257751Y304553D01*
D02*
G37*
G36*
X246880D02*
X246779Y304520D01*
X246225Y304402D01*
X245755Y304167D01*
X245487Y304000D01*
X245336Y303849D01*
X245269Y303815D01*
X245219Y303765D01*
X245185Y303698D01*
X245118Y303630D01*
X245084Y303563D01*
X244917Y303329D01*
X244883Y303261D01*
X244749Y302959D01*
X244833Y302842D01*
X245202Y302674D01*
X246208D01*
X248909Y302691D01*
X249530Y302674D01*
X249648Y302758D01*
X249681Y302892D01*
X249413Y303396D01*
X249262Y303580D01*
X249144Y303698D01*
X249111Y303765D01*
X249061Y303815D01*
X248993Y303849D01*
X248792Y304050D01*
X248490Y304218D01*
X248121Y304385D01*
X247852Y304453D01*
X247634Y304503D01*
X247500Y304537D01*
X246880Y304553D01*
D02*
G37*
%LPD*%
D10*
X78878Y283366D02*
G03*
X78878Y283366I-492J0D01*
G01*
X196713Y259305D02*
G03*
X196713Y259305I-492J0D01*
G01*
X52226Y109745D02*
G03*
X52226Y109745I-492J0D01*
G01*
X82700Y173051D02*
G03*
X82700Y173051I-492J0D01*
G01*
X172355Y93287D02*
G03*
X172355Y93287I-492J0D01*
G01*
X230059Y250098D02*
G03*
X230059Y250098I-492J0D01*
G01*
X166279Y239525D02*
G03*
X166279Y239525I-492J0D01*
G01*
X203330Y122523D02*
G03*
X203330Y122523I-492J0D01*
G01*
X181595Y235000D02*
G03*
X181595Y235000I-492J0D01*
G01*
X7972Y237362D02*
G03*
X7972Y237362I-492J0D01*
G01*
X33658Y236968D02*
G03*
X33658Y236968I-492J0D01*
G01*
D11*
X202559Y267671D02*
G03*
X202559Y267671I-1181J0D01*
G01*
X62856Y106871D02*
G03*
X62856Y106871I-1181J0D01*
G01*
X91893Y168110D02*
G03*
X91893Y168110I-1181J0D01*
G01*
X211991Y117680D02*
G03*
X211991Y117680I-1181J0D01*
G01*
D12*
X57024Y259050D02*
G03*
X57024Y259050I-106J0D01*
G01*
X59383Y376224D02*
G03*
X59383Y376224I-106J0D01*
G01*
X46005D02*
G03*
X46005Y376224I-106J0D01*
G01*
X32625D02*
G03*
X32625Y376224I-106J0D01*
G01*
X149308Y71855D02*
G03*
X149308Y71855I-106J0D01*
G01*
X95689Y85650D02*
G03*
X95689Y85650I-106J0D01*
G01*
X204489Y148550D02*
G03*
X204489Y148550I-106J0D01*
G01*
X47057Y87717D02*
G03*
X47057Y87717I-106J0D01*
G01*
X84689Y316950D02*
G03*
X84689Y316950I-106J0D01*
G01*
X245232Y297373D02*
G03*
X245232Y297373I-106J0D01*
G01*
X109089Y184150D02*
G03*
X109089Y184150I-106J0D01*
G01*
X183756Y230683D02*
G03*
X183756Y230683I-106J0D01*
G01*
X52827Y270321D02*
X81173D01*
Y260479D02*
Y270321D01*
X52827Y260479D02*
X81173D01*
X52827D02*
Y270321D01*
X70549Y351969D02*
Y380315D01*
X60706Y351969D02*
X70549D01*
X60706D02*
Y380315D01*
X70549D01*
X47327D02*
X57170D01*
X47327Y351969D02*
Y380315D01*
Y351969D02*
X57170D01*
Y380315D01*
X33948D02*
X43791D01*
X33948Y351969D02*
Y380315D01*
Y351969D02*
X43791D01*
Y380315D01*
X145111Y73284D02*
Y83126D01*
Y73284D02*
X173458D01*
Y83126D01*
X145111D02*
X173458D01*
X99673Y74379D02*
Y84221D01*
X71327D02*
X99673D01*
X71327Y74379D02*
Y84221D01*
Y74379D02*
X99673D01*
X208473Y137279D02*
Y147121D01*
X180127D02*
X208473D01*
X180127Y137279D02*
Y147121D01*
Y137279D02*
X208473D01*
X35679Y83627D02*
X45521D01*
Y111973D01*
X35679D02*
X45521D01*
X35679Y83627D02*
Y111973D01*
X88673Y305679D02*
Y315521D01*
X60327D02*
X88673D01*
X60327Y305679D02*
Y315521D01*
Y305679D02*
X88673D01*
X249216Y286101D02*
Y295943D01*
X220869D02*
X249216D01*
X220869Y286101D02*
Y295943D01*
Y286101D02*
X249216D01*
X113073Y172879D02*
Y182721D01*
X84727D02*
X113073D01*
X84727Y172879D02*
Y182721D01*
Y172879D02*
X113073D01*
X185079Y234773D02*
X194921D01*
X185079Y206427D02*
Y234773D01*
Y206427D02*
X194921D01*
Y234773D01*
X114300Y368900D02*
X142900D01*
X114300Y393700D02*
X142900D01*
Y368900D02*
Y393700D01*
X114300Y368900D02*
Y393700D01*
X66502Y281499D02*
Y276501D01*
X67501Y275501D01*
X69501D01*
X70500Y276501D01*
Y281499D01*
X72500Y276501D02*
X73499Y275501D01*
X75499D01*
X76498Y276501D01*
Y280499D01*
X75499Y281499D01*
X73499D01*
X72500Y280499D01*
Y279500D01*
X73499Y278500D01*
X76498D01*
X233501Y265502D02*
X238499D01*
X239499Y266501D01*
Y268501D01*
X238499Y269500D01*
X233501D01*
Y275498D02*
X234501Y273499D01*
X236500Y271500D01*
X238499D01*
X239499Y272499D01*
Y274499D01*
X238499Y275498D01*
X237500D01*
X236500Y274499D01*
Y271500D01*
X59002Y118899D02*
Y113901D01*
X60001Y112901D01*
X62001D01*
X63000Y113901D01*
Y118899D01*
X68998Y112901D02*
X65000D01*
X68998Y116900D01*
Y117899D01*
X67999Y118899D01*
X65999D01*
X65000Y117899D01*
X63301Y41001D02*
X68299D01*
X69299Y42001D01*
Y44000D01*
X68299Y45000D01*
X63301D01*
X69299Y46999D02*
Y48999D01*
Y47999D01*
X63301D01*
X64301Y46999D01*
X105782Y203382D02*
Y209380D01*
X108781D01*
X109781Y208380D01*
Y206381D01*
X108781Y205381D01*
X105782D01*
X107782D02*
X109781Y203382D01*
X115779D02*
X111780D01*
X115779Y207381D01*
Y208380D01*
X114779Y209380D01*
X112780D01*
X111780Y208380D01*
X117778D02*
X118778Y209380D01*
X120777D01*
X121777Y208380D01*
Y207381D01*
X120777Y206381D01*
X121777Y205381D01*
Y204382D01*
X120777Y203382D01*
X118778D01*
X117778Y204382D01*
Y205381D01*
X118778Y206381D01*
X117778Y207381D01*
Y208380D01*
X118778Y206381D02*
X120777D01*
X88002Y150599D02*
Y145601D01*
X89001Y144601D01*
X91001D01*
X92000Y145601D01*
Y150599D01*
X97998D02*
X94000D01*
Y147600D01*
X95999Y148600D01*
X96999D01*
X97998Y147600D01*
Y145601D01*
X96999Y144601D01*
X94999D01*
X94000Y145601D01*
X233160Y382828D02*
Y388826D01*
X235159Y386826D01*
X237158Y388826D01*
Y382828D01*
X239158Y388826D02*
Y382828D01*
Y385827D01*
X243157D01*
Y388826D01*
Y382828D01*
X245156D02*
X247155D01*
X246156D01*
Y388826D01*
X245156Y387826D01*
X152302Y117899D02*
Y112901D01*
X153301Y111901D01*
X155301D01*
X156300Y112901D01*
Y117899D01*
X158300Y116899D02*
X159299Y117899D01*
X161299D01*
X162298Y116899D01*
Y115900D01*
X161299Y114900D01*
X160299D01*
X161299D01*
X162298Y113900D01*
Y112901D01*
X161299Y111901D01*
X159299D01*
X158300Y112901D01*
X234501Y228502D02*
X239499D01*
X240499Y229501D01*
Y231501D01*
X239499Y232500D01*
X234501D01*
X235501Y234500D02*
X234501Y235499D01*
Y237499D01*
X235501Y238498D01*
X236500D01*
X237500Y237499D01*
X238500Y238498D01*
X239499D01*
X240499Y237499D01*
Y235499D01*
X239499Y234500D01*
X238500D01*
X237500Y235499D01*
X236500Y234500D01*
X235501D01*
X237500Y235499D02*
Y237499D01*
X164775Y220725D02*
Y214726D01*
X162776Y216726D01*
X160777Y214726D01*
Y220725D01*
X158777Y214726D02*
Y220725D01*
X155778D01*
X154779Y219725D01*
Y215726D01*
X155778Y214726D01*
X158777D01*
X152779Y220725D02*
X150780D01*
X151780D01*
Y214726D01*
X152779Y215726D01*
X207502Y99999D02*
Y95001D01*
X208501Y94001D01*
X210501D01*
X211500Y95001D01*
Y99999D01*
X216499Y94001D02*
Y99999D01*
X213500Y97000D01*
X217498D01*
X70101Y257299D02*
X69102Y258299D01*
X67102D01*
X66102Y257299D01*
Y253301D01*
X67102Y252301D01*
X69102D01*
X70101Y253301D01*
X72101Y252301D02*
X74100D01*
X73100D01*
Y258299D01*
X72101Y257299D01*
X80098Y252301D02*
Y258299D01*
X77099Y255300D01*
X81098D01*
X107400Y103899D02*
X106401Y104899D01*
X104401D01*
X103402Y103899D01*
Y99901D01*
X104401Y98901D01*
X106401D01*
X107400Y99901D01*
X113398Y104899D02*
X109400D01*
Y101900D01*
X111399Y102900D01*
X112399D01*
X113398Y101900D01*
Y99901D01*
X112399Y98901D01*
X110399D01*
X109400Y99901D01*
X249828Y240043D02*
X247829D01*
X248829D01*
Y235045D01*
X247829Y234045D01*
X246829D01*
X245830Y235045D01*
X255826Y234045D02*
X251828D01*
X255826Y238044D01*
Y239044D01*
X254827Y240043D01*
X252827D01*
X251828Y239044D01*
X175952Y271812D02*
Y277810D01*
X178951D01*
X179951Y276811D01*
Y274811D01*
X178951Y273812D01*
X175952D01*
X181950Y276811D02*
X182950Y277810D01*
X184950D01*
X185949Y276811D01*
Y275811D01*
X184950Y274811D01*
X183950D01*
X184950D01*
X185949Y273812D01*
Y272812D01*
X184950Y271812D01*
X182950D01*
X181950Y272812D01*
X234318Y34433D02*
Y32434D01*
Y33434D01*
X239317D01*
X240316Y32434D01*
Y31434D01*
X239317Y30435D01*
X235318Y36433D02*
X234318Y37432D01*
Y39432D01*
X235318Y40431D01*
X236317D01*
X237317Y39432D01*
Y38432D01*
Y39432D01*
X238317Y40431D01*
X239317D01*
X240316Y39432D01*
Y37432D01*
X239317Y36433D01*
X67596Y366142D02*
X68596Y367141D01*
Y369141D01*
X67596Y370140D01*
X63598D01*
X62598Y369141D01*
Y367141D01*
X63598Y366142D01*
X62598Y364142D02*
Y362143D01*
Y363143D01*
X68596D01*
X67596Y364142D01*
X54211Y366748D02*
X55210Y367747D01*
Y369747D01*
X54211Y370746D01*
X50212D01*
X49212Y369747D01*
Y367747D01*
X50212Y366748D01*
X49212Y360750D02*
Y364748D01*
X53211Y360750D01*
X54211D01*
X55210Y361749D01*
Y363749D01*
X54211Y364748D01*
X41263Y367535D02*
X42262Y368535D01*
Y370534D01*
X41263Y371534D01*
X37264D01*
X36264Y370534D01*
Y368535D01*
X37264Y367535D01*
X41263Y365536D02*
X42262Y364536D01*
Y362537D01*
X41263Y361537D01*
X40263D01*
X39263Y362537D01*
Y363536D01*
Y362537D01*
X38263Y361537D01*
X37264D01*
X36264Y362537D01*
Y364536D01*
X37264Y365536D01*
X40400Y228099D02*
X38401D01*
X39400D01*
Y223101D01*
X38401Y222101D01*
X37401D01*
X36401Y223101D01*
X42399Y222101D02*
X44399D01*
X43399D01*
Y228099D01*
X42399Y227099D01*
X2330Y274174D02*
Y280172D01*
X5329D01*
X6329Y279173D01*
Y277173D01*
X5329Y276174D01*
X2330D01*
X8328Y274174D02*
X10328D01*
X9328D01*
Y280172D01*
X8328Y279173D01*
X28016Y273781D02*
Y279779D01*
X31015D01*
X32015Y278779D01*
Y276780D01*
X31015Y275780D01*
X28016D01*
X38013Y273781D02*
X34014D01*
X38013Y277779D01*
Y278779D01*
X37014Y279779D01*
X35014D01*
X34014Y278779D01*
X139613Y97576D02*
X133615D01*
Y100575D01*
X134615Y101575D01*
X136614D01*
X137614Y100575D01*
Y97576D01*
Y99576D02*
X139613Y101575D01*
Y103574D02*
Y105573D01*
Y104574D01*
X133615D01*
X134615Y103574D01*
X153966Y141852D02*
X147968D01*
Y144851D01*
X148968Y145851D01*
X150967D01*
X151967Y144851D01*
Y141852D01*
Y143851D02*
X153966Y145851D01*
Y151849D02*
Y147850D01*
X149967Y151849D01*
X148968D01*
X147968Y150849D01*
Y148850D01*
X148968Y147850D01*
X53801Y57602D02*
X47803D01*
Y60601D01*
X48803Y61600D01*
X50802D01*
X51802Y60601D01*
Y57602D01*
Y59601D02*
X53801Y61600D01*
X48803Y63600D02*
X47803Y64599D01*
Y66599D01*
X48803Y67598D01*
X49802D01*
X50802Y66599D01*
Y65599D01*
Y66599D01*
X51802Y67598D01*
X52801D01*
X53801Y66599D01*
Y64599D01*
X52801Y63600D01*
X43550Y31616D02*
X37552D01*
Y34615D01*
X38552Y35614D01*
X40551D01*
X41551Y34615D01*
Y31616D01*
Y33615D02*
X43550Y35614D01*
Y40613D02*
X37552D01*
X40551Y37614D01*
Y41613D01*
X142369Y141852D02*
X136371D01*
Y144851D01*
X137371Y145851D01*
X139370D01*
X140370Y144851D01*
Y141852D01*
Y143851D02*
X142369Y145851D01*
X136371Y151849D02*
Y147850D01*
X139370D01*
X138370Y149849D01*
Y150849D01*
X139370Y151849D01*
X141369D01*
X142369Y150849D01*
Y148850D01*
X141369Y147850D01*
X127802Y96576D02*
X121804D01*
Y99576D01*
X122804Y100575D01*
X124803D01*
X125803Y99576D01*
Y96576D01*
Y98576D02*
X127802Y100575D01*
X121804Y106573D02*
X122804Y104574D01*
X124803Y102575D01*
X126803D01*
X127802Y103574D01*
Y105573D01*
X126803Y106573D01*
X125803D01*
X124803Y105573D01*
Y102575D01*
X235676Y109453D02*
X229678D01*
Y112452D01*
X230678Y113452D01*
X232677D01*
X233677Y112452D01*
Y109453D01*
Y111453D02*
X235676Y113452D01*
X229678Y115452D02*
Y119450D01*
X230678D01*
X234677Y115452D01*
X235676D01*
X34456Y300513D02*
X28458D01*
Y303513D01*
X29457Y304512D01*
X31457D01*
X32456Y303513D01*
Y300513D01*
Y302513D02*
X34456Y304512D01*
X29457Y306511D02*
X28458Y307511D01*
Y309510D01*
X29457Y310510D01*
X30457D01*
X31457Y309510D01*
X32456Y310510D01*
X33456D01*
X34456Y309510D01*
Y307511D01*
X33456Y306511D01*
X32456D01*
X31457Y307511D01*
X30457Y306511D01*
X29457D01*
X31457Y307511D02*
Y309510D01*
X219424Y141852D02*
X213426D01*
Y144851D01*
X214426Y145851D01*
X216425D01*
X217425Y144851D01*
Y141852D01*
Y143851D02*
X219424Y145851D01*
X218424Y147850D02*
X219424Y148850D01*
Y150849D01*
X218424Y151849D01*
X214426D01*
X213426Y150849D01*
Y148850D01*
X214426Y147850D01*
X215425D01*
X216425Y148850D01*
Y151849D01*
X56570Y300770D02*
X50572D01*
Y303769D01*
X51572Y304769D01*
X53571D01*
X54571Y303769D01*
Y300770D01*
Y302769D02*
X56570Y304769D01*
Y306768D02*
Y308768D01*
Y307768D01*
X50572D01*
X51572Y306768D01*
Y311767D02*
X50572Y312766D01*
Y314766D01*
X51572Y315765D01*
X55570D01*
X56570Y314766D01*
Y312766D01*
X55570Y311767D01*
X51572D01*
X45513Y300589D02*
X39515D01*
Y303588D01*
X40514Y304587D01*
X42514D01*
X43514Y303588D01*
Y300589D01*
Y302588D02*
X45513Y304587D01*
Y306587D02*
Y308586D01*
Y307587D01*
X39515D01*
X40514Y306587D01*
X45513Y311585D02*
Y313584D01*
Y312585D01*
X39515D01*
X40514Y311585D01*
X23471Y248802D02*
X17473D01*
Y251801D01*
X18473Y252800D01*
X20472D01*
X21472Y251801D01*
Y248802D01*
Y250801D02*
X23471Y252800D01*
Y254800D02*
Y256799D01*
Y255799D01*
X17473D01*
X18473Y254800D01*
X23471Y263797D02*
Y259798D01*
X19473Y263797D01*
X18473D01*
X17473Y262797D01*
Y260798D01*
X18473Y259798D01*
X48859Y249195D02*
X42861D01*
Y252194D01*
X43861Y253194D01*
X45860D01*
X46860Y252194D01*
Y249195D01*
Y251195D02*
X48859Y253194D01*
Y255193D02*
Y257193D01*
Y256193D01*
X42861D01*
X43861Y255193D01*
Y260192D02*
X42861Y261192D01*
Y263191D01*
X43861Y264191D01*
X44861D01*
X45860Y263191D01*
Y262191D01*
Y263191D01*
X46860Y264191D01*
X47860D01*
X48859Y263191D01*
Y261192D01*
X47860Y260192D01*
X165204Y138959D02*
X159206D01*
Y141958D01*
X160205Y142958D01*
X162205D01*
X163204Y141958D01*
Y138959D01*
Y140958D02*
X165204Y142958D01*
Y144957D02*
Y146957D01*
Y145957D01*
X159206D01*
X160205Y144957D01*
X165204Y152955D02*
X159206D01*
X162205Y149956D01*
Y153954D01*
X182527Y94471D02*
X176529D01*
Y97470D01*
X177528Y98470D01*
X179528D01*
X180527Y97470D01*
Y94471D01*
Y96470D02*
X182527Y98470D01*
Y100469D02*
Y102468D01*
Y101469D01*
X176529D01*
X177528Y100469D01*
X176529Y109466D02*
Y105467D01*
X179528D01*
X178528Y107467D01*
Y108466D01*
X179528Y109466D01*
X181527D01*
X182527Y108466D01*
Y106467D01*
X181527Y105467D01*
X119928Y150770D02*
X113930D01*
Y153769D01*
X114930Y154769D01*
X116929D01*
X117929Y153769D01*
Y150770D01*
Y152769D02*
X119928Y154769D01*
Y156768D02*
Y158767D01*
Y157768D01*
X113930D01*
X114930Y156768D01*
X113930Y165765D02*
X114930Y163766D01*
X116929Y161767D01*
X118929D01*
X119928Y162766D01*
Y164766D01*
X118929Y165765D01*
X117929D01*
X116929Y164766D01*
Y161767D01*
X90140Y127709D02*
Y133708D01*
X93139D01*
X94139Y132708D01*
Y130709D01*
X93139Y129709D01*
X90140D01*
X92140D02*
X94139Y127709D01*
X96138D02*
X98138D01*
X97138D01*
Y133708D01*
X96138Y132708D01*
X101137Y133708D02*
X105135D01*
Y132708D01*
X101137Y128709D01*
Y127709D01*
X177015Y138959D02*
X171017D01*
Y141958D01*
X172016Y142958D01*
X174016D01*
X175015Y141958D01*
Y138959D01*
Y140958D02*
X177015Y142958D01*
Y144957D02*
Y146957D01*
Y145957D01*
X171017D01*
X172016Y144957D01*
Y149956D02*
X171017Y150955D01*
Y152955D01*
X172016Y153954D01*
X173016D01*
X174016Y152955D01*
X175015Y153954D01*
X176015D01*
X177015Y152955D01*
Y150955D01*
X176015Y149956D01*
X175015D01*
X174016Y150955D01*
X173016Y149956D01*
X172016D01*
X174016Y150955D02*
Y152955D01*
X194338Y94471D02*
X188340D01*
Y97470D01*
X189339Y98470D01*
X191339D01*
X192338Y97470D01*
Y94471D01*
Y96470D02*
X194338Y98470D01*
Y100469D02*
Y102468D01*
Y101469D01*
X188340D01*
X189339Y100469D01*
X193338Y105467D02*
X194338Y106467D01*
Y108466D01*
X193338Y109466D01*
X189339D01*
X188340Y108466D01*
Y106467D01*
X189339Y105467D01*
X190339D01*
X191339Y106467D01*
Y109466D01*
X75499Y155003D02*
X69501D01*
Y158002D01*
X70501Y159001D01*
X72500D01*
X73500Y158002D01*
Y155003D01*
Y157002D02*
X75499Y159001D01*
Y164999D02*
Y161001D01*
X71500Y164999D01*
X70501D01*
X69501Y164000D01*
Y162000D01*
X70501Y161001D01*
Y166999D02*
X69501Y167998D01*
Y169998D01*
X70501Y170997D01*
X74499D01*
X75499Y169998D01*
Y167998D01*
X74499Y166999D01*
X70501D01*
X63999Y155002D02*
X58001D01*
Y158001D01*
X59001Y159001D01*
X61000D01*
X62000Y158001D01*
Y155002D01*
Y157002D02*
X63999Y159001D01*
Y164999D02*
Y161000D01*
X60000Y164999D01*
X59001D01*
X58001Y163999D01*
Y162000D01*
X59001Y161000D01*
X63999Y166998D02*
Y168998D01*
Y167998D01*
X58001D01*
X59001Y166998D01*
X201818Y186884D02*
X195820D01*
Y189883D01*
X196819Y190883D01*
X198819D01*
X199819Y189883D01*
Y186884D01*
Y188884D02*
X201818Y190883D01*
Y196881D02*
Y192883D01*
X197819Y196881D01*
X196819D01*
X195820Y195882D01*
Y193882D01*
X196819Y192883D01*
X201818Y202879D02*
Y198881D01*
X197819Y202879D01*
X196819D01*
X195820Y201880D01*
Y199880D01*
X196819Y198881D01*
X237251Y186884D02*
X231253D01*
Y189883D01*
X232253Y190883D01*
X234252D01*
X235252Y189883D01*
Y186884D01*
Y188884D02*
X237251Y190883D01*
Y196881D02*
Y192883D01*
X233252Y196881D01*
X232253D01*
X231253Y195882D01*
Y193882D01*
X232253Y192883D01*
Y198881D02*
X231253Y199880D01*
Y201880D01*
X232253Y202879D01*
X233252D01*
X234252Y201880D01*
Y200880D01*
Y201880D01*
X235252Y202879D01*
X236251D01*
X237251Y201880D01*
Y199880D01*
X236251Y198881D01*
X213629Y186884D02*
X207631D01*
Y189883D01*
X208631Y190883D01*
X210630D01*
X211630Y189883D01*
Y186884D01*
Y188884D02*
X213629Y190883D01*
Y196881D02*
Y192883D01*
X209630Y196881D01*
X208631D01*
X207631Y195882D01*
Y193882D01*
X208631Y192883D01*
X213629Y201880D02*
X207631D01*
X210630Y198881D01*
Y202879D01*
X225440Y186884D02*
X219442D01*
Y189883D01*
X220442Y190883D01*
X222441D01*
X223441Y189883D01*
Y186884D01*
Y188884D02*
X225440Y190883D01*
Y196881D02*
Y192883D01*
X221441Y196881D01*
X220442D01*
X219442Y195882D01*
Y193882D01*
X220442Y192883D01*
X219442Y202879D02*
Y198881D01*
X222441D01*
X221441Y200880D01*
Y201880D01*
X222441Y202879D01*
X224440D01*
X225440Y201880D01*
Y199880D01*
X224440Y198881D01*
X191609Y287720D02*
Y293718D01*
X194608D01*
X195608Y292718D01*
Y290719D01*
X194608Y289719D01*
X191609D01*
X193608D02*
X195608Y287720D01*
X201606D02*
X197607D01*
X201606Y291719D01*
Y292718D01*
X200606Y293718D01*
X198607D01*
X197607Y292718D01*
X207604Y293718D02*
X205604Y292718D01*
X203605Y290719D01*
Y288720D01*
X204605Y287720D01*
X206604D01*
X207604Y288720D01*
Y289719D01*
X206604Y290719D01*
X203605D01*
X106570Y214619D02*
Y220617D01*
X109569D01*
X110568Y219618D01*
Y217618D01*
X109569Y216618D01*
X106570D01*
X108569D02*
X110568Y214619D01*
X116566D02*
X112568D01*
X116566Y218618D01*
Y219618D01*
X115567Y220617D01*
X113567D01*
X112568Y219618D01*
X118566Y220617D02*
X122564D01*
Y219618D01*
X118566Y215619D01*
Y214619D01*
X1598Y33898D02*
Y39896D01*
X3597Y37897D01*
X5597Y39896D01*
Y33898D01*
X7596Y39896D02*
Y33898D01*
Y36897D01*
X11595D01*
Y39896D01*
Y33898D01*
X16593D02*
Y39896D01*
X13594Y36897D01*
X17593D01*
X249629Y33898D02*
Y39896D01*
X251629Y37897D01*
X253628Y39896D01*
Y33898D01*
X255628Y39896D02*
Y33898D01*
Y36897D01*
X259626D01*
Y39896D01*
Y33898D01*
X261626Y38896D02*
X262625Y39896D01*
X264625D01*
X265624Y38896D01*
Y37897D01*
X264625Y36897D01*
X263625D01*
X264625D01*
X265624Y35897D01*
Y34898D01*
X264625Y33898D01*
X262625D01*
X261626Y34898D01*
X31373Y382828D02*
Y388826D01*
X33372Y386826D01*
X35371Y388826D01*
Y382828D01*
X37371Y388826D02*
Y382828D01*
Y385827D01*
X41369D01*
Y388826D01*
Y382828D01*
X47368D02*
X43369D01*
X47368Y386826D01*
Y387826D01*
X46368Y388826D01*
X44368D01*
X43369Y387826D01*
X156501Y69999D02*
X155501Y70999D01*
X153502D01*
X152502Y69999D01*
Y66001D01*
X153502Y65001D01*
X155501D01*
X156501Y66001D01*
X158501Y65001D02*
X160500D01*
X159500D01*
Y70999D01*
X158501Y69999D01*
X167498Y65001D02*
X163499D01*
X167498Y69000D01*
Y69999D01*
X166498Y70999D01*
X164499D01*
X163499Y69999D01*
X63600Y81099D02*
X62601Y82099D01*
X60601D01*
X59602Y81099D01*
Y77101D01*
X60601Y76101D01*
X62601D01*
X63600Y77101D01*
X65600Y82099D02*
X69598D01*
Y81099D01*
X65600Y77101D01*
Y76101D01*
X184599Y157198D02*
X183599Y158198D01*
X181600D01*
X180600Y157198D01*
Y153200D01*
X181600Y152200D01*
X183599D01*
X184599Y153200D01*
X186598Y157198D02*
X187598Y158198D01*
X189597D01*
X190597Y157198D01*
Y156199D01*
X189597Y155199D01*
X190597Y154199D01*
Y153200D01*
X189597Y152200D01*
X187598D01*
X186598Y153200D01*
Y154199D01*
X187598Y155199D01*
X186598Y156199D01*
Y157198D01*
X187598Y155199D02*
X189597D01*
X40199Y120498D02*
X39199Y121498D01*
X37200D01*
X36200Y120498D01*
Y116500D01*
X37200Y115500D01*
X39199D01*
X40199Y116500D01*
X46197Y121498D02*
X44197Y120498D01*
X42198Y118499D01*
Y116500D01*
X43198Y115500D01*
X45197D01*
X46197Y116500D01*
Y117499D01*
X45197Y118499D01*
X42198D01*
X66601Y322899D02*
X65601Y323899D01*
X63602D01*
X62602Y322899D01*
Y318901D01*
X63602Y317901D01*
X65601D01*
X66601Y318901D01*
X68600Y317901D02*
X70600D01*
X69600D01*
Y323899D01*
X68600Y322899D01*
X73599D02*
X74599Y323899D01*
X76598D01*
X77598Y322899D01*
Y321900D01*
X76598Y320900D01*
X75598D01*
X76598D01*
X77598Y319900D01*
Y318901D01*
X76598Y317901D01*
X74599D01*
X73599Y318901D01*
X255400Y292799D02*
X254401Y293799D01*
X252401D01*
X251402Y292799D01*
Y288801D01*
X252401Y287801D01*
X254401D01*
X255400Y288801D01*
X257400D02*
X258399Y287801D01*
X260399D01*
X261398Y288801D01*
Y292799D01*
X260399Y293799D01*
X258399D01*
X257400Y292799D01*
Y291800D01*
X258399Y290800D01*
X261398D01*
X89199Y192798D02*
X88199Y193798D01*
X86200D01*
X85200Y192798D01*
Y188800D01*
X86200Y187800D01*
X88199D01*
X89199Y188800D01*
X91198Y187800D02*
X93197D01*
X92198D01*
Y193798D01*
X91198Y192798D01*
X96196Y187800D02*
X98196D01*
X97196D01*
Y193798D01*
X96196Y192798D01*
X177701Y216801D02*
X176701Y215802D01*
Y213802D01*
X177701Y212802D01*
X181699D01*
X182699Y213802D01*
Y215802D01*
X181699Y216801D01*
X182699Y218800D02*
Y220800D01*
Y219800D01*
X176701D01*
X177701Y218800D01*
Y223799D02*
X176701Y224798D01*
Y226798D01*
X177701Y227798D01*
X181699D01*
X182699Y226798D01*
Y224798D01*
X181699Y223799D01*
X177701D01*
X65000Y239999D02*
X67666D01*
X66333Y241332D02*
Y238666D01*
X71665Y241999D02*
X68999D01*
Y239999D01*
X70332Y240666D01*
X70998D01*
X71665Y239999D01*
Y238666D01*
X70998Y238000D01*
X69665D01*
X68999Y238666D01*
X72997Y241999D02*
Y239333D01*
X74330Y238000D01*
X75663Y239333D01*
Y241999D01*
X76996Y238000D02*
X79662Y240666D01*
X80995Y241999D02*
Y239333D01*
X82328Y238000D01*
X83661Y239333D01*
Y241999D01*
X84994Y238000D02*
X86326D01*
X85660D01*
Y240666D01*
X84994D01*
X88326Y238000D02*
Y240666D01*
X90325D01*
X90992Y239999D01*
Y238000D01*
X166800Y381798D02*
Y375800D01*
X169799D01*
X170799Y376800D01*
Y380798D01*
X169799Y381798D01*
X166800D01*
X172798Y375800D02*
X174797D01*
X173798D01*
Y381798D01*
X172798Y380798D01*
X181795Y375800D02*
X177796D01*
X181795Y379799D01*
Y380798D01*
X180796Y381798D01*
X178796D01*
X177796Y380798D01*
X228600Y142500D02*
X224601D01*
Y144499D01*
X225268Y145166D01*
X226601D01*
X227267Y144499D01*
Y142500D01*
Y143833D02*
X228600Y145166D01*
X227934Y146499D02*
X228600Y147165D01*
Y148498D01*
X227934Y149164D01*
X225268D01*
X224601Y148498D01*
Y147165D01*
X225268Y146499D01*
X225934D01*
X226601Y147165D01*
Y149164D01*
X234500Y83300D02*
X230501D01*
Y85299D01*
X231168Y85966D01*
X232501D01*
X233167Y85299D01*
Y83300D01*
Y84633D02*
X234500Y85966D01*
X230501Y87299D02*
Y89964D01*
X231168D01*
X233834Y87299D01*
X234500D01*
X181400Y70500D02*
X177401D01*
Y72499D01*
X178068Y73166D01*
X179401D01*
X180067Y72499D01*
Y70500D01*
Y71833D02*
X181400Y73166D01*
Y74499D02*
Y75832D01*
Y75165D01*
X177401D01*
X178068Y74499D01*
X177401Y80497D02*
Y77831D01*
X179401D01*
X178734Y79164D01*
Y79830D01*
X179401Y80497D01*
X180734D01*
X181400Y79830D01*
Y78497D01*
X180734Y77831D01*
X193000Y70500D02*
X189001D01*
Y72499D01*
X189668Y73166D01*
X191001D01*
X191667Y72499D01*
Y70500D01*
Y71833D02*
X193000Y73166D01*
Y74499D02*
Y75832D01*
Y75165D01*
X189001D01*
X189668Y74499D01*
X192333Y77831D02*
X193000Y78497D01*
Y79830D01*
X192333Y80497D01*
X189668D01*
X189001Y79830D01*
Y78497D01*
X189668Y77831D01*
X190334D01*
X191001Y78497D01*
Y80497D01*
X138300Y70500D02*
X134301D01*
Y72499D01*
X134968Y73166D01*
X136301D01*
X136967Y72499D01*
Y70500D01*
Y71833D02*
X138300Y73166D01*
Y74499D02*
Y75832D01*
Y75165D01*
X134301D01*
X134968Y74499D01*
X126700Y70500D02*
X122701D01*
Y72499D01*
X123368Y73166D01*
X124701D01*
X125367Y72499D01*
Y70500D01*
Y71833D02*
X126700Y73166D01*
X122701Y77165D02*
X123368Y75832D01*
X124701Y74499D01*
X126033D01*
X126700Y75165D01*
Y76498D01*
X126033Y77165D01*
X125367D01*
X124701Y76498D01*
Y74499D01*
X81600Y204000D02*
Y207999D01*
X83599D01*
X84266Y207332D01*
Y205999D01*
X83599Y205333D01*
X81600D01*
X82933D02*
X84266Y204000D01*
X88265D02*
X85599D01*
X88265Y206666D01*
Y207332D01*
X87598Y207999D01*
X86265D01*
X85599Y207332D01*
X89597D02*
X90264Y207999D01*
X91597D01*
X92263Y207332D01*
Y206666D01*
X91597Y205999D01*
X92263Y205333D01*
Y204666D01*
X91597Y204000D01*
X90264D01*
X89597Y204666D01*
Y205333D01*
X90264Y205999D01*
X89597Y206666D01*
Y207332D01*
X90264Y205999D02*
X91597D01*
X81600Y215700D02*
Y219699D01*
X83599D01*
X84266Y219032D01*
Y217699D01*
X83599Y217033D01*
X81600D01*
X82933D02*
X84266Y215700D01*
X88265D02*
X85599D01*
X88265Y218366D01*
Y219032D01*
X87598Y219699D01*
X86265D01*
X85599Y219032D01*
X89597Y219699D02*
X92263D01*
Y219032D01*
X89597Y216366D01*
Y215700D01*
X56800Y246200D02*
X52801D01*
Y248199D01*
X53468Y248866D01*
X54801D01*
X55467Y248199D01*
Y246200D01*
Y247533D02*
X56800Y248866D01*
Y250199D02*
Y251532D01*
Y250865D01*
X52801D01*
X53468Y250199D01*
Y253531D02*
X52801Y254197D01*
Y255530D01*
X53468Y256197D01*
X54134D01*
X54801Y255530D01*
Y254864D01*
Y255530D01*
X55467Y256197D01*
X56134D01*
X56800Y255530D01*
Y254197D01*
X56134Y253531D01*
X22800Y280800D02*
X18801D01*
Y282799D01*
X19468Y283466D01*
X20801D01*
X21467Y282799D01*
Y280800D01*
Y282133D02*
X22800Y283466D01*
Y284799D02*
Y286132D01*
Y285465D01*
X18801D01*
X19468Y284799D01*
X22800Y290797D02*
Y288131D01*
X20134Y290797D01*
X19468D01*
X18801Y290130D01*
Y288797D01*
X19468Y288131D01*
X56800Y331000D02*
X52801D01*
Y332999D01*
X53468Y333666D01*
X54801D01*
X55467Y332999D01*
Y331000D01*
Y332333D02*
X56800Y333666D01*
Y334999D02*
Y336332D01*
Y335665D01*
X52801D01*
X53468Y334999D01*
Y338331D02*
X52801Y338997D01*
Y340330D01*
X53468Y340997D01*
X56134D01*
X56800Y340330D01*
Y338997D01*
X56134Y338331D01*
X53468D01*
X44300Y331000D02*
X40301D01*
Y332999D01*
X40968Y333666D01*
X42301D01*
X42967Y332999D01*
Y331000D01*
Y332333D02*
X44300Y333666D01*
Y334999D02*
Y336332D01*
Y335665D01*
X40301D01*
X40968Y334999D01*
X44300Y338331D02*
Y339664D01*
Y338997D01*
X40301D01*
X40968Y338331D01*
X32600Y331000D02*
X28601D01*
Y332999D01*
X29268Y333666D01*
X30601D01*
X31267Y332999D01*
Y331000D01*
Y332333D02*
X32600Y333666D01*
X29268Y334999D02*
X28601Y335665D01*
Y336998D01*
X29268Y337665D01*
X29934D01*
X30601Y336998D01*
X31267Y337665D01*
X31934D01*
X32600Y336998D01*
Y335665D01*
X31934Y334999D01*
X31267D01*
X30601Y335665D01*
X29934Y334999D01*
X29268D01*
X30601Y335665D02*
Y336998D01*
X187400Y296600D02*
Y300599D01*
X189399D01*
X190066Y299932D01*
Y298599D01*
X189399Y297933D01*
X187400D01*
X188733D02*
X190066Y296600D01*
X194064D02*
X191399D01*
X194064Y299266D01*
Y299932D01*
X193398Y300599D01*
X192065D01*
X191399Y299932D01*
X198063Y300599D02*
X196730Y299932D01*
X195397Y298599D01*
Y297266D01*
X196064Y296600D01*
X197397D01*
X198063Y297266D01*
Y297933D01*
X197397Y298599D01*
X195397D01*
X200100Y162000D02*
X196101D01*
Y163999D01*
X196768Y164666D01*
X198101D01*
X198767Y163999D01*
Y162000D01*
Y163333D02*
X200100Y164666D01*
Y168665D02*
Y165999D01*
X197434Y168665D01*
X196768D01*
X196101Y167998D01*
Y166665D01*
X196768Y165999D01*
X200100Y172663D02*
Y169997D01*
X197434Y172663D01*
X196768D01*
X196101Y171997D01*
Y170664D01*
X196768Y169997D01*
X211800Y162000D02*
X207801D01*
Y163999D01*
X208468Y164666D01*
X209801D01*
X210467Y163999D01*
Y162000D01*
Y163333D02*
X211800Y164666D01*
Y168665D02*
Y165999D01*
X209134Y168665D01*
X208468D01*
X207801Y167998D01*
Y166665D01*
X208468Y165999D01*
X211800Y171997D02*
X207801D01*
X209801Y169997D01*
Y172663D01*
X224300Y162000D02*
X220301D01*
Y163999D01*
X220968Y164666D01*
X222301D01*
X222967Y163999D01*
Y162000D01*
Y163333D02*
X224300Y164666D01*
Y168665D02*
Y165999D01*
X221634Y168665D01*
X220968D01*
X220301Y167998D01*
Y166665D01*
X220968Y165999D01*
X220301Y172663D02*
Y169997D01*
X222301D01*
X221634Y171330D01*
Y171997D01*
X222301Y172663D01*
X223634D01*
X224300Y171997D01*
Y170664D01*
X223634Y169997D01*
X236000Y162000D02*
X232001D01*
Y163999D01*
X232668Y164666D01*
X234001D01*
X234667Y163999D01*
Y162000D01*
Y163333D02*
X236000Y164666D01*
Y168665D02*
Y165999D01*
X233334Y168665D01*
X232668D01*
X232001Y167998D01*
Y166665D01*
X232668Y165999D01*
Y169997D02*
X232001Y170664D01*
Y171997D01*
X232668Y172663D01*
X233334D01*
X234001Y171997D01*
Y171330D01*
Y171997D01*
X234667Y172663D01*
X235334D01*
X236000Y171997D01*
Y170664D01*
X235334Y169997D01*
X177100Y170000D02*
X173101D01*
Y171999D01*
X173768Y172666D01*
X175101D01*
X175767Y171999D01*
Y170000D01*
Y171333D02*
X177100Y172666D01*
Y173999D02*
Y175332D01*
Y174665D01*
X173101D01*
X173768Y173999D01*
Y177331D02*
X173101Y177997D01*
Y179330D01*
X173768Y179997D01*
X174434D01*
X175101Y179330D01*
X175767Y179997D01*
X176434D01*
X177100Y179330D01*
Y177997D01*
X176434Y177331D01*
X175767D01*
X175101Y177997D01*
X174434Y177331D01*
X173768D01*
X175101Y177997D02*
Y179330D01*
X165400Y170000D02*
X161401D01*
Y171999D01*
X162068Y172666D01*
X163401D01*
X164067Y171999D01*
Y170000D01*
Y171333D02*
X165400Y172666D01*
Y173999D02*
Y175332D01*
Y174665D01*
X161401D01*
X162068Y173999D01*
X165400Y179330D02*
X161401D01*
X163401Y177331D01*
Y179997D01*
X152900Y170000D02*
X148901D01*
Y171999D01*
X149568Y172666D01*
X150901D01*
X151567Y171999D01*
Y170000D01*
Y171333D02*
X152900Y172666D01*
Y176664D02*
Y173999D01*
X150234Y176664D01*
X149568D01*
X148901Y175998D01*
Y174665D01*
X149568Y173999D01*
X141200Y170000D02*
X137201D01*
Y171999D01*
X137868Y172666D01*
X139201D01*
X139867Y171999D01*
Y170000D01*
Y171333D02*
X141200Y172666D01*
X137201Y176664D02*
Y173999D01*
X139201D01*
X138534Y175332D01*
Y175998D01*
X139201Y176664D01*
X140533D01*
X141200Y175998D01*
Y174665D01*
X140533Y173999D01*
X128000Y155200D02*
X124001D01*
Y157199D01*
X124668Y157866D01*
X126001D01*
X126667Y157199D01*
Y155200D01*
Y156533D02*
X128000Y157866D01*
Y159199D02*
Y160532D01*
Y159865D01*
X124001D01*
X124668Y159199D01*
X124001Y165197D02*
X124668Y163864D01*
X126001Y162531D01*
X127333D01*
X128000Y163197D01*
Y164530D01*
X127333Y165197D01*
X126667D01*
X126001Y164530D01*
Y162531D01*
X62900Y186200D02*
X58901D01*
Y188199D01*
X59568Y188866D01*
X60901D01*
X61567Y188199D01*
Y186200D01*
Y187533D02*
X62900Y188866D01*
Y192865D02*
Y190199D01*
X60234Y192865D01*
X59568D01*
X58901Y192198D01*
Y190865D01*
X59568Y190199D01*
X62900Y194197D02*
Y195530D01*
Y194864D01*
X58901D01*
X59568Y194197D01*
X74600Y186200D02*
X70601D01*
Y188199D01*
X71268Y188866D01*
X72601D01*
X73267Y188199D01*
Y186200D01*
Y187533D02*
X74600Y188866D01*
Y192865D02*
Y190199D01*
X71934Y192865D01*
X71268D01*
X70601Y192198D01*
Y190865D01*
X71268Y190199D01*
Y194197D02*
X70601Y194864D01*
Y196197D01*
X71268Y196863D01*
X73934D01*
X74600Y196197D01*
Y194864D01*
X73934Y194197D01*
X71268D01*
X94200Y119900D02*
Y123899D01*
X96199D01*
X96866Y123232D01*
Y121899D01*
X96199Y121233D01*
X94200D01*
X95533D02*
X96866Y119900D01*
X98199D02*
X99532D01*
X98865D01*
Y123899D01*
X98199Y123232D01*
X101531Y123899D02*
X104197D01*
Y123232D01*
X101531Y120566D01*
Y119900D01*
X62100Y59600D02*
X58101D01*
Y61599D01*
X58768Y62266D01*
X60101D01*
X60767Y61599D01*
Y59600D01*
Y60933D02*
X62100Y62266D01*
X58768Y63599D02*
X58101Y64265D01*
Y65598D01*
X58768Y66264D01*
X59434D01*
X60101Y65598D01*
Y64932D01*
Y65598D01*
X60767Y66264D01*
X61434D01*
X62100Y65598D01*
Y64265D01*
X61434Y63599D01*
X34000Y32600D02*
X30001D01*
Y34599D01*
X30668Y35266D01*
X32001D01*
X32667Y34599D01*
Y32600D01*
Y33933D02*
X34000Y35266D01*
Y38598D02*
X30001D01*
X32001Y36599D01*
Y39265D01*
D13*
X119343Y87800D02*
G03*
X119343Y87800I-9843J0D01*
G01*
X75197Y284449D02*
Y295866D01*
X71260Y284449D02*
Y295866D01*
Y284449D02*
X75197D01*
X71260Y295866D02*
X75197D01*
X197441Y263734D02*
X231693D01*
X197441Y276332D02*
X231693D01*
X197441Y263734D02*
Y276332D01*
X231693Y263734D02*
Y276332D01*
X57738Y86792D02*
Y110808D01*
X87462Y86792D02*
Y110808D01*
X57738D02*
X87462D01*
X57738Y86792D02*
X87462D01*
X71063Y39682D02*
X149409D01*
X71063D02*
Y68422D01*
X149409D01*
Y39682D02*
Y68422D01*
X126969Y209034D02*
Y211105D01*
X102165Y201657D02*
Y203727D01*
X126969Y201657D02*
Y203727D01*
X102165Y209034D02*
Y211105D01*
X126969D01*
X102165Y201657D02*
X126969D01*
X86775Y152362D02*
X99216D01*
X86775Y172047D02*
X99216D01*
Y152362D02*
Y172047D01*
X86775Y152362D02*
Y172047D01*
X153232Y91142D02*
X160154D01*
X153232D02*
Y110433D01*
X160154D01*
Y91142D02*
Y110433D01*
X231791Y228150D02*
Y240354D01*
X197343Y228150D02*
Y240354D01*
X93425Y224524D02*
X163425D01*
X93425D02*
Y402025D01*
X163425D01*
Y224524D02*
Y402025D01*
X206873Y101932D02*
Y121617D01*
X219471Y101932D02*
Y121617D01*
X206873D02*
X219471D01*
X206873Y101932D02*
X219471D01*
X245669Y192618D02*
Y202972D01*
Y132618D02*
Y142972D01*
Y117618D02*
Y127972D01*
Y102618D02*
Y112972D01*
Y45453D02*
Y49981D01*
Y230138D02*
X281890D01*
Y45453D02*
Y230138D01*
X245669Y45453D02*
X281890D01*
X245669Y60610D02*
Y67973D01*
Y72618D02*
Y82972D01*
Y87618D02*
Y97972D01*
Y147618D02*
Y157972D01*
Y162618D02*
Y172972D01*
Y177618D02*
Y187972D01*
Y207618D02*
Y217972D01*
Y222618D02*
Y230138D01*
X186398Y236772D02*
Y267953D01*
X175807Y236772D02*
X186398D01*
X175807D02*
Y267953D01*
X186398D01*
X194837Y37106D02*
X205191D01*
X134837D02*
X145191D01*
X119837D02*
X130191D01*
X104837D02*
X115191D01*
X47671D02*
X52199D01*
X232356Y886D02*
Y37106D01*
X47671Y886D02*
X232356D01*
X47671D02*
Y37106D01*
X62829D02*
X70191D01*
X74837D02*
X85191D01*
X89837D02*
X100191D01*
X149837D02*
X160191D01*
X164837D02*
X175191D01*
X179837D02*
X190191D01*
X209837D02*
X220191D01*
X224837D02*
X232357D01*
X33858Y72618D02*
Y82972D01*
Y132618D02*
Y142972D01*
Y147618D02*
Y157972D01*
Y162618D02*
Y172972D01*
Y225610D02*
Y230138D01*
X-2362Y45453D02*
X33858D01*
X-2362D02*
Y230138D01*
X33858D01*
Y207618D02*
Y214980D01*
Y192618D02*
Y202972D01*
Y177618D02*
Y187972D01*
Y117618D02*
Y127972D01*
Y102618D02*
Y112972D01*
Y87618D02*
Y97972D01*
Y57618D02*
Y67972D01*
Y45453D02*
Y52972D01*
X12776Y239134D02*
Y270315D01*
X2185Y239134D02*
X12776D01*
X2185D02*
Y270315D01*
X12776D01*
X38462Y238740D02*
Y269921D01*
X27871Y238740D02*
X38462D01*
X27871D02*
Y269921D01*
X38462D01*
X131890Y113976D02*
X133961D01*
X139268Y89173D02*
X141339D01*
X139268Y113976D02*
X141339D01*
X131890Y89173D02*
X133961D01*
X131890D02*
Y113976D01*
X141339Y89173D02*
Y113976D01*
X146243Y159252D02*
X148314D01*
X153621Y134449D02*
X155692D01*
X153621Y159252D02*
X155692D01*
X146243Y134449D02*
X148314D01*
X146243D02*
Y159252D01*
X155692Y134449D02*
Y159252D01*
X46376Y75002D02*
X48447D01*
X53754Y50198D02*
X55824D01*
X53754Y75002D02*
X55824D01*
X46376Y50198D02*
X48447D01*
X46376D02*
Y75002D01*
X55824Y50198D02*
Y75002D01*
X36040Y49803D02*
X38111D01*
X43418Y25000D02*
X45489D01*
X43418Y49803D02*
X45489D01*
X36040Y25000D02*
X38111D01*
X36040D02*
Y49803D01*
X45489Y25000D02*
Y49803D01*
X142024Y134449D02*
X144094D01*
X134646Y159252D02*
X136717D01*
X134646Y134449D02*
X136717D01*
X142024Y159252D02*
X144094D01*
Y134449D02*
Y159252D01*
X134646Y134449D02*
Y159252D01*
X127457Y89173D02*
X129528D01*
X120079Y113976D02*
X122150D01*
X120079Y89173D02*
X122150D01*
X127457Y113976D02*
X129528D01*
Y89173D02*
Y113976D01*
X120079Y89173D02*
Y113976D01*
X227953Y126854D02*
X230024D01*
X235331Y102050D02*
X237402D01*
X235331Y126854D02*
X237402D01*
X227953Y102050D02*
X230024D01*
X227953D02*
Y126854D01*
X237402Y102050D02*
Y126854D01*
X26558Y319488D02*
X28629D01*
X33936Y294685D02*
X36007D01*
X33936Y319488D02*
X36007D01*
X26558Y294685D02*
X28629D01*
X26558D02*
Y319488D01*
X36007Y294685D02*
Y319488D01*
X219189Y134449D02*
X221260D01*
X211811Y159252D02*
X213882D01*
X211811Y134449D02*
X213882D01*
X219189Y159252D02*
X221260D01*
Y134449D02*
Y159252D01*
X211811Y134449D02*
Y159252D01*
X49033Y320276D02*
X51103D01*
X56410Y295472D02*
X58481D01*
X56410Y320276D02*
X58481D01*
X49033Y295472D02*
X51103D01*
X49033D02*
Y320276D01*
X58481Y295472D02*
Y320276D01*
X37795Y319488D02*
X39866D01*
X45173Y294685D02*
X47244D01*
X45173Y319488D02*
X47244D01*
X37795Y294685D02*
X39866D01*
X37795D02*
Y319488D01*
X47244Y294685D02*
Y319488D01*
X16142Y269094D02*
X18213D01*
X23520Y244291D02*
X25591D01*
X23520Y269094D02*
X25591D01*
X16142Y244291D02*
X18213D01*
X16142D02*
Y269094D01*
X25591Y244291D02*
Y269094D01*
X40742Y269882D02*
X42813D01*
X48120Y245079D02*
X50191D01*
X48120Y269882D02*
X50191D01*
X40742Y245079D02*
X42813D01*
X40742D02*
Y269882D01*
X50191Y245079D02*
Y269882D01*
X164858Y134055D02*
X166929D01*
X157480Y158858D02*
X159551D01*
X157480Y134055D02*
X159551D01*
X164858Y158858D02*
X166929D01*
Y134055D02*
Y158858D01*
X157480Y134055D02*
Y158858D01*
X182181Y89567D02*
X184252D01*
X174803Y114370D02*
X176874D01*
X174803Y89567D02*
X176874D01*
X182181Y114370D02*
X184252D01*
Y89567D02*
Y114370D01*
X174803Y89567D02*
Y114370D01*
X119583Y145309D02*
X121654D01*
X112205Y170112D02*
X114276D01*
X112205Y145309D02*
X114276D01*
X119583Y170112D02*
X121654D01*
Y145309D02*
Y170112D01*
X112205Y145309D02*
Y170112D01*
X84843Y126099D02*
Y128170D01*
X109646Y133477D02*
Y135548D01*
X84843Y133477D02*
Y135548D01*
X109646Y126099D02*
Y128170D01*
X84843Y126099D02*
X109646D01*
X84843Y135548D02*
X109646D01*
X176669Y134055D02*
X178740D01*
X169291Y158858D02*
X171362D01*
X169291Y134055D02*
X171362D01*
X176669Y158858D02*
X178740D01*
Y134055D02*
Y158858D01*
X169291Y134055D02*
Y158858D01*
X193992Y89567D02*
X196063D01*
X186614Y114370D02*
X188685D01*
X186614Y89567D02*
X188685D01*
X193992Y114370D02*
X196063D01*
Y89567D02*
Y114370D01*
X186614Y89567D02*
Y114370D01*
X67880Y174606D02*
X69951D01*
X75258Y149803D02*
X77329D01*
X75258Y174606D02*
X77329D01*
X67880Y149803D02*
X69951D01*
X67880D02*
Y174606D01*
X77329Y149803D02*
Y174606D01*
X64021Y149803D02*
X66092D01*
X56643Y174606D02*
X58714D01*
X56643Y149803D02*
X58714D01*
X64021Y174606D02*
X66092D01*
Y149803D02*
Y174606D01*
X56643Y149803D02*
Y174606D01*
X194094Y207283D02*
X196165D01*
X201472Y182480D02*
X203543D01*
X201472Y207283D02*
X203543D01*
X194094Y182480D02*
X196165D01*
X194094D02*
Y207283D01*
X203543Y182480D02*
Y207283D01*
X205906D02*
X207976D01*
X213283Y182480D02*
X215354D01*
X213283Y207283D02*
X215354D01*
X205906Y182480D02*
X207976D01*
X205906D02*
Y207283D01*
X215354Y182480D02*
Y207283D01*
X217717D02*
X219787D01*
X225094Y182480D02*
X227165D01*
X225094Y207283D02*
X227165D01*
X217717Y182480D02*
X219787D01*
X217717D02*
Y207283D01*
X227165Y182480D02*
Y207283D01*
X228954D02*
X231025D01*
X236332Y182480D02*
X238403D01*
X236332Y207283D02*
X238403D01*
X228954Y182480D02*
X231025D01*
X228954D02*
Y207283D01*
X238403Y182480D02*
Y207283D01*
X186811Y295542D02*
X211614D01*
X186811Y286093D02*
X211614D01*
Y288164D01*
X186811Y293471D02*
Y295542D01*
X211614Y293471D02*
Y295542D01*
X186811Y286093D02*
Y288164D01*
X127362Y220272D02*
Y222342D01*
X102559Y212894D02*
Y214965D01*
X127362Y212894D02*
Y214965D01*
X102559Y220272D02*
Y222342D01*
X127362D01*
X102559Y212894D02*
X127362D01*
D14*
X124886Y87750D02*
X120950D01*
X122918Y85782D02*
Y89718D01*
D15*
X224404Y350387D02*
X220469Y354323D01*
X212597D01*
X208661Y350387D01*
Y346452D01*
X212597Y342516D01*
X220469D01*
X224404Y338580D01*
Y334644D01*
X220469Y330709D01*
X212597D01*
X208661Y334644D01*
X248019Y354323D02*
X232276D01*
Y330709D01*
X248019D01*
X232276Y342516D02*
X240147D01*
X255890Y330709D02*
Y354323D01*
X263762Y346452D01*
X271633Y354323D01*
Y330709D01*
M02*
