G04*
G04 #@! TF.GenerationSoftware,Altium Limited,Altium Designer,26.1.1 (7)*
G04*
G04 Layer_Color=8388736*
%FSLAX25Y25*%
%MOIN*%
G70*
G04*
G04 #@! TF.SameCoordinates,B0E09198-756F-40DB-88A9-0B99AA1CEF91*
G04*
G04*
G04 #@! TF.FilePolarity,Negative*
G04*
G01*
G75*
G04:AMPARAMS|DCode=21|XSize=73.78mil|YSize=21.34mil|CornerRadius=10.67mil|HoleSize=0mil|Usage=FLASHONLY|Rotation=180.000|XOffset=0mil|YOffset=0mil|HoleType=Round|Shape=RoundedRectangle|*
%AMROUNDEDRECTD21*
21,1,0.07378,0.00000,0,0,180.0*
21,1,0.05244,0.02134,0,0,180.0*
1,1,0.02134,-0.02622,0.00000*
1,1,0.02134,0.02622,0.00000*
1,1,0.02134,0.02622,0.00000*
1,1,0.02134,-0.02622,0.00000*
%
%ADD21ROUNDEDRECTD21*%
%ADD22R,0.07378X0.02134*%
%ADD24R,0.05603X0.02375*%
%ADD25R,0.03162X0.06509*%
%ADD26O,0.09658X0.03359*%
%ADD27R,0.06784X0.03162*%
%ADD28R,0.02362X0.06102*%
G04:AMPARAMS|DCode=29|XSize=29.65mil|YSize=57.21mil|CornerRadius=5.95mil|HoleSize=0mil|Usage=FLASHONLY|Rotation=90.000|XOffset=0mil|YOffset=0mil|HoleType=Round|Shape=RoundedRectangle|*
%AMROUNDEDRECTD29*
21,1,0.02965,0.04532,0,0,90.0*
21,1,0.01776,0.05721,0,0,90.0*
1,1,0.01190,0.02266,0.00888*
1,1,0.01190,0.02266,-0.00888*
1,1,0.01190,-0.02266,-0.00888*
1,1,0.01190,-0.02266,0.00888*
%
%ADD29ROUNDEDRECTD29*%
G04:AMPARAMS|DCode=30|XSize=67.06mil|YSize=67.06mil|CornerRadius=18.76mil|HoleSize=0mil|Usage=FLASHONLY|Rotation=0.000|XOffset=0mil|YOffset=0mil|HoleType=Round|Shape=RoundedRectangle|*
%AMROUNDEDRECTD30*
21,1,0.06706,0.02953,0,0,0.0*
21,1,0.02953,0.06706,0,0,0.0*
1,1,0.03753,0.01476,-0.01476*
1,1,0.03753,-0.01476,-0.01476*
1,1,0.03753,-0.01476,0.01476*
1,1,0.03753,0.01476,0.01476*
%
%ADD30ROUNDEDRECTD30*%
%ADD31C,0.06706*%
%ADD32C,0.06115*%
%ADD33R,0.06115X0.06115*%
%ADD34C,0.30328*%
%ADD35R,0.05567X0.05567*%
%ADD36C,0.05567*%
%ADD37C,0.05761*%
%ADD38C,0.05918*%
%ADD39R,0.05918X0.05918*%
%ADD40C,0.09068*%
G04:AMPARAMS|DCode=41|XSize=90.68mil|YSize=90.68mil|CornerRadius=24.67mil|HoleSize=0mil|Usage=FLASHONLY|Rotation=90.000|XOffset=0mil|YOffset=0mil|HoleType=Round|Shape=RoundedRectangle|*
%AMROUNDEDRECTD41*
21,1,0.09068,0.04134,0,0,90.0*
21,1,0.04134,0.09068,0,0,90.0*
1,1,0.04934,0.02067,0.02067*
1,1,0.04934,0.02067,-0.02067*
1,1,0.04934,-0.02067,-0.02067*
1,1,0.04934,-0.02067,0.02067*
%
%ADD41ROUNDEDRECTD41*%
%ADD42C,0.07099*%
G04:AMPARAMS|DCode=43|XSize=70.99mil|YSize=70.99mil|CornerRadius=19.75mil|HoleSize=0mil|Usage=FLASHONLY|Rotation=90.000|XOffset=0mil|YOffset=0mil|HoleType=Round|Shape=RoundedRectangle|*
%AMROUNDEDRECTD43*
21,1,0.07099,0.03150,0,0,90.0*
21,1,0.03150,0.07099,0,0,90.0*
1,1,0.03950,0.01575,0.01575*
1,1,0.03950,0.01575,-0.01575*
1,1,0.03950,-0.01575,-0.01575*
1,1,0.03950,-0.01575,0.01575*
%
%ADD43ROUNDEDRECTD43*%
G04:AMPARAMS|DCode=44|XSize=90.68mil|YSize=90.68mil|CornerRadius=24.67mil|HoleSize=0mil|Usage=FLASHONLY|Rotation=0.000|XOffset=0mil|YOffset=0mil|HoleType=Round|Shape=RoundedRectangle|*
%AMROUNDEDRECTD44*
21,1,0.09068,0.04134,0,0,0.0*
21,1,0.04134,0.09068,0,0,0.0*
1,1,0.04934,0.02067,-0.02067*
1,1,0.04934,-0.02067,-0.02067*
1,1,0.04934,-0.02067,0.02067*
1,1,0.04934,0.02067,0.02067*
%
%ADD44ROUNDEDRECTD44*%
%ADD45R,0.06115X0.06115*%
%ADD46C,0.03556*%
%ADD47C,0.05800*%
D21*
X165811Y103287D02*
D03*
X147575Y108287D02*
D03*
Y103287D02*
D03*
Y98287D02*
D03*
X165811D02*
D03*
X147575Y93287D02*
D03*
X165811Y108287D02*
D03*
D22*
Y93287D02*
D03*
D24*
X78386Y286319D02*
D03*
Y288878D02*
D03*
Y291437D02*
D03*
X68071Y286319D02*
D03*
Y291437D02*
D03*
Y288878D02*
D03*
X78386Y293996D02*
D03*
X68071D02*
D03*
D25*
X204567Y259305D02*
D03*
X209567D02*
D03*
X224567D02*
D03*
X214567Y280762D02*
D03*
X229567D02*
D03*
X199567Y259305D02*
D03*
X204567Y280762D02*
D03*
X209567D02*
D03*
X229567Y259305D02*
D03*
X214567D02*
D03*
X219567Y280762D02*
D03*
Y259305D02*
D03*
X224567Y280762D02*
D03*
X199567D02*
D03*
D26*
X51734Y106300D02*
D03*
Y96300D02*
D03*
Y91300D02*
D03*
X93466Y101300D02*
D03*
Y96300D02*
D03*
X51734Y101300D02*
D03*
X93466Y91300D02*
D03*
Y106300D02*
D03*
D27*
X103782Y164705D02*
D03*
X82208Y159705D02*
D03*
Y164705D02*
D03*
Y169705D02*
D03*
Y154705D02*
D03*
X103782Y159705D02*
D03*
Y154705D02*
D03*
Y169705D02*
D03*
D28*
X219567Y244882D02*
D03*
X209567D02*
D03*
X204567D02*
D03*
X199567Y223622D02*
D03*
X204567D02*
D03*
X214567D02*
D03*
X219567D02*
D03*
X224567D02*
D03*
X229567Y244882D02*
D03*
X209567Y223622D02*
D03*
X199567Y244882D02*
D03*
X229567Y223622D02*
D03*
X214567Y244882D02*
D03*
X224567D02*
D03*
D29*
X202838Y119274D02*
D03*
Y109274D02*
D03*
Y104274D02*
D03*
X223507Y119274D02*
D03*
Y114275D02*
D03*
Y109274D02*
D03*
X202838Y114275D02*
D03*
X223507Y104274D02*
D03*
D30*
X80236Y64387D02*
D03*
D31*
X90236D02*
D03*
X120236D02*
D03*
X140236D02*
D03*
D32*
X132283Y206381D02*
D03*
X136614Y119291D02*
D03*
X150967Y164567D02*
D03*
X51100Y80317D02*
D03*
X40765Y55118D02*
D03*
X139370Y129134D02*
D03*
X124803Y83858D02*
D03*
X232677Y132168D02*
D03*
X31282Y324803D02*
D03*
X216535Y129134D02*
D03*
X53757Y325591D02*
D03*
X42520Y324803D02*
D03*
X20866Y274409D02*
D03*
X45467Y275197D02*
D03*
X162204Y128740D02*
D03*
X179528Y84252D02*
D03*
X116929Y139994D02*
D03*
X79528Y130824D02*
D03*
X174016Y128740D02*
D03*
X191339Y84252D02*
D03*
X72604Y179921D02*
D03*
X61367Y144488D02*
D03*
X198819Y212598D02*
D03*
X210630D02*
D03*
X222441D02*
D03*
X233678D02*
D03*
X181496Y290817D02*
D03*
X132677Y217618D02*
D03*
D33*
X96850Y206381D02*
D03*
X114961Y130824D02*
D03*
X216929Y290817D02*
D03*
X97244Y217618D02*
D03*
D34*
X263779Y377953D02*
D03*
X15748Y15748D02*
D03*
X263779D02*
D03*
X15748Y377953D02*
D03*
D35*
X158425Y239525D02*
D03*
D36*
Y249524D02*
D03*
Y259524D02*
D03*
Y279524D02*
D03*
Y299524D02*
D03*
Y319525D02*
D03*
X98425Y379524D02*
D03*
Y359524D02*
D03*
Y349524D02*
D03*
Y329524D02*
D03*
Y309524D02*
D03*
Y299524D02*
D03*
Y289525D02*
D03*
Y279524D02*
D03*
Y259524D02*
D03*
Y369525D02*
D03*
X158425Y339525D02*
D03*
Y349524D02*
D03*
Y329524D02*
D03*
Y359524D02*
D03*
X98425Y319525D02*
D03*
X158425Y369525D02*
D03*
Y379524D02*
D03*
X98425Y339525D02*
D03*
X158425Y309524D02*
D03*
Y289525D02*
D03*
X98425Y249524D02*
D03*
X158425Y269525D02*
D03*
X98425Y239525D02*
D03*
Y269525D02*
D03*
D37*
X76842Y265400D02*
D03*
X57157D02*
D03*
X65627Y356299D02*
D03*
Y375984D02*
D03*
X52249Y356299D02*
D03*
Y375984D02*
D03*
X38870Y356299D02*
D03*
Y375984D02*
D03*
X149442Y78205D02*
D03*
X169127D02*
D03*
X95342Y79300D02*
D03*
X75657D02*
D03*
X204142Y142200D02*
D03*
X184458D02*
D03*
X40600Y87958D02*
D03*
Y107642D02*
D03*
X84342Y310600D02*
D03*
X64657D02*
D03*
X244885Y291022D02*
D03*
X225200D02*
D03*
X89057Y177800D02*
D03*
X108742D02*
D03*
X190000Y230443D02*
D03*
Y210757D02*
D03*
D38*
X105563Y87800D02*
D03*
D39*
X113437D02*
D03*
D40*
X250394Y190296D02*
D03*
Y70296D02*
D03*
Y85296D02*
D03*
Y175296D02*
D03*
Y220296D02*
D03*
Y205296D02*
D03*
Y145296D02*
D03*
Y160296D02*
D03*
Y130296D02*
D03*
Y115296D02*
D03*
Y100296D02*
D03*
X192514Y32382D02*
D03*
X132514D02*
D03*
X102514D02*
D03*
X117514D02*
D03*
X162514D02*
D03*
X177514D02*
D03*
X87514D02*
D03*
X72514D02*
D03*
X147514D02*
D03*
X222514D02*
D03*
X207514D02*
D03*
X29134Y85295D02*
D03*
Y145295D02*
D03*
Y205295D02*
D03*
Y160295D02*
D03*
Y130295D02*
D03*
Y115295D02*
D03*
Y100295D02*
D03*
Y70295D02*
D03*
Y55295D02*
D03*
Y175295D02*
D03*
Y190295D02*
D03*
D41*
X250394Y55296D02*
D03*
X29134Y220295D02*
D03*
D42*
X181102Y262362D02*
D03*
Y252362D02*
D03*
X7480Y254725D02*
D03*
Y264724D02*
D03*
X33166Y254331D02*
D03*
Y264331D02*
D03*
D43*
X181102Y242362D02*
D03*
X7480Y244724D02*
D03*
X33166Y244331D02*
D03*
D44*
X57514Y32382D02*
D03*
D45*
X136614Y83858D02*
D03*
X150967Y129134D02*
D03*
X51100Y44883D02*
D03*
X40765Y19685D02*
D03*
X139370Y164567D02*
D03*
X124803Y119291D02*
D03*
X232677Y96735D02*
D03*
X31282Y289370D02*
D03*
X216535Y164567D02*
D03*
X53757Y290157D02*
D03*
X42520Y289370D02*
D03*
X20866Y238976D02*
D03*
X45467Y239764D02*
D03*
X162204Y164173D02*
D03*
X179528Y119685D02*
D03*
X116929Y175427D02*
D03*
X174016Y164173D02*
D03*
X191339Y119685D02*
D03*
X72604Y144488D02*
D03*
X61367Y179921D02*
D03*
X198819Y177165D02*
D03*
X210630D02*
D03*
X222441D02*
D03*
X233678D02*
D03*
D46*
X232800Y249600D02*
D03*
X211811Y150000D02*
D03*
X62300Y292800D02*
D03*
X61900Y288800D02*
D03*
X182600Y194700D02*
D03*
X100394Y143307D02*
D03*
X79921Y144095D02*
D03*
X133071Y166535D02*
D03*
X116535Y166929D02*
D03*
X44882Y229528D02*
D03*
X33071Y231890D02*
D03*
X199460Y123622D02*
D03*
X215748Y122835D02*
D03*
X207480Y196850D02*
D03*
X223700Y137700D02*
D03*
X84646Y147638D02*
D03*
X8268Y298425D02*
D03*
X20079Y298031D02*
D03*
X98032Y169685D02*
D03*
X224410Y233858D02*
D03*
X214567D02*
D03*
X229528Y231496D02*
D03*
X67716Y298819D02*
D03*
X196850Y286614D02*
D03*
X172441Y108268D02*
D03*
X82677Y106299D02*
D03*
X109843Y108756D02*
D03*
X100300Y68700D02*
D03*
X172000Y175500D02*
D03*
X193118Y248630D02*
D03*
X119291Y72441D02*
D03*
X117323Y107480D02*
D03*
X190945Y177559D02*
D03*
X210630Y304331D02*
D03*
X201575Y314173D02*
D03*
X151575Y120472D02*
D03*
X168110Y130315D02*
D03*
X153543Y204724D02*
D03*
X158661Y178805D02*
D03*
X49606Y215354D02*
D03*
X273228Y294094D02*
D03*
X261811Y300787D02*
D03*
X238583Y79134D02*
D03*
X263386Y76378D02*
D03*
X219291Y238976D02*
D03*
X215354Y155512D02*
D03*
X86614Y112168D02*
D03*
X66929Y106299D02*
D03*
D47*
X257874Y183858D02*
D03*
M02*
