G04*
G04 #@! TF.GenerationSoftware,Altium Limited,Altium Designer,26.3.0 (6)*
G04*
G04 Layer_Color=65535*
%FSLAX25Y25*%
%MOIN*%
G70*
G04*
G04 #@! TF.SameCoordinates,A65C1770-D034-4F41-963D-00CE30BAA99E*
G04*
G04*
G04 #@! TF.FilePolarity,Positive*
G04*
G01*
G75*
%ADD10C,0.01000*%
%ADD11C,0.00591*%
%ADD12C,0.00984*%
%ADD13C,0.02362*%
%ADD14C,0.00787*%
%ADD15C,0.00800*%
%ADD16C,0.03937*%
%ADD17R,0.19700X0.13400*%
G36*
X251119Y325738D02*
X251220Y325705D01*
X251757Y325671D01*
X251857Y325637D01*
X252512Y325587D01*
X253116Y325553D01*
X253552Y325520D01*
X253720Y325486D01*
X253854Y325453D01*
X254307Y325403D01*
X254877Y325369D01*
X254978Y325335D01*
X255162Y325285D01*
X255330Y325252D01*
X255934Y325218D01*
X256102Y325184D01*
X256287Y325101D01*
X256421Y325067D01*
X256857Y325033D01*
X256991Y325000D01*
X257327Y324899D01*
X257863Y324832D01*
X258098Y324731D01*
X258233Y324698D01*
X258501Y324664D01*
X258736Y324564D01*
X258870Y324530D01*
X259256Y324480D01*
X259373Y324429D01*
X259541Y324362D01*
X259675Y324329D01*
X259877Y324295D01*
X260179Y324161D01*
X260447Y324128D01*
X260749Y323993D01*
X260967Y323943D01*
X261185Y323826D01*
X261454Y323792D01*
X261655Y323658D01*
X261907Y323607D01*
X262125Y323490D01*
X262259Y323456D01*
X262695Y323255D01*
X262997Y323121D01*
X263165Y323054D01*
X263668Y322785D01*
X263937Y322618D01*
X264507Y322316D01*
X264574Y322249D01*
X264943Y322047D01*
X265413Y321712D01*
X265480Y321678D01*
X265547Y321611D01*
X265615Y321577D01*
X265682Y321510D01*
X265749Y321477D01*
X265883Y321342D01*
X265950Y321309D01*
X266051Y321208D01*
X266118Y321175D01*
X266353Y320940D01*
X266420Y320906D01*
X266873Y320453D01*
X266906Y320386D01*
X267141Y320151D01*
X267175Y320084D01*
X267376Y319883D01*
X267410Y319816D01*
X267510Y319715D01*
X267544Y319648D01*
X267678Y319447D01*
X267779Y319279D01*
X267913Y319078D01*
X267947Y318977D01*
X268181Y318541D01*
X268249Y318373D01*
X268282Y318239D01*
X268433Y317819D01*
X268467Y317685D01*
X268584Y317299D01*
X268618Y316964D01*
X268651Y316829D01*
X268685Y316326D01*
X268534Y316142D01*
X268400Y316175D01*
X268349Y316226D01*
X268316Y316360D01*
X268282Y316997D01*
X268249Y317098D01*
X268114Y317534D01*
X268081Y317668D01*
X268047Y317937D01*
X267913Y318138D01*
X267443Y319044D01*
X267376Y319111D01*
X267342Y319178D01*
X267242Y319279D01*
X267208Y319346D01*
X266890Y319765D01*
X266772Y319883D01*
X266739Y319950D01*
X266470Y320218D01*
X266437Y320286D01*
X266353Y320370D01*
X266286Y320403D01*
X265916Y320772D01*
X265849Y320806D01*
X265615Y321041D01*
X265547Y321074D01*
X265480Y321141D01*
X265413Y321175D01*
X265346Y321242D01*
X265279Y321275D01*
X264809Y321611D01*
X264742Y321644D01*
X264507Y321812D01*
X264205Y321980D01*
X263970Y322114D01*
X263668Y322282D01*
X263467Y322416D01*
X263366Y322450D01*
X263064Y322584D01*
X262997Y322618D01*
X262829Y322718D01*
X262662Y322785D01*
X262158Y323020D01*
X261924Y323121D01*
X261705Y323205D01*
X261554Y323255D01*
X261236Y323373D01*
X261051Y323456D01*
X260833Y323507D01*
X260548Y323624D01*
X260330Y323675D01*
X260162Y323742D01*
X259877Y323826D01*
X259440Y323960D01*
X259306Y323993D01*
X259122Y324044D01*
X258904Y324128D01*
X258585Y324178D01*
X258451Y324211D01*
X258065Y324329D01*
X257780Y324379D01*
X257595Y324429D01*
X257461Y324463D01*
X257243Y324513D01*
X256907Y324581D01*
X256773Y324614D01*
X256605Y324648D01*
X256303Y324681D01*
X256102Y324715D01*
X255934Y324748D01*
X255750Y324799D01*
X255615Y324832D01*
X255162Y324883D01*
X254558Y324983D01*
X254290Y325017D01*
X253283Y325117D01*
X252914Y325151D01*
X252377Y325218D01*
X251639Y325285D01*
X251102Y325319D01*
X250465Y325352D01*
X249324Y325386D01*
X246153Y325403D01*
X246053Y325369D01*
X244660Y325319D01*
X244090Y325285D01*
X243721Y325252D01*
X243284Y325218D01*
X242613Y325151D01*
X242244Y325117D01*
X241841Y325084D01*
X241540Y325050D01*
X241103Y325017D01*
X240835Y324983D01*
X240667Y324950D01*
X240399Y324916D01*
X240030Y324883D01*
X239761Y324849D01*
X239560Y324815D01*
X239392Y324782D01*
X239258Y324748D01*
X239056Y324715D01*
X238620Y324681D01*
X238218Y324614D01*
X237882Y324547D01*
X237580Y324513D01*
X237312Y324446D01*
X237144Y324413D01*
X236943Y324379D01*
X236641Y324346D01*
X236506Y324312D01*
X236221Y324228D01*
X236087Y324195D01*
X235684Y324161D01*
X235517Y324094D01*
X235248Y324027D01*
X234929Y323976D01*
X234527Y323876D01*
X234325Y323842D01*
X234158Y323809D01*
X233973Y323758D01*
X233738Y323691D01*
X233503Y323658D01*
X233235Y323591D01*
X233000Y323523D01*
X232732Y323456D01*
X232547Y323406D01*
X232379Y323339D01*
X232195Y323289D01*
X231960Y323255D01*
X231624Y323154D01*
X231490Y323121D01*
X230953Y322953D01*
X230769Y322903D01*
X230601Y322836D01*
X230416Y322785D01*
X230282Y322752D01*
X230098Y322702D01*
X229913Y322618D01*
X229561Y322534D01*
X229343Y322450D01*
X229124Y322399D01*
X228940Y322316D01*
X228520Y322165D01*
X228235Y322081D01*
X228051Y322030D01*
X227765Y321913D01*
X227547Y321829D01*
X226977Y321628D01*
X226759Y321544D01*
X226591Y321477D01*
X226356Y321376D01*
X226038Y321259D01*
X225383Y321007D01*
X225215Y320940D01*
X224611Y320671D01*
X224444Y320604D01*
X224377Y320537D01*
X224242Y320504D01*
X224024Y320420D01*
X223974Y320370D01*
X223655Y320252D01*
X223471Y320168D01*
X222296Y319598D01*
X222061Y319463D01*
X221692Y319296D01*
X221122Y318994D01*
X220820Y318826D01*
X220652Y318725D01*
X220216Y318490D01*
X220149Y318423D01*
X219444Y318054D01*
X219176Y317886D01*
X218941Y317752D01*
X218740Y317618D01*
X218672Y317584D01*
X218471Y317450D01*
X218404Y317417D01*
X218337Y317350D01*
X217968Y317148D01*
X217783Y316997D01*
X217632Y316947D01*
X217515Y316997D01*
X217481Y317131D01*
X217599Y317283D01*
X217666Y317316D01*
X217733Y317383D01*
X217968Y317517D01*
X218270Y317685D01*
X218337Y317752D01*
X218404Y317786D01*
X218773Y318021D01*
X218840Y318054D01*
X219041Y318188D01*
X219746Y318591D01*
X219813Y318658D01*
X219947Y318692D01*
X220149Y318826D01*
X220384Y318960D01*
X220954Y319262D01*
X221189Y319396D01*
X221457Y319564D01*
X221642Y319615D01*
X221894Y319765D01*
X222028Y319799D01*
X223739Y320638D01*
X224108Y320806D01*
X224293Y320856D01*
X224343Y320906D01*
X224410Y320940D01*
X224578Y321007D01*
X224880Y321141D01*
X225098Y321225D01*
X225383Y321342D01*
X225551Y321410D01*
X225786Y321510D01*
X226004Y321594D01*
X226188Y321678D01*
X226323Y321712D01*
X226490Y321779D01*
X226725Y321879D01*
X227162Y322047D01*
X227296Y322081D01*
X227598Y322215D01*
X227782Y322265D01*
X228000Y322383D01*
X228286Y322433D01*
X228453Y322500D01*
X228604Y322551D01*
X228873Y322618D01*
X229175Y322752D01*
X229376Y322785D01*
X229443Y322852D01*
X229678Y322920D01*
X229879Y322953D01*
X230181Y323087D01*
X230316Y323121D01*
X230433Y323138D01*
X230450Y323154D01*
X230584Y323188D01*
X230819Y323289D01*
X231054Y323322D01*
X231356Y323456D01*
X231658Y323490D01*
X231960Y323624D01*
X232329Y323658D01*
X232530Y323792D01*
X232966Y323826D01*
X233268Y323960D01*
X233503Y323993D01*
X233721Y324044D01*
X233940Y324128D01*
X234409Y324195D01*
X234644Y324295D01*
X234778Y324329D01*
X235214Y324362D01*
X235517Y324497D01*
X236037Y324547D01*
X236422Y324664D01*
X236657Y324698D01*
X236976Y324748D01*
X237261Y324832D01*
X237396Y324866D01*
X237932Y324899D01*
X238033Y324933D01*
X238301Y325000D01*
X238637Y325033D01*
X239140Y325067D01*
X239308Y325134D01*
X239543Y325201D01*
X239778Y325235D01*
X240382Y325268D01*
X240482Y325302D01*
X240885Y325369D01*
X241221Y325403D01*
X241976Y325453D01*
X242378Y325520D01*
X242831Y325570D01*
X243737Y325604D01*
X243838Y325637D01*
X244912Y325705D01*
X245348Y325738D01*
X247294Y325772D01*
X251119Y325738D01*
D02*
G37*
G36*
X262226Y321980D02*
X262494Y321947D01*
X262595Y321913D01*
X262729Y321879D01*
X263031Y321846D01*
X263098Y321779D01*
X263266Y321712D01*
X263400Y321678D01*
X263467Y321644D01*
X263534Y321577D01*
X264037Y321309D01*
X264222Y321158D01*
X264339Y321074D01*
X264390Y321024D01*
X264423Y320957D01*
X264759Y320621D01*
X264792Y320554D01*
X264893Y320453D01*
X264927Y320386D01*
X265094Y320118D01*
X265262Y319749D01*
X265396Y319447D01*
X265447Y319229D01*
X265514Y318960D01*
X265547Y318792D01*
X265581Y318155D01*
X265547Y317685D01*
X265480Y317417D01*
X265447Y317249D01*
X265396Y317064D01*
X265329Y316897D01*
X265195Y316595D01*
X264994Y316226D01*
X264675Y315806D01*
X264625Y315756D01*
X264591Y315689D01*
X264239Y315336D01*
X264172Y315303D01*
X264071Y315202D01*
X264004Y315169D01*
X263937Y315102D01*
X263870Y315068D01*
X263534Y314867D01*
X263232Y314699D01*
X263182Y314581D01*
X263266Y314497D01*
X263450Y314447D01*
X263668Y314430D01*
X263769Y314464D01*
X273181Y314447D01*
X273600Y314464D01*
X273684Y314414D01*
X273668Y314330D01*
X273533Y314296D01*
X263450Y314313D01*
X263165Y314296D01*
X263064Y314330D01*
X262427Y314296D01*
X262091Y314330D01*
X261051Y314296D01*
X260380Y314330D01*
X260279Y314363D01*
X260145Y314330D01*
X259810Y314296D01*
X232144Y314313D01*
X231893Y314296D01*
X231792Y314330D01*
X231054Y314296D01*
X230953Y314330D01*
X230081Y314296D01*
X229980Y314330D01*
X229745Y314296D01*
X228906Y314330D01*
X228806Y314296D01*
X217028D01*
X214478Y314330D01*
X214461Y314414D01*
X214646Y314464D01*
X228974Y314430D01*
X229074Y314397D01*
X229141Y314430D01*
X229225Y314514D01*
X229192Y314615D01*
X229141Y314665D01*
X229074Y314699D01*
X228504Y315001D01*
X228202Y315236D01*
X228017Y315387D01*
X227917Y315454D01*
X227883Y315521D01*
X227749Y315655D01*
X227715Y315722D01*
X227614Y315823D01*
X227581Y315890D01*
X227480Y315991D01*
X227447Y316058D01*
X227312Y316192D01*
X227279Y316326D01*
X227111Y316695D01*
X227044Y316863D01*
X227011Y316997D01*
X226843Y317366D01*
X226809Y317601D01*
X226843Y318876D01*
X226943Y319111D01*
X226977Y319245D01*
X227162Y319765D01*
X227413Y320252D01*
X227547Y320386D01*
X227581Y320453D01*
X227732Y320638D01*
X227900Y320839D01*
X228067Y321007D01*
X228135Y321041D01*
X228369Y321275D01*
X228437Y321309D01*
X228705Y321477D01*
X228923Y321561D01*
X229141Y321678D01*
X229275Y321712D01*
X229644Y321879D01*
X229879Y321913D01*
X230047Y321980D01*
X230282Y322014D01*
X231188Y321980D01*
X231289Y321947D01*
X231423Y321913D01*
X231658Y321879D01*
X231859Y321846D01*
X231926Y321779D01*
X231993Y321745D01*
X232094Y321712D01*
X232312Y321628D01*
X232362Y321577D01*
X232732Y321376D01*
X233151Y321057D01*
X233268Y320973D01*
X233352Y320856D01*
X233419Y320789D01*
X233453Y320722D01*
X233654Y320520D01*
X233688Y320453D01*
X233856Y320218D01*
X234225Y319447D01*
X234258Y319212D01*
X234292Y319078D01*
X234342Y318860D01*
X234376Y318725D01*
X234409Y318289D01*
X234426Y318172D01*
X234392Y318071D01*
X234359Y317601D01*
X234292Y317434D01*
X234208Y317048D01*
X234174Y316913D01*
X233990Y316528D01*
X233889Y316360D01*
X233604Y315940D01*
X233436Y315739D01*
X233386Y315689D01*
X233352Y315622D01*
X233134Y315404D01*
X233067Y315370D01*
X232966Y315269D01*
X232899Y315236D01*
X232799Y315135D01*
X232732Y315102D01*
X232664Y315034D01*
X232430Y314900D01*
X232060Y314699D01*
X231977Y314615D01*
X232010Y314548D01*
X232228Y314464D01*
X232362Y314430D01*
X233000Y314464D01*
X259759Y314447D01*
X259910Y314464D01*
X260011Y314430D01*
X260313Y314397D01*
X260397Y314447D01*
X260430Y314581D01*
X260347Y314665D01*
X259642Y315034D01*
X259575Y315102D01*
X259508Y315135D01*
X259373Y315269D01*
X259306Y315303D01*
X259122Y315454D01*
X259071Y315504D01*
X259004Y315538D01*
X258920Y315622D01*
X258786Y315856D01*
X258719Y315924D01*
X258585Y316158D01*
X258350Y316494D01*
X258266Y316712D01*
X258182Y316997D01*
X258115Y317232D01*
X258082Y317366D01*
X258048Y317601D01*
X258014Y318037D01*
X258048Y318910D01*
X258082Y319010D01*
X258132Y319229D01*
X258233Y319497D01*
X258468Y319967D01*
X258618Y320252D01*
X258769Y320437D01*
X259038Y320772D01*
X259273Y321007D01*
X259340Y321041D01*
X259642Y321275D01*
X260011Y321510D01*
X260078Y321544D01*
X260313Y321678D01*
X260447Y321712D01*
X260749Y321846D01*
X260883Y321879D01*
X261135Y321930D01*
X261269Y321963D01*
X261638Y321997D01*
X262125Y322014D01*
X262226Y321980D01*
D02*
G37*
G36*
X236624Y312149D02*
X236792Y312082D01*
X237026Y312015D01*
X237362Y311981D01*
X237664Y311847D01*
X237932Y311780D01*
X238301Y311612D01*
X238402Y311578D01*
X238906Y311310D01*
X239140Y311142D01*
X239208Y311108D01*
X239627Y310790D01*
X239711Y310706D01*
X239778Y310672D01*
X240046Y310404D01*
X240113Y310370D01*
X240298Y310186D01*
X240365Y310018D01*
X240214Y309834D01*
X238973Y308592D01*
X238838Y308558D01*
X238738Y308592D01*
X238553Y308743D01*
X238536Y308793D01*
X238469Y308827D01*
X238335Y308961D01*
X238268Y308995D01*
X238167Y309095D01*
X238100Y309129D01*
X238033Y309196D01*
X237966Y309229D01*
X237798Y309330D01*
X237731Y309364D01*
X237496Y309531D01*
X237127Y309699D01*
X236691Y309867D01*
X236422Y309934D01*
X236087Y310035D01*
X235852Y310068D01*
X235114Y310102D01*
X234392Y310052D01*
X234191Y310018D01*
X233906Y309934D01*
X233772Y309901D01*
X233554Y309817D01*
X233503Y309766D01*
X233319Y309716D01*
X233151Y309649D01*
X232547Y309246D01*
X232463Y309162D01*
X232396Y309129D01*
X231775Y308508D01*
X231742Y308441D01*
X231574Y308206D01*
X231373Y307837D01*
X231205Y307468D01*
X231087Y307149D01*
X231020Y306881D01*
X230987Y306545D01*
X230953Y306377D01*
X230936Y305622D01*
X230970Y305522D01*
X231020Y305102D01*
X231054Y304935D01*
X231222Y304465D01*
X231356Y304129D01*
X231557Y303794D01*
X231725Y303525D01*
X231809Y303441D01*
X231842Y303374D01*
X232111Y303106D01*
X232144Y303039D01*
X232329Y302854D01*
X232396Y302821D01*
X232631Y302586D01*
X232698Y302552D01*
X233134Y302250D01*
X233772Y301948D01*
X234040Y301881D01*
X234107Y301814D01*
X234241Y301781D01*
X234577Y301747D01*
X234963Y301663D01*
X235164Y301629D01*
X235785Y301613D01*
X235886Y301646D01*
X236272Y301730D01*
X236540Y301764D01*
X236708Y301797D01*
X236993Y301915D01*
X237127Y301948D01*
X237295Y302049D01*
X237530Y302183D01*
X237765Y302351D01*
X237832Y302384D01*
X238385Y302938D01*
X238419Y303005D01*
X238553Y303207D01*
X238687Y303441D01*
X238755Y303609D01*
X238721Y303743D01*
X238637Y303827D01*
X238503Y303861D01*
X238167Y303894D01*
X237932Y303861D01*
X237698Y303894D01*
X237563Y303861D01*
X235416Y303894D01*
X235366Y303945D01*
X235332Y304079D01*
X235366Y305790D01*
X235449Y305874D01*
X235584Y305908D01*
X236523Y305874D01*
X241170Y305891D01*
X241288Y305807D01*
X241338Y305622D01*
X241305Y305522D01*
X241338Y305287D01*
X241305Y305153D01*
X241271Y304649D01*
X241237Y304549D01*
X241170Y304280D01*
X241137Y304045D01*
X241070Y303777D01*
X241003Y303609D01*
X240919Y303391D01*
X240835Y303207D01*
X240751Y302989D01*
X240634Y302770D01*
X240600Y302703D01*
X240432Y302435D01*
X240264Y302133D01*
X239778Y301479D01*
X239627Y301327D01*
X239593Y301260D01*
X239476Y301143D01*
X239409Y301109D01*
X239174Y300874D01*
X239107Y300841D01*
X239006Y300740D01*
X238939Y300707D01*
X238872Y300640D01*
X238805Y300606D01*
X238469Y300371D01*
X237698Y300002D01*
X237396Y299868D01*
X237261Y299834D01*
X237060Y299801D01*
X236892Y299734D01*
X236758Y299700D01*
X236288Y299633D01*
X235902Y299583D01*
X234678Y299566D01*
X234577Y299600D01*
X234023Y299650D01*
X233755Y299683D01*
X233587Y299717D01*
X233302Y299801D01*
X233084Y299851D01*
X232916Y299918D01*
X232480Y300086D01*
X232111Y300254D01*
X232044Y300287D01*
X232027Y300304D01*
X231658Y300505D01*
X231423Y300673D01*
X231356Y300707D01*
X231289Y300774D01*
X231222Y300807D01*
X231154Y300874D01*
X231087Y300908D01*
X230953Y301042D01*
X230886Y301076D01*
X230752Y301210D01*
X230685Y301244D01*
X230567Y301361D01*
X230534Y301428D01*
X230332Y301629D01*
X230299Y301697D01*
X230165Y301831D01*
X230131Y301898D01*
X230030Y301999D01*
X229997Y302066D01*
X229896Y302166D01*
X229863Y302234D01*
X229695Y302502D01*
X229611Y302720D01*
X229561Y302770D01*
X229158Y303609D01*
X229091Y303844D01*
X229024Y304113D01*
X228974Y304331D01*
X228923Y304515D01*
X228839Y304901D01*
X228806Y305035D01*
X228755Y305488D01*
X228789Y306763D01*
X228822Y306864D01*
X228923Y307233D01*
X229007Y307585D01*
X229041Y307753D01*
X229091Y307938D01*
X229208Y308256D01*
X229292Y308441D01*
X229427Y308676D01*
X229494Y308743D01*
X229661Y309112D01*
X229829Y309414D01*
X230030Y309615D01*
X230064Y309682D01*
X230198Y309817D01*
X230232Y309884D01*
X230299Y309951D01*
X230332Y310018D01*
X230701Y310387D01*
X230735Y310454D01*
X230836Y310521D01*
X230869Y310589D01*
X230987Y310706D01*
X231054Y310739D01*
X231238Y310890D01*
X231356Y310974D01*
X231423Y311041D01*
X231591Y311142D01*
X231792Y311276D01*
X231960Y311377D01*
X232329Y311578D01*
X232497Y311645D01*
X232631Y311679D01*
X232933Y311813D01*
X233067Y311847D01*
X233369Y311981D01*
X233604Y312015D01*
X233872Y312048D01*
X234040Y312115D01*
X234510Y312182D01*
X236624Y312149D01*
D02*
G37*
G36*
X270581Y308961D02*
X270815Y308860D01*
X270950Y308827D01*
X271352Y308793D01*
X271654Y308659D01*
X271855Y308626D01*
X272057Y308491D01*
X272191Y308458D01*
X272392Y308324D01*
X272694Y308156D01*
X272996Y307921D01*
X273181Y307770D01*
X273483Y307468D01*
X273517Y307401D01*
X273567Y307350D01*
X273634Y307317D01*
X273684Y307267D01*
X273751Y307099D01*
X273634Y306948D01*
X272795Y306512D01*
X272728Y306445D01*
X272661Y306411D01*
X272359Y306243D01*
X272057Y306109D01*
X271889Y306142D01*
X271755Y306277D01*
X271688Y306310D01*
X271520Y306478D01*
X271453Y306512D01*
X271386Y306579D01*
X271319Y306612D01*
X271151Y306713D01*
X270849Y306847D01*
X270614Y306914D01*
X270396Y306965D01*
X270211Y307015D01*
X269674Y307049D01*
X269138Y307015D01*
X268970Y306948D01*
X268735Y306914D01*
X268517Y306830D01*
X268198Y306679D01*
X267963Y306545D01*
X267762Y306344D01*
X267695Y306310D01*
X267510Y306126D01*
X267477Y306059D01*
X267376Y305958D01*
X267342Y305891D01*
X267275Y305824D01*
X267242Y305757D01*
X267175Y305690D01*
X267007Y305321D01*
X266957Y305102D01*
X266923Y304968D01*
X266890Y304800D01*
X266856Y304532D01*
X266839Y304146D01*
X266873Y304045D01*
X266906Y303676D01*
X266973Y303509D01*
X267024Y303290D01*
X267074Y303173D01*
X267242Y302871D01*
X267561Y302452D01*
X267795Y302217D01*
X267863Y302183D01*
X267930Y302116D01*
X267997Y302082D01*
X268064Y302015D01*
X268131Y301982D01*
X268634Y301747D01*
X268802Y301713D01*
X269037Y301613D01*
X269171Y301579D01*
X270547Y301613D01*
X270748Y301747D01*
X271017Y301781D01*
X271084Y301848D01*
X271151Y301881D01*
X271319Y301948D01*
X271553Y302082D01*
X271738Y302234D01*
X271889Y302384D01*
X271956Y302418D01*
X272124Y302485D01*
X272292Y302452D01*
X272996Y301948D01*
X273231Y301814D01*
X273617Y301529D01*
X273584Y301361D01*
X273433Y301177D01*
X273030Y300774D01*
X272963Y300740D01*
X272829Y300606D01*
X272762Y300573D01*
X272577Y300422D01*
X272057Y300136D01*
X271822Y300036D01*
X271688Y300002D01*
X271386Y299868D01*
X271151Y299834D01*
X271017Y299801D01*
X270782Y299734D01*
X270648Y299700D01*
X270211Y299667D01*
X269674Y299633D01*
X268769Y299667D01*
X268668Y299700D01*
X268400Y299734D01*
X268299Y299767D01*
X267913Y299851D01*
X267745Y299918D01*
X267527Y300002D01*
X267259Y300103D01*
X266755Y300371D01*
X266688Y300438D01*
X266621Y300472D01*
X266420Y300606D01*
X266403Y300623D01*
X266252Y300774D01*
X266185Y300807D01*
X265799Y301193D01*
X265766Y301260D01*
X265598Y301495D01*
X265564Y301562D01*
X265497Y301629D01*
X265463Y301697D01*
X265229Y302066D01*
X265094Y302368D01*
X265061Y302502D01*
X264927Y302938D01*
X264809Y303257D01*
X264759Y303408D01*
X264725Y303643D01*
X264708Y304263D01*
X264742Y304968D01*
X264776Y305102D01*
X264843Y305270D01*
X264960Y305656D01*
X265178Y306277D01*
X265346Y306545D01*
X265430Y306663D01*
X265564Y306864D01*
X265732Y307166D01*
X265799Y307233D01*
X265833Y307300D01*
X266017Y307485D01*
X266084Y307518D01*
X266252Y307686D01*
X266319Y307720D01*
X266420Y307820D01*
X266487Y307854D01*
X266554Y307921D01*
X266621Y307955D01*
X266688Y308022D01*
X266755Y308055D01*
X266822Y308122D01*
X266890Y308156D01*
X267259Y308357D01*
X267426Y308458D01*
X267695Y308558D01*
X267930Y308659D01*
X268165Y308693D01*
X268232Y308760D01*
X268467Y308827D01*
X268970Y308860D01*
X269205Y308961D01*
X269540Y308995D01*
X270581Y308961D01*
D02*
G37*
G36*
X218035Y305975D02*
X218119Y305891D01*
X218152Y304012D01*
X218203Y303961D01*
X218404Y303928D01*
X218572Y303995D01*
X219075Y304230D01*
X219495Y304314D01*
X219780Y304331D01*
X219880Y304297D01*
X220098Y304247D01*
X220317Y304163D01*
X220551Y303995D01*
X220619Y303961D01*
X220669Y303911D01*
X220702Y303844D01*
X220770Y303777D01*
X220971Y303341D01*
X221004Y302905D01*
X220971Y299918D01*
X220786Y299834D01*
X220384Y299868D01*
X220317Y299834D01*
X220216Y299868D01*
X220098Y299918D01*
X220065Y300052D01*
X220082Y301982D01*
X220048Y302552D01*
X220015Y302720D01*
X219864Y302972D01*
X219830Y303039D01*
X219713Y303190D01*
X219645Y303223D01*
X219629Y303240D01*
X219612Y303257D01*
X219444Y303358D01*
X219310Y303391D01*
X218773Y303358D01*
X218471Y303123D01*
X218421Y303072D01*
X218387Y303005D01*
X218320Y302938D01*
X218236Y302720D01*
X218152Y302435D01*
X218119Y301898D01*
X218085Y299918D01*
X218035Y299868D01*
X217901Y299834D01*
X217498Y299868D01*
X217397Y299834D01*
X217263Y299868D01*
X217196Y299902D01*
X217146Y299952D01*
X217112Y300187D01*
X217129Y305572D01*
X217112Y305790D01*
X217196Y305941D01*
X217464Y306008D01*
X218035Y305975D01*
D02*
G37*
G36*
X215569Y305857D02*
X215736Y305757D01*
X215753Y305606D01*
X215736Y304448D01*
X215887Y304297D01*
X216122Y304230D01*
X216357Y304196D01*
X216407Y304146D01*
X216374Y303441D01*
X216324Y303391D01*
X215854Y303358D01*
X215770Y303307D01*
X215736Y303173D01*
X215703Y299918D01*
X215485Y299834D01*
X215250Y299868D01*
X214948Y299834D01*
X214780Y299935D01*
X214763Y301495D01*
Y301529D01*
X214730Y303139D01*
X214579Y303324D01*
X214411Y303391D01*
X214210Y303425D01*
X214159Y303576D01*
X214193Y304079D01*
X214243Y304163D01*
X214411Y304230D01*
X214679Y304263D01*
X214763Y304347D01*
X214797Y304482D01*
X214763Y304616D01*
X214797Y305757D01*
X214847Y305807D01*
X215015Y305874D01*
X215351Y305908D01*
X215569Y305857D01*
D02*
G37*
G36*
X224846Y304263D02*
X225182Y304230D01*
X225383Y304096D01*
X225601Y304012D01*
X225719Y303928D01*
X226021Y303693D01*
X226138Y303576D01*
X226172Y303509D01*
X226306Y303307D01*
X226474Y302938D01*
X226608Y302502D01*
X226625Y301948D01*
X226574Y301831D01*
X226423Y301781D01*
X223101Y301747D01*
X223051Y301697D01*
X223034Y301613D01*
X223068Y301479D01*
X223135Y301311D01*
X223253Y301126D01*
X223504Y300874D01*
X223571Y300841D01*
X223638Y300774D01*
X223856Y300690D01*
X224024Y300623D01*
X224242Y300539D01*
X224678Y300573D01*
X224980Y300707D01*
X225148Y300774D01*
X225215Y300841D01*
X225283Y300874D01*
X225350Y300942D01*
X225517Y301009D01*
X225585Y300975D01*
X225618D01*
X225836Y300891D01*
X226004Y300824D01*
X226172Y300724D01*
X226205Y300589D01*
X226121Y300438D01*
X226054Y300405D01*
X225920Y300271D01*
X225853Y300237D01*
X225786Y300170D01*
X225719Y300136D01*
X225450Y299969D01*
X225283Y299902D01*
X225048Y299834D01*
X224762Y299784D01*
X224628Y299750D01*
X224142Y299734D01*
X224041Y299767D01*
X223622Y299818D01*
X223353Y299918D01*
X223169Y300002D01*
X223001Y300103D01*
X222934Y300170D01*
X222867Y300203D01*
X222799Y300271D01*
X222732Y300304D01*
X222481Y300556D01*
X222447Y300623D01*
X222279Y300891D01*
X222246Y300958D01*
X222145Y301193D01*
X222078Y301596D01*
X222045Y301932D01*
X222095Y302452D01*
X222128Y302653D01*
X222162Y302787D01*
X222498Y303358D01*
X222632Y303559D01*
X222867Y303794D01*
X222934Y303827D01*
X223001Y303894D01*
X223068Y303928D01*
X223135Y303995D01*
X223638Y304230D01*
X223974Y304263D01*
X224611Y304297D01*
X224846Y304263D01*
D02*
G37*
G36*
X259206Y308961D02*
X259440Y308860D01*
X259575Y308827D01*
X259977Y308793D01*
X260179Y308659D01*
X260481Y308626D01*
X260682Y308491D01*
X260816Y308458D01*
X261051Y308290D01*
X261118Y308256D01*
X261185Y308189D01*
X261252Y308156D01*
X261554Y307921D01*
X261739Y307770D01*
X261773Y307703D01*
X262108Y307367D01*
X262142Y307300D01*
X262242Y307200D01*
X262276Y307132D01*
X262343Y307065D01*
X262376Y306998D01*
X262544Y306730D01*
X262611Y306562D01*
X262880Y305992D01*
X262930Y305773D01*
X262997Y305438D01*
X263031Y305304D01*
X263064Y305136D01*
X263131Y304599D01*
X263148Y303844D01*
X263031Y303727D01*
X255984Y303693D01*
X255901Y303609D01*
X255934Y303341D01*
X256035Y303106D01*
X256068Y302972D01*
X256236Y302703D01*
X256337Y302536D01*
X256404Y302468D01*
X256437Y302401D01*
X256689Y302150D01*
X256756Y302116D01*
X256857Y302015D01*
X256924Y301982D01*
X257159Y301814D01*
X257595Y301613D01*
X257729Y301579D01*
X258031Y301546D01*
X258266Y301445D01*
X258551Y301428D01*
X258920Y301462D01*
X259055Y301495D01*
X259340Y301579D01*
X259608Y301613D01*
X259675Y301680D01*
X259910Y301781D01*
X259977Y301814D01*
X260347Y302015D01*
X260531Y302166D01*
X260749Y302284D01*
X261051Y302250D01*
X261252Y302116D01*
X261387Y302082D01*
X261756Y301915D01*
X261924Y301814D01*
X262091Y301747D01*
X262226Y301713D01*
X262410Y301529D01*
X262376Y301395D01*
X262209Y301227D01*
X262175Y301160D01*
X262091Y301076D01*
X262024Y301042D01*
X261907Y300925D01*
X261873Y300858D01*
X261689Y300673D01*
X261621Y300640D01*
X261554Y300573D01*
X261487Y300539D01*
X261387Y300438D01*
X261085Y300271D01*
X260816Y300103D01*
X260598Y300019D01*
X260263Y299885D01*
X260078Y299834D01*
X259692Y299750D01*
X259508Y299700D01*
X259071Y299667D01*
X258535Y299633D01*
X257713Y299683D01*
X257377Y299717D01*
X257092Y299801D01*
X256958Y299834D01*
X256773Y299885D01*
X256589Y299969D01*
X256320Y300069D01*
X255817Y300338D01*
X255750Y300405D01*
X255682Y300438D01*
X255515Y300606D01*
X255448Y300640D01*
X255313Y300774D01*
X255246Y300807D01*
X254827Y301227D01*
X254793Y301294D01*
X254659Y301428D01*
X254626Y301495D01*
X254558Y301562D01*
X254256Y302200D01*
X254122Y302536D01*
X254089Y302670D01*
X253988Y302905D01*
X253921Y303072D01*
X253871Y303693D01*
X253854Y304683D01*
X253887Y304784D01*
X253921Y305287D01*
Y305321D01*
X253954Y305555D01*
X254089Y305757D01*
X254139Y305941D01*
X254256Y306226D01*
X254458Y306663D01*
X254592Y306897D01*
X254827Y307200D01*
X254961Y307334D01*
X254995Y307401D01*
X255146Y307585D01*
X255313Y307753D01*
X255381Y307787D01*
X255481Y307887D01*
X255548Y307921D01*
X255682Y308055D01*
X255750Y308089D01*
X255817Y308156D01*
X255884Y308189D01*
X256085Y308324D01*
X256152Y308357D01*
X256723Y308626D01*
X256857Y308659D01*
X257226Y308827D01*
X257662Y308860D01*
X257897Y308961D01*
X258233Y308995D01*
X259206Y308961D01*
D02*
G37*
G36*
X248301D02*
X248535Y308860D01*
X248670Y308827D01*
X249106Y308793D01*
X249274Y308693D01*
X249542Y308626D01*
X249609Y308592D01*
X250347Y308189D01*
X250431Y308139D01*
X250448Y308122D01*
X250582Y307988D01*
X250649Y307955D01*
X251237Y307367D01*
X251270Y307300D01*
X251404Y307166D01*
X251438Y307099D01*
X251606Y306864D01*
X251639Y306730D01*
X251773Y306528D01*
X251941Y306092D01*
X251975Y305958D01*
X252109Y305522D01*
X252143Y305388D01*
X252193Y305035D01*
X252226Y304834D01*
X252277Y304381D01*
X252243Y303811D01*
X252193Y303760D01*
X252059Y303727D01*
X245079Y303693D01*
X244995Y303609D01*
X245029Y303374D01*
X245096Y303207D01*
X245180Y302989D01*
X245331Y302703D01*
X245566Y302401D01*
X245633Y302334D01*
X245667Y302267D01*
X245717Y302217D01*
X245784Y302183D01*
X245952Y302015D01*
X246019Y301982D01*
X246254Y301814D01*
X246757Y301613D01*
X246891Y301579D01*
X247160Y301546D01*
X247327Y301479D01*
X247764Y301445D01*
X247999Y301479D01*
X248133Y301512D01*
X248368Y301579D01*
X248703Y301613D01*
X248871Y301713D01*
X249190Y301831D01*
X249240Y301881D01*
X249475Y302015D01*
X249576Y302116D01*
X249643Y302150D01*
X249743Y302250D01*
X249878Y302284D01*
X250146Y302250D01*
X250851Y301915D01*
X251220Y301747D01*
X251321Y301713D01*
X251505Y301562D01*
X251539Y301462D01*
X251471Y301395D01*
X251438Y301327D01*
X251304Y301193D01*
X251270Y301126D01*
X251136Y301026D01*
X251102Y300958D01*
X250985Y300841D01*
X250918Y300807D01*
X250716Y300606D01*
X250649Y300573D01*
X250180Y300237D01*
X249743Y300036D01*
X249307Y299868D01*
X249173Y299834D01*
X248955Y299784D01*
X248770Y299734D01*
X248636Y299700D01*
X248015Y299650D01*
X247193Y299633D01*
X247093Y299667D01*
X246556Y299700D01*
X246455Y299734D01*
X246220Y299801D01*
X245868Y299885D01*
X245516Y300036D01*
X245079Y300271D01*
X244845Y300405D01*
X244543Y300640D01*
X244408Y300774D01*
X244341Y300807D01*
X244224Y300925D01*
X244190Y300992D01*
X244140Y301042D01*
X244073Y301076D01*
X243955Y301193D01*
X243922Y301260D01*
X243821Y301361D01*
X243788Y301428D01*
X243620Y301663D01*
X243284Y302368D01*
X243217Y302536D01*
X243116Y302770D01*
X243083Y303173D01*
X243049Y303274D01*
X243016Y303408D01*
X242966Y303727D01*
X242949Y304649D01*
X242982Y304750D01*
X243016Y305253D01*
X243083Y305421D01*
X243116Y305656D01*
X243200Y305874D01*
X243284Y306059D01*
X243318Y306126D01*
X243419Y306294D01*
X243536Y306612D01*
X243687Y306897D01*
X243838Y307082D01*
X243989Y307233D01*
X244022Y307300D01*
X244090Y307367D01*
X244123Y307434D01*
X244643Y307955D01*
X244710Y307988D01*
X244777Y308055D01*
X244845Y308089D01*
X244912Y308156D01*
X244979Y308189D01*
X245214Y308357D01*
X245281Y308391D01*
X245851Y308659D01*
X246019Y308693D01*
X246187Y308793D01*
X246321Y308827D01*
X246757Y308860D01*
X246992Y308961D01*
X247227Y308995D01*
X248301Y308961D01*
D02*
G37*
%LPC*%
G36*
X261320Y321611D02*
X261219Y321577D01*
X260984Y321544D01*
X260850Y321510D01*
X260632Y321426D01*
X260263Y321292D01*
X260011Y321141D01*
X259776Y321007D01*
X259592Y320856D01*
X259541Y320806D01*
X259474Y320772D01*
X259222Y320520D01*
X259189Y320453D01*
X258988Y320252D01*
X258954Y320185D01*
X258887Y320118D01*
X258551Y319413D01*
X258484Y319178D01*
X258384Y318776D01*
X258350Y318541D01*
X258384Y317601D01*
X258484Y317366D01*
X258535Y317115D01*
X258686Y316762D01*
X258719Y316695D01*
X258853Y316460D01*
X258954Y316293D01*
X259105Y316108D01*
X259357Y315856D01*
X259390Y315789D01*
X259508Y315705D01*
X259709Y315504D01*
X259776Y315471D01*
X259977Y315336D01*
X260045Y315303D01*
X260246Y315169D01*
X260430Y315118D01*
X260581Y315034D01*
X260816Y314967D01*
X261001Y314917D01*
X261152Y314867D01*
X261286Y314833D01*
X261924Y314799D01*
X262527Y314833D01*
X262829Y314967D01*
X263115Y315018D01*
X263366Y315169D01*
X263501Y315202D01*
X263568Y315269D01*
X263803Y315404D01*
X263987Y315554D01*
X264071Y315638D01*
X264138Y315672D01*
X264323Y315823D01*
X264390Y315890D01*
X264423Y315957D01*
X264490Y316024D01*
X264524Y316091D01*
X264591Y316158D01*
X264625Y316226D01*
X264792Y316494D01*
X264826Y316561D01*
X264893Y316628D01*
X264994Y316863D01*
X265061Y317131D01*
X265111Y317350D01*
X265178Y317618D01*
X265212Y317819D01*
X265245Y318088D01*
X265262Y318339D01*
X265229Y318440D01*
X265195Y318708D01*
X265161Y318809D01*
X265094Y319044D01*
X265027Y319313D01*
X264960Y319480D01*
X264625Y320084D01*
X264524Y320185D01*
X264490Y320252D01*
X264356Y320386D01*
X264323Y320453D01*
X264004Y320772D01*
X263937Y320806D01*
X263803Y320940D01*
X263736Y320973D01*
X263366Y321208D01*
X263064Y321342D01*
X263031D01*
X263014Y321359D01*
X262645Y321494D01*
X262511Y321527D01*
X262309Y321561D01*
X262142Y321594D01*
X261320Y321611D01*
D02*
G37*
G36*
X230685Y321644D02*
X230584Y321611D01*
X229946Y321577D01*
X229846Y321544D01*
X229494Y321460D01*
X229309Y321376D01*
X229175Y321342D01*
X228739Y321108D01*
X228437Y320873D01*
X228252Y320722D01*
X228135Y320638D01*
X228084Y320588D01*
X228051Y320520D01*
X227883Y320353D01*
X227849Y320286D01*
X227782Y320218D01*
X227749Y320151D01*
X227682Y320084D01*
X227346Y319380D01*
X227245Y319044D01*
X227212Y318910D01*
X227178Y318574D01*
X227145Y318071D01*
X227178Y317970D01*
X227212Y317568D01*
X227245Y317467D01*
X227279Y317333D01*
X227396Y317014D01*
X227464Y316846D01*
X227614Y316561D01*
X227749Y316326D01*
X227816Y316259D01*
X227849Y316192D01*
X227917Y316125D01*
X227950Y316058D01*
X228269Y315739D01*
X228336Y315705D01*
X228537Y315504D01*
X228604Y315471D01*
X228974Y315236D01*
X229041Y315202D01*
X229477Y315001D01*
X229611Y314967D01*
X229796Y314917D01*
X230014Y314833D01*
X230752Y314799D01*
X231423Y314833D01*
X231725Y314967D01*
X231943Y315018D01*
X232060Y315068D01*
X232077Y315085D01*
X232128Y315135D01*
X232631Y315404D01*
X232933Y315638D01*
X233386Y316091D01*
X233419Y316158D01*
X233587Y316460D01*
X233721Y316762D01*
X233923Y317199D01*
X233990Y317467D01*
X234023Y317702D01*
X234040Y318323D01*
X234007Y318658D01*
X233973Y318792D01*
X233872Y319296D01*
X233637Y319765D01*
X233470Y320034D01*
X233335Y320235D01*
X233218Y320353D01*
X233201Y320403D01*
X233134Y320437D01*
X233084Y320487D01*
X233050Y320554D01*
X232866Y320739D01*
X232799Y320772D01*
X232698Y320873D01*
X232631Y320906D01*
X232564Y320973D01*
X232497Y321007D01*
X232228Y321175D01*
X231792Y321376D01*
X231574Y321460D01*
X231389Y321510D01*
X231255Y321544D01*
X231003Y321594D01*
X230802Y321628D01*
X230685Y321644D01*
D02*
G37*
G36*
X224091Y303509D02*
X223823Y303408D01*
X223689Y303374D01*
X223504Y303257D01*
X223320Y303106D01*
X223169Y302921D01*
X223118Y302770D01*
X223152Y302670D01*
X223269Y302552D01*
X223504Y302485D01*
X223957Y302536D01*
X224242Y302552D01*
X224343Y302519D01*
X225400Y302502D01*
X225517Y302552D01*
X225568Y302703D01*
X225534Y302804D01*
X225450Y302921D01*
X225433Y302938D01*
X225333Y303039D01*
X225299Y303106D01*
X225215Y303190D01*
X225048Y303290D01*
X224980Y303358D01*
X224762Y303441D01*
X224578Y303492D01*
X224091Y303509D01*
D02*
G37*
G36*
X258166Y307183D02*
X258065Y307149D01*
X257931Y307116D01*
X257696Y307082D01*
X257377Y306965D01*
X256857Y306679D01*
X256404Y306226D01*
X256370Y306159D01*
X256303Y306092D01*
X256270Y306025D01*
X256068Y305589D01*
X256102Y305488D01*
X256186Y305404D01*
X256354Y305337D01*
X256488Y305304D01*
X257075Y305321D01*
X260850Y305304D01*
X260934Y305354D01*
X261001Y305522D01*
X260900Y305690D01*
X260833Y305757D01*
X260800Y305891D01*
X260481Y306310D01*
X260179Y306612D01*
X260145D01*
X260045Y306713D01*
X259340Y307049D01*
X259055Y307099D01*
X258786Y307166D01*
X258166Y307183D01*
D02*
G37*
G36*
X247294D02*
X247193Y307149D01*
X246640Y307032D01*
X246170Y306797D01*
X245901Y306629D01*
X245750Y306478D01*
X245683Y306445D01*
X245633Y306394D01*
X245600Y306327D01*
X245532Y306260D01*
X245499Y306193D01*
X245331Y305958D01*
X245298Y305891D01*
X245163Y305589D01*
X245247Y305471D01*
X245616Y305304D01*
X246623D01*
X249324Y305321D01*
X249945Y305304D01*
X250062Y305388D01*
X250096Y305522D01*
X249827Y306025D01*
X249676Y306210D01*
X249559Y306327D01*
X249525Y306394D01*
X249475Y306445D01*
X249408Y306478D01*
X249207Y306679D01*
X248905Y306847D01*
X248535Y307015D01*
X248267Y307082D01*
X248049Y307132D01*
X247915Y307166D01*
X247294Y307183D01*
D02*
G37*
%LPD*%
D10*
X109089Y184150D02*
G03*
X109089Y184150I-106J0D01*
G01*
X169474Y84555D02*
G03*
X169474Y84555I-106J0D01*
G01*
X59383Y376224D02*
G03*
X59383Y376224I-106J0D01*
G01*
X180954Y228425D02*
G03*
X180954Y228425I-106J0D01*
G01*
X57024Y259050D02*
G03*
X57024Y259050I-106J0D01*
G01*
X46005Y376224D02*
G03*
X46005Y376224I-106J0D01*
G01*
X84992Y311075D02*
G03*
X84992Y311075I-106J0D01*
G01*
X205081Y148550D02*
G03*
X205081Y148550I-106J0D01*
G01*
X32625Y376224D02*
G03*
X32625Y376224I-106J0D01*
G01*
X245232Y297373D02*
G03*
X245232Y297373I-106J0D01*
G01*
X47057Y87717D02*
G03*
X47057Y87717I-106J0D01*
G01*
X93779Y83021D02*
G03*
X93779Y83021I-106J0D01*
G01*
X114300Y368900D02*
X142900D01*
X114300Y393700D02*
X142900D01*
Y368900D02*
Y393700D01*
X114300Y368900D02*
Y393700D01*
X84727Y172879D02*
X113073D01*
X84727D02*
Y182721D01*
X113073D01*
Y172879D02*
Y182721D01*
X167717Y255118D02*
X173622Y250394D01*
X145111Y73284D02*
X173458D01*
X145111D02*
Y83126D01*
X173458D01*
Y73284D02*
Y83126D01*
X60706Y380315D02*
X70549D01*
X60706Y351969D02*
Y380315D01*
Y351969D02*
X70549D01*
Y380315D01*
X192120Y204169D02*
Y232516D01*
X182277Y204169D02*
X192120D01*
X182277D02*
Y232516D01*
X192120D01*
X52827Y260479D02*
Y270321D01*
Y260479D02*
X81173D01*
Y270321D01*
X52827D02*
X81173D01*
X57170Y351969D02*
Y380315D01*
X47327Y351969D02*
X57170D01*
X47327D02*
Y380315D01*
X57170D01*
X60630Y299803D02*
X88976D01*
X60630D02*
Y309646D01*
X88976D01*
Y299803D02*
Y309646D01*
X180719Y137279D02*
X209066D01*
X180719D02*
Y147121D01*
X209066D01*
Y137279D02*
Y147121D01*
X43791Y351969D02*
Y380315D01*
X33948Y351969D02*
X43791D01*
X33948D02*
Y380315D01*
X43791D01*
X220869Y286101D02*
X249216D01*
X220869D02*
Y295943D01*
X249216D01*
Y286101D02*
Y295943D01*
X35679Y83627D02*
Y111973D01*
X45521D01*
Y83627D02*
Y111973D01*
X35679Y83627D02*
X45521D01*
X69417Y71749D02*
X97764D01*
X69417D02*
Y81591D01*
X97764D01*
Y71749D02*
Y81591D01*
X63301Y41001D02*
X68299D01*
X69299Y42001D01*
Y44000D01*
X68299Y45000D01*
X63301D01*
X69299Y46999D02*
Y48999D01*
Y47999D01*
X63301D01*
X64301Y46999D01*
X88052Y190976D02*
X87052Y191975D01*
X85053D01*
X84053Y190976D01*
Y186977D01*
X85053Y185977D01*
X87052D01*
X88052Y186977D01*
X90051Y185977D02*
X92051D01*
X91051D01*
Y191975D01*
X90051Y190976D01*
X95050Y185977D02*
X97049D01*
X96049D01*
Y191975D01*
X95050Y190976D01*
X168017Y258480D02*
X173016D01*
X170517D01*
Y261813D01*
X168017D01*
X173016D01*
X168017Y263479D02*
X173016D01*
X171350Y265145D01*
X173016Y266811D01*
X168017D01*
X169290Y238795D02*
X171789D01*
X172622Y239628D01*
Y242127D01*
X169290D01*
X168457Y247126D02*
X167624Y246293D01*
Y244627D01*
X168457Y243794D01*
X171789D01*
X172622Y244627D01*
Y246293D01*
X171789Y247126D01*
X183000Y361600D02*
Y367598D01*
X185999D01*
X186999Y366598D01*
Y364599D01*
X185999Y363599D01*
X183000D01*
X184999D02*
X186999Y361600D01*
X191997D02*
X189998D01*
X188998Y362600D01*
Y364599D01*
X189998Y365599D01*
X191997D01*
X192997Y364599D01*
Y363599D01*
X188998D01*
X194996Y365599D02*
X196995Y361600D01*
X198995Y365599D01*
X200994Y364599D02*
X204993D01*
X210991Y361600D02*
X206992D01*
X210991Y365599D01*
Y366598D01*
X209991Y367598D01*
X207992D01*
X206992Y366598D01*
X218988Y367598D02*
X220988D01*
X219988D01*
Y361600D01*
X218988D01*
X220988D01*
X223987Y367598D02*
Y361600D01*
X226986D01*
X227985Y362600D01*
Y366598D01*
X226986Y367598D01*
X223987D01*
X269834Y282933D02*
X269168Y283599D01*
X267835D01*
X267168Y282933D01*
Y282266D01*
X267835Y281600D01*
X269168D01*
X269834Y280934D01*
Y280267D01*
X269168Y279601D01*
X267835D01*
X267168Y280267D01*
X273833Y282933D02*
X273166Y283599D01*
X271834D01*
X271167Y282933D01*
Y280267D01*
X271834Y279601D01*
X273166D01*
X273833Y280267D01*
X275166Y283599D02*
Y279601D01*
X277832D01*
X255834Y282533D02*
X255168Y283199D01*
X253835D01*
X253168Y282533D01*
Y281866D01*
X253835Y281200D01*
X255168D01*
X255834Y280534D01*
Y279867D01*
X255168Y279201D01*
X253835D01*
X253168Y279867D01*
X257167Y283199D02*
Y279201D01*
X259166D01*
X259833Y279867D01*
Y282533D01*
X259166Y283199D01*
X257167D01*
X261166Y279201D02*
Y281866D01*
X262499Y283199D01*
X263832Y281866D01*
Y279201D01*
Y281200D01*
X261166D01*
X45513Y300589D02*
X39515D01*
Y303588D01*
X40514Y304587D01*
X42514D01*
X43514Y303588D01*
Y300589D01*
Y302588D02*
X45513Y304587D01*
Y306587D02*
Y308586D01*
Y307587D01*
X39515D01*
X40514Y306587D01*
X45513Y311585D02*
Y313584D01*
Y312585D01*
X39515D01*
X40514Y311585D01*
X218301Y42833D02*
X217635Y43499D01*
X216302D01*
X215635Y42833D01*
Y40167D01*
X216302Y39501D01*
X217635D01*
X218301Y40167D01*
Y41500D01*
X216968D01*
X219634Y39501D02*
Y43499D01*
X222300Y39501D01*
Y43499D01*
X223633D02*
Y39501D01*
X225632D01*
X226299Y40167D01*
Y42833D01*
X225632Y43499D01*
X223633D01*
X227632Y39501D02*
X228964D01*
X228298D01*
Y43499D01*
X227632Y42833D01*
X34456Y300513D02*
X28458D01*
Y303513D01*
X29457Y304512D01*
X31457D01*
X32456Y303513D01*
Y300513D01*
Y302513D02*
X34456Y304512D01*
X29457Y306511D02*
X28458Y307511D01*
Y309510D01*
X29457Y310510D01*
X30457D01*
X31457Y309510D01*
X32456Y310510D01*
X33456D01*
X34456Y309510D01*
Y307511D01*
X33456Y306511D01*
X32456D01*
X31457Y307511D01*
X30457Y306511D01*
X29457D01*
X31457Y307511D02*
Y309510D01*
X234318Y34433D02*
Y32434D01*
Y33434D01*
X239317D01*
X240316Y32434D01*
Y31434D01*
X239317Y30435D01*
X235318Y36433D02*
X234318Y37432D01*
Y39432D01*
X235318Y40431D01*
X236317D01*
X237317Y39432D01*
Y38432D01*
Y39432D01*
X238317Y40431D01*
X239317D01*
X240316Y39432D01*
Y37432D01*
X239317Y36433D01*
X71409Y336645D02*
X74075D01*
X72742D01*
Y332646D01*
X75408Y336645D02*
Y332646D01*
Y334646D01*
X78074D01*
Y336645D01*
Y332646D01*
X79407D02*
Y336645D01*
X81406D01*
X82072Y335979D01*
Y334646D01*
X81406Y333979D01*
X79407D01*
X80739D02*
X82072Y332646D01*
X85405Y336645D02*
X84072D01*
X83405Y335979D01*
Y333313D01*
X84072Y332646D01*
X85405D01*
X86071Y333313D01*
Y335979D01*
X85405Y336645D01*
X119928Y150770D02*
X113930D01*
Y153769D01*
X114930Y154769D01*
X116929D01*
X117929Y153769D01*
Y150770D01*
Y152769D02*
X119928Y154769D01*
Y156768D02*
Y158767D01*
Y157768D01*
X113930D01*
X114930Y156768D01*
X113930Y165765D02*
X114930Y163766D01*
X116929Y161767D01*
X118929D01*
X119928Y162766D01*
Y164766D01*
X118929Y165765D01*
X117929D01*
X116929Y164766D01*
Y161767D01*
X156101Y70599D02*
X155102Y71599D01*
X153102D01*
X152102Y70599D01*
Y66601D01*
X153102Y65601D01*
X155102D01*
X156101Y66601D01*
X158100Y65601D02*
X160100D01*
X159100D01*
Y71599D01*
X158100Y70599D01*
X167098Y65601D02*
X163099D01*
X167098Y69600D01*
Y70599D01*
X166098Y71599D01*
X164099D01*
X163099Y70599D01*
X153966Y141852D02*
X147968D01*
Y144851D01*
X148968Y145851D01*
X150967D01*
X151967Y144851D01*
Y141852D01*
Y143851D02*
X153966Y145851D01*
Y151849D02*
Y147850D01*
X149967Y151849D01*
X148968D01*
X147968Y150849D01*
Y148850D01*
X148968Y147850D01*
X177099Y139119D02*
X171101D01*
Y142118D01*
X172101Y143118D01*
X174100D01*
X175100Y142118D01*
Y139119D01*
Y141118D02*
X177099Y143118D01*
Y145117D02*
Y147116D01*
Y146117D01*
X171101D01*
X172101Y145117D01*
Y150115D02*
X171101Y151115D01*
Y153114D01*
X172101Y154114D01*
X173100D01*
X174100Y153114D01*
X175100Y154114D01*
X176099D01*
X177099Y153114D01*
Y151115D01*
X176099Y150115D01*
X175100D01*
X174100Y151115D01*
X173100Y150115D01*
X172101D01*
X174100Y151115D02*
Y153114D01*
X175952Y271812D02*
Y277810D01*
X178951D01*
X179951Y276811D01*
Y274811D01*
X178951Y273812D01*
X175952D01*
X181950Y276811D02*
X182950Y277810D01*
X184950D01*
X185949Y276811D01*
Y275811D01*
X184950Y274811D01*
X183950D01*
X184950D01*
X185949Y273812D01*
Y272812D01*
X184950Y271812D01*
X182950D01*
X181950Y272812D01*
X201268Y59100D02*
X203934D01*
X202601Y60433D02*
Y57767D01*
X207933Y61099D02*
X205267D01*
Y59100D01*
X206600Y59766D01*
X207266D01*
X207933Y59100D01*
Y57767D01*
X207266Y57101D01*
X205934D01*
X205267Y57767D01*
X209266Y61099D02*
Y58434D01*
X210599Y57101D01*
X211932Y58434D01*
Y61099D01*
X67596Y366142D02*
X68596Y367141D01*
Y369141D01*
X67596Y370140D01*
X63598D01*
X62598Y369141D01*
Y367141D01*
X63598Y366142D01*
X62598Y364142D02*
Y362143D01*
Y363143D01*
X68596D01*
X67596Y364142D01*
X65068Y230699D02*
Y226701D01*
X67068D01*
X67734Y227367D01*
Y230033D01*
X67068Y230699D01*
X65068D01*
X69067Y226701D02*
Y229366D01*
X70400Y230699D01*
X71733Y229366D01*
Y226701D01*
Y228700D01*
X69067D01*
X75732Y230033D02*
X75065Y230699D01*
X73732D01*
X73066Y230033D01*
Y227367D01*
X73732Y226701D01*
X75065D01*
X75732Y227367D01*
X182527Y94471D02*
X176529D01*
Y97470D01*
X177528Y98470D01*
X179528D01*
X180527Y97470D01*
Y94471D01*
Y96470D02*
X182527Y98470D01*
Y100469D02*
Y102468D01*
Y101469D01*
X176529D01*
X177528Y100469D01*
X176529Y109466D02*
Y105467D01*
X179528D01*
X178528Y107467D01*
Y108466D01*
X179528Y109466D01*
X181527D01*
X182527Y108466D01*
Y106467D01*
X181527Y105467D01*
X174899Y214544D02*
X173899Y213544D01*
Y211545D01*
X174899Y210545D01*
X178898D01*
X179897Y211545D01*
Y213544D01*
X178898Y214544D01*
X179897Y216543D02*
Y218542D01*
Y217543D01*
X173899D01*
X174899Y216543D01*
Y221541D02*
X173899Y222541D01*
Y224540D01*
X174899Y225540D01*
X178898D01*
X179897Y224540D01*
Y222541D01*
X178898Y221541D01*
X174899D01*
X191125Y328316D02*
Y330981D01*
X192458Y332314D01*
X193791Y330981D01*
Y328316D01*
Y330315D01*
X191125D01*
X195124Y328316D02*
Y332314D01*
X197790Y328316D01*
Y332314D01*
X199123D02*
Y328316D01*
X201122D01*
X201788Y328982D01*
Y331648D01*
X201122Y332314D01*
X199123D01*
X207502Y99999D02*
Y95001D01*
X208501Y94001D01*
X210501D01*
X211500Y95001D01*
Y99999D01*
X216499Y94001D02*
Y99999D01*
X213500Y97000D01*
X217498D01*
X235676Y109453D02*
X229678D01*
Y112452D01*
X230678Y113452D01*
X232677D01*
X233677Y112452D01*
Y109453D01*
Y111453D02*
X235676Y113452D01*
X229678Y115452D02*
Y119450D01*
X230678D01*
X234677Y115452D01*
X235676D01*
X233160Y382828D02*
Y388826D01*
X235159Y386826D01*
X237158Y388826D01*
Y382828D01*
X239158Y388826D02*
Y382828D01*
Y385827D01*
X243157D01*
Y388826D01*
Y382828D01*
X245156D02*
X247155D01*
X246156D01*
Y388826D01*
X245156Y387826D01*
X70101Y257299D02*
X69102Y258299D01*
X67102D01*
X66102Y257299D01*
Y253301D01*
X67102Y252301D01*
X69102D01*
X70101Y253301D01*
X72101Y252301D02*
X74100D01*
X73100D01*
Y258299D01*
X72101Y257299D01*
X80098Y252301D02*
Y258299D01*
X77099Y255300D01*
X81098D01*
X127802Y96576D02*
X121804D01*
Y99575D01*
X122804Y100575D01*
X124803D01*
X125803Y99575D01*
Y96576D01*
Y98576D02*
X127802Y100575D01*
X121804Y106573D02*
X122804Y104574D01*
X124803Y102575D01*
X126803D01*
X127802Y103574D01*
Y105573D01*
X126803Y106573D01*
X125803D01*
X124803Y105573D01*
Y102575D01*
X152302Y117899D02*
Y112901D01*
X153301Y111901D01*
X155301D01*
X156300Y112901D01*
Y117899D01*
X158300Y116899D02*
X159299Y117899D01*
X161299D01*
X162298Y116899D01*
Y115900D01*
X161299Y114900D01*
X160299D01*
X161299D01*
X162298Y113900D01*
Y112901D01*
X161299Y111901D01*
X159299D01*
X158300Y112901D01*
X165204Y138959D02*
X159206D01*
Y141958D01*
X160205Y142958D01*
X162205D01*
X163204Y141958D01*
Y138959D01*
Y140958D02*
X165204Y142958D01*
Y144957D02*
Y146957D01*
Y145957D01*
X159206D01*
X160205Y144957D01*
X165204Y152955D02*
X159206D01*
X162205Y149956D01*
Y153954D01*
X181703Y39501D02*
X183036D01*
X182370D01*
Y42166D01*
X181703D01*
X187702Y42833D02*
X187035Y43499D01*
X185702D01*
X185036Y42833D01*
Y42166D01*
X185702Y41500D01*
X187035D01*
X187702Y40834D01*
Y40167D01*
X187035Y39501D01*
X185702D01*
X185036Y40167D01*
X191034Y39501D02*
X189701D01*
X189034Y40167D01*
Y41500D01*
X189701Y42166D01*
X191034D01*
X191700Y41500D01*
Y40834D01*
X189034D01*
X193033Y39501D02*
Y42166D01*
X195033D01*
X195699Y41500D01*
Y39501D01*
X197032D02*
X199031D01*
X199698Y40167D01*
X199031Y40834D01*
X197698D01*
X197032Y41500D01*
X197698Y42166D01*
X199698D01*
X203030Y39501D02*
X201697D01*
X201031Y40167D01*
Y41500D01*
X201697Y42166D01*
X203030D01*
X203696Y41500D01*
Y40834D01*
X201031D01*
X225440Y186884D02*
X219442D01*
Y189883D01*
X220442Y190883D01*
X222441D01*
X223441Y189883D01*
Y186884D01*
Y188884D02*
X225440Y190883D01*
Y196881D02*
Y192883D01*
X221441Y196881D01*
X220442D01*
X219442Y195882D01*
Y193882D01*
X220442Y192883D01*
X219442Y202879D02*
Y198881D01*
X222441D01*
X221441Y200880D01*
Y201880D01*
X222441Y202879D01*
X224440D01*
X225440Y201880D01*
Y199880D01*
X224440Y198881D01*
X1598Y33898D02*
Y39896D01*
X3597Y37897D01*
X5597Y39896D01*
Y33898D01*
X7596Y39896D02*
Y33898D01*
Y36897D01*
X11595D01*
Y39896D01*
Y33898D01*
X16593D02*
Y39896D01*
X13594Y36897D01*
X17593D01*
X48859Y249195D02*
X42861D01*
Y252194D01*
X43861Y253194D01*
X45860D01*
X46860Y252194D01*
Y249195D01*
Y251195D02*
X48859Y253194D01*
Y255193D02*
Y257193D01*
Y256193D01*
X42861D01*
X43861Y255193D01*
Y260192D02*
X42861Y261192D01*
Y263191D01*
X43861Y264191D01*
X44861D01*
X45860Y263191D01*
Y262191D01*
Y263191D01*
X46860Y264191D01*
X47860D01*
X48859Y263191D01*
Y261192D01*
X47860Y260192D01*
X18935Y346945D02*
X20268D01*
X19601D01*
Y342946D01*
X18935D01*
X20268D01*
X22267D02*
Y345612D01*
X22934D01*
X23600Y344945D01*
Y342946D01*
Y344945D01*
X24267Y345612D01*
X24933Y344945D01*
Y342946D01*
X26932D02*
X28265D01*
X28932Y343612D01*
Y344945D01*
X28265Y345612D01*
X26932D01*
X26266Y344945D01*
Y343612D01*
X26932Y342946D01*
X30931Y346278D02*
Y345612D01*
X30265D01*
X31598D01*
X30931D01*
Y343612D01*
X31598Y342946D01*
X33597Y346945D02*
Y342946D01*
X36263D01*
X37596D02*
Y346945D01*
X39595D01*
X40261Y346278D01*
Y344945D01*
X39595Y344279D01*
X37596D01*
X59002Y118899D02*
Y113901D01*
X60001Y112901D01*
X62001D01*
X63000Y113901D01*
Y118899D01*
X68998Y112901D02*
X65000D01*
X68998Y116900D01*
Y117899D01*
X67999Y118899D01*
X65999D01*
X65000Y117899D01*
X54211Y366748D02*
X55210Y367747D01*
Y369747D01*
X54211Y370746D01*
X50212D01*
X49212Y369747D01*
Y367747D01*
X50212Y366748D01*
X49212Y360750D02*
Y364748D01*
X53211Y360750D01*
X54211D01*
X55210Y361749D01*
Y363749D01*
X54211Y364748D01*
X66904Y317024D02*
X65905Y318023D01*
X63905D01*
X62906Y317024D01*
Y313025D01*
X63905Y312025D01*
X65905D01*
X66904Y313025D01*
X68904Y312025D02*
X70903D01*
X69903D01*
Y318023D01*
X68904Y317024D01*
X73902D02*
X74902Y318023D01*
X76901D01*
X77901Y317024D01*
Y316024D01*
X76901Y315024D01*
X75901D01*
X76901D01*
X77901Y314025D01*
Y313025D01*
X76901Y312025D01*
X74902D01*
X73902Y313025D01*
X88002Y150599D02*
Y145601D01*
X89001Y144601D01*
X91001D01*
X92000Y145601D01*
Y150599D01*
X97998D02*
X94000D01*
Y147600D01*
X95999Y148600D01*
X96999D01*
X97998Y147600D01*
Y145601D01*
X96999Y144601D01*
X94999D01*
X94000Y145601D01*
X105782Y203382D02*
Y209380D01*
X108781D01*
X109781Y208380D01*
Y206381D01*
X108781Y205381D01*
X105782D01*
X107782D02*
X109781Y203382D01*
X115779D02*
X111780D01*
X115779Y207381D01*
Y208380D01*
X114779Y209380D01*
X112780D01*
X111780Y208380D01*
X117778D02*
X118778Y209380D01*
X120777D01*
X121777Y208380D01*
Y207381D01*
X120777Y206381D01*
X121777Y205381D01*
Y204382D01*
X120777Y203382D01*
X118778D01*
X117778Y204382D01*
Y205381D01*
X118778Y206381D01*
X117778Y207381D01*
Y208380D01*
X118778Y206381D02*
X120777D01*
X107400Y103899D02*
X106401Y104899D01*
X104401D01*
X103402Y103899D01*
Y99901D01*
X104401Y98901D01*
X106401D01*
X107400Y99901D01*
X113398Y104899D02*
X109400D01*
Y101900D01*
X111399Y102900D01*
X112399D01*
X113398Y101900D01*
Y99901D01*
X112399Y98901D01*
X110399D01*
X109400Y99901D01*
X142369Y141852D02*
X136371D01*
Y144851D01*
X137371Y145851D01*
X139370D01*
X140370Y144851D01*
Y141852D01*
Y143851D02*
X142369Y145851D01*
X136371Y151849D02*
Y147850D01*
X139370D01*
X138370Y149849D01*
Y150849D01*
X139370Y151849D01*
X141369D01*
X142369Y150849D01*
Y148850D01*
X141369Y147850D01*
X213629Y186884D02*
X207631D01*
Y189883D01*
X208631Y190883D01*
X210630D01*
X211630Y189883D01*
Y186884D01*
Y188884D02*
X213629Y190883D01*
Y196881D02*
Y192883D01*
X209630Y196881D01*
X208631D01*
X207631Y195882D01*
Y193882D01*
X208631Y192883D01*
X213629Y201880D02*
X207631D01*
X210630Y198881D01*
Y202879D01*
X254669Y253267D02*
Y255933D01*
X254002Y256599D01*
X252669D01*
X252003Y255933D01*
Y253267D01*
X252669Y252601D01*
X254002D01*
X253336Y253934D02*
X254669Y252601D01*
X254002D02*
X254669Y253267D01*
X258667Y256599D02*
X256002D01*
Y254600D01*
X257334D01*
X256002D01*
Y252601D01*
X260000Y256599D02*
Y252601D01*
X262666D01*
X263999Y256599D02*
X265332D01*
X264666D01*
Y252601D01*
X263999D01*
X265332D01*
X267331D02*
Y256599D01*
X269331D01*
X269997Y255933D01*
Y254600D01*
X269331Y253934D01*
X267331D01*
X249828Y240043D02*
X247829D01*
X248829D01*
Y235045D01*
X247829Y234045D01*
X246829D01*
X245830Y235045D01*
X255826Y234045D02*
X251828D01*
X255826Y238044D01*
Y239044D01*
X254827Y240043D01*
X252827D01*
X251828Y239044D01*
X41600Y232899D02*
X39601D01*
X40600D01*
Y227901D01*
X39601Y226901D01*
X38601D01*
X37601Y227901D01*
X43599Y226901D02*
X45599D01*
X44599D01*
Y232899D01*
X43599Y231899D01*
X23471Y248802D02*
X17473D01*
Y251801D01*
X18473Y252800D01*
X20472D01*
X21472Y251801D01*
Y248802D01*
Y250801D02*
X23471Y252800D01*
Y254800D02*
Y256799D01*
Y255799D01*
X17473D01*
X18473Y254800D01*
X23471Y263797D02*
Y259798D01*
X19473Y263797D01*
X18473D01*
X17473Y262797D01*
Y260798D01*
X18473Y259798D01*
X43550Y31616D02*
X37552D01*
Y34615D01*
X38552Y35614D01*
X40551D01*
X41551Y34615D01*
Y31616D01*
Y33615D02*
X43550Y35614D01*
Y40613D02*
X37552D01*
X40551Y37614D01*
Y41613D01*
X106570Y214619D02*
Y220617D01*
X109569D01*
X110568Y219618D01*
Y217618D01*
X109569Y216618D01*
X106570D01*
X108569D02*
X110568Y214619D01*
X116566D02*
X112568D01*
X116566Y218618D01*
Y219618D01*
X115567Y220617D01*
X113567D01*
X112568Y219618D01*
X118566Y220617D02*
X122564D01*
Y219618D01*
X118566Y215619D01*
Y214619D01*
X129193Y194246D02*
X128527Y194913D01*
X127194D01*
X126527Y194246D01*
Y191580D01*
X127194Y190914D01*
X128527D01*
X129193Y191580D01*
X132525Y194913D02*
X131193D01*
X130526Y194246D01*
Y191580D01*
X131193Y190914D01*
X132525D01*
X133192Y191580D01*
Y194246D01*
X132525Y194913D01*
X134525Y190914D02*
Y194913D01*
X135858Y193580D01*
X137190Y194913D01*
Y190914D01*
X138523D02*
Y194913D01*
X140523D01*
X141189Y194246D01*
Y192913D01*
X140523Y192247D01*
X138523D01*
X185191Y157198D02*
X184191Y158198D01*
X182192D01*
X181192Y157198D01*
Y153200D01*
X182192Y152200D01*
X184191D01*
X185191Y153200D01*
X187190Y157198D02*
X188190Y158198D01*
X190189D01*
X191189Y157198D01*
Y156199D01*
X190189Y155199D01*
X191189Y154199D01*
Y153200D01*
X190189Y152200D01*
X188190D01*
X187190Y153200D01*
Y154199D01*
X188190Y155199D01*
X187190Y156199D01*
Y157198D01*
X188190Y155199D02*
X190189D01*
X234501Y228502D02*
X239499D01*
X240499Y229501D01*
Y231501D01*
X239499Y232500D01*
X234501D01*
X235501Y234500D02*
X234501Y235499D01*
Y237499D01*
X235501Y238498D01*
X236500D01*
X237500Y237499D01*
X238500Y238498D01*
X239499D01*
X240499Y237499D01*
Y235499D01*
X239499Y234500D01*
X238500D01*
X237500Y235499D01*
X236500Y234500D01*
X235501D01*
X237500Y235499D02*
Y237499D01*
X237251Y186884D02*
X231253D01*
Y189883D01*
X232253Y190883D01*
X234252D01*
X235252Y189883D01*
Y186884D01*
Y188884D02*
X237251Y190883D01*
Y196881D02*
Y192883D01*
X233252Y196881D01*
X232253D01*
X231253Y195882D01*
Y193882D01*
X232253Y192883D01*
Y198881D02*
X231253Y199880D01*
Y201880D01*
X232253Y202879D01*
X233252D01*
X234252Y201880D01*
Y200880D01*
Y201880D01*
X235252Y202879D01*
X236251D01*
X237251Y201880D01*
Y199880D01*
X236251Y198881D01*
X2004Y336399D02*
Y333734D01*
X3336Y332401D01*
X4669Y333734D01*
Y336399D01*
X6002Y332401D02*
Y335066D01*
X6669D01*
X7335Y334400D01*
Y332401D01*
Y334400D01*
X8002Y335066D01*
X8668Y334400D01*
Y332401D01*
X10667D02*
X12000D01*
X12667Y333067D01*
Y334400D01*
X12000Y335066D01*
X10667D01*
X10001Y334400D01*
Y333067D01*
X10667Y332401D01*
X14666Y335733D02*
Y335066D01*
X14000D01*
X15333D01*
X14666D01*
Y333067D01*
X15333Y332401D01*
X17332Y336399D02*
Y332401D01*
X19998D01*
X21331D02*
Y336399D01*
X23330D01*
X23996Y335733D01*
Y334400D01*
X23330Y333734D01*
X21331D01*
X41263Y367535D02*
X42262Y368535D01*
Y370534D01*
X41263Y371534D01*
X37264D01*
X36264Y370534D01*
Y368535D01*
X37264Y367535D01*
X41263Y365536D02*
X42262Y364536D01*
Y362537D01*
X41263Y361537D01*
X40263D01*
X39263Y362537D01*
Y363536D01*
Y362537D01*
X38263Y361537D01*
X37264D01*
X36264Y362537D01*
Y364536D01*
X37264Y365536D01*
X53801Y57602D02*
X47803D01*
Y60601D01*
X48803Y61600D01*
X50802D01*
X51802Y60601D01*
Y57602D01*
Y59601D02*
X53801Y61600D01*
X48803Y63600D02*
X47803Y64599D01*
Y66599D01*
X48803Y67598D01*
X49802D01*
X50802Y66599D01*
Y65599D01*
Y66599D01*
X51802Y67598D01*
X52801D01*
X53801Y66599D01*
Y64599D01*
X52801Y63600D01*
X191609Y287720D02*
Y293718D01*
X194608D01*
X195608Y292718D01*
Y290719D01*
X194608Y289719D01*
X191609D01*
X193608D02*
X195608Y287720D01*
X201606D02*
X197607D01*
X201606Y291719D01*
Y292718D01*
X200606Y293718D01*
X198607D01*
X197607Y292718D01*
X207604Y293718D02*
X205604Y292718D01*
X203605Y290719D01*
Y288720D01*
X204605Y287720D01*
X206604D01*
X207604Y288720D01*
Y289719D01*
X206604Y290719D01*
X203605D01*
X194338Y94471D02*
X188340D01*
Y97470D01*
X189339Y98470D01*
X191339D01*
X192338Y97470D01*
Y94471D01*
Y96470D02*
X194338Y98470D01*
Y100469D02*
Y102468D01*
Y101469D01*
X188340D01*
X189339Y100469D01*
X193338Y105467D02*
X194338Y106467D01*
Y108466D01*
X193338Y109466D01*
X189339D01*
X188340Y108466D01*
Y106467D01*
X189339Y105467D01*
X190339D01*
X191339Y106467D01*
Y109466D01*
X201818Y186884D02*
X195820D01*
Y189883D01*
X196819Y190883D01*
X198819D01*
X199819Y189883D01*
Y186884D01*
Y188884D02*
X201818Y190883D01*
Y196881D02*
Y192883D01*
X197819Y196881D01*
X196819D01*
X195820Y195882D01*
Y193882D01*
X196819Y192883D01*
X201818Y202879D02*
Y198881D01*
X197819Y202879D01*
X196819D01*
X195820Y201880D01*
Y199880D01*
X196819Y198881D01*
X255400Y292799D02*
X254401Y293799D01*
X252401D01*
X251402Y292799D01*
Y288801D01*
X252401Y287801D01*
X254401D01*
X255400Y288801D01*
X257400D02*
X258399Y287801D01*
X260399D01*
X261398Y288801D01*
Y292799D01*
X260399Y293799D01*
X258399D01*
X257400Y292799D01*
Y291800D01*
X258399Y290800D01*
X261398D01*
X40199Y120498D02*
X39199Y121498D01*
X37200D01*
X36200Y120498D01*
Y116500D01*
X37200Y115500D01*
X39199D01*
X40199Y116500D01*
X46197Y121498D02*
X44197Y120498D01*
X42198Y118499D01*
Y116500D01*
X43198Y115500D01*
X45197D01*
X46197Y116500D01*
Y117499D01*
X45197Y118499D01*
X42198D01*
X56570Y299983D02*
X50572D01*
Y302982D01*
X51572Y303981D01*
X53571D01*
X54571Y302982D01*
Y299983D01*
Y301982D02*
X56570Y303981D01*
Y305981D02*
Y307980D01*
Y306980D01*
X50572D01*
X51572Y305981D01*
Y310979D02*
X50572Y311979D01*
Y313978D01*
X51572Y314978D01*
X55570D01*
X56570Y313978D01*
Y311979D01*
X55570Y310979D01*
X51572D01*
X63999Y155002D02*
X58001D01*
Y158001D01*
X59001Y159001D01*
X61000D01*
X62000Y158001D01*
Y155002D01*
Y157002D02*
X63999Y159001D01*
Y164999D02*
Y161000D01*
X60000Y164999D01*
X59001D01*
X58001Y163999D01*
Y162000D01*
X59001Y161000D01*
X63999Y166998D02*
Y168998D01*
Y167998D01*
X58001D01*
X59001Y166998D01*
X66502Y281499D02*
Y276501D01*
X67501Y275501D01*
X69501D01*
X70500Y276501D01*
Y281499D01*
X72500Y276501D02*
X73499Y275501D01*
X75499D01*
X76498Y276501D01*
Y280499D01*
X75499Y281499D01*
X73499D01*
X72500Y280499D01*
Y279500D01*
X73499Y278500D01*
X76498D01*
X170069Y57101D02*
Y61099D01*
X172068D01*
X172735Y60433D01*
Y59100D01*
X172068Y58434D01*
X170069D01*
X174068Y61099D02*
Y57101D01*
X175401Y58434D01*
X176734Y57101D01*
Y61099D01*
X178067Y57101D02*
Y61099D01*
X179399Y59766D01*
X180732Y61099D01*
Y57101D01*
X182732D02*
X184064D01*
X184731Y57767D01*
Y59100D01*
X184064Y59766D01*
X182732D01*
X182065Y59100D01*
Y57767D01*
X182732Y57101D01*
X175619Y328316D02*
Y332314D01*
X177618D01*
X178285Y331648D01*
Y330315D01*
X177618Y329648D01*
X175619D01*
X179618Y332314D02*
Y328316D01*
X180951Y329648D01*
X182283Y328316D01*
Y332314D01*
X183616Y328316D02*
Y332314D01*
X184949Y330981D01*
X186282Y332314D01*
Y328316D01*
X187615D02*
X188948D01*
X188282D01*
Y330981D01*
X187615D01*
X75499Y155003D02*
X69501D01*
Y158002D01*
X70501Y159001D01*
X72500D01*
X73500Y158002D01*
Y155003D01*
Y157002D02*
X75499Y159001D01*
Y164999D02*
Y161001D01*
X71500Y164999D01*
X70501D01*
X69501Y164000D01*
Y162000D01*
X70501Y161001D01*
Y166999D02*
X69501Y167998D01*
Y169998D01*
X70501Y170997D01*
X74499D01*
X75499Y169998D01*
Y167998D01*
X74499Y166999D01*
X70501D01*
X90140Y127709D02*
Y133708D01*
X93139D01*
X94139Y132708D01*
Y130709D01*
X93139Y129709D01*
X90140D01*
X92140D02*
X94139Y127709D01*
X96138D02*
X98138D01*
X97138D01*
Y133708D01*
X96138Y132708D01*
X101137Y133708D02*
X105135D01*
Y132708D01*
X101137Y128709D01*
Y127709D01*
X139979Y98469D02*
X133981D01*
Y101468D01*
X134981Y102467D01*
X136980D01*
X137980Y101468D01*
Y98469D01*
Y100468D02*
X139979Y102467D01*
Y104467D02*
Y106466D01*
Y105466D01*
X133981D01*
X134981Y104467D01*
X199666Y385191D02*
X198999Y385858D01*
X197666D01*
X197000Y385191D01*
Y382525D01*
X197666Y381859D01*
X198999D01*
X199666Y382525D01*
Y383858D01*
X198333D01*
X200998Y381859D02*
Y385858D01*
X203664Y381859D01*
Y385858D01*
X204997D02*
Y381859D01*
X206996D01*
X207663Y382525D01*
Y385191D01*
X206996Y385858D01*
X204997D01*
X211662Y381859D02*
X208996D01*
X211662Y384525D01*
Y385191D01*
X210995Y385858D01*
X209662D01*
X208996Y385191D01*
X219424Y141852D02*
X213426D01*
Y144851D01*
X214426Y145851D01*
X216425D01*
X217425Y144851D01*
Y141852D01*
Y143851D02*
X219424Y145851D01*
X218424Y147850D02*
X219424Y148850D01*
Y150849D01*
X218424Y151849D01*
X214426D01*
X213426Y150849D01*
Y148850D01*
X214426Y147850D01*
X215425D01*
X216425Y148850D01*
Y151849D01*
X31373Y382828D02*
Y388826D01*
X33372Y386826D01*
X35371Y388826D01*
Y382828D01*
X37371Y388826D02*
Y382828D01*
Y385827D01*
X41369D01*
Y388826D01*
Y382828D01*
X47368D02*
X43369D01*
X47368Y386826D01*
Y387826D01*
X46368Y388826D01*
X44368D01*
X43369Y387826D01*
X164775Y220725D02*
Y214726D01*
X162776Y216726D01*
X160777Y214726D01*
Y220725D01*
X158777Y214726D02*
Y220725D01*
X155778D01*
X154779Y219725D01*
Y215726D01*
X155778Y214726D01*
X158777D01*
X152779Y220725D02*
X150780D01*
X151780D01*
Y214726D01*
X152779Y215726D01*
X249629Y33898D02*
Y39896D01*
X251629Y37897D01*
X253628Y39896D01*
Y33898D01*
X255628Y39896D02*
Y33898D01*
Y36897D01*
X259626D01*
Y39896D01*
Y33898D01*
X261626Y38896D02*
X262625Y39896D01*
X264625D01*
X265624Y38896D01*
Y37897D01*
X264625Y36897D01*
X263625D01*
X264625D01*
X265624Y35897D01*
Y34898D01*
X264625Y33898D01*
X262625D01*
X261626Y34898D01*
X61691Y78470D02*
X60691Y79469D01*
X58692D01*
X57692Y78470D01*
Y74471D01*
X58692Y73471D01*
X60691D01*
X61691Y74471D01*
X63690Y79469D02*
X67689D01*
Y78470D01*
X63690Y74471D01*
Y73471D01*
X2330Y274174D02*
Y280172D01*
X5329D01*
X6329Y279173D01*
Y277173D01*
X5329Y276174D01*
X2330D01*
X8328Y274174D02*
X10328D01*
X9328D01*
Y280172D01*
X8328Y279173D01*
X28016Y273781D02*
Y279779D01*
X31015D01*
X32015Y278779D01*
Y276780D01*
X31015Y275780D01*
X28016D01*
X38013Y273781D02*
X34014D01*
X38013Y277779D01*
Y278779D01*
X37014Y279779D01*
X35014D01*
X34014Y278779D01*
X233501Y265502D02*
X238499D01*
X239499Y266501D01*
Y268501D01*
X238499Y269500D01*
X233501D01*
Y275498D02*
X234501Y273499D01*
X236500Y271500D01*
X238499D01*
X239499Y272499D01*
Y274499D01*
X238499Y275498D01*
X237500D01*
X236500Y274499D01*
Y271500D01*
X200435Y88299D02*
X199102D01*
X198435Y87633D01*
Y84967D01*
X199102Y84301D01*
X200435D01*
X201101Y84967D01*
Y87633D01*
X200435Y88299D01*
X202434Y84301D02*
Y88299D01*
X204433D01*
X205100Y87633D01*
Y86300D01*
X204433Y85634D01*
X202434D01*
X206433Y86300D02*
X209099D01*
X210432Y84301D02*
X211765D01*
X211098D01*
Y88299D01*
X210432Y87633D01*
X65000Y239999D02*
X67666D01*
X66333Y241332D02*
Y238666D01*
X71665Y241999D02*
X68999D01*
Y239999D01*
X70332Y240666D01*
X70998D01*
X71665Y239999D01*
Y238666D01*
X70998Y238000D01*
X69665D01*
X68999Y238666D01*
X72997Y241999D02*
Y239333D01*
X74330Y238000D01*
X75663Y239333D01*
Y241999D01*
X76996Y238000D02*
X79662Y240666D01*
X80995Y241999D02*
Y239333D01*
X82328Y238000D01*
X83661Y239333D01*
Y241999D01*
X84994Y238000D02*
X86326D01*
X85660D01*
Y240666D01*
X84994D01*
X88326Y238000D02*
Y240666D01*
X90325D01*
X90992Y239999D01*
Y238000D01*
X166800Y381798D02*
Y375800D01*
X169799D01*
X170799Y376800D01*
Y380798D01*
X169799Y381798D01*
X166800D01*
X172798Y375800D02*
X174797D01*
X173798D01*
Y381798D01*
X172798Y380798D01*
X181795Y375800D02*
X177796D01*
X181795Y379799D01*
Y380798D01*
X180796Y381798D01*
X178796D01*
X177796Y380798D01*
X228600Y142500D02*
X224601D01*
Y144499D01*
X225268Y145166D01*
X226601D01*
X227267Y144499D01*
Y142500D01*
Y143833D02*
X228600Y145166D01*
X227934Y146499D02*
X228600Y147165D01*
Y148498D01*
X227934Y149164D01*
X225268D01*
X224601Y148498D01*
Y147165D01*
X225268Y146499D01*
X225934D01*
X226601Y147165D01*
Y149164D01*
X234500Y83300D02*
X230501D01*
Y85299D01*
X231168Y85966D01*
X232501D01*
X233167Y85299D01*
Y83300D01*
Y84633D02*
X234500Y85966D01*
X230501Y87299D02*
Y89964D01*
X231168D01*
X233834Y87299D01*
X234500D01*
X181400Y70500D02*
X177401D01*
Y72499D01*
X178068Y73166D01*
X179401D01*
X180067Y72499D01*
Y70500D01*
Y71833D02*
X181400Y73166D01*
Y74499D02*
Y75832D01*
Y75165D01*
X177401D01*
X178068Y74499D01*
X177401Y80497D02*
Y77831D01*
X179401D01*
X178734Y79164D01*
Y79830D01*
X179401Y80497D01*
X180734D01*
X181400Y79830D01*
Y78497D01*
X180734Y77831D01*
X193000Y70500D02*
X189001D01*
Y72499D01*
X189668Y73166D01*
X191001D01*
X191667Y72499D01*
Y70500D01*
Y71833D02*
X193000Y73166D01*
Y74499D02*
Y75832D01*
Y75165D01*
X189001D01*
X189668Y74499D01*
X192333Y77831D02*
X193000Y78497D01*
Y79830D01*
X192333Y80497D01*
X189668D01*
X189001Y79830D01*
Y78497D01*
X189668Y77831D01*
X190334D01*
X191001Y78497D01*
Y80497D01*
X138300Y70500D02*
X134301D01*
Y72499D01*
X134968Y73166D01*
X136301D01*
X136967Y72499D01*
Y70500D01*
Y71833D02*
X138300Y73166D01*
Y74499D02*
Y75832D01*
Y75165D01*
X134301D01*
X134968Y74499D01*
X126700Y70500D02*
X122701D01*
Y72499D01*
X123368Y73166D01*
X124701D01*
X125367Y72499D01*
Y70500D01*
Y71833D02*
X126700Y73166D01*
X122701Y77165D02*
X123368Y75832D01*
X124701Y74499D01*
X126033D01*
X126700Y75165D01*
Y76498D01*
X126033Y77165D01*
X125367D01*
X124701Y76498D01*
Y74499D01*
X81600Y204000D02*
Y207999D01*
X83599D01*
X84266Y207332D01*
Y205999D01*
X83599Y205333D01*
X81600D01*
X82933D02*
X84266Y204000D01*
X88265D02*
X85599D01*
X88265Y206666D01*
Y207332D01*
X87598Y207999D01*
X86265D01*
X85599Y207332D01*
X89597D02*
X90264Y207999D01*
X91597D01*
X92263Y207332D01*
Y206666D01*
X91597Y205999D01*
X92263Y205333D01*
Y204666D01*
X91597Y204000D01*
X90264D01*
X89597Y204666D01*
Y205333D01*
X90264Y205999D01*
X89597Y206666D01*
Y207332D01*
X90264Y205999D02*
X91597D01*
X81600Y215700D02*
Y219699D01*
X83599D01*
X84266Y219032D01*
Y217699D01*
X83599Y217033D01*
X81600D01*
X82933D02*
X84266Y215700D01*
X88265D02*
X85599D01*
X88265Y218366D01*
Y219032D01*
X87598Y219699D01*
X86265D01*
X85599Y219032D01*
X89597Y219699D02*
X92263D01*
Y219032D01*
X89597Y216366D01*
Y215700D01*
X56800Y246200D02*
X52801D01*
Y248199D01*
X53468Y248866D01*
X54801D01*
X55467Y248199D01*
Y246200D01*
Y247533D02*
X56800Y248866D01*
Y250199D02*
Y251532D01*
Y250865D01*
X52801D01*
X53468Y250199D01*
Y253531D02*
X52801Y254197D01*
Y255530D01*
X53468Y256197D01*
X54134D01*
X54801Y255530D01*
Y254864D01*
Y255530D01*
X55467Y256197D01*
X56134D01*
X56800Y255530D01*
Y254197D01*
X56134Y253531D01*
X22800Y280800D02*
X18801D01*
Y282799D01*
X19468Y283466D01*
X20801D01*
X21467Y282799D01*
Y280800D01*
Y282133D02*
X22800Y283466D01*
Y284799D02*
Y286132D01*
Y285465D01*
X18801D01*
X19468Y284799D01*
X22800Y290797D02*
Y288131D01*
X20134Y290797D01*
X19468D01*
X18801Y290130D01*
Y288797D01*
X19468Y288131D01*
X56800Y329500D02*
X52801D01*
Y331499D01*
X53468Y332166D01*
X54801D01*
X55467Y331499D01*
Y329500D01*
Y330833D02*
X56800Y332166D01*
Y333499D02*
Y334832D01*
Y334165D01*
X52801D01*
X53468Y333499D01*
Y336831D02*
X52801Y337497D01*
Y338830D01*
X53468Y339497D01*
X56134D01*
X56800Y338830D01*
Y337497D01*
X56134Y336831D01*
X53468D01*
X44300Y329500D02*
X40301D01*
Y331499D01*
X40968Y332166D01*
X42301D01*
X42967Y331499D01*
Y329500D01*
Y330833D02*
X44300Y332166D01*
Y333499D02*
Y334832D01*
Y334165D01*
X40301D01*
X40968Y333499D01*
X44300Y336831D02*
Y338164D01*
Y337497D01*
X40301D01*
X40968Y336831D01*
X32600Y329500D02*
X28601D01*
Y331499D01*
X29268Y332166D01*
X30601D01*
X31267Y331499D01*
Y329500D01*
Y330833D02*
X32600Y332166D01*
X29268Y333499D02*
X28601Y334165D01*
Y335498D01*
X29268Y336164D01*
X29934D01*
X30601Y335498D01*
X31267Y336164D01*
X31934D01*
X32600Y335498D01*
Y334165D01*
X31934Y333499D01*
X31267D01*
X30601Y334165D01*
X29934Y333499D01*
X29268D01*
X30601Y334165D02*
Y335498D01*
X187221Y297457D02*
Y301455D01*
X189220D01*
X189886Y300789D01*
Y299456D01*
X189220Y298790D01*
X187221D01*
X188553D02*
X189886Y297457D01*
X193885D02*
X191219D01*
X193885Y300122D01*
Y300789D01*
X193219Y301455D01*
X191886D01*
X191219Y300789D01*
X197884Y301455D02*
X196551Y300789D01*
X195218Y299456D01*
Y298123D01*
X195884Y297457D01*
X197217D01*
X197884Y298123D01*
Y298790D01*
X197217Y299456D01*
X195218D01*
X200100Y162000D02*
X196101D01*
Y163999D01*
X196768Y164666D01*
X198101D01*
X198767Y163999D01*
Y162000D01*
Y163333D02*
X200100Y164666D01*
Y168665D02*
Y165999D01*
X197434Y168665D01*
X196768D01*
X196101Y167998D01*
Y166665D01*
X196768Y165999D01*
X200100Y172663D02*
Y169997D01*
X197434Y172663D01*
X196768D01*
X196101Y171997D01*
Y170664D01*
X196768Y169997D01*
X211800Y162000D02*
X207801D01*
Y163999D01*
X208468Y164666D01*
X209801D01*
X210467Y163999D01*
Y162000D01*
Y163333D02*
X211800Y164666D01*
Y168665D02*
Y165999D01*
X209134Y168665D01*
X208468D01*
X207801Y167998D01*
Y166665D01*
X208468Y165999D01*
X211800Y171997D02*
X207801D01*
X209801Y169997D01*
Y172663D01*
X224300Y162000D02*
X220301D01*
Y163999D01*
X220968Y164666D01*
X222301D01*
X222967Y163999D01*
Y162000D01*
Y163333D02*
X224300Y164666D01*
Y168665D02*
Y165999D01*
X221634Y168665D01*
X220968D01*
X220301Y167998D01*
Y166665D01*
X220968Y165999D01*
X220301Y172663D02*
Y169997D01*
X222301D01*
X221634Y171330D01*
Y171997D01*
X222301Y172663D01*
X223634D01*
X224300Y171997D01*
Y170664D01*
X223634Y169997D01*
X236000Y162000D02*
X232001D01*
Y163999D01*
X232668Y164666D01*
X234001D01*
X234667Y163999D01*
Y162000D01*
Y163333D02*
X236000Y164666D01*
Y168665D02*
Y165999D01*
X233334Y168665D01*
X232668D01*
X232001Y167998D01*
Y166665D01*
X232668Y165999D01*
Y169997D02*
X232001Y170664D01*
Y171997D01*
X232668Y172663D01*
X233334D01*
X234001Y171997D01*
Y171330D01*
Y171997D01*
X234667Y172663D01*
X235334D01*
X236000Y171997D01*
Y170664D01*
X235334Y169997D01*
X177100Y170000D02*
X173101D01*
Y171999D01*
X173768Y172666D01*
X175101D01*
X175767Y171999D01*
Y170000D01*
Y171333D02*
X177100Y172666D01*
Y173999D02*
Y175332D01*
Y174665D01*
X173101D01*
X173768Y173999D01*
Y177331D02*
X173101Y177997D01*
Y179330D01*
X173768Y179997D01*
X174434D01*
X175101Y179330D01*
X175767Y179997D01*
X176434D01*
X177100Y179330D01*
Y177997D01*
X176434Y177331D01*
X175767D01*
X175101Y177997D01*
X174434Y177331D01*
X173768D01*
X175101Y177997D02*
Y179330D01*
X165400Y170000D02*
X161401D01*
Y171999D01*
X162068Y172666D01*
X163401D01*
X164067Y171999D01*
Y170000D01*
Y171333D02*
X165400Y172666D01*
Y173999D02*
Y175332D01*
Y174665D01*
X161401D01*
X162068Y173999D01*
X165400Y179330D02*
X161401D01*
X163401Y177331D01*
Y179997D01*
X152900Y170000D02*
X148901D01*
Y171999D01*
X149568Y172666D01*
X150901D01*
X151567Y171999D01*
Y170000D01*
Y171333D02*
X152900Y172666D01*
Y176664D02*
Y173999D01*
X150234Y176664D01*
X149568D01*
X148901Y175998D01*
Y174665D01*
X149568Y173999D01*
X141200Y170000D02*
X137201D01*
Y171999D01*
X137868Y172666D01*
X139201D01*
X139867Y171999D01*
Y170000D01*
Y171333D02*
X141200Y172666D01*
X137201Y176664D02*
Y173999D01*
X139201D01*
X138534Y175332D01*
Y175998D01*
X139201Y176664D01*
X140533D01*
X141200Y175998D01*
Y174665D01*
X140533Y173999D01*
X128000Y155200D02*
X124001D01*
Y157199D01*
X124668Y157866D01*
X126001D01*
X126667Y157199D01*
Y155200D01*
Y156533D02*
X128000Y157866D01*
Y159199D02*
Y160532D01*
Y159865D01*
X124001D01*
X124668Y159199D01*
X124001Y165197D02*
X124668Y163864D01*
X126001Y162531D01*
X127333D01*
X128000Y163197D01*
Y164530D01*
X127333Y165197D01*
X126667D01*
X126001Y164530D01*
Y162531D01*
X62900Y186200D02*
X58901D01*
Y188199D01*
X59568Y188866D01*
X60901D01*
X61567Y188199D01*
Y186200D01*
Y187533D02*
X62900Y188866D01*
Y192865D02*
Y190199D01*
X60234Y192865D01*
X59568D01*
X58901Y192198D01*
Y190865D01*
X59568Y190199D01*
X62900Y194197D02*
Y195530D01*
Y194864D01*
X58901D01*
X59568Y194197D01*
X74600Y186200D02*
X70601D01*
Y188199D01*
X71268Y188866D01*
X72601D01*
X73267Y188199D01*
Y186200D01*
Y187533D02*
X74600Y188866D01*
Y192865D02*
Y190199D01*
X71934Y192865D01*
X71268D01*
X70601Y192198D01*
Y190865D01*
X71268Y190199D01*
Y194197D02*
X70601Y194864D01*
Y196197D01*
X71268Y196863D01*
X73934D01*
X74600Y196197D01*
Y194864D01*
X73934Y194197D01*
X71268D01*
X94200Y119900D02*
Y123899D01*
X96199D01*
X96866Y123232D01*
Y121899D01*
X96199Y121233D01*
X94200D01*
X95533D02*
X96866Y119900D01*
X98199D02*
X99532D01*
X98865D01*
Y123899D01*
X98199Y123232D01*
X101531Y123899D02*
X104197D01*
Y123232D01*
X101531Y120566D01*
Y119900D01*
X62100Y59600D02*
X58101D01*
Y61599D01*
X58768Y62266D01*
X60101D01*
X60767Y61599D01*
Y59600D01*
Y60933D02*
X62100Y62266D01*
X58768Y63599D02*
X58101Y64265D01*
Y65598D01*
X58768Y66264D01*
X59434D01*
X60101Y65598D01*
Y64932D01*
Y65598D01*
X60767Y66264D01*
X61434D01*
X62100Y65598D01*
Y64265D01*
X61434Y63599D01*
X34000Y32600D02*
X30001D01*
Y34599D01*
X30668Y35266D01*
X32001D01*
X32667Y34599D01*
Y32600D01*
Y33933D02*
X34000Y35266D01*
Y38598D02*
X30001D01*
X32001Y36599D01*
Y39265D01*
D11*
X277495Y272300D02*
G03*
X277495Y272300I-5295J0D01*
G01*
X264795D02*
G03*
X264795Y272300I-5295J0D01*
G01*
X227295Y50400D02*
G03*
X227295Y50400I-5295J0D01*
G01*
X83495Y343500D02*
G03*
X83495Y343500I-5295J0D01*
G01*
X212095Y50400D02*
G03*
X212095Y50400I-5295J0D01*
G01*
X75895Y219700D02*
G03*
X75895Y219700I-5295J0D01*
G01*
X200195Y320900D02*
G03*
X200195Y320900I-5295J0D01*
G01*
X197795Y50400D02*
G03*
X197795Y50400I-5295J0D01*
G01*
X52695Y344300D02*
G03*
X52695Y344300I-5295J0D01*
G01*
X250195Y254400D02*
G03*
X250195Y254400I-5295J0D01*
G01*
X139795Y183600D02*
G03*
X139795Y183600I-5295J0D01*
G01*
X16228Y343600D02*
G03*
X16228Y343600I-5295J0D01*
G01*
X182595Y50400D02*
G03*
X182595Y50400I-5295J0D01*
G01*
X187895Y320900D02*
G03*
X187895Y320900I-5295J0D01*
G01*
X209495Y374700D02*
G03*
X209495Y374700I-5295J0D01*
G01*
X209795Y77400D02*
G03*
X209795Y77400I-5295J0D01*
G01*
D12*
X181595Y235000D02*
G03*
X181595Y235000I-492J0D01*
G01*
X203330Y122523D02*
G03*
X203330Y122523I-492J0D01*
G01*
X172355Y93287D02*
G03*
X172355Y93287I-492J0D01*
G01*
X52226Y109745D02*
G03*
X52226Y109745I-492J0D01*
G01*
X82700Y173051D02*
G03*
X82700Y173051I-492J0D01*
G01*
X230059Y250098D02*
G03*
X230059Y250098I-492J0D01*
G01*
X78878Y283366D02*
G03*
X78878Y283366I-492J0D01*
G01*
X166279Y239525D02*
G03*
X166279Y239525I-492J0D01*
G01*
X7972Y237362D02*
G03*
X7972Y237362I-492J0D01*
G01*
X33658Y236968D02*
G03*
X33658Y236968I-492J0D01*
G01*
X196713Y259305D02*
G03*
X196713Y259305I-492J0D01*
G01*
D13*
X211991Y117680D02*
G03*
X211991Y117680I-1181J0D01*
G01*
X62856Y106871D02*
G03*
X62856Y106871I-1181J0D01*
G01*
X91893Y168110D02*
G03*
X91893Y168110I-1181J0D01*
G01*
X202559Y267671D02*
G03*
X202559Y267671I-1181J0D01*
G01*
D14*
X119343Y87800D02*
G03*
X119343Y87800I-9843J0D01*
G01*
X149409Y39682D02*
Y68422D01*
X71063D02*
X149409D01*
X71063Y39682D02*
Y68422D01*
Y39682D02*
X149409D01*
X47244Y294685D02*
Y319488D01*
X37795Y294685D02*
Y319488D01*
Y294685D02*
X39866D01*
X45173Y319488D02*
X47244D01*
X45173Y294685D02*
X47244D01*
X37795Y319488D02*
X39866D01*
X36007Y294685D02*
Y319488D01*
X26558Y294685D02*
Y319488D01*
Y294685D02*
X28629D01*
X33936Y319488D02*
X36007D01*
X33936Y294685D02*
X36007D01*
X26558Y319488D02*
X28629D01*
X224837Y37106D02*
X232357D01*
X209837D02*
X220191D01*
X179837D02*
X190191D01*
X164837D02*
X175191D01*
X149837D02*
X160191D01*
X89837D02*
X100191D01*
X74837D02*
X85191D01*
X62829D02*
X70191D01*
X47671Y886D02*
Y37106D01*
Y886D02*
X232356D01*
Y37106D01*
X47671D02*
X52199D01*
X104837D02*
X115191D01*
X119837D02*
X130191D01*
X134837D02*
X145191D01*
X194837D02*
X205191D01*
X112205Y145309D02*
Y170112D01*
X121654Y145309D02*
Y170112D01*
X119583D02*
X121654D01*
X112205Y145309D02*
X114276D01*
X112205Y170112D02*
X114276D01*
X119583Y145309D02*
X121654D01*
X155692Y134449D02*
Y159252D01*
X146243Y134449D02*
Y159252D01*
Y134449D02*
X148314D01*
X153621Y159252D02*
X155692D01*
X153621Y134449D02*
X155692D01*
X146243Y159252D02*
X148314D01*
X169376Y134215D02*
Y159018D01*
X178824Y134215D02*
Y159018D01*
X176753D02*
X178824D01*
X169376Y134215D02*
X171446D01*
X169376Y159018D02*
X171446D01*
X176753Y134215D02*
X178824D01*
X175807Y267953D02*
X186398D01*
X175807Y236772D02*
Y267953D01*
Y236772D02*
X186398D01*
Y267953D01*
X174803Y89567D02*
Y114370D01*
X184252Y89567D02*
Y114370D01*
X182181D02*
X184252D01*
X174803Y89567D02*
X176874D01*
X174803Y114370D02*
X176874D01*
X182181Y89567D02*
X184252D01*
X206873Y101932D02*
X219471D01*
X206873Y121617D02*
X219471D01*
Y101932D02*
Y121617D01*
X206873Y101932D02*
Y121617D01*
X237402Y102050D02*
Y126854D01*
X227953Y102050D02*
Y126854D01*
Y102050D02*
X230024D01*
X235331Y126854D02*
X237402D01*
X235331Y102050D02*
X237402D01*
X227953Y126854D02*
X230024D01*
X120079Y89173D02*
Y113976D01*
X129528Y89173D02*
Y113976D01*
X127457D02*
X129528D01*
X120079Y89173D02*
X122150D01*
X120079Y113976D02*
X122150D01*
X127457Y89173D02*
X129528D01*
X160154Y91142D02*
Y110433D01*
X153232D02*
X160154D01*
X153232Y91142D02*
Y110433D01*
Y91142D02*
X160154D01*
X157480Y134055D02*
Y158858D01*
X166929Y134055D02*
Y158858D01*
X164858D02*
X166929D01*
X157480Y134055D02*
X159551D01*
X157480Y158858D02*
X159551D01*
X164858Y134055D02*
X166929D01*
X238403Y182480D02*
Y207283D01*
X228954Y182480D02*
Y207283D01*
Y182480D02*
X231025D01*
X236332Y207283D02*
X238403D01*
X236332Y182480D02*
X238403D01*
X228954Y207283D02*
X231025D01*
X50191Y245079D02*
Y269882D01*
X40742Y245079D02*
Y269882D01*
Y245079D02*
X42813D01*
X48120Y269882D02*
X50191D01*
X48120Y245079D02*
X50191D01*
X40742Y269882D02*
X42813D01*
X57738Y86792D02*
X87462D01*
X57738Y110808D02*
X87462D01*
Y86792D02*
Y110808D01*
X57738Y86792D02*
Y110808D01*
X86775Y152362D02*
Y172047D01*
X99216Y152362D02*
Y172047D01*
X86775D02*
X99216D01*
X86775Y152362D02*
X99216D01*
X102165Y201657D02*
X126969D01*
X102165Y211105D02*
X126969D01*
X102165Y209034D02*
Y211105D01*
X126969Y201657D02*
Y203727D01*
X102165Y201657D02*
Y203727D01*
X126969Y209034D02*
Y211105D01*
X134646Y134449D02*
Y159252D01*
X144094Y134449D02*
Y159252D01*
X142024D02*
X144094D01*
X134646Y134449D02*
X136717D01*
X134646Y159252D02*
X136717D01*
X142024Y134449D02*
X144094D01*
X227165Y182480D02*
Y207283D01*
X217717Y182480D02*
Y207283D01*
Y182480D02*
X219787D01*
X225094Y207283D02*
X227165D01*
X225094Y182480D02*
X227165D01*
X217717Y207283D02*
X219787D01*
X245669Y222618D02*
Y230138D01*
Y207618D02*
Y217972D01*
Y177618D02*
Y187972D01*
Y162618D02*
Y172972D01*
Y147618D02*
Y157972D01*
Y87618D02*
Y97972D01*
Y72618D02*
Y82972D01*
Y60610D02*
Y67973D01*
Y45453D02*
X281890D01*
Y230138D01*
X245669D02*
X281890D01*
X245669Y45453D02*
Y49981D01*
Y102618D02*
Y112972D01*
Y117618D02*
Y127972D01*
Y132618D02*
Y142972D01*
Y192618D02*
Y202972D01*
X33858Y45453D02*
Y52972D01*
Y57618D02*
Y67972D01*
Y87618D02*
Y97972D01*
Y102618D02*
Y112972D01*
Y117618D02*
Y127972D01*
Y177618D02*
Y187972D01*
Y192618D02*
Y202972D01*
Y207618D02*
Y214980D01*
X-2362Y230138D02*
X33858D01*
X-2362Y45453D02*
Y230138D01*
Y45453D02*
X33858D01*
Y225610D02*
Y230138D01*
Y162618D02*
Y172972D01*
Y147618D02*
Y157972D01*
Y132618D02*
Y142972D01*
Y72618D02*
Y82972D01*
X25591Y244291D02*
Y269094D01*
X16142Y244291D02*
Y269094D01*
Y244291D02*
X18213D01*
X23520Y269094D02*
X25591D01*
X23520Y244291D02*
X25591D01*
X16142Y269094D02*
X18213D01*
X45489Y25000D02*
Y49803D01*
X36040Y25000D02*
Y49803D01*
Y25000D02*
X38111D01*
X43418Y49803D02*
X45489D01*
X43418Y25000D02*
X45489D01*
X36040Y49803D02*
X38111D01*
X102559Y212894D02*
X127362D01*
X102559Y222342D02*
X127362D01*
X102559Y220272D02*
Y222342D01*
X127362Y212894D02*
Y214965D01*
X102559Y212894D02*
Y214965D01*
X127362Y220272D02*
Y222342D01*
X197343Y228150D02*
Y240354D01*
X231791Y228150D02*
Y240354D01*
X215354Y182480D02*
Y207283D01*
X205906Y182480D02*
Y207283D01*
Y182480D02*
X207976D01*
X213283Y207283D02*
X215354D01*
X213283Y182480D02*
X215354D01*
X205906Y207283D02*
X207976D01*
X55824Y50198D02*
Y75002D01*
X46376Y50198D02*
Y75002D01*
Y50198D02*
X48447D01*
X53754Y75002D02*
X55824D01*
X53754Y50198D02*
X55824D01*
X46376Y75002D02*
X48447D01*
X186811Y286093D02*
Y288164D01*
X211614Y293471D02*
Y295542D01*
X186811Y293471D02*
Y295542D01*
X211614Y286093D02*
Y288164D01*
X186811Y286093D02*
X211614D01*
X186811Y295542D02*
X211614D01*
X186614Y89567D02*
Y114370D01*
X196063Y89567D02*
Y114370D01*
X193992D02*
X196063D01*
X186614Y89567D02*
X188685D01*
X186614Y114370D02*
X188685D01*
X193992Y89567D02*
X196063D01*
X203543Y182480D02*
Y207283D01*
X194094Y182480D02*
Y207283D01*
Y182480D02*
X196165D01*
X201472Y207283D02*
X203543D01*
X201472Y182480D02*
X203543D01*
X194094Y207283D02*
X196165D01*
X58481Y294685D02*
Y319488D01*
X49033Y294685D02*
Y319488D01*
Y294685D02*
X51103D01*
X56410Y319488D02*
X58481D01*
X56410Y294685D02*
X58481D01*
X49033Y319488D02*
X51103D01*
X56643Y149803D02*
Y174606D01*
X66092Y149803D02*
Y174606D01*
X64021D02*
X66092D01*
X56643Y149803D02*
X58714D01*
X56643Y174606D02*
X58714D01*
X64021Y149803D02*
X66092D01*
X75197Y284449D02*
Y295866D01*
X71260Y284449D02*
Y295866D01*
Y284449D02*
X75197D01*
X71260Y295866D02*
X75197D01*
X77329Y149803D02*
Y174606D01*
X67880Y149803D02*
Y174606D01*
Y149803D02*
X69951D01*
X75258Y174606D02*
X77329D01*
X75258Y149803D02*
X77329D01*
X67880Y174606D02*
X69951D01*
X84843Y135548D02*
X109646D01*
X84843Y126099D02*
X109646D01*
Y128170D01*
X84843Y133477D02*
Y135548D01*
X109646Y133477D02*
Y135548D01*
X84843Y126099D02*
Y128170D01*
X141704Y90066D02*
Y114869D01*
X132256Y90066D02*
Y114869D01*
Y90066D02*
X134327D01*
X139634Y114869D02*
X141704D01*
X139634Y90066D02*
X141704D01*
X132256Y114869D02*
X134327D01*
X211811Y134449D02*
Y159252D01*
X221260Y134449D02*
Y159252D01*
X219189D02*
X221260D01*
X211811Y134449D02*
X213882D01*
X211811Y159252D02*
X213882D01*
X219189Y134449D02*
X221260D01*
X163425Y224524D02*
Y402025D01*
X93425D02*
X163425D01*
X93425Y224524D02*
Y402025D01*
Y224524D02*
X163425D01*
X2185Y270315D02*
X12776D01*
X2185Y239134D02*
Y270315D01*
Y239134D02*
X12776D01*
Y270315D01*
X27871Y269921D02*
X38462D01*
X27871Y238740D02*
Y269921D01*
Y238740D02*
X38462D01*
Y269921D01*
X231693Y263734D02*
Y276332D01*
X197441Y263734D02*
Y276332D01*
X231693D01*
X197441Y263734D02*
X231693D01*
D15*
X37200Y148498D02*
Y143500D01*
X39699D01*
X40532Y144333D01*
Y147665D01*
X39699Y148498D01*
X37200D01*
X42198Y143500D02*
X43865D01*
X43031D01*
Y148498D01*
X42198Y147665D01*
X49696Y143500D02*
X46364D01*
X49696Y146832D01*
Y147665D01*
X48863Y148498D01*
X47197D01*
X46364Y147665D01*
X37200Y221099D02*
X40532D01*
X38866Y222765D02*
Y219433D01*
X45531Y223598D02*
X42198D01*
Y221099D01*
X43865Y221932D01*
X44698D01*
X45531Y221099D01*
Y219433D01*
X44698Y218600D01*
X43031D01*
X42198Y219433D01*
X47197Y223598D02*
Y220266D01*
X48863Y218600D01*
X50529Y220266D01*
Y223598D01*
X52195Y218600D02*
X53861D01*
X53028D01*
Y221932D01*
X52195D01*
X37200Y208698D02*
X40532D01*
X38866D01*
Y203700D01*
X42198Y208698D02*
Y203700D01*
Y206199D01*
X43031Y207032D01*
X44698D01*
X45531Y206199D01*
Y203700D01*
X47197Y207032D02*
Y203700D01*
Y205366D01*
X48030Y206199D01*
X48863Y207032D01*
X49696D01*
X53028Y203700D02*
X54694D01*
X55527Y204533D01*
Y206199D01*
X54694Y207032D01*
X53028D01*
X52195Y206199D01*
Y204533D01*
X53028Y203700D01*
X37200Y188000D02*
X38866D01*
X38033D01*
Y191332D01*
X37200D01*
X44698Y192165D02*
X43865Y192998D01*
X42198D01*
X41365Y192165D01*
Y188833D01*
X42198Y188000D01*
X43865D01*
X44698Y188833D01*
Y190499D01*
X43031D01*
X46364Y188000D02*
Y192998D01*
X49696Y188000D01*
Y192998D01*
X51362D02*
Y188000D01*
X53861D01*
X54694Y188833D01*
Y192165D01*
X53861Y192998D01*
X51362D01*
X37200Y173300D02*
X38866D01*
X38033D01*
Y176632D01*
X37200D01*
X44698Y177465D02*
X43865Y178298D01*
X42198D01*
X41365Y177465D01*
Y174133D01*
X42198Y173300D01*
X43865D01*
X44698Y174133D01*
Y175799D01*
X43031D01*
X46364Y173300D02*
Y178298D01*
X49696Y173300D01*
Y178298D01*
X51362D02*
Y173300D01*
X53861D01*
X54694Y174133D01*
Y177465D01*
X53861Y178298D01*
X51362D01*
X37200Y163198D02*
Y158200D01*
X39699D01*
X40532Y159033D01*
Y162365D01*
X39699Y163198D01*
X37200D01*
X42198Y158200D02*
X43865D01*
X43031D01*
Y163198D01*
X42198Y162365D01*
X46364Y158200D02*
X48030D01*
X47197D01*
Y163198D01*
X46364Y162365D01*
D16*
X224404Y350387D02*
X220469Y354323D01*
X212597D01*
X208661Y350387D01*
Y346452D01*
X212597Y342516D01*
X220469D01*
X224404Y338580D01*
Y334644D01*
X220469Y330709D01*
X212597D01*
X208661Y334644D01*
X248019Y354323D02*
X232276D01*
Y330709D01*
X248019D01*
X232276Y342516D02*
X240147D01*
X255890Y330709D02*
Y354323D01*
X263762Y346452D01*
X271633Y354323D01*
Y330709D01*
D17*
X239650Y364800D02*
D03*
M02*
