M48
;Layer_Color=9474304
;FILE_FORMAT=2:5
INCH
;TYPE=PLATED
T01F00S00C0.01181
T02F00S00C0.02800
T03F00S00C0.02992
T04F00S00C0.03150
T05F00S00C0.03346
T06F00S00C0.03598
T07F00S00C0.03937
T08F00S00C0.04331
T09F00S00C0.05512
T10F00S00C0.12598
%
T01
X0100300Y0068700
X0119291Y0072441
X0117323Y0107480
X0109843Y0108756
X0086614Y0112168
X0082677Y0106299
X0066929
X0079921Y0144095
X0084646Y0147638
X0100394Y0143307
X0151575Y0120472
X0168110Y0130315
X0172441Y0108268
X0199460Y0123622
X0215748Y0122835
X0223700Y0137700
X0211811Y0150000
X0215354Y0155512
X0238583Y0079134
X0263386Y0076378
X0190945Y0177559
X0172000Y0175500
X0158661Y0178805
X0182600Y0194700
X0207480Y0196850
X0214567Y0233858
X0224410
X0229528Y0231496
X0219291Y0238976
X0232800Y0249600
X0193118Y0248630
X0196850Y0286614
X0210630Y0304331
X0261811Y0300787
X0273228Y0294094
X0153543Y0204724
X0133071Y0166535
X0116535Y0166929
X0098032Y0169685
X0049606Y0215354
X0044882Y0229528
X0033071Y0231890
X0020079Y0298031
X0008268Y0298425
X0062300Y0292800
X0061900Y0288800
X0067716Y0298819
X0201575Y0314173
T02
X0257874Y0183858
T03
X0040600Y0087958
Y0107642
X0075657Y0079300
X0095342
X0149442Y0078205
X0169127
X0184458Y0142200
X0204142
X0190000Y0210757
Y0230443
X0225200Y0291022
X0244885
X0084342Y0310600
X0064657
X0057157Y0265400
X0076842
X0089057Y0177800
X0108742
X0065627Y0356299
X0052249
X0038870
Y0375984
X0052249
X0065627
T04
X0105563Y0087800
X0113437
T05
X0040765Y0019685
Y0055118
X0051100Y0044883
Y0080317
X0061367Y0144488
X0072604Y0144488
X0079528Y0130824
X0114961
X0116929Y0139994
X0124803Y0119291
X0136614
X0139370Y0129134
X0150967
X0136614Y0083858
X0124803
X0179528Y0084252
X0191339
Y0119685
X0179528
X0174016Y0128740
X0162204
X0216535Y0129134
X0232677Y0132168
Y0096735
X0233678Y0177165
X0222441
X0210630
X0198819
X0216535Y0164567
X0174016Y0164173
X0162204
X0198819Y0212598
X0210630
X0222441
X0233678
X0216929Y0290817
X0181496
X0132677Y0217618
X0132283Y0206381
X0096850
X0097244Y0217618
X0116929Y0175427
X0139370Y0164567
X0150967Y0164567
X0072604Y0179921
X0061367Y0179921
X0045467Y0239764
X0020866Y0238976
Y0274409
X0031282Y0289370
X0042520
X0053757Y0290157
X0045467Y0275197
X0042520Y0324803
X0031282
X0053757Y0325591
T06
X0158425Y0239525
Y0249524
Y0259524
Y0269525
Y0279524
Y0289525
Y0299524
Y0309524
X0098425
Y0299524
Y0289525
Y0279524
Y0269525
Y0259524
Y0249524
Y0239525
Y0319525
Y0329524
Y0339525
Y0349524
Y0359524
Y0369525
Y0379524
X0158425
Y0369525
Y0359524
Y0349524
Y0339525
Y0329524
Y0319525
T07
X0080236Y0064387
X0090236
X0120236
X0140236
T08
X0181102Y0242362
Y0252362
Y0262362
X0033166Y0264331
Y0254331
Y0244331
X0007480Y0244724
Y0254725
Y0264724
T09
X0029134Y0055295
Y0070295
Y0085295
Y0100295
Y0115295
Y0130295
Y0145295
X0057514Y0032382
X0072514
X0087514
X0102514
X0117514
X0132514
X0147514
X0162514
X0177514
X0192514
X0207514
X0222514
X0250394Y0055296
Y0070296
Y0085296
Y0100296
Y0115296
Y0130296
Y0145296
Y0160296
Y0175296
Y0190296
Y0205296
Y0220296
X0029134Y0220295
Y0205295
Y0190295
Y0175295
Y0160295
T10
X0015748Y0015748
X0263779
X0015748Y0377953
X0263779
M30
